<?xml version="1.0" encoding="UTF-8"?>
<svg width="53px" height="80px" viewBox="0 0 53 80" version="1.1" xmlns="http://www.w3.org/2000/svg" xmlns:xlink="http://www.w3.org/1999/xlink">
    <!-- Generator: sketchtool 51.3 (57544) - http://www.bohemiancoding.com/sketch -->
    <title>5F93C4F7-A470-4AA7-943E-80EAE790A8A1</title>
    <desc>Created with sketchtool.</desc>
    <defs></defs>
    <g id="style-guide" stroke="none" stroke-width="1" fill="none" fill-rule="evenodd">
        <g id="icons" transform="translate(-22.000000, -21.000000)" fill="#030303" fill-rule="nonzero">
            <g id="ico/animal_ico" transform="translate(22.000000, 21.000000)">
                <path d="M46.4724862,0.235091812 C42.8462567,-0.735399991 38.8856009,1.36951804 37.0560927,5.24492788 L36.0921583,7.21214099 C31.8012354,16.3508702 29.1849163,26.1853872 28.3675681,36.2482066 C26.8360756,36.1373302 25.2970852,36.1922941 23.7774042,36.412141 C22.9162202,26.5198861 20.3168314,16.8570858 16.0987157,7.8678787 L15.1610108,5.90066558 C13.3380599,2.02525575 9.37084682,-0.0796622864 5.74461731,0.890829517 C2.1183878,1.86132132 -0.281612195,5.65148525 0.0265845262,9.91378034 L0.210191084,12.2154197 C1.05609272,22.4777148 5.547896,36.0646 9.57412551,44.8646 C3.95985195,52.3820313 3.84798434,62.6661891 9.29740464,70.3039676 C14.7468249,77.9417461 24.5079209,81.1817184 33.4429025,78.3185127 C42.377884,75.455307 48.4378612,67.145488 48.4331419,57.7629607 C48.4547032,52.3676785 46.4328522,47.1642821 42.7741255,43.1990262 C46.7675681,34.7859115 51.1151091,22.4318131 51.9544534,11.559682 L52.1380599,9.25804263 C52.4856009,4.99574755 50.1052731,1.19902624 46.4724862,0.235091812 Z M48.2364206,8.94984591 L48.052814,11.2514853 C47.1872403,22.1301738 42.6233058,34.6416492 38.6298632,42.7268951 L37.9741255,44.0383705 L39.0167485,45.0350918 C42.5188382,48.3509983 44.4954986,52.9663697 44.4790435,57.7891902 C44.481956,65.5917502 39.3583562,72.4692088 31.8812796,74.6992932 C24.404203,76.9293775 16.3503385,73.9821792 12.0786626,67.4528043 C7.80698679,60.9234294 8.33252725,52.3633758 13.3708468,46.4055836 L14.1839616,45.4416492 L13.6396993,44.3006656 C9.64625666,35.8547639 4.97084682,22.117059 4.16428944,11.907223 L3.96101076,9.60558362 C3.79051895,7.21214099 4.95773207,5.16623935 6.76101076,4.68755083 C7.02012677,4.62059805 7.28683229,4.58753538 7.55445338,4.58919017 C9.12166649,4.58919017 10.7347812,5.73673116 11.600355,7.57279673 L12.5380599,9.54000984 C16.8772868,18.7550986 19.4252446,28.7110489 20.0462567,38.8777148 L20.1839616,41.2580426 L22.4921583,40.6678787 C24.8993929,40.0562464 27.4083827,39.9579422 29.8560927,40.3793541 L32.0265845,40.7531246 L32.1577321,38.3727967 C32.7650779,28.1583656 35.3179264,18.1539592 39.6790435,8.89738689 L40.6167485,6.93017378 C41.6331419,4.78591148 43.6659288,3.57279673 45.4626501,4.05148525 C47.2396993,4.51050165 48.4265845,6.55640329 48.242978,8.94984591 L48.2364206,8.94984591 Z" id="Shape"></path>
                <circle id="Oval" cx="19.3442623" cy="53.442623" r="1.63934426"></circle>
                <circle id="Oval" cx="33.1147541" cy="53.442623" r="1.63934426"></circle>
                <path d="M27.1722385,64.295082 L28.9099434,61.2786885 C29.0100151,61.0808518 29.0033431,60.8458455 28.892208,60.6540053 C28.7810729,60.462165 28.5805263,60.3394722 28.3591238,60.3278689 L24.8837139,60.3278689 C24.6623115,60.3394722 24.4617648,60.462165 24.3506297,60.6540053 C24.2394947,60.8458455 24.2328226,61.0808518 24.3328943,61.2786885 L26.0705992,64.295082 C26.1913883,64.4820805 26.3988015,64.5950253 26.6214189,64.5950253 C26.8440362,64.5950253 27.0514494,64.4820805 27.1722385,64.295082 Z" id="Shape"></path>
            </g>
        </g>
    </g>
</svg>