<?xml version="1.0" encoding="UTF-8"?>
<svg width="72px" height="80px" viewBox="0 0 72 80" version="1.1" xmlns="http://www.w3.org/2000/svg" xmlns:xlink="http://www.w3.org/1999/xlink">
    <!-- Generator: sketchtool 51.3 (57544) - http://www.bohemiancoding.com/sketch -->
    <title>5270B65F-E6AD-425C-B1E2-33E4C91E7372</title>
    <desc>Created with sketchtool.</desc>
    <defs></defs>
    <g id="style-guide" stroke="none" stroke-width="1" fill="none" fill-rule="evenodd">
        <g id="icons" transform="translate(-201.000000, -21.000000)" fill="#000000" fill-rule="nonzero">
            <g id="ico/gender_ico" transform="translate(201.000000, 21.000000)">
                <path d="M52.0721311,19.1016393 L52.0721311,6.85245902 L56.5639344,11.5213115 C57.3172146,12.3053747 58.5634777,12.3303293 59.3475409,11.5770491 C60.1316042,10.823769 60.1565588,9.5775059 59.4032787,8.79344262 L51.5213115,0.603278689 C51.1460152,0.213166678 50.6265491,-0.00505653703 50.0852459,-1.45601576e-15 C49.5405927,0.0121182031 49.0253523,0.249556218 48.6622951,0.655737705 L40.7934426,9.18032787 C40.1990914,9.6700386 39.9451475,10.4615263 40.1436416,11.2056165 C40.3421357,11.9497066 40.9565611,12.5095474 41.7158563,12.6381583 C42.4751516,12.7667692 43.2396685,12.4404962 43.6721311,11.8032787 L48.1377049,6.98360656 L48.1377049,19.095082 C43.7350288,19.4796151 39.5581944,21.213093 36.1770492,24.0590164 C29.0847395,18.0395962 18.9321007,17.2458592 10.9904801,22.0899213 C3.04885948,26.9339834 -0.892001093,36.3241758 1.21403096,45.3850204 C3.32006301,54.445865 10.9983675,61.1353892 20.2622951,61.9803279 L20.2622951,67.4295082 L13.2262295,67.4295082 C12.1397677,67.4295082 11.2590164,68.3102595 11.2590164,69.3967213 C11.2590164,70.4831831 12.1397677,71.3639344 13.2262295,71.3639344 L20.2622951,71.3639344 L20.2622951,78.0327869 C20.2622951,79.1192487 21.1430464,80 22.2295082,80 C23.31597,80 24.1967213,79.1192487 24.1967213,78.0327869 L24.1967213,71.3639344 L31.0754098,71.3639344 C32.1618716,71.3639344 33.042623,70.4831831 33.042623,69.3967213 C33.042623,68.3102595 32.1618716,67.4295082 31.0754098,67.4295082 L24.1967213,67.4295082 L24.1967213,61.9803279 C28.5636327,61.5867783 32.7054489,59.8659795 36.0655738,57.0491803 C43.156105,63.0327787 53.2788333,63.8111749 61.200824,58.9819775 C69.1228147,54.1527802 73.068604,44.7983013 70.99842,35.7543298 C68.928236,26.7103582 61.3060449,20.0038143 52.0721311,19.1016393 Z M36.0655738,51.3836066 C31.0938419,45.0024776 31.1181997,36.0523342 36.1245902,29.6983607 C41.096322,36.0794897 41.0719642,45.029633 36.0655738,51.3836066 Z M4.59016393,40.4983607 C4.59744864,33.6883336 8.52706092,27.4917428 14.6839392,24.5815243 C20.8408175,21.6713059 28.1233464,22.5681688 33.3901639,26.8852459 C26.8317819,34.8121279 26.798813,46.2715781 33.3114754,54.2360656 C28.0256451,58.5180989 20.7475375,59.3762054 14.6107683,56.4409243 C8.47399918,53.5056431 4.57409118,47.3009743 4.59016393,40.4983607 Z M50.0262295,58.2032787 C45.9600151,58.2034105 42.0198657,56.7919099 38.8786885,54.2098361 C45.4169753,46.2829475 45.4416894,34.8403035 38.9377049,26.8852459 C44.9647475,22.01204 53.4673646,21.6459103 59.8910092,25.9829792 C66.3146539,30.3200481 69.153,38.3432856 66.8856474,45.7549311 C64.6182949,53.1665767 57.7769312,58.2286208 50.0262295,58.2295082 L50.0262295,58.2032787 Z" id="mid_sex"></path>
            </g>
        </g>
    </g>
</svg>