<?xml version="1.0" encoding="UTF-8"?>
<svg width="26px" height="64px" viewBox="0 0 26 64" version="1.1" xmlns="http://www.w3.org/2000/svg" xmlns:xlink="http://www.w3.org/1999/xlink">
    <!-- Generator: sketchtool 51.3 (57544) - http://www.bohemiancoding.com/sketch -->
    <title>886479F0-252B-40EC-AFFA-78110453843D</title>
    <desc>Created with sketchtool.</desc>
    <defs></defs>
    <g id="style-guide" stroke="none" stroke-width="1" fill="none" fill-rule="evenodd">
        <g id="icons" transform="translate(-327.000000, -29.000000)" fill="#030303" fill-rule="nonzero">
            <g id="ico/leaf_ico" transform="translate(327.000000, 29.000000)">
                <path d="M13,50 C12.6144811,49.9962765 12.2439942,49.8496598 11.96,49.5884299 C11.44,49.1403916 0,38.4760374 0,24.9932096 C0,11.5103818 11.44,0.84602766 11.96,0.397989332 C12.5521774,-0.132663111 13.4478226,-0.132663111 14.04,0.397989332 C14.56,0.84602766 26,11.5103818 26,24.9932096 C26,38.4760374 14.56,49.1403916 14.04,49.5884299 C13.7560058,49.8496598 13.3855189,49.9962765 13,50 Z M13,3.76348654 C10.2596,6.66531617 3.12,15.1780444 3.12,24.9932096 C3.12,34.8083748 10.2544,43.3263128 13,46.2229327 C15.7404,43.3211031 22.88,34.8083748 22.88,24.9932096 C22.88,15.1780444 15.7456,6.66010642 13,3.76348654 Z" id="Shape"></path>
                <path d="M12.5,50 C11.6715729,50 11,49.2979011 11,48.4318182 L11,5.56818182 C11,4.70209892 11.6715729,4 12.5,4 C13.3284271,4 14,4.70209892 14,5.56818182 L14,48.4318182 C14,49.2979011 13.3284271,50 12.5,50 Z" id="Shape"></path>
                <path d="M13.5901207,35.9999997 C13.0212599,35.9984959 12.4963052,35.6992651 12.2125377,35.2147599 C11.9287702,34.7302547 11.9291803,34.133877 12.2136137,33.6497491 L18.0597822,23.7264689 C18.5181686,23.0178643 19.4634953,22.7903168 20.2032431,23.2105212 C20.9429909,23.6307256 21.2141649,24.5492909 20.8181108,25.2933026 L14.9719423,35.2165828 C14.6869459,35.7016739 14.1601136,36.0003588 13.5901207,35.9999997 Z" id="Shape"></path>
                <path d="M12.4973742,27.9999996 C11.940233,28.0003892 11.4283653,27.678364 11.166509,27.1627284 L7.14880291,19.2639434 C6.79921293,18.5007361 7.08561873,17.5842426 7.79817734,17.1859567 C8.51073595,16.7876709 9.39606805,17.0492195 9.80551107,17.7789718 L13.8232172,25.6777568 C14.0715357,26.1667294 14.0574395,26.7563569 13.7860679,27.2316701 C13.5146963,27.7069834 13.0257055,27.9985236 12.4973742,27.9999996 Z" id="Shape"></path>
                <path d="M12.5,64 C11.6715729,64 11,63.2889228 11,62.4117647 L11,47.5882353 C11,46.7110772 11.6715729,46 12.5,46 C13.3284271,46 14,46.7110772 14,47.5882353 L14,62.4117647 C14,63.2889228 13.3284271,64 12.5,64 Z" id="Shape"></path>
            </g>
        </g>
    </g>
</svg>