<?xml version="1.0" standalone="no"?>
<!DOCTYPE svg PUBLIC "-//W3C//DTD SVG 1.1//EN" "http://www.w3.org/Graphics/SVG/1.1/DTD/svg11.dtd" >
<svg xmlns="http://www.w3.org/2000/svg" xmlns:xlink="http://www.w3.org/1999/xlink" version="1.1">
<metadata>
Created by FontForge 20170924 at Mon Feb 21 11:56:35 2011
 By www-data
Copyright 2011 (c) Canada Type. All rights reserved. Orpheus is a trade mark of Canada Type.
</metadata>
<defs>
<font id="OrpheusPro" horiz-adv-x="798" >
  <font-face 
    font-family="Orpheus Pro"
    font-weight="400"
    font-stretch="normal"
    units-per-em="1000"
    panose-1="2 0 0 0 0 0 0 0 0 0"
    ascent="775"
    descent="-225"
    x-height="476"
    cap-height="727"
    bbox="-248 -228 1973 997"
    underline-thickness="50"
    underline-position="-50"
    stemh="56"
    stemv="507"
    unicode-range="U+000D-FB04"
  />
<missing-glyph horiz-adv-x="600" 
d="M500 0h-400v725h400v-725zM456 43v639h-312v-639h312z" />
    <glyph glyph-name="ff" unicode="ff" horiz-adv-x="468" 
d="M413 3v-5c-22 1 -38 2 -75 2s-53 -1 -75 -2v5c30 6 43 11 43 91v361h-170v-361c0 -80 13 -85 43 -91v-5c-22 1 -38 2 -75 2s-53 -1 -75 -2v5c30 6 43 11 43 91v361h-17v3l17 17c0 75 7 156 73 213c27 23 63 39 101 39c34 0 70 -14 94 -45c10 17 23 32 39 46
c27 23 63 39 101 39c24 0 43 -6 55 -15l-42 -54c-15 16 -38 31 -63 31c-59 0 -60 -76 -60 -207v-47h61c16 0 19 0 22 5h5c0 -17 -2 -35 -2 -62h-4c0 29 -5 37 -41 37h-41v-361c0 -80 13 -85 43 -91zM136 475h170c0 64 2 117 15 162c-14 58 -52 72 -86 72
c-68 0 -99 -73 -99 -197v-37z" />
    <glyph glyph-name="fi" unicode="fi" horiz-adv-x="445" 
d="M179 3v-5c-22 1 -38 2 -75 2s-53 -1 -75 -2v5c30 6 43 11 43 91v361h-17v3l17 17c0 115 7 196 73 253c27 23 63 39 101 39c24 0 121 -17 135 -129l-59 -21c-8 100 -61 127 -94 127c-91 0 -92 -90 -92 -189v-80h61c16 0 19 0 22 5h5c0 -17 -2 -35 -2 -62h-4
c0 29 -5 37 -41 37h-41v-361c0 -80 13 -85 43 -91zM416 3v-5c-22 1 -38 2 -75 2s-53 -1 -75 -2v5c30 6 43 11 43 91v300c0 36 -1 46 -31 54v5c30 2 69 10 95 22v-381c0 -80 13 -85 43 -91z" />
    <glyph glyph-name="fl" unicode="fl" horiz-adv-x="452" 
d="M418 3v-5c-22 1 -38 2 -75 2s-53 -1 -75 -2v5c30 6 43 11 43 91v548c0 75 -47 105 -88 105c-47 0 -87 -55 -87 -125v-147h61c16 0 19 0 22 5h5c0 -17 -2 -35 -2 -62h-4c0 29 -5 37 -41 37h-41v-361c0 -80 13 -85 43 -91v-5c-22 1 -38 2 -75 2s-53 -1 -75 -2v5
c30 6 43 11 43 91v361h-17v3l17 17c0 115 7 197 73 253c27 23 63 39 101 39c19 0 43 -5 73 -22c20 4 40 10 56 17v-668c0 -80 13 -85 43 -91z" />
    <glyph glyph-name="ffi" unicode="ffi" horiz-adv-x="679" 
d="M413 3v-5c-22 1 -38 2 -75 2s-53 -1 -75 -2v5c30 6 43 11 43 91v361h-170v-361c0 -80 13 -85 43 -91v-5c-22 1 -38 2 -75 2s-53 -1 -75 -2v5c30 6 43 11 43 91v361h-17v3l17 17c0 75 7 156 73 213c27 23 63 39 101 39c34 0 70 -14 95 -45c10 17 22 32 38 46
c27 23 63 39 101 39c24 0 121 -17 135 -129l-59 -21c-8 100 -61 127 -94 127c-91 0 -92 -90 -92 -189v-80h61c16 0 19 0 22 5h5c0 -17 -2 -35 -2 -62h-4c0 29 -5 37 -41 37h-41v-361c0 -80 13 -85 43 -91zM136 475h170c0 64 2 118 15 162c-14 58 -52 72 -86 72
c-68 0 -99 -73 -99 -197v-37zM650 3v-5c-22 1 -38 2 -75 2s-53 -1 -75 -2v5c30 6 43 11 43 91v300c0 36 -1 46 -31 54v5c30 2 69 10 95 22v-381c0 -80 13 -85 43 -91z" />
    <glyph glyph-name="ffl" unicode="ffl" horiz-adv-x="686" 
d="M652 3v-5c-22 1 -38 2 -75 2s-53 -1 -75 -2v5c30 6 43 11 43 91v548c0 75 -47 105 -88 105c-47 0 -87 -55 -87 -125v-147h61c16 0 19 0 22 5h5c0 -17 -2 -35 -2 -62h-4c0 29 -5 37 -41 37h-41v-361c0 -80 13 -85 43 -91v-5c-22 1 -38 2 -75 2s-53 -1 -75 -2v5
c30 6 43 11 43 91v361h-170v-361c0 -80 13 -85 43 -91v-5c-22 1 -38 2 -75 2s-53 -1 -75 -2v5c30 6 43 11 43 91v361h-17v3l17 17c0 75 7 156 73 213c27 23 63 39 101 39c34 0 70 -14 94 -45c10 17 23 32 39 46c27 23 63 39 101 39c19 0 43 -5 73 -22c20 4 40 10 56 17v-668
c0 -80 13 -85 43 -91zM136 475h170c0 64 2 117 15 162c-14 58 -52 72 -86 72c-68 0 -99 -73 -99 -197v-37z" />
    <glyph glyph-name="fb" unicode="fb" horiz-adv-x="753" 
d="M288 27v3c23 13 23 29 23 138v474c0 75 -47 105 -88 105c-47 0 -87 -55 -87 -125v-147h61c16 0 19 0 22 5h5c0 -17 -2 -35 -2 -62h-4c0 29 -5 37 -41 37h-41v-361c0 -80 13 -85 43 -91v-5c-22 1 -38 2 -75 2s-53 -1 -75 -2v5c30 6 43 11 43 91v361h-17v3l17 17
c0 115 7 197 73 253c27 23 63 39 101 39c19 0 43 -5 73 -22c20 4 40 10 56 17v-329c40 32 84 47 128 47c148 0 218 -111 218 -228c0 -128 -84 -262 -226 -262c-81 0 -109 39 -168 39c-13 0 -25 0 -39 -2zM375 412v-265c0 -98 45 -134 117 -134c106 0 145 100 145 219
c0 124 -42 226 -148 226c-34 0 -71 -7 -114 -46z" />
    <glyph glyph-name="fh" unicode="fh" horiz-adv-x="748" 
d="M725 3v-5c-22 1 -38 2 -75 2s-53 -1 -75 -2v5c30 6 43 11 43 91v218c0 124 -61 148 -122 148c-37 0 -85 -15 -121 -41v-325c0 -80 13 -85 43 -91v-5c-22 1 -38 2 -75 2s-53 -1 -75 -2v5c30 6 43 11 43 91v548c0 75 -47 105 -88 105c-47 0 -87 -55 -87 -125v-147h61
c16 0 19 0 22 5h5c0 -17 -2 -35 -2 -62h-4c0 29 -5 37 -41 37h-41v-361c0 -80 13 -85 43 -91v-5c-22 1 -38 2 -75 2s-53 -1 -75 -2v5c30 6 43 11 43 91v361h-17v3l17 17c0 115 7 197 73 253c27 23 63 39 101 39c19 0 43 -5 73 -22c20 4 40 10 56 17v-322c45 28 97 40 146 40
c67 0 161 -20 161 -163v-223c0 -80 13 -85 43 -91z" />
    <glyph glyph-name="fj" unicode="fj" horiz-adv-x="445" 
d="M179 3v-5c-22 1 -38 2 -75 2s-53 -1 -75 -2v5c30 6 43 11 43 91v361h-17v3l17 17c0 115 7 196 73 253c27 23 63 39 101 39c24 0 121 -17 135 -129l-59 -21c-8 100 -61 127 -94 127c-91 0 -92 -90 -92 -189v-80h61c16 0 19 0 22 5h5c0 -17 -2 -35 -2 -62h-4
c0 29 -5 37 -41 37h-41v-361c0 -80 13 -85 43 -91zM236 -224l1 7c71 0 72 59 72 240v371c0 36 -1 46 -31 54v5c30 2 69 10 95 22v-487c0 -105 -10 -213 -123 -213c-4 0 -8 0 -14 1z" />
    <glyph glyph-name="fk" unicode="fk" horiz-adv-x="692" 
d="M713 3v-5c-39 1 -68 2 -91 2s-32 -1 -59 -2v5c9 1 18 3 18 8s-3 8 -7 13l-199 224v-154c0 -80 13 -85 43 -91v-5c-22 1 -38 2 -75 2s-53 -1 -75 -2v5c30 6 43 11 43 91v548c0 75 -47 105 -88 105c-47 0 -87 -55 -87 -125v-147h61c16 0 19 0 22 5h5c0 -17 -2 -35 -2 -62
h-4c0 29 -5 37 -41 37h-41v-361c0 -80 13 -85 43 -91v-5c-22 1 -38 2 -75 2s-53 -1 -75 -2v5c30 6 43 11 43 91v361h-17v3l17 17c0 115 7 197 73 253c27 23 63 39 101 39c19 0 43 -5 73 -22c20 4 40 10 56 17v-501c111 104 172 164 172 193c0 10 -5 15 -24 18v5
c23 -1 47 -2 71 -2s47 1 71 2v-6c-50 -10 -70 -28 -238 -184c207 -232 237 -282 286 -284z" />
    <glyph glyph-name="ft" unicode="ft" horiz-adv-x="526" 
d="M517 72l5 -3c-22 -54 -64 -79 -115 -79c-53 0 -103 11 -103 119v319c0 26 -2 27 -24 27h-144v-361c0 -80 13 -85 43 -91v-5c-22 1 -38 2 -75 2s-53 -1 -75 -2v5c30 6 43 11 43 91v361h-17v3l17 17c0 115 7 197 73 253c27 23 63 39 101 39c24 0 43 -6 55 -15l-42 -54
c-15 16 -38 31 -63 31c-59 0 -60 -76 -60 -207v-47h117c57 0 99 34 124 131h6c-6 -34 -15 -87 -15 -131h82c48 0 64 0 79 25l6 -6c-15 -24 -30 -39 -41 -71h-8c1 3 2 7 2 11c0 17 -14 21 -48 21h-72v-344c0 -69 20 -93 71 -93c38 0 61 14 78 54z" />
    <glyph glyph-name="Th" unicode="Th" horiz-adv-x="968" 
d="M945 3v-5c-22 1 -38 2 -75 2s-53 -1 -75 -2v5c30 6 43 11 43 91v218c0 124 -61 148 -122 148c-37 0 -85 -15 -121 -41v-325c0 -80 13 -85 43 -91v-5c-22 1 -38 2 -75 2s-53 -1 -75 -2v5c30 6 43 11 43 91v612c-31 -11 -80 -11 -215 -11v-601c0 -80 13 -85 50 -91v-5
c-21 1 -53 2 -87 2c-37 0 -65 -1 -87 -2v5c37 6 50 11 50 91v601c-158 0 -205 0 -235 -64h-5c8 40 22 63 34 127h5c3 -32 27 -33 217 -33h148c101 0 148 13 189 37v-322c45 28 97 40 146 40c67 0 161 -20 161 -163v-223c0 -80 13 -85 43 -91z" />
    <glyph glyph-name=".notdef" horiz-adv-x="600" 
d="M500 0h-400v725h400v-725zM456 43v639h-312v-639h312z" />
    <glyph glyph-name="CR" unicode="&#xd;" horiz-adv-x="0" 
 />
    <glyph glyph-name="space" unicode=" " horiz-adv-x="250" 
 />
    <glyph glyph-name="exclam" unicode="!" horiz-adv-x="219" 
d="M112 173h-7c0 52 -36 228 -36 492c0 30 7 60 41 60c35 0 42 -30 42 -60c0 -264 -40 -440 -40 -492zM145 31c0 -19 -16 -35 -38 -35c-19 0 -35 16 -35 35c0 22 16 38 35 38c22 0 38 -16 38 -38z" />
    <glyph glyph-name="quotedbl" unicode="&#x22;" horiz-adv-x="214" 
d="M75 564h-27c-3 43 -5 110 -11 198h50c-6 -87 -9 -155 -12 -198zM165 564h-27c-3 43 -5 110 -11 198h50c-6 -87 -9 -155 -12 -198z" />
    <glyph glyph-name="numbersign" unicode="#" horiz-adv-x="1207" 
d="M1125 130h-290v20h290v-20zM987 221c-106 0 -189 51 -189 185c0 130 93 192 187 192c95 0 185 -65 185 -192c0 -117 -82 -185 -183 -185zM983 237c92 0 112 74 112 176c0 110 -30 168 -116 168c-89 0 -107 -89 -107 -183c0 -100 26 -161 111 -161zM720 -22h-5l-568 632
v-90c0 -500 1 -494 69 -517v-5c-22 1 -48 2 -85 2c-34 0 -58 -1 -79 -2v5c64 24 65 18 65 518v221h7l566 -629v89c0 506 -3 498 -69 520v5c22 -1 48 -2 85 -2c34 0 62 1 83 2v-5c-67 -22 -69 -14 -69 -514v-230z" />
    <glyph glyph-name="dollar" unicode="$" horiz-adv-x="460" 
d="M244 -51h-20v41h-12c-67 0 -96 19 -144 19c-6 0 -9 0 -15 -1c1 5 1 17 1 26c0 23 -5 44 -5 69c0 18 3 43 12 63h5c-1 -9 -2 -17 -2 -25c0 -82 78 -126 157 -126h3v323c-81 55 -167 107 -167 225c0 102 69 171 167 178v39h20v-38c57 -1 92 -16 131 -16c6 0 11 0 17 1
c-2 -21 -3 -39 -3 -66c0 -15 0 -40 1 -55h-6c-15 78 -67 115 -140 115v-288c82 -57 176 -112 176 -240c0 -114 -75 -188 -176 -201v-43zM244 324v-308c60 9 113 52 113 134c0 83 -52 131 -113 174zM224 447v273c-55 -7 -102 -42 -102 -112c0 -75 46 -120 102 -161z" />
    <glyph glyph-name="percent" unicode="%" horiz-adv-x="870" 
d="M205 0h-31l491 767h31zM226 383c-118 0 -190 70 -190 186c0 113 81 193 188 193c109 0 187 -82 187 -193c0 -101 -71 -186 -185 -186zM223 392c106 0 123 95 123 183c0 96 -26 177 -127 177c-103 0 -119 -108 -119 -190c0 -86 23 -170 123 -170zM651 -10
c-118 0 -190 70 -190 186c0 113 81 193 188 193c109 0 187 -82 187 -193c0 -101 -71 -186 -185 -186zM648 -1c106 0 123 95 123 183c0 96 -26 177 -127 177c-103 0 -119 -108 -119 -190c0 -86 23 -170 123 -170z" />
    <glyph glyph-name="ampersand" unicode="&#x26;" horiz-adv-x="633" 
d="M644 18v-3c-12 -11 -33 -17 -53 -17c-59 0 -113 20 -176 74c-45 -49 -106 -82 -182 -82c-109 0 -209 72 -209 185c0 90 84 150 150 193c-44 69 -64 121 -64 180c0 110 72 167 140 167c54 0 115 -30 115 -128c0 -55 -31 -122 -119 -191l5 -7c14 -23 97 -146 192 -244
c17 38 26 83 26 131c0 55 -14 83 -52 99v3c34 0 54 17 54 42h3c23 -29 34 -67 34 -108c0 -56 -17 -123 -51 -181c64 -63 132 -113 187 -113zM402 84c-40 37 -85 88 -136 156c-32 42 -59 79 -81 111c-46 -37 -81 -82 -81 -145c0 -113 82 -175 169 -175c53 0 96 19 129 53z
M236 413c53 47 76 104 76 169c0 73 -38 110 -74 110c-34 0 -67 -27 -67 -98c0 -49 14 -94 65 -181z" />
    <glyph glyph-name="quotesingle" unicode="'" horiz-adv-x="124" 
d="M75 564h-27c-3 43 -5 110 -11 198h50c-6 -87 -9 -155 -12 -198z" />
    <glyph glyph-name="parenleft" unicode="(" horiz-adv-x="237" 
d="M196 -117h-6c-97 104 -147 306 -147 446c0 139 49 337 146 438h6c-56 -141 -83 -286 -83 -434c0 -150 28 -301 84 -450z" />
    <glyph glyph-name="parenright" unicode=")" horiz-adv-x="237" 
d="M47 -117h-6c56 149 84 300 84 450c0 148 -27 293 -83 434h6c97 -101 146 -299 146 -438c0 -140 -50 -342 -147 -446z" />
    <glyph glyph-name="asterisk" unicode="*" horiz-adv-x="335" 
d="M255 468l-39 -24l-40 81l-16 -1l-41 -79l-38 24l61 68l-6 18l-86 22l23 45l69 -47l15 11l-13 78h49l-16 -78l14 -9l73 42l17 -44l-82 -18l-5 -19z" />
    <glyph glyph-name="plus" unicode="+" horiz-adv-x="459" 
d="M244 116h-30c1 36 1 93 1 172c-80 0 -136 0 -171 -1v30c36 -1 90 -2 171 -2c0 80 0 136 -1 172h30c-1 -36 -2 -91 -2 -172c80 0 136 1 173 2v-30c-37 1 -94 1 -173 1c0 -80 1 -136 2 -172z" />
    <glyph glyph-name="comma" unicode="," horiz-adv-x="179" 
d="M66 -103l-4 2c26 21 40 52 40 84c0 6 -1 13 -2 17c-5 -3 -10 -4 -15 -4c-22 0 -33 17 -33 35c0 24 16 38 34 38c21 0 44 -19 44 -60c0 -48 -25 -90 -64 -112z" />
    <glyph glyph-name="hyphen" unicode="-" horiz-adv-x="313" 
d="M256 316v-30c-33 1 -67 1 -100 1s-66 0 -99 -1v30c33 -1 66 -2 99 -2s67 1 100 2z" />
    <glyph glyph-name="period" unicode="." horiz-adv-x="175" 
d="M124 31c0 -19 -16 -35 -38 -35c-19 0 -35 16 -35 35c0 22 16 38 35 38c22 0 38 -16 38 -38z" />
    <glyph glyph-name="slash" unicode="/" horiz-adv-x="424" 
d="M61 -46h-31l333 813h31z" />
    <glyph glyph-name="zero" unicode="0" horiz-adv-x="624" 
d="M311 -10c-119 0 -262 100 -262 364c0 188 90 378 263 378s263 -190 263 -378c0 -264 -143 -364 -264 -364zM311 13c114 0 170 113 170 353c0 236 -55 343 -170 343c-113 0 -168 -107 -168 -343c0 -240 56 -353 168 -353z" />
    <glyph glyph-name="one" unicode="1" horiz-adv-x="297" 
d="M241 3v-5c-21 1 -53 2 -87 2c-37 0 -65 -1 -87 -2v5c37 6 50 11 50 91v541c-21 -18 -51 -39 -83 -60l-5 11c62 42 139 93 157 156h5v-648c0 -80 13 -85 50 -91z" />
    <glyph glyph-name="two" unicode="2" horiz-adv-x="548" 
d="M501 140h5c0 -34 -20 -71 -22 -146c-105 5 -210 6 -315 6c-52 0 -146 -1 -158 -1v5c115 65 385 257 385 506c0 149 -85 196 -168 196c-82 0 -159 -54 -159 -145c0 -34 16 -67 45 -89c-20 -8 -27 -13 -40 -22c-23 28 -33 66 -33 99c0 109 87 193 215 193
c113 0 223 -75 223 -235c0 -166 -185 -322 -334 -438c97 -1 241 -6 267 -6c61 0 70 14 89 77z" />
    <glyph glyph-name="three" unicode="3" horiz-adv-x="523" 
d="M98 184l2 -4c-5 -14 -7 -27 -7 -40c0 -83 61 -127 141 -127c103 0 153 78 153 161c0 107 -61 177 -181 183v7c128 7 173 86 173 176c0 96 -61 156 -156 156c-71 0 -141 -46 -141 -129c0 -22 7 -45 25 -66c-19 -4 -24 -6 -39 -15c-10 21 -14 45 -14 68
c0 92 76 178 197 178c129 0 211 -85 211 -186c0 -64 -37 -118 -117 -157c86 -43 125 -102 125 -183c0 -112 -82 -216 -230 -216c-82 0 -164 48 -197 142c34 23 42 43 55 52z" />
    <glyph glyph-name="four" unicode="4" horiz-adv-x="532" 
d="M462 3v-5c-21 1 -53 2 -87 2c-37 0 -65 -1 -87 -2v5c37 6 50 11 50 91v121h-328l-2 4l399 523h5v-481h7c42 0 65 0 77 34h5c-1 -25 -22 -51 -29 -85c-11 4 -34 5 -51 5h-9v-121c0 -80 13 -85 50 -91zM338 261v353l-270 -353h270z" />
    <glyph glyph-name="five" unicode="5" horiz-adv-x="503" 
d="M73 163l4 -3c-1 -6 -1 -12 -1 -17c0 -79 64 -130 155 -130c83 0 172 55 172 193c0 124 -74 199 -182 199c-45 0 -93 -12 -133 -56h-5c12 89 17 284 17 385c15 -1 154 -9 238 -9c47 0 56 1 68 17h5c-6 -18 -23 -47 -34 -87l-252 9c-1 -71 -3 -141 -7 -212
c42 18 76 24 113 24c135 0 238 -79 238 -237c0 -134 -96 -249 -235 -249c-86 0 -169 44 -204 133c26 19 32 33 43 40z" />
    <glyph glyph-name="six" unicode="6" horiz-adv-x="553" 
d="M159 347h-5c24 91 92 134 162 134c104 0 205 -85 205 -239c0 -130 -97 -252 -228 -252c-161 0 -246 150 -246 316c0 202 127 427 396 427v-9c-240 -12 -312 -232 -312 -439c0 -101 33 -278 165 -278c111 0 142 144 142 228c0 143 -62 213 -150 213
c-49 0 -102 -27 -129 -101z" />
    <glyph glyph-name="seven" unicode="7" horiz-adv-x="493" 
d="M503 725v-5c-114 -215 -323 -663 -330 -751c-19 3 -38 3 -63 3c38 58 84 177 322 684h-304c-66 0 -97 0 -102 -68h-5c0 50 7 81 7 119c0 11 0 23 -2 35h5c14 -12 30 -17 44 -17h428z" />
    <glyph glyph-name="eight" unicode="8" horiz-adv-x="493" 
d="M297 383c72 -58 141 -120 141 -212c0 -112 -98 -181 -197 -181c-130 0 -193 79 -193 163c0 76 52 147 161 200c-70 57 -138 116 -138 207c0 106 76 174 180 174c122 0 183 -77 183 -158c0 -71 -48 -146 -137 -193zM225 340c-74 -34 -116 -97 -116 -182
c0 -82 48 -145 142 -145c79 0 115 60 115 123c0 88 -69 146 -141 204zM282 395c70 39 101 110 101 176c0 81 -44 140 -139 140c-70 0 -112 -43 -112 -112c0 -86 75 -143 150 -204z" />
    <glyph glyph-name="nine" unicode="9" horiz-adv-x="553" 
d="M110 -11v9c240 12 312 232 312 439c0 101 -33 278 -165 278c-111 0 -142 -144 -142 -228c0 -143 62 -213 150 -213c49 0 102 27 129 101h5c-24 -91 -92 -134 -162 -134c-104 0 -205 85 -205 239c0 130 97 252 228 252c161 0 246 -150 246 -316
c0 -202 -127 -427 -396 -427z" />
    <glyph glyph-name="colon" unicode=":" horiz-adv-x="187" 
d="M130 31c0 -19 -16 -35 -38 -35c-19 0 -35 16 -35 35c0 22 16 38 35 38c22 0 38 -16 38 -38zM130 363c0 -19 -16 -35 -38 -35c-19 0 -35 16 -35 35c0 22 16 38 35 38c22 0 38 -16 38 -38z" />
    <glyph glyph-name="semicolon" unicode=";" horiz-adv-x="194" 
d="M132 363c0 -19 -16 -35 -38 -35c-19 0 -35 16 -35 35c0 22 16 38 35 38c22 0 38 -16 38 -38zM73 -103l-4 2c26 21 40 52 40 84c0 6 -1 13 -2 17c-5 -3 -10 -4 -15 -4c-22 0 -33 17 -33 35c0 24 16 38 34 38c21 0 44 -19 44 -60c0 -48 -25 -90 -64 -112z" />
    <glyph glyph-name="less" unicode="&#x3c;" horiz-adv-x="431" 
d="M366 88l-333 202v24l333 204v-24l-287 -193l287 -189v-24z" />
    <glyph glyph-name="equal" unicode="=" horiz-adv-x="503" 
d="M437 381v-30c-39 1 -98 1 -186 1c-89 0 -147 0 -185 -1v30c38 -1 96 -2 185 -2c88 0 147 1 186 2zM437 251v-30c-39 1 -98 1 -186 1c-89 0 -147 0 -185 -1v30c38 -1 96 -2 185 -2c88 0 147 1 186 2z" />
    <glyph glyph-name="greater" unicode="&#x3e;" horiz-adv-x="431" 
d="M398 290l-333 -202v24l287 189l-287 193v24l333 -204v-24z" />
    <glyph glyph-name="question" unicode="?" horiz-adv-x="461" 
d="M223 163h-8c0 188 143 185 143 349c0 112 -80 163 -157 163c-70 0 -137 -43 -137 -122c0 -55 37 -109 98 -109c18 0 32 2 42 4c-15 -21 -22 -31 -24 -51c-96 19 -144 95 -144 170c0 110 89 165 182 165c99 0 201 -63 201 -190c0 -185 -196 -197 -196 -379zM256 31
c0 -19 -16 -35 -38 -35c-19 0 -35 16 -35 35c0 22 16 38 35 38c22 0 38 -16 38 -38z" />
    <glyph glyph-name="at" unicode="@" horiz-adv-x="832" 
d="M419 -94v-6c-227 0 -370 145 -370 361c0 255 189 374 375 374c255 0 354 -163 354 -320c0 -145 -85 -284 -210 -284c-36 0 -56 27 -56 63c-39 -38 -92 -63 -149 -63c-85 0 -128 53 -128 110c0 70 62 127 161 127c41 0 86 -12 116 -33v140c0 63 -24 99 -91 99
c-54 0 -113 -40 -116 -126h-51c14 90 89 144 175 144c72 0 147 -23 147 -130v-234c0 -41 7 -56 29 -56c71 0 134 118 134 243c0 139 -78 286 -311 286c-166 0 -338 -108 -338 -337c0 -196 124 -347 329 -358zM512 114v103c-21 20 -58 32 -96 32c-72 0 -109 -52 -109 -102
c0 -45 30 -88 91 -88c46 0 85 22 114 55z" />
    <glyph glyph-name="A" unicode="A" horiz-adv-x="582" 
d="M578 3v-5c-21 1 -53 2 -87 2c-37 0 -67 -1 -89 -2v5c33 2 44 16 44 35c0 14 -6 32 -12 52l-59 188h-115c-36 0 -71 0 -106 -1l-60 -162c-9 -25 -17 -49 -17 -68c0 -23 12 -40 46 -44v-5c-22 1 -56 2 -93 2c-34 0 -47 -1 -68 -2v5c51 12 67 24 110 138l226 601h10
l210 -664c20 -63 22 -70 60 -75zM366 307l-92 296l-109 -295c32 -1 63 -1 95 -1h106z" />
    <glyph glyph-name="B" unicode="B" horiz-adv-x="535" 
d="M46 -2v5c37 6 57 11 57 91v537c0 80 -17 85 -55 91v5c22 -1 53 -2 80 -2c55 0 82 2 118 2c139 0 198 -82 198 -164c0 -69 -38 -132 -138 -158c130 -17 193 -113 193 -208c0 -111 -71 -200 -206 -200c-56 0 -99 3 -153 3c-37 0 -72 -1 -94 -2zM202 380h-25v-348
c27 -5 52 -8 76 -8c99 0 165 48 165 176c0 107 -58 180 -216 180zM177 698v-294c108 0 192 35 192 153c0 96 -64 149 -140 149c-17 0 -34 -2 -52 -8z" />
    <glyph glyph-name="C" unicode="C" horiz-adv-x="724" 
d="M679 161h5c-5 -36 -6 -71 -6 -107c-91 -45 -174 -64 -250 -64c-256 0 -391 182 -391 369c0 184 127 373 380 373c103 0 194 -30 261 -49c-2 -26 -3 -65 -3 -95c0 -17 1 -31 1 -38h-5c-10 106 -116 160 -250 160c-157 0 -293 -108 -293 -355c0 -241 168 -341 316 -341
c97 0 205 45 235 147z" />
    <glyph glyph-name="D" unicode="D" horiz-adv-x="779" 
d="M43 -2v5c51 8 71 10 71 91v537c0 80 -27 83 -70 91v5c22 -1 68 -2 95 -2c63 0 107 1 158 1c274 0 443 -136 443 -369c0 -195 -121 -360 -386 -360c-52 0 -143 3 -203 3c-37 0 -86 -1 -108 -2zM188 691v-656c50 -9 117 -14 165 -14c170 0 303 76 303 342
c0 244 -155 339 -353 339c-38 0 -77 -2 -115 -11z" />
    <glyph glyph-name="E" unicode="E" horiz-adv-x="493" 
d="M454 129h5c-1 -84 -6 -88 -6 -132c-93 3 -113 3 -206 3c-76 0 -180 -1 -201 -2v5c48 8 57 23 57 91v537c0 80 -16 84 -60 91v5c20 -1 56 -2 128 -2c153 0 233 0 278 2c0 -7 1 -26 1 -42c0 -22 -1 -61 -6 -82h-5c0 89 -31 92 -178 92c-56 0 -69 -2 -84 -6v-298
c184 0 194 2 209 77h5c-1 -31 -2 -52 -2 -93c0 -53 1 -68 2 -102h-5c-15 86 -25 88 -209 88v-325c11 -4 38 -6 85 -6c156 0 177 0 192 99z" />
    <glyph glyph-name="F" unicode="F" horiz-adv-x="468" 
d="M232 3v-5c-21 1 -59 2 -93 2c-37 0 -65 -1 -87 -2v5c37 6 50 11 50 91v537c0 80 -16 84 -60 91v5c20 -1 56 -2 128 -2c153 0 233 0 278 2c0 -7 1 -26 1 -42c0 -22 -1 -61 -6 -82h-5c0 89 -31 92 -178 92c-56 0 -69 -2 -84 -6v-293c183 0 196 0 206 89h5
c-1 -31 -2 -64 -2 -105c0 -53 1 -60 2 -94h-5c-10 78 -24 80 -206 80v-272c0 -80 17 -85 56 -91z" />
    <glyph glyph-name="G" unicode="G" horiz-adv-x="743" 
d="M596 69v182c0 84 -20 85 -57 91v5c22 -1 57 -2 94 -2c34 0 60 1 81 2v-5c-36 -7 -44 -13 -44 -91v-196c-63 -19 -119 -65 -242 -65c-256 0 -391 182 -391 369c0 196 136 373 380 373c93 0 163 -21 256 -49c-2 -22 -3 -63 -3 -94c0 -17 0 -32 1 -39h-5
c-11 112 -120 160 -245 160c-138 0 -296 -94 -296 -347c0 -210 134 -351 306 -351c54 0 124 16 165 57z" />
    <glyph glyph-name="H" unicode="H" horiz-adv-x="733" 
d="M681 3v-5c-21 1 -53 2 -87 2c-37 0 -65 -1 -87 -2v5c37 6 50 11 50 91v279c-66 1 -132 1 -197 1c-62 0 -123 0 -184 -1v-279c0 -80 13 -85 50 -91v-5c-21 1 -53 2 -87 2c-37 0 -65 -1 -87 -2v5c37 6 50 11 50 91v537c0 80 -13 85 -50 91v5c22 -1 50 -2 87 -2
c34 0 66 1 87 2v-5c-37 -6 -50 -11 -50 -91v-227c61 -1 122 -1 184 -1c65 0 131 0 197 1v227c0 80 -13 85 -50 91v5c22 -1 50 -2 87 -2c34 0 66 1 87 2v-5c-37 -6 -50 -11 -50 -91v-537c0 -80 13 -85 50 -91z" />
    <glyph glyph-name="I" unicode="I" horiz-adv-x="278" 
d="M226 3v-5c-21 1 -53 2 -87 2c-37 0 -65 -1 -87 -2v5c37 6 50 11 50 91v537c0 80 -13 85 -50 91v5c22 -1 50 -2 87 -2c34 0 66 1 87 2v-5c-37 -6 -50 -11 -50 -91v-537c0 -80 13 -85 50 -91z" />
    <glyph glyph-name="J" unicode="J" horiz-adv-x="277" 
d="M21 -199l-1 5c70 13 82 35 82 125v700c0 80 -25 85 -63 91v5c22 -1 63 -2 100 -2c34 0 75 1 96 2v-5c-38 -8 -59 -11 -59 -91v-613c0 -120 -26 -200 -155 -217z" />
    <glyph glyph-name="K" unicode="K" horiz-adv-x="573" 
d="M596 3v-5c-21 1 -57 2 -91 2c-37 0 -66 -1 -88 -2v5c22 2 29 7 29 15c0 13 -20 32 -40 57l-230 279v-260c0 -80 13 -85 50 -91v-5c-21 1 -53 2 -87 2c-37 0 -65 -1 -87 -2v5c37 6 50 11 50 91v537c0 80 -13 85 -50 91v5c22 -1 50 -2 87 -2c34 0 66 1 87 2v-5
c-37 -6 -50 -11 -50 -91v-256l144 160c84 93 128 142 128 167c0 12 -7 18 -29 20v5c22 -1 45 -2 82 -2c34 0 68 1 89 2v-5c-62 -12 -127 -85 -357 -327l272 -322c40 -48 57 -69 91 -70z" />
    <glyph glyph-name="L" unicode="L" horiz-adv-x="470" 
d="M454 129h5c-1 -84 -6 -88 -6 -132c-93 3 -113 3 -206 3c-76 0 -180 -1 -201 -2v5c48 8 57 23 57 91v537c0 80 -13 85 -50 91v5c22 -1 50 -2 87 -2c34 0 66 1 87 2v-5c-37 -6 -50 -11 -50 -91v-595c11 -4 38 -6 85 -6c156 0 177 0 192 99z" />
    <glyph glyph-name="M" unicode="M" horiz-adv-x="876" 
d="M870 3v-5c-21 1 -53 2 -87 2c-37 0 -77 -1 -99 -2v5c42 5 51 14 51 35c0 10 -4 29 -8 52l-82 475l-222 -557h-5l-230 554l-74 -427c-5 -28 -8 -51 -8 -70c0 -36 12 -54 51 -62v-5c-22 1 -62 2 -99 2c-34 0 -45 -1 -66 -2v5c53 14 70 49 87 143l111 596h5l245 -599
l243 599h5l120 -664c9 -51 20 -65 62 -75z" />
    <glyph glyph-name="N" unicode="N" horiz-adv-x="814" 
d="M708 -22h-5l-568 632v-90c0 -500 1 -494 69 -517v-5c-22 1 -48 2 -85 2c-34 0 -58 -1 -79 -2v5c64 24 65 18 65 518v221h7l566 -629v89c0 506 -3 498 -69 520v5c22 -1 48 -2 85 -2c34 0 62 1 83 2v-5c-67 -22 -69 -14 -69 -514v-230z" />
    <glyph glyph-name="O" unicode="O" 
d="M396 -10c-222 0 -358 182 -358 366c0 189 139 376 366 376c196 0 356 -159 356 -373c0 -204 -156 -369 -364 -369zM396 13c151 0 272 109 272 340c0 253 -137 357 -272 357c-133 0 -265 -101 -265 -351c0 -241 119 -346 265 -346z" />
    <glyph glyph-name="P" unicode="P" horiz-adv-x="504" 
d="M226 3v-5c-21 1 -53 2 -87 2c-37 0 -65 -1 -87 -2v5c37 6 50 11 50 91v537c0 80 -17 85 -55 91v5c22 -1 53 -2 80 -2c55 0 80 2 118 2c173 0 243 -87 243 -197c0 -100 -71 -200 -202 -200c-28 0 -59 7 -79 23l4 8c18 -10 42 -14 61 -14c91 0 134 72 134 166
c0 116 -58 191 -160 191c-22 0 -47 -3 -70 -10v-600c0 -80 13 -85 50 -91z" />
    <glyph glyph-name="Q" unicode="Q" 
d="M767 -65l1 -2c-16 -19 -38 -28 -63 -28c-49 0 -112 35 -182 107c-39 -14 -82 -22 -127 -22c-222 0 -358 182 -358 366c0 189 139 376 366 376c196 0 356 -159 356 -373c0 -131 -64 -246 -165 -312c28 -31 104 -118 153 -118c7 0 13 2 19 6zM396 13c151 0 272 109 272 340
c0 253 -137 357 -272 357c-133 0 -265 -101 -265 -351c0 -241 119 -346 265 -346z" />
    <glyph glyph-name="R" unicode="R" horiz-adv-x="552" 
d="M554 3v-6c-9 -1 -13 -1 -25 -1c-103 4 -116 16 -233 238c-12 22 -34 72 -56 91h-64v-231c0 -80 13 -85 50 -91v-5c-21 1 -53 2 -87 2c-37 0 -65 -1 -87 -2v5c37 6 50 11 50 91v537c0 67 -10 85 -48 91v5c34 -2 52 -2 96 -2c30 0 82 2 104 2c152 0 236 -84 236 -200
c0 -84 -56 -165 -174 -192c32 -25 143 -299 238 -332zM176 346h48c144 0 182 73 182 168c0 106 -54 190 -158 190c-23 0 -43 -2 -72 -10v-348z" />
    <glyph glyph-name="S" unicode="S" horiz-adv-x="456" 
d="M59 166h5c-1 -9 -2 -17 -2 -25c0 -82 78 -126 157 -126c69 0 136 43 136 135c0 200 -300 195 -300 413c0 108 78 179 185 179c58 0 94 -16 133 -16c6 0 11 0 17 1c-2 -21 -3 -39 -3 -66c0 -15 0 -40 1 -55h-6c-15 78 -67 115 -140 115c-63 0 -122 -34 -122 -113
c0 -191 298 -186 298 -415c0 -125 -91 -203 -208 -203c-67 0 -96 19 -144 19c-6 0 -9 0 -15 -1c1 5 1 17 1 26c0 23 -5 44 -5 69c0 18 3 43 12 63z" />
    <glyph glyph-name="T" unicode="T" horiz-adv-x="546" 
d="M366 3v-5c-21 1 -53 2 -87 2c-37 0 -65 -1 -87 -2v5c37 6 50 11 50 91v593c-158 0 -205 0 -235 -64h-5c8 40 22 63 34 127h5c3 -32 27 -33 217 -33c226 0 264 0 293 25h6c-7 -16 -27 -85 -31 -107h-6c1 4 2 10 2 15c0 31 -29 37 -206 37v-593c0 -80 13 -85 50 -91z" />
    <glyph glyph-name="U" unicode="U" horiz-adv-x="684" 
d="M560 260v328c0 116 -14 117 -75 133v5c22 -1 54 -2 91 -2c34 0 62 1 83 2v-5c-57 -15 -69 -18 -69 -132v-315c0 -123 -26 -189 -69 -228c-53 -48 -122 -62 -171 -62c-78 0 -139 18 -182 52c-59 46 -80 117 -80 223v372c0 80 -13 85 -50 91v5c22 -1 50 -2 87 -2
c34 0 73 1 94 2v-5c-40 -5 -57 -11 -57 -91v-361c0 -100 12 -165 50 -201c37 -35 81 -53 142 -53c63 0 111 20 143 52c43 42 63 102 63 192z" />
    <glyph glyph-name="V" unicode="V" horiz-adv-x="615" 
d="M312 -22h-6l-245 669c-24 64 -43 68 -82 75v5c21 -1 75 -2 109 -2c37 0 76 1 98 2v-5c-39 -4 -53 -16 -53 -38c0 -13 5 -29 12 -49l186 -513l143 413c23 68 38 112 38 139c0 29 -16 42 -53 48v5c22 -1 72 -2 109 -2c34 0 45 1 66 2v-5c-51 -15 -74 -46 -129 -200z" />
    <glyph glyph-name="W" unicode="W" horiz-adv-x="914" 
d="M601 -22h-6l-136 362l-144 -362h-6l-248 669c-18 48 -30 66 -69 75v5c21 -1 62 -2 96 -2c37 0 67 1 89 2v-5c-33 -4 -44 -16 -44 -38c0 -13 5 -29 12 -49l189 -509l107 263l-97 258c-22 57 -41 66 -80 75v5c21 -1 69 -2 103 -2c37 0 61 1 83 2v-5c-30 -4 -40 -16 -40 -34
c0 -14 6 -32 14 -53l57 -147l19 47c25 61 41 105 41 136c0 29 -15 46 -50 51v5c22 -1 79 -2 116 -2c34 0 45 1 66 2v-5c-50 -10 -73 -26 -142 -200l-32 -81l121 -315l155 409c24 63 37 105 37 134c0 32 -17 48 -55 55v3c22 -1 88 -2 125 -2c34 0 45 1 66 2v-3
c-50 -14 -72 -17 -142 -202z" />
    <glyph glyph-name="X" unicode="X" horiz-adv-x="621" 
d="M644 3v-5c-21 1 -67 2 -101 2c-37 0 -91 -1 -113 -2v5c36 3 49 11 49 29c0 13 -8 31 -25 57l-151 236l-91 -135c-37 -55 -74 -110 -74 -145c0 -21 13 -37 45 -42v-5c-22 1 -68 2 -105 2c-34 0 -91 -1 -112 -2v5c76 11 98 32 215 200l105 150l-187 294
c-42 67 -67 70 -104 75v5c21 -1 75 -2 109 -2c37 0 96 1 118 2v-5c-31 -4 -45 -16 -45 -35c0 -13 7 -30 20 -51l137 -220l78 119c48 74 73 120 73 148c0 23 -17 35 -48 39v5c22 -1 72 -2 109 -2c34 0 71 1 92 2v-5c-48 -15 -74 -21 -195 -200l-91 -135l194 -309
c39 -63 65 -70 98 -75z" />
    <glyph glyph-name="Y" unicode="Y" horiz-adv-x="577" 
d="M375 3v-5c-21 1 -53 2 -87 2c-37 0 -65 -1 -87 -2v5c37 7 50 11 50 91v150l-201 403c-24 47 -34 66 -73 75v5c21 -1 66 -2 100 -2c37 0 67 1 89 2v-5c-32 -4 -45 -14 -45 -32c0 -13 5 -28 19 -55l168 -341l124 241c53 104 63 120 63 151c0 20 -11 31 -41 36v5
c22 -1 36 -2 73 -2c34 0 55 1 76 2v-5c-47 -10 -42 -14 -140 -200l-138 -263v-165c0 -80 13 -84 50 -91z" />
    <glyph glyph-name="Z" unicode="Z" horiz-adv-x="596" 
d="M551 128h5c0 -55 -2 -77 -2 -103c0 -9 0 -17 1 -28c-91 2 -250 3 -400 3h-141v5l461 690h-167c-185 0 -242 0 -261 -106h-5c0 46 5 86 5 138c91 -2 245 -2 395 -2h139v-5l-462 -690h174c185 0 239 1 258 98z" />
    <glyph glyph-name="bracketleft" unicode="[" horiz-adv-x="222" 
d="M177 -116h-100v883h99v-22h-39v-840h40v-21z" />
    <glyph glyph-name="backslash" unicode="\" horiz-adv-x="424" 
d="M394 -46h-31l-333 813h31z" />
    <glyph glyph-name="bracketright" unicode="]" horiz-adv-x="222" 
d="M145 -116h-100v21h40v840h-39v22h99v-883z" />
    <glyph glyph-name="asciicircum" unicode="^" horiz-adv-x="386" 
d="M366 380h-24l-147 224l-151 -224h-24l162 270h24z" />
    <glyph glyph-name="underscore" unicode="_" horiz-adv-x="485" 
d="M428 15v-30c-39 1 -98 1 -186 1c-89 0 -147 0 -185 -1v30c38 -1 96 -2 185 -2c88 0 147 1 186 2z" />
    <glyph glyph-name="grave" unicode="`" horiz-adv-x="333" 
d="M273 530l-11 -9l-162 121l38 40z" />
    <glyph glyph-name="a" unicode="a" horiz-adv-x="444" 
d="M431 46l2 -5c-15 -24 -37 -51 -72 -51c-36 0 -56 27 -56 63c-39 -38 -92 -63 -149 -63c-85 0 -128 53 -128 110c0 70 62 127 161 127c41 0 86 -12 116 -33v169c0 63 -24 99 -91 99c-54 0 -113 -40 -116 -126h-51c14 90 89 144 175 144c72 0 147 -23 147 -130v-263
c0 -41 7 -56 29 -56c9 0 19 2 33 15zM305 73v103c-21 20 -58 32 -96 32c-72 0 -109 -52 -109 -102c0 -45 30 -88 91 -88c46 0 85 22 114 55z" />
    <glyph glyph-name="b" unicode="b" horiz-adv-x="509" 
d="M44 27v3c23 13 23 29 23 138v513c0 36 -3 47 -44 54v5c30 2 80 7 108 22v-329c40 32 84 47 128 47c148 0 218 -111 218 -228c0 -128 -84 -262 -226 -262c-81 0 -109 39 -168 39c-13 0 -25 0 -39 -2zM131 412v-265c0 -98 45 -134 117 -134c106 0 145 100 145 219
c0 124 -42 226 -148 226c-34 0 -71 -7 -114 -46z" />
    <glyph glyph-name="c" unicode="c" horiz-adv-x="470" 
d="M431 72l4 -4c-37 -46 -91 -78 -166 -78c-159 0 -237 119 -237 240c0 130 83 250 249 250c96 0 155 -44 167 -99h-72c-6 35 -28 86 -101 86c-114 0 -160 -113 -160 -218c0 -146 73 -237 187 -237c50 0 94 22 129 60z" />
    <glyph glyph-name="d" unicode="d" horiz-adv-x="526" 
d="M521 36l3 -5c-16 -23 -38 -41 -77 -41c-42 0 -58 19 -64 57c-43 -47 -99 -57 -137 -57c-139 0 -214 114 -214 232c0 149 111 258 237 258c36 0 74 -10 111 -33v234c0 36 -3 47 -44 54v5c30 2 80 7 108 22v-628c0 -96 5 -114 34 -114c18 0 35 10 43 16zM380 105v285
c-21 44 -70 70 -118 70c-75 0 -144 -64 -144 -228c0 -119 59 -208 165 -208c33 0 97 16 97 81z" />
    <glyph glyph-name="e" unicode="e" horiz-adv-x="464" 
d="M433 72l4 -4c-37 -46 -91 -78 -166 -78c-161 0 -238 122 -238 244c0 137 90 246 213 246c101 0 184 -72 184 -177h-314c-1 -10 -2 -22 -2 -34c0 -159 83 -246 197 -246c42 0 80 10 122 49zM118 323h230c-4 91 -42 144 -104 144c-61 0 -111 -57 -126 -144z" />
    <glyph glyph-name="f" unicode="f" horiz-adv-x="234" 
d="M179 3v-5c-22 1 -38 2 -75 2s-53 -1 -75 -2v5c30 6 43 11 43 91v361h-17v3l17 17c0 115 7 197 73 253c27 23 63 39 101 39c24 0 43 -6 55 -15l-42 -54c-15 16 -38 31 -63 31c-59 0 -60 -76 -60 -207v-47h61c16 0 19 0 22 5h5c0 -17 -2 -35 -2 -62h-4c0 29 -5 37 -41 37
h-41v-361c0 -80 13 -85 43 -91z" />
    <glyph glyph-name="g" unicode="g" horiz-adv-x="459" 
d="M462 451l-36 -58c-6 23 -16 31 -29 31c-9 0 -20 -5 -30 -14c18 -25 29 -56 29 -93c0 -100 -82 -159 -178 -159c-13 0 -24 1 -35 2c-28 -9 -46 -26 -46 -55c0 -55 64 -52 146 -61c121 -13 161 -70 161 -128c0 -70 -73 -141 -214 -141c-105 0 -210 43 -210 127
c0 50 35 97 120 124c-40 8 -69 23 -69 66c0 42 41 66 76 76c-74 24 -110 87 -110 151c0 80 60 161 179 161c55 0 108 -21 142 -59c17 19 47 47 73 47c15 0 23 -6 31 -17zM179 22c-59 -16 -81 -59 -81 -114c0 -82 60 -119 134 -119c65 0 129 30 129 115
c0 110 -100 110 -182 118zM215 171c66 0 98 48 98 143c0 96 -30 153 -101 153c-62 0 -92 -52 -92 -144c0 -108 32 -152 95 -152z" />
    <glyph glyph-name="h" unicode="h" horiz-adv-x="509" 
d="M486 3v-5c-22 1 -38 2 -75 2s-53 -1 -75 -2v5c30 6 43 11 43 91v218c0 124 -61 148 -122 148c-37 0 -85 -15 -121 -41v-325c0 -80 13 -85 43 -91v-5c-22 1 -38 2 -75 2s-53 -1 -75 -2v5c30 6 43 11 43 91v587c0 36 -1 46 -31 54v5c30 2 69 10 95 22v-322
c45 28 97 40 146 40c67 0 161 -20 161 -163v-223c0 -80 13 -85 43 -91z" />
    <glyph glyph-name="i" unicode="i" horiz-adv-x="211" 
d="M182 3v-5c-22 1 -38 2 -75 2s-53 -1 -75 -2v5c30 6 43 11 43 91v300c0 36 -1 46 -31 54v5c30 2 69 10 95 22v-381c0 -80 13 -85 43 -91zM148 588c0 -19 -15 -34 -36 -34c-19 0 -34 15 -34 34c0 21 15 36 34 36c21 0 36 -15 36 -36z" />
    <glyph glyph-name="j" unicode="j" horiz-adv-x="198" 
d="M-6 -224l1 7c71 0 72 59 72 240v371c0 36 -1 46 -31 54v5c30 2 69 10 95 22v-487c0 -105 -10 -213 -123 -213c-4 0 -8 0 -14 1zM140 588c0 -19 -15 -34 -36 -34c-19 0 -34 15 -34 34c0 21 15 36 34 36c21 0 36 -15 36 -36z" />
    <glyph glyph-name="k" unicode="k" horiz-adv-x="453" 
d="M474 3v-5c-39 1 -68 2 -91 2s-32 -1 -59 -2v5c9 1 18 3 18 8s-3 8 -7 13l-199 224v-154c0 -80 13 -85 43 -91v-5c-22 1 -38 2 -75 2s-53 -1 -75 -2v5c30 6 43 11 43 91v587c0 36 -1 46 -31 54v5c30 2 69 10 95 22v-501c111 104 172 164 172 193c0 10 -5 15 -24 18v5
c23 -1 47 -2 71 -2s47 1 71 2v-6c-50 -10 -70 -28 -238 -184c207 -232 237 -282 286 -284z" />
    <glyph glyph-name="l" unicode="l" horiz-adv-x="218" 
d="M184 3v-5c-22 1 -38 2 -75 2s-53 -1 -75 -2v5c30 6 43 11 43 91v587c0 36 -1 46 -31 54v5c30 2 69 10 95 22v-668c0 -80 13 -85 43 -91z" />
    <glyph glyph-name="m" unicode="m" horiz-adv-x="800" 
d="M777 3v-5c-22 1 -38 2 -75 2s-53 -1 -75 -2v5c30 6 43 11 43 91v203c0 137 -59 163 -110 163c-34 0 -81 -9 -144 -53c12 -25 18 -58 18 -100v-213c0 -80 13 -85 43 -91v-5c-22 1 -38 2 -75 2s-53 -1 -75 -2v5c30 6 43 11 43 91v208c0 137 -59 158 -110 158
c-37 0 -82 -12 -121 -39v-327c0 -80 13 -85 43 -91v-5c-22 1 -38 2 -75 2s-53 -1 -75 -2v5c30 6 43 11 43 91v305c0 36 -1 46 -31 54v5c30 2 69 10 95 22v-40c45 28 97 40 146 40c53 0 98 -15 124 -60c67 47 129 60 176 60c84 0 149 -42 149 -178v-208c0 -80 13 -85 43 -91z
" />
    <glyph glyph-name="n" unicode="n" horiz-adv-x="512" 
d="M489 3v-5c-22 1 -38 2 -75 2s-53 -1 -75 -2v5c30 6 43 11 43 91v218c0 124 -61 148 -122 148c-37 0 -85 -15 -121 -41v-325c0 -80 13 -85 43 -91v-5c-22 1 -38 2 -75 2s-53 -1 -75 -2v5c30 6 43 11 43 91v305c0 36 -1 46 -31 54v5c30 2 69 10 95 22v-40
c45 28 97 40 146 40c67 0 161 -20 161 -163v-223c0 -80 13 -85 43 -91z" />
    <glyph glyph-name="o" unicode="o" horiz-adv-x="547" 
d="M277 -6c-152 0 -244 91 -244 240c0 144 104 246 242 246c139 0 239 -105 239 -246c0 -131 -91 -240 -237 -240zM273 7c135 0 158 121 158 234c0 123 -34 226 -163 226c-132 0 -152 -138 -152 -242c0 -112 29 -218 157 -218z" />
    <glyph glyph-name="p" unicode="p" horiz-adv-x="543" 
d="M178 -222v-5c-22 1 -38 2 -75 2s-53 -1 -75 -2v5c30 6 43 11 43 91v530c0 36 -3 47 -44 54v5c30 2 80 7 108 22v-48c58 40 109 48 149 48c139 0 226 -114 226 -248c0 -151 -117 -238 -239 -238c-54 0 -97 15 -136 41v-166c0 -80 13 -85 43 -91zM135 406v-346
c25 -23 68 -45 126 -45c68 0 164 38 164 216c0 119 -66 224 -172 224c-34 0 -72 -8 -118 -49z" />
    <glyph glyph-name="q" unicode="q" horiz-adv-x="537" 
d="M506 -222v-5c-22 1 -38 2 -75 2s-53 -1 -75 -2v5c30 6 43 11 43 91v163c-35 -25 -81 -42 -131 -42c-122 0 -236 86 -236 237c0 145 104 253 253 253c64 0 88 -22 153 -22c24 0 50 3 69 6v-5c-41 -13 -44 -45 -44 -102v-488c0 -80 13 -85 43 -91zM399 59v241
c0 107 0 160 -107 160c-106 0 -177 -86 -177 -230c0 -154 88 -216 169 -216c50 0 93 21 115 45z" />
    <glyph glyph-name="r" unicode="r" horiz-adv-x="313" 
d="M182 3v-5c-22 1 -38 2 -75 2s-53 -1 -75 -2v5c30 6 43 11 43 91v305c0 36 -1 46 -31 54v5c30 2 69 10 95 22v-46c22 19 56 46 100 46c52 0 64 -37 64 -83h-64c0 37 -14 52 -37 52c-16 0 -36 -7 -63 -38v-317c0 -80 13 -85 43 -91z" />
    <glyph glyph-name="s" unicode="s" horiz-adv-x="361" 
d="M311 365h-5c-10 51 -45 102 -112 102c-49 0 -88 -32 -88 -88c0 -117 220 -96 220 -261c0 -87 -83 -128 -160 -128c-29 0 -77 6 -126 32c6 33 3 79 12 119h5c-1 -6 -1 -13 -1 -19c0 -63 29 -118 110 -118c53 0 92 33 92 96c0 129 -217 105 -217 258c0 85 84 122 157 122
c40 0 87 -9 114 -17c-2 -10 -3 -18 -3 -32c0 -20 1 -34 2 -66z" />
    <glyph glyph-name="t" unicode="t" horiz-adv-x="292" 
d="M283 72l5 -3c-22 -54 -64 -79 -115 -79c-53 0 -103 11 -103 119v305c0 42 -8 48 -49 55v5c64 0 106 60 122 132h6c-6 -34 -15 -87 -15 -131h82c48 0 64 0 79 25l6 -6c-15 -24 -30 -39 -41 -71h-8c1 3 2 7 2 11c0 17 -14 21 -48 21h-72v-344c0 -69 20 -93 71 -93
c38 0 61 14 78 54z" />
    <glyph glyph-name="u" unicode="u" horiz-adv-x="522" 
d="M503 46l2 -5c-15 -24 -33 -51 -72 -51c-38 0 -56 27 -56 92c-34 -56 -91 -92 -161 -92c-92 0 -151 51 -151 173v236c0 36 -8 47 -49 54v5c30 2 85 7 113 22v-312c0 -107 34 -151 112 -151c61 0 106 29 136 89v293c0 36 -3 47 -44 54v5c30 2 80 7 108 22v-385
c0 -31 0 -66 26 -66c12 0 22 4 36 17z" />
    <glyph glyph-name="v" unicode="v" horiz-adv-x="485" 
d="M233 -16h-7l-181 439c-16 40 -28 43 -54 48v5c14 0 47 -1 83 -1c38 0 72 1 86 1v-5c-30 -4 -45 -9 -45 -27c0 -7 2 -17 7 -29l131 -320l113 254c17 37 29 66 29 86c0 21 -14 33 -50 36v5c14 0 35 -1 79 -1c33 0 57 1 71 1v-5c-33 -7 -54 -16 -109 -140z" />
    <glyph glyph-name="w" unicode="w" horiz-adv-x="734" 
d="M476 -16h-7l-111 323l-140 -323h-7l-165 439c-15 40 -28 43 -54 48v5c14 0 47 -1 83 -1c38 0 72 1 86 1v-5c-30 -4 -45 -9 -45 -27c0 -7 3 -17 7 -29l115 -320l107 248l-27 80c-12 35 -27 40 -64 48v5c42 -2 82 -3 118 -3c40 0 62 2 99 3v-5c-25 -6 -46 -17 -71 -71
l97 -305l116 254c18 39 29 67 29 85c0 22 -15 34 -52 37v5c14 0 37 -1 81 -1c33 0 59 1 73 1v-5c-34 -8 -53 -12 -111 -140z" />
    <glyph glyph-name="x" unicode="x" horiz-adv-x="503" 
d="M514 4v-5c-14 0 -71 1 -111 1c-49 0 -50 -1 -66 -1v5c16 2 24 7 24 16c0 7 -8 20 -22 40l-109 150l-63 -84c-14 -19 -52 -63 -52 -94c0 -15 9 -25 33 -28v-5c-14 0 -50 1 -94 1c-33 0 -47 -1 -61 -1v5c39 4 57 0 225 223l-141 196c-28 38 -53 43 -79 48v5
c14 0 87 -2 123 -2c38 0 56 2 72 2v-5c-30 -4 -51 -10 -51 -28c0 -8 2 -18 14 -34l98 -136l56 74c16 22 57 78 57 100c0 11 -6 20 -25 22v5c14 0 37 -1 81 -1c33 0 60 1 74 1v-5c-38 -4 -69 -1 -230 -213l149 -204c33 -45 64 -46 98 -48z" />
    <glyph glyph-name="y" unicode="y" horiz-adv-x="518" 
d="M231 -221v-5c-14 0 -58 1 -102 1c-33 0 -42 -1 -56 -1v5c45 4 63 14 124 143l40 84l-184 415c-19 42 -36 45 -62 50v5c14 0 55 -1 91 -1c38 0 72 1 86 1v-5c-30 -4 -46 -8 -46 -27c0 -8 2 -17 8 -31l145 -326l124 260c17 37 29 65 29 86c0 22 -14 35 -50 38v5
c14 0 35 -1 79 -1c33 0 57 1 71 1v-5c-36 -7 -51 -17 -109 -140l-192 -409c-26 -55 -36 -87 -36 -107c0 -27 17 -31 40 -36z" />
    <glyph glyph-name="z" unicode="z" horiz-adv-x="466" 
d="M426 133h5c0 -51 -7 -84 -7 -135c-60 1 -210 2 -309 2h-92v3l325 449h-110c-171 0 -177 0 -196 -101h-5c2 21 3 48 3 71s-1 41 -2 55c20 -1 142 -2 198 -2c71 0 149 0 206 2v-5l-327 -449h153c129 0 150 21 158 110z" />
    <glyph glyph-name="braceleft" unicode="{" horiz-adv-x="221" 
d="M182 -113v-3c-96 0 -104 38 -104 126v239c0 48 -11 70 -47 81v4c37 14 47 57 47 120v195c0 87 17 116 104 116v-3c-43 -13 -44 -55 -44 -101v-229c0 -43 0 -86 -51 -100c50 -17 51 -51 51 -102v-249c0 -43 2 -78 44 -94z" />
    <glyph glyph-name="bar" unicode="|" horiz-adv-x="191" 
d="M116 -225h-40c1 89 1 404 1 492c0 89 0 407 -1 495h40c-1 -88 -2 -406 -2 -495c0 -88 1 -403 2 -492z" />
    <glyph glyph-name="braceright" unicode="}" horiz-adv-x="221" 
d="M39 -116v3c42 16 44 51 44 94v249c0 51 1 85 51 102c-51 14 -51 57 -51 100v229c0 46 -1 88 -44 101v3c87 0 104 -29 104 -116v-195c0 -63 10 -106 47 -120v-4c-36 -11 -47 -33 -47 -81v-239c0 -88 -8 -126 -104 -126z" />
    <glyph glyph-name="asciitilde" unicode="~" horiz-adv-x="489" 
d="M458 638h4c-7 -43 -36 -126 -125 -126c-75 0 -129 69 -206 69c-47 0 -73 -16 -91 -69h-4c12 71 60 120 126 120c76 0 133 -69 210 -69c46 0 74 36 86 75z" />
    <glyph glyph-name="nbspace" unicode="&#xa0;" horiz-adv-x="250" 
 />
    <glyph glyph-name="exclamdown" unicode="&#xa1;" horiz-adv-x="211" 
d="M103 362h7c0 -52 36 -228 36 -492c0 -30 -7 -60 -41 -60c-35 0 -42 30 -42 60c0 264 40 440 40 492zM143 479c0 -19 -16 -35 -38 -35c-19 0 -35 16 -35 35c0 22 16 38 35 38c22 0 38 -16 38 -38z" />
    <glyph glyph-name="cent" unicode="&#xa2;" horiz-adv-x="558" 
d="M497 177l5 -5c-41 -53 -102 -89 -185 -90v-82h-23v82c-173 8 -257 141 -257 277c0 140 86 272 257 286v80h23v-79c2 0 5 1 8 1c110 0 178 -51 192 -114l-85 3c-6 39 -30 96 -115 96v-523c10 -1 21 -2 32 -2c57 0 108 26 148 70zM294 114v516
c-114 -14 -161 -136 -161 -249c0 -144 61 -242 161 -267z" />
    <glyph glyph-name="sterling" unicode="&#xa3;" horiz-adv-x="467" 
d="M427 129h5c-1 -84 -6 -88 -6 -132c-93 3 -113 3 -206 3c-76 0 -155 -1 -176 -2v5c48 8 57 23 57 91v258h-56v23h56v102c0 119 16 194 83 251c27 23 63 39 101 39c24 0 43 -6 55 -15l-42 -54c-15 16 -38 31 -63 31c-59 0 -60 -76 -60 -207v-147h173v-23h-173v-316
c11 -4 33 -6 60 -6c156 0 177 0 192 99z" />
    <glyph glyph-name="currency" unicode="&#xa4;" horiz-adv-x="599" 
d="M491 76l-75 74c-32 -16 -70 -25 -112 -25c-46 0 -86 8 -120 23l-73 -72l-21 21l66 66c-62 40 -96 110 -96 202c0 85 36 155 94 199l-64 64l21 21l69 -69c36 20 77 31 122 31s85 -11 120 -31l69 69l21 -21l-65 -65c58 -44 94 -114 94 -198c0 -82 -36 -155 -99 -199l70 -69
zM303 161c125 0 202 93 202 204c0 120 -85 210 -203 210s-206 -87 -206 -210c0 -126 78 -204 207 -204z" />
    <glyph glyph-name="yen" unicode="&#xa5;" horiz-adv-x="703" 
d="M634 172h-246v-78c0 -80 13 -84 50 -91v-5c-21 1 -53 2 -87 2c-37 0 -65 -1 -87 -2v5c37 7 50 11 50 91v78h-249v23h249v49l-41 82h-208v23h196l-148 298c-24 47 -34 66 -73 75v5c21 -1 66 -2 100 -2c37 0 67 1 89 2v-5c-32 -4 -45 -14 -45 -32c0 -13 5 -28 19 -55
l168 -341l124 241c53 104 63 120 63 151c0 20 -11 31 -41 36v5c22 -1 36 -2 73 -2c34 0 55 1 76 2v-5c-47 -10 -42 -14 -140 -200l-91 -173h199v-23h-211l-35 -67v-64h246v-23z" />
    <glyph glyph-name="brokenbar" unicode="&#xa6;" horiz-adv-x="197" 
d="M119 -225h-40c1 77 1 303 1 425h37c0 -126 1 -350 2 -425zM117 363h-37c0 128 0 327 -1 399h40c-1 -69 -2 -269 -2 -399z" />
    <glyph glyph-name="section" unicode="&#xa7;" horiz-adv-x="444" 
d="M63 144h5c-1 -6 -1 -13 -1 -19c0 -63 29 -118 110 -118c53 0 92 33 92 96c0 129 -217 125 -217 278c0 73 61 110 125 119c-37 28 -65 63 -65 119c0 85 84 122 157 122c40 0 87 -9 114 -17c-2 -10 -3 -18 -3 -32c0 -20 1 -34 2 -66h-5c-10 51 -45 102 -112 102
c-49 0 -88 -32 -88 -88c0 -117 220 -116 220 -281c0 -69 -52 -109 -112 -123c30 -28 52 -63 52 -115c0 -87 -83 -128 -160 -128c-29 0 -77 6 -126 32c6 33 3 79 12 119zM269 250c36 11 60 42 60 91c0 76 -75 105 -137 148c-43 -5 -75 -36 -75 -87c0 -74 88 -101 152 -152z
" />
    <glyph glyph-name="dieresis" unicode="&#xa8;" horiz-adv-x="298" 
d="M121 565c0 -18 -17 -35 -36 -35s-35 17 -35 35s16 35 35 35s36 -17 36 -35zM213 530c-19 0 -36 17 -36 35s17 35 36 35c18 0 35 -17 35 -35s-17 -35 -35 -35z" />
    <glyph glyph-name="copyright" unicode="&#xa9;" horiz-adv-x="877" 
d="M838 367c0 -221 -179 -399 -400 -399s-399 178 -399 399s178 400 399 400s400 -179 400 -400zM803 367c0 202 -163 365 -365 365s-364 -163 -364 -365s162 -364 364 -364s365 162 365 364zM627 240h9c-4 -25 -4 -59 -4 -84c-64 -32 -122 -45 -175 -45
c-179 0 -273 127 -273 257c0 128 89 259 265 259c72 0 136 -21 183 -34c-2 -16 -3 -32 -3 -56c0 -13 0 -29 1 -47h-8c-7 74 -76 112 -170 112c-99 0 -189 -80 -189 -237c0 -153 112 -227 205 -227c68 0 139 31 159 102z" />
    <glyph glyph-name="ordfeminine" unicode="&#xaa;" horiz-adv-x="423" 
d="M360 228h-290v20h290v-20zM379 361l1 -3c-11 -19 -33 -40 -60 -40c-28 0 -48 21 -48 49c-31 -29 -71 -49 -115 -49c-66 0 -99 41 -99 95c0 64 48 108 124 108c32 0 66 -9 90 -25v105c0 49 -19 76 -71 76c-41 0 -87 -30 -89 -92h-49c11 70 68 111 145 111
c55 0 123 -17 123 -100v-203c0 -32 5 -43 22 -43c7 0 15 1 26 11zM272 387v90c-17 15 -45 24 -74 24c-46 0 -74 -40 -74 -83c0 -40 23 -73 60 -73c35 0 65 17 88 42z" />
    <glyph glyph-name="guillemotleft" unicode="&#xab;" horiz-adv-x="410" 
d="M194 92l-167 133v27l167 133v-27l-115 -119l115 -120v-27zM354 92l-167 133v27l167 133v-27l-115 -119l115 -120v-27z" />
    <glyph glyph-name="logicalnot" unicode="&#xac;" horiz-adv-x="514" 
d="M448 116h-30c1 36 1 92 1 171c-38 1 -89 1 -159 1c-89 0 -147 0 -185 -1v30c38 -1 96 -2 185 -2c88 0 147 1 186 2c0 -64 1 -163 2 -201z" />
    <glyph glyph-name="uni00AD" unicode="&#xad;" horiz-adv-x="313" 
d="M256 316v-30c-33 1 -67 1 -100 1s-66 0 -99 -1v30c33 -1 66 -2 99 -2s67 1 100 2z" />
    <glyph glyph-name="registered" unicode="&#xae;" horiz-adv-x="877" 
d="M838 367c0 -221 -179 -399 -400 -399s-399 178 -399 399s178 400 399 400s400 -179 400 -400zM803 367c0 202 -163 365 -365 365s-364 -163 -364 -365s162 -364 364 -364s365 162 365 364zM649 110v-4c-7 -1 -20 -1 -29 -1c-74 3 -84 13 -169 173c-8 15 -25 52 -40 66
h-37v-166c0 -58 9 -61 36 -66v-5c-15 0 -39 1 -63 1c-27 0 -58 -1 -74 -1v5c27 5 37 8 37 66v385c0 49 -8 62 -35 66v6c25 -1 48 -1 80 -1c22 0 59 1 75 1c111 0 172 -61 172 -145c0 -61 -40 -120 -126 -139c24 -20 104 -217 173 -241zM374 369h35c94 0 122 53 122 112
c0 67 -39 127 -105 127c-17 0 -31 -1 -52 -7v-232z" />
    <glyph glyph-name="macron" unicode="&#xaf;" horiz-adv-x="333" 
d="M303 580v-30c-46 1 -92 1 -137 1c-46 0 -91 0 -136 -1v30c45 -1 90 -2 136 -2c45 0 91 1 137 2z" />
    <glyph glyph-name="degree" unicode="&#xb0;" horiz-adv-x="314" 
d="M283 574c0 -70 -57 -125 -126 -125s-126 55 -126 125s56 126 126 126s126 -56 126 -126zM250 574c0 52 -41 93 -93 93s-93 -41 -93 -93s42 -92 93 -92s93 40 93 92z" />
    <glyph glyph-name="plusminus" unicode="&#xb1;" horiz-adv-x="511" 
d="M270 152h-30c1 36 1 93 1 172c-80 0 -136 0 -171 -1v30c36 -1 90 -2 171 -2c0 80 0 136 -1 172h30c-1 -36 -2 -91 -2 -172c80 0 136 1 173 2v-30c-37 1 -94 1 -173 1c0 -80 1 -136 2 -172zM441 109v-30c-39 1 -98 1 -186 1c-89 0 -147 0 -185 -1v30c38 -1 96 -2 185 -2
c88 0 147 1 186 2z" />
    <glyph glyph-name="acute" unicode="&#xb4;" horiz-adv-x="333" 
d="M273 643l-162 -121l-11 9l135 152z" />
    <glyph glyph-name="mu" unicode="&#xb5;" horiz-adv-x="576" 
d="M533 46l2 -5c-15 -24 -33 -51 -72 -51c-38 0 -56 27 -56 92c-30 -52 -93 -92 -154 -92c-37 0 -73 15 -100 70c0 -65 7 -175 7 -216c0 -36 -3 -70 -36 -70c-35 0 -39 33 -39 70c0 84 10 79 10 555c0 36 -8 47 -49 54v5c30 2 85 7 113 22v-312c0 -107 34 -151 112 -151
c61 0 106 29 136 89v293c0 36 -3 47 -44 54v5c30 2 80 7 108 22v-385c0 -31 0 -66 26 -66c12 0 22 4 36 17z" />
    <glyph glyph-name="paragraph" unicode="&#xb6;" horiz-adv-x="693" 
d="M623 4v-5c-21 1 -49 2 -83 2c-37 0 -59 -1 -81 -2v5c37 6 50 11 50 91v466c0 74 -10 96 -42 96c-34 0 -47 -22 -47 -96v-591c0 -80 13 -85 50 -91v-5c-22 1 -50 2 -87 2c-34 0 -66 -1 -87 -2v5c37 6 50 11 50 91v678c-23 7 -48 10 -70 10c-102 0 -160 -75 -160 -191
c0 -94 43 -166 134 -166c19 0 43 4 61 14l4 -8c-20 -16 -51 -23 -79 -23c-131 0 -202 100 -202 200c0 110 70 197 243 197c39 0 73 -2 263 -2c34 0 62 1 83 2v-5c-37 -6 -50 -11 -50 -91v-490c0 -80 13 -85 50 -91z" />
    <glyph glyph-name="periodcentered" unicode="&#xb7;" horiz-adv-x="187" 
d="M130 363c0 -19 -16 -35 -38 -35c-19 0 -35 16 -35 35c0 22 16 38 35 38c22 0 38 -16 38 -38z" />
    <glyph glyph-name="cedilla" unicode="&#xb8;" horiz-adv-x="248" 
d="M50 -145h3c11 -19 33 -28 53 -28c27 0 52 17 52 50c0 25 -18 47 -44 47c-17 0 -30 -7 -42 -18h-2l46 99h13l-23 -62c9 3 17 4 25 4c36 0 67 -27 67 -69c0 -47 -40 -73 -79 -73c-31 0 -61 16 -69 50z" />
    <glyph glyph-name="ordmasculine" unicode="&#xba;" horiz-adv-x="467" 
d="M376 228h-290v20h290v-20zM238 319c-106 0 -189 51 -189 185c0 130 93 192 187 192c95 0 185 -65 185 -192c0 -117 -82 -185 -183 -185zM234 335c92 0 112 74 112 176c0 110 -30 168 -116 168c-89 0 -107 -89 -107 -183c0 -100 26 -161 111 -161z" />
    <glyph glyph-name="guillemotright" unicode="&#xbb;" horiz-adv-x="410" 
d="M223 225l-167 -133v27l115 120l-115 119v27l167 -133v-27zM383 225l-167 -133v27l115 120l-115 119v27l167 -133v-27z" />
    <glyph glyph-name="questiondown" unicode="&#xbf;" horiz-adv-x="453" 
d="M238 348h8c0 -188 -143 -185 -143 -349c0 -112 80 -163 157 -163c70 0 137 43 137 122c0 55 -37 109 -98 109c-18 0 -32 -2 -42 -4c15 21 22 31 24 51c96 -19 144 -95 144 -170c0 -110 -89 -165 -182 -165c-99 0 -201 63 -201 190c0 185 196 197 196 379zM243 442
c-22 0 -38 16 -38 38c0 19 16 35 38 35c19 0 35 -16 35 -35c0 -22 -16 -38 -35 -38z" />
    <glyph glyph-name="Agrave" unicode="&#xc0;" horiz-adv-x="582" 
d="M578 3v-5c-21 1 -53 2 -87 2c-37 0 -67 -1 -89 -2v5c33 2 44 16 44 35c0 14 -6 32 -12 52l-59 188h-115c-36 0 -71 0 -106 -1l-60 -162c-9 -25 -17 -49 -17 -68c0 -23 12 -40 46 -44v-5c-22 1 -56 2 -93 2c-34 0 -47 -1 -68 -2v5c51 12 67 24 110 138l226 601h10
l210 -664c20 -63 22 -70 60 -75zM366 307l-92 296l-109 -295c32 -1 63 -1 95 -1h106zM357 780l-11 -9l-162 121l38 40z" />
    <glyph glyph-name="Aacute" unicode="&#xc1;" horiz-adv-x="582" 
d="M578 3v-5c-21 1 -53 2 -87 2c-37 0 -67 -1 -89 -2v5c33 2 44 16 44 35c0 14 -6 32 -12 52l-59 188h-115c-36 0 -71 0 -106 -1l-60 -162c-9 -25 -17 -49 -17 -68c0 -23 12 -40 46 -44v-5c-22 1 -56 2 -93 2c-34 0 -47 -1 -68 -2v5c51 12 67 24 110 138l226 601h10
l210 -664c20 -63 22 -70 60 -75zM366 307l-92 296l-109 -295c32 -1 63 -1 95 -1h106zM397 893l-162 -121l-11 9l135 152z" />
    <glyph glyph-name="Acircumflex" unicode="&#xc2;" horiz-adv-x="582" 
d="M578 3v-5c-21 1 -53 2 -87 2c-37 0 -67 -1 -89 -2v5c33 2 44 16 44 35c0 14 -6 32 -12 52l-59 188h-115c-36 0 -71 0 -106 -1l-60 -162c-9 -25 -17 -49 -17 -68c0 -23 12 -40 46 -44v-5c-22 1 -56 2 -93 2c-34 0 -47 -1 -68 -2v5c51 12 67 24 110 138l226 601h10
l210 -664c20 -63 22 -70 60 -75zM366 307l-92 296l-109 -295c32 -1 63 -1 95 -1h106zM451 766h-27l-120 115l-119 -115h-27l133 167h27z" />
    <glyph glyph-name="Atilde" unicode="&#xc3;" horiz-adv-x="582" 
d="M578 3v-5c-21 1 -53 2 -87 2c-37 0 -67 -1 -89 -2v5c33 2 44 16 44 35c0 14 -6 32 -12 52l-59 188h-115c-36 0 -71 0 -106 -1l-60 -162c-9 -25 -17 -49 -17 -68c0 -23 12 -40 46 -44v-5c-22 1 -56 2 -93 2c-34 0 -47 -1 -68 -2v5c51 12 67 24 110 138l226 601h10
l210 -664c20 -63 22 -70 60 -75zM366 307l-92 296l-109 -295c32 -1 63 -1 95 -1h106zM441 867h9c-5 -32 -30 -87 -89 -87c-50 0 -86 46 -137 46c-31 0 -41 -11 -53 -46h-10c8 47 40 83 84 83c50 0 88 -46 139 -46c31 0 49 24 57 50z" />
    <glyph glyph-name="Adieresis" unicode="&#xc4;" horiz-adv-x="582" 
d="M214 707c0 -18 -17 -35 -36 -35s-35 17 -35 35s16 35 35 35s36 -17 36 -35zM426 672c-19 0 -36 17 -36 35s17 35 36 35c18 0 35 -17 35 -35s-17 -35 -35 -35zM578 3v-5c-21 1 -53 2 -87 2c-37 0 -67 -1 -89 -2v5c33 2 44 16 44 35c0 14 -6 32 -12 52l-59 188h-115
c-36 0 -71 0 -106 -1l-60 -162c-9 -25 -17 -49 -17 -68c0 -23 12 -40 46 -44v-5c-22 1 -56 2 -93 2c-34 0 -47 -1 -68 -2v5c51 12 67 24 110 138l226 601h10l210 -664c20 -63 22 -70 60 -75zM366 307l-92 296l-109 -295c32 -1 63 -1 95 -1h106z" />
    <glyph glyph-name="Aring" unicode="&#xc5;" horiz-adv-x="582" 
d="M578 3v-5c-21 1 -53 2 -87 2c-37 0 -67 -1 -89 -2v5c33 2 44 16 44 35c0 14 -6 32 -12 52l-59 188h-115c-36 0 -71 0 -106 -1l-60 -162c-9 -25 -17 -49 -17 -68c0 -23 12 -40 46 -44v-5c-22 1 -56 2 -93 2c-34 0 -47 -1 -68 -2v5c51 12 67 24 110 138l226 601h10
l210 -664c20 -63 22 -70 60 -75zM366 307l-92 296l-109 -295c32 -1 63 -1 95 -1h106zM386 845c0 -46 -38 -83 -84 -83s-83 37 -83 83s37 83 84 83c45 0 83 -37 83 -83zM359 845c0 30 -25 55 -56 55s-56 -25 -56 -55s25 -55 55 -55c32 0 57 25 57 55z" />
    <glyph glyph-name="AE" unicode="&#xc6;" horiz-adv-x="882" 
d="M843 129h5c-1 -84 -6 -88 -6 -132c-93 3 -113 3 -206 3c-76 0 -180 -1 -201 -2v5c48 8 57 23 57 91v184h-121c-40 0 -79 0 -118 -1l-111 -162c-34 -50 -41 -60 -41 -83c0 -15 9 -26 34 -29l-1 -5c-22 1 -56 2 -93 2c-34 0 -52 0 -73 -2l1 5c55 12 75 24 154 138l367 530
c-6 42 -23 45 -58 51v5c16 -1 46 -2 128 -2c153 0 233 0 278 2c0 -7 1 -26 1 -42c0 -22 -1 -61 -6 -82h-5c0 89 -31 92 -178 92c-56 0 -69 -2 -84 -6v-298c184 0 194 2 209 77h5c-1 -31 -2 -52 -2 -93c0 -53 1 -68 2 -102h-5c-15 86 -25 88 -209 88v-325c11 -4 38 -6 85 -6
c156 0 177 0 192 99zM492 307v320l-218 -319c32 -1 64 -1 97 -1c40 0 80 -1 121 0z" />
    <glyph glyph-name="Ccedilla" unicode="&#xc7;" horiz-adv-x="726" 
d="M680 161h5c-5 -36 -6 -71 -6 -107c-89 -44 -170 -63 -245 -64l-17 -47c9 3 17 4 25 4c36 0 67 -27 67 -69c0 -47 -40 -73 -79 -73c-31 0 -61 16 -69 50h3c11 -19 33 -28 53 -28c27 0 52 17 52 50c0 25 -18 47 -44 47c-17 0 -30 -7 -42 -18h-2l39 84
c-250 4 -382 184 -382 369c0 184 127 373 380 373c103 0 194 -30 261 -49c-2 -26 -3 -65 -3 -95c0 -17 1 -31 1 -38h-5c-10 106 -116 160 -250 160c-157 0 -293 -108 -293 -355c0 -241 168 -341 316 -341c97 0 205 45 235 147z" />
    <glyph glyph-name="Egrave" unicode="&#xc8;" horiz-adv-x="493" 
d="M454 129h5c-1 -84 -6 -88 -6 -132c-93 3 -113 3 -206 3c-76 0 -180 -1 -201 -2v5c48 8 57 23 57 91v537c0 80 -16 84 -60 91v5c20 -1 56 -2 128 -2c153 0 233 0 278 2c0 -7 1 -26 1 -42c0 -22 -1 -61 -6 -82h-5c0 89 -31 92 -178 92c-56 0 -69 -2 -84 -6v-298
c184 0 194 2 209 77h5c-1 -31 -2 -52 -2 -93c0 -53 1 -68 2 -102h-5c-15 86 -25 88 -209 88v-325c11 -4 38 -6 85 -6c156 0 177 0 192 99zM327 780l-11 -9l-162 121l38 40z" />
    <glyph glyph-name="Eacute" unicode="&#xc9;" horiz-adv-x="493" 
d="M454 129h5c-1 -84 -6 -88 -6 -132c-93 3 -113 3 -206 3c-76 0 -180 -1 -201 -2v5c48 8 57 23 57 91v537c0 80 -16 84 -60 91v5c20 -1 56 -2 128 -2c153 0 233 0 278 2c0 -7 1 -26 1 -42c0 -22 -1 -61 -6 -82h-5c0 89 -31 92 -178 92c-56 0 -69 -2 -84 -6v-298
c184 0 194 2 209 77h5c-1 -31 -2 -52 -2 -93c0 -53 1 -68 2 -102h-5c-15 86 -25 88 -209 88v-325c11 -4 38 -6 85 -6c156 0 177 0 192 99zM387 893l-162 -121l-11 9l135 152z" />
    <glyph glyph-name="Ecircumflex" unicode="&#xca;" horiz-adv-x="493" 
d="M454 129h5c-1 -84 -6 -88 -6 -132c-93 3 -113 3 -206 3c-76 0 -180 -1 -201 -2v5c48 8 57 23 57 91v537c0 80 -16 84 -60 91v5c20 -1 56 -2 128 -2c153 0 233 0 278 2c0 -7 1 -26 1 -42c0 -22 -1 -61 -6 -82h-5c0 89 -31 92 -178 92c-56 0 -69 -2 -84 -6v-298
c184 0 194 2 209 77h5c-1 -31 -2 -52 -2 -93c0 -53 1 -68 2 -102h-5c-15 86 -25 88 -209 88v-325c11 -4 38 -6 85 -6c156 0 177 0 192 99zM427 780h-27l-120 115l-119 -115h-27l133 167h27z" />
    <glyph glyph-name="Edieresis" unicode="&#xcb;" horiz-adv-x="493" 
d="M454 129h5c-1 -84 -6 -88 -6 -132c-93 3 -113 3 -206 3c-76 0 -180 -1 -201 -2v5c48 8 57 23 57 91v537c0 80 -16 84 -60 91v5c20 -1 56 -2 128 -2c153 0 233 0 278 2c0 -7 1 -26 1 -42c0 -22 -1 -61 -6 -82h-5c0 89 -31 92 -178 92c-56 0 -69 -2 -84 -6v-298
c184 0 194 2 209 77h5c-1 -31 -2 -52 -2 -93c0 -53 1 -68 2 -102h-5c-15 86 -25 88 -209 88v-325c11 -4 38 -6 85 -6c156 0 177 0 192 99zM241 815c0 -18 -17 -35 -36 -35s-35 17 -35 35s16 35 35 35s36 -17 36 -35zM333 780c-19 0 -36 17 -36 35s17 35 36 35
c18 0 35 -17 35 -35s-17 -35 -35 -35z" />
    <glyph glyph-name="Igrave" unicode="&#xcc;" horiz-adv-x="278" 
d="M226 3v-5c-21 1 -53 2 -87 2c-37 0 -65 -1 -87 -2v5c37 6 50 11 50 91v537c0 80 -13 85 -50 91v5c22 -1 50 -2 87 -2c34 0 66 1 87 2v-5c-37 -6 -50 -11 -50 -91v-537c0 -80 13 -85 50 -91zM176 780l-11 -9l-162 121l38 40z" />
    <glyph glyph-name="Iacute" unicode="&#xcd;" horiz-adv-x="278" 
d="M226 3v-5c-21 1 -53 2 -87 2c-37 0 -65 -1 -87 -2v5c37 6 50 11 50 91v537c0 80 -13 85 -50 91v5c22 -1 50 -2 87 -2c34 0 66 1 87 2v-5c-37 -6 -50 -11 -50 -91v-537c0 -80 13 -85 50 -91zM278 893l-162 -121l-11 9l135 152z" />
    <glyph glyph-name="Icircumflex" unicode="&#xce;" horiz-adv-x="278" 
d="M226 3v-5c-21 1 -53 2 -87 2c-37 0 -65 -1 -87 -2v5c37 6 50 11 50 91v537c0 80 -13 85 -50 91v5c22 -1 50 -2 87 -2c34 0 66 1 87 2v-5c-37 -6 -50 -11 -50 -91v-537c0 -80 13 -85 50 -91zM286 780h-27l-120 115l-119 -115h-27l133 167h27z" />
    <glyph glyph-name="Idieresis" unicode="&#xcf;" horiz-adv-x="278" 
d="M226 3v-5c-21 1 -53 2 -87 2c-37 0 -65 -1 -87 -2v5c37 6 50 11 50 91v537c0 80 -13 85 -50 91v5c22 -1 50 -2 87 -2c34 0 66 1 87 2v-5c-37 -6 -50 -11 -50 -91v-537c0 -80 13 -85 50 -91zM111 815c0 -18 -17 -35 -36 -35s-35 17 -35 35s16 35 35 35s36 -17 36 -35z
M203 780c-19 0 -36 17 -36 35s17 35 36 35c18 0 35 -17 35 -35s-17 -35 -35 -35z" />
    <glyph glyph-name="Eth" unicode="&#xd0;" horiz-adv-x="768" 
d="M32 -2v5c51 8 71 10 71 91v254c-17 0 -33 -1 -49 -1v30c16 -1 32 -1 49 -1v255c0 80 -27 83 -70 91v5c22 -1 68 -2 95 -2c63 0 107 1 158 1c274 0 443 -136 443 -369c0 -195 -121 -360 -386 -360c-52 0 -143 3 -203 3c-37 0 -86 -1 -108 -2zM373 377v-30
c-53 1 -107 1 -160 1h-36v-313c50 -9 117 -14 165 -14c170 0 303 76 303 342c0 244 -155 339 -353 339c-38 0 -77 -2 -115 -11v-316h36c53 0 107 1 160 2z" />
    <glyph glyph-name="Ntilde" unicode="&#xd1;" horiz-adv-x="814" 
d="M708 -22h-5l-568 632v-90c0 -500 1 -494 69 -517v-5c-22 1 -48 2 -85 2c-34 0 -58 -1 -79 -2v5c64 24 65 18 65 518v221h7l566 -629v89c0 506 -3 498 -69 520v5c22 -1 48 -2 85 -2c34 0 62 1 83 2v-5c-67 -22 -69 -14 -69 -514v-230zM542 867h9c-5 -32 -30 -87 -89 -87
c-50 0 -86 46 -137 46c-31 0 -41 -11 -53 -46h-10c8 47 40 83 84 83c50 0 88 -46 139 -46c31 0 49 24 57 50z" />
    <glyph glyph-name="Ograve" unicode="&#xd2;" 
d="M396 -10c-222 0 -358 182 -358 366c0 189 139 376 366 376c196 0 356 -159 356 -373c0 -204 -156 -369 -364 -369zM396 13c151 0 272 109 272 340c0 253 -137 357 -272 357c-133 0 -265 -101 -265 -351c0 -241 119 -346 265 -346zM485 780l-11 -9l-162 121l38 40z" />
    <glyph glyph-name="Oacute" unicode="&#xd3;" 
d="M396 -10c-222 0 -358 182 -358 366c0 189 139 376 366 376c196 0 356 -159 356 -373c0 -204 -156 -369 -364 -369zM396 13c151 0 272 109 272 340c0 253 -137 357 -272 357c-133 0 -265 -101 -265 -351c0 -241 119 -346 265 -346zM485 893l-162 -121l-11 9l135 152z" />
    <glyph glyph-name="Ocircumflex" unicode="&#xd4;" 
d="M396 -10c-222 0 -358 182 -358 366c0 189 139 376 366 376c196 0 356 -159 356 -373c0 -204 -156 -369 -364 -369zM396 13c151 0 272 109 272 340c0 253 -137 357 -272 357c-133 0 -265 -101 -265 -351c0 -241 119 -346 265 -346zM545 768h-27l-120 115l-119 -115h-27
l133 167h27z" />
    <glyph glyph-name="Otilde" unicode="&#xd5;" 
d="M396 -10c-222 0 -358 182 -358 366c0 189 139 376 366 376c196 0 356 -159 356 -373c0 -204 -156 -369 -364 -369zM396 13c151 0 272 109 272 340c0 253 -137 357 -272 357c-133 0 -265 -101 -265 -351c0 -241 119 -346 265 -346zM534 867h9c-5 -32 -30 -87 -89 -87
c-50 0 -86 46 -137 46c-31 0 -41 -11 -53 -46h-10c8 47 40 83 84 83c50 0 88 -46 139 -46c31 0 49 24 57 50z" />
    <glyph glyph-name="Odieresis" unicode="&#xd6;" 
d="M141 693c0 -18 -17 -35 -36 -35s-35 17 -35 35s16 35 35 35s36 -17 36 -35zM693 658c-19 0 -36 17 -36 35s17 35 36 35c18 0 35 -17 35 -35s-17 -35 -35 -35zM396 -10c-222 0 -358 182 -358 366c0 189 139 376 366 376c196 0 356 -159 356 -373
c0 -204 -156 -369 -364 -369zM396 13c151 0 272 109 272 340c0 253 -137 357 -272 357c-133 0 -265 -101 -265 -351c0 -241 119 -346 265 -346z" />
    <glyph glyph-name="multiply" unicode="&#xd7;" horiz-adv-x="414" 
d="M328 160l-122 123l-120 -123l-21 21l122 120l-122 121l21 21l120 -122l121 122l21 -21l-123 -120c57 -57 97 -96 124 -121z" />
    <glyph glyph-name="Oslash" unicode="&#xd8;" 
d="M248 -46h-31l28 68c-131 60 -207 196 -207 334c0 189 139 376 366 376c43 0 84 -8 122 -22l24 57h31l-28 -68c122 -58 207 -184 207 -340c0 -204 -156 -369 -364 -369c-46 0 -87 8 -125 21zM257 52l257 628c-37 20 -78 30 -118 30c-133 0 -265 -101 -265 -351
c0 -158 50 -257 126 -307zM539 665l-257 -627c35 -17 73 -25 114 -25c151 0 272 109 272 340c0 159 -55 260 -129 312z" />
    <glyph glyph-name="Ugrave" unicode="&#xd9;" horiz-adv-x="684" 
d="M560 260v328c0 116 -14 117 -75 133v5c22 -1 54 -2 91 -2c34 0 62 1 83 2v-5c-57 -15 -69 -18 -69 -132v-315c0 -123 -26 -189 -69 -228c-53 -48 -122 -62 -171 -62c-78 0 -139 18 -182 52c-59 46 -80 117 -80 223v372c0 80 -13 85 -50 91v5c22 -1 50 -2 87 -2
c34 0 73 1 94 2v-5c-40 -5 -57 -11 -57 -91v-361c0 -100 12 -165 50 -201c37 -35 81 -53 142 -53c63 0 111 20 143 52c43 42 63 102 63 192zM395 780l-11 -9l-162 121l38 40z" />
    <glyph glyph-name="Uacute" unicode="&#xda;" horiz-adv-x="684" 
d="M560 260v328c0 116 -14 117 -75 133v5c22 -1 54 -2 91 -2c34 0 62 1 83 2v-5c-57 -15 -69 -18 -69 -132v-315c0 -123 -26 -189 -69 -228c-53 -48 -122 -62 -171 -62c-78 0 -139 18 -182 52c-59 46 -80 117 -80 223v372c0 80 -13 85 -50 91v5c22 -1 50 -2 87 -2
c34 0 73 1 94 2v-5c-40 -5 -57 -11 -57 -91v-361c0 -100 12 -165 50 -201c37 -35 81 -53 142 -53c63 0 111 20 143 52c43 42 63 102 63 192zM485 893l-162 -121l-11 9l135 152z" />
    <glyph glyph-name="Ucircumflex" unicode="&#xdb;" horiz-adv-x="684" 
d="M560 260v328c0 116 -14 117 -75 133v5c22 -1 54 -2 91 -2c34 0 62 1 83 2v-5c-57 -15 -69 -18 -69 -132v-315c0 -123 -26 -189 -69 -228c-53 -48 -122 -62 -171 -62c-78 0 -139 18 -182 52c-59 46 -80 117 -80 223v372c0 80 -13 85 -50 91v5c22 -1 50 -2 87 -2
c34 0 73 1 94 2v-5c-40 -5 -57 -11 -57 -91v-361c0 -100 12 -165 50 -201c37 -35 81 -53 142 -53c63 0 111 20 143 52c43 42 63 102 63 192zM503 767h-27l-120 115l-119 -115h-27l133 167h27z" />
    <glyph glyph-name="Udieresis" unicode="&#xdc;" horiz-adv-x="684" 
d="M560 260v328c0 116 -14 117 -75 133v5c22 -1 54 -2 91 -2c34 0 62 1 83 2v-5c-57 -15 -69 -18 -69 -132v-315c0 -123 -26 -189 -69 -228c-53 -48 -122 -62 -171 -62c-78 0 -139 18 -182 52c-59 46 -80 117 -80 223v372c0 80 -13 85 -50 91v5c22 -1 50 -2 87 -2
c34 0 73 1 94 2v-5c-40 -5 -57 -11 -57 -91v-361c0 -100 12 -165 50 -201c37 -35 81 -53 142 -53c63 0 111 20 143 52c43 42 63 102 63 192zM331 635c0 -18 -17 -35 -36 -35s-35 17 -35 35s16 35 35 35s36 -17 36 -35zM423 600c-19 0 -36 17 -36 35s17 35 36 35
c18 0 35 -17 35 -35s-17 -35 -35 -35z" />
    <glyph glyph-name="Yacute" unicode="&#xdd;" horiz-adv-x="577" 
d="M440 893l-162 -121l-11 9l135 152zM375 3v-5c-21 1 -53 2 -87 2c-37 0 -65 -1 -87 -2v5c37 7 50 11 50 91v150l-201 403c-24 47 -34 66 -73 75v5c21 -1 66 -2 100 -2c37 0 67 1 89 2v-5c-32 -4 -45 -14 -45 -32c0 -13 5 -28 19 -55l168 -341l124 241
c53 104 63 120 63 151c0 20 -11 31 -41 36v5c22 -1 36 -2 73 -2c34 0 55 1 76 2v-5c-47 -10 -42 -14 -140 -200l-138 -263v-165c0 -80 13 -84 50 -91z" />
    <glyph glyph-name="Thorn" unicode="&#xde;" horiz-adv-x="503" 
d="M226 3v-5c-21 1 -53 2 -87 2c-37 0 -65 -1 -87 -2v5c37 6 50 11 50 91v537c0 80 -13 85 -50 91v5c22 -1 50 -2 87 -2c34 0 66 1 87 2v-5c-37 -6 -50 -11 -50 -91v-76c25 3 45 7 69 7c173 0 243 -87 243 -197c0 -100 -71 -200 -202 -200c-28 0 -59 7 -79 23l4 8
c18 -10 42 -14 61 -14c91 0 134 72 134 166c0 116 -58 191 -160 191c-22 0 -47 -3 -70 -10v-435c0 -80 13 -85 50 -91z" />
    <glyph glyph-name="germandbls" unicode="&#xdf;" horiz-adv-x="490" 
d="M179 3v-5c-22 1 -38 2 -75 2s-53 -1 -75 -2v5c30 6 43 11 43 91v360h-17v3l17 17c0 127 18 292 186 292c64 0 121 -43 121 -123c0 -111 -117 -164 -117 -245c0 -111 211 -124 211 -269c0 -75 -52 -139 -141 -139c-19 0 -67 6 -116 32c6 33 3 79 12 119h5
c-1 -6 -1 -13 -1 -19c0 -63 29 -118 100 -118c51 0 73 52 73 103c0 105 -178 136 -178 272c0 74 88 128 88 264c0 84 -30 106 -64 106c-57 0 -115 -53 -115 -227v-428c0 -80 13 -85 43 -91z" />
    <glyph glyph-name="agrave" unicode="&#xe0;" horiz-adv-x="444" 
d="M431 46l2 -5c-15 -24 -37 -51 -72 -51c-36 0 -56 27 -56 63c-39 -38 -92 -63 -149 -63c-85 0 -128 53 -128 110c0 70 62 127 161 127c41 0 86 -12 116 -33v169c0 63 -24 99 -91 99c-54 0 -113 -40 -116 -126h-51c14 90 89 144 175 144c72 0 147 -23 147 -130v-263
c0 -41 7 -56 29 -56c9 0 19 2 33 15zM305 73v103c-21 20 -58 32 -96 32c-72 0 -109 -52 -109 -102c0 -45 30 -88 91 -88c46 0 85 22 114 55zM274 530l-11 -9l-162 121l38 40z" />
    <glyph glyph-name="aacute" unicode="&#xe1;" horiz-adv-x="444" 
d="M431 46l2 -5c-15 -24 -37 -51 -72 -51c-36 0 -56 27 -56 63c-39 -38 -92 -63 -149 -63c-85 0 -128 53 -128 110c0 70 62 127 161 127c41 0 86 -12 116 -33v169c0 63 -24 99 -91 99c-54 0 -113 -40 -116 -126h-51c14 90 89 144 175 144c72 0 147 -23 147 -130v-263
c0 -41 7 -56 29 -56c9 0 19 2 33 15zM305 73v103c-21 20 -58 32 -96 32c-72 0 -109 -52 -109 -102c0 -45 30 -88 91 -88c46 0 85 22 114 55zM335 643l-162 -121l-11 9l135 152z" />
    <glyph glyph-name="acircumflex" unicode="&#xe2;" horiz-adv-x="444" 
d="M431 46l2 -5c-15 -24 -37 -51 -72 -51c-36 0 -56 27 -56 63c-39 -38 -92 -63 -149 -63c-85 0 -128 53 -128 110c0 70 62 127 161 127c41 0 86 -12 116 -33v169c0 63 -24 99 -91 99c-54 0 -113 -40 -116 -126h-51c14 90 89 144 175 144c72 0 147 -23 147 -130v-263
c0 -41 7 -56 29 -56c9 0 19 2 33 15zM305 73v103c-21 20 -58 32 -96 32c-72 0 -109 -52 -109 -102c0 -45 30 -88 91 -88c46 0 85 22 114 55zM363 530h-27l-120 115l-119 -115h-27l133 167h27z" />
    <glyph glyph-name="atilde" unicode="&#xe3;" horiz-adv-x="444" 
d="M431 46l2 -5c-15 -24 -37 -51 -72 -51c-36 0 -56 27 -56 63c-39 -38 -92 -63 -149 -63c-85 0 -128 53 -128 110c0 70 62 127 161 127c41 0 86 -12 116 -33v169c0 63 -24 99 -91 99c-54 0 -113 -40 -116 -126h-51c14 90 89 144 175 144c72 0 147 -23 147 -130v-263
c0 -41 7 -56 29 -56c9 0 19 2 33 15zM305 73v103c-21 20 -58 32 -96 32c-72 0 -109 -52 -109 -102c0 -45 30 -88 91 -88c46 0 85 22 114 55zM352 617h9c-5 -32 -30 -87 -89 -87c-50 0 -86 46 -137 46c-31 0 -41 -11 -53 -46h-10c8 47 40 83 84 83c50 0 88 -46 139 -46
c31 0 49 24 57 50z" />
    <glyph glyph-name="adieresis" unicode="&#xe4;" horiz-adv-x="444" 
d="M431 46l2 -5c-15 -24 -37 -51 -72 -51c-36 0 -56 27 -56 63c-39 -38 -92 -63 -149 -63c-85 0 -128 53 -128 110c0 70 62 127 161 127c41 0 86 -12 116 -33v169c0 63 -24 99 -91 99c-54 0 -113 -40 -116 -126h-51c14 90 89 144 175 144c72 0 147 -23 147 -130v-263
c0 -41 7 -56 29 -56c9 0 19 2 33 15zM305 73v103c-21 20 -58 32 -96 32c-72 0 -109 -52 -109 -102c0 -45 30 -88 91 -88c46 0 85 22 114 55zM188 565c0 -18 -17 -35 -36 -35s-35 17 -35 35s16 35 35 35s36 -17 36 -35zM280 530c-19 0 -36 17 -36 35s17 35 36 35
c18 0 35 -17 35 -35s-17 -35 -35 -35z" />
    <glyph glyph-name="aring" unicode="&#xe5;" horiz-adv-x="444" 
d="M431 46l2 -5c-15 -24 -37 -51 -72 -51c-36 0 -56 27 -56 63c-39 -38 -92 -63 -149 -63c-85 0 -128 53 -128 110c0 70 62 127 161 127c41 0 86 -12 116 -33v169c0 63 -24 99 -91 99c-54 0 -113 -40 -116 -126h-51c14 90 89 144 175 144c72 0 147 -23 147 -130v-263
c0 -41 7 -56 29 -56c9 0 19 2 33 15zM305 73v103c-21 20 -58 32 -96 32c-72 0 -109 -52 -109 -102c0 -45 30 -88 91 -88c46 0 85 22 114 55zM302 595c0 -46 -38 -83 -84 -83s-83 37 -83 83s37 83 84 83c45 0 83 -37 83 -83zM275 595c0 30 -25 55 -56 55s-56 -25 -56 -55
s25 -55 55 -55c32 0 57 25 57 55z" />
    <glyph glyph-name="ae" unicode="&#xe6;" horiz-adv-x="733" 
d="M702 72l4 -4c-37 -46 -91 -78 -166 -78c-94 0 -160 41 -197 100c-66 -77 -132 -100 -187 -100c-85 0 -128 53 -128 110c0 70 62 127 161 127c41 0 86 -11 116 -34c-2 25 -3 50 -3 76c0 32 3 63 3 94c0 63 -24 99 -91 99c-54 0 -113 -40 -116 -126h-51
c14 90 89 144 175 144c58 0 119 -15 139 -78c37 48 91 78 154 78c101 0 184 -72 184 -177h-314c-1 -10 -2 -22 -2 -34c0 -159 83 -246 197 -246c42 0 80 10 122 49zM335 103c-11 21 -22 45 -27 70c-38 32 -67 35 -99 35c-72 0 -109 -52 -109 -102c0 -45 30 -88 91 -88
c44 0 93 20 144 85zM387 323h230c-4 91 -42 144 -104 144c-61 0 -111 -57 -126 -144z" />
    <glyph glyph-name="ccedilla" unicode="&#xe7;" horiz-adv-x="471" 
d="M432 72l4 -4c-37 -46 -91 -78 -166 -78l-17 -47c9 3 17 4 25 4c36 0 67 -27 67 -69c0 -47 -40 -73 -79 -73c-31 0 -61 16 -69 50h3c11 -19 33 -28 53 -28c27 0 52 17 52 50c0 25 -18 47 -44 47c-17 0 -30 -7 -42 -18h-2l39 84c-150 7 -223 122 -223 240
c0 130 83 250 249 250c96 0 155 -44 167 -99h-72c-6 35 -28 86 -101 86c-114 0 -160 -113 -160 -218c0 -146 73 -237 187 -237c50 0 94 22 129 60z" />
    <glyph glyph-name="egrave" unicode="&#xe8;" horiz-adv-x="464" 
d="M433 72l4 -4c-37 -46 -91 -78 -166 -78c-161 0 -238 122 -238 244c0 137 90 246 213 246c101 0 184 -72 184 -177h-314c-1 -10 -2 -22 -2 -34c0 -159 83 -246 197 -246c42 0 80 10 122 49zM118 323h230c-4 91 -42 144 -104 144c-61 0 -111 -57 -126 -144zM308 530l-11 -9
l-162 121l38 40z" />
    <glyph glyph-name="eacute" unicode="&#xe9;" horiz-adv-x="464" 
d="M433 72l4 -4c-37 -46 -91 -78 -166 -78c-161 0 -238 122 -238 244c0 137 90 246 213 246c101 0 184 -72 184 -177h-314c-1 -10 -2 -22 -2 -34c0 -159 83 -246 197 -246c42 0 80 10 122 49zM118 323h230c-4 91 -42 144 -104 144c-61 0 -111 -57 -126 -144zM359 643
l-162 -121l-11 9l135 152z" />
    <glyph glyph-name="ecircumflex" unicode="&#xea;" horiz-adv-x="464" 
d="M433 72l4 -4c-37 -46 -91 -78 -166 -78c-161 0 -238 122 -238 244c0 137 90 246 213 246c101 0 184 -72 184 -177h-314c-1 -10 -2 -22 -2 -34c0 -159 83 -246 197 -246c42 0 80 10 122 49zM118 323h230c-4 91 -42 144 -104 144c-61 0 -111 -57 -126 -144zM395 530h-27
l-120 115l-119 -115h-27l133 167h27z" />
    <glyph glyph-name="edieresis" unicode="&#xeb;" horiz-adv-x="464" 
d="M433 72l4 -4c-37 -46 -91 -78 -166 -78c-161 0 -238 122 -238 244c0 137 90 246 213 246c101 0 184 -72 184 -177h-314c-1 -10 -2 -22 -2 -34c0 -159 83 -246 197 -246c42 0 80 10 122 49zM118 323h230c-4 91 -42 144 -104 144c-61 0 -111 -57 -126 -144zM214 565
c0 -18 -17 -35 -36 -35s-35 17 -35 35s16 35 35 35s36 -17 36 -35zM306 530c-19 0 -36 17 -36 35s17 35 36 35c18 0 35 -17 35 -35s-17 -35 -35 -35z" />
    <glyph glyph-name="igrave" unicode="&#xec;" horiz-adv-x="211" 
d="M182 3v-5c-22 1 -38 2 -75 2s-53 -1 -75 -2v5c30 6 43 11 43 91v300c0 36 -1 46 -31 54v5c30 2 69 10 95 22v-381c0 -80 13 -85 43 -91zM164 530l-11 -9l-162 121l38 40z" />
    <glyph glyph-name="iacute" unicode="&#xed;" horiz-adv-x="211" 
d="M182 3v-5c-22 1 -38 2 -75 2s-53 -1 -75 -2v5c30 6 43 11 43 91v300c0 36 -1 46 -31 54v5c30 2 69 10 95 22v-381c0 -80 13 -85 43 -91zM214 643l-162 -121l-11 9l135 152z" />
    <glyph glyph-name="icircumflex" unicode="&#xee;" horiz-adv-x="211" 
d="M182 3v-5c-22 1 -38 2 -75 2s-53 -1 -75 -2v5c30 6 43 11 43 91v300c0 36 -1 46 -31 54v5c30 2 69 10 95 22v-381c0 -80 13 -85 43 -91zM254 530h-27l-120 115l-119 -115h-27l133 167h27z" />
    <glyph glyph-name="idieresis" unicode="&#xef;" horiz-adv-x="211" 
d="M182 3v-5c-22 1 -38 2 -75 2s-53 -1 -75 -2v5c30 6 43 11 43 91v300c0 36 -1 46 -31 54v5c30 2 69 10 95 22v-381c0 -80 13 -85 43 -91zM79 565c0 -18 -17 -35 -36 -35s-35 17 -35 35s16 35 35 35s36 -17 36 -35zM171 530c-19 0 -36 17 -36 35s17 35 36 35
c18 0 35 -17 35 -35s-17 -35 -35 -35z" />
    <glyph glyph-name="eth" unicode="&#xf0;" horiz-adv-x="566" 
d="M409 715l-62 -53c121 -87 177 -241 177 -379c0 -154 -80 -289 -247 -289c-152 0 -244 91 -244 240c0 144 104 246 242 246c39 0 87 -9 138 -44c-17 77 -46 148 -96 201l-58 -49l-13 15l57 48c-46 41 -106 68 -186 73v9c85 -1 156 -23 213 -59l68 56zM422 381
c-42 66 -102 85 -153 85c-98 0 -153 -69 -153 -241c0 -112 29 -218 157 -218c135 0 158 121 158 234c0 46 -2 93 -9 140z" />
    <glyph glyph-name="ntilde" unicode="&#xf1;" horiz-adv-x="512" 
d="M489 3v-5c-22 1 -38 2 -75 2s-53 -1 -75 -2v5c30 6 43 11 43 91v218c0 124 -61 148 -122 148c-37 0 -85 -15 -121 -41v-325c0 -80 13 -85 43 -91v-5c-22 1 -38 2 -75 2s-53 -1 -75 -2v5c30 6 43 11 43 91v305c0 36 -1 46 -31 54v5c30 2 69 10 95 22v-40
c45 28 97 40 146 40c67 0 161 -20 161 -163v-223c0 -80 13 -85 43 -91zM387 617h9c-5 -32 -30 -87 -89 -87c-50 0 -86 46 -137 46c-31 0 -41 -11 -53 -46h-10c8 47 40 83 84 83c50 0 88 -46 139 -46c31 0 49 24 57 50z" />
    <glyph glyph-name="ograve" unicode="&#xf2;" horiz-adv-x="547" 
d="M277 -6c-152 0 -244 91 -244 240c0 144 104 246 242 246c139 0 239 -105 239 -246c0 -131 -91 -240 -237 -240zM273 7c135 0 158 121 158 234c0 123 -34 226 -163 226c-132 0 -152 -138 -152 -242c0 -112 29 -218 157 -218zM319 530l-11 -9l-162 121l38 40z" />
    <glyph glyph-name="oacute" unicode="&#xf3;" horiz-adv-x="547" 
d="M277 -6c-152 0 -244 91 -244 240c0 144 104 246 242 246c139 0 239 -105 239 -246c0 -131 -91 -240 -237 -240zM273 7c135 0 158 121 158 234c0 123 -34 226 -163 226c-132 0 -152 -138 -152 -242c0 -112 29 -218 157 -218zM398 643l-162 -121l-11 9l135 152z" />
    <glyph glyph-name="ocircumflex" unicode="&#xf4;" horiz-adv-x="547" 
d="M277 -6c-152 0 -244 91 -244 240c0 144 104 246 242 246c139 0 239 -105 239 -246c0 -131 -91 -240 -237 -240zM273 7c135 0 158 121 158 234c0 123 -34 226 -163 226c-132 0 -152 -138 -152 -242c0 -112 29 -218 157 -218zM420 530h-27l-120 115l-119 -115h-27l133 167
h27z" />
    <glyph glyph-name="otilde" unicode="&#xf5;" horiz-adv-x="547" 
d="M277 -6c-152 0 -244 91 -244 240c0 144 104 246 242 246c139 0 239 -105 239 -246c0 -131 -91 -240 -237 -240zM273 7c135 0 158 121 158 234c0 123 -34 226 -163 226c-132 0 -152 -138 -152 -242c0 -112 29 -218 157 -218zM409 617h9c-5 -32 -30 -87 -89 -87
c-50 0 -86 46 -137 46c-31 0 -41 -11 -53 -46h-10c8 47 40 83 84 83c50 0 88 -46 139 -46c31 0 49 24 57 50z" />
    <glyph glyph-name="odieresis" unicode="&#xf6;" horiz-adv-x="547" 
d="M277 -6c-152 0 -244 91 -244 240c0 144 104 246 242 246c139 0 239 -105 239 -246c0 -131 -91 -240 -237 -240zM273 7c135 0 158 121 158 234c0 123 -34 226 -163 226c-132 0 -152 -138 -152 -242c0 -112 29 -218 157 -218zM245 565c0 -18 -17 -35 -36 -35s-35 17 -35 35
s16 35 35 35s36 -17 36 -35zM337 530c-19 0 -36 17 -36 35s17 35 36 35c18 0 35 -17 35 -35s-17 -35 -35 -35z" />
    <glyph glyph-name="divide" unicode="&#xf7;" horiz-adv-x="503" 
d="M288 174c0 -19 -16 -35 -38 -35c-19 0 -35 16 -35 35c0 22 16 38 35 38c22 0 38 -16 38 -38zM288 426c0 -19 -16 -35 -38 -35c-19 0 -35 16 -35 35c0 22 16 38 35 38c22 0 38 -16 38 -38zM437 317v-30c-39 1 -98 1 -186 1c-89 0 -147 0 -185 -1v30c38 -1 96 -2 185 -2
c88 0 147 1 186 2z" />
    <glyph glyph-name="oslash" unicode="&#xf8;" horiz-adv-x="547" 
d="M171 -55h-31l28 68c-86 34 -135 112 -135 221c0 144 104 246 242 246c28 0 55 -5 79 -13l22 54h31l-26 -64c81 -39 133 -122 133 -223c0 -131 -91 -240 -237 -240c-30 0 -57 4 -82 10zM177 36l170 413c-21 11 -47 18 -79 18c-132 0 -152 -138 -152 -242
c0 -76 13 -149 61 -189zM371 433l-169 -412c19 -9 42 -14 71 -14c135 0 158 121 158 234c0 80 -14 152 -60 192z" />
    <glyph glyph-name="ugrave" unicode="&#xf9;" horiz-adv-x="522" 
d="M503 46l2 -5c-15 -24 -33 -51 -72 -51c-38 0 -56 27 -56 92c-34 -56 -91 -92 -161 -92c-92 0 -151 51 -151 173v236c0 36 -8 47 -49 54v5c30 2 85 7 113 22v-312c0 -107 34 -151 112 -151c61 0 106 29 136 89v293c0 36 -3 47 -44 54v5c30 2 80 7 108 22v-385
c0 -31 0 -66 26 -66c12 0 22 4 36 17zM293 530l-11 -9l-162 121l38 40z" />
    <glyph glyph-name="uacute" unicode="&#xfa;" horiz-adv-x="522" 
d="M503 46l2 -5c-15 -24 -33 -51 -72 -51c-38 0 -56 27 -56 92c-34 -56 -91 -92 -161 -92c-92 0 -151 51 -151 173v236c0 36 -8 47 -49 54v5c30 2 85 7 113 22v-312c0 -107 34 -151 112 -151c61 0 106 29 136 89v293c0 36 -3 47 -44 54v5c30 2 80 7 108 22v-385
c0 -31 0 -66 26 -66c12 0 22 4 36 17zM379 643l-162 -121l-11 9l135 152z" />
    <glyph glyph-name="ucircumflex" unicode="&#xfb;" horiz-adv-x="522" 
d="M503 46l2 -5c-15 -24 -33 -51 -72 -51c-38 0 -56 27 -56 92c-34 -56 -91 -92 -161 -92c-92 0 -151 51 -151 173v236c0 36 -8 47 -49 54v5c30 2 85 7 113 22v-312c0 -107 34 -151 112 -151c61 0 106 29 136 89v293c0 36 -3 47 -44 54v5c30 2 80 7 108 22v-385
c0 -31 0 -66 26 -66c12 0 22 4 36 17zM391 530h-27l-120 115l-119 -115h-27l133 167h27z" />
    <glyph glyph-name="udieresis" unicode="&#xfc;" horiz-adv-x="522" 
d="M503 46l2 -5c-15 -24 -33 -51 -72 -51c-38 0 -56 27 -56 92c-34 -56 -91 -92 -161 -92c-92 0 -151 51 -151 173v236c0 36 -8 47 -49 54v5c30 2 85 7 113 22v-312c0 -107 34 -151 112 -151c61 0 106 29 136 89v293c0 36 -3 47 -44 54v5c30 2 80 7 108 22v-385
c0 -31 0 -66 26 -66c12 0 22 4 36 17zM227 565c0 -18 -17 -35 -36 -35s-35 17 -35 35s16 35 35 35s36 -17 36 -35zM319 530c-19 0 -36 17 -36 35s17 35 36 35c18 0 35 -17 35 -35s-17 -35 -35 -35z" />
    <glyph glyph-name="yacute" unicode="&#xfd;" horiz-adv-x="518" 
d="M231 -221v-5c-14 0 -58 1 -102 1c-33 0 -42 -1 -56 -1v5c45 4 63 14 124 143l40 84l-184 415c-19 42 -36 45 -62 50v5c14 0 55 -1 91 -1c38 0 72 1 86 1v-5c-30 -4 -46 -8 -46 -27c0 -8 2 -17 8 -31l145 -326l124 260c17 37 29 65 29 86c0 22 -14 35 -50 38v5
c14 0 35 -1 79 -1c33 0 57 1 71 1v-5c-36 -7 -51 -17 -109 -140l-192 -409c-26 -55 -36 -87 -36 -107c0 -27 17 -31 40 -36zM417 643l-162 -121l-11 9l135 152z" />
    <glyph glyph-name="thorn" unicode="&#xfe;" horiz-adv-x="539" 
d="M174 -222v-5c-22 1 -38 2 -75 2s-53 -1 -75 -2v5c30 6 43 11 43 91v813c0 36 -3 47 -44 54v5c30 2 80 7 108 22v-331c58 40 109 48 149 48c139 0 226 -114 226 -248c0 -151 -117 -238 -239 -238c-54 0 -97 15 -136 41v-166c0 -80 13 -85 43 -91zM131 406v-346
c25 -23 68 -45 126 -45c68 0 164 38 164 216c0 119 -66 224 -172 224c-34 0 -72 -8 -118 -49z" />
    <glyph glyph-name="ydieresis" unicode="&#xff;" horiz-adv-x="518" 
d="M231 -221v-5c-14 0 -58 1 -102 1c-33 0 -42 -1 -56 -1v5c45 4 63 14 124 143l40 84l-184 415c-19 42 -36 45 -62 50v5c14 0 55 -1 91 -1c38 0 72 1 86 1v-5c-30 -4 -46 -8 -46 -27c0 -8 2 -17 8 -31l145 -326l124 260c17 37 29 65 29 86c0 22 -14 35 -50 38v5
c14 0 35 -1 79 -1c33 0 57 1 71 1v-5c-36 -7 -51 -17 -109 -140l-192 -409c-26 -55 -36 -87 -36 -107c0 -27 17 -31 40 -36zM248 565c0 -18 -17 -35 -36 -35s-35 17 -35 35s16 35 35 35s36 -17 36 -35zM340 530c-19 0 -36 17 -36 35s17 35 36 35c18 0 35 -17 35 -35
s-17 -35 -35 -35z" />
    <glyph glyph-name="Amacron" unicode="&#x100;" horiz-adv-x="582" 
d="M578 3v-5c-21 1 -53 2 -87 2c-37 0 -67 -1 -89 -2v5c33 2 44 16 44 35c0 14 -6 32 -12 52l-59 188h-115c-36 0 -71 0 -106 -1l-60 -162c-9 -25 -17 -49 -17 -68c0 -23 12 -40 46 -44v-5c-22 1 -56 2 -93 2c-34 0 -47 -1 -68 -2v5c51 12 67 24 110 138l226 601h10
l210 -664c20 -63 22 -70 60 -75zM366 307l-92 296l-109 -295c32 -1 63 -1 95 -1h106zM440 830v-30c-46 1 -92 1 -137 1c-46 0 -91 0 -136 -1v30c45 -1 90 -2 136 -2c45 0 91 1 137 2z" />
    <glyph glyph-name="amacron" unicode="&#x101;" horiz-adv-x="444" 
d="M431 46l2 -5c-15 -24 -37 -51 -72 -51c-36 0 -56 27 -56 63c-39 -38 -92 -63 -149 -63c-85 0 -128 53 -128 110c0 70 62 127 161 127c41 0 86 -12 116 -33v169c0 63 -24 99 -91 99c-54 0 -113 -40 -116 -126h-51c14 90 89 144 175 144c72 0 147 -23 147 -130v-263
c0 -41 7 -56 29 -56c9 0 19 2 33 15zM305 73v103c-21 20 -58 32 -96 32c-72 0 -109 -52 -109 -102c0 -45 30 -88 91 -88c46 0 85 22 114 55zM355 580v-30c-46 1 -92 1 -137 1c-46 0 -91 0 -136 -1v30c45 -1 90 -2 136 -2c45 0 91 1 137 2z" />
    <glyph glyph-name="Abreve" unicode="&#x102;" horiz-adv-x="582" 
d="M578 3v-5c-21 1 -53 2 -87 2c-37 0 -67 -1 -89 -2v5c33 2 44 16 44 35c0 14 -6 32 -12 52l-59 188h-115c-36 0 -71 0 -106 -1l-60 -162c-9 -25 -17 -49 -17 -68c0 -23 12 -40 46 -44v-5c-22 1 -56 2 -93 2c-34 0 -47 -1 -68 -2v5c51 12 67 24 110 138l226 601h10
l210 -664c20 -63 22 -70 60 -75zM366 307l-92 296l-109 -295c32 -1 63 -1 95 -1h106zM412 913h22c0 -60 -47 -133 -130 -133c-84 0 -131 73 -131 133h22c11 -61 42 -96 108 -96c70 0 92 35 109 96z" />
    <glyph glyph-name="abreve" unicode="&#x103;" horiz-adv-x="444" 
d="M431 46l2 -5c-15 -24 -37 -51 -72 -51c-36 0 -56 27 -56 63c-39 -38 -92 -63 -149 -63c-85 0 -128 53 -128 110c0 70 62 127 161 127c41 0 86 -12 116 -33v169c0 63 -24 99 -91 99c-54 0 -113 -40 -116 -126h-51c14 90 89 144 175 144c72 0 147 -23 147 -130v-263
c0 -41 7 -56 29 -56c9 0 19 2 33 15zM305 73v103c-21 20 -58 32 -96 32c-72 0 -109 -52 -109 -102c0 -45 30 -88 91 -88c46 0 85 22 114 55zM327 663h22c0 -60 -47 -133 -130 -133c-84 0 -131 73 -131 133h22c11 -61 42 -96 108 -96c70 0 92 35 109 96z" />
    <glyph glyph-name="Aogonek" unicode="&#x104;" horiz-adv-x="580" 
d="M521 -176l1 -13c-18 -9 -41 -13 -63 -13c-42 0 -82 17 -82 59s43 99 108 143c-34 0 -63 -1 -83 -2v5c33 2 44 16 44 35c0 14 -6 32 -12 52l-59 188h-221l-60 -163c-9 -25 -17 -49 -17 -68c0 -23 12 -40 46 -44v-5c-22 1 -56 2 -93 2c-34 0 -47 -1 -68 -2v5
c51 12 67 24 110 138l226 601h10l210 -664c20 -63 22 -70 60 -75v-5c-18 1 -44 2 -72 2c-59 -50 -88 -97 -88 -131c0 -37 25 -50 60 -50c13 0 28 2 43 5zM366 308l-92 295l-109 -295h201z" />
    <glyph glyph-name="aogonek" unicode="&#x105;" horiz-adv-x="443" 
d="M408 -178l1 -13c-18 -9 -41 -13 -63 -13c-42 0 -82 17 -82 59c0 39 38 92 96 135c-35 0 -55 27 -55 63c-39 -38 -92 -63 -149 -63c-85 0 -128 53 -128 110c0 70 62 127 161 127c41 0 86 -12 116 -33v169c0 63 -24 99 -91 99c-54 0 -113 -40 -116 -126h-51
c14 90 89 144 175 144c72 0 147 -23 147 -130v-263c0 -41 7 -56 29 -56c9 0 19 2 33 15l2 -5c-10 -15 -22 -31 -38 -41c-60 -51 -90 -98 -90 -133c0 -37 25 -50 60 -50c13 0 28 2 43 5zM305 73v103c-21 20 -58 32 -96 32c-72 0 -109 -52 -109 -102c0 -45 30 -88 91 -88
c46 0 85 22 114 55z" />
    <glyph glyph-name="Cacute" unicode="&#x106;" horiz-adv-x="724" 
d="M679 161h5c-5 -36 -6 -71 -6 -107c-91 -45 -174 -64 -250 -64c-256 0 -391 182 -391 369c0 184 127 373 380 373c103 0 194 -30 261 -49c-2 -26 -3 -65 -3 -95c0 -17 1 -31 1 -38h-5c-10 106 -116 160 -250 160c-157 0 -293 -108 -293 -355c0 -241 168 -341 316 -341
c97 0 205 45 235 147zM522 893l-162 -121l-11 9l135 152z" />
    <glyph glyph-name="cacute" unicode="&#x107;" horiz-adv-x="470" 
d="M431 72l4 -4c-37 -46 -91 -78 -166 -78c-159 0 -237 119 -237 240c0 130 83 250 249 250c96 0 155 -44 167 -99h-72c-6 35 -28 86 -101 86c-114 0 -160 -113 -160 -218c0 -146 73 -237 187 -237c50 0 94 22 129 60zM368 643l-162 -121l-11 9l135 152z" />
    <glyph glyph-name="Ccircumflex" unicode="&#x108;" horiz-adv-x="724" 
d="M679 161h5c-5 -36 -6 -71 -6 -107c-91 -45 -174 -64 -250 -64c-256 0 -391 182 -391 369c0 184 127 373 380 373c103 0 194 -30 261 -49c-2 -26 -3 -65 -3 -95c0 -17 1 -31 1 -38h-5c-10 106 -116 160 -250 160c-157 0 -293 -108 -293 -355c0 -241 168 -341 316 -341
c97 0 205 45 235 147zM552 780h-27l-120 115l-119 -115h-27l133 167h27z" />
    <glyph glyph-name="ccircumflex" unicode="&#x109;" horiz-adv-x="470" 
d="M431 72l4 -4c-37 -46 -91 -78 -166 -78c-159 0 -237 119 -237 240c0 130 83 250 249 250c96 0 155 -44 167 -99h-72c-6 35 -28 86 -101 86c-114 0 -160 -113 -160 -218c0 -146 73 -237 187 -237c50 0 94 22 129 60zM398 530h-27l-120 115l-119 -115h-27l133 167h27z" />
    <glyph glyph-name="Cdotaccent" unicode="&#x10a;" horiz-adv-x="724" 
d="M679 161h5c-5 -36 -6 -71 -6 -107c-91 -45 -174 -64 -250 -64c-256 0 -391 182 -391 369c0 184 127 373 380 373c103 0 194 -30 261 -49c-2 -26 -3 -65 -3 -95c0 -17 1 -31 1 -38h-5c-10 106 -116 160 -250 160c-157 0 -293 -108 -293 -355c0 -241 168 -341 316 -341
c97 0 205 45 235 147zM441 815c0 -18 -17 -35 -36 -35s-35 17 -35 35s16 35 35 35s36 -17 36 -35z" />
    <glyph glyph-name="cdotaccent" unicode="&#x10b;" horiz-adv-x="470" 
d="M431 72l4 -4c-37 -46 -91 -78 -166 -78c-159 0 -237 119 -237 240c0 130 83 250 249 250c96 0 155 -44 167 -99h-72c-6 35 -28 86 -101 86c-114 0 -160 -113 -160 -218c0 -146 73 -237 187 -237c50 0 94 22 129 60zM298 565c0 -18 -17 -35 -36 -35s-35 17 -35 35
s16 35 35 35s36 -17 36 -35z" />
    <glyph glyph-name="Ccaron" unicode="&#x10c;" horiz-adv-x="724" 
d="M679 161h5c-5 -36 -6 -71 -6 -107c-91 -45 -174 -64 -250 -64c-256 0 -391 182 -391 369c0 184 127 373 380 373c103 0 194 -30 261 -49c-2 -26 -3 -65 -3 -95c0 -17 1 -31 1 -38h-5c-10 106 -116 160 -250 160c-157 0 -293 -108 -293 -355c0 -241 168 -341 316 -341
c97 0 205 45 235 147zM425 780h-27l-133 167h27l119 -115l120 115h27z" />
    <glyph glyph-name="ccaron" unicode="&#x10d;" horiz-adv-x="470" 
d="M431 72l4 -4c-37 -46 -91 -78 -166 -78c-159 0 -237 119 -237 240c0 130 83 250 249 250c96 0 155 -44 167 -99h-72c-6 35 -28 86 -101 86c-114 0 -160 -113 -160 -218c0 -146 73 -237 187 -237c50 0 94 22 129 60zM256 530h-27l-133 167h27l119 -115l120 115h27z" />
    <glyph glyph-name="Dcaron" unicode="&#x10e;" horiz-adv-x="779" 
d="M43 -2v5c51 8 71 10 71 91v537c0 80 -27 83 -70 91v5c22 -1 68 -2 95 -2c63 0 107 1 158 1c274 0 443 -136 443 -369c0 -195 -121 -360 -386 -360c-52 0 -143 3 -203 3c-37 0 -86 -1 -108 -2zM188 691v-656c50 -9 117 -14 165 -14c170 0 303 76 303 342
c0 244 -155 339 -353 339c-38 0 -77 -2 -115 -11zM385 780h-27l-133 167h27l119 -115l120 115h27z" />
    <glyph glyph-name="dcaron" unicode="&#x10f;" horiz-adv-x="526" 
d="M521 36l3 -5c-16 -23 -38 -41 -77 -41c-42 0 -58 19 -64 57c-43 -47 -99 -57 -137 -57c-139 0 -214 114 -214 232c0 149 111 258 237 258c36 0 74 -10 111 -33v234c0 36 -3 47 -44 54v5c30 2 80 7 108 22v-628c0 -96 5 -114 34 -114c18 0 35 10 43 16zM380 105v285
c-21 44 -70 70 -118 70c-75 0 -144 -64 -144 -228c0 -119 59 -208 165 -208c33 0 97 16 97 81zM503 554l-4 2c26 21 40 52 40 84c0 6 -1 13 -2 17c-5 -3 -10 -4 -15 -4c-22 0 -33 17 -33 35c0 24 16 38 34 38c21 0 44 -19 44 -60c0 -48 -25 -90 -64 -112z" />
    <glyph glyph-name="Dcroat" unicode="&#x110;" horiz-adv-x="768" 
d="M32 -2v5c51 8 71 10 71 91v254c-17 0 -33 -1 -49 -1v30c16 -1 32 -1 49 -1v255c0 80 -27 83 -70 91v5c22 -1 68 -2 95 -2c63 0 107 1 158 1c274 0 443 -136 443 -369c0 -195 -121 -360 -386 -360c-52 0 -143 3 -203 3c-37 0 -86 -1 -108 -2zM373 377v-30
c-53 1 -107 1 -160 1h-36v-313c50 -9 117 -14 165 -14c170 0 303 76 303 342c0 244 -155 339 -353 339c-38 0 -77 -2 -115 -11v-316h36c53 0 107 1 160 2z" />
    <glyph glyph-name="dcroat" unicode="&#x111;" horiz-adv-x="526" 
d="M521 36l3 -5c-16 -23 -38 -41 -77 -41c-42 0 -58 19 -64 57c-43 -47 -99 -57 -137 -57c-139 0 -214 114 -214 232c0 149 111 258 237 258c36 0 74 -10 111 -33v152h-37c-57 0 -113 0 -169 -1v30c56 -1 112 -2 169 -2h37v55c0 36 -3 47 -44 54v5c30 2 80 7 108 22v-136
l69 2v-30c-23 0 -46 1 -69 1v-465c0 -96 5 -114 34 -114c18 0 35 10 43 16zM380 105v285c-21 44 -70 70 -118 70c-75 0 -144 -64 -144 -228c0 -119 59 -208 165 -208c33 0 97 16 97 81z" />
    <glyph glyph-name="Emacron" unicode="&#x112;" horiz-adv-x="493" 
d="M454 129h5c-1 -84 -6 -88 -6 -132c-93 3 -113 3 -206 3c-76 0 -180 -1 -201 -2v5c48 8 57 23 57 91v537c0 80 -16 84 -60 91v5c20 -1 56 -2 128 -2c153 0 233 0 278 2c0 -7 1 -26 1 -42c0 -22 -1 -61 -6 -82h-5c0 89 -31 92 -178 92c-56 0 -69 -2 -84 -6v-298
c184 0 194 2 209 77h5c-1 -31 -2 -52 -2 -93c0 -53 1 -68 2 -102h-5c-15 86 -25 88 -209 88v-325c11 -4 38 -6 85 -6c156 0 177 0 192 99zM405 830v-30c-46 1 -92 1 -137 1c-46 0 -91 0 -136 -1v30c45 -1 90 -2 136 -2c45 0 91 1 137 2z" />
    <glyph glyph-name="emacron" unicode="&#x113;" horiz-adv-x="464" 
d="M433 72l4 -4c-37 -46 -91 -78 -166 -78c-161 0 -238 122 -238 244c0 137 90 246 213 246c101 0 184 -72 184 -177h-314c-1 -10 -2 -22 -2 -34c0 -159 83 -246 197 -246c42 0 80 10 122 49zM118 323h230c-4 91 -42 144 -104 144c-61 0 -111 -57 -126 -144zM378 580v-30
c-46 1 -92 1 -137 1c-46 0 -91 0 -136 -1v30c45 -1 90 -2 136 -2c45 0 91 1 137 2z" />
    <glyph glyph-name="Ebreve" unicode="&#x114;" horiz-adv-x="493" 
d="M454 129h5c-1 -84 -6 -88 -6 -132c-93 3 -113 3 -206 3c-76 0 -180 -1 -201 -2v5c48 8 57 23 57 91v537c0 80 -16 84 -60 91v5c20 -1 56 -2 128 -2c153 0 233 0 278 2c0 -7 1 -26 1 -42c0 -22 -1 -61 -6 -82h-5c0 89 -31 92 -178 92c-56 0 -69 -2 -84 -6v-298
c184 0 194 2 209 77h5c-1 -31 -2 -52 -2 -93c0 -53 1 -68 2 -102h-5c-15 86 -25 88 -209 88v-325c11 -4 38 -6 85 -6c156 0 177 0 192 99zM384 913h22c0 -60 -47 -133 -130 -133c-84 0 -131 73 -131 133h22c11 -61 42 -96 108 -96c70 0 92 35 109 96z" />
    <glyph glyph-name="ebreve" unicode="&#x115;" horiz-adv-x="464" 
d="M433 72l4 -4c-37 -46 -91 -78 -166 -78c-161 0 -238 122 -238 244c0 137 90 246 213 246c101 0 184 -72 184 -177h-314c-1 -10 -2 -22 -2 -34c0 -159 83 -246 197 -246c42 0 80 10 122 49zM118 323h230c-4 91 -42 144 -104 144c-61 0 -111 -57 -126 -144zM351 663h22
c0 -60 -47 -133 -130 -133c-84 0 -131 73 -131 133h22c11 -61 42 -96 108 -96c70 0 92 35 109 96z" />
    <glyph glyph-name="Edotaccent" unicode="&#x116;" horiz-adv-x="493" 
d="M454 129h5c-1 -84 -6 -88 -6 -132c-93 3 -113 3 -206 3c-76 0 -180 -1 -201 -2v5c48 8 57 23 57 91v537c0 80 -16 84 -60 91v5c20 -1 56 -2 128 -2c153 0 233 0 278 2c0 -7 1 -26 1 -42c0 -22 -1 -61 -6 -82h-5c0 89 -31 92 -178 92c-56 0 -69 -2 -84 -6v-298
c184 0 194 2 209 77h5c-1 -31 -2 -52 -2 -93c0 -53 1 -68 2 -102h-5c-15 86 -25 88 -209 88v-325c11 -4 38 -6 85 -6c156 0 177 0 192 99zM324 815c0 -18 -17 -35 -36 -35s-35 17 -35 35s16 35 35 35s36 -17 36 -35z" />
    <glyph glyph-name="edotaccent" unicode="&#x117;" horiz-adv-x="464" 
d="M433 72l4 -4c-37 -46 -91 -78 -166 -78c-161 0 -238 122 -238 244c0 137 90 246 213 246c101 0 184 -72 184 -177h-314c-1 -10 -2 -22 -2 -34c0 -159 83 -246 197 -246c42 0 80 10 122 49zM118 323h230c-4 91 -42 144 -104 144c-61 0 -111 -57 -126 -144zM282 565
c0 -18 -17 -35 -36 -35s-35 17 -35 35s16 35 35 35s36 -17 36 -35z" />
    <glyph glyph-name="Eogonek" unicode="&#x118;" horiz-adv-x="493" 
d="M418 -177l1 -13c-18 -9 -41 -13 -63 -13c-42 0 -82 17 -82 59s43 99 108 143c-42 1 -72 1 -135 1c-76 0 -180 -1 -201 -2v5c48 8 57 23 57 91v537c0 80 -16 84 -60 91v5c20 -1 56 -2 128 -2c153 0 233 0 278 2c0 -7 1 -26 1 -42c0 -22 -1 -61 -6 -82h-5
c0 89 -31 92 -178 92c-56 0 -69 -2 -84 -6v-298c184 0 194 2 209 77h5c-1 -31 -2 -52 -2 -93c0 -53 1 -68 2 -102h-5c-15 86 -25 88 -209 88v-325c11 -4 38 -6 85 -6c156 0 177 0 192 99h5c-1 -84 -6 -88 -6 -132l-50 2c-59 -50 -88 -97 -88 -131c0 -37 25 -50 60 -50
c13 0 28 2 43 5z" />
    <glyph glyph-name="eogonek" unicode="&#x119;" horiz-adv-x="465" 
d="M387 -163l1 -13c-18 -9 -41 -13 -63 -13c-42 0 -82 17 -82 59c0 37 33 85 85 127c-18 -5 -37 -7 -57 -7c-161 0 -238 122 -238 244c0 137 90 246 213 246c101 0 184 -72 184 -177h-314c-1 -10 -2 -22 -2 -34c0 -159 83 -246 197 -246c42 0 80 10 122 49l4 -4
c-17 -21 -38 -40 -63 -53c-60 -51 -90 -98 -90 -133c0 -37 25 -50 60 -50c13 0 28 2 43 5zM118 323h230c-4 91 -42 144 -104 144c-61 0 -111 -57 -126 -144z" />
    <glyph glyph-name="Ecaron" unicode="&#x11a;" horiz-adv-x="493" 
d="M454 129h5c-1 -84 -6 -88 -6 -132c-93 3 -113 3 -206 3c-76 0 -180 -1 -201 -2v5c48 8 57 23 57 91v537c0 80 -16 84 -60 91v5c20 -1 56 -2 128 -2c153 0 233 0 278 2c0 -7 1 -26 1 -42c0 -22 -1 -61 -6 -82h-5c0 89 -31 92 -178 92c-56 0 -69 -2 -84 -6v-298
c184 0 194 2 209 77h5c-1 -31 -2 -52 -2 -93c0 -53 1 -68 2 -102h-5c-15 86 -25 88 -209 88v-325c11 -4 38 -6 85 -6c156 0 177 0 192 99zM280 780h-27l-133 167h27l119 -115l120 115h27z" />
    <glyph glyph-name="ecaron" unicode="&#x11b;" horiz-adv-x="464" 
d="M433 72l4 -4c-37 -46 -91 -78 -166 -78c-161 0 -238 122 -238 244c0 137 90 246 213 246c101 0 184 -72 184 -177h-314c-1 -10 -2 -22 -2 -34c0 -159 83 -246 197 -246c42 0 80 10 122 49zM118 323h230c-4 91 -42 144 -104 144c-61 0 -111 -57 -126 -144zM251 530h-27
l-133 167h27l119 -115l120 115h27z" />
    <glyph glyph-name="Gcircumflex" unicode="&#x11c;" horiz-adv-x="743" 
d="M596 69v182c0 84 -20 85 -57 91v5c22 -1 57 -2 94 -2c34 0 60 1 81 2v-5c-36 -7 -44 -13 -44 -91v-196c-63 -19 -119 -65 -242 -65c-256 0 -391 182 -391 369c0 196 136 373 380 373c93 0 163 -21 256 -49c-2 -22 -3 -63 -3 -94c0 -17 0 -32 1 -39h-5
c-11 112 -120 160 -245 160c-138 0 -296 -94 -296 -347c0 -210 134 -351 306 -351c54 0 124 16 165 57zM559 780h-27l-120 115l-119 -115h-27l133 167h27z" />
    <glyph glyph-name="gcircumflex" unicode="&#x11d;" horiz-adv-x="459" 
d="M462 451l-36 -58c-6 23 -16 31 -29 31c-9 0 -20 -5 -30 -14c18 -25 29 -56 29 -93c0 -100 -82 -159 -178 -159c-13 0 -24 1 -35 2c-28 -9 -46 -26 -46 -55c0 -55 64 -52 146 -61c121 -13 161 -70 161 -128c0 -70 -73 -141 -214 -141c-105 0 -210 43 -210 127
c0 50 35 97 120 124c-40 8 -69 23 -69 66c0 42 41 66 76 76c-74 24 -110 87 -110 151c0 80 60 161 179 161c55 0 108 -21 142 -59c17 19 47 47 73 47c15 0 23 -6 31 -17zM179 22c-59 -16 -81 -59 -81 -114c0 -82 60 -119 134 -119c65 0 129 30 129 115
c0 110 -100 110 -182 118zM215 171c66 0 98 48 98 143c0 96 -30 153 -101 153c-62 0 -92 -52 -92 -144c0 -108 32 -152 95 -152zM362 530h-27l-120 115l-119 -115h-27l133 167h27z" />
    <glyph glyph-name="Gbreve" unicode="&#x11e;" horiz-adv-x="743" 
d="M596 69v182c0 84 -20 85 -57 91v5c22 -1 57 -2 94 -2c34 0 60 1 81 2v-5c-36 -7 -44 -13 -44 -91v-196c-63 -19 -119 -65 -242 -65c-256 0 -391 182 -391 369c0 196 136 373 380 373c93 0 163 -21 256 -49c-2 -22 -3 -63 -3 -94c0 -17 0 -32 1 -39h-5
c-11 112 -120 160 -245 160c-138 0 -296 -94 -296 -347c0 -210 134 -351 306 -351c54 0 124 16 165 57zM508 913h22c0 -60 -47 -133 -130 -133c-84 0 -131 73 -131 133h22c11 -61 42 -96 108 -96c70 0 92 35 109 96z" />
    <glyph glyph-name="gbreve" unicode="&#x11f;" horiz-adv-x="459" 
d="M462 451l-36 -58c-6 23 -16 31 -29 31c-9 0 -20 -5 -30 -14c18 -25 29 -56 29 -93c0 -100 -82 -159 -178 -159c-13 0 -24 1 -35 2c-28 -9 -46 -26 -46 -55c0 -55 64 -52 146 -61c121 -13 161 -70 161 -128c0 -70 -73 -141 -214 -141c-105 0 -210 43 -210 127
c0 50 35 97 120 124c-40 8 -69 23 -69 66c0 42 41 66 76 76c-74 24 -110 87 -110 151c0 80 60 161 179 161c55 0 108 -21 142 -59c17 19 47 47 73 47c15 0 23 -6 31 -17zM179 22c-59 -16 -81 -59 -81 -114c0 -82 60 -119 134 -119c65 0 129 30 129 115
c0 110 -100 110 -182 118zM215 171c66 0 98 48 98 143c0 96 -30 153 -101 153c-62 0 -92 -52 -92 -144c0 -108 32 -152 95 -152zM323 663h22c0 -60 -47 -133 -130 -133c-84 0 -131 73 -131 133h22c11 -61 42 -96 108 -96c70 0 92 35 109 96z" />
    <glyph glyph-name="Gdotaccent" unicode="&#x120;" horiz-adv-x="743" 
d="M596 69v182c0 84 -20 85 -57 91v5c22 -1 57 -2 94 -2c34 0 60 1 81 2v-5c-36 -7 -44 -13 -44 -91v-196c-63 -19 -119 -65 -242 -65c-256 0 -391 182 -391 369c0 196 136 373 380 373c93 0 163 -21 256 -49c-2 -22 -3 -63 -3 -94c0 -17 0 -32 1 -39h-5
c-11 112 -120 160 -245 160c-138 0 -296 -94 -296 -347c0 -210 134 -351 306 -351c54 0 124 16 165 57zM438 815c0 -18 -17 -35 -36 -35s-35 17 -35 35s16 35 35 35s36 -17 36 -35z" />
    <glyph glyph-name="gdotaccent" unicode="&#x121;" horiz-adv-x="459" 
d="M462 451l-36 -58c-6 23 -16 31 -29 31c-9 0 -20 -5 -30 -14c18 -25 29 -56 29 -93c0 -100 -82 -159 -178 -159c-13 0 -24 1 -35 2c-28 -9 -46 -26 -46 -55c0 -55 64 -52 146 -61c121 -13 161 -70 161 -128c0 -70 -73 -141 -214 -141c-105 0 -210 43 -210 127
c0 50 35 97 120 124c-40 8 -69 23 -69 66c0 42 41 66 76 76c-74 24 -110 87 -110 151c0 80 60 161 179 161c55 0 108 -21 142 -59c17 19 47 47 73 47c15 0 23 -6 31 -17zM179 22c-59 -16 -81 -59 -81 -114c0 -82 60 -119 134 -119c65 0 129 30 129 115
c0 110 -100 110 -182 118zM215 171c66 0 98 48 98 143c0 96 -30 153 -101 153c-62 0 -92 -52 -92 -144c0 -108 32 -152 95 -152zM252 565c0 -18 -17 -35 -36 -35s-35 17 -35 35s16 35 35 35s36 -17 36 -35z" />
    <glyph glyph-name="Gcommaaccent" unicode="&#x122;" horiz-adv-x="740" 
d="M596 69v182c0 84 -20 85 -57 91v5c22 -1 57 -2 94 -2c34 0 60 1 81 2v-5c-36 -7 -44 -13 -44 -91v-196c-63 -19 -119 -65 -242 -65c-256 0 -391 182 -391 369c0 196 136 373 380 373c93 0 163 -21 256 -49c-2 -22 -3 -63 -3 -94c0 -17 0 -32 1 -39h-5
c-11 112 -120 160 -245 160c-138 0 -296 -94 -296 -347c0 -210 134 -351 306 -351c54 0 124 16 165 57zM408 -228l-4 2c26 21 40 52 40 84c0 6 -1 13 -2 17c-5 -3 -10 -4 -15 -4c-22 0 -33 17 -33 35c0 24 16 38 34 38c21 0 44 -19 44 -60c0 -48 -25 -90 -64 -112z" />
    <glyph glyph-name="gcommaaccent" unicode="&#x123;" horiz-adv-x="459" 
d="M462 451l-36 -58c-6 23 -16 31 -29 31c-9 0 -20 -5 -30 -14c18 -25 29 -56 29 -93c0 -100 -82 -159 -178 -159c-13 0 -24 1 -35 2c-28 -9 -46 -26 -46 -55c0 -55 64 -52 146 -61c121 -13 161 -70 161 -128c0 -70 -73 -141 -214 -141c-105 0 -210 43 -210 127
c0 50 35 97 120 124c-40 8 -69 23 -69 66c0 42 41 66 76 76c-74 24 -110 87 -110 151c0 80 60 161 179 161c55 0 108 -21 142 -59c17 19 47 47 73 47c15 0 23 -6 31 -17zM179 22c-59 -16 -81 -59 -81 -114c0 -82 60 -119 134 -119c65 0 129 30 129 115
c0 110 -100 110 -182 118zM215 171c66 0 98 48 98 143c0 96 -30 153 -101 153c-62 0 -92 -52 -92 -144c0 -108 32 -152 95 -152zM240 703l4 -2c-26 -21 -40 -52 -40 -84c0 -6 1 -13 2 -17c5 3 10 4 15 4c22 0 33 -17 33 -35c0 -24 -16 -38 -34 -38c-21 0 -44 19 -44 60
c0 48 25 90 64 112z" />
    <glyph glyph-name="Hcircumflex" unicode="&#x124;" horiz-adv-x="733" 
d="M681 3v-5c-21 1 -53 2 -87 2c-37 0 -65 -1 -87 -2v5c37 6 50 11 50 91v279c-66 1 -132 1 -197 1c-62 0 -123 0 -184 -1v-279c0 -80 13 -85 50 -91v-5c-21 1 -53 2 -87 2c-37 0 -65 -1 -87 -2v5c37 6 50 11 50 91v537c0 80 -13 85 -50 91v5c22 -1 50 -2 87 -2
c34 0 66 1 87 2v-5c-37 -6 -50 -11 -50 -91v-227c61 -1 122 -1 184 -1c65 0 131 0 197 1v227c0 80 -13 85 -50 91v5c22 -1 50 -2 87 -2c34 0 66 1 87 2v-5c-37 -6 -50 -11 -50 -91v-537c0 -80 13 -85 50 -91zM513 780h-27l-120 115l-119 -115h-27l133 167h27z" />
    <glyph glyph-name="hcircumflex" unicode="&#x125;" horiz-adv-x="509" 
d="M486 3v-5c-22 1 -38 2 -75 2s-53 -1 -75 -2v5c30 6 43 11 43 91v218c0 124 -61 148 -122 148c-37 0 -85 -15 -121 -41v-325c0 -80 13 -85 43 -91v-5c-22 1 -38 2 -75 2s-53 -1 -75 -2v5c30 6 43 11 43 91v587c0 36 -1 46 -31 54v5c30 2 69 10 95 22v-322
c45 28 97 40 146 40c67 0 161 -20 161 -163v-223c0 -80 13 -85 43 -91zM250 780h-27l-120 115l-119 -115h-27l133 167h27z" />
    <glyph glyph-name="Hbar" unicode="&#x126;" horiz-adv-x="733" 
d="M681 3v-5c-21 1 -53 2 -87 2c-37 0 -65 -1 -87 -2v5c37 6 50 11 50 91v279c-66 1 -132 1 -197 1c-62 0 -123 0 -184 -1v-279c0 -80 13 -85 50 -91v-5c-21 1 -53 2 -87 2c-37 0 -65 -1 -87 -2v5c37 6 50 11 50 91v435h-49v32c13 0 31 -1 49 -1v71c0 80 -13 85 -50 91v5
c22 -1 50 -2 87 -2c34 0 66 1 87 2v-5c-37 -6 -50 -11 -50 -91v-72h381v72c0 80 -13 85 -50 91v5c22 -1 50 -2 87 -2c34 0 66 1 87 2v-5c-37 -6 -50 -11 -50 -91v-71c13 0 26 1 37 1v-32h-37v-435c0 -80 13 -85 50 -91zM557 404v126h-381v-126c61 -1 122 -1 184 -1
c65 0 131 0 197 1z" />
    <glyph glyph-name="hbar" unicode="&#x127;" horiz-adv-x="509" 
d="M486 3v-5c-22 1 -38 2 -75 2s-53 -1 -75 -2v5c30 6 43 11 43 91v218c0 124 -61 148 -122 148c-37 0 -85 -15 -121 -41v-325c0 -80 13 -85 43 -91v-5c-22 1 -38 2 -75 2s-53 -1 -75 -2v5c30 6 43 11 43 91v505c-20 0 -39 -1 -58 -1v30c19 -1 38 -1 58 -1v54
c0 36 -1 46 -31 54v5c30 2 69 10 95 22v-136h47c56 0 113 1 170 2v-30c-57 1 -114 1 -170 1h-47v-159c45 28 97 40 146 40c67 0 161 -20 161 -163v-223c0 -80 13 -85 43 -91z" />
    <glyph glyph-name="Itilde" unicode="&#x128;" horiz-adv-x="278" 
d="M226 3v-5c-21 1 -53 2 -87 2c-37 0 -65 -1 -87 -2v5c37 6 50 11 50 91v537c0 80 -13 85 -50 91v5c22 -1 50 -2 87 -2c34 0 66 1 87 2v-5c-37 -6 -50 -11 -50 -91v-537c0 -80 13 -85 50 -91zM275 867h9c-5 -32 -30 -87 -89 -87c-50 0 -86 46 -137 46
c-31 0 -41 -11 -53 -46h-10c8 47 40 83 84 83c50 0 88 -46 139 -46c31 0 49 24 57 50z" />
    <glyph glyph-name="itilde" unicode="&#x129;" horiz-adv-x="211" 
d="M182 3v-5c-22 1 -38 2 -75 2s-53 -1 -75 -2v5c30 6 43 11 43 91v300c0 36 -1 46 -31 54v5c30 2 69 10 95 22v-381c0 -80 13 -85 43 -91zM243 617h9c-5 -32 -30 -87 -89 -87c-50 0 -86 46 -137 46c-31 0 -41 -11 -53 -46h-10c8 47 40 83 84 83c50 0 88 -46 139 -46
c31 0 49 24 57 50z" />
    <glyph glyph-name="Imacron" unicode="&#x12a;" horiz-adv-x="278" 
d="M226 3v-5c-21 1 -53 2 -87 2c-37 0 -65 -1 -87 -2v5c37 6 50 11 50 91v537c0 80 -13 85 -50 91v5c22 -1 50 -2 87 -2c34 0 66 1 87 2v-5c-37 -6 -50 -11 -50 -91v-537c0 -80 13 -85 50 -91zM276 830v-30c-46 1 -92 1 -137 1c-46 0 -91 0 -136 -1v30c45 -1 90 -2 136 -2
c45 0 91 1 137 2z" />
    <glyph glyph-name="imacron" unicode="&#x12b;" horiz-adv-x="211" 
d="M182 3v-5c-22 1 -38 2 -75 2s-53 -1 -75 -2v5c30 6 43 11 43 91v300c0 36 -1 46 -31 54v5c30 2 69 10 95 22v-381c0 -80 13 -85 43 -91zM244 580v-30c-46 1 -92 1 -137 1c-46 0 -91 0 -136 -1v30c45 -1 90 -2 136 -2c45 0 91 1 137 2z" />
    <glyph glyph-name="Ibreve" unicode="&#x12c;" horiz-adv-x="278" 
d="M226 3v-5c-21 1 -53 2 -87 2c-37 0 -65 -1 -87 -2v5c37 6 50 11 50 91v537c0 80 -13 85 -50 91v5c22 -1 50 -2 87 -2c34 0 66 1 87 2v-5c-37 -6 -50 -11 -50 -91v-537c0 -80 13 -85 50 -91zM248 913h22c0 -60 -47 -133 -130 -133c-84 0 -131 73 -131 133h22
c11 -61 42 -96 108 -96c70 0 92 35 109 96z" />
    <glyph glyph-name="ibreve" unicode="&#x12d;" horiz-adv-x="211" 
d="M182 3v-5c-22 1 -38 2 -75 2s-53 -1 -75 -2v5c30 6 43 11 43 91v300c0 36 -1 46 -31 54v5c30 2 69 10 95 22v-381c0 -80 13 -85 43 -91zM216 663h22c0 -60 -47 -133 -130 -133c-84 0 -131 73 -131 133h22c11 -61 42 -96 108 -96c70 0 92 35 109 96z" />
    <glyph glyph-name="Iogonek" unicode="&#x12e;" horiz-adv-x="278" 
d="M192 -177l1 -13c-18 -9 -41 -13 -63 -13c-42 0 -82 17 -82 59s43 100 109 144h-18c-37 0 -65 -1 -87 -2v5c37 6 50 11 50 91v537c0 80 -13 85 -50 91v5c22 -1 50 -2 87 -2c34 0 66 1 87 2v-5c-37 -6 -50 -11 -50 -91v-537c0 -80 13 -85 50 -91v-5c-13 1 -30 2 -48 2
c-60 -50 -89 -98 -89 -132c0 -37 25 -50 60 -50c13 0 28 2 43 5z" />
    <glyph glyph-name="iogonek" unicode="&#x12f;" horiz-adv-x="211" 
d="M173 -176l1 -13c-18 -9 -41 -13 -63 -13c-42 0 -82 17 -82 59s43 99 108 143h-30c-37 0 -53 -1 -75 -2v5c30 6 43 11 43 91v300c0 36 -1 46 -31 54v5c30 2 69 10 95 22v-381c0 -80 13 -85 43 -91v-5l-25 2c-58 -50 -87 -97 -87 -131c0 -37 25 -50 60 -50c13 0 28 2 43 5z
M148 588c0 -19 -15 -34 -36 -34c-19 0 -34 15 -34 34c0 21 15 36 34 36c21 0 36 -15 36 -36z" />
    <glyph glyph-name="Idotaccent" unicode="&#x130;" horiz-adv-x="278" 
d="M226 3v-5c-21 1 -53 2 -87 2c-37 0 -65 -1 -87 -2v5c37 6 50 11 50 91v537c0 80 -13 85 -50 91v5c22 -1 50 -2 87 -2c34 0 66 1 87 2v-5c-37 -6 -50 -11 -50 -91v-537c0 -80 13 -85 50 -91zM175 815c0 -18 -17 -35 -36 -35s-35 17 -35 35s16 35 35 35s36 -17 36 -35z" />
    <glyph glyph-name="dotlessi" unicode="&#x131;" horiz-adv-x="212" 
d="M182 3v-5c-22 1 -38 2 -75 2s-53 -1 -75 -2v5c30 6 43 11 43 91v300c0 36 -1 46 -31 54v5c30 2 69 10 95 22v-381c0 -80 13 -85 43 -91z" />
    <glyph glyph-name="IJ" unicode="&#x132;" horiz-adv-x="555" 
d="M226 3v-5c-21 1 -53 2 -87 2c-37 0 -65 -1 -87 -2v5c37 6 50 11 50 91v537c0 80 -13 85 -50 91v5c22 -1 50 -2 87 -2c34 0 66 1 87 2v-5c-37 -6 -50 -11 -50 -91v-537c0 -80 13 -85 50 -91zM299 -199l-1 5c70 13 82 35 82 125v700c0 80 -25 85 -63 91v5
c22 -1 63 -2 100 -2c34 0 75 1 96 2v-5c-38 -8 -59 -11 -59 -91v-613c0 -120 -26 -200 -155 -217z" />
    <glyph glyph-name="ij" unicode="&#x133;" horiz-adv-x="406" 
d="M182 3v-5c-22 1 -38 2 -75 2s-53 -1 -75 -2v5c30 6 43 11 43 91v300c0 36 -1 46 -31 54v5c30 2 69 10 95 22v-381c0 -80 13 -85 43 -91zM148 588c0 -19 -15 -34 -36 -34c-19 0 -34 15 -34 34c0 21 15 36 34 36c21 0 36 -15 36 -36zM202 -224l1 7c71 0 72 59 72 240v371
c0 36 -1 46 -31 54v5c30 2 69 10 95 22v-487c0 -105 -10 -213 -123 -213c-4 0 -8 0 -14 1zM348 588c0 -19 -15 -34 -36 -34c-19 0 -34 15 -34 34c0 21 15 36 34 36c21 0 36 -15 36 -36z" />
    <glyph glyph-name="Jcircumflex" unicode="&#x134;" horiz-adv-x="277" 
d="M21 -199l-1 5c70 13 82 35 82 125v700c0 80 -25 85 -63 91v5c22 -1 63 -2 100 -2c34 0 75 1 96 2v-5c-38 -8 -59 -11 -59 -91v-613c0 -120 -26 -200 -155 -217zM286 780h-27l-120 115l-119 -115h-27l133 167h27z" />
    <glyph glyph-name="jcircumflex" unicode="&#x135;" horiz-adv-x="198" 
d="M-6 -224l1 7c71 0 72 59 72 240v371c0 36 -1 46 -31 54v5c30 2 69 10 95 22v-487c0 -105 -10 -213 -123 -213c-4 0 -8 0 -14 1zM246 530h-27l-120 115l-119 -115h-27l133 167h27z" />
    <glyph glyph-name="Kcommaaccent" unicode="&#x136;" horiz-adv-x="570" 
d="M596 3v-5c-21 1 -57 2 -91 2c-37 0 -66 -1 -88 -2v5c22 2 29 7 29 15c0 13 -20 32 -40 57l-230 279v-260c0 -80 13 -85 50 -91v-5c-21 1 -53 2 -87 2c-37 0 -65 -1 -87 -2v5c37 6 50 11 50 91v537c0 80 -13 85 -50 91v5c22 -1 50 -2 87 -2c34 0 66 1 87 2v-5
c-37 -6 -50 -11 -50 -91v-256l144 160c84 93 128 142 128 167c0 12 -7 18 -29 20v5c22 -1 45 -2 82 -2c34 0 68 1 89 2v-5c-62 -12 -127 -85 -357 -327l272 -322c40 -48 57 -69 91 -70zM290 -225l-4 2c26 21 40 52 40 84c0 6 -1 13 -2 17c-5 -3 -10 -4 -15 -4
c-22 0 -33 17 -33 35c0 24 16 38 34 38c21 0 44 -19 44 -60c0 -48 -25 -90 -64 -112z" />
    <glyph glyph-name="kcommaaccent" unicode="&#x137;" horiz-adv-x="448" 
d="M473 3v-5c-39 1 -68 2 -91 2s-32 -1 -59 -2v5c9 1 18 3 18 8s-3 8 -7 13l-199 224v-154c0 -80 13 -85 43 -91v-5c-22 1 -38 2 -75 2s-53 -1 -75 -2v5c30 6 43 11 43 91v587c0 36 -1 46 -31 54v5c30 2 69 10 95 22v-501c111 104 172 164 172 193c0 10 -5 15 -24 18v5
c23 -1 47 -2 71 -2s47 1 71 2v-6c-50 -10 -70 -28 -238 -184c207 -232 237 -282 286 -284zM227 -225l-4 2c26 21 40 52 40 84c0 6 -1 13 -2 17c-5 -3 -10 -4 -15 -4c-22 0 -33 17 -33 35c0 24 16 38 34 38c21 0 44 -19 44 -60c0 -48 -25 -90 -64 -112z" />
    <glyph glyph-name="kgreenlandic" unicode="&#x138;" horiz-adv-x="456" 
d="M477 3v-5c-39 1 -68 2 -91 2s-32 -1 -59 -2v5c9 1 18 3 18 8s-3 8 -7 13l-199 224v-154c0 -80 13 -85 43 -91v-5c-22 1 -38 2 -75 2s-53 -1 -75 -2v5c30 6 43 11 43 91v305c0 36 -1 46 -31 54v5c30 2 69 10 95 22v-219c111 104 172 164 172 193c0 10 -5 15 -24 18v5
c23 -1 47 -2 71 -2s47 1 71 2v-6c-50 -10 -70 -28 -238 -184c207 -232 237 -282 286 -284z" />
    <glyph glyph-name="Lacute" unicode="&#x139;" horiz-adv-x="470" 
d="M454 129h5c-1 -84 -6 -88 -6 -132c-93 3 -113 3 -206 3c-76 0 -180 -1 -201 -2v5c48 8 57 23 57 91v537c0 80 -13 85 -50 91v5c22 -1 50 -2 87 -2c34 0 66 1 87 2v-5c-37 -6 -50 -11 -50 -91v-595c11 -4 38 -6 85 -6c156 0 177 0 192 99zM290 893l-162 -121l-11 9
l135 152z" />
    <glyph glyph-name="lacute" unicode="&#x13a;" horiz-adv-x="218" 
d="M184 3v-5c-22 1 -38 2 -75 2s-53 -1 -75 -2v5c30 6 43 11 43 91v587c0 36 -1 46 -31 54v5c30 2 69 10 95 22v-668c0 -80 13 -85 43 -91zM236 921l-162 -121l-11 9l135 152z" />
    <glyph glyph-name="Lcommaaccent" unicode="&#x13b;" horiz-adv-x="468" 
d="M453 129h5c-1 -84 -6 -88 -6 -132c-93 3 -113 3 -206 3c-76 0 -180 -1 -201 -2v5c48 8 57 23 57 91v537c0 80 -13 85 -50 91v5c22 -1 50 -2 87 -2c34 0 66 1 87 2v-5c-37 -6 -50 -11 -50 -91v-595c11 -4 38 -6 85 -6c156 0 177 0 192 99zM260 -225l-4 2
c26 21 40 52 40 84c0 6 -1 13 -2 17c-5 -3 -10 -4 -15 -4c-22 0 -33 17 -33 35c0 24 16 38 34 38c21 0 44 -19 44 -60c0 -48 -25 -90 -64 -112z" />
    <glyph glyph-name="lcommaaccent" unicode="&#x13c;" horiz-adv-x="216" 
d="M183 3v-5c-22 1 -38 2 -75 2s-53 -1 -75 -2v5c30 6 43 11 43 91v587c0 36 -1 46 -31 54v5c30 2 69 10 95 22v-668c0 -80 13 -85 43 -91zM83 -225l-4 2c26 21 40 52 40 84c0 6 -1 13 -2 17c-5 -3 -10 -4 -15 -4c-22 0 -33 17 -33 35c0 24 16 38 34 38c21 0 44 -19 44 -60
c0 -48 -25 -90 -64 -112z" />
    <glyph glyph-name="Lcaron" unicode="&#x13d;" horiz-adv-x="470" 
d="M454 129h5c-1 -84 -6 -88 -6 -132c-93 3 -113 3 -206 3c-76 0 -180 -1 -201 -2v5c48 8 57 23 57 91v537c0 80 -13 85 -50 91v5c22 -1 50 -2 87 -2c34 0 66 1 87 2v-5c-37 -6 -50 -11 -50 -91v-595c11 -4 38 -6 85 -6c156 0 177 0 192 99zM308 554l-4 2c26 21 40 52 40 84
c0 6 -1 13 -2 17c-5 -3 -10 -4 -15 -4c-22 0 -33 17 -33 35c0 24 16 38 34 38c21 0 44 -19 44 -60c0 -48 -25 -90 -64 -112z" />
    <glyph glyph-name="lcaron" unicode="&#x13e;" horiz-adv-x="218" 
d="M184 3v-5c-22 1 -38 2 -75 2s-53 -1 -75 -2v5c30 6 43 11 43 91v587c0 36 -1 46 -31 54v5c30 2 69 10 95 22v-668c0 -80 13 -85 43 -91zM200 554l-4 2c26 21 40 52 40 84c0 6 -1 13 -2 17c-5 -3 -10 -4 -15 -4c-22 0 -33 17 -33 35c0 24 16 38 34 38c21 0 44 -19 44 -60
c0 -48 -25 -90 -64 -112z" />
    <glyph glyph-name="Ldot" unicode="&#x13f;" horiz-adv-x="485" 
d="M454 129h5c-1 -84 -6 -88 -6 -132c-93 3 -113 3 -206 3c-76 0 -180 -1 -201 -2v5c48 8 57 23 57 91v537c0 80 -13 85 -50 91v5c22 -1 50 -2 87 -2c34 0 66 1 87 2v-5c-37 -6 -50 -11 -50 -91v-595c11 -4 38 -6 85 -6c156 0 177 0 192 99zM413 362c0 -19 -16 -35 -38 -35
c-19 0 -35 16 -35 35c0 22 16 38 35 38c22 0 38 -16 38 -38z" />
    <glyph glyph-name="ldot" unicode="&#x140;" horiz-adv-x="297" 
d="M184 3v-5c-22 1 -38 2 -75 2s-53 -1 -75 -2v5c30 6 43 11 43 91v587c0 36 -1 46 -31 54v5c30 2 69 10 95 22v-668c0 -80 13 -85 43 -91zM294 301c0 -19 -16 -35 -38 -35c-19 0 -35 16 -35 35c0 22 16 38 35 38c22 0 38 -16 38 -38z" />
    <glyph glyph-name="Lslash" unicode="&#x141;" horiz-adv-x="470" 
d="M454 129h5c-1 -84 -6 -88 -6 -132c-93 3 -113 3 -206 3c-76 0 -180 -1 -201 -2v5c48 8 57 23 57 91v135l-80 -43v30l80 43v372c0 80 -13 85 -50 91v5c22 -1 50 -2 87 -2c34 0 66 1 87 2v-5c-37 -6 -50 -11 -50 -91v-332l123 67v-30l-123 -67v-233c11 -4 38 -6 85 -6
c156 0 177 0 192 99z" />
    <glyph glyph-name="lslash" unicode="&#x142;" horiz-adv-x="220" 
d="M185 3v-5c-22 1 -38 2 -75 2s-53 -1 -75 -2v5c30 6 43 11 43 91v150l-70 -38v30l70 38v407c0 36 -1 46 -31 54v5c30 2 69 10 95 22v-453l70 38v-30l-70 -38v-185c0 -80 13 -85 43 -91z" />
    <glyph glyph-name="Nacute" unicode="&#x143;" horiz-adv-x="814" 
d="M708 -22h-5l-568 632v-90c0 -500 1 -494 69 -517v-5c-22 1 -48 2 -85 2c-34 0 -58 -1 -79 -2v5c64 24 65 18 65 518v221h7l566 -629v89c0 506 -3 498 -69 520v5c22 -1 48 -2 85 -2c34 0 62 1 83 2v-5c-67 -22 -69 -14 -69 -514v-230zM533 893l-162 -121l-11 9l135 152z
" />
    <glyph glyph-name="nacute" unicode="&#x144;" horiz-adv-x="512" 
d="M489 3v-5c-22 1 -38 2 -75 2s-53 -1 -75 -2v5c30 6 43 11 43 91v218c0 124 -61 148 -122 148c-37 0 -85 -15 -121 -41v-325c0 -80 13 -85 43 -91v-5c-22 1 -38 2 -75 2s-53 -1 -75 -2v5c30 6 43 11 43 91v305c0 36 -1 46 -31 54v5c30 2 69 10 95 22v-40
c45 28 97 40 146 40c67 0 161 -20 161 -163v-223c0 -80 13 -85 43 -91zM384 643l-162 -121l-11 9l135 152z" />
    <glyph glyph-name="Ncommaaccent" unicode="&#x145;" horiz-adv-x="813" 
d="M708 -22h-5l-568 632v-90c0 -500 1 -494 69 -517v-5c-22 1 -48 2 -85 2c-34 0 -58 -1 -79 -2v5c64 24 65 18 65 518v221h7l566 -629v89c0 506 -3 498 -69 520v5c22 -1 48 -2 85 -2c34 0 62 1 83 2v-5c-67 -22 -69 -14 -69 -514v-230zM391 -225l-4 2c26 21 40 52 40 84
c0 6 -1 13 -2 17c-5 -3 -10 -4 -15 -4c-22 0 -33 17 -33 35c0 24 16 38 34 38c21 0 44 -19 44 -60c0 -48 -25 -90 -64 -112z" />
    <glyph glyph-name="ncommaaccent" unicode="&#x146;" horiz-adv-x="510" 
d="M487 3v-5c-22 1 -38 2 -75 2s-53 -1 -75 -2v5c30 6 43 11 43 91v218c0 124 -61 148 -122 148c-37 0 -85 -15 -121 -41v-325c0 -80 13 -85 43 -91v-5c-22 1 -38 2 -75 2s-53 -1 -75 -2v5c30 6 43 11 43 91v305c0 36 -1 46 -31 54v5c30 2 69 10 95 22v-40
c45 28 97 40 146 40c67 0 161 -20 161 -163v-223c0 -80 13 -85 43 -91zM240 -225l-4 2c26 21 40 52 40 84c0 6 -1 13 -2 17c-5 -3 -10 -4 -15 -4c-22 0 -33 17 -33 35c0 24 16 38 34 38c21 0 44 -19 44 -60c0 -48 -25 -90 -64 -112z" />
    <glyph glyph-name="Ncaron" unicode="&#x147;" horiz-adv-x="814" 
d="M708 -22h-5l-568 632v-90c0 -500 1 -494 69 -517v-5c-22 1 -48 2 -85 2c-34 0 -58 -1 -79 -2v5c64 24 65 18 65 518v221h7l566 -629v89c0 506 -3 498 -69 520v5c22 -1 48 -2 85 -2c34 0 62 1 83 2v-5c-67 -22 -69 -14 -69 -514v-230zM429 780h-27l-133 167h27l119 -115
l120 115h27z" />
    <glyph glyph-name="ncaron" unicode="&#x148;" horiz-adv-x="512" 
d="M489 3v-5c-22 1 -38 2 -75 2s-53 -1 -75 -2v5c30 6 43 11 43 91v218c0 124 -61 148 -122 148c-37 0 -85 -15 -121 -41v-325c0 -80 13 -85 43 -91v-5c-22 1 -38 2 -75 2s-53 -1 -75 -2v5c30 6 43 11 43 91v305c0 36 -1 46 -31 54v5c30 2 69 10 95 22v-40
c45 28 97 40 146 40c67 0 161 -20 161 -163v-223c0 -80 13 -85 43 -91zM271 530h-27l-133 167h27l119 -115l120 115h27z" />
    <glyph glyph-name="Eng" unicode="&#x14a;" horiz-adv-x="813" 
d="M583 -199l-1 5c70 13 82 61 82 125v90l-529 589v-90c0 -500 1 -494 69 -517v-5c-22 1 -48 2 -85 2c-34 0 -58 -1 -79 -2v5c64 24 65 18 65 518v221h7l566 -629v89c0 506 -3 498 -69 520v5c22 -1 48 -2 85 -2c34 0 62 1 83 2v-5c-67 -22 -69 -14 -69 -514v-190
c0 -120 -20 -200 -125 -217z" />
    <glyph glyph-name="eng" unicode="&#x14b;" horiz-adv-x="506" 
d="M309 -220l1 7c71 0 72 59 72 240v285c0 124 -61 148 -122 148c-37 0 -85 -15 -121 -41v-325c0 -80 13 -85 43 -91v-5c-22 1 -38 2 -75 2s-53 -1 -75 -2v5c30 6 43 11 43 91v305c0 36 -1 46 -31 54v5c30 2 69 10 95 22v-40c45 28 97 40 146 40c67 0 161 -20 161 -163v-325
c0 -105 -10 -213 -123 -213c-4 0 -8 0 -14 1z" />
    <glyph glyph-name="Omacron" unicode="&#x14c;" 
d="M396 -10c-222 0 -358 182 -358 366c0 189 139 376 366 376c196 0 356 -159 356 -373c0 -204 -156 -369 -364 -369zM396 13c151 0 272 109 272 340c0 253 -137 357 -272 357c-133 0 -265 -101 -265 -351c0 -241 119 -346 265 -346zM535 830v-30c-46 1 -92 1 -137 1
c-46 0 -91 0 -136 -1v30c45 -1 90 -2 136 -2c45 0 91 1 137 2z" />
    <glyph glyph-name="omacron" unicode="&#x14d;" horiz-adv-x="547" 
d="M277 -6c-152 0 -244 91 -244 240c0 144 104 246 242 246c139 0 239 -105 239 -246c0 -131 -91 -240 -237 -240zM273 7c135 0 158 121 158 234c0 123 -34 226 -163 226c-132 0 -152 -138 -152 -242c0 -112 29 -218 157 -218zM410 580v-30c-46 1 -92 1 -137 1
c-46 0 -91 0 -136 -1v30c45 -1 90 -2 136 -2c45 0 91 1 137 2z" />
    <glyph glyph-name="Obreve" unicode="&#x14e;" 
d="M396 -10c-222 0 -358 182 -358 366c0 189 139 376 366 376c196 0 356 -159 356 -373c0 -204 -156 -369 -364 -369zM396 13c151 0 272 109 272 340c0 253 -137 357 -272 357c-133 0 -265 -101 -265 -351c0 -241 119 -346 265 -346zM507 913h22c0 -60 -47 -133 -130 -133
c-84 0 -131 73 -131 133h22c11 -61 42 -96 108 -96c70 0 92 35 109 96z" />
    <glyph glyph-name="obreve" unicode="&#x14f;" horiz-adv-x="547" 
d="M277 -6c-152 0 -244 91 -244 240c0 144 104 246 242 246c139 0 239 -105 239 -246c0 -131 -91 -240 -237 -240zM273 7c135 0 158 121 158 234c0 123 -34 226 -163 226c-132 0 -152 -138 -152 -242c0 -112 29 -218 157 -218zM382 663h22c0 -60 -47 -133 -130 -133
c-84 0 -131 73 -131 133h22c11 -61 42 -96 108 -96c70 0 92 35 109 96z" />
    <glyph glyph-name="Ohungarumlaut" unicode="&#x150;" 
d="M396 -10c-222 0 -358 182 -358 366c0 189 139 376 366 376c196 0 356 -159 356 -373c0 -204 -156 -369 -364 -369zM396 13c151 0 272 109 272 340c0 253 -137 357 -272 357c-133 0 -265 -101 -265 -351c0 -241 119 -346 265 -346zM464 893l-162 -121l-11 9l135 152z
M606 893l-162 -121l-11 9l135 152z" />
    <glyph glyph-name="ohungarumlaut" unicode="&#x151;" horiz-adv-x="547" 
d="M277 -6c-152 0 -244 91 -244 240c0 144 104 246 242 246c139 0 239 -105 239 -246c0 -131 -91 -240 -237 -240zM273 7c135 0 158 121 158 234c0 123 -34 226 -163 226c-132 0 -152 -138 -152 -242c0 -112 29 -218 157 -218zM324 643l-162 -121l-11 9l135 152zM466 643
l-162 -121l-11 9l135 152z" />
    <glyph glyph-name="OE" unicode="&#x152;" horiz-adv-x="1059" 
d="M1020 129h5c-1 -84 -6 -88 -6 -132c-93 3 -113 3 -206 3c-76 0 -180 -1 -201 -2v5c48 8 57 23 57 91v18c-66 -75 -162 -122 -273 -122c-222 0 -358 182 -358 366c0 189 139 376 366 376c105 0 200 -46 265 -121v20c0 80 -16 84 -60 91v5c20 -1 56 -2 128 -2
c153 0 233 0 278 2c0 -7 1 -26 1 -42c0 -22 -1 -61 -6 -82h-5c0 89 -31 92 -178 92c-56 0 -69 -2 -84 -6v-298c184 0 194 2 209 77h5c-1 -31 -2 -52 -2 -93c0 -53 1 -68 2 -102h-5c-15 86 -25 88 -209 88v-325c11 -4 38 -6 85 -6c156 0 177 0 192 99zM396 13
c151 0 272 109 272 340c0 253 -137 357 -272 357c-133 0 -265 -101 -265 -351c0 -241 119 -346 265 -346z" />
    <glyph glyph-name="oe" unicode="&#x153;" horiz-adv-x="863" 
d="M832 72l4 -4c-37 -46 -91 -78 -166 -78c-95 0 -160 42 -198 102c-41 -59 -108 -98 -195 -98c-152 0 -244 91 -244 240c0 144 104 246 242 246c84 0 154 -39 196 -101c37 62 100 101 174 101c101 0 184 -72 184 -177h-314c-1 -10 -2 -22 -2 -34c0 -159 83 -246 197 -246
c42 0 80 10 122 49zM273 7c135 0 158 121 158 234c0 123 -34 226 -163 226c-132 0 -152 -138 -152 -242c0 -112 29 -218 157 -218zM517 323h230c-4 91 -42 144 -104 144c-61 0 -111 -57 -126 -144z" />
    <glyph glyph-name="Racute" unicode="&#x154;" horiz-adv-x="552" 
d="M554 3v-6c-9 -1 -13 -1 -25 -1c-103 4 -116 16 -233 238c-12 22 -34 72 -56 91h-64v-231c0 -80 13 -85 50 -91v-5c-21 1 -53 2 -87 2c-37 0 -65 -1 -87 -2v5c37 6 50 11 50 91v537c0 67 -10 85 -48 91v5c34 -2 52 -2 96 -2c30 0 82 2 104 2c152 0 236 -84 236 -200
c0 -84 -56 -165 -174 -192c32 -25 143 -299 238 -332zM176 346h48c144 0 182 73 182 168c0 106 -54 190 -158 190c-23 0 -43 -2 -72 -10v-348zM384 893l-162 -121l-11 9l135 152z" />
    <glyph glyph-name="racute" unicode="&#x155;" horiz-adv-x="313" 
d="M182 3v-5c-22 1 -38 2 -75 2s-53 -1 -75 -2v5c30 6 43 11 43 91v305c0 36 -1 46 -31 54v5c30 2 69 10 95 22v-46c22 19 56 46 100 46c52 0 64 -37 64 -83h-64c0 37 -14 52 -37 52c-16 0 -36 -7 -63 -38v-317c0 -80 13 -85 43 -91zM300 643l-162 -121l-11 9l135 152z" />
    <glyph glyph-name="Rcommaaccent" unicode="&#x156;" horiz-adv-x="552" 
d="M554 3v-6c-9 -1 -13 -1 -25 -1c-103 4 -116 16 -233 238c-12 22 -34 72 -56 91h-64v-231c0 -80 13 -85 50 -91v-5c-21 1 -53 2 -87 2c-37 0 -65 -1 -87 -2v5c37 6 50 11 50 91v537c0 67 -10 85 -48 91v5c34 -2 52 -2 96 -2c30 0 82 2 104 2c152 0 236 -84 236 -200
c0 -84 -56 -165 -174 -192c32 -25 143 -299 238 -332zM176 346h48c144 0 182 73 182 168c0 106 -54 190 -158 190c-23 0 -43 -2 -72 -10v-348zM302 -225l-4 2c26 21 40 52 40 84c0 6 -1 13 -2 17c-5 -3 -10 -4 -15 -4c-22 0 -33 17 -33 35c0 24 16 38 34 38
c21 0 44 -19 44 -60c0 -48 -25 -90 -64 -112z" />
    <glyph glyph-name="rcommaaccent" unicode="&#x157;" horiz-adv-x="310" 
d="M180 3v-5c-22 1 -38 2 -75 2s-53 -1 -75 -2v5c30 6 43 11 43 91v305c0 36 -1 46 -31 54v5c30 2 69 10 95 22v-46c22 19 56 46 100 46c52 0 64 -37 64 -83h-64c0 37 -14 52 -37 52c-16 0 -36 -7 -63 -38v-317c0 -80 13 -85 43 -91zM87 -225l-4 2c26 21 40 52 40 84
c0 6 -1 13 -2 17c-5 -3 -10 -4 -15 -4c-22 0 -33 17 -33 35c0 24 16 38 34 38c21 0 44 -19 44 -60c0 -48 -25 -90 -64 -112z" />
    <glyph glyph-name="Rcaron" unicode="&#x158;" horiz-adv-x="552" 
d="M554 3v-6c-9 -1 -13 -1 -25 -1c-103 4 -116 16 -233 238c-12 22 -34 72 -56 91h-64v-231c0 -80 13 -85 50 -91v-5c-21 1 -53 2 -87 2c-37 0 -65 -1 -87 -2v5c37 6 50 11 50 91v537c0 67 -10 85 -48 91v5c34 -2 52 -2 96 -2c30 0 82 2 104 2c152 0 236 -84 236 -200
c0 -84 -56 -165 -174 -192c32 -25 143 -299 238 -332zM176 346h48c144 0 182 73 182 168c0 106 -54 190 -158 190c-23 0 -43 -2 -72 -10v-348zM270 780h-27l-133 167h27l119 -115l120 115h27z" />
    <glyph glyph-name="rcaron" unicode="&#x159;" horiz-adv-x="313" 
d="M182 3v-5c-22 1 -38 2 -75 2s-53 -1 -75 -2v5c30 6 43 11 43 91v305c0 36 -1 46 -31 54v5c30 2 69 10 95 22v-46c22 19 56 46 100 46c52 0 64 -37 64 -83h-64c0 37 -14 52 -37 52c-16 0 -36 -7 -63 -38v-317c0 -80 13 -85 43 -91zM185 530h-27l-133 167h27l119 -115
l120 115h27z" />
    <glyph glyph-name="Sacute" unicode="&#x15a;" horiz-adv-x="456" 
d="M59 166h5c-1 -9 -2 -17 -2 -25c0 -82 78 -126 157 -126c69 0 136 43 136 135c0 200 -300 195 -300 413c0 108 78 179 185 179c58 0 94 -16 133 -16c6 0 11 0 17 1c-2 -21 -3 -39 -3 -66c0 -15 0 -40 1 -55h-6c-15 78 -67 115 -140 115c-63 0 -122 -34 -122 -113
c0 -191 298 -186 298 -415c0 -125 -91 -203 -208 -203c-67 0 -96 19 -144 19c-6 0 -9 0 -15 -1c1 5 1 17 1 26c0 23 -5 44 -5 69c0 18 3 43 12 63zM339 893l-162 -121l-11 9l135 152z" />
    <glyph glyph-name="sacute" unicode="&#x15b;" horiz-adv-x="361" 
d="M311 365h-5c-10 51 -45 102 -112 102c-49 0 -88 -32 -88 -88c0 -117 220 -96 220 -261c0 -87 -83 -128 -160 -128c-29 0 -77 6 -126 32c6 33 3 79 12 119h5c-1 -6 -1 -13 -1 -19c0 -63 29 -118 110 -118c53 0 92 33 92 96c0 129 -217 105 -217 258c0 85 84 122 157 122
c40 0 87 -9 114 -17c-2 -10 -3 -18 -3 -32c0 -20 1 -34 2 -66zM282 643l-162 -121l-11 9l135 152z" />
    <glyph glyph-name="Scircumflex" unicode="&#x15c;" horiz-adv-x="456" 
d="M59 166h5c-1 -9 -2 -17 -2 -25c0 -82 78 -126 157 -126c69 0 136 43 136 135c0 200 -300 195 -300 413c0 108 78 179 185 179c58 0 94 -16 133 -16c6 0 11 0 17 1c-2 -21 -3 -39 -3 -66c0 -15 0 -40 1 -55h-6c-15 78 -67 115 -140 115c-63 0 -122 -34 -122 -113
c0 -191 298 -186 298 -415c0 -125 -91 -203 -208 -203c-67 0 -96 19 -144 19c-6 0 -9 0 -15 -1c1 5 1 17 1 26c0 23 -5 44 -5 69c0 18 3 43 12 63zM379 780h-27l-120 115l-119 -115h-27l133 167h27z" />
    <glyph glyph-name="scircumflex" unicode="&#x15d;" horiz-adv-x="361" 
d="M311 365h-5c-10 51 -45 102 -112 102c-49 0 -88 -32 -88 -88c0 -117 220 -96 220 -261c0 -87 -83 -128 -160 -128c-29 0 -77 6 -126 32c6 33 3 79 12 119h5c-1 -6 -1 -13 -1 -19c0 -63 29 -118 110 -118c53 0 92 33 92 96c0 129 -217 105 -217 258c0 85 84 122 157 122
c40 0 87 -9 114 -17c-2 -10 -3 -18 -3 -32c0 -20 1 -34 2 -66zM332 530h-27l-120 115l-119 -115h-27l133 167h27z" />
    <glyph glyph-name="Scedilla" unicode="&#x15e;" horiz-adv-x="457" 
d="M168 -145h3c11 -19 33 -28 53 -28c27 0 52 17 52 50c0 25 -18 47 -44 47c-17 0 -30 -7 -42 -18h-2l39 85c-5 -1 -11 -1 -17 -1c-67 0 -96 19 -144 19c-6 0 -9 0 -15 -1c1 5 1 17 1 26c0 23 -5 44 -5 69c0 18 3 43 12 63h5c-1 -9 -2 -17 -2 -25c0 -82 78 -126 157 -126
c69 0 136 43 136 135c0 200 -300 195 -300 413c0 108 78 179 185 179c58 0 94 -16 133 -16c6 0 11 0 17 1c-2 -21 -3 -39 -3 -66c0 -15 0 -40 1 -55h-6c-15 78 -67 115 -140 115c-63 0 -122 -34 -122 -113c0 -191 298 -186 298 -415c0 -113 -75 -188 -176 -201l-18 -49
c9 3 17 4 25 4c36 0 67 -27 67 -69c0 -47 -40 -73 -79 -73c-31 0 -61 16 -69 50z" />
    <glyph glyph-name="scedilla" unicode="&#x15f;" horiz-adv-x="363" 
d="M128 -145h3c11 -19 33 -28 53 -28c27 0 52 17 52 50c0 25 -18 47 -44 47c-17 0 -30 -7 -42 -18h-2l39 85c-7 0 -13 -1 -20 -1c-29 0 -77 6 -126 32c6 33 3 79 12 119h5c-1 -6 -1 -13 -1 -19c0 -63 29 -118 110 -118c53 0 92 33 92 96c0 129 -217 105 -217 258
c0 85 84 122 157 122c40 0 87 -9 114 -17c-2 -10 -3 -18 -3 -32c0 -20 1 -34 2 -66h-5c-10 51 -45 102 -112 102c-49 0 -88 -32 -88 -88c0 -117 220 -96 220 -261c0 -74 -60 -115 -125 -125l-18 -50c9 3 17 4 25 4c36 0 67 -27 67 -69c0 -47 -40 -73 -79 -73
c-31 0 -61 16 -69 50z" />
    <glyph glyph-name="Scaron" unicode="&#x160;" horiz-adv-x="456" 
d="M59 166h5c-1 -9 -2 -17 -2 -25c0 -82 78 -126 157 -126c69 0 136 43 136 135c0 200 -300 195 -300 413c0 108 78 179 185 179c58 0 94 -16 133 -16c6 0 11 0 17 1c-2 -21 -3 -39 -3 -66c0 -15 0 -40 1 -55h-6c-15 78 -67 115 -140 115c-63 0 -122 -34 -122 -113
c0 -191 298 -186 298 -415c0 -125 -91 -203 -208 -203c-67 0 -96 19 -144 19c-6 0 -9 0 -15 -1c1 5 1 17 1 26c0 23 -5 44 -5 69c0 18 3 43 12 63zM236 780h-27l-133 167h27l119 -115l120 115h27z" />
    <glyph glyph-name="scaron" unicode="&#x161;" horiz-adv-x="361" 
d="M311 365h-5c-10 51 -45 102 -112 102c-49 0 -88 -32 -88 -88c0 -117 220 -96 220 -261c0 -87 -83 -128 -160 -128c-29 0 -77 6 -126 32c6 33 3 79 12 119h5c-1 -6 -1 -13 -1 -19c0 -63 29 -118 110 -118c53 0 92 33 92 96c0 129 -217 105 -217 258c0 85 84 122 157 122
c40 0 87 -9 114 -17c-2 -10 -3 -18 -3 -32c0 -20 1 -34 2 -66zM192 530h-27l-133 167h27l119 -115l120 115h27z" />
    <glyph glyph-name="Tcommaaccent" unicode="&#x162;" horiz-adv-x="546" 
d="M365 3v-5c-21 1 -53 2 -87 2c-37 0 -65 -1 -87 -2v5c37 6 50 11 50 91v593c-158 0 -205 0 -235 -64h-5c8 40 22 63 34 127h5c3 -32 27 -33 217 -33c226 0 264 0 293 25h6c-7 -16 -27 -85 -31 -107h-6c1 4 2 10 2 15c0 31 -29 37 -206 37v-593c0 -80 13 -85 50 -91z
M253 -225l-4 2c26 21 40 52 40 84c0 6 -1 13 -2 17c-5 -3 -10 -4 -15 -4c-22 0 -33 17 -33 35c0 24 16 38 34 38c21 0 44 -19 44 -60c0 -48 -25 -90 -64 -112z" />
    <glyph glyph-name="tcommaaccent" unicode="&#x163;" horiz-adv-x="291" 
d="M282 72l5 -3c-22 -54 -64 -79 -115 -79c-53 0 -103 11 -103 119v305c0 42 -8 48 -49 55v5c64 0 106 60 122 132h6c-6 -34 -15 -87 -15 -131h82c48 0 64 0 79 25l6 -6c-15 -24 -30 -39 -41 -71h-8c1 3 2 7 2 11c0 17 -14 21 -48 21h-72v-344c0 -69 20 -93 71 -93
c38 0 61 14 78 54zM151 -225l-4 2c26 21 40 52 40 84c0 6 -1 13 -2 17c-5 -3 -10 -4 -15 -4c-22 0 -33 17 -33 35c0 24 16 38 34 38c21 0 44 -19 44 -60c0 -48 -25 -90 -64 -112z" />
    <glyph glyph-name="Tcaron" unicode="&#x164;" horiz-adv-x="546" 
d="M366 3v-5c-21 1 -53 2 -87 2c-37 0 -65 -1 -87 -2v5c37 6 50 11 50 91v593c-158 0 -205 0 -235 -64h-5c8 40 22 63 34 127h5c3 -32 27 -33 217 -33c226 0 264 0 293 25h6c-7 -16 -27 -85 -31 -107h-6c1 4 2 10 2 15c0 31 -29 37 -206 37v-593c0 -80 13 -85 50 -91z
M292 780h-27l-133 167h27l119 -115l120 115h27z" />
    <glyph glyph-name="tcaron" unicode="&#x165;" horiz-adv-x="292" 
d="M283 72l5 -3c-22 -54 -64 -79 -115 -79c-53 0 -103 11 -103 119v305c0 42 -8 48 -49 55v5c64 0 106 60 122 132h6c-6 -34 -15 -87 -15 -131h82c48 0 64 0 79 25l6 -6c-15 -24 -30 -39 -41 -71h-8c1 3 2 7 2 11c0 17 -14 21 -48 21h-72v-344c0 -69 20 -93 71 -93
c38 0 61 14 78 54zM231 553l-4 2c26 21 40 52 40 84c0 6 -1 13 -2 17c-5 -3 -10 -4 -15 -4c-22 0 -33 17 -33 35c0 24 16 38 34 38c21 0 44 -19 44 -60c0 -48 -25 -90 -64 -112z" />
    <glyph glyph-name="Tbar" unicode="&#x166;" horiz-adv-x="546" 
d="M366 3v-5c-21 1 -53 2 -87 2c-37 0 -65 -1 -87 -2v5c37 6 50 11 50 91v369c-45 0 -88 0 -132 -1v33c44 -1 87 -2 132 -2v194c-158 0 -205 0 -235 -64h-5c8 40 22 63 34 127h5c3 -32 27 -33 217 -33c226 0 264 0 293 25h6c-7 -16 -27 -85 -31 -107h-6c1 4 2 10 2 15
c0 31 -29 37 -206 37v-194c44 0 88 1 133 2v-33c-45 1 -89 1 -133 1v-369c0 -80 13 -85 50 -91z" />
    <glyph glyph-name="tbar" unicode="&#x167;" horiz-adv-x="293" 
d="M284 72l5 -3c-22 -54 -64 -79 -115 -79c-53 0 -103 11 -103 119v218c-20 -1 -39 -1 -58 -1l-1 28c20 0 39 -1 59 -1v61c0 42 -8 48 -49 55v5c64 0 106 60 122 132h6c-6 -34 -15 -87 -15 -131h82c48 0 64 0 79 25l6 -6c-15 -24 -30 -39 -41 -71h-8c1 3 2 7 2 11
c0 17 -14 21 -48 21h-72v-102c33 0 66 0 100 1v-28c-34 0 -67 0 -100 1v-216c0 -69 20 -93 71 -93c38 0 61 14 78 54z" />
    <glyph glyph-name="Utilde" unicode="&#x168;" horiz-adv-x="684" 
d="M560 260v328c0 116 -14 117 -75 133v5c22 -1 54 -2 91 -2c34 0 62 1 83 2v-5c-57 -15 -69 -18 -69 -132v-315c0 -123 -26 -189 -69 -228c-53 -48 -122 -62 -171 -62c-78 0 -139 18 -182 52c-59 46 -80 117 -80 223v372c0 80 -13 85 -50 91v5c22 -1 50 -2 87 -2
c34 0 73 1 94 2v-5c-40 -5 -57 -11 -57 -91v-361c0 -100 12 -165 50 -201c37 -35 81 -53 142 -53c63 0 111 20 143 52c43 42 63 102 63 192zM489 867h9c-5 -32 -30 -87 -89 -87c-50 0 -86 46 -137 46c-31 0 -41 -11 -53 -46h-10c8 47 40 83 84 83c50 0 88 -46 139 -46
c31 0 49 24 57 50z" />
    <glyph glyph-name="utilde" unicode="&#x169;" horiz-adv-x="522" 
d="M503 46l2 -5c-15 -24 -33 -51 -72 -51c-38 0 -56 27 -56 92c-34 -56 -91 -92 -161 -92c-92 0 -151 51 -151 173v236c0 36 -8 47 -49 54v5c30 2 85 7 113 22v-312c0 -107 34 -151 112 -151c61 0 106 29 136 89v293c0 36 -3 47 -44 54v5c30 2 80 7 108 22v-385
c0 -31 0 -66 26 -66c12 0 22 4 36 17zM391 617h9c-5 -32 -30 -87 -89 -87c-50 0 -86 46 -137 46c-31 0 -41 -11 -53 -46h-10c8 47 40 83 84 83c50 0 88 -46 139 -46c31 0 49 24 57 50z" />
    <glyph glyph-name="Umacron" unicode="&#x16a;" horiz-adv-x="684" 
d="M560 260v328c0 116 -14 117 -75 133v5c22 -1 54 -2 91 -2c34 0 62 1 83 2v-5c-57 -15 -69 -18 -69 -132v-315c0 -123 -26 -189 -69 -228c-53 -48 -122 -62 -171 -62c-78 0 -139 18 -182 52c-59 46 -80 117 -80 223v372c0 80 -13 85 -50 91v5c22 -1 50 -2 87 -2
c34 0 73 1 94 2v-5c-40 -5 -57 -11 -57 -91v-361c0 -100 12 -165 50 -201c37 -35 81 -53 142 -53c63 0 111 20 143 52c43 42 63 102 63 192zM488 830v-30c-46 1 -92 1 -137 1c-46 0 -91 0 -136 -1v30c45 -1 90 -2 136 -2c45 0 91 1 137 2z" />
    <glyph glyph-name="umacron" unicode="&#x16b;" horiz-adv-x="522" 
d="M503 46l2 -5c-15 -24 -33 -51 -72 -51c-38 0 -56 27 -56 92c-34 -56 -91 -92 -161 -92c-92 0 -151 51 -151 173v236c0 36 -8 47 -49 54v5c30 2 85 7 113 22v-312c0 -107 34 -151 112 -151c61 0 106 29 136 89v293c0 36 -3 47 -44 54v5c30 2 80 7 108 22v-385
c0 -31 0 -66 26 -66c12 0 22 4 36 17zM382 580v-30c-46 1 -92 1 -137 1c-46 0 -91 0 -136 -1v30c45 -1 90 -2 136 -2c45 0 91 1 137 2z" />
    <glyph glyph-name="Ubreve" unicode="&#x16c;" horiz-adv-x="684" 
d="M560 260v328c0 116 -14 117 -75 133v5c22 -1 54 -2 91 -2c34 0 62 1 83 2v-5c-57 -15 -69 -18 -69 -132v-315c0 -123 -26 -189 -69 -228c-53 -48 -122 -62 -171 -62c-78 0 -139 18 -182 52c-59 46 -80 117 -80 223v372c0 80 -13 85 -50 91v5c22 -1 50 -2 87 -2
c34 0 73 1 94 2v-5c-40 -5 -57 -11 -57 -91v-361c0 -100 12 -165 50 -201c37 -35 81 -53 142 -53c63 0 111 20 143 52c43 42 63 102 63 192zM467 913h22c0 -60 -47 -133 -130 -133c-84 0 -131 73 -131 133h22c11 -61 42 -96 108 -96c70 0 92 35 109 96z" />
    <glyph glyph-name="ubreve" unicode="&#x16d;" horiz-adv-x="522" 
d="M503 46l2 -5c-15 -24 -33 -51 -72 -51c-38 0 -56 27 -56 92c-34 -56 -91 -92 -161 -92c-92 0 -151 51 -151 173v236c0 36 -8 47 -49 54v5c30 2 85 7 113 22v-312c0 -107 34 -151 112 -151c61 0 106 29 136 89v293c0 36 -3 47 -44 54v5c30 2 80 7 108 22v-385
c0 -31 0 -66 26 -66c12 0 22 4 36 17zM354 663h22c0 -60 -47 -133 -130 -133c-84 0 -131 73 -131 133h22c11 -61 42 -96 108 -96c70 0 92 35 109 96z" />
    <glyph glyph-name="Uring" unicode="&#x16e;" horiz-adv-x="684" 
d="M560 260v328c0 116 -14 117 -75 133v5c22 -1 54 -2 91 -2c34 0 62 1 83 2v-5c-57 -15 -69 -18 -69 -132v-315c0 -123 -26 -189 -69 -228c-53 -48 -122 -62 -171 -62c-78 0 -139 18 -182 52c-59 46 -80 117 -80 223v372c0 80 -13 85 -50 91v5c22 -1 50 -2 87 -2
c34 0 73 1 94 2v-5c-40 -5 -57 -11 -57 -91v-361c0 -100 12 -165 50 -201c37 -35 81 -53 142 -53c63 0 111 20 143 52c43 42 63 102 63 192zM442 845c0 -46 -38 -83 -84 -83s-83 37 -83 83s37 83 84 83c45 0 83 -37 83 -83zM415 845c0 30 -25 55 -56 55s-56 -25 -56 -55
s25 -55 55 -55c32 0 57 25 57 55z" />
    <glyph glyph-name="uring" unicode="&#x16f;" horiz-adv-x="522" 
d="M503 46l2 -5c-15 -24 -33 -51 -72 -51c-38 0 -56 27 -56 92c-34 -56 -91 -92 -161 -92c-92 0 -151 51 -151 173v236c0 36 -8 47 -49 54v5c30 2 85 7 113 22v-312c0 -107 34 -151 112 -151c61 0 106 29 136 89v293c0 36 -3 47 -44 54v5c30 2 80 7 108 22v-385
c0 -31 0 -66 26 -66c12 0 22 4 36 17zM330 595c0 -46 -38 -83 -84 -83s-83 37 -83 83s37 83 84 83c45 0 83 -37 83 -83zM303 595c0 30 -25 55 -56 55s-56 -25 -56 -55s25 -55 55 -55c32 0 57 25 57 55z" />
    <glyph glyph-name="Uhungarumlaut" unicode="&#x170;" horiz-adv-x="684" 
d="M560 260v328c0 116 -14 117 -75 133v5c22 -1 54 -2 91 -2c34 0 62 1 83 2v-5c-57 -15 -69 -18 -69 -132v-315c0 -123 -26 -189 -69 -228c-53 -48 -122 -62 -171 -62c-78 0 -139 18 -182 52c-59 46 -80 117 -80 223v372c0 80 -13 85 -50 91v5c22 -1 50 -2 87 -2
c34 0 73 1 94 2v-5c-40 -5 -57 -11 -57 -91v-361c0 -100 12 -165 50 -201c37 -35 81 -53 142 -53c63 0 111 20 143 52c43 42 63 102 63 192zM412 893l-162 -121l-11 9l135 152zM554 893l-162 -121l-11 9l135 152z" />
    <glyph glyph-name="uhungarumlaut" unicode="&#x171;" horiz-adv-x="522" 
d="M503 46l2 -5c-15 -24 -33 -51 -72 -51c-38 0 -56 27 -56 92c-34 -56 -91 -92 -161 -92c-92 0 -151 51 -151 173v236c0 36 -8 47 -49 54v5c30 2 85 7 113 22v-312c0 -107 34 -151 112 -151c61 0 106 29 136 89v293c0 36 -3 47 -44 54v5c30 2 80 7 108 22v-385
c0 -31 0 -66 26 -66c12 0 22 4 36 17zM308 643l-162 -121l-11 9l135 152zM450 643l-162 -121l-11 9l135 152z" />
    <glyph glyph-name="Uogonek" unicode="&#x172;" horiz-adv-x="687" 
d="M493 -161l1 -13c-18 -9 -41 -13 -63 -13c-42 0 -82 17 -82 59c0 36 31 83 82 124c-29 -9 -58 -12 -81 -12c-78 0 -139 18 -182 52c-59 46 -80 117 -80 223v372c0 80 -13 85 -50 91v5c22 -1 50 -2 87 -2c34 0 73 1 94 2v-5c-40 -5 -57 -11 -57 -91v-361
c0 -100 12 -165 50 -201c37 -35 81 -53 142 -53c63 0 111 20 143 52c43 42 63 102 63 192v328c0 116 -14 117 -75 133v5c22 -1 54 -2 91 -2c34 0 62 1 83 2v-5c-57 -15 -69 -18 -69 -132v-315c0 -123 -26 -189 -69 -228c-13 -12 -27 -22 -41 -30c-60 -50 -90 -98 -90 -132
c0 -37 25 -50 60 -50c13 0 28 2 43 5z" />
    <glyph glyph-name="uogonek" unicode="&#x173;" horiz-adv-x="522" 
d="M485 -175l1 -13c-18 -9 -41 -13 -63 -13c-42 0 -82 17 -82 59c0 38 36 90 92 132c-38 0 -56 27 -56 92c-34 -56 -91 -92 -161 -92c-92 0 -151 51 -151 173v236c0 36 -8 47 -49 54v5c30 2 85 7 113 22v-312c0 -107 34 -151 112 -151c61 0 106 29 136 89v293
c0 36 -3 47 -44 54v5c30 2 80 7 108 22v-385c0 -31 0 -66 26 -66c12 0 22 4 36 17l2 -5c-10 -16 -21 -32 -38 -42c-57 -49 -85 -95 -85 -129c0 -37 25 -50 60 -50c13 0 28 2 43 5z" />
    <glyph glyph-name="Wcircumflex" unicode="&#x174;" horiz-adv-x="914" 
d="M601 -22h-6l-136 362l-144 -362h-6l-248 669c-18 48 -30 66 -69 75v5c21 -1 62 -2 96 -2c37 0 67 1 89 2v-5c-33 -4 -44 -16 -44 -38c0 -13 5 -29 12 -49l189 -509l107 263l-97 258c-22 57 -41 66 -80 75v5c21 -1 69 -2 103 -2c37 0 61 1 83 2v-5c-30 -4 -40 -16 -40 -34
c0 -14 6 -32 14 -53l57 -147l19 47c25 61 41 105 41 136c0 29 -15 46 -50 51v5c22 -1 79 -2 116 -2c34 0 45 1 66 2v-5c-50 -10 -73 -26 -142 -200l-32 -81l121 -315l155 409c24 63 37 105 37 134c0 32 -17 48 -55 55v3c22 -1 88 -2 125 -2c34 0 45 1 66 2v-3
c-50 -14 -72 -17 -142 -202zM616 780h-27l-120 115l-119 -115h-27l133 167h27z" />
    <glyph glyph-name="wcircumflex" unicode="&#x175;" horiz-adv-x="734" 
d="M476 -16h-7l-111 323l-140 -323h-7l-165 439c-15 40 -28 43 -54 48v5c14 0 47 -1 83 -1c38 0 72 1 86 1v-5c-30 -4 -45 -9 -45 -27c0 -7 3 -17 7 -29l115 -320l107 248l-27 80c-12 35 -27 40 -64 48v5c42 -2 82 -3 118 -3c40 0 62 2 99 3v-5c-25 -6 -46 -17 -71 -71
l97 -305l116 254c18 39 29 67 29 85c0 22 -15 34 -52 37v5c14 0 37 -1 81 -1c33 0 59 1 73 1v-5c-34 -8 -53 -12 -111 -140zM513 530h-27l-120 115l-119 -115h-27l133 167h27z" />
    <glyph glyph-name="Ycircumflex" unicode="&#x176;" horiz-adv-x="577" 
d="M453 780h-27l-120 115l-119 -115h-27l133 167h27zM375 3v-5c-21 1 -53 2 -87 2c-37 0 -65 -1 -87 -2v5c37 7 50 11 50 91v150l-201 403c-24 47 -34 66 -73 75v5c21 -1 66 -2 100 -2c37 0 67 1 89 2v-5c-32 -4 -45 -14 -45 -32c0 -13 5 -28 19 -55l168 -341l124 241
c53 104 63 120 63 151c0 20 -11 31 -41 36v5c22 -1 36 -2 73 -2c34 0 55 1 76 2v-5c-47 -10 -42 -14 -140 -200l-138 -263v-165c0 -80 13 -84 50 -91z" />
    <glyph glyph-name="ycircumflex" unicode="&#x177;" horiz-adv-x="518" 
d="M231 -221v-5c-14 0 -58 1 -102 1c-33 0 -42 -1 -56 -1v5c45 4 63 14 124 143l40 84l-184 415c-19 42 -36 45 -62 50v5c14 0 55 -1 91 -1c38 0 72 1 86 1v-5c-30 -4 -46 -8 -46 -27c0 -8 2 -17 8 -31l145 -326l124 260c17 37 29 65 29 86c0 22 -14 35 -50 38v5
c14 0 35 -1 79 -1c33 0 57 1 71 1v-5c-36 -7 -51 -17 -109 -140l-192 -409c-26 -55 -36 -87 -36 -107c0 -27 17 -31 40 -36zM423 530h-27l-120 115l-119 -115h-27l133 167h27z" />
    <glyph glyph-name="Ydieresis" unicode="&#x178;" horiz-adv-x="577" 
d="M284 815c0 -18 -17 -35 -36 -35s-35 17 -35 35s16 35 35 35s36 -17 36 -35zM376 780c-19 0 -36 17 -36 35s17 35 36 35c18 0 35 -17 35 -35s-17 -35 -35 -35zM375 3v-5c-21 1 -53 2 -87 2c-37 0 -65 -1 -87 -2v5c37 7 50 11 50 91v150l-201 403c-24 47 -34 66 -73 75v5
c21 -1 66 -2 100 -2c37 0 67 1 89 2v-5c-32 -4 -45 -14 -45 -32c0 -13 5 -28 19 -55l168 -341l124 241c53 104 63 120 63 151c0 20 -11 31 -41 36v5c22 -1 36 -2 73 -2c34 0 55 1 76 2v-5c-47 -10 -42 -14 -140 -200l-138 -263v-165c0 -80 13 -84 50 -91z" />
    <glyph glyph-name="Zacute" unicode="&#x179;" horiz-adv-x="596" 
d="M551 128h5c0 -55 -2 -77 -2 -103c0 -9 0 -17 1 -28c-91 2 -250 3 -400 3h-141v5l461 690h-167c-185 0 -242 0 -261 -106h-5c0 46 5 86 5 138c91 -2 245 -2 395 -2h139v-5l-462 -690h174c185 0 239 1 258 98zM416 893l-162 -121l-11 9l135 152z" />
    <glyph glyph-name="zacute" unicode="&#x17a;" horiz-adv-x="466" 
d="M426 133h5c0 -51 -7 -84 -7 -135c-60 1 -210 2 -309 2h-92v3l325 449h-110c-171 0 -177 0 -196 -101h-5c2 21 3 48 3 71s-1 41 -2 55c20 -1 142 -2 198 -2c71 0 149 0 206 2v-5l-327 -449h153c129 0 150 21 158 110zM344 643l-162 -121l-11 9l135 152z" />
    <glyph glyph-name="Zdotaccent" unicode="&#x17b;" horiz-adv-x="596" 
d="M551 128h5c0 -55 -2 -77 -2 -103c0 -9 0 -17 1 -28c-91 2 -250 3 -400 3h-141v5l461 690h-167c-185 0 -242 0 -261 -106h-5c0 46 5 86 5 138c91 -2 245 -2 395 -2h139v-5l-462 -690h174c185 0 239 1 258 98zM335 815c0 -18 -17 -35 -36 -35s-35 17 -35 35s16 35 35 35
s36 -17 36 -35z" />
    <glyph glyph-name="zdotaccent" unicode="&#x17c;" horiz-adv-x="466" 
d="M426 133h5c0 -51 -7 -84 -7 -135c-60 1 -210 2 -309 2h-92v3l325 449h-110c-171 0 -177 0 -196 -101h-5c2 21 3 48 3 71s-1 41 -2 55c20 -1 142 -2 198 -2c71 0 149 0 206 2v-5l-327 -449h153c129 0 150 21 158 110zM266 565c0 -18 -17 -35 -36 -35s-35 17 -35 35
s16 35 35 35s36 -17 36 -35z" />
    <glyph glyph-name="Zcaron" unicode="&#x17d;" horiz-adv-x="596" 
d="M551 128h5c0 -55 -2 -77 -2 -103c0 -9 0 -17 1 -28c-91 2 -250 3 -400 3h-141v5l461 690h-167c-185 0 -242 0 -261 -106h-5c0 46 5 86 5 138c91 -2 245 -2 395 -2h139v-5l-462 -690h174c185 0 239 1 258 98zM313 780h-27l-133 167h27l119 -115l120 115h27z" />
    <glyph glyph-name="zcaron" unicode="&#x17e;" horiz-adv-x="466" 
d="M426 133h5c0 -51 -7 -84 -7 -135c-60 1 -210 2 -309 2h-92v3l325 449h-110c-171 0 -177 0 -196 -101h-5c2 21 3 48 3 71s-1 41 -2 55c20 -1 142 -2 198 -2c71 0 149 0 206 2v-5l-327 -449h153c129 0 150 21 158 110zM251 530h-27l-133 167h27l119 -115l120 115h27z" />
    <glyph glyph-name="longs" unicode="&#x17f;" horiz-adv-x="208" 
d="M179 3v-5c-22 1 -38 2 -75 2s-53 -1 -75 -2v5c30 6 43 11 43 91v361h-17v3l17 17c0 115 7 197 73 253c27 23 63 39 101 39c24 0 43 -6 55 -15l-42 -54c-15 16 -38 31 -63 31c-59 0 -60 -76 -60 -207v-428c0 -80 13 -85 43 -91z" />
    <glyph glyph-name="florin" unicode="&#x192;" horiz-adv-x="275" 
d="M-60 -192l42 54c15 -16 38 -31 63 -31c59 0 60 76 60 207v325h-60c-16 0 -19 0 -22 -5h-5c0 17 2 35 2 62h4c0 -29 5 -37 41 -37h40v86c0 119 6 202 73 259c27 23 63 39 101 39c24 0 43 -6 55 -15l-42 -54c-15 16 -38 31 -63 31c-59 0 -60 -76 -60 -207v-139h61
c16 0 19 0 22 5h5c0 -17 -2 -35 -2 -62h-4c0 29 -5 37 -41 37h-41v-272c0 -119 -6 -202 -73 -259c-27 -23 -63 -39 -101 -39c-24 0 -43 6 -55 15z" />
    <glyph glyph-name="OI" unicode="&#x1a2;" 
d="M396 -9c-222 0 -358 182 -358 366c0 189 139 376 366 376c196 0 356 -159 356 -373c0 -204 -156 -369 -364 -369zM396 13c151 0 272 109 272 340c0 253 -137 357 -272 357c-133 0 -265 -101 -265 -351c0 -241 119 -346 265 -346zM484 158v-5c-21 1 -53 2 -87 2
c-37 0 -65 -1 -87 -2v5c37 6 50 11 50 91v222c0 80 -13 85 -50 91v5c22 -1 50 -2 87 -2c34 0 66 1 87 2v-5c-37 -6 -50 -11 -50 -91v-222c0 -80 13 -85 50 -91z" />
    <glyph glyph-name="AEacute" unicode="&#x1fc;" horiz-adv-x="882" 
d="M843 129h5c-1 -84 -6 -88 -6 -132c-93 3 -113 3 -206 3c-76 0 -180 -1 -201 -2v5c48 8 57 23 57 91v184h-121c-40 0 -79 0 -118 -1l-111 -162c-34 -50 -41 -60 -41 -83c0 -15 9 -26 34 -29l-1 -5c-22 1 -56 2 -93 2c-34 0 -52 0 -73 -2l1 5c55 12 75 24 154 138l367 530
c-6 42 -23 45 -58 51v5c16 -1 46 -2 128 -2c153 0 233 0 278 2c0 -7 1 -26 1 -42c0 -22 -1 -61 -6 -82h-5c0 89 -31 92 -178 92c-56 0 -69 -2 -84 -6v-298c184 0 194 2 209 77h5c-1 -31 -2 -52 -2 -93c0 -53 1 -68 2 -102h-5c-15 86 -25 88 -209 88v-325c11 -4 38 -6 85 -6
c156 0 177 0 192 99zM492 307v320l-218 -319c32 -1 64 -1 97 -1c40 0 80 -1 121 0zM763 893l-162 -121l-11 9l135 152z" />
    <glyph glyph-name="aeacute" unicode="&#x1fd;" horiz-adv-x="733" 
d="M702 72l4 -4c-37 -46 -91 -78 -166 -78c-94 0 -160 41 -197 100c-66 -77 -132 -100 -187 -100c-85 0 -128 53 -128 110c0 70 62 127 161 127c41 0 86 -11 116 -34c-2 25 -3 50 -3 76c0 32 3 63 3 94c0 63 -24 99 -91 99c-54 0 -113 -40 -116 -126h-51
c14 90 89 144 175 144c58 0 119 -15 139 -78c37 48 91 78 154 78c101 0 184 -72 184 -177h-314c-1 -10 -2 -22 -2 -34c0 -159 83 -246 197 -246c42 0 80 10 122 49zM335 103c-11 21 -22 45 -27 70c-38 32 -67 35 -99 35c-72 0 -109 -52 -109 -102c0 -45 30 -88 91 -88
c44 0 93 20 144 85zM387 323h230c-4 91 -42 144 -104 144c-61 0 -111 -57 -126 -144zM517 643l-162 -121l-11 9l135 152z" />
    <glyph glyph-name="Oslashacute" unicode="&#x1fe;" 
d="M248 -46h-31l28 68c-131 60 -207 196 -207 334c0 189 139 376 366 376c43 0 84 -8 122 -22l24 57h31l-28 -68c122 -58 207 -184 207 -340c0 -204 -156 -369 -364 -369c-46 0 -87 8 -125 21zM257 52l257 628c-37 20 -78 30 -118 30c-133 0 -265 -101 -265 -351
c0 -158 50 -257 126 -307zM539 665l-257 -627c35 -17 73 -25 114 -25c151 0 272 109 272 340c0 159 -55 260 -129 312zM485 893l-162 -121l-11 9l135 152z" />
    <glyph glyph-name="oslashacute" unicode="&#x1ff;" horiz-adv-x="547" 
d="M171 -55h-31l28 68c-86 34 -135 112 -135 221c0 144 104 246 242 246c28 0 55 -5 79 -13l22 54h31l-26 -64c81 -39 133 -122 133 -223c0 -131 -91 -240 -237 -240c-30 0 -57 4 -82 10zM177 36l170 413c-21 11 -47 18 -79 18c-132 0 -152 -138 -152 -242
c0 -76 13 -149 61 -189zM371 433l-169 -412c19 -9 42 -14 71 -14c135 0 158 121 158 234c0 80 -14 152 -60 192zM398 643l-162 -121l-11 9l135 152z" />
    <glyph glyph-name="dotlessj" unicode="&#x237;" horiz-adv-x="197" 
d="M-6 -224l1 7c71 0 72 59 72 240v371c0 36 -1 46 -31 54v5c30 2 69 10 95 22v-487c0 -105 -10 -213 -123 -213c-4 0 -8 0 -14 1z" />
    <glyph glyph-name="circumflex" unicode="&#x2c6;" horiz-adv-x="393" 
d="M343 530h-27l-120 115l-119 -115h-27l133 167h27z" />
    <glyph glyph-name="caron" unicode="&#x2c7;" horiz-adv-x="393" 
d="M210 530h-27l-133 167h27l119 -115l120 115h27z" />
    <glyph glyph-name="breve" unicode="&#x2d8;" horiz-adv-x="361" 
d="M289 663h22c0 -60 -47 -133 -130 -133c-84 0 -131 73 -131 133h22c11 -61 42 -96 108 -96c70 0 92 35 109 96z" />
    <glyph glyph-name="dotaccent" unicode="&#x2d9;" horiz-adv-x="171" 
d="M121 565c0 -18 -17 -35 -36 -35s-35 17 -35 35s16 35 35 35s36 -17 36 -35z" />
    <glyph glyph-name="ring" unicode="&#x2da;" horiz-adv-x="267" 
d="M217 595c0 -46 -38 -83 -84 -83s-83 37 -83 83s37 83 84 83c45 0 83 -37 83 -83zM190 595c0 30 -25 55 -56 55s-56 -25 -56 -55s25 -55 55 -55c32 0 57 25 57 55z" />
    <glyph glyph-name="ogonek" unicode="&#x2db;" horiz-adv-x="333" 
d="M254 -181l1 -13c-18 -9 -41 -13 -63 -13c-42 0 -82 17 -82 59c0 43 46 103 115 148h20c-63 -52 -94 -101 -94 -136c0 -37 25 -50 60 -50c13 0 28 2 43 5z" />
    <glyph glyph-name="tilde" unicode="&#x2dc;" horiz-adv-x="389" 
d="M330 617h9c-5 -32 -30 -87 -89 -87c-50 0 -86 46 -137 46c-31 0 -41 -11 -53 -46h-10c8 47 40 83 84 83c50 0 88 -46 139 -46c31 0 49 24 57 50z" />
    <glyph glyph-name="hungarumlaut" unicode="&#x2dd;" horiz-adv-x="333" 
d="M273 643l-162 -121l-11 9l135 152zM415 643l-162 -121l-11 9l135 152z" />
    <glyph glyph-name="uni1E02" unicode="&#x1e02;" horiz-adv-x="535" 
d="M46 -2v5c37 6 57 11 57 91v537c0 80 -17 85 -55 91v5c22 -1 53 -2 80 -2c55 0 82 2 118 2c139 0 198 -82 198 -164c0 -69 -38 -132 -138 -158c130 -17 193 -113 193 -208c0 -111 -71 -200 -206 -200c-56 0 -99 3 -153 3c-37 0 -72 -1 -94 -2zM202 380h-25v-348
c27 -5 52 -8 76 -8c99 0 165 48 165 176c0 107 -58 180 -216 180zM177 698v-294c108 0 192 35 192 153c0 96 -64 149 -140 149c-17 0 -34 -2 -52 -8zM275 815c0 -18 -17 -35 -36 -35s-35 17 -35 35s16 35 35 35s36 -17 36 -35z" />
    <glyph glyph-name="uni1E03" unicode="&#x1e03;" horiz-adv-x="509" 
d="M44 27v3c23 13 23 29 23 138v513c0 36 -3 47 -44 54v5c30 2 80 7 108 22v-329c40 32 84 47 128 47c148 0 218 -111 218 -228c0 -128 -84 -262 -226 -262c-81 0 -109 39 -168 39c-13 0 -25 0 -39 -2zM131 412v-265c0 -98 45 -134 117 -134c106 0 145 100 145 219
c0 124 -42 226 -148 226c-34 0 -71 -7 -114 -46zM322 605c0 -18 -17 -35 -36 -35s-35 17 -35 35s16 35 35 35s36 -17 36 -35z" />
    <glyph glyph-name="uni1E0A" unicode="&#x1e0a;" horiz-adv-x="779" 
d="M43 -2v5c51 8 71 10 71 91v537c0 80 -27 83 -70 91v5c22 -1 68 -2 95 -2c63 0 107 1 158 1c274 0 443 -136 443 -369c0 -195 -121 -360 -386 -360c-52 0 -143 3 -203 3c-37 0 -86 -1 -108 -2zM188 691v-656c50 -9 117 -14 165 -14c170 0 303 76 303 342
c0 244 -155 339 -353 339c-38 0 -77 -2 -115 -11zM406 815c0 -18 -17 -35 -36 -35s-35 17 -35 35s16 35 35 35s36 -17 36 -35z" />
    <glyph glyph-name="uni1E0B" unicode="&#x1e0b;" horiz-adv-x="526" 
d="M521 36l3 -5c-16 -23 -38 -41 -77 -41c-42 0 -58 19 -64 57c-43 -47 -99 -57 -137 -57c-139 0 -214 114 -214 232c0 149 111 258 237 258c36 0 74 -10 111 -33v234c0 36 -3 47 -44 54v5c30 2 80 7 108 22v-628c0 -96 5 -114 34 -114c18 0 35 10 43 16zM380 105v285
c-21 44 -70 70 -118 70c-75 0 -144 -64 -144 -228c0 -119 59 -208 165 -208c33 0 97 16 97 81zM249 605c0 -18 -17 -35 -36 -35s-35 17 -35 35s16 35 35 35s36 -17 36 -35z" />
    <glyph glyph-name="uni1E1E" unicode="&#x1e1e;" horiz-adv-x="468" 
d="M232 3v-5c-21 1 -59 2 -93 2c-37 0 -65 -1 -87 -2v5c37 6 50 11 50 91v537c0 80 -16 84 -60 91v5c20 -1 56 -2 128 -2c153 0 233 0 278 2c0 -7 1 -26 1 -42c0 -22 -1 -61 -6 -82h-5c0 89 -31 92 -178 92c-56 0 -69 -2 -84 -6v-293c183 0 196 0 206 89h5
c-1 -31 -2 -64 -2 -105c0 -53 1 -60 2 -94h-5c-10 78 -24 80 -206 80v-272c0 -80 17 -85 56 -91zM311 815c0 -18 -17 -35 -36 -35s-35 17 -35 35s16 35 35 35s36 -17 36 -35z" />
    <glyph glyph-name="uni1E1F" unicode="&#x1e1f;" horiz-adv-x="234" 
d="M179 3v-5c-22 1 -38 2 -75 2s-53 -1 -75 -2v5c30 6 43 11 43 91v361h-17v3l17 17c0 115 7 197 73 253c27 23 63 39 101 39c24 0 43 -6 55 -15l-42 -54c-15 16 -38 31 -63 31c-59 0 -60 -76 -60 -207v-47h61c16 0 19 0 22 5h5c0 -17 -2 -35 -2 -62h-4c0 29 -5 37 -41 37
h-41v-361c0 -80 13 -85 43 -91zM228 843c0 -18 -17 -35 -36 -35s-35 17 -35 35s16 35 35 35s36 -17 36 -35z" />
    <glyph glyph-name="uni1E40" unicode="&#x1e40;" horiz-adv-x="876" 
d="M870 3v-5c-21 1 -53 2 -87 2c-37 0 -77 -1 -99 -2v5c42 5 51 14 51 35c0 10 -4 29 -8 52l-82 475l-222 -557h-5l-230 554l-74 -427c-5 -28 -8 -51 -8 -70c0 -36 12 -54 51 -62v-5c-22 1 -62 2 -99 2c-34 0 -45 -1 -66 -2v5c53 14 70 49 87 143l111 596h5l245 -599
l243 599h5l120 -664c9 -51 20 -65 62 -75zM467 697c0 -18 -17 -35 -36 -35s-35 17 -35 35s16 35 35 35s36 -17 36 -35z" />
    <glyph glyph-name="uni1E41" unicode="&#x1e41;" horiz-adv-x="800" 
d="M777 3v-5c-22 1 -38 2 -75 2s-53 -1 -75 -2v5c30 6 43 11 43 91v203c0 137 -59 163 -110 163c-34 0 -81 -9 -144 -53c12 -25 18 -58 18 -100v-213c0 -80 13 -85 43 -91v-5c-22 1 -38 2 -75 2s-53 -1 -75 -2v5c30 6 43 11 43 91v208c0 137 -59 158 -110 158
c-37 0 -82 -12 -121 -39v-327c0 -80 13 -85 43 -91v-5c-22 1 -38 2 -75 2s-53 -1 -75 -2v5c30 6 43 11 43 91v305c0 36 -1 46 -31 54v5c30 2 69 10 95 22v-40c45 28 97 40 146 40c53 0 98 -15 124 -60c67 47 129 60 176 60c84 0 149 -42 149 -178v-208c0 -80 13 -85 43 -91z
M437 565c0 -18 -17 -35 -36 -35s-35 17 -35 35s16 35 35 35s36 -17 36 -35z" />
    <glyph glyph-name="uni1E56" unicode="&#x1e56;" horiz-adv-x="504" 
d="M226 3v-5c-21 1 -53 2 -87 2c-37 0 -65 -1 -87 -2v5c37 6 50 11 50 91v537c0 80 -17 85 -55 91v5c22 -1 53 -2 80 -2c55 0 80 2 118 2c173 0 243 -87 243 -197c0 -100 -71 -200 -202 -200c-28 0 -59 7 -79 23l4 8c18 -10 42 -14 61 -14c91 0 134 72 134 166
c0 116 -58 191 -160 191c-22 0 -47 -3 -70 -10v-600c0 -80 13 -85 50 -91zM293 815c0 -18 -17 -35 -36 -35s-35 17 -35 35s16 35 35 35s36 -17 36 -35z" />
    <glyph glyph-name="uni1E57" unicode="&#x1e57;" horiz-adv-x="543" 
d="M178 -222v-5c-22 1 -38 2 -75 2s-53 -1 -75 -2v5c30 6 43 11 43 91v530c0 36 -3 47 -44 54v5c30 2 80 7 108 22v-48c58 40 109 48 149 48c139 0 226 -114 226 -248c0 -151 -117 -238 -239 -238c-54 0 -97 15 -136 41v-166c0 -80 13 -85 43 -91zM135 406v-346
c25 -23 68 -45 126 -45c68 0 164 38 164 216c0 119 -66 224 -172 224c-34 0 -72 -8 -118 -49zM308 565c0 -18 -17 -35 -36 -35s-35 17 -35 35s16 35 35 35s36 -17 36 -35z" />
    <glyph glyph-name="uni1E60" unicode="&#x1e60;" horiz-adv-x="456" 
d="M59 166h5c-1 -9 -2 -17 -2 -25c0 -82 78 -126 157 -126c69 0 136 43 136 135c0 200 -300 195 -300 413c0 108 78 179 185 179c58 0 94 -16 133 -16c6 0 11 0 17 1c-2 -21 -3 -39 -3 -66c0 -15 0 -40 1 -55h-6c-15 78 -67 115 -140 115c-63 0 -122 -34 -122 -113
c0 -191 298 -186 298 -415c0 -125 -91 -203 -208 -203c-67 0 -96 19 -144 19c-6 0 -9 0 -15 -1c1 5 1 17 1 26c0 23 -5 44 -5 69c0 18 3 43 12 63zM273 815c0 -18 -17 -35 -36 -35s-35 17 -35 35s16 35 35 35s36 -17 36 -35z" />
    <glyph glyph-name="uni1E61" unicode="&#x1e61;" horiz-adv-x="361" 
d="M311 365h-5c-10 51 -45 102 -112 102c-49 0 -88 -32 -88 -88c0 -117 220 -96 220 -261c0 -87 -83 -128 -160 -128c-29 0 -77 6 -126 32c6 33 3 79 12 119h5c-1 -6 -1 -13 -1 -19c0 -63 29 -118 110 -118c53 0 92 33 92 96c0 129 -217 105 -217 258c0 85 84 122 157 122
c40 0 87 -9 114 -17c-2 -10 -3 -18 -3 -32c0 -20 1 -34 2 -66zM221 565c0 -18 -17 -35 -36 -35s-35 17 -35 35s16 35 35 35s36 -17 36 -35z" />
    <glyph glyph-name="uni1E6A" unicode="&#x1e6a;" horiz-adv-x="546" 
d="M366 3v-5c-21 1 -53 2 -87 2c-37 0 -65 -1 -87 -2v5c37 6 50 11 50 91v593c-158 0 -205 0 -235 -64h-5c8 40 22 63 34 127h5c3 -32 27 -33 217 -33c226 0 264 0 293 25h6c-7 -16 -27 -85 -31 -107h-6c1 4 2 10 2 15c0 31 -29 37 -206 37v-593c0 -80 13 -85 50 -91z
M314 815c0 -18 -17 -35 -36 -35s-35 17 -35 35s16 35 35 35s36 -17 36 -35z" />
    <glyph glyph-name="uni1E6B" unicode="&#x1e6b;" horiz-adv-x="292" 
d="M283 72l5 -3c-22 -54 -64 -79 -115 -79c-53 0 -103 11 -103 119v305c0 42 -8 48 -49 55v5c64 0 106 60 122 132h6c-6 -34 -15 -87 -15 -131h82c48 0 64 0 79 25l6 -6c-15 -24 -30 -39 -41 -71h-8c1 3 2 7 2 11c0 17 -14 21 -48 21h-72v-344c0 -69 20 -93 71 -93
c38 0 61 14 78 54zM173 669c0 -18 -17 -35 -36 -35s-35 17 -35 35s16 35 35 35s36 -17 36 -35z" />
    <glyph glyph-name="Wgrave" unicode="&#x1e80;" horiz-adv-x="914" 
d="M601 -22h-6l-136 362l-144 -362h-6l-248 669c-18 48 -30 66 -69 75v5c21 -1 62 -2 96 -2c37 0 67 1 89 2v-5c-33 -4 -44 -16 -44 -38c0 -13 5 -29 12 -49l189 -509l107 263l-97 258c-22 57 -41 66 -80 75v5c21 -1 69 -2 103 -2c37 0 61 1 83 2v-5c-30 -4 -40 -16 -40 -34
c0 -14 6 -32 14 -53l57 -147l19 47c25 61 41 105 41 136c0 29 -15 46 -50 51v5c22 -1 79 -2 116 -2c34 0 45 1 66 2v-5c-50 -10 -73 -26 -142 -200l-32 -81l121 -315l155 409c24 63 37 105 37 134c0 32 -17 48 -55 55v3c22 -1 88 -2 125 -2c34 0 45 1 66 2v-3
c-50 -14 -72 -17 -142 -202zM516 780l-11 -9l-162 121l38 40z" />
    <glyph glyph-name="wgrave" unicode="&#x1e81;" horiz-adv-x="734" 
d="M476 -16h-7l-111 323l-140 -323h-7l-165 439c-15 40 -28 43 -54 48v5c14 0 47 -1 83 -1c38 0 72 1 86 1v-5c-30 -4 -45 -9 -45 -27c0 -7 3 -17 7 -29l115 -320l107 248l-27 80c-12 35 -27 40 -64 48v5c42 -2 82 -3 118 -3c40 0 62 2 99 3v-5c-25 -6 -46 -17 -71 -71
l97 -305l116 254c18 39 29 67 29 85c0 22 -15 34 -52 37v5c14 0 37 -1 81 -1c33 0 59 1 73 1v-5c-34 -8 -53 -12 -111 -140zM407 530l-11 -9l-162 121l38 40z" />
    <glyph glyph-name="Wacute" unicode="&#x1e82;" horiz-adv-x="914" 
d="M601 -22h-6l-136 362l-144 -362h-6l-248 669c-18 48 -30 66 -69 75v5c21 -1 62 -2 96 -2c37 0 67 1 89 2v-5c-33 -4 -44 -16 -44 -38c0 -13 5 -29 12 -49l189 -509l107 263l-97 258c-22 57 -41 66 -80 75v5c21 -1 69 -2 103 -2c37 0 61 1 83 2v-5c-30 -4 -40 -16 -40 -34
c0 -14 6 -32 14 -53l57 -147l19 47c25 61 41 105 41 136c0 29 -15 46 -50 51v5c22 -1 79 -2 116 -2c34 0 45 1 66 2v-5c-50 -10 -73 -26 -142 -200l-32 -81l121 -315l155 409c24 63 37 105 37 134c0 32 -17 48 -55 55v3c22 -1 88 -2 125 -2c34 0 45 1 66 2v-3
c-50 -14 -72 -17 -142 -202zM596 893l-162 -121l-11 9l135 152z" />
    <glyph glyph-name="wacute" unicode="&#x1e83;" horiz-adv-x="734" 
d="M476 -16h-7l-111 323l-140 -323h-7l-165 439c-15 40 -28 43 -54 48v5c14 0 47 -1 83 -1c38 0 72 1 86 1v-5c-30 -4 -45 -9 -45 -27c0 -7 3 -17 7 -29l115 -320l107 248l-27 80c-12 35 -27 40 -64 48v5c42 -2 82 -3 118 -3c40 0 62 2 99 3v-5c-25 -6 -46 -17 -71 -71
l97 -305l116 254c18 39 29 67 29 85c0 22 -15 34 -52 37v5c14 0 37 -1 81 -1c33 0 59 1 73 1v-5c-34 -8 -53 -12 -111 -140zM493 643l-162 -121l-11 9l135 152z" />
    <glyph glyph-name="Wdieresis" unicode="&#x1e84;" horiz-adv-x="914" 
d="M601 -22h-6l-136 362l-144 -362h-6l-248 669c-18 48 -30 66 -69 75v5c21 -1 62 -2 96 -2c37 0 67 1 89 2v-5c-33 -4 -44 -16 -44 -38c0 -13 5 -29 12 -49l189 -509l107 263l-97 258c-22 57 -41 66 -80 75v5c21 -1 69 -2 103 -2c37 0 61 1 83 2v-5c-30 -4 -40 -16 -40 -34
c0 -14 6 -32 14 -53l57 -147l19 47c25 61 41 105 41 136c0 29 -15 46 -50 51v5c22 -1 79 -2 116 -2c34 0 45 1 66 2v-5c-50 -10 -73 -26 -142 -200l-32 -81l121 -315l155 409c24 63 37 105 37 134c0 32 -17 48 -55 55v3c22 -1 88 -2 125 -2c34 0 45 1 66 2v-3
c-50 -14 -72 -17 -142 -202zM445 815c0 -18 -17 -35 -36 -35s-35 17 -35 35s16 35 35 35s36 -17 36 -35zM537 780c-19 0 -36 17 -36 35s17 35 36 35c18 0 35 -17 35 -35s-17 -35 -35 -35z" />
    <glyph glyph-name="wdieresis" unicode="&#x1e85;" horiz-adv-x="734" 
d="M476 -16h-7l-111 323l-140 -323h-7l-165 439c-15 40 -28 43 -54 48v5c14 0 47 -1 83 -1c38 0 72 1 86 1v-5c-30 -4 -45 -9 -45 -27c0 -7 3 -17 7 -29l115 -320l107 248l-27 80c-12 35 -27 40 -64 48v5c42 -2 82 -3 118 -3c40 0 62 2 99 3v-5c-25 -6 -46 -17 -71 -71
l97 -305l116 254c18 39 29 67 29 85c0 22 -15 34 -52 37v5c14 0 37 -1 81 -1c33 0 59 1 73 1v-5c-34 -8 -53 -12 -111 -140zM330 565c0 -18 -17 -35 -36 -35s-35 17 -35 35s16 35 35 35s36 -17 36 -35zM422 530c-19 0 -36 17 -36 35s17 35 36 35c18 0 35 -17 35 -35
s-17 -35 -35 -35z" />
    <glyph glyph-name="Ygrave" unicode="&#x1ef2;" horiz-adv-x="577" 
d="M345 780l-11 -9l-162 121l38 40zM375 3v-5c-21 1 -53 2 -87 2c-37 0 -65 -1 -87 -2v5c37 7 50 11 50 91v150l-201 403c-24 47 -34 66 -73 75v5c21 -1 66 -2 100 -2c37 0 67 1 89 2v-5c-32 -4 -45 -14 -45 -32c0 -13 5 -28 19 -55l168 -341l124 241c53 104 63 120 63 151
c0 20 -11 31 -41 36v5c22 -1 36 -2 73 -2c34 0 55 1 76 2v-5c-47 -10 -42 -14 -140 -200l-138 -263v-165c0 -80 13 -84 50 -91z" />
    <glyph glyph-name="ygrave" unicode="&#x1ef3;" horiz-adv-x="518" 
d="M231 -221v-5c-14 0 -58 1 -102 1c-33 0 -42 -1 -56 -1v5c45 4 63 14 124 143l40 84l-184 415c-19 42 -36 45 -62 50v5c14 0 55 -1 91 -1c38 0 72 1 86 1v-5c-30 -4 -46 -8 -46 -27c0 -8 2 -17 8 -31l145 -326l124 260c17 37 29 65 29 86c0 22 -14 35 -50 38v5
c14 0 35 -1 79 -1c33 0 57 1 71 1v-5c-36 -7 -51 -17 -109 -140l-192 -409c-26 -55 -36 -87 -36 -107c0 -27 17 -31 40 -36zM310 530l-11 -9l-162 121l38 40z" />
    <glyph glyph-name="endash" unicode="&#x2013;" horiz-adv-x="421" 
d="M364 316v-30c-51 1 -103 1 -154 1s-102 0 -153 -1v30c51 -1 102 -2 153 -2s103 1 154 2z" />
    <glyph glyph-name="emdash" unicode="&#x2014;" horiz-adv-x="645" 
d="M588 316v-30c-89 1 -178 1 -266 1c-89 0 -177 0 -265 -1v30c88 -1 176 -2 265 -2c88 0 177 1 266 2z" />
    <glyph glyph-name="quoteleft" unicode="&#x2018;" horiz-adv-x="143" 
d="M98 732l4 -2c-26 -21 -40 -52 -40 -84c0 -6 1 -13 2 -17c5 3 10 4 15 4c22 0 33 -17 33 -35c0 -24 -16 -38 -34 -38c-21 0 -44 19 -44 60c0 48 25 90 64 112z" />
    <glyph glyph-name="quoteright" unicode="&#x2019;" horiz-adv-x="143" 
d="M48 554l-4 2c26 21 40 52 40 84c0 6 -1 13 -2 17c-5 -3 -10 -4 -15 -4c-22 0 -33 17 -33 35c0 24 16 38 34 38c21 0 44 -19 44 -60c0 -48 -25 -90 -64 -112z" />
    <glyph glyph-name="quotesinglbase" unicode="&#x201a;" horiz-adv-x="178" 
d="M64 -83l-4 2c26 21 40 52 40 84c0 6 -1 13 -2 17c-5 -3 -10 -4 -15 -4c-22 0 -33 17 -33 35c0 24 16 38 34 38c21 0 44 -19 44 -60c0 -48 -25 -90 -64 -112z" />
    <glyph glyph-name="quotedblleft" unicode="&#x201c;" horiz-adv-x="261" 
d="M216 732l4 -2c-26 -21 -40 -52 -40 -84c0 -6 1 -13 2 -17c5 3 10 4 15 4c22 0 33 -17 33 -35c0 -24 -16 -38 -34 -38c-21 0 -44 19 -44 60c0 48 25 90 64 112zM98 732l4 -2c-26 -21 -40 -52 -40 -84c0 -6 1 -13 2 -17c5 3 10 4 15 4c22 0 33 -17 33 -35
c0 -24 -16 -38 -34 -38c-21 0 -44 19 -44 60c0 48 25 90 64 112z" />
    <glyph glyph-name="quotedblright" unicode="&#x201d;" horiz-adv-x="261" 
d="M48 554l-4 2c26 21 40 52 40 84c0 6 -1 13 -2 17c-5 -3 -10 -4 -15 -4c-22 0 -33 17 -33 35c0 24 16 38 34 38c21 0 44 -19 44 -60c0 -48 -25 -90 -64 -112zM166 554l-4 2c26 21 40 52 40 84c0 6 -1 13 -2 17c-5 -3 -10 -4 -15 -4c-22 0 -33 17 -33 35c0 24 16 38 34 38
c21 0 44 -19 44 -60c0 -48 -25 -90 -64 -112z" />
    <glyph glyph-name="quotedblbase" unicode="&#x201e;" horiz-adv-x="296" 
d="M64 -83l-4 2c26 21 40 52 40 84c0 6 -1 13 -2 17c-5 -3 -10 -4 -15 -4c-22 0 -33 17 -33 35c0 24 16 38 34 38c21 0 44 -19 44 -60c0 -48 -25 -90 -64 -112zM182 -83l-4 2c26 21 40 52 40 84c0 6 -1 13 -2 17c-5 -3 -10 -4 -15 -4c-22 0 -33 17 -33 35c0 24 16 38 34 38
c21 0 44 -19 44 -60c0 -48 -25 -90 -64 -112z" />
    <glyph glyph-name="dagger" unicode="&#x2020;" horiz-adv-x="441" 
d="M239 -105h-40c1 89 1 344 1 432v189c-76 0 -131 0 -165 -1v35c35 -1 88 -2 165 -2c0 88 -1 169 -1 214h40c-1 -44 -1 -128 -2 -214c78 0 133 1 169 2v-35c-36 1 -92 1 -169 1v-189c0 -88 1 -343 2 -432z" />
    <glyph glyph-name="daggerdbl" unicode="&#x2021;" horiz-adv-x="447" 
d="M242 -105h-40c1 86 1 320 1 416c-76 0 -131 0 -165 -1v35c35 -1 88 -2 165 -2v173c-76 0 -131 0 -165 -1v35c35 -1 88 -2 165 -2c0 88 -1 169 -1 214h40c-1 -44 -1 -128 -2 -214c78 0 133 1 169 2v-35c-36 1 -92 1 -169 1v-173c78 0 133 1 169 2v-35c-36 1 -92 1 -169 1
c0 -97 1 -330 2 -416z" />
    <glyph glyph-name="bullet" unicode="&#x2022;" horiz-adv-x="284" 
d="M240 363c0 -51 -43 -94 -103 -94c-51 0 -94 43 -94 94c0 60 43 103 94 103c60 0 103 -43 103 -103z" />
    <glyph glyph-name="ellipsis" unicode="&#x2026;" horiz-adv-x="525" 
d="M124 31c0 -19 -16 -35 -38 -35c-19 0 -35 16 -35 35c0 22 16 38 35 38c22 0 38 -16 38 -38zM299 31c0 -19 -16 -35 -38 -35c-19 0 -35 16 -35 35c0 22 16 38 35 38c22 0 38 -16 38 -38zM474 31c0 -19 -16 -35 -38 -35c-19 0 -35 16 -35 35c0 22 16 38 35 38
c22 0 38 -16 38 -38z" />
    <glyph glyph-name="perthousand" unicode="&#x2030;" horiz-adv-x="1298" 
d="M1079 -10c-118 0 -190 70 -190 186c0 113 81 193 188 193c109 0 187 -82 187 -193c0 -101 -71 -186 -185 -186zM1076 -1c106 0 123 95 123 183c0 96 -26 177 -127 177c-103 0 -119 -108 -119 -190c0 -86 23 -170 123 -170zM206 0h-31l491 767h31zM227 383
c-118 0 -190 70 -190 186c0 113 81 193 188 193c109 0 187 -82 187 -193c0 -101 -71 -186 -185 -186zM224 392c106 0 123 95 123 183c0 96 -26 177 -127 177c-103 0 -119 -108 -119 -190c0 -86 23 -170 123 -170zM647 -10c-118 0 -190 70 -190 186c0 113 81 193 188 193
c109 0 187 -82 187 -193c0 -101 -71 -186 -185 -186zM644 -1c106 0 123 95 123 183c0 96 -26 177 -127 177c-103 0 -119 -108 -119 -190c0 -86 23 -170 123 -170z" />
    <glyph glyph-name="guilsinglleft" unicode="&#x2039;" horiz-adv-x="250" 
d="M194 92l-167 133v27l167 133v-27l-115 -119l115 -120v-27z" />
    <glyph glyph-name="guilsinglright" unicode="&#x203a;" horiz-adv-x="250" 
d="M223 225l-167 -133v27l115 120l-115 119v27l167 -133v-27z" />
    <glyph glyph-name="fraction" unicode="&#x2044;" horiz-adv-x="464" 
d="M12 0h-31l491 767h31z" />
    <glyph glyph-name="Euro" unicode="&#x20ac;" horiz-adv-x="801" 
d="M738 161h5c-5 -36 -6 -71 -6 -107c-91 -45 -174 -64 -250 -64c-221 0 -351 135 -383 292h-68v23h64c-3 18 -4 36 -4 54c0 20 2 41 5 61h-65v23h69c33 153 156 289 371 289c103 0 194 -30 261 -49c-2 -26 -3 -65 -3 -95c0 -17 1 -31 1 -38h-5c-10 106 -116 160 -250 160
c-137 0 -258 -83 -287 -267h471v-23h-474c-2 -21 -3 -42 -3 -65c0 -18 1 -34 3 -50h474v-23h-471c30 -189 178 -268 310 -268c97 0 205 45 235 147z" />
    <glyph glyph-name="trademark" unicode="&#x2122;" horiz-adv-x="766" 
d="M229 406v-6c-10 0 -30 1 -45 1c-18 0 -36 -1 -46 -1v6c17 3 23 5 23 43v259c-68 0 -88 0 -102 -30h-6l15 69h6c1 -15 11 -15 100 -15c105 0 121 1 134 12l6 -2l-14 -60l-6 2c0 24 -2 24 -88 24v-259c0 -38 6 -40 23 -43zM711 406v-6c-10 0 -30 1 -45 1
c-18 0 -41 -1 -52 -1v6c20 3 24 5 24 13c0 4 -2 13 -4 24l-38 196l-96 -234h-6l-95 232l-35 -173c-2 -13 -4 -24 -4 -33c0 -17 6 -21 24 -25v-6c-10 0 -34 1 -51 1c-16 0 -26 -1 -36 -1v6c25 7 33 19 41 63l51 277h4l108 -259l117 259h5l59 -309c4 -24 9 -26 29 -31z" />
    <glyph glyph-name="Delta" unicode="&#x2206;" horiz-adv-x="565" 
d="M543 -1h-286c-88 0 -174 1 -235 0v7l277 736h10l234 -738v-5zM453 33l-178 570l-210 -569c59 -5 134 -5 194 -5c62 0 131 0 194 4z" />
    <glyph glyph-name="product" unicode="&#x220f;" horiz-adv-x="733" 
d="M681 3v-5c-21 1 -53 2 -87 2c-37 0 -65 -1 -87 -2v5c37 6 50 11 50 91v517c0 20 -1 47 -6 80c-64 5 -128 5 -191 5c-60 0 -122 0 -181 -5c-3 -31 -3 -61 -3 -80v-517c0 -80 13 -85 50 -91v-5c-21 1 -53 2 -87 2c-37 0 -65 -1 -87 -2v5c37 6 50 11 50 91v537
c0 80 -13 85 -50 91v5c97 -2 194 -2 308 -2c106 0 213 0 321 2v-5c-37 -6 -50 -11 -50 -91v-537c0 -80 13 -85 50 -91z" />
    <glyph glyph-name="minus" unicode="&#x2212;" horiz-adv-x="503" 
d="M437 317v-30c-39 1 -98 1 -186 1c-89 0 -147 0 -185 -1v30c38 -1 96 -2 185 -2c88 0 147 1 186 2z" />
    <glyph glyph-name="integral" unicode="&#x222b;" horiz-adv-x="275" 
d="M-60 -192l42 54c15 -16 38 -31 63 -31c59 0 60 76 60 207v431c0 119 6 202 73 259c27 23 63 39 101 39c24 0 43 -6 55 -15l-42 -54c-15 16 -38 31 -63 31c-59 0 -60 -76 -60 -207v-431c0 -119 -6 -202 -73 -259c-27 -23 -63 -39 -101 -39c-24 0 -43 6 -55 15z" />
    <glyph glyph-name="approxequal" unicode="&#x2248;" horiz-adv-x="504" 
d="M438 395v-34c-30 -15 -54 -26 -89 -26c-68 0 -142 32 -199 32c-30 0 -57 -11 -83 -24v36c29 12 56 22 87 22c63 0 136 -32 201 -32c32 0 55 11 83 26zM438 267v-34c-31 -15 -58 -25 -92 -25c-69 0 -139 32 -196 32c-30 0 -57 -12 -83 -26v37c29 12 55 22 87 22
c59 0 136 -32 195 -32c33 0 60 12 89 26z" />
    <glyph glyph-name="notequal" unicode="&#x2260;" horiz-adv-x="496" 
d="M433 251v-30c-39 1 -98 1 -186 1h-18l-43 -104h-31l42 104c-57 0 -106 0 -135 -1v30c32 -1 80 -2 146 -2l43 103h-4c-89 0 -147 0 -185 -1v30c38 -1 96 -2 185 -2h15l43 104h31l-43 -104c62 0 108 1 140 2v-30c-33 1 -85 1 -151 1l-42 -103h7c88 0 147 1 186 2z" />
    <glyph glyph-name="lessequal" unicode="&#x2264;" horiz-adv-x="465" 
d="M390 136l-333 202v24l333 204v-24l-287 -193l287 -189v-24zM385 64v-29c-39 1 -87 1 -162 1c-76 0 -124 0 -161 -1v29c37 -1 85 -1 161 -1c75 0 123 0 162 1z" />
    <glyph glyph-name="greaterequal" unicode="&#x2265;" horiz-adv-x="465" 
d="M403 64v-29c-37 1 -85 1 -161 1c-75 0 -123 0 -162 -1v29c39 -1 87 -1 162 -1c76 0 124 0 161 1zM408 338l-333 -202v24l287 189l-287 193v24l333 -204v-24z" />
    <glyph glyph-name="LL" unicode="&#xf6bf;" horiz-adv-x="810" 
d="M794 129h5c-1 -84 -6 -88 -6 -132c-132 3 -264 3 -407 3c-113 0 -226 0 -340 -2v5c48 8 57 23 57 91v537c0 80 -13 85 -50 91v5c22 -1 50 -2 87 -2c34 0 66 1 87 2v-5c-37 -6 -50 -11 -50 -91v-595c11 -4 38 -6 85 -6c154 0 181 2 181 68v533c0 80 -13 85 -50 91v5
c22 -1 50 -2 87 -2c34 0 66 1 87 2v-5c-37 -6 -50 -11 -50 -91v-595c11 -4 38 -6 85 -6c156 0 177 0 192 99z" />
    <glyph glyph-name="commaaccent" unicode="&#xf6c3;" horiz-adv-x="158" 
d="M54 -225l-4 2c26 21 40 52 40 84c0 6 -1 13 -2 17c-5 -3 -10 -4 -15 -4c-22 0 -33 17 -33 35c0 24 16 38 34 38c21 0 44 -19 44 -60c0 -48 -25 -90 -64 -112z" />
    <glyph glyph-name="apple" unicode="&#xf8ff;" horiz-adv-x="1995" 
d="M869 -94h-10c20 16 35 36 35 62c0 20 -4 50 -40 58c3 -17 6 -38 6 -73c0 -77 -80 -109 -145 -109c-44 0 -93 27 -93 75c0 49 46 59 64 59c7 0 13 0 18 -1c11 22 32 43 63 56v3c-4 11 -4 25 -4 33c-15 -32 -40 -57 -77 -57c-36 0 -62 44 -62 99s49 133 49 175
c0 24 -4 32 -12 32c-23 0 -44 -34 -46 -42c0 -36 -21 -60 -48 -74c0 -134 -57 -198 -161 -198c-56 0 -112 24 -112 91c0 37 24 77 60 77c26 0 35 -22 35 -41c0 -36 -20 -75 -57 -75c-7 0 -15 5 -23 7c6 -22 29 -40 47 -40c63 0 88 97 107 179c-21 9 -38 24 -49 44
c-8 -3 -15 -5 -20 -5c-54 0 -78 29 -78 82c0 81 66 162 152 162c88 0 104 -35 139 -35c7 0 15 1 22 2v-5c-49 -12 -99 -48 -128 -88c-5 35 -32 58 -70 58c-55 0 -104 -55 -104 -110c0 -39 22 -58 64 -58c5 0 13 1 19 4c-5 11 -7 24 -7 39c0 40 27 67 45 67
c16 0 24 -14 24 -28c0 -31 -25 -64 -51 -80c9 -19 26 -31 44 -39c12 50 28 102 65 147c12 15 60 61 97 66v-8c-53 -25 -65 -96 -65 -152c0 -15 1 -33 3 -52c26 13 44 35 44 64c0 20 -6 42 -16 52v2c11 -6 19 -26 21 -42c9 18 32 45 68 45c45 0 66 -50 66 -104
c0 -36 -49 -119 -49 -173c0 -14 4 -23 13 -23c57 0 80 205 103 297c11 -5 23 -11 36 -11c21 0 33 13 48 22c-15 -71 -49 -197 -49 -270v-11l1 -19c30 -7 51 -32 51 -70c0 -28 -15 -51 -33 -66zM1935 117l-157 -30l10 -56l-97 78c-22 -51 -53 -99 -90 -137c18 -6 38 -9 58 -9
c55 0 83 20 101 57h4c-8 -45 -58 -71 -100 -71c-26 0 -50 5 -73 14c-50 -50 -108 -83 -158 -83c-47 0 -81 36 -81 133c-2 -1 -4 -1 -8 -1c-54 0 -106 49 -106 152c0 58 88 170 177 170c28 0 55 -20 55 -73c0 -68 -81 -116 -141 -122c-9 -50 -13 -91 -13 -92
c0 -16 12 -24 28 -24c2 0 5 0 8 1v1c0 50 38 135 93 135c14 0 19 -15 19 -28c0 -47 -54 -112 -103 -118c0 -86 34 -121 79 -121c41 0 92 30 137 75c-51 24 -88 71 -88 134c0 43 27 94 74 104v-5c-45 -13 -66 -59 -66 -103c0 -54 38 -98 89 -120c35 39 67 88 84 142l-126 38
l55 22l-73 150l59 -18l-13 88l57 -64l34 49l34 -108l47 149l23 -39l87 51v-98h53l-114 -113l113 32l-18 -59l85 -9l-82 -39zM1104 -14v-5c-13 0 -31 -9 -31 -25c0 -19 15 -30 31 -30c58 0 98 75 98 125c0 18 -6 35 -15 49c-21 -45 -53 -88 -97 -88c-33 0 -43 30 -43 58
c0 57 41 82 62 86c8 54 16 128 16 153c0 3 -4 11 -13 11c-13 0 -47 -25 -47 -87c0 -45 -65 -357 -71 -374c-11 6 -22 11 -36 11c-20 0 -33 -13 -46 -22c9 52 80 414 80 453c0 99 -110 42 -110 247c0 78 51 165 51 245c0 14 -2 24 -10 24c-15 0 -47 -33 -67 -84
c-5 -42 -38 -210 -42 -226c-11 6 -22 12 -36 12c-20 0 -30 -4 -43 -13c9 53 46 251 46 290c0 10 -2 19 -10 19c-17 0 -30 -30 -41 -58h-11c11 34 26 72 71 72c41 0 59 -28 65 -62c18 24 37 64 76 64c46 0 69 -66 69 -127c0 -107 -55 -176 -55 -260c0 -118 100 -60 115 -163
c27 45 43 53 65 53c55 0 83 -95 83 -139c0 -24 -6 -55 -18 -85c12 -18 21 -40 21 -64c0 -58 -37 -129 -103 -129c-24 0 -44 15 -44 39c0 16 15 31 31 31c3 0 6 0 9 -1zM230 350h-6l4 5c14 0 47 15 47 40c0 2 0 4 -1 7c-18 -7 -36 -9 -54 -9c-27 0 -95 10 -95 47
c0 25 39 33 58 33c30 0 81 -23 98 -53c27 12 50 33 50 64c0 17 -4 30 -12 40c-23 -15 -49 -23 -78 -23c-85 0 -151 64 -151 171c0 16 6 36 15 60c-26 17 -37 47 -37 80c0 66 48 143 112 143c6 0 13 -1 18 -2v-7c-4 1 -9 1 -13 1c-61 0 -108 -71 -108 -133
c0 -29 10 -55 33 -70c46 105 163 253 230 253c38 0 44 -44 44 -75c0 -83 -85 -164 -164 -194c0 -1 -1 -2 -1 -4c-13 -51 -31 -119 -31 -162c0 -47 46 -52 51 -52c25 0 48 9 69 25c-14 10 -32 13 -48 13c-14 0 -36 -5 -39 -8v5c8 6 28 12 36 12c21 0 42 -6 58 -16
c35 30 58 79 58 126c0 27 -6 62 -39 62c-52 0 -85 -57 -85 -104c0 -13 5 -41 25 -41c30 0 44 46 44 72c0 4 -2 11 -3 17h8c3 -6 3 -15 3 -17c0 -32 -22 -81 -52 -81c-28 0 -33 31 -33 53c0 46 35 110 90 110c40 0 64 -41 64 -88c0 -46 -26 -92 -67 -121
c11 -11 17 -27 17 -47c0 -39 -27 -63 -60 -77c1 -2 1 -3 1 -6c0 -28 -31 -49 -56 -49zM1634 629h12c-5 -20 -30 -119 -85 -119c-29 0 -61 20 -70 68c-31 -60 -49 -70 -72 -70c-56 0 -79 92 -79 141c0 64 91 182 147 182c16 0 26 -9 33 -27c15 75 30 144 32 152
c11 -6 23 -11 36 -11c21 0 33 13 48 22c-9 -52 -76 -384 -76 -424c0 -9 2 -18 10 -18c27 0 55 71 64 104zM1315 583h11c-9 -34 -25 -74 -64 -74c-30 0 -57 20 -66 67c-31 -58 -49 -68 -72 -68c-56 0 -79 92 -79 141c0 64 91 182 147 182c17 0 28 -10 36 -32l7 28
c11 -5 22 -11 37 -11c19 0 33 13 46 22c-9 -51 -53 -256 -53 -295c0 -11 2 -18 9 -18c17 0 30 29 41 58zM1935 583h11c-9 -34 -24 -74 -64 -74c-30 0 -57 20 -66 67c-31 -58 -48 -68 -71 -68c-56 0 -80 92 -80 141c0 64 92 182 148 182c16 0 27 -10 35 -32l8 28
c11 -5 22 -11 36 -11c20 0 33 13 46 22c-9 -51 -53 -256 -53 -295c0 -11 3 -18 9 -18c18 0 30 29 41 58zM689 583h10c-8 -34 -25 -74 -64 -74c-29 0 -57 20 -66 67c-30 -58 -48 -68 -72 -68c-55 0 -78 92 -78 141c0 64 91 182 148 182c15 0 26 -10 34 -32l7 28
c11 -5 23 -11 37 -11c21 0 33 13 47 22c-9 -51 -54 -256 -54 -295c0 -11 2 -18 10 -18c18 0 30 29 41 58zM460 -111h-5c-24 0 -79 14 -79 52c0 22 17 30 37 30c33 0 68 -26 68 -57c0 -3 -1 -8 -2 -11c39 9 84 38 84 93c0 16 -1 24 -6 41h4c3 -5 8 -25 8 -41
c0 -55 -44 -96 -95 -105c-14 -26 -52 -38 -79 -38c-42 0 -107 19 -107 68c0 20 13 39 37 39c4 0 9 0 16 -2c-63 56 -117 79 -200 79c-33 0 -68 -4 -119 -11c45 16 75 23 102 33c66 24 127 92 127 143c0 65 -50 99 -110 99c-39 0 -99 -5 -99 -56c0 -24 32 -38 59 -38
c28 0 51 20 73 38v-10c-14 -20 -44 -44 -73 -44c-36 0 -70 21 -70 54c0 56 61 67 104 67c82 0 128 -46 128 -115c0 -61 -77 -121 -99 -136l20 -5c71 -15 121 -38 172 -107h-2v-2c-9 2 -16 5 -23 5c-26 0 -35 -16 -35 -31c0 -44 66 -61 99 -61c25 0 52 12 65 29zM697 -42
c-6 1 -12 1 -17 1c-28 0 -46 -16 -46 -44c0 -40 40 -62 79 -62c34 0 83 25 83 68c0 31 -19 72 -27 100c-24 -8 -45 -23 -56 -47c28 -10 41 -37 41 -50c0 -10 -8 -27 -28 -27c-18 0 -31 23 -31 41c0 7 0 14 2 20zM1513 769c-2 40 -11 51 -20 51c-27 0 -33 -52 -37 -72
c-6 -31 -34 -178 -34 -213c0 -5 0 -12 9 -12c38 0 50 57 82 246zM1814 622c2 33 14 90 24 136c0 48 -9 62 -20 62c-27 0 -33 -52 -36 -72c-6 -31 -34 -177 -34 -213c0 -5 0 -12 9 -12c20 0 40 28 57 99zM1194 622c2 33 14 90 24 136c0 48 -9 62 -20 62
c-28 0 -32 -52 -36 -72c-6 -31 -34 -177 -34 -213c0 -5 0 -12 8 -12c20 0 41 28 58 99zM567 622c3 33 14 90 25 136c0 48 -10 62 -20 62c-20 0 -34 -53 -36 -72c-7 -31 -34 -177 -34 -213c0 -5 0 -12 8 -12c19 0 40 28 57 99zM287 916c-1 -4 -46 -118 -64 -175
c74 33 136 125 136 214c0 14 -3 27 -19 27c-17 0 -28 -13 -53 -66zM1641 534h2c-9 -64 -60 -94 -105 -101c-1 -38 -45 -74 -98 -74c-37 0 -88 15 -88 68c0 27 27 60 58 61v-4c-23 -4 -47 -24 -47 -49c0 -48 40 -57 79 -57c38 0 85 10 88 55c-3 -1 -5 -1 -8 -1
c-33 0 -60 15 -60 38c0 12 15 22 25 22c23 0 44 -22 50 -45c45 5 92 41 104 87zM1331 150c57 8 89 105 89 149c0 16 -3 24 -11 24c-36 0 -63 -94 -78 -173zM1297 488l11 -5c-10 -50 -68 -92 -130 -92h-12c-12 -13 -32 -18 -53 -18c-43 0 -88 19 -109 59l1 1
c26 -29 59 -55 105 -55c18 0 35 5 47 15c-45 7 -141 37 -141 114c0 11 2 28 11 38l5 -5c-3 -10 -6 -20 -6 -30c0 -69 88 -97 143 -102c3 6 4 12 4 19c0 34 -32 60 -69 60c-14 0 -30 -3 -44 -11l-4 1c12 13 30 17 46 17c38 0 78 -26 78 -66c0 -8 -1 -14 -3 -20h4
c48 0 105 23 116 80zM1360 28v-3c35 0 92 65 92 110c0 8 -1 16 -10 16c-44 0 -82 -77 -82 -123zM270 416c-16 28 -59 49 -87 49c-14 0 -44 -3 -44 -25c0 -29 47 -34 74 -34c18 0 38 3 57 10zM871 348l-6 1v3c-7 42 -37 54 -52 54c-26 0 -52 -32 -110 -32
c-26 0 -37 14 -37 28c0 26 30 35 48 35l64 -7c15 0 35 6 35 25c0 22 -21 33 -41 33c-14 0 -32 -6 -32 -19c0 -10 8 -15 18 -15c8 0 16 3 23 7l2 -8c-6 -3 -15 -6 -24 -6c-14 0 -27 7 -27 21c0 17 25 27 41 27c26 0 48 -14 48 -38c0 -25 -26 -33 -42 -33l-65 7
c-15 0 -42 -7 -42 -29c0 -15 18 -20 29 -20c35 0 77 36 104 36c39 0 66 -30 66 -70zM1108 144c-32 -3 -54 -44 -54 -80c0 -13 5 -38 26 -38c19 0 23 82 28 118zM471 -84c0 27 -31 47 -54 47c-17 0 -30 -9 -30 -28c0 -27 41 -36 63 -36c14 0 21 2 21 17zM418 259
c23 15 46 45 46 70c0 11 -3 22 -16 22c-29 0 -35 -41 -35 -61c0 -12 1 -23 5 -31zM1525 447h4c-4 19 -18 36 -38 36c-9 0 -17 -2 -17 -14c0 -18 25 -22 51 -22zM708 -45c-1 -5 -1 -10 -1 -14c0 -15 6 -33 17 -33c13 0 16 7 16 13c0 16 -15 27 -32 34z" />
    <glyph glyph-name=".null" horiz-adv-x="0" 
 />
    <glyph glyph-name="zero.alt" horiz-adv-x="624" 
d="M311 -10c-119 0 -262 100 -262 364c0 188 90 378 263 378s263 -190 263 -378c0 -264 -143 -364 -264 -364zM311 13c114 0 170 113 170 353c0 236 -55 343 -170 343c-113 0 -168 -107 -168 -343c0 -240 56 -353 168 -353zM312 255h-2c-3 66 -33 99 -91 104v2
c58 5 88 38 91 104h2c3 -66 33 -100 91 -104v-2c-58 -4 -88 -38 -91 -104z" />
    <glyph glyph-name="A.alt" horiz-adv-x="582" 
d="M578 3v-5c-21 1 -53 2 -87 2c-37 0 -67 -1 -89 -2v5c33 2 44 16 44 35c0 14 -6 32 -12 52l-34 109c-54 1 -108 1 -162 1c-38 0 -75 0 -113 -1l-31 -84c-9 -25 -17 -49 -17 -68c0 -23 12 -40 46 -44v-5c-22 1 -56 2 -93 2c-34 0 -47 -1 -68 -2v5c51 12 67 24 110 138
l226 601h10l210 -664c20 -63 22 -70 60 -75zM362 319l-88 284l-104 -283c31 -1 62 -1 94 -1h98zM390 230l-19 60h-107c-36 0 -70 0 -106 -1l-22 -59c34 -1 68 -1 102 -1c51 0 101 0 152 1z" />
    <glyph glyph-name="B.alt" horiz-adv-x="535" 
d="M46 -2v5c37 6 57 11 57 91v537c0 80 -17 85 -55 91v5c22 -1 53 -2 80 -2c55 0 82 2 118 2c139 0 198 -82 198 -164c0 -69 -38 -134 -138 -163c130 -14 193 -108 193 -203c0 -111 -71 -200 -206 -200c-56 0 -99 3 -153 3c-37 0 -72 -1 -94 -2zM203 391v3
c96 5 166 54 166 163c0 96 -64 149 -140 149c-17 0 -34 -2 -52 -8v-666c27 -5 52 -8 76 -8c99 0 165 48 165 176c0 107 -58 191 -215 191z" />
    <glyph glyph-name="C.alt" horiz-adv-x="724" 
d="M680 0h-5c-2 20 -5 36 -10 48c-86 -41 -165 -58 -237 -58c-256 0 -391 182 -391 373c0 187 135 369 391 369c72 0 151 -17 237 -58c5 12 8 28 10 48h5c-1 -21 -2 -44 -2 -70c0 -30 1 -60 6 -91h-5c-30 102 -138 147 -235 147c-148 0 -316 -102 -316 -347
c0 -250 168 -347 316 -347c97 0 205 45 235 147h5c-5 -31 -6 -61 -6 -91c0 -26 1 -49 2 -70z" />
    <glyph glyph-name="D.alt" horiz-adv-x="719" 
d="M43 -2v5c51 8 71 10 71 91v537c0 80 -27 83 -70 91v5c22 -1 68 -2 95 -2c63 0 107 1 158 1c244 0 383 -156 383 -359c0 -205 -121 -370 -386 -370c-52 0 -103 3 -143 3c-37 0 -86 -1 -108 -2zM188 691v-656c40 -9 67 -14 105 -14c170 0 303 76 303 352
c0 214 -125 329 -293 329c-38 0 -77 -2 -115 -11z" />
    <glyph glyph-name="E.alt" horiz-adv-x="493" 
d="M454 129h5c-1 -84 -6 -88 -6 -132c-93 3 -113 3 -206 3c-76 0 -180 -1 -201 -2v5c48 8 57 23 57 91v537c0 80 -16 84 -60 91v5c20 -1 56 -2 128 -2c153 0 233 0 278 2c0 -7 1 -26 1 -42c0 -22 -1 -61 -6 -82h-5c0 89 -31 92 -178 92c-56 0 -69 -2 -84 -6v-653
c11 -4 38 -6 85 -6c156 0 177 0 192 99zM312 271h-2c-3 66 -33 99 -91 104v2c58 5 88 38 91 104h2c3 -66 33 -100 91 -104v-2c-58 -4 -88 -38 -91 -104z" />
    <glyph glyph-name="F.alt" horiz-adv-x="468" 
d="M232 3v-5c-21 1 -59 2 -93 2c-37 0 -65 -1 -87 -2v5c37 6 50 11 50 91v537c0 80 -16 84 -60 91v5c20 -1 56 -2 128 -2c153 0 233 0 278 2c0 -7 1 -26 1 -42c0 -22 -1 -61 -6 -82h-5c0 89 -31 92 -178 92c-56 0 -69 -2 -84 -6v-595c0 -80 17 -85 56 -91zM311 276h-2
c-3 66 -33 99 -91 104v2c58 5 88 38 91 104h2c3 -66 33 -100 91 -104v-2c-58 -4 -88 -38 -91 -104z" />
    <glyph glyph-name="G.alt" horiz-adv-x="743" 
d="M693 41v-3c-11 3 -23 5 -40 5c-74 0 -114 -53 -245 -53c-256 0 -371 182 -371 369c0 196 136 373 380 373c79 0 153 -13 241 -55c5 12 8 28 10 48h5c-3 -46 -3 -92 -3 -145c0 -9 0 -18 1 -30h-5c-11 112 -117 160 -245 160c-138 0 -296 -94 -296 -347
c0 -210 114 -351 286 -351c114 0 185 40 185 127v112c0 84 -20 85 -57 91v5c22 -1 57 -2 94 -2c34 0 60 1 81 2v-5c-36 -7 -44 -13 -44 -91v-72c0 -106 0 -128 23 -138z" />
    <glyph glyph-name="H.alt" horiz-adv-x="733" 
d="M681 3v-5c-21 1 -53 2 -87 2c-37 0 -65 -1 -87 -2v5c37 6 50 11 50 91v216c-66 1 -132 1 -197 1c-62 0 -123 0 -184 -1v-216c0 -80 13 -85 50 -91v-5c-21 1 -53 2 -87 2c-37 0 -65 -1 -87 -2v5c37 6 50 11 50 91v537c0 80 -13 85 -50 91v5c22 -1 50 -2 87 -2
c34 0 66 1 87 2v-5c-37 -6 -50 -11 -50 -91v-200c61 -1 122 -1 184 -1c65 0 131 0 197 1v200c0 80 -13 85 -50 91v5c22 -1 50 -2 87 -2c34 0 66 1 87 2v-5c-37 -6 -50 -11 -50 -91v-537c0 -80 13 -85 50 -91zM557 341v59c-66 1 -132 1 -197 1c-62 0 -123 0 -184 -1v-59
c61 -1 122 -1 184 -1c65 0 131 0 197 1z" />
    <glyph glyph-name="I.alt" horiz-adv-x="278" 
d="M226 3v-5c-21 1 -53 2 -87 2c-37 0 -65 -1 -87 -2v5c37 6 50 11 50 91v537c0 80 -13 85 -50 91v5c22 -1 50 -2 87 -2c34 0 66 1 87 2v-5c-37 -6 -50 -11 -50 -91v-537c0 -80 13 -85 50 -91zM141 755h-2c-3 66 -33 99 -91 104v2c58 5 88 38 91 104h2
c3 -66 33 -100 91 -104v-2c-58 -4 -88 -38 -91 -104z" />
    <glyph glyph-name="J.alt" horiz-adv-x="277" 
d="M21 -199l-1 5c70 13 82 35 82 125v700c0 80 -25 85 -63 91v5c22 -1 63 -2 100 -2c34 0 75 1 96 2v-5c-38 -8 -59 -11 -59 -91v-613c0 -120 -26 -200 -155 -217zM141 755h-2c-3 66 -33 99 -91 104v2c58 5 88 38 91 104h2c3 -66 33 -100 91 -104v-2
c-58 -4 -88 -38 -91 -104z" />
    <glyph glyph-name="K.alt" horiz-adv-x="610" 
d="M226 3v-5c-21 1 -53 2 -87 2c-37 0 -65 -1 -87 -2v5c37 6 50 11 50 91v537c0 80 -13 85 -50 91v5c22 -1 50 -2 87 -2c34 0 66 1 87 2v-5c-37 -6 -50 -11 -50 -91v-537c0 -80 13 -85 50 -91zM633 3v-5c-21 1 -57 2 -91 2c-37 0 -66 -1 -88 -2v5c22 2 29 7 29 15
c0 13 -20 32 -40 57l-238 289v3l152 168c84 93 128 142 128 167c0 12 -7 18 -29 20v5c22 -1 45 -2 82 -2c34 0 68 1 89 2v-5c-62 -12 -127 -85 -357 -327l272 -322c40 -48 57 -69 91 -70z" />
    <glyph glyph-name="L.alt" horiz-adv-x="473" 
d="M459 -48h-4c-8 44 -20 48 -115 48h-93c-76 0 -180 -1 -201 -2v5c48 8 57 23 57 91v537c0 80 -13 85 -50 91v5c22 -1 50 -2 87 -2c34 0 66 1 87 2v-5c-37 -6 -50 -11 -50 -91v-595c11 -4 38 -6 85 -6c167 0 177 5 192 97h5c-1 -31 -2 -42 -2 -83c0 -53 1 -58 2 -92z" />
    <glyph glyph-name="M.alt" horiz-adv-x="876" 
d="M870 3v-5c-21 1 -53 2 -87 2c-37 0 -77 -1 -99 -2v5c42 5 51 14 51 35c0 10 -4 29 -8 52l-82 475l-222 -557h-5l-230 554l-74 -427c-5 -28 -8 -51 -8 -70c0 -36 12 -54 51 -62v-5c-22 1 -62 2 -99 2c-34 0 -45 -1 -66 -2v5c53 14 69 49 87 143l77 412c3 17 5 33 5 47
c0 64 -31 103 -86 117v5c20 -1 39 -2 72 -2c18 0 37 0 55 1l238 -583l236 583c18 -1 36 -1 54 -1c33 0 52 1 72 2v-5c-63 -17 -89 -46 -89 -101c0 -14 2 -31 5 -49l90 -494c9 -51 20 -65 62 -75z" />
    <glyph glyph-name="N.alt" horiz-adv-x="815" 
d="M709 -22h-5l-568 655v-113c0 -500 1 -494 69 -517v-5c-22 1 -48 2 -85 2c-34 0 -58 -1 -79 -2v5c64 24 65 18 65 518v90c0 80 -14 86 -66 111v5c12 -1 51 -2 68 -2c11 0 35 0 49 1l522 -613v89c0 506 -3 498 -69 520v5c22 -1 48 -2 85 -2c34 0 62 1 83 2v-5
c-67 -22 -69 -14 -69 -514v-230z" />
    <glyph glyph-name="O.alt" 
d="M396 -9c-222 0 -358 182 -358 366c0 189 139 376 366 376c196 0 356 -159 356 -373c0 -204 -156 -369 -364 -369zM396 13c151 0 272 109 272 340c0 253 -137 357 -272 357c-133 0 -265 -101 -265 -351c0 -241 119 -346 265 -346zM398 255h-2c-3 66 -33 99 -91 104v2
c58 5 88 38 91 104h2c3 -66 33 -100 91 -104v-2c-58 -4 -88 -38 -91 -104z" />
    <glyph glyph-name="P.alt" horiz-adv-x="504" 
d="M226 3v-5c-21 1 -53 2 -87 2c-37 0 -65 -1 -87 -2v5c37 6 50 11 50 91v537c0 67 -7 85 -55 91v5c34 -2 59 -2 103 -2c30 0 82 2 104 2c152 0 234 -80 234 -199c0 -84 -54 -176 -172 -203c-27 -6 -51 -10 -140 -10v-221c0 -80 13 -85 50 -91zM176 336h48
c144 0 182 83 182 178c0 106 -54 190 -158 190c-23 0 -43 -2 -72 -10v-358z" />
    <glyph glyph-name="Q.alt" 
d="M753 -10l2 -1c-15 -34 -55 -79 -101 -79c-50 0 -107 57 -169 57c-86 0 -160 -48 -228 -92l-1 2c22 25 102 90 191 117c-17 -2 -34 -4 -51 -4c-222 0 -358 182 -358 366c0 189 139 376 366 376c196 0 356 -159 356 -373c0 -169 -107 -311 -262 -355c7 0 14 1 22 1
c88 0 116 -44 173 -44c23 0 45 13 60 29zM396 13c151 0 272 109 272 340c0 253 -137 357 -272 357c-133 0 -265 -101 -265 -351c0 -241 119 -346 265 -346z" />
    <glyph glyph-name="R.alt" horiz-adv-x="552" 
d="M554 3v-6c-9 -1 -13 -1 -25 -1c-113 4 -126 24 -269 302c-15 30 -20 37 -53 55l4 8c18 -10 42 -14 61 -14c91 0 134 72 134 166c0 116 -58 191 -160 191c-22 0 -47 -3 -70 -10v-600c0 -80 13 -85 50 -91v-5c-21 1 -53 2 -87 2c-37 0 -65 -1 -87 -2v5c37 6 50 11 50 91
v537c0 80 -17 85 -55 91v5c22 -1 53 -2 80 -2c55 0 80 2 118 2c173 0 243 -87 243 -197c0 -90 -56 -185 -181 -199c59 -45 149 -292 247 -328z" />
    <glyph glyph-name="S.alt" horiz-adv-x="453" 
d="M46 168h5c12 -101 62 -153 165 -153c69 0 136 43 136 135c0 200 -300 195 -300 413c0 108 78 179 185 179c58 0 94 -16 133 -16c6 0 11 0 17 1c-2 -21 -3 -39 -3 -66c0 -15 0 -40 1 -55h-6c-15 78 -67 115 -140 115c-63 0 -122 -34 -122 -113c0 -191 298 -186 298 -415
c0 -125 -91 -203 -208 -203c-67 0 -96 19 -144 19c-6 0 -9 0 -15 -1c1 5 3 47 3 56c0 44 -2 75 -5 104z" />
    <glyph glyph-name="T.alt" horiz-adv-x="546" 
d="M366 3v-5c-21 1 -53 2 -87 2c-37 0 -65 -1 -87 -2v5c37 6 50 11 50 91v593c-158 0 -205 0 -235 -64h-5c8 40 22 63 34 127h5c3 -32 27 -33 217 -33h103c187 0 241 2 287 61h6c-42 -68 -127 -79 -129 -143h-6c1 4 2 10 2 15c0 31 -28 37 -205 37v-593c0 -80 13 -85 50 -91
z" />
    <glyph glyph-name="U.alt" horiz-adv-x="736" 
d="M684 3v-5c-21 1 -37 2 -71 2c-17 0 -40 0 -56 -2c3 18 3 46 3 96v25c-38 -96 -124 -135 -220 -135c-167 0 -252 85 -252 280v367c0 80 -13 85 -50 91v5c22 -1 50 -2 87 -2c34 0 73 1 94 2v-5c-40 -5 -57 -11 -57 -91v-356c0 -143 28 -259 182 -259c152 0 216 103 216 244
v371c0 70 -24 85 -61 91v5c22 -1 61 -2 98 -2c34 0 66 1 87 2v-5c-37 -6 -50 -11 -50 -91v-537c0 -80 13 -85 50 -91z" />
    <glyph glyph-name="V.alt" horiz-adv-x="616" 
d="M313 -22h-6l-234 637c-54 147 -94 255 -215 255c-27 0 -52 -4 -65 -15l-3 8c38 29 81 45 122 45c99 0 159 -69 198 -175l222 -611l143 413c23 68 38 112 38 139c0 29 -16 42 -53 48v5c22 -1 72 -2 109 -2c34 0 45 1 66 2v-5c-51 -15 -74 -46 -129 -200z" />
    <glyph glyph-name="W.alt" horiz-adv-x="914" 
d="M601 -22h-6l-136 362l-144 -362h-6l-236 637c-54 147 -95 255 -216 255c-27 0 -52 -4 -65 -15l-3 8c38 29 81 45 122 45c99 0 158 -69 197 -175l226 -607l107 263l-97 258c-22 57 -41 66 -80 75v5c21 -1 69 -2 103 -2c37 0 61 1 83 2v-5c-30 -4 -40 -16 -40 -34
c0 -14 6 -32 14 -53l57 -147l19 47c25 61 41 105 41 136c0 29 -15 46 -50 51v5c22 -1 79 -2 116 -2c34 0 45 1 66 2v-5c-50 -10 -73 -26 -142 -200l-32 -81l121 -315l155 409c24 63 37 105 37 134c0 32 -17 48 -55 55v3c22 -1 88 -2 125 -2c34 0 45 1 66 2v-3
c-50 -14 -72 -17 -142 -202z" />
    <glyph glyph-name="X.alt" horiz-adv-x="621" 
d="M644 3v-5c-21 1 -67 2 -101 2c-37 0 -91 -1 -113 -2v5c36 3 49 11 49 29c0 13 -8 31 -25 57l-151 236l-91 -135c-37 -55 -74 -110 -74 -145c0 -21 13 -37 45 -42v-5c-22 1 -68 2 -105 2c-34 0 -91 -1 -112 -2v5c76 11 98 32 215 200l105 150l-189 298
c-76 120 -136 206 -228 207c-37 0 -77 -13 -92 -32l-4 8c41 49 92 74 148 74c77 0 139 -52 190 -134l223 -358l78 119c48 74 73 120 73 148c0 23 -17 35 -48 39v5c22 -1 72 -2 109 -2c34 0 71 1 92 2v-5c-48 -15 -74 -21 -195 -200l-91 -135l194 -309c39 -63 65 -70 98 -75z
" />
    <glyph glyph-name="Y.alt" horiz-adv-x="604" 
d="M384 3v-5c-21 1 -53 2 -87 2c-37 0 -65 -1 -87 -2v5c37 7 50 11 50 91v135c0 121 -176 475 -254 475c-9 0 -20 0 -27 -3l-2 9c31 16 46 23 85 23c78 0 178 -189 236 -383c65 190 173 383 278 383c21 0 31 -3 54 -14l-1 -6c-9 2 -14 3 -25 3c-125 0 -270 -392 -270 -491
v-131c0 -80 13 -84 50 -91z" />
    <glyph glyph-name="Z.alt" horiz-adv-x="596" 
d="M556 -48h-4c-8 44 -20 48 -115 48h-423v5l461 690h-215c-178 0 -207 -19 -224 -107h-5c9 69 34 125 34 168h4c8 -24 15 -31 110 -31h402v-5l-462 -690h210c148 0 208 9 222 97h5c-1 -31 -2 -42 -2 -83c0 -53 1 -58 2 -92z" />
    <glyph glyph-name="a.alt" horiz-adv-x="438" 
d="M414 3v-5c-22 1 -38 2 -55 2c-33 0 -44 -1 -54 -2c1 8 2 22 2 45v10c-39 -38 -92 -63 -149 -63c-85 0 -128 53 -128 110c0 70 62 127 161 127c41 0 86 -12 116 -33v169c0 63 -24 99 -91 99c-54 0 -113 -40 -116 -126h-51c14 90 89 144 175 144c72 0 147 -23 147 -130
v-256c0 -80 13 -85 43 -91zM307 73v103c-21 20 -58 32 -96 32c-72 0 -109 -52 -109 -102c0 -45 30 -88 91 -88c46 0 85 22 114 55z" />
    <glyph glyph-name="d.alt" horiz-adv-x="521" 
d="M487 3v-5c-22 1 -38 2 -55 2c-33 0 -44 -1 -54 -2c1 8 2 22 2 45c-43 -43 -97 -53 -134 -53c-139 0 -214 114 -214 232c0 149 111 258 237 258c36 0 74 -10 111 -33v234c0 36 -3 47 -44 54v5c30 2 80 7 108 22v-668c0 -80 13 -85 43 -91zM380 102v288
c-21 44 -70 70 -118 70c-75 0 -144 -64 -144 -228c0 -119 59 -208 165 -208c32 0 97 17 97 78z" />
    <glyph glyph-name="e.alt" horiz-adv-x="469" 
d="M433 72l4 -4c-37 -46 -91 -78 -166 -78c-161 0 -238 122 -238 244c0 137 90 246 213 246c110 0 185 -81 185 -181c0 -15 -1 -31 -5 -46h-312c5 -149 87 -230 197 -230c42 0 80 10 122 49zM114 273h232c1 12 2 24 2 37c0 80 -29 157 -104 157c-83 0 -129 -95 -130 -194z
" />
    <glyph glyph-name="f.alt" horiz-adv-x="230" 
d="M175 -222v-5c-22 1 -38 2 -75 2s-53 -1 -75 -2v5c30 6 43 11 43 91v586h-17v3l17 17c0 115 7 197 73 253c27 23 63 39 101 39c24 0 43 -6 55 -15l-42 -54c-15 16 -38 31 -63 31c-59 0 -60 -76 -60 -207v-47h61c16 0 19 0 22 5h5c0 -17 -2 -35 -2 -62h-4
c0 29 -5 37 -41 37h-41v-586c0 -80 13 -85 43 -91z" />
    <glyph glyph-name="g.alt" horiz-adv-x="458" 
d="M369 492l68 -3c2 -6 3 -11 3 -16c0 -34 -50 -48 -83 -52c23 -27 38 -61 38 -104c0 -100 -82 -159 -178 -159c-13 0 -24 1 -35 2c-28 -9 -46 -26 -46 -55c0 -55 64 -52 146 -61c121 -13 161 -70 161 -128c0 -70 -73 -141 -214 -141c-105 0 -210 43 -210 127
c0 50 35 97 120 124c-40 8 -69 23 -69 66c0 42 41 66 76 76c-74 24 -110 87 -110 151c0 80 60 161 179 161c49 0 97 -17 131 -48c23 6 36 17 36 32c0 8 -4 17 -13 28zM178 22c-59 -16 -81 -59 -81 -114c0 -82 60 -119 134 -119c65 0 129 30 129 115c0 110 -100 110 -182 118
zM214 171c66 0 98 48 98 143c0 96 -30 153 -101 153c-62 0 -92 -52 -92 -144c0 -108 32 -152 95 -152z" />
    <glyph glyph-name="i.alt" horiz-adv-x="211" 
d="M182 3v-5c-22 1 -38 2 -75 2s-53 -1 -75 -2v5c30 6 43 11 43 91v300c0 36 -1 46 -31 54v5c30 2 69 10 95 22v-381c0 -80 13 -85 43 -91zM103 502h-2c-4 53 -28 78 -74 85v2c46 7 70 32 74 85h2c4 -53 28 -78 74 -85v-2c-46 -7 -70 -32 -74 -85z" />
    <glyph glyph-name="j.alt" horiz-adv-x="198" 
d="M-6 -224l1 7c71 0 72 59 72 240v371c0 36 -1 46 -31 54v5c30 2 69 10 95 22v-487c0 -105 -10 -213 -123 -213c-4 0 -8 0 -14 1zM95 502h-2c-4 53 -28 78 -74 85v2c46 7 70 32 74 85h2c4 -53 28 -78 74 -85v-2c-46 -7 -70 -32 -74 -85z" />
    <glyph glyph-name="k.alt" horiz-adv-x="468" 
d="M489 3v-5c-39 1 -68 2 -91 2s-32 -1 -59 -2v5c9 1 18 3 18 8s-3 8 -7 13l-203 229v4c105 99 176 169 176 197c0 10 -5 15 -24 18v5c23 -1 47 -2 71 -2s47 1 71 2v-6c-50 -10 -70 -28 -238 -184c207 -232 237 -282 286 -284zM179 3v-5c-22 1 -38 2 -75 2s-53 -1 -75 -2v5
c30 6 43 11 43 91v587c0 36 -1 46 -31 54v5c30 2 69 10 95 22v-668c0 -80 13 -85 43 -91z" />
    <glyph glyph-name="m.alt" horiz-adv-x="800" 
d="M777 3v-5c-22 1 -38 2 -75 2s-53 -1 -75 -2v5c30 6 43 11 43 91v208c0 128 -48 151 -111 151c-57 0 -99 -25 -132 -78c3 -18 7 -30 7 -72v-209c0 -80 13 -85 43 -91v-5c-22 1 -38 2 -75 2s-53 -1 -75 -2v5c30 6 43 11 43 91v207c0 131 -51 152 -110 152
c-49 0 -87 -20 -121 -60v-299c0 -80 13 -85 43 -91v-5c-22 1 -38 2 -75 2s-53 -1 -75 -2v5c30 6 43 11 43 91v305c0 36 -1 46 -31 54v5c30 2 69 10 95 22v-68c44 50 99 68 146 68c53 0 114 -20 138 -91c41 72 113 91 160 91c84 0 151 -42 151 -178v-208c0 -80 13 -85 43 -91
z" />
    <glyph glyph-name="n.alt" horiz-adv-x="517" 
d="M494 3v-5c-22 1 -38 2 -75 2s-53 -1 -75 -2v5c30 6 43 11 43 91v215c0 124 -54 144 -118 144c-44 0 -96 -23 -130 -87v-272c0 -80 13 -85 43 -91v-5c-22 1 -38 2 -75 2s-53 -1 -75 -2v5c30 6 43 11 43 91v305c0 36 -1 46 -31 54v5c30 2 69 10 95 22v-93
c36 61 104 93 155 93c74 0 157 -27 157 -170v-216c0 -80 13 -85 43 -91z" />
    <glyph glyph-name="o.alt" horiz-adv-x="547" 
d="M277 -6c-152 0 -244 91 -244 240c0 144 104 246 242 246c139 0 239 -105 239 -246c0 -131 -91 -240 -237 -240zM273 7c135 0 158 121 158 234c0 123 -34 226 -163 226c-132 0 -152 -138 -152 -242c0 -112 29 -218 157 -218zM274 151h-2c-4 53 -28 78 -74 85v2
c46 7 70 32 74 85h2c4 -53 28 -78 74 -85v-2c-46 -7 -70 -32 -74 -85z" />
    <glyph glyph-name="r.alt" horiz-adv-x="361" 
d="M182 3v-5c-22 1 -38 2 -75 2s-53 -1 -75 -2v5c30 6 43 11 43 91v305c0 36 -1 46 -31 54v5c30 2 69 10 95 22v-93c27 44 92 93 149 93c52 0 63 -37 63 -83h-64c0 37 -14 54 -37 54c-24 0 -79 -24 -111 -84v-273c0 -80 13 -85 43 -91z" />
    <glyph glyph-name="u.alt" horiz-adv-x="513" 
d="M484 3v-5c-22 1 -38 2 -55 2c-33 0 -44 -1 -54 -2c1 8 2 22 2 45v39c-34 -56 -91 -92 -161 -92c-92 0 -151 51 -151 173v236c0 36 -8 47 -49 54v5c30 2 85 7 113 22v-312c0 -107 34 -151 112 -151c61 0 106 29 136 89v293c0 36 -3 47 -44 54v5c30 2 80 7 108 22v-386
c0 -80 13 -85 43 -91z" />
    <glyph glyph-name="w.alt" horiz-adv-x="734" 
d="M476 -16h-7l-111 323l-140 -323h-7l-165 439c-15 40 -28 43 -54 48v5c14 0 47 -1 83 -1c38 0 72 1 86 1v-5c-30 -4 -45 -9 -45 -27c0 -7 3 -17 7 -29l115 -320l107 248l-27 80c-12 35 -27 40 -64 48v5c42 -2 62 -3 98 -3c40 0 62 2 99 3v-5c-37 -7 -57 -11 -57 -40
c0 -8 2 -18 6 -31l97 -305l116 254c18 39 29 67 29 85c0 22 -15 34 -52 37v5c14 0 37 -1 81 -1c33 0 59 1 73 1v-5c-34 -8 -53 -12 -111 -140z" />
    <glyph glyph-name="y.alt" horiz-adv-x="515" 
d="M318 -222v-5c-22 1 -38 2 -75 2s-53 -1 -75 -2v5c30 6 43 11 43 91v151l-166 403c-16 40 -28 43 -54 48v5c14 0 47 -1 83 -1c38 0 72 1 86 1v-5c-30 -4 -45 -9 -45 -27c0 -7 2 -17 7 -29l142 -348l132 282c17 36 29 66 29 86c0 21 -14 33 -50 36v5c14 0 35 -1 79 -1
c33 0 57 1 71 1v-5c-33 -7 -53 -16 -109 -140l-141 -309v-153c0 -80 13 -85 43 -91z" />
    <glyph glyph-name="ampersand.alt" horiz-adv-x="651" 
d="M352 106h-4c7 16 8 38 8 60c0 57 -72 161 -116 256c-72 -55 -133 -120 -133 -215c0 -122 103 -185 199 -185c126 0 259 109 259 232c0 58 -34 84 -87 92c20 12 41 19 61 19c42 0 76 -30 76 -98c0 -121 -175 -283 -354 -283c-116 0 -229 64 -229 193
c0 128 100 203 198 269c-14 34 -23 66 -23 94c0 104 120 175 197 175c36 0 62 -16 62 -49c0 -90 -91 -147 -182 -211c42 -98 117 -185 117 -249c0 -35 -13 -62 -49 -100zM276 476c72 50 133 99 133 167c0 28 -19 41 -44 41c-51 0 -107 -43 -107 -114c0 -32 7 -63 18 -94z
" />
    <glyph glyph-name="numbersign.alt" horiz-adv-x="1196" 
d="M1114 130h-290v20h290v-20zM709 -22h-5l-568 655v-112c0 -500 1 -495 69 -518v-5c-22 1 -48 2 -85 2c-34 0 -58 -1 -79 -2v5c64 24 65 19 65 519v89c0 80 -14 86 -66 111v5c12 -1 51 -2 68 -2c11 0 35 0 49 1l522 -613v89c0 506 -3 498 -69 520v5c22 -1 48 -2 85 -2
c34 0 62 1 83 2v-5c-67 -22 -69 -14 -69 -514v-230zM976 221c-106 0 -189 51 -189 185c0 130 93 192 187 192c95 0 185 -65 185 -192c0 -117 -82 -185 -183 -185zM972 237c92 0 112 74 112 176c0 110 -30 168 -116 168c-89 0 -107 -89 -107 -183c0 -100 26 -161 111 -161z
M977 339h-2c-3 43 -23 63 -60 69v2c37 6 57 26 60 69h2c3 -43 23 -63 60 -69v-2c-37 -6 -57 -26 -60 -69z" />
    <glyph glyph-name="zero.osf.alt" horiz-adv-x="612" 
d="M306 -13c-143 0 -265 100 -265 282c0 176 122 276 265 276c142 0 266 -105 266 -280c0 -176 -124 -278 -266 -278zM305 6c128 0 179 134 179 260s-51 260 -179 260c-123 0 -177 -125 -177 -260c0 -126 51 -260 177 -260zM307 161h-2c-3 66 -33 99 -91 104v2
c58 5 88 38 91 104h2c3 -66 33 -100 91 -104v-2c-58 -4 -88 -38 -91 -104z" />
    <glyph glyph-name="one.osf.alt" horiz-adv-x="272" 
d="M223 3v-5c-21 1 -53 2 -87 2c-37 0 -65 -1 -87 -2v5c37 6 50 11 50 91v342c0 80 -13 85 -50 91v5c22 -1 50 -2 87 -2c34 0 66 1 87 2v-5c-37 -6 -50 -11 -50 -91v-342c0 -80 13 -85 50 -91z" />
    <glyph glyph-name="zero.osf" horiz-adv-x="612" 
d="M306 -13c-143 0 -265 100 -265 282c0 176 122 276 265 276c142 0 266 -105 266 -280c0 -176 -124 -278 -266 -278zM305 6c128 0 179 134 179 260s-51 260 -179 260c-123 0 -177 -125 -177 -260c0 -126 51 -260 177 -260z" />
    <glyph glyph-name="one.osf" horiz-adv-x="285" 
d="M236 3v-5c-21 1 -53 2 -87 2c-37 0 -65 -1 -87 -2v5c37 6 50 11 50 91v349c-21 -18 -51 -39 -83 -60l-5 11c62 42 139 93 157 156h5v-456c0 -80 13 -85 50 -91z" />
    <glyph glyph-name="two.osf" horiz-adv-x="493" 
d="M451 140h5c0 -34 -20 -71 -22 -146c-105 5 -161 6 -266 6c-52 0 -146 -1 -158 -1v5c159 92 337 237 337 376c0 94 -62 132 -122 132c-70 0 -135 -51 -135 -127c0 -24 8 -49 25 -70c-16 -3 -26 -6 -39 -15c-10 21 -15 43 -15 66c0 113 96 177 195 177
c85 0 170 -48 170 -153c0 -135 -185 -262 -282 -321c97 -1 192 -6 218 -6c61 0 70 14 89 77z" />
    <glyph glyph-name="three.osf" horiz-adv-x="483" 
d="M71 -6l3 -2c-5 -14 -7 -27 -7 -40c0 -83 61 -127 141 -127c103 0 153 78 153 161c0 107 -61 177 -181 183v7c128 7 173 86 173 176c0 96 -61 156 -156 156c-71 0 -141 -46 -141 -129c0 -22 7 -45 25 -66c-19 -4 -24 -6 -39 -15c-10 21 -14 45 -14 68c0 92 76 178 197 178
c129 0 211 -85 211 -186c0 -64 -37 -118 -117 -157c86 -43 125 -102 125 -183c0 -112 -82 -216 -230 -216c-82 0 -164 48 -197 142c34 23 41 41 54 50z" />
    <glyph glyph-name="four.osf" horiz-adv-x="515" 
d="M451 -190v-5c-21 1 -53 2 -87 2c-37 0 -65 -1 -87 -2v5c37 6 50 11 50 91v121h-328l-2 4l399 523h5v-481h7c42 0 65 0 77 34h5c-1 -25 -22 -51 -29 -85c-11 4 -34 5 -51 5h-9v-121c0 -80 13 -85 50 -91zM327 68v353l-270 -353h270z" />
    <glyph glyph-name="five.osf" horiz-adv-x="451" 
d="M35 -37l4 -3c-1 -6 -1 -12 -1 -17c0 -79 64 -130 155 -130c83 0 172 55 172 193c0 124 -74 199 -182 199c-45 0 -93 -12 -133 -56h-5c12 89 17 284 17 385c15 -1 154 -9 238 -9c47 0 56 1 68 17h5c-6 -18 -23 -47 -34 -87l-252 9c-1 -71 -3 -141 -7 -212
c42 18 76 24 113 24c135 0 238 -79 238 -237c0 -134 -96 -249 -235 -249c-86 0 -169 44 -204 133c26 19 32 33 43 40z" />
    <glyph glyph-name="six.osf" horiz-adv-x="543" 
d="M154 347h-5c24 91 92 134 162 134c104 0 205 -85 205 -239c0 -130 -97 -252 -228 -252c-161 0 -246 150 -246 316c0 202 127 427 396 427v-9c-240 -12 -312 -232 -312 -439c0 -101 33 -278 165 -278c111 0 142 144 142 228c0 143 -62 213 -150 213
c-49 0 -102 -27 -129 -101z" />
    <glyph glyph-name="seven.osf" horiz-adv-x="510" 
d="M506 530v-5c-114 -215 -311 -629 -318 -717c-19 3 -36 3 -61 3c38 58 70 143 308 650h-304c-66 0 -97 0 -102 -68h-5c0 50 7 81 7 119c0 11 0 23 -2 35h5c14 -12 30 -17 44 -17h428z" />
    <glyph glyph-name="eight.osf" horiz-adv-x="483" 
d="M292 383c72 -58 141 -120 141 -212c0 -112 -98 -181 -197 -181c-130 0 -193 79 -193 163c0 76 52 147 161 200c-70 57 -138 116 -138 207c0 106 76 174 180 174c122 0 183 -77 183 -158c0 -71 -48 -146 -137 -193zM220 340c-74 -34 -116 -97 -116 -182
c0 -82 48 -145 142 -145c79 0 115 60 115 123c0 88 -69 146 -141 204zM277 395c70 39 101 110 101 176c0 81 -44 140 -139 140c-70 0 -112 -43 -112 -112c0 -86 75 -143 150 -204z" />
    <glyph glyph-name="nine.osf" horiz-adv-x="550" 
d="M122 -198v9c240 12 312 232 312 439c0 101 -33 278 -165 278c-111 0 -142 -144 -142 -228c0 -143 62 -213 150 -213c49 0 102 27 129 101h5c-24 -91 -92 -134 -162 -134c-104 0 -205 85 -205 239c0 130 97 252 228 252c161 0 246 -150 246 -316
c0 -202 -127 -427 -396 -427z" />
    <glyph glyph-name="dollar.alt" horiz-adv-x="361" 
d="M196 0h-23v124h-7c-29 0 -77 6 -126 32c6 33 3 79 12 119h5c-1 -6 -1 -13 -1 -19c0 -63 29 -118 110 -118c53 0 92 33 92 96c0 129 -217 105 -217 258c0 75 66 113 132 120v113h23v-111h2c40 0 87 -9 114 -17c-2 -10 -3 -18 -3 -32c0 -20 1 -34 2 -66h-5
c-10 51 -45 102 -112 102c-49 0 -88 -32 -88 -88c0 -117 220 -96 220 -261c0 -76 -63 -117 -130 -126v-126z" />
    <glyph glyph-name="cent.alt" horiz-adv-x="563" 
d="M330 0h-23v88c-177 10 -270 140 -270 275c0 134 90 271 270 278v84h23v-83c73 -2 139 -24 187 -37c-1 -19 -2 -48 -2 -71c0 -12 1 -33 1 -38h-5c-7 77 -84 122 -181 124v-510h11c73 0 154 39 176 115h5c-4 -27 -5 -63 -5 -90c-68 -34 -131 -48 -187 -48v-87zM307 112v507
c-101 -7 -192 -84 -192 -259c0 -162 93 -235 192 -248z" />
    <glyph glyph-name="yen.alt" horiz-adv-x="730" 
d="M643 172h-246v-78c0 -80 13 -84 50 -91v-5c-21 1 -53 2 -87 2c-37 0 -65 -1 -87 -2v5c37 7 50 11 50 91v78h-249v23h249v34c0 24 -7 58 -19 97h-230v23h222c-52 151 -168 355 -227 355c-9 0 -20 0 -27 -3l-2 9c31 16 46 23 85 23c78 0 178 -189 236 -383
c65 190 173 383 278 383c21 0 31 -3 54 -14l-1 -6c-9 2 -14 3 -25 3c-93 0 -196 -215 -244 -367h220v-23h-227c-12 -43 -19 -79 -19 -101v-30h246v-23z" />
    <glyph glyph-name="Euro.alt" horiz-adv-x="801" 
d="M739 0h-5c-2 20 -5 36 -10 48c-86 -41 -165 -58 -237 -58c-220 0 -350 133 -383 292h-68v23h64c-3 19 -4 38 -4 58c0 19 1 38 4 57h-64v23h68c33 155 164 289 383 289c72 0 151 -17 237 -58c5 12 8 28 10 48h5c-1 -21 -2 -44 -2 -70c0 -30 1 -60 6 -91h-5
c-30 102 -138 147 -235 147c-131 0 -276 -79 -309 -265h470v-23h-473c-3 -19 -4 -39 -4 -59s1 -38 3 -56h474v-23h-471c32 -192 179 -268 310 -268c97 0 205 45 235 147h5c-5 -31 -6 -61 -6 -91c0 -26 1 -49 2 -70z" />
    <glyph glyph-name="exclam.alt" horiz-adv-x="244" 
d="M127 173h-7c0 52 -36 228 -36 492c0 30 7 60 41 60c35 0 42 -30 42 -60c0 -264 -40 -440 -40 -492zM124 -6h-2c-8 39 -19 51 -53 61v2c34 10 45 22 53 61h2c8 -39 19 -51 53 -61v-2c-34 -10 -45 -22 -53 -61z" />
    <glyph glyph-name="exclamdown.alt" horiz-adv-x="238" 
d="M114 362h7c0 -52 36 -228 36 -492c0 -30 -7 -60 -41 -60c-35 0 -42 30 -42 60c0 264 40 440 40 492zM119 412h-2c-8 39 -20 52 -54 62v2c34 10 46 23 54 62h2c8 -39 20 -52 54 -62v-2c-34 -10 -46 -23 -54 -62z" />
    <glyph glyph-name="question.alt" horiz-adv-x="461" 
d="M223 163h-8c0 188 143 185 143 349c0 112 -80 163 -157 163c-70 0 -137 -43 -137 -122c0 -55 37 -109 98 -109c18 0 32 2 42 4c-15 -21 -22 -31 -24 -51c-96 19 -144 95 -144 170c0 110 89 165 182 165c99 0 201 -63 201 -190c0 -185 -196 -197 -196 -379zM220 -6h-2
c-8 39 -19 51 -53 61v2c34 10 45 22 53 61h2c8 -39 19 -51 53 -61v-2c-34 -10 -45 -22 -53 -61z" />
    <glyph glyph-name="questiondown.alt" horiz-adv-x="453" 
d="M238 348h8c0 -188 -143 -185 -143 -349c0 -112 80 -163 157 -163c70 0 137 43 137 122c0 55 -37 109 -98 109c-18 0 -32 -2 -42 -4c15 21 22 31 24 51c96 -19 144 -95 144 -170c0 -110 -89 -165 -182 -165c-99 0 -201 63 -201 190c0 185 196 197 196 379zM242 391h-2
c-8 39 -20 52 -54 62v2c34 10 46 23 54 62h2c8 -39 20 -52 54 -62v-2c-34 -10 -46 -23 -54 -62z" />
    <glyph glyph-name="asterisk.alt" horiz-adv-x="714" 
d="M361 0h-8c-4 251 -111 354 -313 360v8c202 6 309 109 313 360h8c4 -251 111 -356 313 -360v-8c-202 -4 -309 -109 -313 -360z" />
    <glyph glyph-name="plus.alt" horiz-adv-x="652" 
d="M415 3v-5c-21 1 -53 2 -87 2c-37 0 -65 -1 -87 -2v5c37 6 50 11 50 91v239h-182c-80 0 -85 -13 -91 -50h-5c1 22 2 42 2 79c0 34 -1 58 -2 79h5c6 -37 11 -50 91 -50h182v240c0 80 -13 85 -50 91v5c22 -1 50 -2 87 -2c34 0 66 1 87 2v-5c-37 -6 -50 -11 -50 -91v-240h181
c80 0 85 13 91 50h5c-1 -21 -2 -45 -2 -79c0 -37 1 -57 2 -79h-5c-6 37 -11 50 -91 50h-181v-239c0 -80 13 -85 50 -91z" />
    <glyph glyph-name="dieresis.alt" horiz-adv-x="321" 
d="M97 510h-2c-7 33 -17 44 -45 52v2c28 8 38 19 45 52h2c7 -33 17 -44 45 -52v-2c-28 -8 -38 -19 -45 -52zM226 510h-2c-7 33 -17 44 -45 52v2c28 8 38 19 45 52h2c7 -33 17 -44 45 -52v-2c-28 -8 -38 -19 -45 -52z" />
    <glyph glyph-name="dotaccent.alt" horiz-adv-x="210" 
d="M106 502h-2c-8 39 -20 52 -54 62v2c34 10 46 23 54 62h2c8 -39 20 -52 54 -62v-2c-34 -10 -46 -23 -54 -62z" />
    <glyph glyph-name="bullet.alt" horiz-adv-x="366" 
d="M185 202h-4c-4 104 -50 155 -141 162v4c91 7 137 58 141 162h4c4 -104 50 -156 141 -162v-4c-91 -6 -137 -58 -141 -162z" />
    <glyph glyph-name="periodcentered.alt" horiz-adv-x="220" 
d="M111 300h-2c-8 39 -20 52 -54 62v2c34 10 46 23 54 62h2c8 -39 20 -52 54 -62v-2c-34 -10 -46 -23 -54 -62z" />
    <glyph glyph-name="period.alt" horiz-adv-x="208" 
d="M105 -6h-2c-8 39 -19 51 -53 61v2c34 10 45 22 53 61h2c8 -39 19 -51 53 -61v-2c-34 -10 -45 -22 -53 -61z" />
    <glyph glyph-name="colon.alt" horiz-adv-x="220" 
d="M111 300h-2c-8 39 -20 52 -54 62v2c34 10 46 23 54 62h2c8 -39 20 -52 54 -62v-2c-34 -10 -46 -23 -54 -62zM111 -6h-2c-8 39 -20 52 -54 62v2c34 10 46 23 54 62h2c8 -39 20 -52 54 -62v-2c-34 -10 -46 -23 -54 -62z" />
    <glyph glyph-name="semicolon.alt" horiz-adv-x="222" 
d="M87 -103l-4 2c26 21 40 52 40 84c0 6 -1 13 -2 17c-5 -3 -10 -4 -15 -4c-22 0 -33 17 -33 35c0 24 16 38 34 38c21 0 44 -19 44 -60c0 -48 -25 -90 -64 -112zM113 300h-2c-8 39 -20 52 -54 62v2c34 10 46 23 54 62h2c8 -39 20 -52 54 -62v-2c-34 -10 -46 -23 -54 -62z
" />
    <glyph glyph-name="ellipsis.alt" horiz-adv-x="624" 
d="M105 -6h-2c-8 39 -19 51 -53 61v2c34 10 45 22 53 61h2c8 -39 19 -51 53 -61v-2c-34 -10 -45 -22 -53 -61zM313 -6h-2c-8 39 -19 51 -53 61v2c34 10 45 22 53 61h2c8 -39 19 -51 53 -61v-2c-34 -10 -45 -22 -53 -61zM521 -6h-2c-8 39 -19 51 -53 61v2c34 10 45 22 53 61
h2c8 -39 19 -51 53 -61v-2c-34 -10 -45 -22 -53 -61z" />
    <glyph glyph-name="divide.alt" horiz-adv-x="503" 
d="M437 317v-30c-39 1 -98 1 -186 1c-89 0 -147 0 -185 -1v30c38 -1 96 -2 185 -2c88 0 147 1 186 2zM251 365h-2c-8 39 -20 52 -54 62v2c34 10 46 23 54 62h2c8 -39 20 -52 54 -62v-2c-34 -10 -46 -23 -54 -62zM251 111h-2c-8 39 -20 52 -54 62v2c34 10 46 23 54 62h2
c8 -39 20 -52 54 -62v-2c-34 -10 -46 -23 -54 -62z" />
    <glyph glyph-name="ordfeminine.alt" horiz-adv-x="407" 
d="M360 228h-290v20h290v-20zM364 328v-4c-17 1 -29 2 -42 2c-26 0 -44 -1 -52 -2c1 7 2 17 2 35v8c-30 -29 -71 -49 -115 -49c-76 0 -99 51 -99 95c0 54 38 108 124 108c32 0 67 -9 90 -25v105c0 49 -19 76 -71 76c-41 0 -87 -30 -89 -92h-49c11 70 68 111 145 111
c55 0 123 -17 123 -100v-197c0 -62 10 -66 33 -71zM272 387v90c-17 15 -45 24 -74 24c-49 0 -74 -45 -74 -83c0 -35 20 -73 60 -73c35 0 65 17 88 42z" />
    <glyph glyph-name="ordmasculine.alt" horiz-adv-x="467" 
d="M376 228h-290v20h290v-20zM238 319c-106 0 -189 51 -189 185c0 130 93 192 187 192c95 0 185 -65 185 -192c0 -117 -82 -185 -183 -185zM234 335c92 0 112 74 112 176c0 110 -30 168 -116 168c-89 0 -107 -89 -107 -183c0 -100 26 -161 111 -161zM239 437h-2
c-3 43 -23 63 -60 69v2c37 6 57 26 60 69h2c3 -43 23 -63 60 -69v-2c-37 -6 -57 -26 -60 -69z" />
    <glyph glyph-name="Agrave.alt" horiz-adv-x="582" 
d="M357 780l-11 -9l-162 121l38 40zM578 3v-5c-21 1 -53 2 -87 2c-37 0 -67 -1 -89 -2v5c33 2 44 16 44 35c0 14 -6 32 -12 52l-34 109c-54 1 -108 1 -162 1c-38 0 -75 0 -113 -1l-31 -84c-9 -25 -17 -49 -17 -68c0 -23 12 -40 46 -44v-5c-22 1 -56 2 -93 2
c-34 0 -47 -1 -68 -2v5c51 12 67 24 110 138l226 601h10l210 -664c20 -63 22 -70 60 -75zM362 319l-88 284l-104 -283c31 -1 62 -1 94 -1h98zM390 230l-19 60h-107c-36 0 -70 0 -106 -1l-22 -59c34 -1 68 -1 102 -1c51 0 101 0 152 1z" />
    <glyph glyph-name="agrave.alt" horiz-adv-x="438" 
d="M414 3v-5c-22 1 -38 2 -55 2c-33 0 -44 -1 -54 -2c1 8 2 22 2 45v10c-39 -38 -92 -63 -149 -63c-85 0 -128 53 -128 110c0 70 62 127 161 127c41 0 86 -12 116 -33v169c0 63 -24 99 -91 99c-54 0 -113 -40 -116 -126h-51c14 90 89 144 175 144c72 0 147 -23 147 -130
v-256c0 -80 13 -85 43 -91zM307 73v103c-21 20 -58 32 -96 32c-72 0 -109 -52 -109 -102c0 -45 30 -88 91 -88c46 0 85 22 114 55zM287 530l-11 -9l-162 121l38 40z" />
    <glyph glyph-name="Aacute.alt" horiz-adv-x="582" 
d="M397 893l-162 -121l-11 9l135 152zM578 3v-5c-21 1 -53 2 -87 2c-37 0 -67 -1 -89 -2v5c33 2 44 16 44 35c0 14 -6 32 -12 52l-34 109c-54 1 -108 1 -162 1c-38 0 -75 0 -113 -1l-31 -84c-9 -25 -17 -49 -17 -68c0 -23 12 -40 46 -44v-5c-22 1 -56 2 -93 2
c-34 0 -47 -1 -68 -2v5c51 12 67 24 110 138l226 601h10l210 -664c20 -63 22 -70 60 -75zM362 319l-88 284l-104 -283c31 -1 62 -1 94 -1h98zM390 230l-19 60h-107c-36 0 -70 0 -106 -1l-22 -59c34 -1 68 -1 102 -1c51 0 101 0 152 1z" />
    <glyph glyph-name="aacute.alt" horiz-adv-x="438" 
d="M414 3v-5c-22 1 -38 2 -55 2c-33 0 -44 -1 -54 -2c1 8 2 22 2 45v10c-39 -38 -92 -63 -149 -63c-85 0 -128 53 -128 110c0 70 62 127 161 127c41 0 86 -12 116 -33v169c0 63 -24 99 -91 99c-54 0 -113 -40 -116 -126h-51c14 90 89 144 175 144c72 0 147 -23 147 -130
v-256c0 -80 13 -85 43 -91zM307 73v103c-21 20 -58 32 -96 32c-72 0 -109 -52 -109 -102c0 -45 30 -88 91 -88c46 0 85 22 114 55zM323 643l-162 -121l-11 9l135 152z" />
    <glyph glyph-name="Acircumflex.alt" horiz-adv-x="582" 
d="M451 766h-27l-120 115l-119 -115h-27l133 167h27zM578 3v-5c-21 1 -53 2 -87 2c-37 0 -67 -1 -89 -2v5c33 2 44 16 44 35c0 14 -6 32 -12 52l-34 109c-54 1 -108 1 -162 1c-38 0 -75 0 -113 -1l-31 -84c-9 -25 -17 -49 -17 -68c0 -23 12 -40 46 -44v-5c-22 1 -56 2 -93 2
c-34 0 -47 -1 -68 -2v5c51 12 67 24 110 138l226 601h10l210 -664c20 -63 22 -70 60 -75zM362 319l-88 284l-104 -283c31 -1 62 -1 94 -1h98zM390 230l-19 60h-107c-36 0 -70 0 -106 -1l-22 -59c34 -1 68 -1 102 -1c51 0 101 0 152 1z" />
    <glyph glyph-name="acircumflex.alt" horiz-adv-x="438" 
d="M414 3v-5c-22 1 -38 2 -55 2c-33 0 -44 -1 -54 -2c1 8 2 22 2 45v10c-39 -38 -92 -63 -149 -63c-85 0 -128 53 -128 110c0 70 62 127 161 127c41 0 86 -12 116 -33v169c0 63 -24 99 -91 99c-54 0 -113 -40 -116 -126h-51c14 90 89 144 175 144c72 0 147 -23 147 -130
v-256c0 -80 13 -85 43 -91zM307 73v103c-21 20 -58 32 -96 32c-72 0 -109 -52 -109 -102c0 -45 30 -88 91 -88c46 0 85 22 114 55zM360 530h-27l-120 115l-119 -115h-27l133 167h27z" />
    <glyph glyph-name="Atilde.alt" horiz-adv-x="582" 
d="M441 867h9c-5 -32 -30 -87 -89 -87c-50 0 -86 46 -137 46c-31 0 -41 -11 -53 -46h-10c8 47 40 83 84 83c50 0 88 -46 139 -46c31 0 49 24 57 50zM578 3v-5c-21 1 -53 2 -87 2c-37 0 -67 -1 -89 -2v5c33 2 44 16 44 35c0 14 -6 32 -12 52l-34 109c-54 1 -108 1 -162 1
c-38 0 -75 0 -113 -1l-31 -84c-9 -25 -17 -49 -17 -68c0 -23 12 -40 46 -44v-5c-22 1 -56 2 -93 2c-34 0 -47 -1 -68 -2v5c51 12 67 24 110 138l226 601h10l210 -664c20 -63 22 -70 60 -75zM362 319l-88 284l-104 -283c31 -1 62 -1 94 -1h98zM390 230l-19 60h-107
c-36 0 -70 0 -106 -1l-22 -59c34 -1 68 -1 102 -1c51 0 101 0 152 1z" />
    <glyph glyph-name="atilde.alt" horiz-adv-x="438" 
d="M414 3v-5c-22 1 -38 2 -55 2c-33 0 -44 -1 -54 -2c1 8 2 22 2 45v10c-39 -38 -92 -63 -149 -63c-85 0 -128 53 -128 110c0 70 62 127 161 127c41 0 86 -12 116 -33v169c0 63 -24 99 -91 99c-54 0 -113 -40 -116 -126h-51c14 90 89 144 175 144c72 0 147 -23 147 -130
v-256c0 -80 13 -85 43 -91zM307 73v103c-21 20 -58 32 -96 32c-72 0 -109 -52 -109 -102c0 -45 30 -88 91 -88c46 0 85 22 114 55zM346 617h9c-5 -32 -30 -87 -89 -87c-50 0 -86 46 -137 46c-31 0 -41 -11 -53 -46h-10c8 47 40 83 84 83c50 0 88 -46 139 -46
c31 0 49 24 57 50z" />
    <glyph glyph-name="Adieresis.alt" horiz-adv-x="582" 
d="M578 3v-5c-21 1 -53 2 -87 2c-37 0 -67 -1 -89 -2v5c33 2 44 16 44 35c0 14 -6 32 -12 52l-34 109c-54 1 -108 1 -162 1c-38 0 -75 0 -113 -1l-31 -84c-9 -25 -17 -49 -17 -68c0 -23 12 -40 46 -44v-5c-22 1 -56 2 -93 2c-34 0 -47 -1 -68 -2v5c51 12 67 24 110 138
l226 601h10l210 -664c20 -63 22 -70 60 -75zM362 319l-88 284l-104 -283c31 -1 62 -1 94 -1h98zM390 230l-19 60h-107c-36 0 -70 0 -106 -1l-22 -59c34 -1 68 -1 102 -1c51 0 101 0 152 1zM179 654h-2c-7 33 -17 44 -45 52v2c28 8 38 19 45 52h2c7 -33 17 -44 45 -52v-2
c-28 -8 -38 -19 -45 -52zM423 654h-2c-7 33 -17 44 -45 52v2c28 8 38 19 45 52h2c7 -33 17 -44 45 -52v-2c-28 -8 -38 -19 -45 -52z" />
    <glyph glyph-name="adieresis.alt" horiz-adv-x="438" 
d="M414 3v-5c-22 1 -38 2 -55 2c-33 0 -44 -1 -54 -2c1 8 2 22 2 45v10c-39 -38 -92 -63 -149 -63c-85 0 -128 53 -128 110c0 70 62 127 161 127c41 0 86 -12 116 -33v169c0 63 -24 99 -91 99c-54 0 -113 -40 -116 -126h-51c14 90 89 144 175 144c72 0 147 -23 147 -130
v-256c0 -80 13 -85 43 -91zM307 73v103c-21 20 -58 32 -96 32c-72 0 -109 -52 -109 -102c0 -45 30 -88 91 -88c46 0 85 22 114 55zM147 510h-2c-7 33 -17 44 -45 52v2c28 8 38 19 45 52h2c7 -33 17 -44 45 -52v-2c-28 -8 -38 -19 -45 -52zM276 510h-2c-7 33 -17 44 -45 52v2
c28 8 38 19 45 52h2c7 -33 17 -44 45 -52v-2c-28 -8 -38 -19 -45 -52z" />
    <glyph glyph-name="Aring.alt" horiz-adv-x="582" 
d="M386 845c0 -46 -38 -83 -84 -83s-83 37 -83 83s37 83 84 83c45 0 83 -37 83 -83zM359 845c0 30 -25 55 -56 55s-56 -25 -56 -55s25 -55 55 -55c32 0 57 25 57 55zM578 3v-5c-21 1 -53 2 -87 2c-37 0 -67 -1 -89 -2v5c33 2 44 16 44 35c0 14 -6 32 -12 52l-34 109
c-54 1 -108 1 -162 1c-38 0 -75 0 -113 -1l-31 -84c-9 -25 -17 -49 -17 -68c0 -23 12 -40 46 -44v-5c-22 1 -56 2 -93 2c-34 0 -47 -1 -68 -2v5c51 12 67 24 110 138l226 601h10l210 -664c20 -63 22 -70 60 -75zM362 319l-88 284l-104 -283c31 -1 62 -1 94 -1h98zM390 230
l-19 60h-107c-36 0 -70 0 -106 -1l-22 -59c34 -1 68 -1 102 -1c51 0 101 0 152 1z" />
    <glyph glyph-name="aring.alt" horiz-adv-x="438" 
d="M414 3v-5c-22 1 -38 2 -55 2c-33 0 -44 -1 -54 -2c1 8 2 22 2 45v10c-39 -38 -92 -63 -149 -63c-85 0 -128 53 -128 110c0 70 62 127 161 127c41 0 86 -12 116 -33v169c0 63 -24 99 -91 99c-54 0 -113 -40 -116 -126h-51c14 90 89 144 175 144c72 0 147 -23 147 -130
v-256c0 -80 13 -85 43 -91zM307 73v103c-21 20 -58 32 -96 32c-72 0 -109 -52 -109 -102c0 -45 30 -88 91 -88c46 0 85 22 114 55zM296 595c0 -46 -38 -83 -84 -83s-83 37 -83 83s37 83 84 83c45 0 83 -37 83 -83zM269 595c0 30 -25 55 -56 55s-56 -25 -56 -55
s25 -55 55 -55c32 0 57 25 57 55z" />
    <glyph glyph-name="Amacron.alt" horiz-adv-x="582" 
d="M440 830v-30c-46 1 -92 1 -137 1c-46 0 -91 0 -136 -1v30c45 -1 90 -2 136 -2c45 0 91 1 137 2zM578 3v-5c-21 1 -53 2 -87 2c-37 0 -67 -1 -89 -2v5c33 2 44 16 44 35c0 14 -6 32 -12 52l-34 109c-54 1 -108 1 -162 1c-38 0 -75 0 -113 -1l-31 -84
c-9 -25 -17 -49 -17 -68c0 -23 12 -40 46 -44v-5c-22 1 -56 2 -93 2c-34 0 -47 -1 -68 -2v5c51 12 67 24 110 138l226 601h10l210 -664c20 -63 22 -70 60 -75zM362 319l-88 284l-104 -283c31 -1 62 -1 94 -1h98zM390 230l-19 60h-107c-36 0 -70 0 -106 -1l-22 -59
c34 -1 68 -1 102 -1c51 0 101 0 152 1z" />
    <glyph glyph-name="amacron.alt" horiz-adv-x="438" 
d="M414 3v-5c-22 1 -38 2 -55 2c-33 0 -44 -1 -54 -2c1 8 2 22 2 45v10c-39 -38 -92 -63 -149 -63c-85 0 -128 53 -128 110c0 70 62 127 161 127c41 0 86 -12 116 -33v169c0 63 -24 99 -91 99c-54 0 -113 -40 -116 -126h-51c14 90 89 144 175 144c72 0 147 -23 147 -130
v-256c0 -80 13 -85 43 -91zM307 73v103c-21 20 -58 32 -96 32c-72 0 -109 -52 -109 -102c0 -45 30 -88 91 -88c46 0 85 22 114 55zM345 580v-30c-46 1 -92 1 -137 1c-46 0 -91 0 -136 -1v30c45 -1 90 -2 136 -2c45 0 91 1 137 2z" />
    <glyph glyph-name="Abreve.alt" horiz-adv-x="582" 
d="M412 913h22c0 -60 -47 -133 -130 -133c-84 0 -131 73 -131 133h22c11 -61 42 -96 108 -96c70 0 92 35 109 96zM578 3v-5c-21 1 -53 2 -87 2c-37 0 -67 -1 -89 -2v5c33 2 44 16 44 35c0 14 -6 32 -12 52l-34 109c-54 1 -108 1 -162 1c-38 0 -75 0 -113 -1l-31 -84
c-9 -25 -17 -49 -17 -68c0 -23 12 -40 46 -44v-5c-22 1 -56 2 -93 2c-34 0 -47 -1 -68 -2v5c51 12 67 24 110 138l226 601h10l210 -664c20 -63 22 -70 60 -75zM362 319l-88 284l-104 -283c31 -1 62 -1 94 -1h98zM390 230l-19 60h-107c-36 0 -70 0 -106 -1l-22 -59
c34 -1 68 -1 102 -1c51 0 101 0 152 1z" />
    <glyph glyph-name="abreve.alt" horiz-adv-x="438" 
d="M414 3v-5c-22 1 -38 2 -55 2c-33 0 -44 -1 -54 -2c1 8 2 22 2 45v10c-39 -38 -92 -63 -149 -63c-85 0 -128 53 -128 110c0 70 62 127 161 127c41 0 86 -12 116 -33v169c0 63 -24 99 -91 99c-54 0 -113 -40 -116 -126h-51c14 90 89 144 175 144c72 0 147 -23 147 -130
v-256c0 -80 13 -85 43 -91zM307 73v103c-21 20 -58 32 -96 32c-72 0 -109 -52 -109 -102c0 -45 30 -88 91 -88c46 0 85 22 114 55zM317 663h22c0 -60 -47 -133 -130 -133c-84 0 -131 73 -131 133h22c11 -61 42 -96 108 -96c70 0 92 35 109 96z" />
    </font>
</defs>
</svg>
