<?xml version="1.0" encoding="UTF-8"?>
<svg width="24px" height="27px" viewBox="0 0 24 27" version="1.1" xmlns="http://www.w3.org/2000/svg" xmlns:xlink="http://www.w3.org/1999/xlink">
    <!-- Generator: sketchtool 51.3 (57544) - http://www.bohemiancoding.com/sketch -->
    <title>53C11670-E772-4487-9EBF-762D70998841</title>
    <desc>Created with sketchtool.</desc>
    <defs></defs>
    <g id="style-guide" stroke="none" stroke-width="1" fill="none" fill-rule="evenodd">
        <g id="icons" transform="translate(-432.000000, -132.000000)" fill="#030303" fill-rule="nonzero">
            <g id="shopping_bag_ico" transform="translate(432.000000, 132.000000)">
                <path d="M2,9 L2,22 C2,23.6568542 3.34314575,25 5,25 L19,25 C20.6568542,25 22,23.6568542 22,22 L22,9 L2,9 Z M0,7 L24,7 L24,22 C24,24.7614237 21.7614237,27 19,27 L5,27 C2.23857625,27 1.2263553e-15,24.7614237 8.8817842e-16,22 L0,7 Z" id="Rectangle"></path>
                <path d="M8,11 C8,11.5522847 7.55228475,12 7,12 C6.44771525,12 6,11.5522847 6,11 L6,6 C6,2.6862915 8.6862915,0 12,0 C15.3137085,0 18,2.6862915 18,6 L18,11 C18,11.5522847 17.5522847,12 17,12 C16.4477153,12 16,11.5522847 16,11 L16,6 C16,3.790861 14.209139,2 12,2 C9.790861,2 8,3.790861 8,6 L8,11 Z" id="Path-2"></path>
            </g>
        </g>
    </g>
</svg>