<?xml version="1.0" standalone="no"?>
<!DOCTYPE svg PUBLIC "-//W3C//DTD SVG 1.1//EN" "http://www.w3.org/Graphics/SVG/1.1/DTD/svg11.dtd" >
<svg xmlns="http://www.w3.org/2000/svg" xmlns:xlink="http://www.w3.org/1999/xlink" version="1.1">
<metadata>
Created by FontForge 20170924 at Fri Jun  9 16:19:02 2017
 By www-data
Copyright (C)2016 Commercial Type.
</metadata>
<defs>
<font id="." horiz-adv-x="600" >
  <font-face 
    font-family="."
    font-weight="400"
    font-stretch="normal"
    units-per-em="1000"
    panose-1="0 0 0 0 0 0 0 0 0 0"
    ascent="800"
    descent="-200"
    x-height="494"
    cap-height="710"
    bbox="-115 -325 1379 1201"
    underline-thickness="76"
    underline-position="-76"
    unicode-range="U+000D-FB02"
  />
<missing-glyph horiz-adv-x="265" 
 />
    <glyph glyph-name=".notdef" horiz-adv-x="265" 
 />
    <glyph glyph-name=".null" horiz-adv-x="0" 
 />
    <glyph glyph-name=".null" horiz-adv-x="0" 
 />
    <glyph glyph-name="nonmarkingreturn" unicode="&#xd;" horiz-adv-x="265" 
 />
    <glyph glyph-name="space" unicode=" " horiz-adv-x="265" 
 />
    <glyph glyph-name="percent" unicode="%" horiz-adv-x="1014" 
d="M252 356q-39 0 -72 14t-57.5 38.5t-38.5 58t-14 72.5t14 72.5t38.5 58t57.5 38.5t72 14t72 -14t57.5 -38.5t38.5 -58t14 -72.5t-14 -72.5t-38.5 -58t-57.5 -38.5t-72 -14zM710 710h95l-503 -710h-94zM252 430q46 0 74.5 31t28.5 78t-28.5 78t-74.5 31t-74.5 -31
t-28.5 -78t28.5 -78t74.5 -31zM762 -14q-39 0 -72 14t-57.5 38.5t-38.5 58t-14 72.5t14 72.5t38.5 58t57.5 38.5t72 14t72 -14t57.5 -38.5t38.5 -58t14 -72.5t-14 -72.5t-38.5 -58t-57.5 -38.5t-72 -14zM762 60q46 0 74.5 31t28.5 78t-28.5 78t-74.5 31t-74.5 -31t-28.5 -78
t28.5 -78t74.5 -31z" />
    <glyph glyph-name="ampersand" unicode="&#x26;" horiz-adv-x="780" 
d="M511 119q-26 -29 -51.5 -53t-54 -41.5t-61 -27t-72.5 -9.5q-48 0 -87 13t-67.5 37t-44 58t-15.5 76q0 39 14 71t37.5 58.5t54.5 48t65 41.5q-39 40 -64.5 80t-25.5 88q0 34 13.5 64t38 52t58.5 34.5t75 12.5q42 0 75.5 -12t57.5 -33t36.5 -51t12.5 -66q0 -32 -12.5 -58.5
t-32 -48.5t-44 -40.5t-48.5 -34.5l139 -138l135 154h109l-185 -212l183 -182h-116zM234 560q0 -35 25 -66.5t58 -63.5q41 29 69 59.5t28 70.5t-25.5 62.5t-64.5 22.5t-64.5 -23.5t-25.5 -61.5zM154 175q0 -45 32 -74t86 -29q51 0 92 26.5t88 77.5l-166 160
q-26 -17 -49.5 -33.5t-42 -35.5t-29.5 -41.5t-11 -50.5z" />
    <glyph glyph-name="quotesingle" unicode="'" horiz-adv-x="287" 
d="M102 405v305h83v-305h-83z" />
    <glyph glyph-name="parenleft" unicode="(" horiz-adv-x="356" 
d="M292 822q-18 -35 -39.5 -80t-39.5 -103.5t-30 -130t-12 -158.5t12 -159t30 -130.5t39.5 -104.5t39.5 -80h-83q-18 34 -39 81t-38.5 106t-29.5 130.5t-12 156.5t12 156.5t29.5 130t38.5 104.5t39 81h83v0z" />
    <glyph glyph-name="parenright" unicode=")" horiz-adv-x="356" 
d="M64 -124q18 34 39.5 80t39.5 104.5t30 130.5t12 159t-12 158.5t-30 130t-39.5 103.5t-39.5 80h83q18 -35 39 -81t38.5 -104.5t29.5 -130t12 -156.5t-12 -156.5t-29.5 -130.5t-38.5 -106t-39 -81h-83v0z" />
    <glyph glyph-name="asterisk" unicode="*" horiz-adv-x="479" 
d="M336 369l-96 124l-96 -124l-52 38l97 124l-141 47l21 61l136 -45v142h68v-143l137 46l21 -61l-140 -47l97 -124z" />
    <glyph glyph-name="plus" unicode="+" horiz-adv-x="686" 
d="M384 276v-226h-82v226h-218v78h218v226h82v-226h218v-78h-218z" />
    <glyph glyph-name="comma" unicode="," horiz-adv-x="292" 
d="M66 -214q27 45 50.5 99t25.5 115h-54v142h116v-134q0 -33 -6 -65t-15 -60.5t-20.5 -53t-22.5 -43.5h-74z" />
    <glyph glyph-name="hyphen" unicode="-" horiz-adv-x="496" 
d="M84 338h328v-86h-328v86z" />
    <glyph glyph-name="period" unicode="." horiz-adv-x="292" 
d="M88 142h116v-142h-116v142z" />
    <glyph glyph-name="slash" unicode="/" horiz-adv-x="414" 
d="M290 760h82l-254 -830h-82z" />
    <glyph glyph-name="zero" unicode="0" horiz-adv-x="692" 
d="M346 722q56 0 102 -17.5t78.5 -51t50 -81.5t17.5 -109v-216q0 -64 -18 -112.5t-51 -81t-78.5 -49t-100.5 -16.5t-100.5 16.5t-78.5 49t-51 81t-18 112.5v216q0 61 17.5 109t50 81.5t78.5 51t102 17.5zM346 76q38 0 66.5 13t47.5 36t28.5 54.5t9.5 68.5v214
q0 37 -9.5 68.5t-28.5 54.5t-47.5 36t-66.5 13t-66.5 -13t-47.5 -36t-28.5 -54.5t-9.5 -68.5v-214q0 -37 9.5 -68.5t28.5 -54.5t47.5 -36t66.5 -13z" />
    <glyph glyph-name="one" unicode="1" horiz-adv-x="445" 
d="M323 0h-97v600l-176 -102v92l201 123h72v-713z" />
    <glyph glyph-name="two" unicode="2" horiz-adv-x="618" 
d="M574 0h-499v60l240 237q29 29 51.5 54t38 49t23.5 49t8 54q0 59 -35 95t-97 36t-97 -39t-35 -100v-46h-95v47q0 49 15.5 90.5t45 71.5t71.5 47t95 17t95.5 -16.5t72 -46t45.5 -69.5t16 -87q0 -42 -12 -77.5t-33 -67t-49 -61.5t-61 -62l-150 -147h346v-88z" />
    <glyph glyph-name="three" unicode="3" horiz-adv-x="642" 
d="M570 194q0 -46 -17 -84t-49.5 -65t-79.5 -42t-107 -15q-63 0 -109 17.5t-77 46t-47 64.5t-19 72h97q4 -21 15 -41t30 -35.5t46.5 -25.5t63.5 -10q71 0 113 32.5t42 91.5q0 60 -38 91.5t-107 31.5h-125v88h128q57 0 89 29t32 83q0 53 -38 82.5t-98 29.5q-63 0 -95 -31
t-40 -76h-96q2 34 16.5 68.5t42.5 62.5t70.5 45.5t100.5 17.5q56 0 99.5 -14.5t73 -40.5t45 -62t15.5 -78q0 -33 -9.5 -58.5t-24 -44.5t-32 -31.5t-33.5 -19.5q20 -6 41.5 -18.5t39.5 -34.5t29.5 -53t11.5 -73z" />
    <glyph glyph-name="four" unicode="4" horiz-adv-x="688" 
d="M499 219v-219h-94v219h-360v53l348 438h106v-407h151v-84h-151zM405 303v295l-232 -295h232z" />
    <glyph glyph-name="five" unicode="5" horiz-adv-x="651" 
d="M114 710h436v-88h-344v-206q21 21 56.5 36.5t87.5 15.5q46 0 87 -15.5t72 -45.5t49.5 -73.5t18.5 -99.5v-11q0 -52 -18 -95t-50.5 -74t-78.5 -48.5t-102 -17.5q-61 0 -106.5 17.5t-76 46t-47 66t-19.5 78.5h95q3 -18 11.5 -39t26.5 -39t46.5 -30t69.5 -12q34 0 62 11
t48.5 30.5t31.5 46.5t11 59v10q0 68 -42 107.5t-111 39.5q-33 0 -57 -8t-39.5 -19t-24.5 -22t-13 -17h-80v396z" />
    <glyph glyph-name="six" unicode="6" horiz-adv-x="654" 
d="M582 230q0 -51 -17.5 -95t-50.5 -77t-80.5 -51.5t-107.5 -18.5q-61 0 -108 18t-79.5 50.5t-49.5 76.5t-17 97q0 40 9 75t25 66.5t36.5 61t44.5 60.5l166 217h115l-207 -263q18 10 41.5 15.5t52.5 5.5q49 0 91 -16.5t72 -47.5t47 -75t17 -99zM485 230q0 33 -10 61.5
t-30.5 49.5t-50 33t-68.5 12q-36 0 -65 -12t-49.5 -33t-31.5 -49.5t-11 -61.5q0 -32 10.5 -60t30.5 -49t49 -33t67 -12q39 0 68.5 12t50 33t30.5 49t10 60z" />
    <glyph glyph-name="seven" unicode="7" horiz-adv-x="618" 
d="M211 0h-106l348 622h-388v88h498v-73z" />
    <glyph glyph-name="eight" unicode="8" horiz-adv-x="670" 
d="M590 192q0 -45 -17 -82.5t-48.5 -64.5t-76.5 -42t-102 -15h-27q-55 0 -99.5 15t-75.5 42t-47.5 64.5t-16.5 82.5q0 38 12 67.5t31 51t41 35.5t43 20q-19 6 -39 18t-36.5 32t-27 47t-10.5 63q0 42 15 78t44 62t71.5 41t97.5 15h26q55 0 98 -15t71.5 -41t43.5 -62t15 -78
q0 -36 -10.5 -63t-27 -47t-36.5 -32t-39 -18q21 -6 43 -20t41 -35.5t31 -51t12 -67.5zM322 636q-60 0 -96 -31t-36 -83t36 -83t96 -31h26q60 0 96 31t36 83t-36 83t-96 31h-26zM320 322q-63 0 -102.5 -33.5t-39.5 -90.5t39.5 -90.5t102.5 -33.5h30q64 0 103 33.5t39 90.5
t-39 90.5t-103 33.5h-30z" />
    <glyph glyph-name="nine" unicode="9" horiz-adv-x="654" 
d="M301 0h-115l207 263q-18 -10 -41.5 -15.5t-52.5 -5.5q-50 0 -91.5 16.5t-71.5 47.5t-47 75t-17 99q0 51 17.5 95t50.5 77t80.5 51.5t107.5 18.5q61 0 108 -18t79.5 -50.5t49.5 -77t17 -96.5q0 -41 -9 -75.5t-25 -66t-36.5 -61t-44.5 -60.5zM169 480q0 -33 10 -61.5
t30.5 -49.5t50 -33t68.5 -12q36 0 65 12t49.5 33t31.5 49.5t11 61.5q0 31 -10.5 59t-30.5 49t-49.5 33.5t-66.5 12.5q-39 0 -68.5 -12.5t-50 -33.5t-30.5 -49t-10 -59z" />
    <glyph glyph-name="colon" unicode=":" horiz-adv-x="302" 
d="M93 142h116v-142h-116v142zM93 485h116v-142h-116v142z" />
    <glyph glyph-name="semicolon" unicode=";" horiz-adv-x="302" 
d="M93 485h116v-142h-116v142zM71 -214q27 45 50.5 99t25.5 115h-54v142h116v-134q0 -33 -6 -65t-15 -60.5t-20.5 -53t-22.5 -43.5h-74z" />
    <glyph glyph-name="less" unicode="&#x3c;" horiz-adv-x="639" 
d="M545 60l-461 201v69l461 201v-89l-352 -148l352 -147v-87z" />
    <glyph glyph-name="equal" unicode="=" horiz-adv-x="704" 
d="M88 370v77h528v-77h-528zM88 166v77h528v-77h-528z" />
    <glyph glyph-name="greater" unicode="&#x3e;" horiz-adv-x="639" 
d="M94 60v89l352 148l-352 147v87l461 -201v-69z" />
    <glyph glyph-name="question" unicode="?" horiz-adv-x="544" 
d="M165 232v8q0 22 3 38.5t11 31t23 27.5t39 30l72 50q33 23 56 51t23 69q0 47 -29.5 75t-82.5 28q-54 0 -83.5 -33.5t-29.5 -84.5v-32h-89v35q0 91 54 144t148 53q97 0 151 -50t54 -135q0 -66 -32 -108.5t-90 -81.5l-72 -49q-20 -14 -27 -28.5t-7 -37.5h-92zM153 142h116
v-142h-116v142z" />
    <glyph glyph-name="at" unicode="@" horiz-adv-x="1055" 
d="M948 -8q-16 -24 -47.5 -54t-80 -56t-114.5 -43.5t-151 -17.5q-116 0 -206.5 35.5t-152.5 97.5t-94.5 146t-32.5 180q0 101 35.5 187t99.5 148.5t151.5 97.5t192.5 35q108 0 190 -32t137 -85.5t83 -123.5t28 -146q0 -63 -16.5 -117.5t-46 -94t-70 -62t-89.5 -22.5
q-55 0 -83.5 21t-36.5 50q-17 -26 -53 -48.5t-92 -22.5q-44 0 -81 14t-64 41t-42 66t-15 89q0 47 15.5 89t44.5 73t70.5 49t92.5 18q32 0 57 -7.5t43.5 -19.5t30.5 -26.5t18 -27.5l14 76h84l-51 -288q-6 -35 5 -54.5t45 -19.5q25 0 49.5 14t44.5 41.5t32.5 70t12.5 99.5
q0 68 -24 125.5t-69.5 99.5t-112 65.5t-151.5 23.5q-86 0 -158.5 -28.5t-125.5 -80.5t-83 -125.5t-30 -163.5q0 -85 28.5 -155.5t81 -121.5t127.5 -79t167 -28q63 0 111.5 11t85 26t61.5 32t39 29h96zM527 422q-32 0 -57.5 -11.5t-43.5 -31.5t-27.5 -47t-9.5 -59
q0 -57 30.5 -91.5t89.5 -34.5q31 0 56.5 11.5t43.5 31.5t28 47t10 59q0 57 -30 91.5t-90 34.5z" />
    <glyph glyph-name="A" unicode="A" horiz-adv-x="800" 
d="M586 171h-378l-79 -171h-96l328 714h77l329 -714h-102zM546 259l-149 324l-149 -324h298z" />
    <glyph glyph-name="B" unicode="B" horiz-adv-x="784" 
d="M110 710h348q116 0 177 -50t61 -142q0 -29 -10 -53t-26 -42t-36.5 -31t-41.5 -19q26 -7 49.5 -21.5t41 -36t28 -49.5t10.5 -62q0 -94 -61.5 -149t-184.5 -55h-355v710zM206 621v-210h250q70 0 105 27t35 78q0 105 -140 105h-250zM206 322v-233h257q78 0 114 31t36 86
q0 56 -36.5 86t-113.5 30h-257z" />
    <glyph glyph-name="C" unicode="C" horiz-adv-x="809" 
d="M420 -12q-76 0 -140.5 28.5t-111 78t-73 116.5t-26.5 144t26.5 144t73.5 116.5t111 78t140 28.5q78 0 135.5 -22.5t97 -55.5t62.5 -71.5t32 -70.5h-101q-9 19 -27.5 41.5t-46.5 42t-66 32.5t-86 13q-57 0 -103 -22t-79 -60t-50.5 -88t-17.5 -106t17.5 -106t50.5 -88
t79 -60t103 -22q54 0 93 14t66 34t43.5 42.5t25.5 39.5h99q-8 -30 -29.5 -68.5t-60.5 -72t-97.5 -57t-139.5 -23.5z" />
    <glyph glyph-name="D" unicode="D" horiz-adv-x="832" 
d="M110 710h280q85 0 154 -25t117.5 -71.5t74.5 -112t26 -146.5q0 -80 -26 -145t-74 -112t-117 -72.5t-155 -25.5h-280v710zM207 621v-532h183q63 0 113.5 19t85.5 53.5t54 83.5t19 110q0 63 -19 112t-54 83.5t-85.5 52.5t-113.5 18h-183z" />
    <glyph glyph-name="E" unicode="E" horiz-adv-x="749" 
d="M110 710h556v-90h-460v-198h275v-90h-275v-242h500v-90h-596v710z" />
    <glyph glyph-name="F" unicode="F" horiz-adv-x="724" 
d="M110 710h576v-91h-479v-197h279v-91h-279v-331h-97v710z" />
    <glyph glyph-name="G" unicode="G" horiz-adv-x="847" 
d="M758 98q-20 -20 -48.5 -39.5t-67 -35t-86.5 -25.5t-108 -10q-85 0 -155 27t-119.5 76t-77 116.5t-27.5 148.5q0 79 27 146t75 116t114 76.5t144 27.5q74 0 128 -18.5t91 -46t59 -59.5t32 -59h-101q-9 12 -25.5 28t-42 30.5t-60.5 24.5t-81 10q-60 0 -108.5 -21.5
t-82 -58.5t-51.5 -87.5t-18 -108.5q0 -63 20 -114t57 -87.5t88.5 -56.5t113.5 -20q81 0 135.5 18.5t82.5 39.5v175h-280v87h372v-300v0z" />
    <glyph glyph-name="H" unicode="H" horiz-adv-x="850" 
d="M643 313h-436v-313h-97v710h97v-307h436v307h97v-710h-97v313z" />
    <glyph glyph-name="I" unicode="I" horiz-adv-x="319" 
d="M111 710h97v-710h-97v710z" />
    <glyph glyph-name="J" unicode="J" horiz-adv-x="663" 
d="M556 223q0 -58 -17 -101.5t-48 -73t-74.5 -44.5t-95.5 -15q-51 0 -93.5 15t-73.5 44t-48 73t-17 102v189h96v-189q0 -66 36.5 -104t99.5 -38q66 0 102 38t36 104v487h97v-487v0z" />
    <glyph glyph-name="K" unicode="K" horiz-adv-x="780" 
d="M207 330v-330h-97v710h97v-328l409 328h137l-435 -348l453 -362h-139z" />
    <glyph glyph-name="L" unicode="L" horiz-adv-x="704" 
d="M666 0h-556v710h97v-619h459v-91z" />
    <glyph glyph-name="M" unicode="M" horiz-adv-x="1009" 
d="M507 134l247 576h145v-710h-92v626l-271 -630h-67l-269 626v-622h-90v710h150z" />
    <glyph glyph-name="N" unicode="N" horiz-adv-x="860" 
d="M750 -5h-69l-478 601v-596h-93v710h118l429 -544v544h93v-715z" />
    <glyph glyph-name="O" unicode="O" horiz-adv-x="872" 
d="M436 -12q-80 0 -147 28t-116 77t-76.5 116.5t-27.5 145.5t28 145t77 116.5t116 77.5t146 28q78 0 145.5 -28t116.5 -77.5t77 -116.5t28 -145t-28 -145t-77 -116.5t-116.5 -77.5t-145.5 -28zM436 78q60 0 109 22t84.5 59.5t54.5 88t19 107.5t-19 107t-54.5 88t-84.5 60
t-109 22t-109 -22t-84.5 -59.5t-54.5 -88t-19 -107.5q0 -58 19 -108.5t54.5 -88t84.5 -59t109 -21.5z" />
    <glyph glyph-name="P" unicode="P" horiz-adv-x="778" 
d="M110 710h369q118 0 178.5 -53.5t60.5 -151.5q0 -94 -60.5 -151.5t-178.5 -57.5h-272v-296h-97v710zM207 620v-234h275q69 0 102.5 33t33.5 84q0 56 -33.5 86.5t-102.5 30.5h-275z" />
    <glyph glyph-name="Q" unicode="Q" horiz-adv-x="872" 
d="M803 355q0 -59 -16 -111.5t-45.5 -96.5t-70.5 -77.5t-91 -54.5l184 -167h-132l-160 142q-9 -1 -18 -1.5t-18 -0.5q-79 0 -146 28t-116 77.5t-77 116.5t-28 145t28 145t77 116.5t116 77.5t146 28q78 0 145.5 -28t116.5 -77.5t77 -116.5t28 -145zM436 78q60 0 109 22
t84.5 59.5t54.5 88t19 107.5t-19 107t-54.5 88t-84.5 60t-109 22t-109 -22t-84.5 -59.5t-54.5 -88t-19 -107.5q0 -58 19 -108.5t54.5 -88t84.5 -59t109 -21.5z" />
    <glyph glyph-name="R" unicode="R" horiz-adv-x="803" 
d="M110 710h377q115 0 174.5 -50.5t59.5 -150.5q0 -71 -37 -118t-108 -65l172 -326h-103l-170 316h-268v-316h-97v710zM207 620v-215h277q69 0 103 25t34 79q0 58 -34 84.5t-103 26.5h-277z" />
    <glyph glyph-name="S" unicode="S" horiz-adv-x="752" 
d="M346 633q-86 0 -129 -28.5t-43 -76.5q0 -44 35 -69t101 -33l139 -16q45 -5 87 -18t74.5 -37.5t52 -62.5t19.5 -93q0 -43 -17.5 -81.5t-53.5 -67.5t-90.5 -46t-127.5 -17q-83 0 -142 19t-99 50t-64 69.5t-36 77.5h104q9 -20 25.5 -42.5t45 -41.5t69 -31t97.5 -12
q93 0 142.5 33.5t49.5 84.5q0 31 -10.5 52.5t-29.5 35t-45.5 21t-58.5 11.5l-140 15q-48 5 -89 19.5t-71 39t-47 59t-17 81.5q0 43 19 79t54.5 61.5t85 39.5t110.5 14q79 0 136 -17.5t94.5 -45.5t58.5 -62.5t30 -67.5h-101q-9 18 -25 36.5t-42 33.5t-63 24.5t-88 9.5z" />
    <glyph glyph-name="T" unicode="T" horiz-adv-x="767" 
d="M40 710h687v-90h-295v-620h-97v620h-295v90z" />
    <glyph glyph-name="U" unicode="U" horiz-adv-x="841" 
d="M421 81q52 0 92 16.5t68 46.5t42.5 71.5t14.5 92.5v402h96v-410q0 -65 -20 -121.5t-60 -99t-98.5 -67t-134.5 -24.5q-80 0 -139 24.5t-98 66.5t-58 99t-19 122v410h97v-402q0 -51 14 -92.5t42 -71.5t68 -46.5t93 -16.5z" />
    <glyph glyph-name="V" unicode="V" horiz-adv-x="797" 
d="M447 -3h-91l-318 713h110l256 -587l256 587h99z" />
    <glyph glyph-name="W" unicode="W" horiz-adv-x="1129" 
d="M566 558l-200 -562h-79l-244 714h105l184 -557l196 561h81l197 -566l186 562h94l-237 -714h-84z" />
    <glyph glyph-name="X" unicode="X" horiz-adv-x="813" 
d="M403 292l-253 -292h-116l310 360l-304 350h128l239 -278l240 278h119l-300 -346l313 -364h-122z" />
    <glyph glyph-name="Y" unicode="Y" horiz-adv-x="765" 
d="M434 0h-97v300l-322 410h123l250 -321l249 321h113l-316 -408v-302z" />
    <glyph glyph-name="Z" unicode="Z" horiz-adv-x="782" 
d="M737 0h-682v57l482 563h-472v90h622v-57l-486 -563h536v-90z" />
    <glyph glyph-name="bracketleft" unicode="[" horiz-adv-x="381" 
d="M110 822h246v-68h-168v-810h168v-68h-246v946z" />
    <glyph glyph-name="backslash" unicode="\" horiz-adv-x="414" 
d="M297 -70l-255 830h82l254 -830h-81z" />
    <glyph glyph-name="bracketright" unicode="]" horiz-adv-x="381" 
d="M25 822h246v-946h-246v68h168v810h-168v68z" />
    <glyph glyph-name="asciicircum" unicode="^" horiz-adv-x="585" 
d="M291 596l-152 -333h-89l205 453h73l207 -453h-93z" />
    <glyph glyph-name="underscore" unicode="_" horiz-adv-x="624" 
d="M44 -76h536v-76h-536v76z" />
    <glyph glyph-name="grave" unicode="`" 
d="M311 579l-115 183h100l108 -183h-93z" />
    <glyph glyph-name="a" unicode="a" horiz-adv-x="659" 
d="M474 85q-5 -9 -17 -25.5t-33 -32.5t-52 -27.5t-73 -11.5q-49 0 -92.5 17.5t-76.5 51t-52.5 81.5t-19.5 109q0 60 19.5 108t52.5 81.5t76.5 51.5t92.5 18q40 0 71 -11t52.5 -26t34 -31t17.5 -26v82h91v-494h-91v85zM476 247q0 37 -11.5 69t-32.5 55.5t-50.5 37t-65.5 13.5
q-37 0 -67.5 -13.5t-52 -37t-33 -55.5t-11.5 -69t11.5 -69t33 -55.5t52 -37t67.5 -13.5q36 0 65.5 13.5t50.5 37t32.5 55.5t11.5 69z" />
    <glyph glyph-name="b" unicode="b" horiz-adv-x="665" 
d="M184 0h-90v736h90v-326q4 9 17 25.5t35.5 32t54 27t73.5 11.5q49 0 93.5 -17.5t77.5 -51t52.5 -81.5t19.5 -109t-19.5 -109t-52.5 -81.5t-77.5 -51t-93.5 -17.5q-41 0 -72.5 11t-54 26t-36 30.5t-17.5 24.5v-80zM182 247q0 -37 12 -69t33.5 -55.5t52 -37t68.5 -13.5
q37 0 68 13.5t52.5 37t33.5 55.5t12 69t-12 69.5t-33.5 55.5t-52.5 36.5t-68 13.5q-38 0 -68.5 -13.5t-52 -36.5t-33.5 -55.5t-12 -69.5z" />
    <glyph glyph-name="c" unicode="c" horiz-adv-x="594" 
d="M451 340q-3 6 -12 19.5t-26 27.5t-43 24.5t-63 10.5q-34 0 -62.5 -13.5t-49.5 -37.5t-32.5 -56t-11.5 -68t11.5 -68t32.5 -56t49.5 -37.5t63.5 -13.5q37 0 63.5 10.5t43.5 24t26 27.5t12 20h90q-2 -13 -14 -40.5t-39 -55.5t-71.5 -49t-110.5 -21q-53 0 -99 20t-79.5 55
t-53 82t-19.5 102t19 102t53 82t79.5 55t98.5 20q67 0 111 -20.5t71 -48.5t39 -55.5t15 -41.5h-92v0z" />
    <glyph glyph-name="d" unicode="d" horiz-adv-x="667" 
d="M482 85q-5 -9 -17.5 -25.5t-35 -32t-54 -27.5t-73.5 -12q-50 0 -94 17.5t-77.5 51t-53 81.5t-19.5 109t19.5 109t53 81.5t77.5 51t94 17.5q42 0 73.5 -11t53.5 -26t35 -31t18 -26v324h91v-736h-91v85zM484 247q0 37 -12 69.5t-33.5 55.5t-52 36.5t-67.5 13.5
q-38 0 -69 -13.5t-52.5 -36.5t-33.5 -55.5t-12 -69.5q0 -38 12 -70t33.5 -55t52.5 -36.5t69 -13.5q37 0 67.5 13.5t52 36.5t33.5 55t12 70z" />
    <glyph glyph-name="e" unicode="e" horiz-adv-x="612" 
d="M308 506q54 0 100.5 -19.5t80 -55t52.5 -85t19 -110.5h-411q2 -35 15 -64.5t34.5 -52t52 -35t66.5 -12.5q37 0 63.5 8.5t44 20t27 23t12.5 17.5h90q-3 -16 -17 -42t-42 -50.5t-72 -42.5t-106 -18q-57 0 -105 20t-82.5 55t-53.5 82.5t-19 101.5q0 56 19 103.5t52.5 82
t79.5 54t100 19.5zM308 428q-60 0 -99.5 -31t-53.5 -85h304q-17 56 -56 86t-95 30z" />
    <glyph glyph-name="f" unicode="f" horiz-adv-x="489" 
d="M267 412v-412h-91v412h-146v82h146v78q0 79 42.5 121.5t133.5 42.5h199v-82h-189q-50 0 -72.5 -24t-22.5 -71v-65h192v-82h-192z" />
    <glyph glyph-name="g" unicode="g" horiz-adv-x="667" 
d="M482 84q-5 -10 -17.5 -26.5t-35 -32t-54 -27t-73.5 -11.5q-50 0 -94 17.5t-77.5 51t-53 81.5t-19.5 109t19.5 109.5t53 82t77.5 51t94 17.5q42 0 73.5 -11t53.5 -26.5t35 -31.5t18 -26v83h91v-494q0 -52 -16.5 -95.5t-49.5 -74.5t-81.5 -48.5t-111.5 -17.5q-72 0 -119 20
t-76 46.5t-41.5 52t-15.5 37.5h100q3 -5 11.5 -16.5t26 -24t45.5 -22t69 -9.5q81 0 124.5 40t43.5 112v84zM484 246q0 37 -12 69.5t-33.5 56t-52 37t-67.5 13.5q-38 0 -69 -13.5t-52.5 -37t-33.5 -56t-12 -69.5q0 -36 12 -68t33.5 -56t52.5 -37.5t69 -13.5q37 0 67.5 13.5
t52 37.5t33.5 56t12 68z" />
    <glyph glyph-name="h" unicode="h" horiz-adv-x="652" 
d="M185 0h-91v736h91v-333q7 15 21.5 33t35.5 33t48.5 25.5t62.5 10.5q47 0 86 -16.5t66.5 -46t43 -70t15.5 -88.5v-284h-92v267q0 70 -38.5 112t-102.5 42q-33 0 -60 -11.5t-46 -32t-29.5 -48.5t-10.5 -62v-267z" />
    <glyph glyph-name="i" unicode="i" horiz-adv-x="281" 
d="M93 732h95v-143h-95v143zM95 494h91v-494h-91v494z" />
    <glyph glyph-name="j" unicode="j" horiz-adv-x="281" 
d="M93 732h95v-143h-95v143zM186 -53q0 -85 -41.5 -128t-126.5 -43h-133v85h118q92 0 92 96v537h91v-547z" />
    <glyph glyph-name="k" unicode="k" horiz-adv-x="591" 
d="M182 228v-228h-88v736h88v-451l258 209h130l-292 -233l305 -261h-129z" />
    <glyph glyph-name="l" unicode="l" horiz-adv-x="283" 
d="M96 736h91v-736h-91v736z" />
    <glyph glyph-name="m" unicode="m" horiz-adv-x="1019" 
d="M185 0h-91v494h91v-91q7 15 21 33t35 33t48.5 25.5t61.5 10.5q66 0 114.5 -32.5t72.5 -87.5q8 18 22.5 39t37 39t53 30t69.5 12q47 0 86 -16.5t66.5 -46t43 -70t15.5 -88.5v-284h-92v267q0 69 -37 111.5t-100 42.5q-33 0 -59.5 -11.5t-45 -32t-29 -49t-10.5 -61.5v-267
h-92v267q0 69 -37 111.5t-100 42.5q-33 0 -59.5 -11.5t-45 -32t-29 -49t-10.5 -61.5v-267z" />
    <glyph glyph-name="n" unicode="n" horiz-adv-x="652" 
d="M185 0h-91v494h91v-91q7 15 21.5 33t35.5 33t48.5 25.5t62.5 10.5q47 0 86 -16.5t66.5 -46t43 -70t15.5 -88.5v-284h-92v267q0 70 -38.5 112t-102.5 42q-33 0 -60 -11.5t-46 -32t-29.5 -48.5t-10.5 -62v-267z" />
    <glyph glyph-name="o" unicode="o" horiz-adv-x="634" 
d="M317 506q55 0 102.5 -20t82.5 -54.5t55 -82t20 -102.5t-20 -102.5t-55 -82t-82.5 -54.5t-102.5 -20q-56 0 -103.5 20t-82 54.5t-54.5 82t-20 102.5t20 102.5t54.5 82t82 54.5t103.5 20zM317 72q37 0 67.5 13.5t52.5 37t34 55.5t12 69t-12 69t-34 55.5t-52.5 37
t-67.5 13.5t-67.5 -13.5t-52.5 -37.5t-34 -56t-12 -68t12 -68t34 -56t52.5 -37.5t67.5 -13.5z" />
    <glyph glyph-name="p" unicode="p" horiz-adv-x="665" 
d="M184 -224h-90v718h90v-85q4 9 17.5 25.5t35.5 32.5t53.5 27.5t73.5 11.5q49 0 93.5 -17.5t77.5 -51t52.5 -81.5t19.5 -109q0 -62 -19.5 -110t-52.5 -81t-77.5 -50.5t-93.5 -17.5q-41 0 -72.5 11t-54 26t-36 30.5t-17.5 24.5v-304zM182 247q0 -37 12 -69t33.5 -55.5
t52 -37t68.5 -13.5q37 0 68 13.5t52.5 37t33.5 55.5t12 69t-12 69t-33.5 55.5t-52.5 37t-68 13.5q-38 0 -68.5 -13.5t-52 -37t-33.5 -55.5t-12 -69z" />
    <glyph glyph-name="q" unicode="q" horiz-adv-x="667" 
d="M482 85q-5 -9 -17.5 -25.5t-35 -32t-54 -27.5t-73.5 -12q-50 0 -94 17.5t-77.5 50.5t-53 81t-19.5 110q0 61 19.5 109t53 81.5t77.5 51t94 17.5q41 0 72.5 -11.5t54 -26.5t35.5 -31t18 -25v82h91v-717h-91v308zM484 247q0 37 -12 69t-34 55.5t-52 37t-67 13.5
q-38 0 -69 -13.5t-52.5 -37t-33.5 -55.5t-12 -69t12 -69t33.5 -55.5t52.5 -37t69 -13.5q37 0 67 13.5t52 37t34 55.5t12 69z" />
    <glyph glyph-name="r" unicode="r" horiz-adv-x="514" 
d="M185 0h-91v494h91v-91q5 13 16.5 30t31.5 31t50 24t74 10h124v-91h-126q-95 0 -132.5 -31t-37.5 -97v-279z" />
    <glyph glyph-name="s" unicode="s" horiz-adv-x="565" 
d="M225 217q-71 8 -116.5 43.5t-45.5 103.5q0 33 14.5 59.5t41.5 45t64.5 29t82.5 10.5q62 0 105 -14t70.5 -35t41.5 -44.5t20 -42.5h-97q-4 5 -13.5 14.5t-26 19.5t-41.5 17t-59 7q-56 0 -84.5 -18t-28.5 -45q0 -26 20 -42.5t64 -21.5q29 -4 51.5 -6t54.5 -6
q88 -11 127.5 -49.5t39.5 -106.5q0 -31 -14 -58t-41.5 -47.5t-68 -32t-92.5 -11.5q-65 0 -110.5 17.5t-74 41.5t-43 50t-18.5 43h97q2 -6 11 -18t26.5 -24t45 -21t66.5 -9q63 0 94 20t31 49t-19 46.5t-69 23.5z" />
    <glyph glyph-name="t" unicode="t" horiz-adv-x="516" 
d="M466 0h-117q-173 0 -173 165v247h-146v82h146v216h91v-216h199v-82h-199v-226q0 -54 21.5 -78t80.5 -24h97v-84z" />
    <glyph glyph-name="u" unicode="u" horiz-adv-x="639" 
d="M320 -11q-53 0 -96 16.5t-73 46t-46.5 69.5t-16.5 88v285h91v-268q0 -69 36.5 -110.5t103.5 -41.5t103.5 41.5t36.5 110.5v268h92v-285q0 -48 -16 -88t-46 -69.5t-73 -46t-96 -16.5z" />
    <glyph glyph-name="v" unicode="v" horiz-adv-x="581" 
d="M329 -9h-73l-233 503h102l170 -381l169 381h94z" />
    <glyph glyph-name="w" unicode="w" horiz-adv-x="869" 
d="M436 369l-146 -373h-73l-189 498h98l134 -365l142 369h76l141 -365l132 361h90l-187 -498h-72z" />
    <glyph glyph-name="x" unicode="x" horiz-adv-x="602" 
d="M301 185l-167 -185h-110l222 246l-223 248h118l162 -183l165 183h111l-221 -245l221 -249h-112z" />
    <glyph glyph-name="y" unicode="y" horiz-adv-x="581" 
d="M234 -224h-93l106 235l-224 483h103l169 -376l169 376h94z" />
    <glyph glyph-name="z" unicode="z" horiz-adv-x="606" 
d="M562 0h-506v53l329 360h-321v81h462v-51l-334 -362h370v-81z" />
    <glyph glyph-name="braceleft" unicode="{" horiz-adv-x="401" 
d="M376 -124h-107q-78 0 -118 39t-29 120l25 193q6 45 -15 65.5t-65 20.5h-23v70h23q42 0 64 20t16 66l-25 193q-11 81 29 120t118 39h107v-68h-89q-48 0 -71 -21.5t-17 -66.5l25 -189q8 -61 -17 -91t-64 -37q19 -4 36 -13t28 -24.5t16 -38t1 -52.5l-25 -189
q-6 -45 17 -66.5t71 -21.5h89v-68z" />
    <glyph glyph-name="bar" unicode="|" horiz-adv-x="323" 
d="M120 822h83v-938h-83v938z" />
    <glyph glyph-name="braceright" unicode="}" horiz-adv-x="403" 
d="M279 35q11 -81 -29 -120t-118 -39h-107v68h89q48 0 71 21.5t17 66.5l-25 189q-4 30 1 52.5t16 38t27.5 24.5t36.5 13q-39 7 -64 37t-17 91l25 189q6 45 -17 66.5t-71 21.5h-89v68h107q78 0 118 -39t29 -120l-25 -193q-6 -46 16 -66t64 -20h25v-70h-25q-44 0 -65 -20.5
t-15 -65.5l25 -193v0z" />
    <glyph glyph-name="asciitilde" unicode="~" horiz-adv-x="718" 
d="M429 356q13 -18 28.5 -35.5t36.5 -17.5q24 0 35 17.5t11 45.5v191h88v-191q0 -69 -32.5 -110t-97.5 -41q-48 0 -78.5 25t-59.5 68l-71 102q-16 23 -30 38t-35 15q-24 0 -35 -17.5t-11 -45.5v-187h-88v187q0 69 32.5 110t97.5 41q48 0 78 -24.5t61 -69.5l70 -101v0z" />
    <glyph glyph-name="uni00A0" unicode="&#xa0;" horiz-adv-x="265" 
 />
    <glyph glyph-name="exclamdown" unicode="&#xa1;" horiz-adv-x="336" 
d="M110 494h116v-141h-116v141zM124 262h88v-478h-88v478z" />
    <glyph glyph-name="cent" unicode="&#xa2;" horiz-adv-x="573" 
d="M512 147q-2 -11 -11.5 -34.5t-29.5 -48.5t-53 -46t-83 -28v-110h-76v111q-42 7 -77.5 29.5t-61 56t-39.5 77t-14 93.5q0 51 14 94.5t39.5 77.5t61 56t77.5 29v111h76v-111q49 -6 81.5 -27t52 -45.5t29 -47.5t11.5 -35h-90q-3 7 -11.5 19.5t-23 24.5t-36 21t-51.5 9
t-55 -13.5t-43 -37t-28 -56t-10 -69.5t10 -69t28 -56t43 -37.5t56 -13.5q33 0 55.5 9.5t37 22t22.5 25t11 19.5h88v0z" />
    <glyph glyph-name="sterling" unicode="&#xa3;" horiz-adv-x="706" 
d="M658 0h-598v88h117v186h-117v88h117v149q0 103 56.5 157t150.5 54q97 0 152 -53.5t55 -157.5v-38h-92v36q0 61 -30.5 93.5t-84.5 32.5q-53 0 -82 -32.5t-29 -93.5v-147h224v-88h-224v-186h385v-88z" />
    <glyph glyph-name="yen" unicode="&#xa5;" horiz-adv-x="704" 
d="M404 149v-149h-97v149h-204v78h204v91h-204v78h202l-245 314h117l180 -233l179 233h108l-240 -314h204v-78h-204v-91h204v-78h-204z" />
    <glyph glyph-name="section" unicode="&#xa7;" horiz-adv-x="687" 
d="M538 -48q0 -91 -53 -139.5t-140 -48.5q-91 0 -142 48.5t-51 139.5v47h89v-45q0 -53 28 -81.5t76 -28.5t75.5 28.5t27.5 81.5v18q0 42 -18 67.5t-63 34.5l-152 31q-75 15 -111.5 57.5t-36.5 108.5q0 58 36.5 93.5t90.5 42.5q-28 27 -36.5 63t-8.5 71v20q0 90 53 139
t140 49q91 0 142 -48.5t51 -139.5v-47h-89v45q0 53 -28 81.5t-76 28.5t-75.5 -28.5t-27.5 -81.5v-18q0 -42 18 -67.5t63 -34.5l152 -31q76 -16 112 -57.5t36 -108.5q0 -54 -33 -90.5t-91 -47.5q23 -25 32.5 -59.5t9.5 -72.5v-20zM285 357q-59 12 -93.5 -9.5t-34.5 -69.5
q0 -35 22 -58t59 -31l164 -33q59 -12 93.5 10.5t34.5 68.5q0 36 -22 58.5t-59 30.5z" />
    <glyph glyph-name="dieresis" unicode="&#xa8;" 
d="M160 728h92v-139h-92v139zM348 728h92v-139h-92v139z" />
    <glyph glyph-name="copyright" unicode="&#xa9;" horiz-adv-x="884" 
d="M442 -12q-80 0 -147 28t-116 77t-76.5 116.5t-27.5 145.5t28 145t77 116.5t116 77.5t146 28q78 0 145.5 -28t116.5 -77.5t77 -116.5t28 -145t-28 -145t-77 -116.5t-116.5 -77.5t-145.5 -28zM442 56q66 0 120 23.5t92.5 64t59.5 95t21 116.5q0 61 -21 115.5t-59.5 95.5
t-92.5 64.5t-120 23.5t-120 -23.5t-92.5 -64t-59.5 -95t-21 -116.5q0 -63 21 -117.5t59.5 -95t92.5 -63.5t120 -23zM340 357q0 -25 7.5 -47t21 -38.5t33 -26t44.5 -9.5q21 0 36 5.5t26 13t17.5 16t10.5 14.5h86q-4 -17 -15 -38.5t-32 -41.5t-52.5 -33.5t-76.5 -13.5
q-42 0 -77.5 15.5t-61.5 42t-40.5 63t-14.5 78.5t14.5 78t40.5 63t61.5 42.5t77.5 15.5t72.5 -13t51.5 -32t33 -40.5t16 -37.5h-88q-3 4 -10 12t-17.5 15t-25 12.5t-32.5 5.5q-25 0 -44.5 -9.5t-33 -26t-21 -38.5t-7.5 -47z" />
    <glyph glyph-name="ordfeminine" unicode="&#xaa;" horiz-adv-x="555" 
d="M375 353q-4 -9 -12.5 -22t-23.5 -25t-37 -21t-52 -9q-38 0 -71 15t-57 43.5t-38 70t-14 93.5t14 93.5t38 70.5t57 44t71 15q31 0 53 -9t36.5 -22t23 -26t12.5 -20v66h88v-424h-88v67zM376 498q0 31 -7 57t-21 45.5t-34 30.5t-45 11q-26 0 -46.5 -11t-34 -30.5
t-20.5 -45.5t-7 -57q0 -30 7 -56.5t20.5 -45.5t34 -30t46.5 -11q25 0 45 11t34 30t21 45.5t7 56.5z" />
    <glyph glyph-name="guillemotleft" unicode="&#xab;" horiz-adv-x="551" 
d="M154 276l111 -179h-91l-109 178l110 178h90zM370 276l111 -179h-91l-109 178l110 178h90z" />
    <glyph glyph-name="registered" unicode="&#xae;" horiz-adv-x="582" 
d="M291 246q-51 0 -95 18t-75.5 50t-49.5 75.5t-18 94.5q0 50 18 93.5t50 75.5t75.5 50.5t94.5 18.5t94.5 -18.5t75.5 -50.5t50 -75.5t18 -93.5t-18 -93.5t-50 -75.5t-75.5 -50.5t-94.5 -18.5zM291 298q41 0 75 14.5t58 39.5t37 59t13 73t-13 72.5t-37 59t-58 40t-75 14.5
t-75 -14.5t-58 -40t-37 -59t-13 -72.5t13.5 -73t37.5 -59t57.5 -39.5t74.5 -14.5zM191 603h127q46 0 68 -20.5t22 -56.5q0 -47 -39 -65l41 -93h-62l-37 84h-59v-84h-61v235zM252 550v-48h64q31 0 31 24t-31 24h-64z" />
    <glyph glyph-name="macron" unicode="&#xaf;" horiz-adv-x="500" 
d="M97 621v78h306v-78h-306z" />
    <glyph glyph-name="degree" unicode="&#xb0;" horiz-adv-x="554" 
d="M277 348q-40 0 -74 14.5t-59 39.5t-39.5 59t-14.5 74t14.5 74t39.5 59t59 39.5t74 14.5t74 -14.5t59 -39.5t39.5 -59t14.5 -74t-14.5 -74t-39.5 -59t-59 -39.5t-74 -14.5zM277 422q48 0 78 32.5t30 80.5t-30 80.5t-78 32.5t-78 -32.5t-30 -80.5t29.5 -80.5t78.5 -32.5z
" />
    <glyph glyph-name="acute" unicode="&#xb4;" 
d="M304 762h100l-115 -183h-93z" />
    <glyph glyph-name="paragraph" unicode="&#xb6;" horiz-adv-x="661" 
d="M45 529q0 40 14.5 73.5t40 57.5t61 37t78.5 13h312v-710h-84v629h-108v-629h-84v348h-36q-43 0 -78.5 13t-61 37t-40 57t-14.5 74z" />
    <glyph glyph-name="periodcentered" unicode="&#xb7;" horiz-adv-x="292" 
d="M88 447h116v-142h-116v142z" />
    <glyph glyph-name="cedilla" unicode="&#xb8;" 
d="M342 -156q0 34 -41 34h-86v122h80v-55h14q65 0 92.5 -28t27.5 -73t-27.5 -77t-89.5 -32h-137v74h126q41 0 41 35z" />
    <glyph glyph-name="ordmasculine" unicode="&#xba;" horiz-adv-x="542" 
d="M271 723q46 0 83.5 -17t64 -47t41 -71t14.5 -89t-14.5 -89t-41 -70.5t-64 -46.5t-83.5 -17t-83.5 17t-64 46.5t-41 70.5t-14.5 89t14.5 89t41 71t64 47t83.5 17zM271 354q28 0 49 11.5t35 31t21.5 46t7.5 56.5t-7.5 56.5t-21.5 46t-35 31t-49 11.5t-49 -11.5t-35.5 -31
t-21.5 -46t-7 -56.5t7 -56.5t21.5 -46t35.5 -31t49 -11.5z" />
    <glyph glyph-name="guillemotright" unicode="&#xbb;" horiz-adv-x="551" 
d="M376 97h-90l111 177l-111 179h91l109 -178zM160 97h-90l111 177l-111 179h91l109 -178z" />
    <glyph glyph-name="questiondown" unicode="&#xbf;" horiz-adv-x="544" 
d="M379.01 262.014v-7.99902q0 -21.999 -3 -38.498q-2.99902 -16.499 -10.999 -30.998q-7.99902 -14.499 -22.998 -27.498t-38.998 -29.998l-71.9951 -49.9971q-32.998 -22.998 -55.9971 -50.9971q-22.999 -27.998 -22.999 -68.9951q0 -46.998 29.499 -74.9961
q29.498 -27.998 82.4951 -27.998q53.9961 0 83.4941 33.498t29.498 84.4951v31.998h88.9951v-34.998q0 -90.9951 -53.9971 -143.991q-53.9961 -52.9971 -147.99 -52.9971q-96.9941 0 -150.991 49.9971t-53.9971 134.992q0 65.9951 31.998 108.493
q31.998 42.4971 89.9951 81.4951l71.9951 48.9971q19.999 13.999 26.998 28.498q7 14.499 7 37.4971h91.9941zM391.01 352.009h-115.993v141.991h115.993v-141.991z" />
    <glyph glyph-name="Agrave" unicode="&#xc0;" horiz-adv-x="800" 
d="M586 171h-378l-79 -171h-96l328 714h77l329 -714h-102zM546 259l-149 324l-149 -324h298zM348 778l-120 150h110l112 -150h-102z" />
    <glyph glyph-name="Aacute" unicode="&#xc1;" horiz-adv-x="800" 
d="M586 171h-378l-79 -171h-96l328 714h77l329 -714h-102zM546 259l-149 324l-149 -324h298zM461 928h110l-120 -150h-102z" />
    <glyph glyph-name="Acircumflex" unicode="&#xc2;" horiz-adv-x="800" 
d="M586 171h-378l-79 -171h-96l328 714h77l329 -714h-102zM546 259l-149 324l-149 -324h298zM400 864l-81 -89h-98l139 156h78l136 -156h-94z" />
    <glyph glyph-name="Atilde" unicode="&#xc3;" horiz-adv-x="800" 
d="M586 171h-378l-79 -171h-96l328 714h77l329 -714h-102zM546 259l-149 324l-149 -324h298zM357 838q-11 6 -20.5 10.5t-17.5 4.5q-17 0 -17 -24v-56h-73v66q0 43 18.5 68.5t58.5 25.5q26 0 48.5 -11.5t48.5 -26.5l38 -22q11 -6 20 -10.5t17 -4.5q18 0 18 24v56h73v-66
q0 -43 -19 -68.5t-59 -25.5q-27 0 -48.5 11.5t-47.5 26.5z" />
    <glyph glyph-name="Adieresis" unicode="&#xc4;" horiz-adv-x="800" 
d="M586 171h-378l-79 -171h-96l328 714h77l329 -714h-102zM546 259l-149 324l-149 -324h298zM251 917h92v-139h-92v139zM455 917h92v-139h-92v139z" />
    <glyph glyph-name="Aring" unicode="&#xc5;" horiz-adv-x="800" 
d="M586 171h-378l-79 -171h-96l328 714h77l329 -714h-102zM546 259l-149 324l-149 -324h298zM399 768q-28 0 -52 10t-41.5 27t-27.5 40.5t-10 49.5q0 27 10 50t27.5 40t41.5 27t52 10t52 -10t41.5 -27t27.5 -40t10 -50q0 -26 -10 -49.5t-27.5 -40.5t-41.5 -27t-52 -10z
M399 830q29 0 46.5 19t17.5 46q0 28 -17.5 46.5t-46.5 18.5t-46.5 -18.5t-17.5 -46.5q0 -27 17.5 -46t46.5 -19z" />
    <glyph glyph-name="AE" unicode="&#xc6;" horiz-adv-x="1160" 
d="M1117 0h-575v183h-305l-127 -183h-110l497 710h580v-90h-439v-198h254v-90h-254v-242h479v-90zM542 269v354l-245 -354h245z" />
    <glyph glyph-name="Ccedilla" unicode="&#xc7;" horiz-adv-x="809" 
d="M420 -12q-76 0 -140.5 28.5t-111 78t-73 116.5t-26.5 144t26.5 144t73.5 116.5t111 78t140 28.5q78 0 135.5 -22.5t97 -55.5t62.5 -71.5t32 -70.5h-101q-9 19 -27.5 41.5t-46.5 42t-66 32.5t-86 13q-57 0 -103 -22t-79 -60t-50.5 -88t-17.5 -106t17.5 -106t50.5 -88
t79 -60t103 -22q54 0 93 14t66 34t43.5 42.5t25.5 39.5h99q-8 -30 -29.5 -68.5t-60.5 -72t-97.5 -57t-139.5 -23.5zM475 -156q0 34 -41 34h-86v122h80v-55h14q65 0 92.5 -28t27.5 -73t-27.5 -77t-89.5 -32h-137v74h126q41 0 41 35z" />
    <glyph glyph-name="Egrave" unicode="&#xc8;" horiz-adv-x="749" 
d="M110 710h556v-90h-460v-198h275v-90h-275v-242h500v-90h-596v710zM348 778l-120 150h110l112 -150h-102z" />
    <glyph glyph-name="Eacute" unicode="&#xc9;" horiz-adv-x="749" 
d="M110 710h556v-90h-460v-198h275v-90h-275v-242h500v-90h-596v710zM449 928h110l-120 -150h-102z" />
    <glyph glyph-name="Ecircumflex" unicode="&#xca;" horiz-adv-x="749" 
d="M110 710h556v-90h-460v-198h275v-90h-275v-242h500v-90h-596v710zM400 864l-81 -89h-98l139 156h78l136 -156h-94z" />
    <glyph glyph-name="Edieresis" unicode="&#xcb;" horiz-adv-x="749" 
d="M110 710h556v-90h-460v-198h275v-90h-275v-242h500v-90h-596v710zM251 917h92v-139h-92v139zM455 917h92v-139h-92v139z" />
    <glyph glyph-name="Igrave" unicode="&#xcc;" horiz-adv-x="319" 
d="M111 710h97v-710h-97v710zM108 778l-120 150h110l112 -150h-102z" />
    <glyph glyph-name="Iacute" unicode="&#xcd;" horiz-adv-x="319" 
d="M111 710h97v-710h-97v710zM221 928h110l-120 -150h-102z" />
    <glyph glyph-name="Icircumflex" unicode="&#xce;" horiz-adv-x="319" 
d="M111 710h97v-710h-97v710zM160 864l-81 -89h-98l139 156h78l136 -156h-94z" />
    <glyph glyph-name="Idieresis" unicode="&#xcf;" horiz-adv-x="319" 
d="M111 710h97v-710h-97v710zM11 917h92v-139h-92v139zM215 917h92v-139h-92v139z" />
    <glyph glyph-name="Ntilde" unicode="&#xd1;" horiz-adv-x="860" 
d="M750 -5h-69l-478 601v-596h-93v710h118l429 -544v544h93v-715zM400 838q-11 6 -20.5 10.5t-17.5 4.5q-17 0 -17 -24v-56h-73v66q0 43 18.5 68.5t58.5 25.5q26 0 48.5 -11.5t48.5 -26.5l38 -22q11 -6 20 -10.5t17 -4.5q18 0 18 24v56h73v-66q0 -43 -19 -68.5t-59 -25.5
q-27 0 -48.5 11.5t-47.5 26.5z" />
    <glyph glyph-name="Ograve" unicode="&#xd2;" horiz-adv-x="872" 
d="M436 -12q-80 0 -147 28t-116 77t-76.5 116.5t-27.5 145.5t28 145t77 116.5t116 77.5t146 28q78 0 145.5 -28t116.5 -77.5t77 -116.5t28 -145t-28 -145t-77 -116.5t-116.5 -77.5t-145.5 -28zM436 78q60 0 109 22t84.5 59.5t54.5 88t19 107.5t-19 107t-54.5 88t-84.5 60
t-109 22t-109 -22t-84.5 -59.5t-54.5 -88t-19 -107.5q0 -58 19 -108.5t54.5 -88t84.5 -59t109 -21.5zM385 778l-120 150h110l112 -150h-102z" />
    <glyph glyph-name="Oacute" unicode="&#xd3;" horiz-adv-x="872" 
d="M436 -12q-80 0 -147 28t-116 77t-76.5 116.5t-27.5 145.5t28 145t77 116.5t116 77.5t146 28q78 0 145.5 -28t116.5 -77.5t77 -116.5t28 -145t-28 -145t-77 -116.5t-116.5 -77.5t-145.5 -28zM436 78q60 0 109 22t84.5 59.5t54.5 88t19 107.5t-19 107t-54.5 88t-84.5 60
t-109 22t-109 -22t-84.5 -59.5t-54.5 -88t-19 -107.5q0 -58 19 -108.5t54.5 -88t84.5 -59t109 -21.5zM498 928h110l-120 -150h-102z" />
    <glyph glyph-name="Ocircumflex" unicode="&#xd4;" horiz-adv-x="872" 
d="M436 -12q-80 0 -147 28t-116 77t-76.5 116.5t-27.5 145.5t28 145t77 116.5t116 77.5t146 28q78 0 145.5 -28t116.5 -77.5t77 -116.5t28 -145t-28 -145t-77 -116.5t-116.5 -77.5t-145.5 -28zM436 78q60 0 109 22t84.5 59.5t54.5 88t19 107.5t-19 107t-54.5 88t-84.5 60
t-109 22t-109 -22t-84.5 -59.5t-54.5 -88t-19 -107.5q0 -58 19 -108.5t54.5 -88t84.5 -59t109 -21.5zM437 864l-81 -89h-98l139 156h78l136 -156h-94z" />
    <glyph glyph-name="Otilde" unicode="&#xd5;" horiz-adv-x="872" 
d="M436 -12q-80 0 -147 28t-116 77t-76.5 116.5t-27.5 145.5t28 145t77 116.5t116 77.5t146 28q78 0 145.5 -28t116.5 -77.5t77 -116.5t28 -145t-28 -145t-77 -116.5t-116.5 -77.5t-145.5 -28zM436 78q60 0 109 22t84.5 59.5t54.5 88t19 107.5t-19 107t-54.5 88t-84.5 60
t-109 22t-109 -22t-84.5 -59.5t-54.5 -88t-19 -107.5q0 -58 19 -108.5t54.5 -88t84.5 -59t109 -21.5zM394 838q-11 6 -20.5 10.5t-17.5 4.5q-17 0 -17 -24v-56h-73v66q0 43 18.5 68.5t58.5 25.5q26 0 48.5 -11.5t48.5 -26.5l38 -22q11 -6 20 -10.5t17 -4.5q18 0 18 24v56h73
v-66q0 -43 -19 -68.5t-59 -25.5q-27 0 -48.5 11.5t-47.5 26.5z" />
    <glyph glyph-name="Odieresis" unicode="&#xd6;" horiz-adv-x="872" 
d="M436 -12q-80 0 -147 28t-116 77t-76.5 116.5t-27.5 145.5t28 145t77 116.5t116 77.5t146 28q78 0 145.5 -28t116.5 -77.5t77 -116.5t28 -145t-28 -145t-77 -116.5t-116.5 -77.5t-145.5 -28zM436 78q60 0 109 22t84.5 59.5t54.5 88t19 107.5t-19 107t-54.5 88t-84.5 60
t-109 22t-109 -22t-84.5 -59.5t-54.5 -88t-19 -107.5q0 -58 19 -108.5t54.5 -88t84.5 -59t109 -21.5zM288 917h92v-139h-92v139zM492 917h92v-139h-92v139z" />
    <glyph glyph-name="Oslash" unicode="&#xd8;" horiz-adv-x="872" 
d="M803 355q0 -78 -28 -145t-77 -116.5t-116.5 -77.5t-145.5 -28q-62 0 -117 18t-100 50l-50 -56h-110l100 110q-42 49 -66 111t-24 134q0 78 28 145t77 116.5t116 77.5t146 28q61 0 115 -18t99 -50l50 56h113l-101 -111q43 -49 67 -111t24 -133zM169 355q0 -51 14 -95
t40 -79l366 406q-32 21 -70 33t-83 12q-60 0 -109 -22t-84.5 -59.5t-54.5 -88t-19 -107.5zM703 355q0 100 -54 174l-368 -405q32 -22 71 -34t84 -12q60 0 109 22t84.5 59.5t54.5 88t19 107.5z" />
    <glyph glyph-name="Ugrave" unicode="&#xd9;" horiz-adv-x="841" 
d="M421 81q52 0 92 16.5t68 46.5t42.5 71.5t14.5 92.5v402h96v-410q0 -65 -20 -121.5t-60 -99t-98.5 -67t-134.5 -24.5q-80 0 -139 24.5t-98 66.5t-58 99t-19 122v410h97v-402q0 -51 14 -92.5t42 -71.5t68 -46.5t93 -16.5zM384 778l-120 150h110l112 -150h-102z" />
    <glyph glyph-name="Uacute" unicode="&#xda;" horiz-adv-x="841" 
d="M421 81q52 0 92 16.5t68 46.5t42.5 71.5t14.5 92.5v402h96v-410q0 -65 -20 -121.5t-60 -99t-98.5 -67t-134.5 -24.5q-80 0 -139 24.5t-98 66.5t-58 99t-19 122v410h97v-402q0 -51 14 -92.5t42 -71.5t68 -46.5t93 -16.5zM468 928h110l-120 -150h-102z" />
    <glyph glyph-name="Ucircumflex" unicode="&#xdb;" horiz-adv-x="841" 
d="M421 81q52 0 92 16.5t68 46.5t42.5 71.5t14.5 92.5v402h96v-410q0 -65 -20 -121.5t-60 -99t-98.5 -67t-134.5 -24.5q-80 0 -139 24.5t-98 66.5t-58 99t-19 122v410h97v-402q0 -51 14 -92.5t42 -71.5t68 -46.5t93 -16.5zM422 864l-81 -89h-98l139 156h78l136 -156h-94z
" />
    <glyph glyph-name="Udieresis" unicode="&#xdc;" horiz-adv-x="841" 
d="M421 81q52 0 92 16.5t68 46.5t42.5 71.5t14.5 92.5v402h96v-410q0 -65 -20 -121.5t-60 -99t-98.5 -67t-134.5 -24.5q-80 0 -139 24.5t-98 66.5t-58 99t-19 122v410h97v-402q0 -51 14 -92.5t42 -71.5t68 -46.5t93 -16.5zM273 917h92v-139h-92v139zM477 917h92v-139h-92
v139z" />
    <glyph glyph-name="germandbls" unicode="&#xdf;" horiz-adv-x="648" 
d="M186 0h-92v534q0 103 59.5 158.5t165.5 55.5q52 0 94 -13.5t71.5 -38.5t45.5 -61t16 -82q0 -32 -8 -57t-21.5 -43.5t-30.5 -30t-34 -16.5q29 -7 54.5 -23.5t44 -40.5t29.5 -55t11 -68q0 -50 -15.5 -90t-45 -69t-72.5 -44.5t-99 -15.5h-81v83h64q76 0 115.5 36.5
t39.5 99.5t-39.5 99.5t-115.5 36.5h-64v81h49q57 0 91 28.5t34 85.5q0 55 -37 84.5t-96 29.5q-61 0 -97 -34t-36 -102v-528z" />
    <glyph glyph-name="agrave" unicode="&#xe0;" horiz-adv-x="659" 
d="M474 85q-5 -9 -17 -25.5t-33 -32.5t-52 -27.5t-73 -11.5q-49 0 -92.5 17.5t-76.5 51t-52.5 81.5t-19.5 109q0 60 19.5 108t52.5 81.5t76.5 51.5t92.5 18q40 0 71 -11t52.5 -26t34 -31t17.5 -26v82h91v-494h-91v85zM476 247q0 37 -11.5 69t-32.5 55.5t-50.5 37t-65.5 13.5
q-37 0 -67.5 -13.5t-52 -37t-33 -55.5t-11.5 -69t11.5 -69t33 -55.5t52 -37t67.5 -13.5q36 0 65.5 13.5t50.5 37t32.5 55.5t11.5 69zM268 579l-115 183h100l108 -183h-93z" />
    <glyph glyph-name="aacute" unicode="&#xe1;" horiz-adv-x="659" 
d="M474 85q-5 -9 -17 -25.5t-33 -32.5t-52 -27.5t-73 -11.5q-49 0 -92.5 17.5t-76.5 51t-52.5 81.5t-19.5 109q0 60 19.5 108t52.5 81.5t76.5 51.5t92.5 18q40 0 71 -11t52.5 -26t34 -31t17.5 -26v82h91v-494h-91v85zM476 247q0 37 -11.5 69t-32.5 55.5t-50.5 37t-65.5 13.5
q-37 0 -67.5 -13.5t-52 -37t-33 -55.5t-11.5 -69t11.5 -69t33 -55.5t52 -37t67.5 -13.5q36 0 65.5 13.5t50.5 37t32.5 55.5t11.5 69zM368 762h100l-115 -183h-93z" />
    <glyph glyph-name="acircumflex" unicode="&#xe2;" horiz-adv-x="659" 
d="M474 85q-5 -9 -17 -25.5t-33 -32.5t-52 -27.5t-73 -11.5q-49 0 -92.5 17.5t-76.5 51t-52.5 81.5t-19.5 109q0 60 19.5 108t52.5 81.5t76.5 51.5t92.5 18q40 0 71 -11t52.5 -26t34 -31t17.5 -26v82h91v-494h-91v85zM476 247q0 37 -11.5 69t-32.5 55.5t-50.5 37t-65.5 13.5
q-37 0 -67.5 -13.5t-52 -37t-33 -55.5t-11.5 -69t11.5 -69t33 -55.5t52 -37t67.5 -13.5q36 0 65.5 13.5t50.5 37t32.5 55.5t11.5 69zM316 690l-74 -114h-90l126 193h76l123 -193h-87z" />
    <glyph glyph-name="atilde" unicode="&#xe3;" horiz-adv-x="659" 
d="M474 85q-5 -9 -17 -25.5t-33 -32.5t-52 -27.5t-73 -11.5q-49 0 -92.5 17.5t-76.5 51t-52.5 81.5t-19.5 109q0 60 19.5 108t52.5 81.5t76.5 51.5t92.5 18q40 0 71 -11t52.5 -26t34 -31t17.5 -26v82h91v-494h-91v85zM476 247q0 37 -11.5 69t-32.5 55.5t-50.5 37t-65.5 13.5
q-37 0 -67.5 -13.5t-52 -37t-33 -55.5t-11.5 -69t11.5 -69t33 -55.5t52 -37t67.5 -13.5q36 0 65.5 13.5t50.5 37t32.5 55.5t11.5 69zM155 575v76q0 43 19 68.5t60 25.5q29 0 48.5 -11.5t42.5 -31.5l29 -24q10 -8 18 -13t16 -5q17 0 17 23v67h72v-76q0 -43 -19 -68.5
t-60 -25.5q-29 0 -48.5 11.5t-42.5 31.5l-29 24q-10 8 -18 13t-16 5q-17 0 -17 -23v-67h-72z" />
    <glyph glyph-name="adieresis" unicode="&#xe4;" horiz-adv-x="659" 
d="M474 85q-5 -9 -17 -25.5t-33 -32.5t-52 -27.5t-73 -11.5q-49 0 -92.5 17.5t-76.5 51t-52.5 81.5t-19.5 109q0 60 19.5 108t52.5 81.5t76.5 51.5t92.5 18q40 0 71 -11t52.5 -26t34 -31t17.5 -26v82h91v-494h-91v85zM476 247q0 37 -11.5 69t-32.5 55.5t-50.5 37t-65.5 13.5
q-37 0 -67.5 -13.5t-52 -37t-33 -55.5t-11.5 -69t11.5 -69t33 -55.5t52 -37t67.5 -13.5q36 0 65.5 13.5t50.5 37t32.5 55.5t11.5 69zM176 728h92v-139h-92v139zM364 728h92v-139h-92v139z" />
    <glyph glyph-name="aring" unicode="&#xe5;" horiz-adv-x="659" 
d="M474 85q-5 -9 -17 -25.5t-33 -32.5t-52 -27.5t-73 -11.5q-49 0 -92.5 17.5t-76.5 51t-52.5 81.5t-19.5 109q0 60 19.5 108t52.5 81.5t76.5 51.5t92.5 18q40 0 71 -11t52.5 -26t34 -31t17.5 -26v82h91v-494h-91v85zM476 247q0 37 -11.5 69t-32.5 55.5t-50.5 37t-65.5 13.5
q-37 0 -67.5 -13.5t-52 -37t-33 -55.5t-11.5 -69t11.5 -69t33 -55.5t52 -37t67.5 -13.5q36 0 65.5 13.5t50.5 37t32.5 55.5t11.5 69zM316 567q-28 0 -52 10t-41.5 27t-27.5 40.5t-10 49.5q0 27 10 50t27.5 40t41.5 27t52 10t52 -10t41.5 -27t27.5 -40t10 -50
q0 -26 -10 -49.5t-27.5 -40.5t-41.5 -27t-52 -10zM316 629q29 0 46.5 19t17.5 46q0 28 -17.5 46.5t-46.5 18.5t-46.5 -18.5t-17.5 -46.5q0 -27 17.5 -46t46.5 -19z" />
    <glyph glyph-name="ae" unicode="&#xe6;" horiz-adv-x="961" 
d="M57 156q0 75 53 114.5t146 39.5h161q0 57 -37.5 87t-97.5 30q-29 0 -50 -7t-35.5 -17t-22.5 -20.5t-11 -17.5h-92q5 22 20 47t41 46t63 35t87 14q72 0 119 -26.5t68 -65.5q25 38 74.5 65t116.5 27q54 0 100 -19t79.5 -54.5t52 -86t17.5 -111.5l-91 1h-316q2 -35 14.5 -65
t34.5 -52t51.5 -35t65.5 -13q37 0 63 8.5t43 20t26.5 23t12.5 17.5h90q-3 -16 -17 -42t-42 -50.5t-71.5 -42.5t-104.5 -18q-41 0 -75.5 10.5t-62 27t-48 37.5t-32.5 42q-9 -19 -23 -39.5t-36 -37.5t-52 -28t-70 -11q-47 0 -85.5 11.5t-67 33.5t-44 53t-15.5 69zM659 428
q-60 0 -98.5 -32t-52.5 -86h301q-16 57 -55 87.5t-95 30.5zM148 156q0 -43 35 -67t86 -24q32 0 59 9t47 25t31 38.5t11 49.5v50h-157q-51 0 -81.5 -20t-30.5 -61z" />
    <glyph glyph-name="ccedilla" unicode="&#xe7;" horiz-adv-x="594" 
d="M451 340q-3 6 -12 19.5t-26 27.5t-43 24.5t-63 10.5q-34 0 -62.5 -13.5t-49.5 -37.5t-32.5 -56t-11.5 -68t11.5 -68t32.5 -56t49.5 -37.5t63.5 -13.5q37 0 63.5 10.5t43.5 24t26 27.5t12 20h90q-2 -13 -14 -40.5t-39 -55.5t-72 -49q-42 -20 -103 -21v-43h14
q65 0 92.5 -28t27.5 -73t-27.5 -77t-89.5 -32h-137v74h126q41 0 41 35q0 34 -41 34h-86v121q-13 3 -26 9q-46 20 -79.5 55t-53 82t-19.5 102t19 102t53 82t79.5 55t98.5 20q67 0 111 -20.5t71 -48.5t39 -55.5t15 -41.5h-92z" />
    <glyph glyph-name="egrave" unicode="&#xe8;" horiz-adv-x="612" 
d="M308 506q54 0 100.5 -19.5t80 -55t52.5 -85t19 -110.5h-411q2 -35 15 -64.5t34.5 -52t52 -35t66.5 -12.5q37 0 63.5 8.5t44 20t27 23t12.5 17.5h90q-3 -16 -17 -42t-42 -50.5t-72 -42.5t-106 -18q-57 0 -105 20t-82.5 55t-53.5 82.5t-19 101.5q0 56 19 103.5t52.5 82
t79.5 54t100 19.5zM308 428q-60 0 -99.5 -31t-53.5 -85h304q-17 56 -56 86t-95 30zM260 579l-115 183h100l108 -183h-93z" />
    <glyph glyph-name="eacute" unicode="&#xe9;" horiz-adv-x="612" 
d="M308 506q54 0 100.5 -19.5t80 -55t52.5 -85t19 -110.5h-411q2 -35 15 -64.5t34.5 -52t52 -35t66.5 -12.5q37 0 63.5 8.5t44 20t27 23t12.5 17.5h90q-3 -16 -17 -42t-42 -50.5t-72 -42.5t-106 -18q-57 0 -105 20t-82.5 55t-53.5 82.5t-19 101.5q0 56 19 103.5t52.5 82
t79.5 54t100 19.5zM308 428q-60 0 -99.5 -31t-53.5 -85h304q-17 56 -56 86t-95 30zM360 762h100l-115 -183h-93z" />
    <glyph glyph-name="ecircumflex" unicode="&#xea;" horiz-adv-x="612" 
d="M308 506q54 0 100.5 -19.5t80 -55t52.5 -85t19 -110.5h-411q2 -35 15 -64.5t34.5 -52t52 -35t66.5 -12.5q37 0 63.5 8.5t44 20t27 23t12.5 17.5h90q-3 -16 -17 -42t-42 -50.5t-72 -42.5t-106 -18q-57 0 -105 20t-82.5 55t-53.5 82.5t-19 101.5q0 56 19 103.5t52.5 82
t79.5 54t100 19.5zM308 428q-60 0 -99.5 -31t-53.5 -85h304q-17 56 -56 86t-95 30zM308 690l-74 -114h-90l126 193h76l123 -193h-87z" />
    <glyph glyph-name="edieresis" unicode="&#xeb;" horiz-adv-x="612" 
d="M308 506q54 0 100.5 -19.5t80 -55t52.5 -85t19 -110.5h-411q2 -35 15 -64.5t34.5 -52t52 -35t66.5 -12.5q37 0 63.5 8.5t44 20t27 23t12.5 17.5h90q-3 -16 -17 -42t-42 -50.5t-72 -42.5t-106 -18q-57 0 -105 20t-82.5 55t-53.5 82.5t-19 101.5q0 56 19 103.5t52.5 82
t79.5 54t100 19.5zM308 428q-60 0 -99.5 -31t-53.5 -85h304q-17 56 -56 86t-95 30zM168 728h92v-139h-92v139zM356 728h92v-139h-92v139z" />
    <glyph glyph-name="igrave" unicode="&#xec;" horiz-adv-x="281" 
d="M95 494h91v-494h-91v494zM92 579l-115 183h100l108 -183h-93z" />
    <glyph glyph-name="iacute" unicode="&#xed;" horiz-adv-x="281" 
d="M95 494h91v-494h-91v494zM202 762h100l-115 -183h-93z" />
    <glyph glyph-name="icircumflex" unicode="&#xee;" horiz-adv-x="281" 
d="M140 691l-72 -115h-88l122 193h76l119 -193h-85zM95 494h91v-494h-91v494z" />
    <glyph glyph-name="idieresis" unicode="&#xef;" horiz-adv-x="281" 
d="M1 728h92v-139h-92v139zM187 728h92v-139h-92v139zM95 494h91v-494h-91v494z" />
    <glyph glyph-name="ntilde" unicode="&#xf1;" horiz-adv-x="652" 
d="M185 0h-91v494h91v-91q7 15 21.5 33t35.5 33t48.5 25.5t62.5 10.5q47 0 86 -16.5t66.5 -46t43 -70t15.5 -88.5v-284h-92v267q0 70 -38.5 112t-102.5 42q-33 0 -60 -11.5t-46 -32t-29.5 -48.5t-10.5 -62v-267zM168 575v76q0 43 19 68.5t60 25.5q29 0 48.5 -11.5
t42.5 -31.5l29 -24q10 -8 18 -13t16 -5q17 0 17 23v67h72v-76q0 -43 -19 -68.5t-60 -25.5q-29 0 -48.5 11.5t-42.5 31.5l-29 24q-10 8 -18 13t-16 5q-17 0 -17 -23v-67h-72z" />
    <glyph glyph-name="ograve" unicode="&#xf2;" horiz-adv-x="634" 
d="M317 506q55 0 102.5 -20t82.5 -54.5t55 -82t20 -102.5t-20 -102.5t-55 -82t-82.5 -54.5t-102.5 -20q-56 0 -103.5 20t-82 54.5t-54.5 82t-20 102.5t20 102.5t54.5 82t82 54.5t103.5 20zM317 72q37 0 67.5 13.5t52.5 37t34 55.5t12 69t-12 69t-34 55.5t-52.5 37
t-67.5 13.5t-67.5 -13.5t-52.5 -37.5t-34 -56t-12 -68t12 -68t34 -56t52.5 -37.5t67.5 -13.5zM269 579l-115 183h100l108 -183h-93z" />
    <glyph glyph-name="oacute" unicode="&#xf3;" horiz-adv-x="634" 
d="M317 506q55 0 102.5 -20t82.5 -54.5t55 -82t20 -102.5t-20 -102.5t-55 -82t-82.5 -54.5t-102.5 -20q-56 0 -103.5 20t-82 54.5t-54.5 82t-20 102.5t20 102.5t54.5 82t82 54.5t103.5 20zM317 72q37 0 67.5 13.5t52.5 37t34 55.5t12 69t-12 69t-34 55.5t-52.5 37
t-67.5 13.5t-67.5 -13.5t-52.5 -37.5t-34 -56t-12 -68t12 -68t34 -56t52.5 -37.5t67.5 -13.5zM369 762h100l-115 -183h-93z" />
    <glyph glyph-name="ocircumflex" unicode="&#xf4;" horiz-adv-x="634" 
d="M317 506q55 0 102.5 -20t82.5 -54.5t55 -82t20 -102.5t-20 -102.5t-55 -82t-82.5 -54.5t-102.5 -20q-56 0 -103.5 20t-82 54.5t-54.5 82t-20 102.5t20 102.5t54.5 82t82 54.5t103.5 20zM317 72q37 0 67.5 13.5t52.5 37t34 55.5t12 69t-12 69t-34 55.5t-52.5 37
t-67.5 13.5t-67.5 -13.5t-52.5 -37.5t-34 -56t-12 -68t12 -68t34 -56t52.5 -37.5t67.5 -13.5zM317 690l-74 -114h-90l126 193h76l123 -193h-87z" />
    <glyph glyph-name="otilde" unicode="&#xf5;" horiz-adv-x="634" 
d="M317 506q55 0 102.5 -20t82.5 -54.5t55 -82t20 -102.5t-20 -102.5t-55 -82t-82.5 -54.5t-102.5 -20q-56 0 -103.5 20t-82 54.5t-54.5 82t-20 102.5t20 102.5t54.5 82t82 54.5t103.5 20zM317 72q37 0 67.5 13.5t52.5 37t34 55.5t12 69t-12 69t-34 55.5t-52.5 37
t-67.5 13.5t-67.5 -13.5t-52.5 -37.5t-34 -56t-12 -68t12 -68t34 -56t52.5 -37.5t67.5 -13.5zM156 575v76q0 43 19 68.5t60 25.5q29 0 48.5 -11.5t42.5 -31.5l29 -24q10 -8 18 -13t16 -5q17 0 17 23v67h72v-76q0 -43 -19 -68.5t-60 -25.5q-29 0 -48.5 11.5t-42.5 31.5
l-29 24q-10 8 -18 13t-16 5q-17 0 -17 -23v-67h-72z" />
    <glyph glyph-name="odieresis" unicode="&#xf6;" horiz-adv-x="634" 
d="M317 506q55 0 102.5 -20t82.5 -54.5t55 -82t20 -102.5t-20 -102.5t-55 -82t-82.5 -54.5t-102.5 -20q-56 0 -103.5 20t-82 54.5t-54.5 82t-20 102.5t20 102.5t54.5 82t82 54.5t103.5 20zM317 72q37 0 67.5 13.5t52.5 37t34 55.5t12 69t-12 69t-34 55.5t-52.5 37
t-67.5 13.5t-67.5 -13.5t-52.5 -37.5t-34 -56t-12 -68t12 -68t34 -56t52.5 -37.5t67.5 -13.5zM177 728h92v-139h-92v139zM365 728h92v-139h-92v139z" />
    <glyph glyph-name="divide" unicode="&#xf7;" horiz-adv-x="696" 
d="M291 590h116v-143h-116v143zM84 275v80h528v-80h-528zM291 173h116v-143h-116v143z" />
    <glyph glyph-name="oslash" unicode="&#xf8;" horiz-adv-x="634" 
d="M577 247q0 -55 -20 -102.5t-55 -82t-83 -54.5t-103 -20q-42 0 -80.5 13t-70.5 36l-35 -37h-102l84 88q-26 33 -40.5 73.5t-14.5 85.5q0 55 20 103t54.5 82.5t82 54.5t102.5 20q42 0 80.5 -12.5t70.5 -35.5l33 35h104l-83 -86q26 -34 41 -75t15 -86zM151 247q0 -53 22 -95
l235 246q-19 11 -42 17.5t-50 6.5q-37 0 -67.5 -13.5t-52 -37.5t-33.5 -56t-12 -68zM483 247q0 56 -23 97l-237 -247q39 -25 93 -25q37 0 68 13.5t53 37.5t34 56t12 68z" />
    <glyph glyph-name="ugrave" unicode="&#xf9;" horiz-adv-x="637" 
d="M320 -11q-53 0 -96 16.5t-73 46t-46.5 69.5t-16.5 88v285h91v-268q0 -69 36.5 -110.5t103.5 -41.5t103.5 41.5t36.5 110.5v268h92v-285q0 -48 -16 -88t-46 -69.5t-73 -46t-96 -16.5zM270 579l-115 183h100l108 -183h-93z" />
    <glyph glyph-name="uacute" unicode="&#xfa;" horiz-adv-x="637" 
d="M320 -11q-53 0 -96 16.5t-73 46t-46.5 69.5t-16.5 88v285h91v-268q0 -69 36.5 -110.5t103.5 -41.5t103.5 41.5t36.5 110.5v268h92v-285q0 -48 -16 -88t-46 -69.5t-73 -46t-96 -16.5zM370 762h100l-115 -183h-93z" />
    <glyph glyph-name="ucircumflex" unicode="&#xfb;" horiz-adv-x="637" 
d="M320 -11q-53 0 -96 16.5t-73 46t-46.5 69.5t-16.5 88v285h91v-268q0 -69 36.5 -110.5t103.5 -41.5t103.5 41.5t36.5 110.5v268h92v-285q0 -48 -16 -88t-46 -69.5t-73 -46t-96 -16.5zM318 690l-74 -114h-90l126 193h76l123 -193h-87z" />
    <glyph glyph-name="udieresis" unicode="&#xfc;" horiz-adv-x="637" 
d="M320 -11q-53 0 -96 16.5t-73 46t-46.5 69.5t-16.5 88v285h91v-268q0 -69 36.5 -110.5t103.5 -41.5t103.5 41.5t36.5 110.5v268h92v-285q0 -48 -16 -88t-46 -69.5t-73 -46t-96 -16.5zM178 728h92v-139h-92v139zM366 728h92v-139h-92v139z" />
    <glyph glyph-name="ydieresis" unicode="&#xff;" horiz-adv-x="581" 
d="M234 -224h-93l106 235l-224 483h103l169 -376l169 376h94zM155 728h92v-139h-92v139zM343 728h92v-139h-92v139z" />
    <glyph glyph-name="dotlessi" unicode="&#x131;" horiz-adv-x="281" 
d="M95 494h91v-494h-91v494z" />
    <glyph glyph-name="OE" unicode="&#x152;" horiz-adv-x="1182" 
d="M70 355q0 81 27.5 146.5t77 112t119 71.5t154.5 25h651v-90h-439v-198h254v-90h-254v-242h479v-90h-691q-85 0 -154.5 25t-119 71.5t-77 112t-27.5 146.5zM564 90v530h-116q-64 0 -115.5 -19t-87.5 -53.5t-55.5 -83.5t-19.5 -109t19.5 -109t55.5 -83.5t87.5 -53.5
t115.5 -19h116z" />
    <glyph glyph-name="oe" unicode="&#x153;" horiz-adv-x="1030" 
d="M972 141q-3 -16 -17 -42t-42 -50.5t-71.5 -42.5t-104.5 -18q-40 0 -74 10t-61 25.5t-47 36t-33 41.5q-31 -53 -85 -83t-123 -30q-55 0 -102 20t-81.5 54.5t-54 82t-19.5 102.5t19.5 103t54 82.5t81.5 54.5t102 20q70 0 125 -31.5t85 -85.5q26 48 76.5 82.5t128.5 34.5
q54 0 100 -19t79.5 -54.5t52 -86t17.5 -111.5l-91 1h-316q2 -35 14.5 -65t34.5 -52t51.5 -35t65.5 -13q37 0 63 8.5t43 20t26.5 23t12.5 17.5h90zM728 428q-60 0 -98.5 -32t-52.5 -86h301q-16 57 -55 87.5t-95 30.5zM314 72q37 0 67.5 13.5t52 37.5t33.5 56t12 68t-12 68
t-33.5 56t-52 37.5t-67.5 13.5q-36 0 -66 -13.5t-51.5 -37.5t-33.5 -56t-12 -68t12 -68t33.5 -56t51.5 -37.5t66 -13.5z" />
    <glyph glyph-name="Ydieresis" unicode="&#x178;" horiz-adv-x="765" 
d="M434 0h-97v300l-322 410h123l250 -321l249 321h113l-316 -408v-302zM240 917h92v-139h-92v139zM444 917h92v-139h-92v139z" />
    <glyph glyph-name="circumflex" unicode="&#x2c6;" 
d="M260 690l-74 -114h-90l126 193h76l123 -193h-87z" />
    <glyph glyph-name="caron" unicode="&#x2c7;" 
d="M298 579h-76l-123 193h88l74 -114l74 114h89z" />
    <glyph glyph-name="breve" unicode="&#x2d8;" 
d="M300 645q33 0 48 22t15 50v17h76v-19q0 -60 -34.5 -101t-104.5 -41t-104.5 41t-34.5 101v19h76v-17q0 -27 15 -49.5t48 -22.5z" />
    <glyph glyph-name="dotaccent" unicode="&#x2d9;" 
d="M253 732h94v-143h-94v143z" />
    <glyph glyph-name="ring" unicode="&#x2da;" 
d="M300 567q-28 0 -52 10t-41.5 27t-27.5 40.5t-10 49.5q0 27 10 50t27.5 40t41.5 27t52 10t52 -10t41.5 -27t27.5 -40t10 -50q0 -26 -10 -49.5t-27.5 -40.5t-41.5 -27t-52 -10zM300 629q29 0 46.5 19t17.5 46q0 28 -17.5 46.5t-46.5 18.5t-46.5 -18.5t-17.5 -46.5
q0 -27 17.5 -46t46.5 -19z" />
    <glyph glyph-name="ogonek" unicode="&#x2db;" 
d="M437 -224h-89q-60 0 -94.5 23t-34.5 71q0 21 8 38t22.5 32t33.5 29.5t41 30.5h91q-48 -39 -74.5 -64t-26.5 -48q0 -30 37 -30h86v-82z" />
    <glyph glyph-name="tilde" unicode="&#x2dc;" 
d="M139 575v76q0 43 19 68.5t60 25.5q29 0 48.5 -11.5t42.5 -31.5l29 -24q10 -8 18 -13t16 -5q17 0 17 23v67h72v-76q0 -43 -19 -68.5t-60 -25.5q-29 0 -48.5 11.5t-42.5 31.5l-29 24q-10 8 -18 13t-16 5q-17 0 -17 -23v-67h-72z" />
    <glyph glyph-name="hungarumlaut" unicode="&#x2dd;" 
d="M385 762h88l-91 -183h-81zM210 762h88l-91 -183h-81z" />
    <glyph glyph-name="endash" unicode="&#x2013;" horiz-adv-x="704" 
d="M84 333h536v-76h-536v76z" />
    <glyph glyph-name="emdash" unicode="&#x2014;" horiz-adv-x="1000" 
d="M84 333h832v-76h-832v76z" />
    <glyph glyph-name="quoteleft" unicode="&#x2018;" horiz-adv-x="292" 
d="M210 736q-25 -47 -43 -97t-18 -105h55v-130h-116v120q0 66 15.5 119.5t35.5 92.5h71z" />
    <glyph glyph-name="quoteright" unicode="&#x2019;" horiz-adv-x="292" 
d="M82 404q25 47 43 97t18 105h-55v130h116v-120q0 -66 -15.5 -119.5t-35.5 -92.5h-71z" />
    <glyph glyph-name="quotesinglbase" unicode="&#x201a;" horiz-adv-x="292" 
d="M82 -202q25 47 43 97t18 105h-55v130h116v-120q0 -66 -15.5 -119.5t-35.5 -92.5h-71z" />
    <glyph glyph-name="quotedblleft" unicode="&#x201c;" horiz-adv-x="495" 
d="M210 736q-25 -47 -43 -97t-18 -105h55v-130h-116v120q0 66 15.5 119.5t35.5 92.5h71zM413 736q-25 -47 -43 -97t-18 -105h55v-130h-116v120q0 66 15.5 119.5t35.5 92.5h71z" />
    <glyph glyph-name="quotedblright" unicode="&#x201d;" horiz-adv-x="495" 
d="M285 404q25 47 43 97t18 105h-55v130h116v-120q0 -66 -15.5 -119.5t-35.5 -92.5h-71zM82 404q25 47 43 97t18 105h-55v130h116v-120q0 -66 -15.5 -119.5t-35.5 -92.5h-71z" />
    <glyph glyph-name="quotedblbase" unicode="&#x201e;" horiz-adv-x="495" 
d="M285 -202q25 47 43 97t18 105h-55v130h116v-120q0 -66 -15.5 -119.5t-35.5 -92.5h-71zM82 -202q25 47 43 97t18 105h-55v130h116v-120q0 -66 -15.5 -119.5t-35.5 -92.5h-71z" />
    <glyph glyph-name="dagger" unicode="&#x2020;" horiz-adv-x="522" 
d="M305 441v-441h-88v441h-162v81h162v188h88v-188h162v-81h-162z" />
    <glyph glyph-name="daggerdbl" unicode="&#x2021;" horiz-adv-x="522" 
d="M305 188v-188h-88v188h-162v81h162v172h-162v81h162v188h88v-188h162v-81h-162v-172h162v-81h-162z" />
    <glyph glyph-name="bullet" unicode="&#x2022;" horiz-adv-x="596" 
d="M298 510q40 0 75.5 -15.5t62 -41.5t41.5 -61.5t15 -75.5q0 -41 -15 -76t-41.5 -61.5t-62 -41.5t-75.5 -15q-41 0 -76 15t-61.5 41.5t-41.5 61.5t-15 76q0 40 15 75.5t41.5 61.5t61.5 41.5t76 15.5z" />
    <glyph glyph-name="ellipsis" unicode="&#x2026;" horiz-adv-x="796" 
d="M88 143h116v-143h-116v143zM340 143h116v-143h-116v143zM592 143h116v-143h-116v143z" />
    <glyph glyph-name="perthousand" unicode="&#x2030;" horiz-adv-x="1450" 
d="M252 356q-39 0 -72 14t-57.5 38.5t-38.5 58t-14 72.5t14 72.5t38.5 58t57.5 38.5t72 14t72 -14t57.5 -38.5t38.5 -58t14 -72.5t-14 -72.5t-38.5 -58t-57.5 -38.5t-72 -14zM710 710h95l-503 -710h-94zM252 430q46 0 74.5 31t28.5 78t-28.5 78t-74.5 31t-74.5 -31
t-28.5 -78t28.5 -78t74.5 -31zM762 -14q-39 0 -72 14t-57.5 38.5t-38.5 58t-14 72.5t14 72.5t38.5 58t57.5 38.5t72 14t72 -14t57.5 -38.5t38.5 -58t14 -72.5t-14 -72.5t-38.5 -58t-57.5 -38.5t-72 -14zM1197 -14q-39 0 -72 14t-57.5 38.5t-38.5 58t-14 72.5t14 72.5
t38.5 58t57.5 38.5t72 14t72 -14t57.5 -38.5t38.5 -58t14 -72.5t-14 -72.5t-38.5 -58t-57.5 -38.5t-72 -14zM762 60q46 0 74.5 31t28.5 78t-28.5 78t-74.5 31t-74.5 -31t-28.5 -78t28.5 -78t74.5 -31zM1197 60q46 0 74.5 31t28.5 78t-28.5 78t-74.5 31t-74.5 -31t-28.5 -78
t28.5 -78t74.5 -31z" />
    <glyph glyph-name="guilsinglleft" unicode="&#x2039;" horiz-adv-x="341" 
d="M156 276l115 -179h-93l-113 178l114 178h92z" />
    <glyph glyph-name="guilsinglright" unicode="&#x203a;" horiz-adv-x="341" 
d="M162 97h-92l115 177l-115 179h93l113 -178z" />
    <glyph glyph-name="fraction" unicode="&#x2044;" horiz-adv-x="525" 
d="M0 0l433 710h92l-433 -710h-92z" />
    <glyph glyph-name="Euro" unicode="&#x20ac;" horiz-adv-x="712" 
d="M48 482h118q0 58 16.5 102.5t47.5 75t74 46.5t96 16q109 0 171.5 -60.5t65.5 -169.5h-97q-1 29 -9.5 55t-26 45.5t-43 31t-61.5 11.5q-34 0 -60 -11.5t-44 -32t-27 -48.5t-9 -61h182v-78h-182v-91h182v-78h-182v-6q0 -71 37 -112t105 -41q69 0 103 40.5t35 107.5h97
q-1 -58 -18.5 -102t-48.5 -73.5t-74 -44.5t-96 -15q-52 0 -95 15t-74 45t-48 75t-17 105v6h-118v78h118v91h-118v78z" />
    <glyph glyph-name="trademark" unicode="&#x2122;" horiz-adv-x="1017" 
d="M30 710h371v-72h-145v-324h-81v324h-145v72zM709 431l110 279h118v-396h-77v320l-128 -322h-52l-128 324v-322h-74v396h122z" />
    <glyph glyph-name="f_i" unicode="&#xfb01;" horiz-adv-x="770" 
d="M267 412v-412h-91v412h-146v82h146v78q0 79 42.5 121.5t133.5 42.5h139v-82h-129q-50 0 -72.5 -24t-22.5 -71v-65h192v-82h-192zM582 732h95v-143h-95v143zM584 494h91v-494h-91v494z" />
    <glyph glyph-name="f_l" unicode="&#xfb02;" horiz-adv-x="772" 
d="M267 412v-412h-91v412h-146v82h146v78q0 79 42.5 121.5t133.5 42.5h139v-82h-129q-50 0 -72.5 -24t-22.5 -71v-65h192v-82h-192zM585 736h91v-736h-91v736z" />
    <glyph glyph-name="uni0192" unicode="&#x192;" horiz-adv-x="583" 
d="M290 342l-89 -556h-92l87 556h-151v83h164l19 119q7 42 19.5 73t34.5 52t56 31t83 10h146v-83h-137q-56 0 -79 -22t-31 -74l-17 -106h176v-83h-189z" />
    <glyph glyph-name="exclam" unicode="!" horiz-adv-x="336" 
d="M123 710h90v-478h-90v478zM110 142h116v-142h-116v142z" />
    <glyph glyph-name="dollar" unicode="$" horiz-adv-x="599" 
d="M524 191q0 -38 -12.5 -70t-35.5 -57t-57.5 -41.5t-77.5 -21.5v-124h-78v123q-91 11 -139.5 67.5t-48.5 139.5v6h94v-4q0 -61 36.5 -94t93.5 -33q63 0 96.5 30.5t33.5 78.5t-27.5 74t-75.5 40l-73 22q-83 25 -125.5 71.5t-42.5 130.5q0 38 13.5 70t37 55.5t56 38.5
t71.5 20v116h78v-117q81 -11 125.5 -62.5t44.5 -135.5v-3h-92v3q0 53 -31.5 85t-88.5 32q-54 0 -87 -27t-33 -75q0 -46 27.5 -72.5t75.5 -40.5l73 -22q40 -12 71.5 -29.5t53.5 -41.5t33 -56.5t11 -75.5z" />
    <glyph glyph-name="quotedbl" unicode="&#x22;" horiz-adv-x="469" 
d="M102 405v305h81v-305h-81zM286 405v305h81v-305h-81z" />
    <glyph glyph-name="numbersign" unicode="#" horiz-adv-x="741" 
d="M402 191h-163l-57 -191h-79l56 191h-129v71h150l58 196h-130v71h151l54 181h80l-54 -181h163l54 181h80l-54 -181h129v-71h-150l-58 -196h130v-71h-151l-57 -191h-79zM423 262l58 196h-163l-58 -196h163z" />
    <glyph glyph-name="brokenbar" unicode="&#xa6;" horiz-adv-x="323" 
d="M120 822h83v-405h-83v405zM120 302h83v-418h-83v418z" />
    <glyph glyph-name="onequarter" unicode="&#xbc;" horiz-adv-x="935" 
d="M812 112v-112h-81v112h-214v60l193 254h102v-244h84v-70h-84zM731 182v170l-127 -170h127zM233 284h-85v332l-105 -59v79l126 76h64v-428zM162 0l433 710h92l-433 -710h-92z" />
    <glyph glyph-name="onehalf" unicode="&#xbd;" horiz-adv-x="932" 
d="M233 284h-85v332l-105 -59v79l126 76h64v-428zM161 0l433 710h92l-433 -710h-92zM893 0h-322v55l151 143q29 28 44 49.5t15 48.5t-17 44t-48 17t-48.5 -19t-17.5 -50v-23h-81v24q0 31 10 57.5t28.5 45.5t46 30t62.5 11q72 0 111 -37t39 -97q0 -25 -6.5 -45.5t-18.5 -38.5
t-29 -35.5t-38 -36.5l-74 -68h193v-75z" />
    <glyph glyph-name="threequarters" unicode="&#xbe;" horiz-adv-x="1032" 
d="M372 404q0 -57 -42.5 -92t-118.5 -35q-42 0 -71.5 12t-49 30.5t-29.5 41t-12 44.5h85q4 -18 21.5 -35.5t55.5 -17.5q35 0 55 15.5t20 42.5t-17 41.5t-48 14.5h-79v74h76q55 0 55 50q0 26 -18 40t-47 14q-33 0 -48 -16.5t-18 -33.5h-84q1 22 10 44t27.5 39.5t46.5 28.5
t66 11q72 0 111 -32.5t39 -87.5q0 -37 -18.5 -58.5t-37.5 -29.5q12 -4 24 -11.5t22.5 -20.5t17 -31t6.5 -42zM909 112v-112h-81v112h-214v60l193 254h102v-244h84v-70h-84zM828 182v170l-127 -170h127zM259 0l433 710h92l-433 -710h-92z" />
    <glyph glyph-name="Eth" unicode="&#xd0;" horiz-adv-x="852" 
d="M12 402h118v308h280q85 0 154 -25t117.5 -71.5t74.5 -112t26 -146.5q0 -80 -26 -145t-74 -112t-117 -72.5t-155 -25.5h-280v314h-118v88zM227 621v-219h241v-88h-241v-225h183q63 0 113.5 19t85.5 53.5t54 83.5t19 110q0 63 -19 112t-54 83.5t-85.5 52.5t-113.5 18h-183z
" />
    <glyph glyph-name="multiply" unicode="&#xd7;" horiz-adv-x="640" 
d="M500 59l-182 181l-180 -181l-54 54l180 181l-180 179l58 58l179 -181l180 181l54 -54l-180 -181l181 -183z" />
    <glyph glyph-name="Yacute" unicode="&#xdd;" horiz-adv-x="765" 
d="M434 0h-97v300l-322 410h123l250 -321l249 321h113l-316 -408v-302zM441 928h110l-120 -150h-102z" />
    <glyph glyph-name="Thorn" unicode="&#xde;" horiz-adv-x="778" 
d="M207 164v-164h-97v710h97v-146h279q115 0 173.5 -51.5t58.5 -146.5q0 -91 -59 -146.5t-173 -55.5h-279zM207 474v-220h282q65 0 97 31t32 79q0 53 -32 81.5t-97 28.5h-282z" />
    <glyph glyph-name="eth" unicode="&#xf0;" horiz-adv-x="634" 
d="M577 246q0 -55 -20 -102t-55 -81.5t-83 -54.5t-103 -20t-102.5 20t-82 54.5t-54.5 81.5t-20 102q0 54 17.5 99t48 78t71.5 51t87 18q38 0 64.5 -11.5t46.5 -27.5l-116 132l-156 -65l-28 60l138 58l-86 98h105l58 -66l153 64l29 -60l-136 -57l109 -123q25 -29 46 -57
t36.5 -58t24 -63t8.5 -70zM316 72q37 0 68 13.5t53 37.5t34 55.5t12 67.5t-12 68t-34 56t-53 38t-68 14t-67.5 -14t-52 -38t-33.5 -56t-12 -68t12 -67.5t33.5 -55.5t52 -37.5t67.5 -13.5z" />
    <glyph glyph-name="yacute" unicode="&#xfd;" horiz-adv-x="581" 
d="M234 -224h-93l106 235l-224 483h103l169 -376l169 376h94zM347 762h100l-115 -183h-93z" />
    <glyph glyph-name="thorn" unicode="&#xfe;" horiz-adv-x="666" 
d="M184 -224h-90v960h90v-326q4 9 17 25.5t35.5 32t54 27t73.5 11.5q50 0 94.5 -17.5t77.5 -51t52.5 -81.5t19.5 -109t-19.5 -109t-52.5 -81.5t-77.5 -51t-94.5 -17.5q-41 0 -72.5 11t-54 26t-36 30.5t-17.5 24.5v-304zM182 247q0 -37 12 -69t33.5 -55.5t52 -37t68.5 -13.5
t69 13.5t52.5 37t33.5 55.5t12 69t-12 69.5t-33.5 55.5t-52.5 36.5t-69 13.5t-68.5 -13.5t-52 -36.5t-33.5 -55.5t-12 -69.5z" />
    <glyph glyph-name="Lslash" unicode="&#x141;" horiz-adv-x="716" 
d="M676 0h-556v226l-103 -52v89l103 53v394h97v-344l285 148v-92l-285 -146v-185h459v-91z" />
    <glyph glyph-name="lslash" unicode="&#x142;" horiz-adv-x="369" 
d="M24 345l115 60v331h91v-283l115 61v-90l-115 -60v-364h-91v317l-115 -59v87z" />
    <glyph glyph-name="Scaron" unicode="&#x160;" horiz-adv-x="752" 
d="M346 633q-86 0 -129 -28.5t-43 -76.5q0 -44 35 -69t101 -33l139 -16q45 -5 87 -18t74.5 -37.5t52 -62.5t19.5 -93q0 -43 -17.5 -81.5t-53.5 -67.5t-90.5 -46t-127.5 -17q-83 0 -142 19t-99 50t-64 69.5t-36 77.5h104q9 -20 25.5 -42.5t45 -41.5t69 -31t97.5 -12
q93 0 142.5 33.5t49.5 84.5q0 31 -10.5 52.5t-29.5 35t-45.5 21t-58.5 11.5l-140 15q-48 5 -89 19.5t-71 39t-47 59t-17 81.5q0 43 19 79t54.5 61.5t85 39.5t110.5 14q79 0 136 -17.5t94.5 -45.5t58.5 -62.5t30 -67.5h-101q-9 18 -25 36.5t-42 33.5t-63 24.5t-88 9.5z
M406 775h-78l-136 156h94l81 -89l80 89h98z" />
    <glyph glyph-name="scaron" unicode="&#x161;" horiz-adv-x="565" 
d="M225 217q-71 8 -116.5 43.5t-45.5 103.5q0 33 14.5 59.5t41.5 45t64.5 29t82.5 10.5q62 0 105 -14t70.5 -35t41.5 -44.5t20 -42.5h-97q-4 5 -13.5 14.5t-26 19.5t-41.5 17t-59 7q-56 0 -84.5 -18t-28.5 -45q0 -26 20 -42.5t64 -21.5q29 -4 51.5 -6t54.5 -6
q88 -11 127.5 -49.5t39.5 -106.5q0 -31 -14 -58t-41.5 -47.5t-68 -32t-92.5 -11.5q-65 0 -110.5 17.5t-74 41.5t-43 50t-18.5 43h97q2 -6 11 -18t26.5 -24t45 -21t66.5 -9q63 0 94 20t31 49t-19 46.5t-69 23.5zM316 579h-76l-123 193h88l74 -114l74 114h89z" />
    <glyph glyph-name="Zcaron" unicode="&#x17d;" horiz-adv-x="782" 
d="M737 0h-682v57l482 563h-472v90h622v-57l-486 -563h536v-90zM415 775h-78l-136 156h94l81 -89l80 89h98z" />
    <glyph glyph-name="zcaron" unicode="&#x17e;" horiz-adv-x="606" 
d="M562 0h-506v53l329 360h-321v81h462v-51l-334 -362h370v-81zM332 579h-76l-123 193h88l74 -114l74 114h89z" />
    <glyph glyph-name="minus" unicode="&#x2212;" horiz-adv-x="696" 
d="M84 275v80h528v-80h-528z" />
    <glyph glyph-name="Dcroat" unicode="&#x110;" horiz-adv-x="852" 
d="M12 402h118v308h280q85 0 154 -25t117.5 -71.5t74.5 -112t26 -146.5q0 -80 -26 -145t-74 -112t-117 -72.5t-155 -25.5h-280v314h-118v88zM227 621v-219h241v-88h-241v-225h183q63 0 113.5 19t85.5 53.5t54 83.5t19 110q0 63 -19 112t-54 83.5t-85.5 52.5t-113.5 18h-183z
" />
    <glyph glyph-name="Eng" unicode="&#x14a;" horiz-adv-x="860" 
d="M750 -52q0 -172 -176 -172h-124v88h105q103 0 103 84q0 25 -12 50.5t-43 66.5l-400 528v-593h-93v710h118l429 -570v570h93v-762v0z" />
    <glyph glyph-name="IJ" unicode="&#x132;" horiz-adv-x="982" 
d="M111 710h97v-710h-97v710zM875 223q0 -58 -17 -101.5t-48 -73t-74.5 -44.5t-95.5 -15q-51 0 -93.5 15t-73.5 44t-48 73t-17 102v189h96v-189q0 -66 36.5 -104t99.5 -38q66 0 102 38t36 104v487h97v-487v0z" />
    <glyph glyph-name="dcroat" unicode="&#x111;" horiz-adv-x="667" 
d="M482 85q-5 -9 -17.5 -25.5t-35 -32t-54 -27.5t-73.5 -12q-50 0 -94 17.5t-77.5 51t-53 81.5t-19.5 109t19.5 109t53 81.5t77.5 51t94 17.5q42 0 73.5 -11t53.5 -26t35 -31t18 -26v162h-213v74h213v88h91v-88h103v-74h-103v-574h-91v85zM484 247q0 37 -12 69.5t-33.5 55.5
t-52 36.5t-67.5 13.5q-38 0 -69 -13.5t-52.5 -36.5t-33.5 -55.5t-12 -69.5q0 -38 12 -70t33.5 -55t52.5 -36.5t69 -13.5q37 0 67.5 13.5t52 36.5t33.5 55t12 70z" />
    <glyph glyph-name="eng" unicode="&#x14b;" horiz-adv-x="652" 
d="M564 -43q0 -181 -180 -181h-122v85h108q53 0 77.5 27.5t24.5 78.5v300q0 70 -38.5 112t-102.5 42q-33 0 -60 -11.5t-46 -32t-29.5 -48.5t-10.5 -62v-267h-91v494h91v-91q7 15 21.5 33t35.5 33t48.5 25.5t62.5 10.5q47 0 86 -16.5t66.5 -46t43 -70t15.5 -88.5v-327v0z" />
    <glyph glyph-name="ij" unicode="&#x133;" horiz-adv-x="562" 
d="M93 732h95v-143h-95v143zM95 494h91v-494h-91v494zM374 732h95v-143h-95v143zM467 -53q0 -85 -41.5 -128t-126.5 -43h-133v85h118q92 0 92 96v537h91v-547z" />
    <glyph glyph-name="Abreve" unicode="&#x102;" horiz-adv-x="800" 
d="M586 171h-378l-79 -171h-96l328 714h77l329 -714h-102zM546 259l-149 324l-149 -324h298zM399 843q35 0 52 23t17 52v13h76v-15q0 -31 -9.5 -57.5t-27.5 -46t-45 -30.5t-63 -11t-63 11t-45 30.5t-27.5 46t-9.5 57.5v15h76v-13q0 -29 17 -52t52 -23z" />
    <glyph glyph-name="Amacron" unicode="&#x100;" horiz-adv-x="800" 
d="M586 171h-378l-79 -171h-96l328 714h77l329 -714h-102zM546 259l-149 324l-149 -324h298zM234 813v78h330v-78h-330z" />
    <glyph glyph-name="Aogonek" unicode="&#x104;" horiz-adv-x="800" 
d="M586 171h-378l-79 -171h-96l328 714h77l329 -714q-48 -39 -74.5 -64t-26.5 -48q0 -30 37 -30h86v-82h-89q-60 0 -94.5 23t-34.5 70q0 42 27.5 72t66.5 59zM546 259l-149 324l-149 -324h298z" />
    <glyph glyph-name="Aringacute" unicode="&#x1fa;" horiz-adv-x="800" 
d="M586 171h-378l-79 -171h-96l328 714h77l329 -714h-102zM546 259l-149 324l-149 -324h298zM456 1201h106l-112 -140h-98zM399 768q-28 0 -52 10t-41.5 27t-27.5 40.5t-10 49.5q0 27 10 50t27.5 40t41.5 27t52 10t52 -10t41.5 -27t27.5 -40t10 -50q0 -26 -10 -49.5
t-27.5 -40.5t-41.5 -27t-52 -10zM399 830q29 0 46.5 19t17.5 46q0 28 -17.5 46.5t-46.5 18.5t-46.5 -18.5t-17.5 -46.5q0 -27 17.5 -46t46.5 -19z" />
    <glyph glyph-name="AEacute" unicode="&#x1fc;" horiz-adv-x="1160" 
d="M1117 0h-575v183h-305l-127 -183h-110l497 710h580v-90h-439v-198h254v-90h-254v-242h479v-90zM542 269v354l-245 -354h245zM848 928h110l-120 -150h-102z" />
    <glyph glyph-name="Cacute" unicode="&#x106;" horiz-adv-x="809" 
d="M420 -12q-76 0 -140.5 28.5t-111 78t-73 116.5t-26.5 144t26.5 144t73.5 116.5t111 78t140 28.5q78 0 135.5 -22.5t97 -55.5t62.5 -71.5t32 -70.5h-101q-9 19 -27.5 41.5t-46.5 42t-66 32.5t-86 13q-57 0 -103 -22t-79 -60t-50.5 -88t-17.5 -106t17.5 -106t50.5 -88
t79 -60t103 -22q54 0 93 14t66 34t43.5 42.5t25.5 39.5h99q-8 -30 -29.5 -68.5t-60.5 -72t-97.5 -57t-139.5 -23.5zM482 928h110l-120 -150h-102z" />
    <glyph glyph-name="Ccaron" unicode="&#x10c;" horiz-adv-x="809" 
d="M420 -12q-76 0 -140.5 28.5t-111 78t-73 116.5t-26.5 144t26.5 144t73.5 116.5t111 78t140 28.5q78 0 135.5 -22.5t97 -55.5t62.5 -71.5t32 -70.5h-101q-9 19 -27.5 41.5t-46.5 42t-66 32.5t-86 13q-57 0 -103 -22t-79 -60t-50.5 -88t-17.5 -106t17.5 -106t50.5 -88
t79 -60t103 -22q54 0 93 14t66 34t43.5 42.5t25.5 39.5h99q-8 -30 -29.5 -68.5t-60.5 -72t-97.5 -57t-139.5 -23.5zM459 775h-78l-136 156h94l81 -89l80 89h98z" />
    <glyph glyph-name="Ccircumflex" unicode="&#x108;" horiz-adv-x="809" 
d="M420 -12q-76 0 -140.5 28.5t-111 78t-73 116.5t-26.5 144t26.5 144t73.5 116.5t111 78t140 28.5q78 0 135.5 -22.5t97 -55.5t62.5 -71.5t32 -70.5h-101q-9 19 -27.5 41.5t-46.5 42t-66 32.5t-86 13q-57 0 -103 -22t-79 -60t-50.5 -88t-17.5 -106t17.5 -106t50.5 -88
t79 -60t103 -22q54 0 93 14t66 34t43.5 42.5t25.5 39.5h99q-8 -30 -29.5 -68.5t-60.5 -72t-97.5 -57t-139.5 -23.5zM421 864l-81 -89h-98l139 156h78l136 -156h-94z" />
    <glyph glyph-name="Cdotaccent" unicode="&#x10a;" horiz-adv-x="809" 
d="M420 -12q-76 0 -140.5 28.5t-111 78t-73 116.5t-26.5 144t26.5 144t73.5 116.5t111 78t140 28.5q78 0 135.5 -22.5t97 -55.5t62.5 -71.5t32 -70.5h-101q-9 19 -27.5 41.5t-46.5 42t-66 32.5t-86 13q-57 0 -103 -22t-79 -60t-50.5 -88t-17.5 -106t17.5 -106t50.5 -88
t79 -60t103 -22q54 0 93 14t66 34t43.5 42.5t25.5 39.5h99q-8 -30 -29.5 -68.5t-60.5 -72t-97.5 -57t-139.5 -23.5zM373 921h94v-143h-94v143z" />
    <glyph glyph-name="Dcaron" unicode="&#x10e;" horiz-adv-x="832" 
d="M110 710h280q85 0 154 -25t117.5 -71.5t74.5 -112t26 -146.5q0 -80 -26 -145t-74 -112t-117 -72.5t-155 -25.5h-280v710zM207 621v-532h183q63 0 113.5 19t85.5 53.5t54 83.5t19 110q0 63 -19 112t-54 83.5t-85.5 52.5t-113.5 18h-183zM427 775h-78l-136 156h94l81 -89
l80 89h98z" />
    <glyph glyph-name="Ebreve" unicode="&#x114;" horiz-adv-x="749" 
d="M110 710h556v-90h-460v-198h275v-90h-275v-242h500v-90h-596v710zM399 843q35 0 52 23t17 52v13h76v-15q0 -31 -9.5 -57.5t-27.5 -46t-45 -30.5t-63 -11t-63 11t-45 30.5t-27.5 46t-9.5 57.5v15h76v-13q0 -29 17 -52t52 -23z" />
    <glyph glyph-name="Ecaron" unicode="&#x11a;" horiz-adv-x="749" 
d="M110 710h556v-90h-460v-198h275v-90h-275v-242h500v-90h-596v710zM438 775h-78l-136 156h94l81 -89l80 89h98z" />
    <glyph glyph-name="Edotaccent" unicode="&#x116;" horiz-adv-x="749" 
d="M110 710h556v-90h-460v-198h275v-90h-275v-242h500v-90h-596v710zM352 921h94v-143h-94v143z" />
    <glyph glyph-name="Emacron" unicode="&#x112;" horiz-adv-x="749" 
d="M110 710h556v-90h-460v-198h275v-90h-275v-242h500v-90h-596v710zM234 813v78h330v-78h-330z" />
    <glyph glyph-name="Eogonek" unicode="&#x118;" horiz-adv-x="749" 
d="M110 710h556v-90h-460v-198h275v-90h-275v-242h500v-90h-596v710zM615 -224h-89q-60 0 -94.5 23t-34.5 71q0 21 8 38t22.5 32t33.5 29.5t41 30.5h91q-48 -39 -74.5 -64t-26.5 -48q0 -30 37 -30h86v-82z" />
    <glyph glyph-name="Gbreve" unicode="&#x11e;" horiz-adv-x="847" 
d="M758 98q-20 -20 -48.5 -39.5t-67 -35t-86.5 -25.5t-108 -10q-85 0 -155 27t-119.5 76t-77 116.5t-27.5 148.5q0 79 27 146t75 116t114 76.5t144 27.5q74 0 128 -18.5t91 -46t59 -59.5t32 -59h-101q-9 12 -25.5 28t-42 30.5t-60.5 24.5t-81 10q-60 0 -108.5 -21.5
t-82 -58.5t-51.5 -87.5t-18 -108.5q0 -63 20 -114t57 -87.5t88.5 -56.5t113.5 -20q81 0 135.5 18.5t82.5 39.5v175h-280v87h372v-300v0zM429 843q35 0 52 23t17 52v13h76v-15q0 -31 -9.5 -57.5t-27.5 -46t-45 -30.5t-63 -11t-63 11t-45 30.5t-27.5 46t-9.5 57.5v15h76v-13
q0 -29 17 -52t52 -23z" />
    <glyph glyph-name="Gcircumflex" unicode="&#x11c;" horiz-adv-x="847" 
d="M758 98q-20 -20 -48.5 -39.5t-67 -35t-86.5 -25.5t-108 -10q-85 0 -155 27t-119.5 76t-77 116.5t-27.5 148.5q0 79 27 146t75 116t114 76.5t144 27.5q74 0 128 -18.5t91 -46t59 -59.5t32 -59h-101q-9 12 -25.5 28t-42 30.5t-60.5 24.5t-81 10q-60 0 -108.5 -21.5
t-82 -58.5t-51.5 -87.5t-18 -108.5q0 -63 20 -114t57 -87.5t88.5 -56.5t113.5 -20q81 0 135.5 18.5t82.5 39.5v175h-280v87h372v-300v0zM430 864l-81 -89h-98l139 156h78l136 -156h-94z" />
    <glyph glyph-name="uni0122" unicode="&#x122;" horiz-adv-x="847" 
d="M758 98q-20 -20 -48.5 -39.5t-67 -35t-86.5 -25.5t-108 -10q-85 0 -155 27t-119.5 76t-77 116.5t-27.5 148.5q0 79 27 146t75 116t114 76.5t144 27.5q74 0 128 -18.5t91 -46t59 -59.5t32 -59h-101q-9 12 -25.5 28t-42 30.5t-60.5 24.5t-81 10q-60 0 -108.5 -21.5
t-82 -58.5t-51.5 -87.5t-18 -108.5q0 -63 20 -114t57 -87.5t88.5 -56.5t113.5 -20q81 0 135.5 18.5t82.5 39.5v175h-280v87h372v-300v0zM412 -325q16 29 25.5 62t9.5 53h-52v115h112v-98q0 -45 -8.5 -76.5t-19.5 -55.5h-67z" />
    <glyph glyph-name="Gdotaccent" unicode="&#x120;" horiz-adv-x="847" 
d="M758 98q-20 -20 -48.5 -39.5t-67 -35t-86.5 -25.5t-108 -10q-85 0 -155 27t-119.5 76t-77 116.5t-27.5 148.5q0 79 27 146t75 116t114 76.5t144 27.5q74 0 128 -18.5t91 -46t59 -59.5t32 -59h-101q-9 12 -25.5 28t-42 30.5t-60.5 24.5t-81 10q-60 0 -108.5 -21.5
t-82 -58.5t-51.5 -87.5t-18 -108.5q0 -63 20 -114t57 -87.5t88.5 -56.5t113.5 -20q81 0 135.5 18.5t82.5 39.5v175h-280v87h372v-300v0zM382 921h94v-143h-94v143z" />
    <glyph glyph-name="Hbar" unicode="&#x126;" horiz-adv-x="850" 
d="M643 313h-436v-313h-97v514h-100v76h100v120h97v-120h436v120h97v-120h100v-76h-100v-514h-97v313zM643 403v111h-436v-111h436z" />
    <glyph glyph-name="Hcircumflex" unicode="&#x124;" horiz-adv-x="850" 
d="M643 313h-436v-313h-97v710h97v-307h436v307h97v-710h-97v313zM426 864l-81 -89h-98l139 156h78l136 -156h-94z" />
    <glyph glyph-name="Ibreve" unicode="&#x12c;" horiz-adv-x="319" 
d="M111 710h97v-710h-97v710zM159 843q35 0 52 23t17 52v13h76v-15q0 -31 -9.5 -57.5t-27.5 -46t-45 -30.5t-63 -11t-63 11t-45 30.5t-27.5 46t-9.5 57.5v15h76v-13q0 -29 17 -52t52 -23z" />
    <glyph glyph-name="Idotaccent" unicode="&#x130;" horiz-adv-x="319" 
d="M111 710h97v-710h-97v710zM112 921h94v-143h-94v143z" />
    <glyph glyph-name="Imacron" unicode="&#x12a;" horiz-adv-x="319" 
d="M111 710h97v-710h-97v710zM-6 813v78h330v-78h-330z" />
    <glyph glyph-name="Iogonek" unicode="&#x12e;" horiz-adv-x="319" 
d="M111 710h97v-710q-48 -39 -74.5 -64t-26.5 -48q0 -30 37 -30h86v-82h-89q-60 0 -94.5 23t-34.5 70q0 42 28.5 72t70.5 59v710z" />
    <glyph glyph-name="Itilde" unicode="&#x128;" horiz-adv-x="319" 
d="M111 710h97v-710h-97v710zM117 838q-11 6 -20.5 10.5t-17.5 4.5q-17 0 -17 -24v-56h-73v66q0 43 18.5 68.5t58.5 25.5q26 0 48.5 -11.5t48.5 -26.5l38 -22q11 -6 20 -10.5t17 -4.5q18 0 18 24v56h73v-66q0 -43 -19 -68.5t-59 -25.5q-27 0 -48.5 11.5t-47.5 26.5z" />
    <glyph glyph-name="Jcircumflex" unicode="&#x134;" horiz-adv-x="663" 
d="M556 223q0 -58 -17 -101.5t-48 -73t-74.5 -44.5t-95.5 -15q-51 0 -93.5 15t-73.5 44t-48 73t-17 102v189h96v-189q0 -66 36.5 -104t99.5 -38q66 0 102 38t36 104v487h97v-487v0zM508 864l-81 -89h-98l139 156h78l136 -156h-94z" />
    <glyph glyph-name="uni0136" unicode="&#x136;" horiz-adv-x="780" 
d="M207 330v-330h-97v710h97v-328l409 328h137l-435 -348l453 -362h-139zM371 -325q16 29 25.5 62t9.5 53h-52v115h112v-98q0 -45 -8.5 -76.5t-19.5 -55.5h-67z" />
    <glyph glyph-name="Lacute" unicode="&#x139;" horiz-adv-x="704" 
d="M666 0h-556v710h97v-619h459v-91zM221 928h110l-120 -150h-102z" />
    <glyph glyph-name="Lcaron" unicode="&#x13d;" horiz-adv-x="706" 
d="M666 0h-556v710h97v-619h459v-91zM323 772h86l-57 -193h-79z" />
    <glyph glyph-name="uni013B" unicode="&#x13b;" horiz-adv-x="704" 
d="M666 0h-556v710h97v-619h459v-91zM355 -325q16 29 25.5 62t9.5 53h-52v115h112v-98q0 -45 -8.5 -76.5t-19.5 -55.5h-67z" />
    <glyph glyph-name="Ldot" unicode="&#x13f;" horiz-adv-x="706" 
d="M666 0h-556v710h97v-619h459v-91zM454 466h116v-142h-116v142z" />
    <glyph glyph-name="Nacute" unicode="&#x143;" horiz-adv-x="860" 
d="M750 -5h-69l-478 601v-596h-93v710h118l429 -544v544h93v-715zM502 928h110l-120 -150h-102z" />
    <glyph glyph-name="Ncaron" unicode="&#x147;" horiz-adv-x="860" 
d="M750 -5h-69l-478 601v-596h-93v710h118l429 -544v544h93v-715zM480 775h-78l-136 156h94l81 -89l80 89h98z" />
    <glyph glyph-name="uni0145" unicode="&#x145;" horiz-adv-x="860" 
d="M750 -5h-69l-478 601v-596h-93v710h118l429 -544v544h93v-715zM397 -325q16 29 25.5 62t9.5 53h-52v115h112v-98q0 -45 -8.5 -76.5t-19.5 -55.5h-67z" />
    <glyph glyph-name="Obreve" unicode="&#x14e;" horiz-adv-x="872" 
d="M436 -12q-80 0 -147 28t-116 77t-76.5 116.5t-27.5 145.5t28 145t77 116.5t116 77.5t146 28q78 0 145.5 -28t116.5 -77.5t77 -116.5t28 -145t-28 -145t-77 -116.5t-116.5 -77.5t-145.5 -28zM436 78q60 0 109 22t84.5 59.5t54.5 88t19 107.5t-19 107t-54.5 88t-84.5 60
t-109 22t-109 -22t-84.5 -59.5t-54.5 -88t-19 -107.5q0 -58 19 -108.5t54.5 -88t84.5 -59t109 -21.5zM436 843q35 0 52 23t17 52v13h76v-15q0 -31 -9.5 -57.5t-27.5 -46t-45 -30.5t-63 -11t-63 11t-45 30.5t-27.5 46t-9.5 57.5v15h76v-13q0 -29 17 -52t52 -23z" />
    <glyph glyph-name="Ohungarumlaut" unicode="&#x150;" horiz-adv-x="872" 
d="M436 -12q-80 0 -147 28t-116 77t-76.5 116.5t-27.5 145.5t28 145t77 116.5t116 77.5t146 28q78 0 145.5 -28t116.5 -77.5t77 -116.5t28 -145t-28 -145t-77 -116.5t-116.5 -77.5t-145.5 -28zM436 78q60 0 109 22t84.5 59.5t54.5 88t19 107.5t-19 107t-54.5 88t-84.5 60
t-109 22t-109 -22t-84.5 -59.5t-54.5 -88t-19 -107.5q0 -58 19 -108.5t54.5 -88t84.5 -59t109 -21.5zM556 928h92l-85 -150h-85zM380 928h92l-85 -150h-85z" />
    <glyph glyph-name="Omacron" unicode="&#x14c;" horiz-adv-x="872" 
d="M436 -12q-80 0 -147 28t-116 77t-76.5 116.5t-27.5 145.5t28 145t77 116.5t116 77.5t146 28q78 0 145.5 -28t116.5 -77.5t77 -116.5t28 -145t-28 -145t-77 -116.5t-116.5 -77.5t-145.5 -28zM436 78q60 0 109 22t84.5 59.5t54.5 88t19 107.5t-19 107t-54.5 88t-84.5 60
t-109 22t-109 -22t-84.5 -59.5t-54.5 -88t-19 -107.5q0 -58 19 -108.5t54.5 -88t84.5 -59t109 -21.5zM271 813v78h330v-78h-330z" />
    <glyph glyph-name="Oslashacute" unicode="&#x1fe;" horiz-adv-x="872" 
d="M803 355q0 -78 -28 -145t-77 -116.5t-116.5 -77.5t-145.5 -28q-62 0 -117 18t-100 50l-50 -56h-110l100 110q-42 49 -66 111t-24 134q0 78 28 145t77 116.5t116 77.5t146 28q61 0 115 -18t99 -50l50 56h113l-101 -111q43 -49 67 -111t24 -133zM169 355q0 -51 14 -95
t40 -79l366 406q-32 21 -70 33t-83 12q-60 0 -109 -22t-84.5 -59.5t-54.5 -88t-19 -107.5zM703 355q0 100 -54 174l-368 -405q32 -22 71 -34t84 -12q60 0 109 22t84.5 59.5t54.5 88t19 107.5zM499 928h110l-120 -150h-102z" />
    <glyph glyph-name="Racute" unicode="&#x154;" horiz-adv-x="803" 
d="M110 710h377q115 0 174.5 -50.5t59.5 -150.5q0 -71 -37 -118t-108 -65l172 -326h-103l-170 316h-268v-316h-97v710zM207 620v-215h277q69 0 103 25t34 79q0 58 -34 84.5t-103 26.5h-277zM460 928h110l-120 -150h-102z" />
    <glyph glyph-name="Rcaron" unicode="&#x158;" horiz-adv-x="803" 
d="M110 710h377q115 0 174.5 -50.5t59.5 -150.5q0 -71 -37 -118t-108 -65l172 -326h-103l-170 316h-268v-316h-97v710zM207 620v-215h277q69 0 103 25t34 79q0 58 -34 84.5t-103 26.5h-277zM437 775h-78l-136 156h94l81 -89l80 89h98z" />
    <glyph glyph-name="uni0156" unicode="&#x156;" horiz-adv-x="803" 
d="M110 710h377q115 0 174.5 -50.5t59.5 -150.5q0 -71 -37 -118t-108 -65l172 -326h-103l-170 316h-268v-316h-97v710zM207 620v-215h277q69 0 103 25t34 79q0 58 -34 84.5t-103 26.5h-277zM361 -325q16 29 25.5 62t9.5 53h-52v115h112v-98q0 -45 -8.5 -76.5t-19.5 -55.5
h-67z" />
    <glyph glyph-name="Sacute" unicode="&#x15a;" horiz-adv-x="752" 
d="M346 633q-86 0 -129 -28.5t-43 -76.5q0 -44 35 -69t101 -33l139 -16q45 -5 87 -18t74.5 -37.5t52 -62.5t19.5 -93q0 -43 -17.5 -81.5t-53.5 -67.5t-90.5 -46t-127.5 -17q-83 0 -142 19t-99 50t-64 69.5t-36 77.5h104q9 -20 25.5 -42.5t45 -41.5t69 -31t97.5 -12
q93 0 142.5 33.5t49.5 84.5q0 31 -10.5 52.5t-29.5 35t-45.5 21t-58.5 11.5l-140 15q-48 5 -89 19.5t-71 39t-47 59t-17 81.5q0 43 19 79t54.5 61.5t85 39.5t110.5 14q79 0 136 -17.5t94.5 -45.5t58.5 -62.5t30 -67.5h-101q-9 18 -25 36.5t-42 33.5t-63 24.5t-88 9.5z
M429 928h110l-120 -150h-102z" />
    <glyph glyph-name="uni015E" unicode="&#x15e;" horiz-adv-x="752" 
d="M346 633q-86 0 -129 -28.5t-43 -76.5q0 -44 35 -69t101 -33l139 -16q45 -5 87 -18t74.5 -37.5t52 -62.5t19.5 -93q0 -43 -17.5 -81.5t-53.5 -67.5t-90.5 -46t-127.5 -17q-83 0 -142 19t-99 50t-64 69.5t-36 77.5h104q9 -20 25.5 -42.5t45 -41.5t69 -31t97.5 -12
q93 0 142.5 33.5t49.5 84.5q0 31 -10.5 52.5t-29.5 35t-45.5 21t-58.5 11.5l-140 15q-48 5 -89 19.5t-71 39t-47 59t-17 81.5q0 43 19 79t54.5 61.5t85 39.5t110.5 14q79 0 136 -17.5t94.5 -45.5t58.5 -62.5t30 -67.5h-101q-9 18 -25 36.5t-42 33.5t-63 24.5t-88 9.5z
M424 -156q0 34 -41 34h-86v122h80v-55h14q65 0 92.5 -28t27.5 -73t-27.5 -77t-89.5 -32h-137v74h126q41 0 41 35z" />
    <glyph glyph-name="Scircumflex" unicode="&#x15c;" horiz-adv-x="752" 
d="M346 633q-86 0 -129 -28.5t-43 -76.5q0 -44 35 -69t101 -33l139 -16q45 -5 87 -18t74.5 -37.5t52 -62.5t19.5 -93q0 -43 -17.5 -81.5t-53.5 -67.5t-90.5 -46t-127.5 -17q-83 0 -142 19t-99 50t-64 69.5t-36 77.5h104q9 -20 25.5 -42.5t45 -41.5t69 -31t97.5 -12
q93 0 142.5 33.5t49.5 84.5q0 31 -10.5 52.5t-29.5 35t-45.5 21t-58.5 11.5l-140 15q-48 5 -89 19.5t-71 39t-47 59t-17 81.5q0 43 19 79t54.5 61.5t85 39.5t110.5 14q79 0 136 -17.5t94.5 -45.5t58.5 -62.5t30 -67.5h-101q-9 18 -25 36.5t-42 33.5t-63 24.5t-88 9.5z
M368 864l-81 -89h-98l139 156h78l136 -156h-94z" />
    <glyph glyph-name="uni0218" unicode="&#x218;" horiz-adv-x="752" 
d="M346 633q-86 0 -129 -28.5t-43 -76.5q0 -44 35 -69t101 -33l139 -16q45 -5 87 -18t74.5 -37.5t52 -62.5t19.5 -93q0 -43 -17.5 -81.5t-53.5 -67.5t-90.5 -46t-127.5 -17q-83 0 -142 19t-99 50t-64 69.5t-36 77.5h104q9 -20 25.5 -42.5t45 -41.5t69 -31t97.5 -12
q93 0 142.5 33.5t49.5 84.5q0 31 -10.5 52.5t-29.5 35t-45.5 21t-58.5 11.5l-140 15q-48 5 -89 19.5t-71 39t-47 59t-17 81.5q0 43 19 79t54.5 61.5t85 39.5t110.5 14q79 0 136 -17.5t94.5 -45.5t58.5 -62.5t30 -67.5h-101q-9 18 -25 36.5t-42 33.5t-63 24.5t-88 9.5z
M351 -325q16 29 25.5 62t9.5 53h-52v115h112v-98q0 -45 -8.5 -76.5t-19.5 -55.5h-67z" />
    <glyph glyph-name="Tcaron" unicode="&#x164;" horiz-adv-x="767" 
d="M40 710h687v-90h-295v-620h-97v620h-295v90zM422 775h-78l-136 156h94l81 -89l80 89h98z" />
    <glyph glyph-name="Tcommaaccent" unicode="&#x162;" horiz-adv-x="767" 
d="M40 710h687v-90h-295v-620h-97v620h-295v90zM346 -325q16 29 25.5 62t9.5 53h-52v115h112v-98q0 -45 -8.5 -76.5t-19.5 -55.5h-67z" />
    <glyph glyph-name="uni021A" unicode="&#x21a;" horiz-adv-x="767" 
d="M40 710h687v-90h-295v-620h-97v620h-295v90zM346 -325q16 29 25.5 62t9.5 53h-52v115h112v-98q0 -45 -8.5 -76.5t-19.5 -55.5h-67z" />
    <glyph glyph-name="Tbar" unicode="&#x166;" horiz-adv-x="767" 
d="M140 419h195v201h-295v90h687v-90h-295v-201h195v-84h-195v-335h-97v335h-195v84z" />
    <glyph glyph-name="Ubreve" unicode="&#x16c;" horiz-adv-x="841" 
d="M421 81q52 0 92 16.5t68 46.5t42.5 71.5t14.5 92.5v402h96v-410q0 -65 -20 -121.5t-60 -99t-98.5 -67t-134.5 -24.5q-80 0 -139 24.5t-98 66.5t-58 99t-19 122v410h97v-402q0 -51 14 -92.5t42 -71.5t68 -46.5t93 -16.5zM421 843q35 0 52 23t17 52v13h76v-15
q0 -31 -9.5 -57.5t-27.5 -46t-45 -30.5t-63 -11t-63 11t-45 30.5t-27.5 46t-9.5 57.5v15h76v-13q0 -29 17 -52t52 -23z" />
    <glyph glyph-name="Uhungarumlaut" unicode="&#x170;" horiz-adv-x="841" 
d="M421 81q52 0 92 16.5t68 46.5t42.5 71.5t14.5 92.5v402h96v-410q0 -65 -20 -121.5t-60 -99t-98.5 -67t-134.5 -24.5q-80 0 -139 24.5t-98 66.5t-58 99t-19 122v410h97v-402q0 -51 14 -92.5t42 -71.5t68 -46.5t93 -16.5zM541 928h92l-85 -150h-85zM365 928h92l-85 -150
h-85z" />
    <glyph glyph-name="Umacron" unicode="&#x16a;" horiz-adv-x="841" 
d="M421 81q52 0 92 16.5t68 46.5t42.5 71.5t14.5 92.5v402h96v-410q0 -65 -20 -121.5t-60 -99t-98.5 -67t-134.5 -24.5q-80 0 -139 24.5t-98 66.5t-58 99t-19 122v410h97v-402q0 -51 14 -92.5t42 -71.5t68 -46.5t93 -16.5zM256 813v78h330v-78h-330z" />
    <glyph glyph-name="Uogonek" unicode="&#x172;" horiz-adv-x="841" 
d="M598 -224h-89q-60 0 -94.5 23t-34.5 70q0 20 9 37.5t22.5 33t30.5 28.5t34 24q-14 -2 -27.5 -3t-27.5 -1q-80 0 -139 24.5t-98 66.5t-58 99t-19 122v410h97v-402q0 -51 14 -92.5t42 -71.5t68 -46.5t93 -16.5q52 0 92 16.5t68 46.5t42.5 71.5t14.5 92.5v402h96v-410
q0 -52 -11.5 -94t-32 -77t-48.5 -64.5t-60 -56.5q-29 -24 -49.5 -41.5t-33.5 -31t-18.5 -24t-5.5 -21.5q0 -16 10.5 -24t28.5 -8h84v-82z" />
    <glyph glyph-name="Uring" unicode="&#x16e;" horiz-adv-x="841" 
d="M421 81q52 0 92 16.5t68 46.5t42.5 71.5t14.5 92.5v402h96v-410q0 -65 -20 -121.5t-60 -99t-98.5 -67t-134.5 -24.5q-80 0 -139 24.5t-98 66.5t-58 99t-19 122v410h97v-402q0 -51 14 -92.5t42 -71.5t68 -46.5t93 -16.5zM421 768q-28 0 -52 10t-41.5 27t-27.5 40.5
t-10 49.5q0 27 10 50t27.5 40t41.5 27t52 10t52 -10t41.5 -27t27.5 -40t10 -50q0 -26 -10 -49.5t-27.5 -40.5t-41.5 -27t-52 -10zM421 830q29 0 46.5 19t17.5 46q0 28 -17.5 46.5t-46.5 18.5t-46.5 -18.5t-17.5 -46.5q0 -27 17.5 -46t46.5 -19z" />
    <glyph glyph-name="Utilde" unicode="&#x168;" horiz-adv-x="841" 
d="M421 81q52 0 92 16.5t68 46.5t42.5 71.5t14.5 92.5v402h96v-410q0 -65 -20 -121.5t-60 -99t-98.5 -67t-134.5 -24.5q-80 0 -139 24.5t-98 66.5t-58 99t-19 122v410h97v-402q0 -51 14 -92.5t42 -71.5t68 -46.5t93 -16.5zM379 838q-11 6 -20.5 10.5t-17.5 4.5
q-17 0 -17 -24v-56h-73v66q0 43 18.5 68.5t58.5 25.5q26 0 48.5 -11.5t48.5 -26.5l38 -22q11 -6 20 -10.5t17 -4.5q18 0 18 24v56h73v-66q0 -43 -19 -68.5t-59 -25.5q-27 0 -48.5 11.5t-47.5 26.5z" />
    <glyph glyph-name="Wacute" unicode="&#x1e82;" horiz-adv-x="1129" 
d="M566 558l-200 -562h-79l-244 714h105l184 -557l196 561h81l197 -566l186 562h94l-237 -714h-84zM628 928h110l-120 -150h-102z" />
    <glyph glyph-name="Wcircumflex" unicode="&#x174;" horiz-adv-x="1129" 
d="M566 558l-200 -562h-79l-244 714h105l184 -557l196 561h81l197 -566l186 562h94l-237 -714h-84zM567 864l-81 -89h-98l139 156h78l136 -156h-94z" />
    <glyph glyph-name="Wdieresis" unicode="&#x1e84;" horiz-adv-x="1129" 
d="M566 558l-200 -562h-79l-244 714h105l184 -557l196 561h81l197 -566l186 562h94l-237 -714h-84zM418 917h92v-139h-92v139zM622 917h92v-139h-92v139z" />
    <glyph glyph-name="Wgrave" unicode="&#x1e80;" horiz-adv-x="1129" 
d="M566 558l-200 -562h-79l-244 714h105l184 -557l196 561h81l197 -566l186 562h94l-237 -714h-84zM515 778l-120 150h110l112 -150h-102z" />
    <glyph glyph-name="Ycircumflex" unicode="&#x176;" horiz-adv-x="765" 
d="M434 0h-97v300l-322 410h123l250 -321l249 321h113l-316 -408v-302zM389 864l-81 -89h-98l139 156h78l136 -156h-94z" />
    <glyph glyph-name="Ygrave" unicode="&#x1ef2;" horiz-adv-x="765" 
d="M434 0h-97v300l-322 410h123l250 -321l249 321h113l-316 -408v-302zM346 778l-120 150h110l112 -150h-102z" />
    <glyph glyph-name="Zacute" unicode="&#x179;" horiz-adv-x="782" 
d="M737 0h-682v57l482 563h-472v90h622v-57l-486 -563h536v-90zM431 928h110l-120 -150h-102z" />
    <glyph glyph-name="Zdotaccent" unicode="&#x17b;" horiz-adv-x="782" 
d="M737 0h-682v57l482 563h-472v90h622v-57l-486 -563h536v-90zM328 921h94v-143h-94v143z" />
    <glyph glyph-name="abreve" unicode="&#x103;" horiz-adv-x="659" 
d="M474 85q-5 -9 -17 -25.5t-33 -32.5t-52 -27.5t-73 -11.5q-49 0 -92.5 17.5t-76.5 51t-52.5 81.5t-19.5 109q0 60 19.5 108t52.5 81.5t76.5 51.5t92.5 18q40 0 71 -11t52.5 -26t34 -31t17.5 -26v82h91v-494h-91v85zM476 247q0 37 -11.5 69t-32.5 55.5t-50.5 37t-65.5 13.5
q-37 0 -67.5 -13.5t-52 -37t-33 -55.5t-11.5 -69t11.5 -69t33 -55.5t52 -37t67.5 -13.5q36 0 65.5 13.5t50.5 37t32.5 55.5t11.5 69zM316 645q33 0 48 22t15 50v17h76v-19q0 -60 -34.5 -101t-104.5 -41t-104.5 41t-34.5 101v19h76v-17q0 -27 15 -49.5t48 -22.5z" />
    <glyph glyph-name="amacron" unicode="&#x101;" horiz-adv-x="659" 
d="M474 85q-5 -9 -17 -25.5t-33 -32.5t-52 -27.5t-73 -11.5q-49 0 -92.5 17.5t-76.5 51t-52.5 81.5t-19.5 109q0 60 19.5 108t52.5 81.5t76.5 51.5t92.5 18q40 0 71 -11t52.5 -26t34 -31t17.5 -26v82h91v-494h-91v85zM476 247q0 37 -11.5 69t-32.5 55.5t-50.5 37t-65.5 13.5
q-37 0 -67.5 -13.5t-52 -37t-33 -55.5t-11.5 -69t11.5 -69t33 -55.5t52 -37t67.5 -13.5q36 0 65.5 13.5t50.5 37t32.5 55.5t11.5 69zM163 621v78h306v-78h-306z" />
    <glyph glyph-name="aogonek" unicode="&#x105;" horiz-adv-x="659" 
d="M474 85q-5 -9 -17 -25.5t-33 -32.5t-52 -27.5t-73 -11.5q-49 0 -92.5 17.5t-76.5 51t-52.5 81.5t-19.5 109q0 60 19.5 108t52.5 81.5t76.5 51.5t92.5 18q40 0 71 -11t52.5 -26t34 -31t17.5 -26v82h91v-494q-48 -39 -74.5 -64t-26.5 -48q0 -30 37 -30h86v-82h-89
q-60 0 -94.5 23t-34.5 70q0 21 8.5 38.5t22.5 33t33.5 30t40.5 29.5v85zM476 247q0 37 -11.5 69t-32.5 55.5t-50.5 37t-65.5 13.5q-37 0 -67.5 -13.5t-52 -37t-33 -55.5t-11.5 -69t11.5 -69t33 -55.5t52 -37t67.5 -13.5q36 0 65.5 13.5t50.5 37t32.5 55.5t11.5 69z" />
    <glyph glyph-name="aringacute" unicode="&#x1fb;" horiz-adv-x="659" 
d="M474 85q-5 -9 -17 -25.5t-33 -32.5t-52 -27.5t-73 -11.5q-49 0 -92.5 17.5t-76.5 51t-52.5 81.5t-19.5 109q0 60 19.5 108t52.5 81.5t76.5 51.5t92.5 18q40 0 71 -11t52.5 -26t34 -31t17.5 -26v82h91v-494h-91v85zM476 247q0 37 -11.5 69t-32.5 55.5t-50.5 37t-65.5 13.5
q-37 0 -67.5 -13.5t-52 -37t-33 -55.5t-11.5 -69t11.5 -69t33 -55.5t52 -37t67.5 -13.5q36 0 65.5 13.5t50.5 37t32.5 55.5t11.5 69zM361 1010h98l-104 -150h-91zM307 567q-28 0 -52 10t-41.5 27t-27.5 40.5t-10 49.5q0 27 10 50t27.5 40t41.5 27t52 10t52 -10t41.5 -27
t27.5 -40t10 -50q0 -26 -10 -49.5t-27.5 -40.5t-41.5 -27t-52 -10zM307 629q29 0 46.5 19t17.5 46q0 28 -17.5 46.5t-46.5 18.5t-46.5 -18.5t-17.5 -46.5q0 -27 17.5 -46t46.5 -19z" />
    <glyph glyph-name="aeacute" unicode="&#x1fd;" horiz-adv-x="961" 
d="M57 156q0 75 53 114.5t146 39.5h161q0 57 -37.5 87t-97.5 30q-29 0 -50 -7t-35.5 -17t-22.5 -20.5t-11 -17.5h-92q5 22 20 47t41 46t63 35t87 14q72 0 119 -26.5t68 -65.5q25 38 74.5 65t116.5 27q54 0 100 -19t79.5 -54.5t52 -86t17.5 -111.5l-91 1h-316q2 -35 14.5 -65
t34.5 -52t51.5 -35t65.5 -13q37 0 63 8.5t43 20t26.5 23t12.5 17.5h90q-3 -16 -17 -42t-42 -50.5t-71.5 -42.5t-104.5 -18q-41 0 -75.5 10.5t-62 27t-48 37.5t-32.5 42q-9 -19 -23 -39.5t-36 -37.5t-52 -28t-70 -11q-47 0 -85.5 11.5t-67 33.5t-44 53t-15.5 69zM659 428
q-60 0 -98.5 -32t-52.5 -86h301q-16 57 -55 87.5t-95 30.5zM148 156q0 -43 35 -67t86 -24q32 0 59 9t47 25t31 38.5t11 49.5v50h-157q-51 0 -81.5 -20t-30.5 -61zM521 762h100l-115 -183h-93z" />
    <glyph glyph-name="cacute" unicode="&#x107;" horiz-adv-x="594" 
d="M451 340q-3 6 -12 19.5t-26 27.5t-43 24.5t-63 10.5q-34 0 -62.5 -13.5t-49.5 -37.5t-32.5 -56t-11.5 -68t11.5 -68t32.5 -56t49.5 -37.5t63.5 -13.5q37 0 63.5 10.5t43.5 24t26 27.5t12 20h90q-2 -13 -14 -40.5t-39 -55.5t-71.5 -49t-110.5 -21q-53 0 -99 20t-79.5 55
t-53 82t-19.5 102t19 102t53 82t79.5 55t98.5 20q67 0 111 -20.5t71 -48.5t39 -55.5t15 -41.5h-92v0zM359 762h100l-115 -183h-93z" />
    <glyph glyph-name="ccaron" unicode="&#x10d;" horiz-adv-x="594" 
d="M451 340q-3 6 -12 19.5t-26 27.5t-43 24.5t-63 10.5q-34 0 -62.5 -13.5t-49.5 -37.5t-32.5 -56t-11.5 -68t11.5 -68t32.5 -56t49.5 -37.5t63.5 -13.5q37 0 63.5 10.5t43.5 24t26 27.5t12 20h90q-2 -13 -14 -40.5t-39 -55.5t-71.5 -49t-110.5 -21q-53 0 -99 20t-79.5 55
t-53 82t-19.5 102t19 102t53 82t79.5 55t98.5 20q67 0 111 -20.5t71 -48.5t39 -55.5t15 -41.5h-92v0zM344 579h-76l-123 193h88l74 -114l74 114h89z" />
    <glyph glyph-name="ccircumflex" unicode="&#x109;" horiz-adv-x="594" 
d="M451 340q-3 6 -12 19.5t-26 27.5t-43 24.5t-63 10.5q-34 0 -62.5 -13.5t-49.5 -37.5t-32.5 -56t-11.5 -68t11.5 -68t32.5 -56t49.5 -37.5t63.5 -13.5q37 0 63.5 10.5t43.5 24t26 27.5t12 20h90q-2 -13 -14 -40.5t-39 -55.5t-71.5 -49t-110.5 -21q-53 0 -99 20t-79.5 55
t-53 82t-19.5 102t19 102t53 82t79.5 55t98.5 20q67 0 111 -20.5t71 -48.5t39 -55.5t15 -41.5h-92v0zM307 690l-74 -114h-90l126 193h76l123 -193h-87z" />
    <glyph glyph-name="cdotaccent" unicode="&#x10b;" horiz-adv-x="594" 
d="M451 340q-3 6 -12 19.5t-26 27.5t-43 24.5t-63 10.5q-34 0 -62.5 -13.5t-49.5 -37.5t-32.5 -56t-11.5 -68t11.5 -68t32.5 -56t49.5 -37.5t63.5 -13.5q37 0 63.5 10.5t43.5 24t26 27.5t12 20h90q-2 -13 -14 -40.5t-39 -55.5t-71.5 -49t-110.5 -21q-53 0 -99 20t-79.5 55
t-53 82t-19.5 102t19 102t53 82t79.5 55t98.5 20q67 0 111 -20.5t71 -48.5t39 -55.5t15 -41.5h-92v0zM260 732h94v-143h-94v143z" />
    <glyph glyph-name="dcaron" unicode="&#x10f;" horiz-adv-x="667" 
d="M482 85q-5 -9 -17.5 -25.5t-35 -32t-54 -27.5t-73.5 -12q-50 0 -94 17.5t-77.5 51t-53 81.5t-19.5 109t19.5 109t53 81.5t77.5 51t94 17.5q42 0 73.5 -11t53.5 -26t35 -31t18 -26v324h91v-736h-91v85zM484 247q0 37 -12 69.5t-33.5 55.5t-52 36.5t-67.5 13.5
q-38 0 -69 -13.5t-52.5 -36.5t-33.5 -55.5t-12 -69.5q0 -38 12 -70t33.5 -55t52.5 -36.5t69 -13.5q37 0 67.5 13.5t52 36.5t33.5 55t12 70zM683 772h86l-57 -193h-79z" />
    <glyph glyph-name="ebreve" unicode="&#x115;" horiz-adv-x="612" 
d="M308 506q54 0 100.5 -19.5t80 -55t52.5 -85t19 -110.5h-411q2 -35 15 -64.5t34.5 -52t52 -35t66.5 -12.5q37 0 63.5 8.5t44 20t27 23t12.5 17.5h90q-3 -16 -17 -42t-42 -50.5t-72 -42.5t-106 -18q-57 0 -105 20t-82.5 55t-53.5 82.5t-19 101.5q0 56 19 103.5t52.5 82
t79.5 54t100 19.5zM308 428q-60 0 -99.5 -31t-53.5 -85h304q-17 56 -56 86t-95 30zM308 645q33 0 48 22t15 50v17h76v-19q0 -60 -34.5 -101t-104.5 -41t-104.5 41t-34.5 101v19h76v-17q0 -27 15 -49.5t48 -22.5z" />
    <glyph glyph-name="ecaron" unicode="&#x11b;" horiz-adv-x="612" 
d="M308 506q54 0 100.5 -19.5t80 -55t52.5 -85t19 -110.5h-411q2 -35 15 -64.5t34.5 -52t52 -35t66.5 -12.5q37 0 63.5 8.5t44 20t27 23t12.5 17.5h90q-3 -16 -17 -42t-42 -50.5t-72 -42.5t-106 -18q-57 0 -105 20t-82.5 55t-53.5 82.5t-19 101.5q0 56 19 103.5t52.5 82
t79.5 54t100 19.5zM308 428q-60 0 -99.5 -31t-53.5 -85h304q-17 56 -56 86t-95 30zM345 579h-76l-123 193h88l74 -114l74 114h89z" />
    <glyph glyph-name="edotaccent" unicode="&#x117;" horiz-adv-x="612" 
d="M308 506q54 0 100.5 -19.5t80 -55t52.5 -85t19 -110.5h-411q2 -35 15 -64.5t34.5 -52t52 -35t66.5 -12.5q37 0 63.5 8.5t44 20t27 23t12.5 17.5h90q-3 -16 -17 -42t-42 -50.5t-72 -42.5t-106 -18q-57 0 -105 20t-82.5 55t-53.5 82.5t-19 101.5q0 56 19 103.5t52.5 82
t79.5 54t100 19.5zM308 428q-60 0 -99.5 -31t-53.5 -85h304q-17 56 -56 86t-95 30zM261 732h94v-143h-94v143z" />
    <glyph glyph-name="emacron" unicode="&#x113;" horiz-adv-x="612" 
d="M308 506q54 0 100.5 -19.5t80 -55t52.5 -85t19 -110.5h-411q2 -35 15 -64.5t34.5 -52t52 -35t66.5 -12.5q37 0 63.5 8.5t44 20t27 23t12.5 17.5h90q-3 -16 -17 -42t-42 -50.5t-72 -42.5t-106 -18q-57 0 -105 20t-82.5 55t-53.5 82.5t-19 101.5q0 56 19 103.5t52.5 82
t79.5 54t100 19.5zM308 428q-60 0 -99.5 -31t-53.5 -85h304q-17 56 -56 86t-95 30zM155 621v78h306v-78h-306z" />
    <glyph glyph-name="eogonek" unicode="&#x119;" horiz-adv-x="612" 
d="M308 506q54 0 100.5 -19.5t80 -55t52.5 -85t19 -110.5h-411q2 -35 15 -64.5t34.5 -52t52 -35t66.5 -12.5q37 0 63.5 8.5t44 20t27 23t12.5 17.5h90q-11 -58 -104 -137q-45 -39 -70 -66t-25 -49q0 -31 40 -31h83v-82h-89q-60 0 -94.5 23t-34.5 70q0 38 28.5 67.5
t66.5 53.5q-9 -1 -18.5 -1.5t-19.5 -0.5q-57 0 -105 20t-82.5 55t-53.5 82.5t-19 101.5q0 56 19 103.5t52.5 82t79.5 54t100 19.5zM308 428q-60 0 -99.5 -31t-53.5 -85h304q-17 56 -56 86t-95 30z" />
    <glyph glyph-name="gbreve" unicode="&#x11f;" horiz-adv-x="667" 
d="M482 84q-5 -10 -17.5 -26.5t-35 -32t-54 -27t-73.5 -11.5q-50 0 -94 17.5t-77.5 51t-53 81.5t-19.5 109t19.5 109.5t53 82t77.5 51t94 17.5q42 0 73.5 -11t53.5 -26.5t35 -31.5t18 -26v83h91v-494q0 -52 -16.5 -95.5t-49.5 -74.5t-81.5 -48.5t-111.5 -17.5q-72 0 -119 20
t-76 46.5t-41.5 52t-15.5 37.5h100q3 -5 11.5 -16.5t26 -24t45.5 -22t69 -9.5q81 0 124.5 40t43.5 112v84zM484 246q0 37 -12 69.5t-33.5 56t-52 37t-67.5 13.5q-38 0 -69 -13.5t-52.5 -37t-33.5 -56t-12 -69.5q0 -36 12 -68t33.5 -56t52.5 -37.5t69 -13.5q37 0 67.5 13.5
t52 37.5t33.5 56t12 68zM315 645q33 0 48 22t15 50v17h76v-19q0 -60 -34.5 -101t-104.5 -41t-104.5 41t-34.5 101v19h76v-17q0 -27 15 -49.5t48 -22.5z" />
    <glyph glyph-name="gcircumflex" unicode="&#x11d;" horiz-adv-x="667" 
d="M482 84q-5 -10 -17.5 -26.5t-35 -32t-54 -27t-73.5 -11.5q-50 0 -94 17.5t-77.5 51t-53 81.5t-19.5 109t19.5 109.5t53 82t77.5 51t94 17.5q42 0 73.5 -11t53.5 -26.5t35 -31.5t18 -26v83h91v-494q0 -52 -16.5 -95.5t-49.5 -74.5t-81.5 -48.5t-111.5 -17.5q-72 0 -119 20
t-76 46.5t-41.5 52t-15.5 37.5h100q3 -5 11.5 -16.5t26 -24t45.5 -22t69 -9.5q81 0 124.5 40t43.5 112v84zM484 246q0 37 -12 69.5t-33.5 56t-52 37t-67.5 13.5q-38 0 -69 -13.5t-52.5 -37t-33.5 -56t-12 -69.5q0 -36 12 -68t33.5 -56t52.5 -37.5t69 -13.5q37 0 67.5 13.5
t52 37.5t33.5 56t12 68zM315 690l-74 -114h-90l126 193h76l123 -193h-87z" />
    <glyph glyph-name="uni0123" unicode="&#x123;" horiz-adv-x="667" 
d="M482 84q-5 -10 -17.5 -26.5t-35 -32t-54 -27t-73.5 -11.5q-50 0 -94 17.5t-77.5 51t-53 81.5t-19.5 109t19.5 109.5t53 82t77.5 51t94 17.5q42 0 73.5 -11t53.5 -26.5t35 -31.5t18 -26v83h91v-494q0 -52 -16.5 -95.5t-49.5 -74.5t-81.5 -48.5t-111.5 -17.5q-72 0 -119 20
t-76 46.5t-41.5 52t-15.5 37.5h100q3 -5 11.5 -16.5t26 -24t45.5 -22t69 -9.5q81 0 124.5 40t43.5 112v84zM484 246q0 37 -12 69.5t-33.5 56t-52 37t-67.5 13.5q-38 0 -69 -13.5t-52.5 -37t-33.5 -56t-12 -69.5q0 -36 12 -68t33.5 -56t52.5 -37.5t69 -13.5q37 0 67.5 13.5
t52 37.5t33.5 56t12 68zM353 819q-16 -29 -25.5 -62t-9.5 -53h52v-115h-112v98q0 45 8.5 76.5t19.5 55.5h67z" />
    <glyph glyph-name="gdotaccent" unicode="&#x121;" horiz-adv-x="667" 
d="M482 84q-5 -10 -17.5 -26.5t-35 -32t-54 -27t-73.5 -11.5q-50 0 -94 17.5t-77.5 51t-53 81.5t-19.5 109t19.5 109.5t53 82t77.5 51t94 17.5q42 0 73.5 -11t53.5 -26.5t35 -31.5t18 -26v83h91v-494q0 -52 -16.5 -95.5t-49.5 -74.5t-81.5 -48.5t-111.5 -17.5q-72 0 -119 20
t-76 46.5t-41.5 52t-15.5 37.5h100q3 -5 11.5 -16.5t26 -24t45.5 -22t69 -9.5q81 0 124.5 40t43.5 112v84zM484 246q0 37 -12 69.5t-33.5 56t-52 37t-67.5 13.5q-38 0 -69 -13.5t-52.5 -37t-33.5 -56t-12 -69.5q0 -36 12 -68t33.5 -56t52.5 -37.5t69 -13.5q37 0 67.5 13.5
t52 37.5t33.5 56t12 68zM268 732h94v-143h-94v143z" />
    <glyph glyph-name="hbar" unicode="&#x127;" horiz-adv-x="652" 
d="M185 0h-91v574h-103v74h103v88h91v-88h205v-74h-205v-171q7 15 21.5 33t35.5 33t48.5 25.5t62.5 10.5q47 0 86 -16.5t66.5 -46t43 -70t15.5 -88.5v-284h-92v267q0 70 -38.5 112t-102.5 42q-33 0 -60 -11.5t-46 -32t-29.5 -48.5t-10.5 -62v-267z" />
    <glyph glyph-name="hcircumflex" unicode="&#x125;" horiz-adv-x="652" 
d="M185 0h-91v736h91v-333q7 15 21.5 33t35.5 33t48.5 25.5t62.5 10.5q47 0 86 -16.5t66.5 -46t43 -70t15.5 -88.5v-284h-92v267q0 70 -38.5 112t-102.5 42q-33 0 -60 -11.5t-46 -32t-29.5 -48.5t-10.5 -62v-267zM330 890l-81 -89h-98l139 156h78l136 -156h-94z" />
    <glyph glyph-name="ibreve" unicode="&#x12d;" horiz-adv-x="281" 
d="M140 645q32 0 46 21t14 47v21h76v-23q0 -29 -8.5 -54.5t-25.5 -44t-42.5 -29t-59.5 -10.5t-59.5 10.5t-42.5 29t-25.5 44t-8.5 54.5v23h76v-21q0 -26 14 -47t46 -21zM95 494h91v-494h-91v494z" />
    <glyph glyph-name="idotaccent" horiz-adv-x="281" 
d="M93 732h95v-143h-95v143zM95 494h91v-494h-91v494z" />
    <glyph glyph-name="imacron" unicode="&#x12b;" horiz-adv-x="281" 
d="M1 621v78h279v-78h-279zM95 494h91v-494h-91v494z" />
    <glyph glyph-name="iogonek" unicode="&#x12f;" horiz-adv-x="281" 
d="M93 732h95v-143h-95v143zM95 494h91v-494h-91v494zM207 -224h-89q-60 0 -94.5 23t-34.5 71q0 21 8 38t22.5 32t33.5 29.5t41 30.5h91q-48 -39 -74.5 -64t-26.5 -48q0 -30 37 -30h86v-82z" />
    <glyph glyph-name="itilde" unicode="&#x129;" horiz-adv-x="281" 
d="M-14 575v76q0 43 19 68.5t59 25.5q29 0 47 -13t41 -33l20 -18q11 -10 18.5 -15.5t15.5 -5.5q17 0 17 23v67h71v-76q0 -43 -19 -68.5t-59 -25.5q-28 0 -46.5 13t-41.5 33l-20 18q-12 11 -19 16t-15 5q-17 0 -17 -23v-67h-71zM95 494h91v-494h-91v494z" />
    <glyph glyph-name="jcircumflex" unicode="&#x135;" horiz-adv-x="281" 
d="M140 691l-72 -115h-88l122 193h76l119 -193h-85zM186 -53q0 -85 -41.5 -128t-126.5 -43h-133v85h118q92 0 92 96v537h91v-547v0z" />
    <glyph glyph-name="uni0137" unicode="&#x137;" horiz-adv-x="591" 
d="M182 228v-228h-88v736h88v-451l258 209h130l-292 -233l305 -261h-129zM271 -325q16 29 25.5 62t9.5 53h-52v115h112v-98q0 -45 -8.5 -76.5t-19.5 -55.5h-67z" />
    <glyph glyph-name="lacute" unicode="&#x13a;" horiz-adv-x="283" 
d="M96 736h91v-736h-91v736zM203 954h110l-120 -150h-102z" />
    <glyph glyph-name="lcaron" unicode="&#x13e;" horiz-adv-x="283" 
d="M96 736h91v-736h-91v736zM297 772h86l-57 -193h-79z" />
    <glyph glyph-name="uni013C" unicode="&#x13c;" horiz-adv-x="283" 
d="M96 736h91v-736h-91v736zM104 -325q16 29 25.5 62t9.5 53h-52v115h112v-98q0 -45 -8.5 -76.5t-19.5 -55.5h-67z" />
    <glyph glyph-name="ldot" unicode="&#x140;" horiz-adv-x="451" 
d="M96 736h91v-736h-91v736zM309 447h116v-142h-116v142z" />
    <glyph glyph-name="nacute" unicode="&#x144;" horiz-adv-x="652" 
d="M185 0h-91v494h91v-91q7 15 21.5 33t35.5 33t48.5 25.5t62.5 10.5q47 0 86 -16.5t66.5 -46t43 -70t15.5 -88.5v-284h-92v267q0 70 -38.5 112t-102.5 42q-33 0 -60 -11.5t-46 -32t-29.5 -48.5t-10.5 -62v-267zM381 762h100l-115 -183h-93z" />
    <glyph glyph-name="napostrophe" unicode="&#x149;" horiz-adv-x="881" 
d="M414 0h-91v494h91v-91q7 15 21.5 33t35.5 33t48.5 25.5t62.5 10.5q47 0 86 -16.5t66.5 -46t43 -70t15.5 -88.5v-284h-92v267q0 70 -38.5 112t-102.5 42q-33 0 -60 -11.5t-46 -32t-29.5 -48.5t-10.5 -62v-267zM65 404q25 47 43 97t18 105h-55v130h116v-120
q0 -66 -15.5 -119.5t-35.5 -92.5h-71z" />
    <glyph glyph-name="ncaron" unicode="&#x148;" horiz-adv-x="652" 
d="M185 0h-91v494h91v-91q7 15 21.5 33t35.5 33t48.5 25.5t62.5 10.5q47 0 86 -16.5t66.5 -46t43 -70t15.5 -88.5v-284h-92v267q0 70 -38.5 112t-102.5 42q-33 0 -60 -11.5t-46 -32t-29.5 -48.5t-10.5 -62v-267zM366 579h-76l-123 193h88l74 -114l74 114h89z" />
    <glyph glyph-name="uni0146" unicode="&#x146;" horiz-adv-x="652" 
d="M185 0h-91v494h91v-91q7 15 21.5 33t35.5 33t48.5 25.5t62.5 10.5q47 0 86 -16.5t66.5 -46t43 -70t15.5 -88.5v-284h-92v267q0 70 -38.5 112t-102.5 42q-33 0 -60 -11.5t-46 -32t-29.5 -48.5t-10.5 -62v-267zM292 -325q16 29 25.5 62t9.5 53h-52v115h112v-98
q0 -45 -8.5 -76.5t-19.5 -55.5h-67z" />
    <glyph glyph-name="obreve" unicode="&#x14f;" horiz-adv-x="634" 
d="M317 506q55 0 102.5 -20t82.5 -54.5t55 -82t20 -102.5t-20 -102.5t-55 -82t-82.5 -54.5t-102.5 -20q-56 0 -103.5 20t-82 54.5t-54.5 82t-20 102.5t20 102.5t54.5 82t82 54.5t103.5 20zM317 72q37 0 67.5 13.5t52.5 37t34 55.5t12 69t-12 69t-34 55.5t-52.5 37
t-67.5 13.5t-67.5 -13.5t-52.5 -37.5t-34 -56t-12 -68t12 -68t34 -56t52.5 -37.5t67.5 -13.5zM317 645q33 0 48 22t15 50v17h76v-19q0 -60 -34.5 -101t-104.5 -41t-104.5 41t-34.5 101v19h76v-17q0 -27 15 -49.5t48 -22.5z" />
    <glyph glyph-name="ohungarumlaut" unicode="&#x151;" horiz-adv-x="634" 
d="M317 506q55 0 102.5 -20t82.5 -54.5t55 -82t20 -102.5t-20 -102.5t-55 -82t-82.5 -54.5t-102.5 -20q-56 0 -103.5 20t-82 54.5t-54.5 82t-20 102.5t20 102.5t54.5 82t82 54.5t103.5 20zM317 72q37 0 67.5 13.5t52.5 37t34 55.5t12 69t-12 69t-34 55.5t-52.5 37
t-67.5 13.5t-67.5 -13.5t-52.5 -37.5t-34 -56t-12 -68t12 -68t34 -56t52.5 -37.5t67.5 -13.5zM445 762h88l-91 -183h-81zM270 762h88l-91 -183h-81z" />
    <glyph glyph-name="omacron" unicode="&#x14d;" horiz-adv-x="634" 
d="M317 506q55 0 102.5 -20t82.5 -54.5t55 -82t20 -102.5t-20 -102.5t-55 -82t-82.5 -54.5t-102.5 -20q-56 0 -103.5 20t-82 54.5t-54.5 82t-20 102.5t20 102.5t54.5 82t82 54.5t103.5 20zM317 72q37 0 67.5 13.5t52.5 37t34 55.5t12 69t-12 69t-34 55.5t-52.5 37
t-67.5 13.5t-67.5 -13.5t-52.5 -37.5t-34 -56t-12 -68t12 -68t34 -56t52.5 -37.5t67.5 -13.5zM164 621v78h306v-78h-306z" />
    <glyph glyph-name="oslashacute" unicode="&#x1ff;" horiz-adv-x="634" 
d="M577 247q0 -55 -20 -102.5t-55 -82t-83 -54.5t-103 -20q-42 0 -80.5 13t-70.5 36l-35 -37h-102l84 88q-26 33 -40.5 73.5t-14.5 85.5q0 55 20 103t54.5 82.5t82 54.5t102.5 20q42 0 80.5 -12.5t70.5 -35.5l33 35h104l-83 -86q26 -34 41 -75t15 -86zM151 247q0 -53 22 -95
l235 246q-19 11 -42 17.5t-50 6.5q-37 0 -67.5 -13.5t-52 -37.5t-33.5 -56t-12 -68zM483 247q0 56 -23 97l-237 -247q39 -25 93 -25q37 0 68 13.5t53 37.5t34 56t12 68zM368 762h100l-115 -183h-93z" />
    <glyph glyph-name="racute" unicode="&#x155;" horiz-adv-x="514" 
d="M185 0h-91v494h91v-91q5 13 16.5 30t31.5 31t50 24t74 10h124v-91h-126q-95 0 -132.5 -31t-37.5 -97v-279zM354 762h100l-115 -183h-93z" />
    <glyph glyph-name="rcaron" unicode="&#x159;" horiz-adv-x="514" 
d="M185 0h-91v494h91v-91q5 13 16.5 30t31.5 31t50 24t74 10h124v-91h-126q-95 0 -132.5 -31t-37.5 -97v-279zM339 579h-76l-123 193h88l74 -114l74 114h89z" />
    <glyph glyph-name="uni0157" unicode="&#x157;" horiz-adv-x="514" 
d="M185 0h-91v494h91v-91q5 13 16.5 30t31.5 31t50 24t74 10h124v-91h-126q-95 0 -132.5 -31t-37.5 -97v-279zM102 -325q16 29 25.5 62t9.5 53h-52v115h112v-98q0 -45 -8.5 -76.5t-19.5 -55.5h-67z" />
    <glyph glyph-name="sacute" unicode="&#x15b;" horiz-adv-x="565" 
d="M225 217q-71 8 -116.5 43.5t-45.5 103.5q0 33 14.5 59.5t41.5 45t64.5 29t82.5 10.5q62 0 105 -14t70.5 -35t41.5 -44.5t20 -42.5h-97q-4 5 -13.5 14.5t-26 19.5t-41.5 17t-59 7q-56 0 -84.5 -18t-28.5 -45q0 -26 20 -42.5t64 -21.5q29 -4 51.5 -6t54.5 -6
q88 -11 127.5 -49.5t39.5 -106.5q0 -31 -14 -58t-41.5 -47.5t-68 -32t-92.5 -11.5q-65 0 -110.5 17.5t-74 41.5t-43 50t-18.5 43h97q2 -6 11 -18t26.5 -24t45 -21t66.5 -9q63 0 94 20t31 49t-19 46.5t-69 23.5zM331 762h100l-115 -183h-93z" />
    <glyph glyph-name="uni015F" unicode="&#x15f;" horiz-adv-x="565" 
d="M225 217q-71 8 -116.5 43.5t-45.5 103.5q0 33 14.5 59.5t41.5 45t64.5 29t82.5 10.5q62 0 105 -14t70.5 -35t41.5 -44.5t20 -42.5h-97q-4 5 -13.5 14.5t-26 19.5t-41.5 17t-59 7q-56 0 -84.5 -18t-28.5 -45q0 -26 20 -42.5t64 -21.5q29 -4 51.5 -6t54.5 -6
q88 -11 127.5 -49.5t39.5 -106.5q0 -31 -14 -58t-41.5 -47.5t-68 -32t-92.5 -11.5h-4v-41h14q65 0 92.5 -28t27.5 -73t-27.5 -77t-89.5 -32h-137v74h126q41 0 41 35q0 34 -41 34h-86v117q-14 4 -27 8q-45 18 -73.5 42t-43 50t-18.5 43h97q2 -6 11 -18t26.5 -24t45 -21
t66.5 -9q63 0 94 20t31 49t-19 46.5t-69 23.5z" />
    <glyph glyph-name="scircumflex" unicode="&#x15d;" horiz-adv-x="565" 
d="M225 217q-71 8 -116.5 43.5t-45.5 103.5q0 33 14.5 59.5t41.5 45t64.5 29t82.5 10.5q62 0 105 -14t70.5 -35t41.5 -44.5t20 -42.5h-97q-4 5 -13.5 14.5t-26 19.5t-41.5 17t-59 7q-56 0 -84.5 -18t-28.5 -45q0 -26 20 -42.5t64 -21.5q29 -4 51.5 -6t54.5 -6
q88 -11 127.5 -49.5t39.5 -106.5q0 -31 -14 -58t-41.5 -47.5t-68 -32t-92.5 -11.5q-65 0 -110.5 17.5t-74 41.5t-43 50t-18.5 43h97q2 -6 11 -18t26.5 -24t45 -21t66.5 -9q63 0 94 20t31 49t-19 46.5t-69 23.5zM279 690l-74 -114h-90l126 193h76l123 -193h-87z" />
    <glyph glyph-name="uni0219" unicode="&#x219;" horiz-adv-x="565" 
d="M225 217q-71 8 -116.5 43.5t-45.5 103.5q0 33 14.5 59.5t41.5 45t64.5 29t82.5 10.5q62 0 105 -14t70.5 -35t41.5 -44.5t20 -42.5h-97q-4 5 -13.5 14.5t-26 19.5t-41.5 17t-59 7q-56 0 -84.5 -18t-28.5 -45q0 -26 20 -42.5t64 -21.5q29 -4 51.5 -6t54.5 -6
q88 -11 127.5 -49.5t39.5 -106.5q0 -31 -14 -58t-41.5 -47.5t-68 -32t-92.5 -11.5q-65 0 -110.5 17.5t-74 41.5t-43 50t-18.5 43h97q2 -6 11 -18t26.5 -24t45 -21t66.5 -9q63 0 94 20t31 49t-19 46.5t-69 23.5zM261 -325q16 29 25.5 62t9.5 53h-52v115h112v-98
q0 -45 -8.5 -76.5t-19.5 -55.5h-67z" />
    <glyph glyph-name="tbar" unicode="&#x167;" horiz-adv-x="533" 
d="M474 0h-117q-173 0 -173 165v76h-146v74h146v97h-146v82h146v216h91v-216h199v-82h-199v-97h200v-74h-200v-55q0 -53 22 -77.5t81 -24.5h96v-84z" />
    <glyph glyph-name="tcaron" unicode="&#x165;" horiz-adv-x="516" 
d="M466 0h-117q-173 0 -173 165v247h-146v82h146v216h91v-216h199v-82h-199v-226q0 -54 21.5 -78t80.5 -24h97v-84zM377 772h86l-57 -193h-79z" />
    <glyph glyph-name="tcommaaccent" unicode="&#x163;" horiz-adv-x="516" 
d="M466 0h-117q-173 0 -173 165v247h-146v82h146v216h91v-216h199v-82h-199v-226q0 -54 21.5 -78t80.5 -24h97v-84zM243 -325q16 29 25.5 62t9.5 53h-52v115h112v-98q0 -45 -8.5 -76.5t-19.5 -55.5h-67z" />
    <glyph glyph-name="uni021B" unicode="&#x21b;" horiz-adv-x="516" 
d="M466 0h-117q-173 0 -173 165v247h-146v82h146v216h91v-216h199v-82h-199v-226q0 -54 21.5 -78t80.5 -24h97v-84zM243 -325q16 29 25.5 62t9.5 53h-52v115h112v-98q0 -45 -8.5 -76.5t-19.5 -55.5h-67z" />
    <glyph glyph-name="ubreve" unicode="&#x16d;" horiz-adv-x="637" 
d="M320 -11q-53 0 -96 16.5t-73 46t-46.5 69.5t-16.5 88v285h91v-268q0 -69 36.5 -110.5t103.5 -41.5t103.5 41.5t36.5 110.5v268h92v-285q0 -48 -16 -88t-46 -69.5t-73 -46t-96 -16.5zM318 645q33 0 48 22t15 50v17h76v-19q0 -60 -34.5 -101t-104.5 -41t-104.5 41
t-34.5 101v19h76v-17q0 -27 15 -49.5t48 -22.5z" />
    <glyph glyph-name="uhungarumlaut" unicode="&#x171;" horiz-adv-x="637" 
d="M320 -11q-53 0 -96 16.5t-73 46t-46.5 69.5t-16.5 88v285h91v-268q0 -69 36.5 -110.5t103.5 -41.5t103.5 41.5t36.5 110.5v268h92v-285q0 -48 -16 -88t-46 -69.5t-73 -46t-96 -16.5zM446 762h88l-91 -183h-81zM271 762h88l-91 -183h-81z" />
    <glyph glyph-name="umacron" unicode="&#x16b;" horiz-adv-x="637" 
d="M320 -11q-53 0 -96 16.5t-73 46t-46.5 69.5t-16.5 88v285h91v-268q0 -69 36.5 -110.5t103.5 -41.5t103.5 41.5t36.5 110.5v268h92v-285q0 -48 -16 -88t-46 -69.5t-73 -46t-96 -16.5zM165 621v78h306v-78h-306z" />
    <glyph glyph-name="uogonek" unicode="&#x173;" horiz-adv-x="637" 
d="M477 -224h-89q-60 0 -94.5 23t-34.5 70q0 38 27 66.5t65 55.5q-8 -1 -15.5 -1.5t-15.5 -0.5q-53 0 -96 16.5t-73 46t-46.5 69.5t-16.5 88v285h91v-268q0 -69 36.5 -110.5t103.5 -41.5t103.5 41.5t36.5 110.5v268h92v-285q0 -66 -27.5 -112.5t-75.5 -90.5
q-24 -22 -41.5 -38.5t-29.5 -30t-17.5 -25.5t-5.5 -24q0 -30 37 -30h86v-82z" />
    <glyph glyph-name="uring" unicode="&#x16f;" horiz-adv-x="637" 
d="M320 -11q-53 0 -96 16.5t-73 46t-46.5 69.5t-16.5 88v285h91v-268q0 -69 36.5 -110.5t103.5 -41.5t103.5 41.5t36.5 110.5v268h92v-285q0 -48 -16 -88t-46 -69.5t-73 -46t-96 -16.5zM318 567q-28 0 -52 10t-41.5 27t-27.5 40.5t-10 49.5q0 27 10 50t27.5 40t41.5 27
t52 10t52 -10t41.5 -27t27.5 -40t10 -50q0 -26 -10 -49.5t-27.5 -40.5t-41.5 -27t-52 -10zM318 629q29 0 46.5 19t17.5 46q0 28 -17.5 46.5t-46.5 18.5t-46.5 -18.5t-17.5 -46.5q0 -27 17.5 -46t46.5 -19z" />
    <glyph glyph-name="utilde" unicode="&#x169;" horiz-adv-x="637" 
d="M320 -11q-53 0 -96 16.5t-73 46t-46.5 69.5t-16.5 88v285h91v-268q0 -69 36.5 -110.5t103.5 -41.5t103.5 41.5t36.5 110.5v268h92v-285q0 -48 -16 -88t-46 -69.5t-73 -46t-96 -16.5zM157 575v76q0 43 19 68.5t60 25.5q29 0 48.5 -11.5t42.5 -31.5l29 -24q10 -8 18 -13
t16 -5q17 0 17 23v67h72v-76q0 -43 -19 -68.5t-60 -25.5q-29 0 -48.5 11.5t-42.5 31.5l-29 24q-10 8 -18 13t-16 5q-17 0 -17 -23v-67h-72z" />
    <glyph glyph-name="wacute" unicode="&#x1e83;" horiz-adv-x="869" 
d="M436 369l-146 -373h-73l-189 498h98l134 -365l142 369h76l141 -365l132 361h90l-187 -498h-72zM500 762h100l-115 -183h-93z" />
    <glyph glyph-name="wcircumflex" unicode="&#x175;" horiz-adv-x="869" 
d="M436 369l-146 -373h-73l-189 498h98l134 -365l142 369h76l141 -365l132 361h90l-187 -498h-72zM439 690l-74 -114h-90l126 193h76l123 -193h-87z" />
    <glyph glyph-name="wdieresis" unicode="&#x1e85;" horiz-adv-x="869" 
d="M436 369l-146 -373h-73l-189 498h98l134 -365l142 369h76l141 -365l132 361h90l-187 -498h-72zM299 728h92v-139h-92v139zM487 728h92v-139h-92v139z" />
    <glyph glyph-name="wgrave" unicode="&#x1e81;" horiz-adv-x="869" 
d="M436 369l-146 -373h-73l-189 498h98l134 -365l142 369h76l141 -365l132 361h90l-187 -498h-72zM391 579l-115 183h100l108 -183h-93z" />
    <glyph glyph-name="ycircumflex" unicode="&#x177;" horiz-adv-x="581" 
d="M234 -224h-93l106 235l-224 483h103l169 -376l169 376h94zM295 690l-74 -114h-90l126 193h76l123 -193h-87z" />
    <glyph glyph-name="ygrave" unicode="&#x1ef3;" horiz-adv-x="581" 
d="M234 -224h-93l106 235l-224 483h103l169 -376l169 376h94zM250 579l-115 183h100l108 -183h-93z" />
    <glyph glyph-name="zacute" unicode="&#x17a;" horiz-adv-x="606" 
d="M562 0h-506v53l329 360h-321v81h462v-51l-334 -362h370v-81zM347 762h100l-115 -183h-93z" />
    <glyph glyph-name="zdotaccent" unicode="&#x17c;" horiz-adv-x="606" 
d="M562 0h-506v53l329 360h-321v81h462v-51l-334 -362h370v-81zM248 732h94v-143h-94v143z" />
    <glyph glyph-name="f_b" horiz-adv-x="1154" 
d="M267 412v-412h-91v412h-146v82h146v78q0 79 42.5 121.5t133.5 42.5h139v-82h-129q-50 0 -72.5 -24t-22.5 -71v-65h192v-82h-192zM673 0h-90v736h90v-326q4 9 17 25.5t35.5 32t54 27t73.5 11.5q49 0 93.5 -17.5t77.5 -51t52.5 -81.5t19.5 -109t-19.5 -109t-52.5 -81.5
t-77.5 -51t-93.5 -17.5q-41 0 -72.5 11t-54 26t-36 30.5t-17.5 24.5v-80zM671 247q0 -37 12 -69t33.5 -55.5t52 -37t68.5 -13.5q37 0 68 13.5t52.5 37t33.5 55.5t12 69t-12 69.5t-33.5 55.5t-52.5 36.5t-68 13.5q-38 0 -68.5 -13.5t-52 -36.5t-33.5 -55.5t-12 -69.5z" />
    <glyph glyph-name="f_h" horiz-adv-x="1141" 
d="M267 412v-412h-91v412h-146v82h146v78q0 79 42.5 121.5t133.5 42.5h139v-82h-129q-50 0 -72.5 -24t-22.5 -71v-65h192v-82h-192zM674 0h-91v736h91v-333q7 15 21.5 33t35.5 33t48.5 25.5t62.5 10.5q47 0 86 -16.5t66.5 -46t43 -70t15.5 -88.5v-284h-92v267
q0 70 -38.5 112t-102.5 42q-33 0 -60 -11.5t-46 -32t-29.5 -48.5t-10.5 -62v-267z" />
    <glyph glyph-name="f_j" horiz-adv-x="770" 
d="M267 412v-412h-91v412h-146v82h146v78q0 79 42.5 121.5t133.5 42.5h139v-82h-129q-50 0 -72.5 -24t-22.5 -71v-65h192v-82h-192zM582 732h95v-143h-95v143zM675 -53q0 -85 -41.5 -128t-126.5 -43h-133v85h118q92 0 92 96v537h91v-547z" />
    <glyph glyph-name="f_k" horiz-adv-x="1080" 
d="M267 412v-412h-91v412h-146v82h146v78q0 79 42.5 121.5t133.5 42.5h139v-82h-129q-50 0 -72.5 -24t-22.5 -71v-65h192v-82h-192zM671 228v-228h-88v736h88v-451l258 209h130l-292 -233l305 -261h-129z" />
    <glyph glyph-name="space_uni0326" horiz-adv-x="500" 
d="M212 -325q16 29 25.5 62t9.5 53h-52v115h112v-98q0 -45 -8.5 -76.5t-19.5 -55.5h-67z" />
    <glyph glyph-name="oneeighth" unicode="&#x215b;" horiz-adv-x="959" 
d="M900 115q0 -55 -40.5 -88.5t-113.5 -33.5h-18q-72 0 -112 33.5t-40 88.5q0 23 7 41t17.5 30.5t23 20.5t24.5 12q-11 4 -22 11t-21 19t-16 28t-6 38q0 53 37.5 85.5t108.5 32.5h17q72 0 109.5 -32.5t37.5 -85.5q0 -22 -6 -38t-16 -28t-21.5 -19t-21.5 -11q12 -4 24.5 -12
t23 -20.5t17.5 -30.5t7 -41zM732 365q-29 0 -47 -15t-18 -42q0 -26 18 -41.5t47 -15.5h12q29 0 46.5 15.5t17.5 41.5q0 27 -17.5 42t-46.5 15h-12zM731 184q-30 0 -49.5 -16t-19.5 -45t19.5 -45.5t49.5 -16.5h14q31 0 50 16.5t19 45.5t-19 45t-50 16h-14zM233 284h-85v332
l-105 -59v79l126 76h64v-428zM162 0l433 710h92l-433 -710h-92z" />
    <glyph glyph-name="onethird" unicode="&#x2153;" horiz-adv-x="938" 
d="M882 120q0 -57 -42.5 -92t-118.5 -35q-42 0 -71.5 12t-49 30.5t-29.5 41t-12 44.5h85q4 -18 21.5 -35.5t55.5 -17.5q35 0 55 15.5t20 42.5t-17 41.5t-48 14.5h-79v74h76q55 0 55 50q0 26 -18 40t-47 14q-33 0 -48 -16.5t-18 -33.5h-84q1 22 10 44t27.5 39.5t46.5 28.5
t66 11q72 0 111 -32.5t39 -87.5q0 -37 -18.5 -58.5t-37.5 -29.5q12 -4 24 -11.5t22.5 -20.5t17 -31t6.5 -42zM233 284h-85v332l-105 -59v79l126 76h64v-428zM162 0l433 710h92l-433 -710h-92z" />
    <glyph glyph-name="threeeighths" unicode="&#x215c;" horiz-adv-x="1056" 
d="M372 404q0 -57 -42.5 -92t-118.5 -35q-42 0 -71.5 12t-49 30.5t-29.5 41t-12 44.5h85q4 -18 21.5 -35.5t55.5 -17.5q35 0 55 15.5t20 42.5t-17 41.5t-48 14.5h-79v74h76q55 0 55 50q0 26 -18 40t-47 14q-33 0 -48 -16.5t-18 -33.5h-84q1 22 10 44t27.5 39.5t46.5 28.5
t66 11q72 0 111 -32.5t39 -87.5q0 -37 -18.5 -58.5t-37.5 -29.5q12 -4 24 -11.5t22.5 -20.5t17 -31t6.5 -42zM997 115q0 -55 -40.5 -88.5t-113.5 -33.5h-18q-72 0 -112 33.5t-40 88.5q0 23 7 41t17.5 30.5t23 20.5t24.5 12q-11 4 -22 11t-21 19t-16 28t-6 38q0 53 37.5 85.5
t108.5 32.5h17q72 0 109.5 -32.5t37.5 -85.5q0 -22 -6 -38t-16 -28t-21.5 -19t-21.5 -11q12 -4 24.5 -12t23 -20.5t17.5 -30.5t7 -41zM829 365q-29 0 -47 -15t-18 -42q0 -26 18 -41.5t47 -15.5h12q29 0 46.5 15.5t17.5 41.5q0 27 -17.5 42t-46.5 15h-12zM828 184
q-30 0 -49.5 -16t-19.5 -45t19.5 -45.5t49.5 -16.5h14q31 0 50 16.5t19 45.5t-19 45t-50 16h-14zM259 0l433 710h92l-433 -710h-92z" />
    <glyph glyph-name="fiveeighths" unicode="&#x215d;" horiz-adv-x="1057" 
d="M77 710h284v-71h-204v-97q11 12 32 21.5t51 9.5q28 0 53 -9.5t44 -28t29.5 -45t10.5 -60.5v-4q0 -65 -42.5 -107t-117.5 -42q-41 0 -71 12t-49.5 30.5t-29 42.5t-10.5 48h84q1 -8 6 -18t14 -19t22.5 -15t33.5 -6q34 0 54.5 21t20.5 53v3q0 33 -20.5 53t-54.5 20
q-33 0 -47.5 -13.5t-18.5 -20.5h-74v242zM998 115q0 -55 -40.5 -88.5t-113.5 -33.5h-18q-72 0 -112 33.5t-40 88.5q0 23 7 41t17.5 30.5t23 20.5t24.5 12q-11 4 -22 11t-21 19t-16 28t-6 38q0 53 37.5 85.5t108.5 32.5h17q72 0 109.5 -32.5t37.5 -85.5q0 -22 -6 -38t-16 -28
t-21.5 -19t-21.5 -11q12 -4 24.5 -12t23 -20.5t17.5 -30.5t7 -41zM830 365q-29 0 -47 -15t-18 -42q0 -26 18 -41.5t47 -15.5h12q29 0 46.5 15.5t17.5 41.5q0 27 -17.5 42t-46.5 15h-12zM829 184q-30 0 -49.5 -16t-19.5 -45t19.5 -45.5t49.5 -16.5h14q31 0 50 16.5t19 45.5
t-19 45t-50 16h-14zM260 0l433 710h92l-433 -710h-92z" />
    <glyph glyph-name="twothirds" unicode="&#x2154;" horiz-adv-x="1056" 
d="M380 284h-322v55l151 143q29 28 44 49.5t15 48.5t-17 44t-48 17t-48.5 -19t-17.5 -50v-23h-81v24q0 31 10 57.5t28.5 45.5t46 30t62.5 11q72 0 111 -37t39 -97q0 -25 -6.5 -45.5t-18.5 -38.5t-29 -35.5t-38 -36.5l-74 -68h193v-75zM1000 120q0 -57 -42.5 -92t-118.5 -35
q-42 0 -71.5 12t-49 30.5t-29.5 41t-12 44.5h85q4 -18 21.5 -35.5t55.5 -17.5q35 0 55 15.5t20 42.5t-17 41.5t-48 14.5h-79v74h76q55 0 55 50q0 26 -18 40t-47 14q-33 0 -48 -16.5t-18 -33.5h-84q1 22 10 44t27.5 39.5t46.5 28.5t66 11q72 0 111 -32.5t39 -87.5
q0 -37 -18.5 -58.5t-37.5 -29.5q12 -4 24 -11.5t22.5 -20.5t17 -31t6.5 -42zM280 0l433 710h92l-433 -710h-92z" />
    <glyph glyph-name="seveneighths" unicode="&#x215e;" horiz-adv-x="974" 
d="M168 284h-94l191 351h-215v75h315v-57zM915 115q0 -55 -40.5 -88.5t-113.5 -33.5h-18q-72 0 -112 33.5t-40 88.5q0 23 7 41t17.5 30.5t23 20.5t24.5 12q-11 4 -22 11t-21 19t-16 28t-6 38q0 53 37.5 85.5t108.5 32.5h17q72 0 109.5 -32.5t37.5 -85.5q0 -22 -6 -38
t-16 -28t-21.5 -19t-21.5 -11q12 -4 24.5 -12t23 -20.5t17.5 -30.5t7 -41zM747 365q-29 0 -47 -15t-18 -42q0 -26 18 -41.5t47 -15.5h12q29 0 46.5 15.5t17.5 41.5q0 27 -17.5 42t-46.5 15h-12zM746 184q-30 0 -49.5 -16t-19.5 -45t19.5 -45.5t49.5 -16.5h14q31 0 50 16.5
t19 45.5t-19 45t-50 16h-14zM177 0l433 710h92l-433 -710h-92z" />
    <glyph glyph-name="uni2032" unicode="&#x2032;" horiz-adv-x="286" 
d="M50 405l101 305h85l-102 -305h-84z" />
    <glyph glyph-name="uni2033" unicode="&#x2033;" horiz-adv-x="469" 
d="M50 405l101 305h83l-102 -305h-82zM232 405l104 305h83l-105 -305h-82z" />
    <glyph glyph-name="uni24C5" unicode="&#x24c5;" horiz-adv-x="884" 
d="M442 -12q-80 0 -147 28t-116 77t-76.5 116.5t-27.5 145.5t28 145t77 116.5t116 77.5t146 28q78 0 145.5 -28t116.5 -77.5t77 -116.5t28 -145t-28 -145t-77 -116.5t-116.5 -77.5t-145.5 -28zM442 56q66 0 120 23.5t92.5 64t59.5 95t21 116.5q0 61 -21 115.5t-59.5 95.5
t-92.5 64.5t-120 23.5t-120 -23.5t-92.5 -64t-59.5 -95t-21 -116.5q0 -63 21 -117.5t59.5 -95t92.5 -63.5t120 -23zM286 544h202q75 0 110.5 -31.5t35.5 -90.5q0 -57 -35.5 -90t-110.5 -33h-114v-129h-88v374zM374 468v-92h115q29 0 43 12.5t14 33.5q0 46 -57 46h-115z" />
    <glyph glyph-name="zero.old" horiz-adv-x="722" 
d="M361 574q62 0 116 -22.5t93.5 -61.5t62 -92.5t22.5 -115.5t-22.5 -116t-62 -93.5t-93.5 -62t-116 -22.5q-63 0 -116.5 22.5t-93 62t-62 93.5t-22.5 116t22.5 115.5t62 92.5t93 61.5t116.5 22.5zM361 74q44 0 80.5 16t62.5 44.5t40.5 66t14.5 81.5q0 43 -14.5 81
t-40.5 65.5t-62.5 43.5t-80.5 16t-80.5 -16t-62.5 -44t-40.5 -65.5t-14.5 -80.5t14.5 -81t40.5 -66t62.5 -44.5t80.5 -16.5z" />
    <glyph glyph-name="one.old" horiz-adv-x="441" 
d="M319 0h-93v458l-178 -104v90l199 123h72v-567z" />
    <glyph glyph-name="two.old" horiz-adv-x="616" 
d="M552 0h-477v60l199 132q71 47 107.5 87.5t36.5 94.5q0 51 -31.5 83t-88.5 32q-30 0 -54 -11t-40.5 -29t-25 -42.5t-8.5 -51.5v-6h-93v7q0 45 15 84.5t43.5 69t69.5 47t93 17.5q50 0 90 -15.5t67.5 -42.5t42 -63.5t14.5 -78.5t-15.5 -76.5t-41.5 -64.5t-59.5 -55.5
t-70.5 -47.5l-75 -46h302v-84z" />
    <glyph glyph-name="three.old" horiz-adv-x="621" 
d="M548 46q0 -46 -16.5 -84t-47.5 -65t-76 -42t-102 -15q-60 0 -104.5 17.5t-73.5 46t-45 64.5t-19 72h97q4 -21 14.5 -41.5t28 -36.5t43 -26t59.5 -10q67 0 106.5 33t39.5 93t-38 92t-108 32h-105v86h112q57 0 89 29t32 84q0 54 -36.5 83.5t-93.5 29.5q-60 0 -90.5 -31.5
t-38.5 -76.5h-96q2 34 16 68.5t41.5 62.5t69 45.5t97.5 17.5q55 0 97 -14.5t71 -40.5t44 -62t15 -78q0 -33 -10 -59t-25 -45t-32.5 -31.5t-32.5 -18.5q19 -6 40 -19.5t38.5 -35t28.5 -52.5t11 -72z" />
    <glyph glyph-name="four.old" horiz-adv-x="689" 
d="M500 71v-219h-94v219h-360v53l348 438h106v-407h151v-84h-151zM406 155v295l-232 -295h232z" />
    <glyph glyph-name="five.old" horiz-adv-x="646" 
d="M114 562h429v-88h-336v-214q20 21 55 36.5t86 15.5q45 0 86 -15.5t71.5 -45.5t48.5 -73.5t18 -99.5v-1q0 -51 -17.5 -94.5t-50 -74.5t-78 -48.5t-100.5 -17.5q-61 0 -106 17.5t-75 46.5t-46 66.5t-19 77.5h95q3 -18 11.5 -39.5t26 -39.5t45 -30.5t68.5 -12.5q33 0 61 11
t47.5 31t30.5 47t11 60q0 69 -41.5 109t-108.5 40q-33 0 -56 -8.5t-38.5 -20t-24 -22.5t-12.5 -17h-81v404z" />
    <glyph glyph-name="six.old" horiz-adv-x="654" 
d="M582 230q0 -51 -17.5 -95t-50.5 -77t-80.5 -51.5t-107.5 -18.5q-61 0 -108 18t-79.5 50.5t-49.5 76.5t-17 97q0 40 9 75t25 66.5t36.5 61t44.5 60.5l166 217h115l-206 -263q18 10 41 16t52 6q49 0 91 -16.5t72 -47.5t47 -75.5t17 -99.5zM486 230q0 34 -10 63t-30.5 50
t-50.5 33t-69 12q-36 0 -65.5 -12t-50 -33t-31.5 -50t-11 -63q0 -32 10.5 -60.5t30.5 -49.5t49.5 -33.5t67.5 -12.5q39 0 69 12.5t50.5 33.5t30.5 49.5t10 60.5z" />
    <glyph glyph-name="seven.old" horiz-adv-x="618" 
d="M211 -148h-106l348 622h-388v88h498v-73z" />
    <glyph glyph-name="eight.old" horiz-adv-x="666" 
d="M585 192q0 -45 -17.5 -82.5t-49.5 -64.5t-76.5 -42t-99.5 -15h-23q-53 0 -97 15t-75.5 42t-48.5 64.5t-17 82.5q0 38 12 67.5t30.5 51t40.5 35.5t43 20q-19 6 -39 18t-36.5 32t-27 47t-10.5 63q0 42 15.5 78t45 62t71.5 41t96 15h22q54 0 96.5 -15t71.5 -41t44.5 -62
t15.5 -78q0 -36 -10.5 -63t-27 -47t-36.5 -32t-39 -18q21 -6 43 -20t40.5 -35.5t30.5 -51t12 -67.5zM322 636q-28 0 -52 -8t-42 -23t-28 -36t-10 -47t10 -47t28 -36t42 -23t52 -8h22q28 0 52 8t42 23t28 36t10 47t-10 47t-28 36t-42 23t-52 8h-22zM320 322q-30 0 -56 -9
t-45 -25t-30 -39t-11 -51t11 -51t30 -39t45 -25t56 -9h26q30 0 56 9t45 25t30 39t11 51t-11 51t-30 39t-45 25t-56 9h-26z" />
    <glyph glyph-name="nine.old" horiz-adv-x="654" 
d="M301 -148h-115l206 263q-18 -10 -41 -16t-52 -6q-50 0 -91.5 16.5t-71.5 47.5t-47 75.5t-17 99.5q0 51 17.5 95t50.5 77t80.5 51.5t107.5 18.5q61 0 108 -18t79.5 -50.5t49.5 -77t17 -96.5q0 -41 -9 -75.5t-25 -66t-36.5 -61t-44.5 -60.5zM168 332q0 -34 10 -63t30.5 -50
t50.5 -33t69 -12q36 0 65.5 12t50 33t31.5 50t11 63q0 32 -10.5 60.5t-30.5 49.5t-49.5 33.5t-67.5 12.5q-39 0 -69 -12.5t-50.5 -33.5t-30.5 -49.5t-10 -60.5z" />
    <glyph glyph-name="space.tab" horiz-adv-x="325" 
 />
    <glyph glyph-name="dollar.tab" horiz-adv-x="650" 
d="M550 191q0 -38 -12.5 -70t-35.5 -57t-57.5 -41.5t-77.5 -21.5v-124h-78v123q-91 11 -139.5 67.5t-48.5 139.5v6h94v-4q0 -61 36.5 -94t93.5 -33q63 0 96.5 30.5t33.5 78.5t-27.5 74t-75.5 40l-73 22q-83 25 -125.5 71.5t-42.5 130.5q0 38 13.5 70t37 55.5t56 38.5
t71.5 20v116h78v-117q81 -11 125.5 -62.5t44.5 -135.5v-3h-92v3q0 53 -31.5 85t-88.5 32q-54 0 -87 -27t-33 -75q0 -46 27.5 -72.5t75.5 -40.5l73 -22q40 -12 71.5 -29.5t53.5 -41.5t33 -56.5t11 -75.5z" />
    <glyph glyph-name="cent.tab" horiz-adv-x="650" 
d="M556 147q-2 -11 -11.5 -34.5t-29.5 -48.5t-53 -46t-83 -28v-113h-76v114q-42 7 -77.5 29.5t-61 56t-39.5 77t-14 93.5q0 51 14 94.5t39.5 77.5t61 56t77.5 29v108h76v-108q49 -6 81.5 -27t52 -45.5t29 -47.5t11.5 -35h-90q-3 7 -11.5 19.5t-23 24.5t-36 21t-51.5 9
t-55 -13.5t-43 -37t-28 -56t-10 -69.5t10 -69t28 -56t43 -37.5t56 -13.5q33 0 55.5 9.5t37 22t22.5 25t11 19.5h88v0z" />
    <glyph glyph-name="Euro.tab" horiz-adv-x="650" 
d="M17 482h118q0 58 16.5 102.5t47.5 75t74 46.5t96 16q109 0 171.5 -60.5t65.5 -169.5h-97q-1 29 -9.5 55t-26 45.5t-43 31t-61.5 11.5q-34 0 -60 -11.5t-44 -32t-27 -48.5t-9 -61h182v-78h-182v-91h182v-78h-182v-6q0 -71 37 -112t105 -41q69 0 103 40.5t35 107.5h97
q-1 -58 -18.5 -102t-48.5 -73.5t-74 -44.5t-96 -15q-52 0 -95 15t-74 45t-48 75t-17 105v6h-118v78h118v91h-118v78z" />
    <glyph glyph-name="sterling.tab" horiz-adv-x="650" 
d="M630 0h-598v88h117v186h-117v88h117v149q0 103 56.5 157t150.5 54q97 0 152 -53.5t55 -157.5v-38h-92v36q0 61 -30.5 93.5t-84.5 32.5q-53 0 -82 -32.5t-29 -93.5v-147h224v-88h-224v-186h385v-88z" />
    <glyph glyph-name="yen.tab" horiz-adv-x="650" 
d="M377 149v-149h-97v149h-204v78h204v91h-204v78h202l-245 314h117l180 -233l179 233h108l-240 -314h204v-78h-204v-91h204v-78h-204z" />
    <glyph glyph-name="florin.tab" horiz-adv-x="650" 
d="M324 342l-89 -556h-92l87 556h-151v83h164l19 119q7 42 19.5 73t34.5 52t56 31t83 10h146v-83h-137q-56 0 -79 -22t-31 -74l-17 -106h176v-83h-189z" />
    <glyph glyph-name="zero.tab" horiz-adv-x="650" 
d="M325 722q55 0 100 -17t76.5 -50t49 -80t17.5 -107v-226q0 -63 -17.5 -110.5t-50 -79.5t-77 -48t-98.5 -16t-98.5 16t-77 48t-50 79.5t-17.5 110.5v226q0 60 17.5 107t49 80t76.5 50t100 17zM325 76q37 0 64.5 12.5t46 35t27.5 53t9 66.5v224q0 36 -9 66.5t-27.5 53
t-46 35t-64.5 12.5t-64.5 -12.5t-46 -35t-27.5 -53t-9 -66.5v-224q0 -36 9 -66.5t27.5 -53t46 -35t64.5 -12.5z" />
    <glyph glyph-name="one.tab" horiz-adv-x="650" 
d="M454 0h-97v599l-236 -133v92l261 155h72v-713z" />
    <glyph glyph-name="two.tab" horiz-adv-x="650" 
d="M590 0h-499v60l240 237q29 29 51.5 54t38 49t23.5 49t8 54q0 59 -35 95t-97 36t-97 -39t-35 -100v-46h-95v47q0 49 15.5 90.5t45 71.5t71.5 47t95 17t95.5 -16.5t72 -46t45.5 -69.5t16 -87q0 -42 -12 -77.5t-33 -67t-49 -61.5t-61 -62l-150 -147h346v-88z" />
    <glyph glyph-name="three.tab" horiz-adv-x="650" 
d="M574 194q0 -46 -17 -84t-49.5 -65t-79.5 -42t-107 -15q-63 0 -109 17.5t-77 46t-47 64.5t-19 72h97q4 -21 15 -41t30 -35.5t46.5 -25.5t63.5 -10q71 0 113 32.5t42 91.5q0 60 -38 91.5t-107 31.5h-125v88h128q57 0 89 29t32 83q0 53 -38 82.5t-98 29.5q-63 0 -95 -31
t-40 -76h-96q2 34 16.5 68.5t42.5 62.5t70.5 45.5t100.5 17.5q56 0 99.5 -14.5t73 -40.5t45 -62t15.5 -78q0 -33 -9.5 -58.5t-24 -44.5t-32 -31.5t-33.5 -19.5q20 -6 41.5 -18.5t39.5 -34.5t29.5 -53t11.5 -73z" />
    <glyph glyph-name="four.tab" horiz-adv-x="650" 
d="M479 213v-213h-94v213h-338v53l326 444h106v-413h131v-84h-131zM385 297v301l-220 -301h220z" />
    <glyph glyph-name="five.tab" horiz-adv-x="650" 
d="M114 710h436v-88h-344v-206q21 21 57 36.5t87 15.5q46 0 87 -15.5t72 -45.5t49.5 -73.5t18.5 -99.5v-11q0 -52 -18 -95t-50.5 -74t-78.5 -48.5t-102 -17.5q-62 0 -107 17.5t-76 46t-47 66t-19 78.5h95q3 -18 11.5 -39t26.5 -39t46 -30t70 -12q34 0 62 11t48 30.5
t31.5 46.5t11.5 59v10q0 68 -42 107.5t-111 39.5q-33 0 -57 -8t-39.5 -19t-24.5 -22t-13 -17h-80v396z" />
    <glyph glyph-name="six.tab" horiz-adv-x="650" 
d="M580 230q0 -51 -17.5 -95t-50.5 -77t-80.5 -51.5t-107.5 -18.5q-61 0 -108 18t-79.5 50.5t-49.5 76.5t-17 97q0 40 9 75t25 66.5t36.5 61t44.5 60.5l166 217h115l-207 -263q18 10 41.5 15.5t52.5 5.5q49 0 91 -16.5t72 -47.5t47 -75t17 -99zM483 230q0 33 -10 61.5
t-30.5 49.5t-50 33t-68.5 12q-36 0 -65 -12t-49.5 -33t-31.5 -49.5t-11 -61.5q0 -32 10.5 -60t30.5 -49t49 -33t67 -12q39 0 68.5 12t50 33t30.5 49t10 60z" />
    <glyph glyph-name="seven.tab" horiz-adv-x="650" 
d="M227 0h-106l348 622h-388v88h498v-73z" />
    <glyph glyph-name="eight.tab" horiz-adv-x="650" 
d="M580 192q0 -45 -17 -82.5t-48.5 -64.5t-76.5 -42t-102 -15h-27q-55 0 -99.5 15t-75.5 42t-47.5 64.5t-16.5 82.5q0 38 12 67.5t31 51t41 35.5t43 20q-19 6 -39 18t-36.5 32t-27 47t-10.5 63q0 42 15 78t44 62t71.5 41t97.5 15h26q55 0 98 -15t71.5 -41t43.5 -62t15 -78
q0 -36 -10.5 -63t-27 -47t-36.5 -32t-39 -18q21 -6 43 -20t41 -35.5t31 -51t12 -67.5zM312 636q-60 0 -96 -31t-36 -83t36 -83t96 -31h26q60 0 96 31t36 83t-36 83t-96 31h-26zM310 322q-63 0 -102.5 -33.5t-39.5 -90.5t39.5 -90.5t102.5 -33.5h30q64 0 103 33.5t39 90.5
t-39 90.5t-103 33.5h-30z" />
    <glyph glyph-name="nine.tab" horiz-adv-x="650" 
d="M299 0h-115l207 263q-18 -10 -41.5 -15.5t-52.5 -5.5q-50 0 -91.5 16.5t-71.5 47.5t-47 75t-17 99q0 51 17.5 95t50.5 77t80.5 51.5t107.5 18.5q61 0 108 -18t79.5 -50.5t49.5 -77t17 -96.5q0 -41 -9 -75.5t-25 -66t-36.5 -61t-44.5 -60.5zM167 480q0 -33 10 -61.5
t30.5 -49.5t50 -33t68.5 -12q36 0 65 12t49.5 33t31.5 49.5t11 61.5q0 31 -10.5 59t-30.5 49t-49.5 33.5t-66.5 12.5q-39 0 -68.5 -12.5t-50 -33.5t-30.5 -49t-10 -59z" />
    <glyph glyph-name="percent.tab" horiz-adv-x="975" 
d="M232 356q-39 0 -72 14t-57.5 38.5t-38.5 58t-14 72.5t14 72.5t38.5 58t57.5 38.5t72 14t72 -14t57.5 -38.5t38.5 -58t14 -72.5t-14 -72.5t-38.5 -58t-57.5 -38.5t-72 -14zM691 710h95l-503 -710h-94zM232 430q46 0 74.5 31t28.5 78t-28.5 78t-74.5 31t-74.5 -31
t-28.5 -78t28.5 -78t74.5 -31zM743 -14q-39 0 -72 14t-57.5 38.5t-38.5 58t-14 72.5t14 72.5t38.5 58t57.5 38.5t72 14t72 -14t57.5 -38.5t38.5 -58t14 -72.5t-14 -72.5t-38.5 -58t-57.5 -38.5t-72 -14zM743 60q46 0 74.5 31t28.5 78t-28.5 78t-74.5 31t-74.5 -31t-28.5 -78
t28.5 -78t74.5 -31z" />
    <glyph glyph-name="perthousand.tab" horiz-adv-x="1300" 
d="M221 372q-37 0 -69 13.5t-55.5 36.5t-37 55t-13.5 70q0 37 13.5 69t37 55.5t55.5 37t69 13.5t69 -13.5t55.5 -37t37 -55.5t13.5 -69q0 -38 -13.5 -70t-37 -55t-55.5 -36.5t-69 -13.5zM145 0l504 710h93l-505 -710h-92zM221 447q43 0 69.5 28.5t26.5 71.5q0 42 -26.5 71
t-69.5 29t-69.5 -29t-26.5 -71q0 -43 26.5 -71.5t69.5 -28.5zM665 -14q-37 0 -69 13.5t-55.5 36.5t-37 55t-13.5 70q0 37 13.5 69t37 55.5t55.5 37t69 13.5t69 -13.5t55.5 -37t37 -55.5t13.5 -69q0 -38 -13.5 -70t-37 -55t-55.5 -36.5t-69 -13.5zM1079 -14q-37 0 -69 13.5
t-55.5 36.5t-37 55t-13.5 70q0 37 13.5 69t37 55.5t55.5 37t69 13.5t69 -13.5t55.5 -37t37 -55.5t13.5 -69q0 -38 -13.5 -70t-37 -55t-55.5 -36.5t-69 -13.5zM665 61q43 0 69.5 28.5t26.5 71.5q0 42 -26.5 71t-69.5 29t-69.5 -29t-26.5 -71q0 -43 26.5 -71.5t69.5 -28.5z
M1079 61q43 0 69.5 28.5t26.5 71.5q0 42 -26.5 71t-69.5 29t-69.5 -29t-26.5 -71q0 -43 26.5 -71.5t69.5 -28.5z" />
    <glyph glyph-name="plus.tab" horiz-adv-x="650" 
d="M366 276v-226h-82v226h-218v78h218v226h82v-226h218v-78h-218z" />
    <glyph glyph-name="minus.tab" horiz-adv-x="650" 
d="M61 275v80h528v-80h-528z" />
    <glyph glyph-name="multiply.tab" horiz-adv-x="650" 
d="M61 370v77h528v-77h-528zM61 166v77h528v-77h-528z" />
    <glyph glyph-name="divide.tab" horiz-adv-x="650" 
d="M268 590h116v-143h-116v143zM61 275v80h528v-80h-528zM268 173h116v-143h-116v143z" />
    <glyph glyph-name="equal.tab" horiz-adv-x="650" 
d="M505 59l-182 181l-180 -181l-54 54l180 181l-180 179l58 58l179 -181l180 181l54 -54l-180 -181l181 -183z" />
    <glyph glyph-name="less.tab" horiz-adv-x="650" 
d="M551 60l-461 201v69l461 201v-89l-352 -148l352 -147v-87z" />
    <glyph glyph-name="greater.tab" horiz-adv-x="650" 
d="M100 60v89l352 148l-352 147v87l461 -201v-69z" />
    <glyph glyph-name="period.tab" horiz-adv-x="325" 
d="M105 142h116v-142h-116v142z" />
    <glyph glyph-name="comma.tab" horiz-adv-x="325" 
d="M94 -214q27 45 50.5 99t25.5 115h-54v142h116v-134q0 -33 -6 -65t-15 -60.5t-20.5 -53t-22.5 -43.5h-74z" />
    <glyph glyph-name="colon.tab" horiz-adv-x="325" 
d="M105 142h116v-142h-116v142zM105 485h116v-142h-116v142z" />
    <glyph glyph-name="semicolon.tab" horiz-adv-x="325" 
d="M105 485h116v-142h-116v142zM83 -214q27 45 50.5 99t25.5 115h-54v142h116v-134q0 -33 -6 -65t-15 -60.5t-20.5 -53t-22.5 -43.5h-74z" />
    <glyph glyph-name="zero.num" unicode="&#xe416;" horiz-adv-x="455" 
d="M228 718q74 0 116.5 -42.5t42.5 -117.5v-122q0 -77 -43 -118.5t-116 -41.5t-116.5 41.5t-43.5 118.5v122q0 75 43 117.5t117 42.5zM228 353q38 0 56.5 23.5t18.5 60.5v120q0 37 -18.5 60.5t-56.5 23.5t-56.5 -23.5t-18.5 -60.5v-120q0 -37 18.5 -60.5t56.5 -23.5z" />
    <glyph glyph-name="one.num" unicode="&#xe417;" horiz-adv-x="316" 
d="M233 284h-85v332l-105 -59v79l126 76h64v-428z" />
    <glyph glyph-name="two.num" unicode="&#xe418;" horiz-adv-x="419" 
d="M380 284h-322v55l151 143q29 28 44 49.5t15 48.5t-17 44t-48 17t-48.5 -19t-17.5 -50v-23h-81v24q0 31 10 57.5t28.5 45.5t46 30t62.5 11q72 0 111 -37t39 -97q0 -25 -6.5 -45.5t-18.5 -38.5t-29 -35.5t-38 -36.5l-74 -68h193v-75z" />
    <glyph glyph-name="three.num" unicode="&#xe419;" horiz-adv-x="428" 
d="M372 404q0 -57 -42.5 -92t-118.5 -35q-42 0 -71.5 12t-49 30.5t-29.5 41t-12 44.5h85q4 -18 21.5 -35.5t55.5 -17.5q35 0 55 15.5t20 42.5t-17 41.5t-48 14.5h-79v74h76q55 0 55 50q0 26 -18 40t-47 14q-33 0 -48 -16.5t-18 -33.5h-84q1 22 10 44t27.5 39.5t46.5 28.5
t66 11q72 0 111 -32.5t39 -87.5q0 -37 -18.5 -58.5t-37.5 -29.5q12 -4 24 -11.5t22.5 -20.5t17 -31t6.5 -42z" />
    <glyph glyph-name="four.num" unicode="&#xe41a;" horiz-adv-x="460" 
d="M337 396v-112h-81v112h-214v60l193 254h102v-244h84v-70h-84zM256 466v170l-127 -170h127z" />
    <glyph glyph-name="five.num" unicode="&#xe41b;" horiz-adv-x="435" 
d="M77 710h284v-71h-204v-97q11 12 32 21.5t51 9.5q28 0 53 -9.5t44 -28t29.5 -45t10.5 -60.5v-4q0 -65 -42.5 -107t-117.5 -42q-41 0 -71 12t-49.5 30.5t-29 42.5t-10.5 48h84q1 -8 6 -18t14 -19t22.5 -15t33.5 -6q34 0 54.5 21t20.5 53v3q0 33 -20.5 53t-54.5 20
q-33 0 -47.5 -13.5t-18.5 -20.5h-74v242z" />
    <glyph glyph-name="six.num" unicode="&#xe41c;" horiz-adv-x="435" 
d="M381 428q0 -32 -11.5 -60t-32.5 -48t-51 -31.5t-68 -11.5q-77 0 -120 42.5t-43 108.5q0 49 19.5 85.5t50.5 76.5l93 120h95l-122 -156q10 7 23.5 11t33.5 4q60 0 96.5 -38.5t36.5 -102.5zM296 428q0 33 -20 55t-58 22q-35 0 -56.5 -22t-21.5 -55q0 -32 20.5 -54t57.5 -22
q38 0 58 22t20 54z" />
    <glyph glyph-name="seven.num" unicode="&#xe41d;" horiz-adv-x="411" 
d="M168 284h-94l191 351h-215v75h315v-57z" />
    <glyph glyph-name="eight.num" unicode="&#xe41e;" horiz-adv-x="442" 
d="M383 399q0 -55 -40.5 -88.5t-113.5 -33.5h-18q-72 0 -112 33.5t-40 88.5q0 23 7 41t17.5 30.5t23 20.5t24.5 12q-11 4 -22 11t-21 19t-16 28t-6 38q0 53 37.5 85.5t108.5 32.5h17q72 0 109.5 -32.5t37.5 -85.5q0 -22 -6 -38t-16 -28t-21.5 -19t-21.5 -11q12 -4 24.5 -12
t23 -20.5t17.5 -30.5t7 -41zM215 649q-29 0 -47 -15t-18 -42q0 -26 18 -41.5t47 -15.5h12q29 0 46.5 15.5t17.5 41.5q0 27 -17.5 42t-46.5 15h-12zM214 468q-30 0 -49.5 -16t-19.5 -45t19.5 -45.5t49.5 -16.5h14q31 0 50 16.5t19 45.5t-19 45t-50 16h-14z" />
    <glyph glyph-name="nine.num" unicode="&#xe41f;" horiz-adv-x="435" 
d="M217 284h-95l124 157q-10 -7 -24.5 -11.5t-34.5 -4.5q-60 0 -96.5 38.5t-36.5 102.5q0 32 11.5 59.5t32.5 48t51 32t68 11.5q77 0 120 -42.5t43 -108.5q0 -50 -19.5 -86t-50.5 -76zM139 566q0 -33 20.5 -55t58.5 -22q35 0 56.5 22t21.5 55q0 32 -21 54t-57 22
q-38 0 -58.5 -22t-20.5 -54z" />
    <glyph glyph-name="zero.den" unicode="&#xe402;" horiz-adv-x="455" 
d="M228 434q74 0 116.5 -42.5t42.5 -117.5v-122q0 -77 -43 -118.5t-116 -41.5t-116.5 41.5t-43.5 118.5v122q0 75 43 117.5t117 42.5zM228 69q38 0 56.5 23.5t18.5 60.5v120q0 37 -18.5 60.5t-56.5 23.5t-56.5 -23.5t-18.5 -60.5v-120q0 -37 18.5 -60.5t56.5 -23.5z" />
    <glyph glyph-name="one.den" unicode="&#xe403;" horiz-adv-x="316" 
d="M233 0h-85v332l-105 -59v79l126 76h64v-428z" />
    <glyph glyph-name="two.den" unicode="&#xe404;" horiz-adv-x="419" 
d="M380 0h-322v55l151 143q29 28 44 49.5t15 48.5t-17 44t-48 17t-48.5 -19t-17.5 -50v-23h-81v24q0 31 10 57.5t28.5 45.5t46 30t62.5 11q72 0 111 -37t39 -97q0 -25 -6.5 -45.5t-18.5 -38.5t-29 -35.5t-38 -36.5l-74 -68h193v-75z" />
    <glyph glyph-name="three.den" unicode="&#xe405;" horiz-adv-x="428" 
d="M372 120q0 -57 -42.5 -92t-118.5 -35q-42 0 -71.5 12t-49 30.5t-29.5 41t-12 44.5h85q4 -18 21.5 -35.5t55.5 -17.5q35 0 55 15.5t20 42.5t-17 41.5t-48 14.5h-79v74h76q55 0 55 50q0 26 -18 40t-47 14q-33 0 -48 -16.5t-18 -33.5h-84q1 22 10 44t27.5 39.5t46.5 28.5
t66 11q72 0 111 -32.5t39 -87.5q0 -37 -18.5 -58.5t-37.5 -29.5q12 -4 24 -11.5t22.5 -20.5t17 -31t6.5 -42z" />
    <glyph glyph-name="four.den" unicode="&#xe406;" horiz-adv-x="460" 
d="M337 112v-112h-81v112h-214v60l193 254h102v-244h84v-70h-84zM256 182v170l-127 -170h127z" />
    <glyph glyph-name="five.den" unicode="&#xe407;" horiz-adv-x="435" 
d="M77 426h284v-71h-204v-97q11 12 32 21.5t51 9.5q28 0 53 -9.5t44 -28t29.5 -45t10.5 -60.5v-4q0 -65 -42.5 -107t-117.5 -42q-41 0 -71 12t-49.5 30.5t-29 42.5t-10.5 48h84q1 -8 6 -18t14 -19t22.5 -15t33.5 -6q34 0 54.5 21t20.5 53v3q0 33 -20.5 53t-54.5 20
q-33 0 -47.5 -13.5t-18.5 -20.5h-74v242z" />
    <glyph glyph-name="six.den" unicode="&#xe408;" horiz-adv-x="435" 
d="M381 144q0 -32 -11.5 -60t-32.5 -48t-51 -31.5t-68 -11.5q-77 0 -120 42.5t-43 108.5q0 49 19.5 85.5t50.5 76.5l93 120h95l-122 -156q10 7 23.5 11t33.5 4q60 0 96.5 -38.5t36.5 -102.5zM296 144q0 33 -20 55t-58 22q-35 0 -56.5 -22t-21.5 -55q0 -32 20.5 -54t57.5 -22
q38 0 58 22t20 54z" />
    <glyph glyph-name="seven.den" unicode="&#xe409;" horiz-adv-x="411" 
d="M168 0h-94l191 351h-215v75h315v-57z" />
    <glyph glyph-name="eight.den" unicode="&#xe40a;" horiz-adv-x="442" 
d="M383 115q0 -55 -40.5 -88.5t-113.5 -33.5h-18q-72 0 -112 33.5t-40 88.5q0 23 7 41t17.5 30.5t23 20.5t24.5 12q-11 4 -22 11t-21 19t-16 28t-6 38q0 53 37.5 85.5t108.5 32.5h17q72 0 109.5 -32.5t37.5 -85.5q0 -22 -6 -38t-16 -28t-21.5 -19t-21.5 -11q12 -4 24.5 -12
t23 -20.5t17.5 -30.5t7 -41zM215 365q-29 0 -47 -15t-18 -42q0 -26 18 -41.5t47 -15.5h12q29 0 46.5 15.5t17.5 41.5q0 27 -17.5 42t-46.5 15h-12zM214 184q-30 0 -49.5 -16t-19.5 -45t19.5 -45.5t49.5 -16.5h14q31 0 50 16.5t19 45.5t-19 45t-50 16h-14z" />
    <glyph glyph-name="nine.den" unicode="&#xe40b;" horiz-adv-x="435" 
d="M217 0h-95l124 157q-10 -7 -24.5 -11.5t-34.5 -4.5q-60 0 -96.5 38.5t-36.5 102.5q0 32 11.5 59.5t32.5 48t51 32t68 11.5q77 0 120 -42.5t43 -108.5q0 -50 -19.5 -86t-50.5 -76zM139 282q0 -33 20.5 -55t58.5 -22q35 0 56.5 22t21.5 55q0 32 -21 54t-57 22
q-38 0 -58.5 -22t-20.5 -54z" />
    <glyph glyph-name="zero.sub" unicode="&#x2080;" horiz-adv-x="520" 
d="M260 379q83 0 131.5 -48.5t48.5 -134.5v-146q0 -89 -49 -136t-131 -47t-131 47t-49 136v146q0 86 48.5 134.5t131.5 48.5zM260 -55q48 0 71.5 30t23.5 77v142q0 47 -23.5 77t-71.5 30t-71 -30t-23 -77v-142q0 -47 23 -77t71 -30z" />
    <glyph glyph-name="one.sub" unicode="&#x2081;" horiz-adv-x="355" 
d="M257 -124h-86v398l-122 -70v81l144 87h64v-496z" />
    <glyph glyph-name="two.sub" unicode="&#x2082;" horiz-adv-x="476" 
d="M433 -124h-367v55l173 166q37 35 56 63t19 64q0 35 -21.5 56t-61.5 21q-39 0 -61 -24t-22 -63v-28h-83v29q0 36 11.5 65.5t33 51.5t52.5 34t70 12q81 0 125 -42.5t44 -109.5q0 -29 -7.5 -53.5t-22 -46t-34.5 -42.5t-44 -43l-94 -88h234v-77z" />
    <glyph glyph-name="three.sub" unicode="&#x2083;" horiz-adv-x="487" 
d="M421 13q0 -65 -47.5 -105t-132.5 -40q-47 0 -80.5 13t-55.5 34t-33.5 46.5t-13.5 50.5h87q2 -12 9 -24t18.5 -21.5t28.5 -16t40 -6.5q43 0 68 20t25 55q0 36 -22 54.5t-63 18.5h-88v76h86q35 0 54 17t19 49t-23 50.5t-59 18.5q-40 0 -59 -20t-24 -45h-85q1 25 11.5 50
t31 45t52 32.5t73.5 12.5q80 0 124 -37.5t44 -100.5q0 -22 -6.5 -39t-16.5 -30t-22 -21.5t-22 -12.5q13 -4 27.5 -13t26.5 -24t20 -36.5t8 -50.5z" />
    <glyph glyph-name="four.sub" unicode="&#x2084;" horiz-adv-x="523" 
d="M378 17v-141h-84v141h-246v60l227 293h103v-280h101v-73h-101zM294 90v199l-153 -199h153z" />
    <glyph glyph-name="five.sub" unicode="&#x2085;" horiz-adv-x="496" 
d="M91 370h319v-74h-237v-125q14 14 38.5 25t59.5 11q32 0 61 -11t50.5 -32t34 -51.5t12.5 -69.5v-6q0 -37 -12.5 -68t-36 -53.5t-57 -35t-75.5 -12.5q-46 0 -79.5 13t-55.5 34t-33 48t-12 56h85q1 -11 7 -24t17 -24t28.5 -18.5t42.5 -7.5q43 0 69 25.5t26 66.5v5
q0 42 -26 67t-69 25q-21 0 -35.5 -5t-24 -12t-15 -14.5t-8.5 -11.5h-74v279z" />
    <glyph glyph-name="six.sub" unicode="&#x2086;" horiz-adv-x="497" 
d="M433 40q0 -37 -12.5 -68.5t-36.5 -54.5t-58.5 -36t-77.5 -13t-77 13t-58 35.5t-36.5 54t-12.5 69.5q0 57 23 99.5t58 86.5l111 144h98l-143 -182q13 8 29 12.5t38 4.5q34 0 62.5 -11.5t49 -33.5t32 -52.5t11.5 -67.5zM347 40q0 42 -25.5 69.5t-73.5 27.5
q-45 0 -71.5 -27.5t-26.5 -69.5q0 -40 26 -68t72 -28q48 0 73.5 28t25.5 68z" />
    <glyph glyph-name="seven.sub" unicode="&#x2087;" horiz-adv-x="470" 
d="M182 -124h-95l229 417h-257v77h358v-60z" />
    <glyph glyph-name="eight.sub" unicode="&#x2088;" horiz-adv-x="505" 
d="M436 10q0 -64 -46.5 -103t-128.5 -39h-20q-81 0 -126.5 39t-45.5 103q0 27 8.5 48t21 35.5t28 23.5t29.5 13q-13 4 -26.5 12.5t-25 22t-19 32.5t-7.5 45q0 60 42.5 98t122.5 38h19q81 0 123 -38t42 -98q0 -26 -7.5 -45t-19 -32.5t-25 -22t-26.5 -12.5q14 -4 29.5 -13
t28 -23.5t21 -35.5t8.5 -48zM244 307q-36 0 -58 -19t-22 -52q0 -34 22 -52.5t58 -18.5h17q36 0 58 18.5t22 52.5q0 33 -22 52t-58 19h-17zM243 94q-38 0 -62.5 -21t-24.5 -57t24.5 -56.5t62.5 -20.5h19q38 0 62.5 20.5t24.5 56.5q0 37 -24.5 57.5t-62.5 20.5h-19z" />
    <glyph glyph-name="nine.sub" unicode="&#x2089;" horiz-adv-x="497" 
d="M241 -124h-99l143 181q-12 -7 -28 -11.5t-38 -4.5q-35 0 -63.5 11.5t-49 33.5t-32 52t-11.5 68q0 37 12.5 68.5t36.5 54.5t58.5 36t77.5 13t77.5 -13t58 -35.5t36 -54.5t12.5 -69q0 -57 -23 -99.5t-58 -86.5zM149 206q0 -42 25.5 -69.5t73.5 -27.5q45 0 71.5 27.5
t26.5 69.5q0 40 -25.5 68t-72.5 28q-48 0 -73.5 -28t-25.5 -68z" />
    <glyph glyph-name="zero.sup" unicode="&#x2070;" horiz-adv-x="520" 
d="M260 745q83 0 131.5 -48.5t48.5 -134.5v-146q0 -89 -49 -136t-131 -47t-131 47t-49 136v146q0 86 48.5 134.5t131.5 48.5zM260 311q48 0 71.5 30t23.5 77v142q0 47 -23.5 77t-71.5 30t-71 -30t-23 -77v-142q0 -47 23 -77t71 -30z" />
    <glyph glyph-name="one.sup" unicode="&#xb9;" horiz-adv-x="355" 
d="M257 242h-86v398l-122 -70v81l144 87h64v-496z" />
    <glyph glyph-name="two.sup" unicode="&#xb2;" horiz-adv-x="476" 
d="M433 242h-367v55l173 166q37 35 56 63t19 64q0 35 -21.5 56t-61.5 21q-39 0 -61 -24t-22 -63v-28h-83v29q0 36 11.5 65.5t33 51.5t52.5 34t70 12q81 0 125 -42.5t44 -109.5q0 -29 -7.5 -53.5t-22 -46t-34.5 -42.5t-44 -43l-94 -88h234v-77z" />
    <glyph glyph-name="three.sup" unicode="&#xb3;" horiz-adv-x="487" 
d="M421 379q0 -65 -47.5 -105t-132.5 -40q-47 0 -80.5 13t-55.5 34t-33.5 46.5t-13.5 50.5h87q2 -12 9 -24t18.5 -21.5t28.5 -16t40 -6.5q43 0 68 20t25 55q0 36 -22 54.5t-63 18.5h-88v76h86q35 0 54 17t19 49t-23 50.5t-59 18.5q-40 0 -59 -20t-24 -45h-85q1 25 11.5 50
t31 45t52 32.5t73.5 12.5q80 0 124 -37.5t44 -100.5q0 -22 -6.5 -39t-16.5 -30t-22 -21.5t-22 -12.5q13 -4 27.5 -13t26.5 -24t20 -36.5t8 -50.5z" />
    <glyph glyph-name="four.sup" unicode="&#x2074;" horiz-adv-x="523" 
d="M378 383v-141h-84v141h-246v60l227 293h103v-280h101v-73h-101zM294 456v199l-153 -199h153z" />
    <glyph glyph-name="five.sup" unicode="&#x2075;" horiz-adv-x="496" 
d="M91 736h319v-74h-237v-125q14 14 38.5 25t59.5 11q32 0 61 -11t50.5 -32t34 -51.5t12.5 -69.5v-6q0 -37 -12.5 -68t-36 -53.5t-57 -35t-75.5 -12.5q-46 0 -79.5 13t-55.5 34t-33 48t-12 56h85q1 -11 7 -24t17 -24t28.5 -18.5t42.5 -7.5q43 0 69 25.5t26 66.5v5
q0 42 -26 67t-69 25q-21 0 -35.5 -5t-24 -12t-15 -14.5t-8.5 -11.5h-74v279z" />
    <glyph glyph-name="six.sup" unicode="&#x2076;" horiz-adv-x="497" 
d="M433 406q0 -37 -12.5 -68.5t-36.5 -54.5t-58.5 -36t-77.5 -13t-77 13t-58 35.5t-36.5 54t-12.5 69.5q0 57 23 99.5t58 86.5l111 144h98l-143 -182q13 8 29 12.5t38 4.5q34 0 62.5 -11.5t49 -33.5t32 -52.5t11.5 -67.5zM347 406q0 42 -25.5 69.5t-73.5 27.5
q-45 0 -71.5 -27.5t-26.5 -69.5q0 -40 26 -68t72 -28q48 0 73.5 28t25.5 68z" />
    <glyph glyph-name="seven.sup" unicode="&#x2077;" horiz-adv-x="470" 
d="M182 242h-95l229 417h-257v77h358v-60z" />
    <glyph glyph-name="eight.sup" unicode="&#x2078;" horiz-adv-x="505" 
d="M436 376q0 -64 -46.5 -103t-128.5 -39h-20q-81 0 -126.5 39t-45.5 103q0 27 8.5 48t21 35.5t28 23.5t29.5 13q-13 4 -26.5 12.5t-25 22t-19 32.5t-7.5 45q0 60 42.5 98t122.5 38h19q81 0 123 -38t42 -98q0 -26 -7.5 -45t-19 -32.5t-25 -22t-26.5 -12.5q14 -4 29.5 -13
t28 -23.5t21 -35.5t8.5 -48zM244 673q-36 0 -58 -19t-22 -52q0 -34 22 -52.5t58 -18.5h17q36 0 58 18.5t22 52.5q0 33 -22 52t-58 19h-17zM243 460q-38 0 -62.5 -21t-24.5 -57t24.5 -56.5t62.5 -20.5h19q38 0 62.5 20.5t24.5 56.5q0 37 -24.5 57.5t-62.5 20.5h-19z" />
    <glyph glyph-name="nine.sup" unicode="&#x2079;" horiz-adv-x="497" 
d="M241 242h-99l143 181q-12 -7 -28 -11.5t-38 -4.5q-35 0 -63.5 11.5t-49 33.5t-32 52t-11.5 68q0 37 12.5 68.5t36.5 54.5t58.5 36t77.5 13t77.5 -13t58 -35.5t36 -54.5t12.5 -69q0 -57 -23 -99.5t-58 -86.5zM149 572q0 -42 25.5 -69.5t73.5 -27.5q45 0 71.5 27.5
t26.5 69.5q0 40 -25.5 68t-72.5 28q-48 0 -73.5 -28t-25.5 -68z" />
    <glyph glyph-name="a.alt" 
d="M57 156q0 75 53 114.5t146 39.5h169q0 57 -39 87t-100 30q-31 0 -52.5 -7.5t-36 -17.5t-23 -20.5t-11.5 -16.5h-92q5 22 20 47t41.5 46t64.5 35t89 14q54 0 96 -14.5t71 -40.5t44 -62t15 -79v-183q0 -26 10 -37.5t34 -13.5v-82q-107 3 -127 77q-9 -14 -23.5 -28.5
t-34.5 -26.5t-46.5 -20t-59.5 -8q-44 0 -82 11.5t-66 33.5t-44 53t-16 69zM273 65q30 0 57.5 7.5t48.5 22.5t33.5 38t12.5 54v51h-165q-51 0 -81.5 -20.5t-30.5 -61.5q0 -43 36 -67t89 -24z" />
    <glyph glyph-name="u.alt" horiz-adv-x="645" 
d="M460 91q-7 -15 -21 -33t-34.5 -33t-48 -25.5t-61.5 -10.5q-46 0 -84 16.5t-65.5 46t-42.5 70t-15 88.5v284h92v-267q0 -70 37 -112t100 -42q65 0 104 43t39 111v267h91v-494h-91v91z" />
    <glyph glyph-name="aacute.alt" 
d="M57 156q0 75 53 114.5t146 39.5h169q0 57 -39 87t-100 30q-31 0 -52.5 -7.5t-36 -17.5t-23 -20.5t-11.5 -16.5h-92q5 22 20 47t41.5 46t64.5 35t89 14q54 0 96 -14.5t71 -40.5t44 -62t15 -79v-183q0 -26 10 -37.5t34 -13.5v-82q-107 3 -127 77q-9 -14 -23.5 -28.5
t-34.5 -26.5t-46.5 -20t-59.5 -8q-44 0 -82 11.5t-66 33.5t-44 53t-16 69zM273 65q30 0 57.5 7.5t48.5 22.5t33.5 38t12.5 54v51h-165q-51 0 -81.5 -20.5t-30.5 -61.5q0 -43 36 -67t89 -24zM338 762h100l-115 -183h-93z" />
    <glyph glyph-name="abreve.alt" 
d="M57 156q0 75 53 114.5t146 39.5h169q0 57 -39 87t-100 30q-31 0 -52.5 -7.5t-36 -17.5t-23 -20.5t-11.5 -16.5h-92q5 22 20 47t41.5 46t64.5 35t89 14q54 0 96 -14.5t71 -40.5t44 -62t15 -79v-183q0 -26 10 -37.5t34 -13.5v-82q-107 3 -127 77q-9 -14 -23.5 -28.5
t-34.5 -26.5t-46.5 -20t-59.5 -8q-44 0 -82 11.5t-66 33.5t-44 53t-16 69zM273 65q30 0 57.5 7.5t48.5 22.5t33.5 38t12.5 54v51h-165q-51 0 -81.5 -20.5t-30.5 -61.5q0 -43 36 -67t89 -24zM286 645q33 0 48 22t15 50v17h76v-19q0 -60 -34.5 -101t-104.5 -41t-104.5 41
t-34.5 101v19h76v-17q0 -27 15 -49.5t48 -22.5z" />
    <glyph glyph-name="acircumflex.alt" 
d="M57 156q0 75 53 114.5t146 39.5h169q0 57 -39 87t-100 30q-31 0 -52.5 -7.5t-36 -17.5t-23 -20.5t-11.5 -16.5h-92q5 22 20 47t41.5 46t64.5 35t89 14q54 0 96 -14.5t71 -40.5t44 -62t15 -79v-183q0 -26 10 -37.5t34 -13.5v-82q-107 3 -127 77q-9 -14 -23.5 -28.5
t-34.5 -26.5t-46.5 -20t-59.5 -8q-44 0 -82 11.5t-66 33.5t-44 53t-16 69zM273 65q30 0 57.5 7.5t48.5 22.5t33.5 38t12.5 54v51h-165q-51 0 -81.5 -20.5t-30.5 -61.5q0 -43 36 -67t89 -24zM286 690l-74 -114h-90l126 193h76l123 -193h-87z" />
    <glyph glyph-name="adieresis.alt" 
d="M57 156q0 75 53 114.5t146 39.5h169q0 57 -39 87t-100 30q-31 0 -52.5 -7.5t-36 -17.5t-23 -20.5t-11.5 -16.5h-92q5 22 20 47t41.5 46t64.5 35t89 14q54 0 96 -14.5t71 -40.5t44 -62t15 -79v-183q0 -26 10 -37.5t34 -13.5v-82q-107 3 -127 77q-9 -14 -23.5 -28.5
t-34.5 -26.5t-46.5 -20t-59.5 -8q-44 0 -82 11.5t-66 33.5t-44 53t-16 69zM273 65q30 0 57.5 7.5t48.5 22.5t33.5 38t12.5 54v51h-165q-51 0 -81.5 -20.5t-30.5 -61.5q0 -43 36 -67t89 -24zM146 728h92v-139h-92v139zM334 728h92v-139h-92v139z" />
    <glyph glyph-name="agrave.alt" 
d="M57 156q0 75 53 114.5t146 39.5h169q0 57 -39 87t-100 30q-31 0 -52.5 -7.5t-36 -17.5t-23 -20.5t-11.5 -16.5h-92q5 22 20 47t41.5 46t64.5 35t89 14q54 0 96 -14.5t71 -40.5t44 -62t15 -79v-183q0 -26 10 -37.5t34 -13.5v-82q-107 3 -127 77q-9 -14 -23.5 -28.5
t-34.5 -26.5t-46.5 -20t-59.5 -8q-44 0 -82 11.5t-66 33.5t-44 53t-16 69zM273 65q30 0 57.5 7.5t48.5 22.5t33.5 38t12.5 54v51h-165q-51 0 -81.5 -20.5t-30.5 -61.5q0 -43 36 -67t89 -24zM238 579l-115 183h100l108 -183h-93z" />
    <glyph glyph-name="amacron.alt" 
d="M57 156q0 75 53 114.5t146 39.5h169q0 57 -39 87t-100 30q-31 0 -52.5 -7.5t-36 -17.5t-23 -20.5t-11.5 -16.5h-92q5 22 20 47t41.5 46t64.5 35t89 14q54 0 96 -14.5t71 -40.5t44 -62t15 -79v-183q0 -26 10 -37.5t34 -13.5v-82q-107 3 -127 77q-9 -14 -23.5 -28.5
t-34.5 -26.5t-46.5 -20t-59.5 -8q-44 0 -82 11.5t-66 33.5t-44 53t-16 69zM273 65q30 0 57.5 7.5t48.5 22.5t33.5 38t12.5 54v51h-165q-51 0 -81.5 -20.5t-30.5 -61.5q0 -43 36 -67t89 -24zM133 621v78h306v-78h-306z" />
    <glyph glyph-name="aogonek.alt" horiz-adv-x="599" 
d="M56 156q0 75 53 114.5t146 39.5h169q0 57 -39 87t-100 30q-31 0 -52.5 -7.5t-36 -17.5t-23 -20.5t-11.5 -16.5h-92q5 22 20 47t41.5 46t64.5 35t89 14q54 0 96 -14.5t71 -40.5t44 -62t15 -79v-183q0 -26 10 -37.5t34 -13.5v-77q-48 -39 -74.5 -64t-26.5 -48q0 -30 37 -30
h86v-82h-89q-60 0 -94.5 23t-34.5 70q0 24 12.5 45t31 38.5t39.5 31.5l39 26q-41 18 -53 62q-9 -14 -23.5 -28.5t-34.5 -26.5t-46.5 -20t-59.5 -8q-44 0 -82 11.5t-66 33.5t-44 53t-16 69zM272 65q30 0 57.5 7.5t48.5 22.5t33.5 38t12.5 54v51h-165q-51 0 -81.5 -20.5
t-30.5 -61.5q0 -43 36 -67t89 -24z" />
    <glyph glyph-name="aring.alt" 
d="M57 156q0 75 53 114.5t146 39.5h169q0 57 -39 87t-100 30q-31 0 -52.5 -7.5t-36 -17.5t-23 -20.5t-11.5 -16.5h-92q5 22 20 47t41.5 46t64.5 35t89 14q54 0 96 -14.5t71 -40.5t44 -62t15 -79v-183q0 -26 10 -37.5t34 -13.5v-82q-107 3 -127 77q-9 -14 -23.5 -28.5
t-34.5 -26.5t-46.5 -20t-59.5 -8q-44 0 -82 11.5t-66 33.5t-44 53t-16 69zM273 65q30 0 57.5 7.5t48.5 22.5t33.5 38t12.5 54v51h-165q-51 0 -81.5 -20.5t-30.5 -61.5q0 -43 36 -67t89 -24zM286 567q-28 0 -52 10t-41.5 27t-27.5 40.5t-10 49.5q0 27 10 50t27.5 40t41.5 27
t52 10t52 -10t41.5 -27t27.5 -40t10 -50q0 -26 -10 -49.5t-27.5 -40.5t-41.5 -27t-52 -10zM286 629q29 0 46.5 19t17.5 46q0 28 -17.5 46.5t-46.5 18.5t-46.5 -18.5t-17.5 -46.5q0 -27 17.5 -46t46.5 -19z" />
    <glyph glyph-name="aringacute.alt" 
d="M57 156q0 75 53 114.5t146 39.5h169q0 57 -39 87t-100 30q-31 0 -52.5 -7.5t-36 -17.5t-23 -20.5t-11.5 -16.5h-92q5 22 20 47t41.5 46t64.5 35t89 14q54 0 96 -14.5t71 -40.5t44 -62t15 -79v-183q0 -26 10 -37.5t34 -13.5v-82q-107 3 -127 77q-9 -14 -23.5 -28.5
t-34.5 -26.5t-46.5 -20t-59.5 -8q-44 0 -82 11.5t-66 33.5t-44 53t-16 69zM273 65q30 0 57.5 7.5t48.5 22.5t33.5 38t12.5 54v51h-165q-51 0 -81.5 -20.5t-30.5 -61.5q0 -43 36 -67t89 -24zM340 1010h98l-104 -150h-91zM286 567q-28 0 -52 10t-41.5 27t-27.5 40.5t-10 49.5
q0 27 10 50t27.5 40t41.5 27t52 10t52 -10t41.5 -27t27.5 -40t10 -50q0 -26 -10 -49.5t-27.5 -40.5t-41.5 -27t-52 -10zM286 629q29 0 46.5 19t17.5 46q0 28 -17.5 46.5t-46.5 18.5t-46.5 -18.5t-17.5 -46.5q0 -27 17.5 -46t46.5 -19z" />
    <glyph glyph-name="atilde.alt" 
d="M57 156q0 75 53 114.5t146 39.5h169q0 57 -39 87t-100 30q-31 0 -52.5 -7.5t-36 -17.5t-23 -20.5t-11.5 -16.5h-92q5 22 20 47t41.5 46t64.5 35t89 14q54 0 96 -14.5t71 -40.5t44 -62t15 -79v-183q0 -26 10 -37.5t34 -13.5v-82q-107 3 -127 77q-9 -14 -23.5 -28.5
t-34.5 -26.5t-46.5 -20t-59.5 -8q-44 0 -82 11.5t-66 33.5t-44 53t-16 69zM273 65q30 0 57.5 7.5t48.5 22.5t33.5 38t12.5 54v51h-165q-51 0 -81.5 -20.5t-30.5 -61.5q0 -43 36 -67t89 -24zM125 575v76q0 43 19 68.5t60 25.5q29 0 48.5 -11.5t42.5 -31.5l29 -24
q10 -8 18 -13t16 -5q17 0 17 23v67h72v-76q0 -43 -19 -68.5t-60 -25.5q-29 0 -48.5 11.5t-42.5 31.5l-29 24q-10 8 -18 13t-16 5q-17 0 -17 -23v-67h-72z" />
    <glyph glyph-name="uacute.alt" horiz-adv-x="645" 
d="M460 91q-7 -15 -21 -33t-34.5 -33t-48 -25.5t-61.5 -10.5q-46 0 -84 16.5t-65.5 46t-42.5 70t-15 88.5v284h92v-267q0 -70 37 -112t100 -42q65 0 104 43t39 111v267h91v-494h-91v91zM368 762h100l-115 -183h-93z" />
    <glyph glyph-name="ubreve.alt" horiz-adv-x="645" 
d="M460 91q-7 -15 -21 -33t-34.5 -33t-48 -25.5t-61.5 -10.5q-46 0 -84 16.5t-65.5 46t-42.5 70t-15 88.5v284h92v-267q0 -70 37 -112t100 -42q65 0 104 43t39 111v267h91v-494h-91v91zM316 645q33 0 48 22t15 50v17h76v-19q0 -60 -34.5 -101t-104.5 -41t-104.5 41
t-34.5 101v19h76v-17q0 -27 15 -49.5t48 -22.5z" />
    <glyph glyph-name="ucircumflex.alt" horiz-adv-x="645" 
d="M460 91q-7 -15 -21 -33t-34.5 -33t-48 -25.5t-61.5 -10.5q-46 0 -84 16.5t-65.5 46t-42.5 70t-15 88.5v284h92v-267q0 -70 37 -112t100 -42q65 0 104 43t39 111v267h91v-494h-91v91zM316 690l-74 -114h-90l126 193h76l123 -193h-87z" />
    <glyph glyph-name="udieresis.alt" horiz-adv-x="645" 
d="M460 91q-7 -15 -21 -33t-34.5 -33t-48 -25.5t-61.5 -10.5q-46 0 -84 16.5t-65.5 46t-42.5 70t-15 88.5v284h92v-267q0 -70 37 -112t100 -42q65 0 104 43t39 111v267h91v-494h-91v91zM176 728h92v-139h-92v139zM364 728h92v-139h-92v139z" />
    <glyph glyph-name="ugrave.alt" horiz-adv-x="645" 
d="M460 91q-7 -15 -21 -33t-34.5 -33t-48 -25.5t-61.5 -10.5q-46 0 -84 16.5t-65.5 46t-42.5 70t-15 88.5v284h92v-267q0 -70 37 -112t100 -42q65 0 104 43t39 111v267h91v-494h-91v91zM268 579l-115 183h100l108 -183h-93z" />
    <glyph glyph-name="uhungarumlaut.alt" horiz-adv-x="645" 
d="M460 91q-7 -15 -21 -33t-34.5 -33t-48 -25.5t-61.5 -10.5q-46 0 -84 16.5t-65.5 46t-42.5 70t-15 88.5v284h92v-267q0 -70 37 -112t100 -42q65 0 104 43t39 111v267h91v-494h-91v91zM444 762h88l-91 -183h-81zM269 762h88l-91 -183h-81z" />
    <glyph glyph-name="umacron.alt" horiz-adv-x="645" 
d="M460 91q-7 -15 -21 -33t-34.5 -33t-48 -25.5t-61.5 -10.5q-46 0 -84 16.5t-65.5 46t-42.5 70t-15 88.5v284h92v-267q0 -70 37 -112t100 -42q65 0 104 43t39 111v267h91v-494h-91v91zM163 621v78h306v-78h-306z" />
    <glyph glyph-name="uogonek.alt" horiz-adv-x="645" 
d="M460 91q-7 -15 -21 -33t-34.5 -33t-48 -25.5t-61.5 -10.5q-46 0 -84 16.5t-65.5 46t-42.5 70t-15 88.5v284h92v-267q0 -70 37 -112t100 -42q65 0 104 43t39 111v267h91v-494q-48 -39 -74.5 -64t-26.5 -48q0 -30 37 -30h86v-82h-89q-60 0 -94.5 23t-34.5 70q0 21 8.5 38.5
t22.5 33t33.5 30t40.5 29.5v91z" />
    <glyph glyph-name="uring.alt" horiz-adv-x="645" 
d="M460 91q-7 -15 -21 -33t-34.5 -33t-48 -25.5t-61.5 -10.5q-46 0 -84 16.5t-65.5 46t-42.5 70t-15 88.5v284h92v-267q0 -70 37 -112t100 -42q65 0 104 43t39 111v267h91v-494h-91v91zM316 567q-28 0 -52 10t-41.5 27t-27.5 40.5t-10 49.5q0 27 10 50t27.5 40t41.5 27
t52 10t52 -10t41.5 -27t27.5 -40t10 -50q0 -26 -10 -49.5t-27.5 -40.5t-41.5 -27t-52 -10zM316 629q29 0 46.5 19t17.5 46q0 28 -17.5 46.5t-46.5 18.5t-46.5 -18.5t-17.5 -46.5q0 -27 17.5 -46t46.5 -19z" />
    <glyph glyph-name="utilde.alt" horiz-adv-x="645" 
d="M460 91q-7 -15 -21 -33t-34.5 -33t-48 -25.5t-61.5 -10.5q-46 0 -84 16.5t-65.5 46t-42.5 70t-15 88.5v284h92v-267q0 -70 37 -112t100 -42q65 0 104 43t39 111v267h91v-494h-91v91zM155 575v76q0 43 19 68.5t60 25.5q29 0 48.5 -11.5t42.5 -31.5l29 -24q10 -8 18 -13
t16 -5q17 0 17 23v67h72v-76q0 -43 -19 -68.5t-60 -25.5q-29 0 -48.5 11.5t-42.5 31.5l-29 24q-10 8 -18 13t-16 5q-17 0 -17 -23v-67h-72z" />
    <glyph glyph-name="space_uni0326.alt" horiz-adv-x="500" 
d="M289 819q-16 -29 -25.5 -62t-9.5 -53h52v-115h-112v98q0 45 8.5 76.5t19.5 55.5h67z" />
    <glyph glyph-name="four.alt" horiz-adv-x="710" 
d="M510 230v-230h-97v230h-308v480h96v-393h212v298h97v-298h164v-87h-164z" />
    <glyph glyph-name="onequarter.alt" horiz-adv-x="1021" 
d="M233 284h-85v332l-105 -59v79l126 76h64v-428zM162 0l433 710h92l-433 -710h-92zM898 122v-122h-84v122h-201v304h84v-231h117v174h84v-174h84v-73h-84z" />
    <glyph glyph-name="threequarters.alt" horiz-adv-x="1118" 
d="M372 404q0 -57 -42.5 -92t-118.5 -35q-42 0 -71.5 12t-49 30.5t-29.5 41t-12 44.5h85q4 -18 21.5 -35.5t55.5 -17.5q35 0 55 15.5t20 42.5t-17 41.5t-48 14.5h-79v74h76q55 0 55 50q0 26 -18 40t-47 14q-33 0 -48 -16.5t-18 -33.5h-84q1 22 10 44t27.5 39.5t46.5 28.5
t66 11q72 0 111 -32.5t39 -87.5q0 -37 -18.5 -58.5t-37.5 -29.5q12 -4 24 -11.5t22.5 -20.5t17 -31t6.5 -42zM259 0l433 710h92l-433 -710h-92zM995 122v-122h-84v122h-201v304h84v-231h117v174h84v-174h84v-73h-84z" />
    <glyph glyph-name="caron.alt" 
d="M282 772h86l-57 -193h-79z" />
    <glyph glyph-name="questiondown.uc" horiz-adv-x="544" 
d="M379.01 478.014v-7.99902q0 -21.999 -3 -38.498q-2.99902 -16.499 -10.999 -30.998q-7.99902 -14.499 -22.998 -27.498t-38.998 -29.998l-71.9951 -49.9971q-32.998 -22.998 -55.9971 -50.9971q-22.999 -27.998 -22.999 -68.9951q0 -46.998 29.499 -74.9961
q29.498 -27.998 82.4951 -27.998q53.9961 0 83.4941 33.498t29.498 84.4951v31.998h88.9951v-34.998q0 -90.9951 -53.9971 -143.991q-53.9961 -52.9971 -147.99 -52.9971q-96.9941 0 -150.991 49.9971t-53.9971 134.992q0 65.9951 31.998 108.493
q31.998 42.4971 89.9951 81.4951l71.9951 48.9971q19.999 13.999 26.998 28.498q7 14.499 7 37.4971h91.9941zM391.01 568.009h-115.993v141.991h115.993v-141.991z" />
    <glyph glyph-name="exclamdown.uc" horiz-adv-x="336" 
d="M110 710h116v-141h-116v141zM124 478h88v-478h-88v478z" />
    <glyph glyph-name="hyphen.uc" horiz-adv-x="496" 
d="M84 381h328v-86h-328v86z" />
    <glyph glyph-name="endash.uc" horiz-adv-x="704" 
d="M84 376h536v-76h-536v76z" />
    <glyph glyph-name="emdash.uc" horiz-adv-x="1000" 
d="M84 376h832v-76h-832v76z" />
    <glyph glyph-name="quoteleft.uc" horiz-adv-x="292" 
d="M210 710q-25 -47 -43 -97t-18 -105h55v-130h-116v120q0 66 15.5 119.5t35.5 92.5h71z" />
    <glyph glyph-name="quoteright.uc" horiz-adv-x="292" 
d="M82 378q25 47 43 97t18 105h-55v130h116v-120q0 -66 -15.5 -119.5t-35.5 -92.5h-71z" />
    <glyph glyph-name="quotedblleft.uc" horiz-adv-x="495" 
d="M210 710q-25 -47 -43 -97t-18 -105h55v-130h-116v120q0 66 15.5 119.5t35.5 92.5h71zM413 710q-25 -47 -43 -97t-18 -105h55v-130h-116v120q0 66 15.5 119.5t35.5 92.5h71z" />
    <glyph glyph-name="quotedblright.uc" horiz-adv-x="495" 
d="M285 378q25 47 43 97t18 105h-55v130h116v-120q0 -66 -15.5 -119.5t-35.5 -92.5h-71zM82 378q25 47 43 97t18 105h-55v130h116v-120q0 -66 -15.5 -119.5t-35.5 -92.5h-71z" />
    <glyph glyph-name="guilsinglleft.uc" horiz-adv-x="341" 
d="M156 308l115 -179h-93l-113 178l114 178h92z" />
    <glyph glyph-name="guilsinglright.uc" horiz-adv-x="341" 
d="M162 129h-92l115 177l-115 179h93l113 -178z" />
    <glyph glyph-name="guillemotleft.uc" horiz-adv-x="551" 
d="M154 308l111 -179h-91l-109 178l110 178h90zM370 308l111 -179h-91l-109 178l110 178h90z" />
    <glyph glyph-name="guillemotright.uc" horiz-adv-x="551" 
d="M376 129h-90l111 177l-111 179h91l109 -178zM160 129h-90l111 177l-111 179h91l109 -178z" />
    <glyph glyph-name="at.uc" horiz-adv-x="1055" 
d="M948 52q-16 -24 -47.5 -54t-80 -56t-114.5 -43.5t-151 -17.5q-116 0 -206.5 35.5t-152.5 97.5t-94.5 146t-32.5 180q0 101 35.5 187t99.5 148.5t151.5 97.5t192.5 35q108 0 190 -32t137 -85.5t83 -123.5t28 -146q0 -63 -16.5 -117.5t-46 -94t-70 -62t-89.5 -22.5
q-55 0 -83.5 21t-36.5 50q-17 -26 -53 -48.5t-92 -22.5q-44 0 -81 14t-64 41t-42 66t-15 89q0 47 15.5 89t44.5 73t70.5 49t92.5 18q32 0 57 -7.5t43.5 -19.5t30.5 -26.5t18 -27.5l14 76h84l-51 -288q-6 -35 5 -54.5t45 -19.5q25 0 49.5 14t44.5 41.5t32.5 70t12.5 99.5
q0 68 -24 125.5t-69.5 99.5t-112 65.5t-151.5 23.5q-86 0 -158.5 -28.5t-125.5 -80.5t-83 -125.5t-30 -163.5q0 -85 28.5 -155.5t81 -121.5t127.5 -79t167 -28q63 0 111.5 11t85 26t61.5 32t39 29h96zM527 482q-32 0 -57.5 -11.5t-43.5 -31.5t-27.5 -47t-9.5 -59
q0 -57 30.5 -91.5t89.5 -34.5q31 0 56.5 11.5t43.5 31.5t28 47t10 59q0 57 -30 91.5t-90 34.5z" />
    <glyph glyph-name="grave.uc" 
d="M309 778l-120 150h110l112 -150h-102z" />
    <glyph glyph-name="dieresis.uc" 
d="M152 917h92v-139h-92v139zM356 917h92v-139h-92v139z" />
    <glyph glyph-name="macron.uc" horiz-adv-x="500" 
d="M85 813v78h330v-78h-330z" />
    <glyph glyph-name="acute.uc" 
d="M301 928h110l-120 -150h-102z" />
    <glyph glyph-name="circumflex.uc" 
d="M261 864l-81 -89h-98l139 156h78l136 -156h-94z" />
    <glyph glyph-name="caron.uc" 
d="M296 775h-78l-136 156h94l81 -89l80 89h98z" />
    <glyph glyph-name="breve.uc" 
d="M300 843q35 0 52 23t17 52v13h76v-15q0 -31 -9.5 -57.5t-27.5 -46t-45 -30.5t-63 -11t-63 11t-45 30.5t-27.5 46t-9.5 57.5v15h76v-13q0 -29 17 -52t52 -23z" />
    <glyph glyph-name="dotaccent.uc" 
d="M253 921h94v-143h-94v143z" />
    <glyph glyph-name="ring.uc" 
d="M300 768q-28 0 -52 10t-41.5 27t-27.5 40.5t-10 49.5q0 27 10 50t27.5 40t41.5 27t52 10t52 -10t41.5 -27t27.5 -40t10 -50q0 -26 -10 -49.5t-27.5 -40.5t-41.5 -27t-52 -10zM300 830q29 0 46.5 19t17.5 46q0 28 -17.5 46.5t-46.5 18.5t-46.5 -18.5t-17.5 -46.5
q0 -27 17.5 -46t46.5 -19z" />
    <glyph glyph-name="tilde.uc" 
d="M258 838q-11 6 -20.5 10.5t-17.5 4.5q-17 0 -17 -24v-56h-73v66q0 43 18.5 68.5t58.5 25.5q26 0 48.5 -11.5t48.5 -26.5l38 -22q11 -6 20 -10.5t17 -4.5q18 0 18 24v56h73v-66q0 -43 -19 -68.5t-59 -25.5q-27 0 -48.5 11.5t-47.5 26.5z" />
    <glyph glyph-name="hungarumlaut.uc" 
d="M381 928h92l-85 -150h-85zM205 928h92l-85 -150h-85z" />
    <glyph glyph-name="A.sc" horiz-adv-x="672" 
d="M479 124h-292l-56 -124h-92l256 565h82l256 -565h-98zM442 206l-109 239l-108 -239h217z" />
    <glyph glyph-name="B.sc" horiz-adv-x="680" 
d="M113 562h289q92 0 140 -40t48 -112q0 -23 -7.5 -41.5t-19.5 -33t-27.5 -24.5t-31.5 -15q40 -11 69.5 -45.5t29.5 -89.5q0 -74 -49 -117.5t-147 -43.5h-294v562zM205 480v-150h190q100 0 100 75q0 39 -25 57t-75 18h-190zM205 249v-167h195q56 0 82.5 22t26.5 62t-27 61.5
t-82 21.5h-195z" />
    <glyph glyph-name="C.sc" horiz-adv-x="676" 
d="M353 -9q-61 0 -112.5 22t-89 61t-58.5 92t-21 115q0 61 21 114t58.5 92t89 61.5t112.5 22.5q63 0 109.5 -18.5t78 -45.5t49 -58t23.5 -56h-96q-6 13 -19.5 29t-33.5 30t-48 23.5t-63 9.5q-42 0 -76.5 -16.5t-58.5 -44t-37 -64.5t-13 -79t13 -79t37 -64.5t58.5 -44
t76.5 -16.5q39 0 67.5 10t48.5 24.5t32 30.5t18 28h94q-6 -23 -22.5 -54t-47 -58.5t-77.5 -47t-113 -19.5z" />
    <glyph glyph-name="D.sc" horiz-adv-x="708" 
d="M113 562h224q68 0 123 -19.5t94 -55.5t60.5 -88t21.5 -118q0 -65 -21.5 -116.5t-60.5 -88.5t-94 -56.5t-123 -19.5h-224v562zM206 478v-394h131q46 0 84 14t64 39.5t40.5 62t14.5 81.5q0 94 -54.5 145.5t-148.5 51.5h-131z" />
    <glyph glyph-name="E.sc" horiz-adv-x="645" 
d="M113 562h448v-83h-356v-140h213v-84h-213v-171h388v-84h-480v562z" />
    <glyph glyph-name="F.sc" horiz-adv-x="626" 
d="M113 562h467v-84h-374v-142h217v-84h-217v-252h-93v562z" />
    <glyph glyph-name="G.sc" horiz-adv-x="715" 
d="M623 75q-15 -14 -37.5 -29t-53 -27.5t-69.5 -20.5t-87 -8q-69 0 -125 21.5t-95.5 60t-61.5 92t-22 118.5q0 63 21.5 116t59.5 91.5t90.5 60.5t115.5 22q60 0 104 -15t74 -37.5t47 -49t24 -48.5h-97q-7 9 -19 20t-30.5 21t-44 17t-58.5 7q-45 0 -80.5 -15.5t-60 -43.5
t-38 -65.5t-13.5 -80.5q0 -46 15 -84.5t42.5 -66t66 -42.5t86.5 -15q59 0 98 13t59 27v125h-209v81h298v-245v0z" />
    <glyph glyph-name="H.sc" horiz-adv-x="737" 
d="M531 240h-325v-240h-93v562h93v-237h325v237h93v-562h-93v240z" />
    <glyph glyph-name="I.sc" horiz-adv-x="321" 
d="M114 562h93v-562h-93v562z" />
    <glyph glyph-name="J.sc" horiz-adv-x="588" 
d="M478 180q0 -92 -53 -140.5t-142 -48.5q-88 0 -139 48.5t-51 140.5v150h90v-147q0 -48 26 -76.5t74 -28.5q49 0 75 28.5t26 76.5v379h94v-382v0z" />
    <glyph glyph-name="K.sc" horiz-adv-x="672" 
d="M206 259v-259h-93v562h93v-255l305 255h127l-328 -274l342 -288h-131z" />
    <glyph glyph-name="L.sc" horiz-adv-x="607" 
d="M560 0h-447v562h93v-476h354v-86z" />
    <glyph glyph-name="M.sc" horiz-adv-x="863" 
d="M434 131l181 431h135v-562h-89v476l-200 -479h-64l-198 476v-473h-86v562h141z" />
    <glyph glyph-name="N.sc" horiz-adv-x="744" 
d="M631 -3h-70l-359 451v-448h-89v562h110l320 -408v408h88v-565z" />
    <glyph glyph-name="O.sc" horiz-adv-x="729" 
d="M364 -9q-63 0 -116.5 22t-92.5 60.5t-61 91.5t-22 116t22.5 116t61.5 91.5t92.5 60.5t115.5 22q63 0 116.5 -22t92.5 -60.5t61.5 -91.5t22.5 -116q0 -62 -22.5 -115t-61.5 -92t-92.5 -61t-116.5 -22zM364 76q45 0 81.5 16t62.5 44t40 65.5t14 79.5t-14 79.5t-40 65
t-62.5 44t-81.5 16.5q-44 0 -80.5 -16t-62.5 -44t-40 -65.5t-14 -79.5q0 -43 14 -80.5t40 -65t62.5 -43.5t80.5 -16z" />
    <glyph glyph-name="P.sc" horiz-adv-x="671" 
d="M113 562h302q94 0 143.5 -43.5t49.5 -124.5q0 -78 -49.5 -124t-143.5 -46h-209v-224h-93v562zM206 477v-168h207q50 0 74.5 23t24.5 61q0 40 -24 62t-75 22h-207z" />
    <glyph glyph-name="Q.sc" horiz-adv-x="729" 
d="M657 281q0 -45 -12 -86t-34.5 -75t-54 -60.5t-69.5 -42.5l143 -137h-121l-122 113q-6 -1 -11.5 -1h-11.5q-63 0 -116.5 22t-92.5 60.5t-61 91.5t-22 115q0 63 22.5 116t61.5 91.5t92.5 60.5t115.5 22q63 0 116.5 -22t92.5 -60.5t61.5 -91.5t22.5 -116zM364 76
q45 0 81.5 16t62.5 44t40 65.5t14 79.5t-14 79.5t-40 65t-62.5 44t-81.5 16.5q-44 0 -80.5 -16t-62.5 -44t-40 -65.5t-14 -79.5q0 -43 14 -80.5t40 -65t62.5 -43.5t80.5 -16z" />
    <glyph glyph-name="R.sc" horiz-adv-x="688" 
d="M113 562h307q92 0 140.5 -41.5t48.5 -122.5q0 -57 -28.5 -95t-83.5 -54l133 -249h-98l-130 239h-196v-239h-93v562zM206 478v-156h208q100 0 100 76q0 80 -100 80h-208z" />
    <glyph glyph-name="S.sc" horiz-adv-x="639" 
d="M297 490q-63 0 -94.5 -20t-31.5 -54q0 -31 25.5 -49t73.5 -24l104 -11q39 -4 74 -14.5t61 -30.5t41.5 -50.5t15.5 -75.5q0 -36 -14.5 -67t-43.5 -54.5t-73 -36.5t-103 -13q-68 0 -115.5 15.5t-80 40t-51 55.5t-27.5 61h99q6 -15 18.5 -31t33.5 -29.5t51 -22t72 -8.5
q69 0 104.5 24t35.5 61q0 44 -29.5 62t-75.5 23q-29 4 -52 6t-53 5q-40 4 -74 16t-58.5 32t-38.5 48t-14 66q0 36 16 65.5t44.5 50t69 31.5t90.5 11q64 0 110 -14t76 -36.5t46.5 -50t23.5 -54.5h-96q-6 12 -18 25t-31.5 23.5t-46.5 17.5t-64 7z" />
    <glyph glyph-name="T.sc" horiz-adv-x="643" 
d="M47 562h549v-85h-228v-477h-93v477h-228v85z" />
    <glyph glyph-name="U.sc" horiz-adv-x="728" 
d="M365 78q77 0 119 46.5t42 122.5v315h92v-322q0 -52 -16.5 -97.5t-48.5 -79.5t-79 -53.5t-109 -19.5q-65 0 -112.5 19.5t-79.5 53t-47.5 79t-15.5 98.5v322h93v-315q0 -76 41.5 -122.5t120.5 -46.5z" />
    <glyph glyph-name="V.sc" horiz-adv-x="666" 
d="M381 -2h-90l-250 564h106l192 -446l190 446h96z" />
    <glyph glyph-name="W.sc" horiz-adv-x="940" 
d="M471 421l-150 -424h-79l-191 565h101l136 -419l146 422h80l147 -425l137 422h91l-186 -565h-83z" />
    <glyph glyph-name="X.sc" horiz-adv-x="688" 
d="M341 220l-190 -220h-110l244 284l-239 278h122l177 -208l179 208h113l-236 -273l246 -289h-117z" />
    <glyph glyph-name="Y.sc" horiz-adv-x="647" 
d="M374 0h-95v237l-253 325h118l185 -240l185 240h107l-247 -324v-238z" />
    <glyph glyph-name="Z.sc" horiz-adv-x="671" 
d="M614 0h-547v54l363 424h-355v84h500v-54l-366 -423h405v-85z" />
    <glyph glyph-name="Oslash.sc" horiz-adv-x="729" 
d="M657 281q0 -62 -22.5 -115t-62 -92t-93 -61t-115.5 -22q-47 0 -89 13t-77 36l-37 -40h-101l81 90q-32 38 -50.5 86t-18.5 105q0 63 22 116t61 91.5t92.5 60.5t116.5 22q47 0 89 -13t77 -36l35 40h104l-82 -91q33 -38 51.5 -86t18.5 -104zM167 281q0 -72 35 -124l270 301
q-23 14 -49.5 21.5t-58.5 7.5q-45 0 -81 -16t-62 -44t-40 -65.5t-14 -80.5zM562 281q0 71 -35 123l-272 -299q47 -30 109 -30q45 0 81.5 16t62.5 44t40 65.5t14 80.5z" />
    <glyph glyph-name="AE.sc" horiz-adv-x="955" 
d="M903 0h-464v138h-231l-92 -138h-105l381 562h480v-83h-340v-140h196v-84h-196v-171h371v-84zM439 218v264l-177 -264h177z" />
    <glyph glyph-name="OE.sc" horiz-adv-x="977" 
d="M72 281q0 65 22 117t62 88.5t95.5 56t122.5 19.5h519v-83h-340v-140h197v-84h-197v-171h372v-84h-551q-67 0 -122.5 19.5t-95.5 56t-62 88.5t-22 117zM461 84v394h-87q-47 0 -85.5 -14t-65.5 -39.5t-41.5 -62t-14.5 -81.5t14.5 -81.5t41.5 -62t65.5 -39.5t85.5 -14h87z
" />
    <glyph glyph-name="Eth.sc" horiz-adv-x="717" 
d="M122 324v238h224q68 0 123 -19.5t94 -55.5t60.5 -88t21.5 -118q0 -65 -21.5 -116.5t-60.5 -88.5t-94 -56.5t-123 -19.5h-224v242h-92v82h92zM215 242v-158h131q46 0 84 14t64 39.5t40.5 62t14.5 81.5q0 94 -54.5 145.5t-148.5 51.5h-131v-154h176v-82h-176z" />
    <glyph glyph-name="Dcroat.sc" horiz-adv-x="717" 
d="M122 324v238h224q68 0 123 -19.5t94 -55.5t60.5 -88t21.5 -118q0 -65 -21.5 -116.5t-60.5 -88.5t-94 -56.5t-123 -19.5h-224v242h-92v82h92zM215 242v-158h131q46 0 84 14t64 39.5t40.5 62t14.5 81.5q0 94 -54.5 145.5t-148.5 51.5h-131v-154h176v-82h-176z" />
    <glyph glyph-name="Eng.sc" horiz-adv-x="744" 
d="M631 -36q0 -136 -138 -136h-109v78h83q76 0 76 61q0 18 -9 37t-32 48l-299 392v-444h-90v562h110l319 -423v423h89v-598v0z" />
    <glyph glyph-name="IJ.sc" horiz-adv-x="909" 
d="M114 562h93v-562h-93v562zM799 180q0 -92 -53 -140.5t-142 -48.5q-88 0 -139 48.5t-51 140.5v150h90v-147q0 -48 26 -76.5t74 -28.5q49 0 75 28.5t26 76.5v379h94v-382v0z" />
    <glyph glyph-name="dotlessj.sc" horiz-adv-x="588" 
d="M478 180q0 -92 -53 -140.5t-142 -48.5q-88 0 -139 48.5t-51 140.5v150h90v-147q0 -48 26 -76.5t74 -28.5q49 0 75 28.5t26 76.5v379h94v-382v0z" />
    <glyph glyph-name="Aacute.sc" horiz-adv-x="672" 
d="M479 124h-292l-56 -124h-92l256 565h82l256 -565h-98zM442 206l-109 239l-108 -239h217zM398 780h110l-120 -150h-102z" />
    <glyph glyph-name="Abreve.sc" horiz-adv-x="672" 
d="M479 124h-292l-56 -124h-92l256 565h82l256 -565h-98zM442 206l-109 239l-108 -239h217zM336 695q35 0 52 23t17 52v13h76v-15q0 -31 -9.5 -57.5t-27.5 -46t-45 -30.5t-63 -11t-63 11t-45 30.5t-27.5 46t-9.5 57.5v15h76v-13q0 -29 17 -52t52 -23z" />
    <glyph glyph-name="Acircumflex.sc" horiz-adv-x="672" 
d="M479 124h-292l-56 -124h-92l256 565h82l256 -565h-98zM442 206l-109 239l-108 -239h217zM337 716l-81 -89h-98l139 156h78l136 -156h-94z" />
    <glyph glyph-name="Adieresis.sc" horiz-adv-x="672" 
d="M479 124h-292l-56 -124h-92l256 565h82l256 -565h-98zM442 206l-109 239l-108 -239h217zM188 769h92v-139h-92v139zM392 769h92v-139h-92v139z" />
    <glyph glyph-name="Agrave.sc" horiz-adv-x="672" 
d="M479 124h-292l-56 -124h-92l256 565h82l256 -565h-98zM442 206l-109 239l-108 -239h217zM285 630l-120 150h110l112 -150h-102z" />
    <glyph glyph-name="Amacron.sc" horiz-adv-x="672" 
d="M479 124h-292l-56 -124h-92l256 565h82l256 -565h-98zM442 206l-109 239l-108 -239h217zM171 665v78h330v-78h-330z" />
    <glyph glyph-name="Aogonek.sc" horiz-adv-x="672" 
d="M479 124h-292l-56 -124h-92l256 565h82l256 -565q-48 -39 -74.5 -64t-26.5 -48q0 -30 37 -30h86v-82h-89q-60 0 -94.5 23t-34.5 71q0 21 7.5 38t20.5 32.5t31 30t39 29.5zM442 206l-109 239l-108 -239h217z" />
    <glyph glyph-name="Aring.sc" horiz-adv-x="672" 
d="M479 124h-292l-56 -124h-92l256 565h82l256 -565h-98zM442 206l-109 239l-108 -239h217zM336 620q-28 0 -52 10t-41.5 27t-27.5 40.5t-10 49.5q0 27 10 50t27.5 40t41.5 27t52 10t52 -10t41.5 -27t27.5 -40t10 -50q0 -26 -10 -49.5t-27.5 -40.5t-41.5 -27t-52 -10z
M336 682q29 0 46.5 19t17.5 46q0 28 -17.5 46.5t-46.5 18.5t-46.5 -18.5t-17.5 -46.5q0 -27 17.5 -46t46.5 -19z" />
    <glyph glyph-name="Atilde.sc" horiz-adv-x="676" 
d="M479 124h-292l-56 -124h-92l256 565h82l256 -565h-98zM442 206l-109 239l-108 -239h217zM296 690q-11 6 -20.5 10.5t-17.5 4.5q-17 0 -17 -24v-56h-73v66q0 43 18.5 68.5t58.5 25.5q26 0 48.5 -11.5t48.5 -26.5l38 -22q11 -6 20 -10.5t17 -4.5q18 0 18 24v56h73v-66
q0 -43 -19 -68.5t-59 -25.5q-27 0 -48.5 11.5t-47.5 26.5z" />
    <glyph glyph-name="AEacute.sc" horiz-adv-x="955" 
d="M903 0h-464v138h-231l-92 -138h-105l381 562h480v-83h-340v-140h196v-84h-196v-171h371v-84zM439 218v264l-177 -264h177zM690 780h110l-120 -150h-102z" />
    <glyph glyph-name="Cacute.sc" horiz-adv-x="676" 
d="M353 -9q-61 0 -112.5 22t-89 61t-58.5 92t-21 115q0 61 21 114t58.5 92t89 61.5t112.5 22.5q63 0 109.5 -18.5t78 -45.5t49 -58t23.5 -56h-96q-6 13 -19.5 29t-33.5 30t-48 23.5t-63 9.5q-42 0 -76.5 -16.5t-58.5 -44t-37 -64.5t-13 -79t13 -79t37 -64.5t58.5 -44
t76.5 -16.5q39 0 67.5 10t48.5 24.5t32 30.5t18 28h94q-6 -23 -22.5 -54t-47 -58.5t-77.5 -47t-113 -19.5zM415 780h110l-120 -150h-102z" />
    <glyph glyph-name="Ccaron.sc" horiz-adv-x="676" 
d="M353 -9q-61 0 -112.5 22t-89 61t-58.5 92t-21 115q0 61 21 114t58.5 92t89 61.5t112.5 22.5q63 0 109.5 -18.5t78 -45.5t49 -58t23.5 -56h-96q-6 13 -19.5 29t-33.5 30t-48 23.5t-63 9.5q-42 0 -76.5 -16.5t-58.5 -44t-37 -64.5t-13 -79t13 -79t37 -64.5t58.5 -44
t76.5 -16.5q39 0 67.5 10t48.5 24.5t32 30.5t18 28h94q-6 -23 -22.5 -54t-47 -58.5t-77.5 -47t-113 -19.5zM392 627h-78l-136 156h94l81 -89l80 89h98z" />
    <glyph glyph-name="Ccedilla.sc" horiz-adv-x="676" 
d="M353 -9q-61 0 -112.5 22t-89 61t-58.5 92t-21 115q0 61 21 114t58.5 92t89 61.5t112.5 22.5q63 0 109.5 -18.5t78 -45.5t49 -58t23.5 -56h-96q-6 13 -19.5 29t-33.5 30t-48 23.5t-63 9.5q-42 0 -76.5 -16.5t-58.5 -44t-37 -64.5t-13 -79t13 -79t37 -64.5t58.5 -44
t76.5 -16.5q39 0 67.5 10t48.5 24.5t32 30.5t18 28h94q-6 -23 -22.5 -54t-47 -58.5t-77.5 -47t-113 -19.5zM407 -156q0 34 -41 34h-86v122h80v-55h14q65 0 92.5 -28t27.5 -73t-27.5 -77t-89.5 -32h-137v74h126q41 0 41 35z" />
    <glyph glyph-name="Ccircumflex.sc" horiz-adv-x="676" 
d="M353 -9q-61 0 -112.5 22t-89 61t-58.5 92t-21 115q0 61 21 114t58.5 92t89 61.5t112.5 22.5q63 0 109.5 -18.5t78 -45.5t49 -58t23.5 -56h-96q-6 13 -19.5 29t-33.5 30t-48 23.5t-63 9.5q-42 0 -76.5 -16.5t-58.5 -44t-37 -64.5t-13 -79t13 -79t37 -64.5t58.5 -44
t76.5 -16.5q39 0 67.5 10t48.5 24.5t32 30.5t18 28h94q-6 -23 -22.5 -54t-47 -58.5t-77.5 -47t-113 -19.5zM354 716l-81 -89h-98l139 156h78l136 -156h-94z" />
    <glyph glyph-name="Cdotaccent.sc" horiz-adv-x="676" 
d="M353 -9q-61 0 -112.5 22t-89 61t-58.5 92t-21 115q0 61 21 114t58.5 92t89 61.5t112.5 22.5q63 0 109.5 -18.5t78 -45.5t49 -58t23.5 -56h-96q-6 13 -19.5 29t-33.5 30t-48 23.5t-63 9.5q-42 0 -76.5 -16.5t-58.5 -44t-37 -64.5t-13 -79t13 -79t37 -64.5t58.5 -44
t76.5 -16.5q39 0 67.5 10t48.5 24.5t32 30.5t18 28h94q-6 -23 -22.5 -54t-47 -58.5t-77.5 -47t-113 -19.5zM306 773h94v-143h-94v143z" />
    <glyph glyph-name="Dcaron.sc" horiz-adv-x="708" 
d="M113 562h224q68 0 123 -19.5t94 -55.5t60.5 -88t21.5 -118q0 -65 -21.5 -116.5t-60.5 -88.5t-94 -56.5t-123 -19.5h-224v562zM206 478v-394h131q46 0 84 14t64 39.5t40.5 62t14.5 81.5q0 94 -54.5 145.5t-148.5 51.5h-131zM380 627h-78l-136 156h94l81 -89l80 89h98z" />
    <glyph glyph-name="Eacute.sc" horiz-adv-x="645" 
d="M113 562h448v-83h-356v-140h213v-84h-213v-171h388v-84h-480v562zM399 780h110l-120 -150h-102z" />
    <glyph glyph-name="Ebreve.sc" horiz-adv-x="645" 
d="M113 562h448v-83h-356v-140h213v-84h-213v-171h388v-84h-480v562zM337 695q35 0 52 23t17 52v13h76v-15q0 -31 -9.5 -57.5t-27.5 -46t-45 -30.5t-63 -11t-63 11t-45 30.5t-27.5 46t-9.5 57.5v15h76v-13q0 -29 17 -52t52 -23z" />
    <glyph glyph-name="Ecaron.sc" horiz-adv-x="645" 
d="M113 562h448v-83h-356v-140h213v-84h-213v-171h388v-84h-480v562zM376 627h-78l-136 156h94l81 -89l80 89h98z" />
    <glyph glyph-name="Ecircumflex.sc" horiz-adv-x="645" 
d="M113 562h448v-83h-356v-140h213v-84h-213v-171h388v-84h-480v562zM338 716l-81 -89h-98l139 156h78l136 -156h-94z" />
    <glyph glyph-name="Edieresis.sc" horiz-adv-x="645" 
d="M113 562h448v-83h-356v-140h213v-84h-213v-171h388v-84h-480v562zM189 769h92v-139h-92v139zM393 769h92v-139h-92v139z" />
    <glyph glyph-name="Edotaccent.sc" horiz-adv-x="645" 
d="M113 562h448v-83h-356v-140h213v-84h-213v-171h388v-84h-480v562zM291 773h94v-143h-94v143z" />
    <glyph glyph-name="Egrave.sc" horiz-adv-x="645" 
d="M113 562h448v-83h-356v-140h213v-84h-213v-171h388v-84h-480v562zM298 630l-120 150h110l112 -150h-102z" />
    <glyph glyph-name="Emacron.sc" horiz-adv-x="645" 
d="M113 562h448v-83h-356v-140h213v-84h-213v-171h388v-84h-480v562zM172 665v78h330v-78h-330z" />
    <glyph glyph-name="Eogonek.sc" horiz-adv-x="645" 
d="M113 562h448v-83h-356v-140h213v-84h-213v-171h388v-84h-480v562zM541 -224h-89q-60 0 -94.5 23t-34.5 71q0 21 8 38t22.5 32t33.5 29.5t41 30.5h91q-48 -39 -74.5 -64t-26.5 -48q0 -30 37 -30h86v-82z" />
    <glyph glyph-name="Gbreve.sc" horiz-adv-x="715" 
d="M623 75q-15 -14 -37.5 -29t-53 -27.5t-69.5 -20.5t-87 -8q-69 0 -125 21.5t-95.5 60t-61.5 92t-22 118.5q0 63 21.5 116t59.5 91.5t90.5 60.5t115.5 22q60 0 104 -15t74 -37.5t47 -49t24 -48.5h-97q-7 9 -19 20t-30.5 21t-44 17t-58.5 7q-45 0 -80.5 -15.5t-60 -43.5
t-38 -65.5t-13.5 -80.5q0 -46 15 -84.5t42.5 -66t66 -42.5t86.5 -15q59 0 98 13t59 27v125h-209v81h298v-245v0zM359 695q35 0 52 23t17 52v13h76v-15q0 -31 -9.5 -57.5t-27.5 -46t-45 -30.5t-63 -11t-63 11t-45 30.5t-27.5 46t-9.5 57.5v15h76v-13q0 -29 17 -52t52 -23z
" />
    <glyph glyph-name="Gcircumflex.sc" horiz-adv-x="715" 
d="M623 75q-15 -14 -37.5 -29t-53 -27.5t-69.5 -20.5t-87 -8q-69 0 -125 21.5t-95.5 60t-61.5 92t-22 118.5q0 63 21.5 116t59.5 91.5t90.5 60.5t115.5 22q60 0 104 -15t74 -37.5t47 -49t24 -48.5h-97q-7 9 -19 20t-30.5 21t-44 17t-58.5 7q-45 0 -80.5 -15.5t-60 -43.5
t-38 -65.5t-13.5 -80.5q0 -46 15 -84.5t42.5 -66t66 -42.5t86.5 -15q59 0 98 13t59 27v125h-209v81h298v-245v0zM360 716l-81 -89h-98l139 156h78l136 -156h-94z" />
    <glyph glyph-name="Gcommaaccent.sc" horiz-adv-x="715" 
d="M623 75q-15 -14 -37.5 -29t-53 -27.5t-69.5 -20.5t-87 -8q-69 0 -125 21.5t-95.5 60t-61.5 92t-22 118.5q0 63 21.5 116t59.5 91.5t90.5 60.5t115.5 22q60 0 104 -15t74 -37.5t47 -49t24 -48.5h-97q-7 9 -19 20t-30.5 21t-44 17t-58.5 7q-45 0 -80.5 -15.5t-60 -43.5
t-38 -65.5t-13.5 -80.5q0 -46 15 -84.5t42.5 -66t66 -42.5t86.5 -15q59 0 98 13t59 27v125h-209v81h298v-245v0zM343 -325q16 29 25.5 62t9.5 53h-52v115h112v-98q0 -45 -8.5 -76.5t-19.5 -55.5h-67z" />
    <glyph glyph-name="Gdotaccent.sc" horiz-adv-x="715" 
d="M623 75q-15 -14 -37.5 -29t-53 -27.5t-69.5 -20.5t-87 -8q-69 0 -125 21.5t-95.5 60t-61.5 92t-22 118.5q0 63 21.5 116t59.5 91.5t90.5 60.5t115.5 22q60 0 104 -15t74 -37.5t47 -49t24 -48.5h-97q-7 9 -19 20t-30.5 21t-44 17t-58.5 7q-45 0 -80.5 -15.5t-60 -43.5
t-38 -65.5t-13.5 -80.5q0 -46 15 -84.5t42.5 -66t66 -42.5t86.5 -15q59 0 98 13t59 27v125h-209v81h298v-245v0zM312 773h94v-143h-94v143z" />
    <glyph glyph-name="Hbar.sc" horiz-adv-x="737" 
d="M531 240h-325v-240h-93v407h-75v68h75v87h93v-87h325v87h93v-87h75v-68h-75v-407h-93v240zM531 325v82h-325v-82h325z" />
    <glyph glyph-name="Hcircumflex.sc" horiz-adv-x="737" 
d="M531 240h-325v-240h-93v562h93v-237h325v237h93v-562h-93v240zM369 716l-81 -89h-98l139 156h78l136 -156h-94z" />
    <glyph glyph-name="Iacute.sc" horiz-adv-x="321" 
d="M114 562h93v-562h-93v562zM222 780h110l-120 -150h-102z" />
    <glyph glyph-name="Ibreve.sc" horiz-adv-x="321" 
d="M114 562h93v-562h-93v562zM160 695q35 0 52 23t17 52v13h76v-15q0 -31 -9.5 -57.5t-27.5 -46t-45 -30.5t-63 -11t-63 11t-45 30.5t-27.5 46t-9.5 57.5v15h76v-13q0 -29 17 -52t52 -23z" />
    <glyph glyph-name="Icircumflex.sc" horiz-adv-x="321" 
d="M114 562h93v-562h-93v562zM161 716l-81 -89h-98l139 156h78l136 -156h-94z" />
    <glyph glyph-name="Idieresis.sc" horiz-adv-x="321" 
d="M114 562h93v-562h-93v562zM12 769h92v-139h-92v139zM216 769h92v-139h-92v139z" />
    <glyph glyph-name="Idotaccent.sc" horiz-adv-x="321" 
d="M114 562h93v-562h-93v562zM113 773h94v-143h-94v143z" />
    <glyph glyph-name="Igrave.sc" horiz-adv-x="321" 
d="M114 562h93v-562h-93v562zM109 630l-120 150h110l112 -150h-102z" />
    <glyph glyph-name="Imacron.sc" horiz-adv-x="321" 
d="M114 562h93v-562h-93v562zM-5 665v78h330v-78h-330z" />
    <glyph glyph-name="Iogonek.sc" horiz-adv-x="321" 
d="M114 562h93v-562q-48 -39 -74.5 -64t-26.5 -48q0 -30 37 -30h86v-82h-89q-60 0 -94.5 23t-34.5 71q0 21 8 38t22 32t32.5 29.5t40.5 30.5v562z" />
    <glyph glyph-name="Itilde.sc" horiz-adv-x="321" 
d="M114 562h93v-562h-93v562zM118 690q-11 6 -20.5 10.5t-17.5 4.5q-17 0 -17 -24v-56h-73v66q0 43 18.5 68.5t58.5 25.5q26 0 48.5 -11.5t48.5 -26.5l38 -22q11 -6 20 -10.5t17 -4.5q18 0 18 24v56h73v-66q0 -43 -19 -68.5t-59 -25.5q-27 0 -48.5 11.5t-47.5 26.5z" />
    <glyph glyph-name="Jcircumflex.sc" horiz-adv-x="588" 
d="M478 180q0 -92 -53 -140.5t-142 -48.5q-88 0 -139 48.5t-51 140.5v150h90v-147q0 -48 26 -76.5t74 -28.5q49 0 75 28.5t26 76.5v379h94v-382v0zM432 716l-81 -89h-98l139 156h78l136 -156h-94z" />
    <glyph glyph-name="Kcommaaccent.sc" horiz-adv-x="664" 
d="M206 259v-259h-93v562h93v-255l305 255h127l-328 -274l342 -288h-131zM306 -325q16 29 25.5 62t9.5 53h-52v115h112v-98q0 -45 -8.5 -76.5t-19.5 -55.5h-67z" />
    <glyph glyph-name="Lacute.sc" horiz-adv-x="607" 
d="M560 0h-447v562h93v-476h354v-86zM224 780h110l-120 -150h-102z" />
    <glyph glyph-name="Lcaron.sc" horiz-adv-x="607" 
d="M337 620h86l-57 -193h-79zM560 0h-447v562h93v-476h354v-86z" />
    <glyph glyph-name="Lcommaaccent.sc" horiz-adv-x="607" 
d="M560 0h-447v562h93v-476h354v-86zM299 -325q16 29 25.5 62t9.5 53h-52v115h112v-98q0 -45 -8.5 -76.5t-19.5 -55.5h-67z" />
    <glyph glyph-name="Ldot.sc" horiz-adv-x="607" 
d="M560 0h-447v562h93v-476h354v-86zM405 398h116v-142h-116v142z" />
    <glyph glyph-name="Lslash.sc" horiz-adv-x="607" 
d="M560 0h-447v175l-83 -40v81l83 41v305h93v-259l217 108v-84l-217 -106v-135h354v-86z" />
    <glyph glyph-name="Nacute.sc" horiz-adv-x="744" 
d="M631 -3h-70l-359 451v-448h-89v562h110l320 -408v408h88v-565zM439 780h110l-120 -150h-102z" />
    <glyph glyph-name="Ncaron.sc" horiz-adv-x="744" 
d="M631 -3h-70l-359 451v-448h-89v562h110l320 -408v408h88v-565zM415 627h-78l-136 156h94l81 -89l80 89h98z" />
    <glyph glyph-name="Ncommaaccent.sc" horiz-adv-x="744" 
d="M631 -3h-70l-359 451v-448h-89v562h110l320 -408v408h88v-565zM339 -325q16 29 25.5 62t9.5 53h-52v115h112v-98q0 -45 -8.5 -76.5t-19.5 -55.5h-67z" />
    <glyph glyph-name="Ntilde.sc" horiz-adv-x="744" 
d="M631 -3h-70l-359 451v-448h-89v562h110l320 -408v408h88v-565zM335 690q-11 6 -20.5 10.5t-17.5 4.5q-17 0 -17 -24v-56h-73v66q0 43 18.5 68.5t58.5 25.5q26 0 48.5 -11.5t48.5 -26.5l38 -22q11 -6 20 -10.5t17 -4.5q18 0 18 24v56h73v-66q0 -43 -19 -68.5t-59 -25.5
q-27 0 -48.5 11.5t-47.5 26.5z" />
    <glyph glyph-name="Oacute.sc" horiz-adv-x="729" 
d="M364 -9q-63 0 -116.5 22t-92.5 60.5t-61 91.5t-22 116t22.5 116t61.5 91.5t92.5 60.5t115.5 22q63 0 116.5 -22t92.5 -60.5t61.5 -91.5t22.5 -116q0 -62 -22.5 -115t-61.5 -92t-92.5 -61t-116.5 -22zM364 76q45 0 81.5 16t62.5 44t40 65.5t14 79.5t-14 79.5t-40 65
t-62.5 44t-81.5 16.5q-44 0 -80.5 -16t-62.5 -44t-40 -65.5t-14 -79.5q0 -43 14 -80.5t40 -65t62.5 -43.5t80.5 -16zM426 780h110l-120 -150h-102z" />
    <glyph glyph-name="Obreve.sc" horiz-adv-x="729" 
d="M364 -9q-63 0 -116.5 22t-92.5 60.5t-61 91.5t-22 116t22.5 116t61.5 91.5t92.5 60.5t115.5 22q63 0 116.5 -22t92.5 -60.5t61.5 -91.5t22.5 -116q0 -62 -22.5 -115t-61.5 -92t-92.5 -61t-116.5 -22zM364 76q45 0 81.5 16t62.5 44t40 65.5t14 79.5t-14 79.5t-40 65
t-62.5 44t-81.5 16.5q-44 0 -80.5 -16t-62.5 -44t-40 -65.5t-14 -79.5q0 -43 14 -80.5t40 -65t62.5 -43.5t80.5 -16zM364 695q35 0 52 23t17 52v13h76v-15q0 -31 -9.5 -57.5t-27.5 -46t-45 -30.5t-63 -11t-63 11t-45 30.5t-27.5 46t-9.5 57.5v15h76v-13q0 -29 17 -52t52 -23
z" />
    <glyph glyph-name="Ocircumflex.sc" horiz-adv-x="729" 
d="M364 -9q-63 0 -116.5 22t-92.5 60.5t-61 91.5t-22 116t22.5 116t61.5 91.5t92.5 60.5t115.5 22q63 0 116.5 -22t92.5 -60.5t61.5 -91.5t22.5 -116q0 -62 -22.5 -115t-61.5 -92t-92.5 -61t-116.5 -22zM364 76q45 0 81.5 16t62.5 44t40 65.5t14 79.5t-14 79.5t-40 65
t-62.5 44t-81.5 16.5q-44 0 -80.5 -16t-62.5 -44t-40 -65.5t-14 -79.5q0 -43 14 -80.5t40 -65t62.5 -43.5t80.5 -16zM365 716l-81 -89h-98l139 156h78l136 -156h-94z" />
    <glyph glyph-name="Odieresis.sc" horiz-adv-x="729" 
d="M364 -9q-63 0 -116.5 22t-92.5 60.5t-61 91.5t-22 116t22.5 116t61.5 91.5t92.5 60.5t115.5 22q63 0 116.5 -22t92.5 -60.5t61.5 -91.5t22.5 -116q0 -62 -22.5 -115t-61.5 -92t-92.5 -61t-116.5 -22zM364 76q45 0 81.5 16t62.5 44t40 65.5t14 79.5t-14 79.5t-40 65
t-62.5 44t-81.5 16.5q-44 0 -80.5 -16t-62.5 -44t-40 -65.5t-14 -79.5q0 -43 14 -80.5t40 -65t62.5 -43.5t80.5 -16zM216 769h92v-139h-92v139zM420 769h92v-139h-92v139z" />
    <glyph glyph-name="Ograve.sc" horiz-adv-x="729" 
d="M364 -9q-63 0 -116.5 22t-92.5 60.5t-61 91.5t-22 116t22.5 116t61.5 91.5t92.5 60.5t115.5 22q63 0 116.5 -22t92.5 -60.5t61.5 -91.5t22.5 -116q0 -62 -22.5 -115t-61.5 -92t-92.5 -61t-116.5 -22zM364 76q45 0 81.5 16t62.5 44t40 65.5t14 79.5t-14 79.5t-40 65
t-62.5 44t-81.5 16.5q-44 0 -80.5 -16t-62.5 -44t-40 -65.5t-14 -79.5q0 -43 14 -80.5t40 -65t62.5 -43.5t80.5 -16zM313 630l-120 150h110l112 -150h-102z" />
    <glyph glyph-name="Ohungarumlaut.sc" horiz-adv-x="729" 
d="M364 -9q-63 0 -116.5 22t-92.5 60.5t-61 91.5t-22 116t22.5 116t61.5 91.5t92.5 60.5t115.5 22q63 0 116.5 -22t92.5 -60.5t61.5 -91.5t22.5 -116q0 -62 -22.5 -115t-61.5 -92t-92.5 -61t-116.5 -22zM364 76q45 0 81.5 16t62.5 44t40 65.5t14 79.5t-14 79.5t-40 65
t-62.5 44t-81.5 16.5q-44 0 -80.5 -16t-62.5 -44t-40 -65.5t-14 -79.5q0 -43 14 -80.5t40 -65t62.5 -43.5t80.5 -16zM484 780h92l-85 -150h-85zM308 780h92l-85 -150h-85z" />
    <glyph glyph-name="Omacron.sc" horiz-adv-x="729" 
d="M364 -9q-63 0 -116.5 22t-92.5 60.5t-61 91.5t-22 116t22.5 116t61.5 91.5t92.5 60.5t115.5 22q63 0 116.5 -22t92.5 -60.5t61.5 -91.5t22.5 -116q0 -62 -22.5 -115t-61.5 -92t-92.5 -61t-116.5 -22zM364 76q45 0 81.5 16t62.5 44t40 65.5t14 79.5t-14 79.5t-40 65
t-62.5 44t-81.5 16.5q-44 0 -80.5 -16t-62.5 -44t-40 -65.5t-14 -79.5q0 -43 14 -80.5t40 -65t62.5 -43.5t80.5 -16zM199 665v78h330v-78h-330z" />
    <glyph glyph-name="Otilde.sc" horiz-adv-x="729" 
d="M364 -9q-63 0 -116.5 22t-92.5 60.5t-61 91.5t-22 116t22.5 116t61.5 91.5t92.5 60.5t115.5 22q63 0 116.5 -22t92.5 -60.5t61.5 -91.5t22.5 -116q0 -62 -22.5 -115t-61.5 -92t-92.5 -61t-116.5 -22zM364 76q45 0 81.5 16t62.5 44t40 65.5t14 79.5t-14 79.5t-40 65
t-62.5 44t-81.5 16.5q-44 0 -80.5 -16t-62.5 -44t-40 -65.5t-14 -79.5q0 -43 14 -80.5t40 -65t62.5 -43.5t80.5 -16zM322 690q-11 6 -20.5 10.5t-17.5 4.5q-17 0 -17 -24v-56h-73v66q0 43 18.5 68.5t58.5 25.5q26 0 48.5 -11.5t48.5 -26.5l38 -22q11 -6 20 -10.5t17 -4.5
q18 0 18 24v56h73v-66q0 -43 -19 -68.5t-59 -25.5q-27 0 -48.5 11.5t-47.5 26.5z" />
    <glyph glyph-name="Oslashacute.sc" horiz-adv-x="729" 
d="M657 281q0 -62 -22.5 -115t-62 -92t-93 -61t-115.5 -22q-47 0 -89 13t-77 36l-37 -40h-101l81 90q-32 38 -50.5 86t-18.5 105q0 63 22 116t61 91.5t92.5 60.5t116.5 22q47 0 89 -13t77 -36l35 40h104l-82 -91q33 -38 51.5 -86t18.5 -104zM167 281q0 -72 35 -124l270 301
q-23 14 -49.5 21.5t-58.5 7.5q-45 0 -81 -16t-62 -44t-40 -65.5t-14 -80.5zM562 281q0 71 -35 123l-272 -299q47 -30 109 -30q45 0 81.5 16t62.5 44t40 65.5t14 80.5zM426 780h110l-120 -150h-102z" />
    <glyph glyph-name="Racute.sc" horiz-adv-x="688" 
d="M113 562h307q92 0 140.5 -41.5t48.5 -122.5q0 -57 -28.5 -95t-83.5 -54l133 -249h-98l-130 239h-196v-239h-93v562zM206 478v-156h208q100 0 100 76q0 80 -100 80h-208zM395 780h110l-120 -150h-102z" />
    <glyph glyph-name="Rcaron.sc" horiz-adv-x="688" 
d="M113 562h307q92 0 140.5 -41.5t48.5 -122.5q0 -57 -28.5 -95t-83.5 -54l133 -249h-98l-130 239h-196v-239h-93v562zM206 478v-156h208q100 0 100 76q0 80 -100 80h-208zM372 627h-78l-136 156h94l81 -89l80 89h98z" />
    <glyph glyph-name="Rcommaaccent.sc" horiz-adv-x="688" 
d="M113 562h307q92 0 140.5 -41.5t48.5 -122.5q0 -57 -28.5 -95t-83.5 -54l133 -249h-98l-130 239h-196v-239h-93v562zM206 478v-156h208q100 0 100 76q0 80 -100 80h-208zM320 -325q16 29 25.5 62t9.5 53h-52v115h112v-98q0 -45 -8.5 -76.5t-19.5 -55.5h-67z" />
    <glyph glyph-name="Sacute.sc" horiz-adv-x="639" 
d="M297 490q-63 0 -94.5 -20t-31.5 -54q0 -31 25.5 -49t73.5 -24l104 -11q39 -4 74 -14.5t61 -30.5t41.5 -50.5t15.5 -75.5q0 -36 -14.5 -67t-43.5 -54.5t-73 -36.5t-103 -13q-68 0 -115.5 15.5t-80 40t-51 55.5t-27.5 61h99q6 -15 18.5 -31t33.5 -29.5t51 -22t72 -8.5
q69 0 104.5 24t35.5 61q0 44 -29.5 62t-75.5 23q-29 4 -52 6t-53 5q-40 4 -74 16t-58.5 32t-38.5 48t-14 66q0 36 16 65.5t44.5 50t69 31.5t90.5 11q64 0 110 -14t76 -36.5t46.5 -50t23.5 -54.5h-96q-6 12 -18 25t-31.5 23.5t-46.5 17.5t-64 7zM374 780h110l-120 -150h-102z
" />
    <glyph glyph-name="Scaron.sc" horiz-adv-x="639" 
d="M297 490q-63 0 -94.5 -20t-31.5 -54q0 -31 25.5 -49t73.5 -24l104 -11q39 -4 74 -14.5t61 -30.5t41.5 -50.5t15.5 -75.5q0 -36 -14.5 -67t-43.5 -54.5t-73 -36.5t-103 -13q-68 0 -115.5 15.5t-80 40t-51 55.5t-27.5 61h99q6 -15 18.5 -31t33.5 -29.5t51 -22t72 -8.5
q69 0 104.5 24t35.5 61q0 44 -29.5 62t-75.5 23q-29 4 -52 6t-53 5q-40 4 -74 16t-58.5 32t-38.5 48t-14 66q0 36 16 65.5t44.5 50t69 31.5t90.5 11q64 0 110 -14t76 -36.5t46.5 -50t23.5 -54.5h-96q-6 12 -18 25t-31.5 23.5t-46.5 17.5t-64 7zM351 627h-78l-136 156h94
l81 -89l80 89h98z" />
    <glyph glyph-name="Scedilla.sc" horiz-adv-x="639" 
d="M297 490q-63 0 -94.5 -20t-31.5 -54q0 -31 25.5 -49t73.5 -24l104 -11q39 -4 74 -14.5t61 -30.5t41.5 -50.5t15.5 -75.5q0 -36 -14.5 -67t-43.5 -54.5t-73 -36.5t-103 -13h-13v-45h14q65 0 92.5 -28t27.5 -73t-27.5 -77t-89.5 -32h-137v74h126q41 0 41 35q0 34 -41 34
h-86v121q-12 3 -23 6q-47 16 -79.5 40.5t-51 55.5t-27.5 61h99q6 -15 18.5 -31t33.5 -29.5t51 -22t72 -8.5q69 0 104.5 24t35.5 61q0 44 -29.5 62t-75.5 23q-29 4 -52 6t-53 5q-40 4 -74 16t-58.5 32t-38.5 48t-14 66q0 36 16 65.5t44.5 50t69 31.5t90.5 11q64 0 110 -14
t76 -36.5t46.5 -50t23.5 -54.5h-96q-6 12 -18 25t-31.5 23.5t-46.5 17.5t-64 7z" />
    <glyph glyph-name="Scircumflex.sc" horiz-adv-x="639" 
d="M297 490q-63 0 -94.5 -20t-31.5 -54q0 -31 25.5 -49t73.5 -24l104 -11q39 -4 74 -14.5t61 -30.5t41.5 -50.5t15.5 -75.5q0 -36 -14.5 -67t-43.5 -54.5t-73 -36.5t-103 -13q-68 0 -115.5 15.5t-80 40t-51 55.5t-27.5 61h99q6 -15 18.5 -31t33.5 -29.5t51 -22t72 -8.5
q69 0 104.5 24t35.5 61q0 44 -29.5 62t-75.5 23q-29 4 -52 6t-53 5q-40 4 -74 16t-58.5 32t-38.5 48t-14 66q0 36 16 65.5t44.5 50t69 31.5t90.5 11q64 0 110 -14t76 -36.5t46.5 -50t23.5 -54.5h-96q-6 12 -18 25t-31.5 23.5t-46.5 17.5t-64 7zM313 716l-81 -89h-98l139 156
h78l136 -156h-94z" />
    <glyph glyph-name="Scommaaccent.sc" horiz-adv-x="639" 
d="M297 490q-63 0 -94.5 -20t-31.5 -54q0 -31 25.5 -49t73.5 -24l104 -11q39 -4 74 -14.5t61 -30.5t41.5 -50.5t15.5 -75.5q0 -36 -14.5 -67t-43.5 -54.5t-73 -36.5t-103 -13q-68 0 -115.5 15.5t-80 40t-51 55.5t-27.5 61h99q6 -15 18.5 -31t33.5 -29.5t51 -22t72 -8.5
q69 0 104.5 24t35.5 61q0 44 -29.5 62t-75.5 23q-29 4 -52 6t-53 5q-40 4 -74 16t-58.5 32t-38.5 48t-14 66q0 36 16 65.5t44.5 50t69 31.5t90.5 11q64 0 110 -14t76 -36.5t46.5 -50t23.5 -54.5h-96q-6 12 -18 25t-31.5 23.5t-46.5 17.5t-64 7zM295 -325q16 29 25.5 62
t9.5 53h-52v115h112v-98q0 -45 -8.5 -76.5t-19.5 -55.5h-67z" />
    <glyph glyph-name="Tcaron.sc" horiz-adv-x="643" 
d="M47 562h549v-85h-228v-477h-93v477h-228v85zM361 627h-78l-136 156h94l81 -89l80 89h98z" />
    <glyph glyph-name="Tcommaaccent.sc" horiz-adv-x="643" 
d="M47 562h549v-85h-228v-477h-93v477h-228v85zM283 -325q16 29 25.5 62t9.5 53h-52v115h112v-98q0 -45 -8.5 -76.5t-19.5 -55.5h-67z" />
    <glyph glyph-name="uni021A.sc" horiz-adv-x="643" 
d="M47 562h549v-85h-228v-477h-93v477h-228v85zM283 -325q16 29 25.5 62t9.5 53h-52v115h112v-98q0 -45 -8.5 -76.5t-19.5 -55.5h-67z" />
    <glyph glyph-name="Tbar.sc" horiz-adv-x="643" 
d="M124 332h151v145h-228v85h549v-85h-228v-145h151v-78h-151v-254h-93v254h-151v78z" />
    <glyph glyph-name="Thorn.sc" horiz-adv-x="670" 
d="M206 124v-124h-93v562h93v-111h215q91 0 139 -42t48 -120q0 -76 -48 -120.5t-140 -44.5h-214zM206 367v-158h213q47 0 70 22t23 57q0 79 -93 79h-213z" />
    <glyph glyph-name="Uacute.sc" horiz-adv-x="728" 
d="M365 78q77 0 119 46.5t42 122.5v315h92v-322q0 -52 -16.5 -97.5t-48.5 -79.5t-79 -53.5t-109 -19.5q-65 0 -112.5 19.5t-79.5 53t-47.5 79t-15.5 98.5v322h93v-315q0 -76 41.5 -122.5t120.5 -46.5zM416 780h110l-120 -150h-102z" />
    <glyph glyph-name="Ubreve.sc" horiz-adv-x="728" 
d="M365 78q77 0 119 46.5t42 122.5v315h92v-322q0 -52 -16.5 -97.5t-48.5 -79.5t-79 -53.5t-109 -19.5q-65 0 -112.5 19.5t-79.5 53t-47.5 79t-15.5 98.5v322h93v-315q0 -76 41.5 -122.5t120.5 -46.5zM364 695q35 0 52 23t17 52v13h76v-15q0 -31 -9.5 -57.5t-27.5 -46
t-45 -30.5t-63 -11t-63 11t-45 30.5t-27.5 46t-9.5 57.5v15h76v-13q0 -29 17 -52t52 -23z" />
    <glyph glyph-name="Ucircumflex.sc" horiz-adv-x="728" 
d="M365 78q77 0 119 46.5t42 122.5v315h92v-322q0 -52 -16.5 -97.5t-48.5 -79.5t-79 -53.5t-109 -19.5q-65 0 -112.5 19.5t-79.5 53t-47.5 79t-15.5 98.5v322h93v-315q0 -76 41.5 -122.5t120.5 -46.5zM365 716l-81 -89h-98l139 156h78l136 -156h-94z" />
    <glyph glyph-name="Udieresis.sc" horiz-adv-x="728" 
d="M365 78q77 0 119 46.5t42 122.5v315h92v-322q0 -52 -16.5 -97.5t-48.5 -79.5t-79 -53.5t-109 -19.5q-65 0 -112.5 19.5t-79.5 53t-47.5 79t-15.5 98.5v322h93v-315q0 -76 41.5 -122.5t120.5 -46.5zM216 769h92v-139h-92v139zM420 769h92v-139h-92v139z" />
    <glyph glyph-name="Ugrave.sc" horiz-adv-x="728" 
d="M365 78q77 0 119 46.5t42 122.5v315h92v-322q0 -52 -16.5 -97.5t-48.5 -79.5t-79 -53.5t-109 -19.5q-65 0 -112.5 19.5t-79.5 53t-47.5 79t-15.5 98.5v322h93v-315q0 -76 41.5 -122.5t120.5 -46.5zM323 630l-120 150h110l112 -150h-102z" />
    <glyph glyph-name="Uhungarumlaut.sc" horiz-adv-x="728" 
d="M365 78q77 0 119 46.5t42 122.5v315h92v-322q0 -52 -16.5 -97.5t-48.5 -79.5t-79 -53.5t-109 -19.5q-65 0 -112.5 19.5t-79.5 53t-47.5 79t-15.5 98.5v322h93v-315q0 -76 41.5 -122.5t120.5 -46.5zM484 780h92l-85 -150h-85zM308 780h92l-85 -150h-85z" />
    <glyph glyph-name="Umacron.sc" horiz-adv-x="728" 
d="M365 78q77 0 119 46.5t42 122.5v315h92v-322q0 -52 -16.5 -97.5t-48.5 -79.5t-79 -53.5t-109 -19.5q-65 0 -112.5 19.5t-79.5 53t-47.5 79t-15.5 98.5v322h93v-315q0 -76 41.5 -122.5t120.5 -46.5zM199 665v78h330v-78h-330z" />
    <glyph glyph-name="Uogonek.sc" horiz-adv-x="728" 
d="M523 -224h-89q-60 0 -94.5 23t-34.5 70q0 39 28 67.5t64 54.5q-8 -1 -16 -1h-16q-65 0 -112.5 19.5t-79.5 53t-47.5 79t-15.5 98.5v322h93v-315q0 -76 41.5 -122.5t120.5 -46.5q77 0 119 46.5t42 122.5v315h92v-322q0 -79 -32.5 -135t-88.5 -101q-50 -41 -73.5 -65.5
t-23.5 -48.5q0 -16 10.5 -24t28.5 -8h84v-82z" />
    <glyph glyph-name="Uring.sc" horiz-adv-x="728" 
d="M365 78q77 0 119 46.5t42 122.5v315h92v-322q0 -52 -16.5 -97.5t-48.5 -79.5t-79 -53.5t-109 -19.5q-65 0 -112.5 19.5t-79.5 53t-47.5 79t-15.5 98.5v322h93v-315q0 -76 41.5 -122.5t120.5 -46.5zM364 620q-28 0 -52 10t-41.5 27t-27.5 40.5t-10 49.5q0 27 10 50
t27.5 40t41.5 27t52 10t52 -10t41.5 -27t27.5 -40t10 -50q0 -26 -10 -49.5t-27.5 -40.5t-41.5 -27t-52 -10zM364 682q29 0 46.5 19t17.5 46q0 28 -17.5 46.5t-46.5 18.5t-46.5 -18.5t-17.5 -46.5q0 -27 17.5 -46t46.5 -19z" />
    <glyph glyph-name="Utilde.sc" horiz-adv-x="728" 
d="M365 78q77 0 119 46.5t42 122.5v315h92v-322q0 -52 -16.5 -97.5t-48.5 -79.5t-79 -53.5t-109 -19.5q-65 0 -112.5 19.5t-79.5 53t-47.5 79t-15.5 98.5v322h93v-315q0 -76 41.5 -122.5t120.5 -46.5zM322 690q-11 6 -20.5 10.5t-17.5 4.5q-17 0 -17 -24v-56h-73v66
q0 43 18.5 68.5t58.5 25.5q26 0 48.5 -11.5t48.5 -26.5l38 -22q11 -6 20 -10.5t17 -4.5q18 0 18 24v56h73v-66q0 -43 -19 -68.5t-59 -25.5q-27 0 -48.5 11.5t-47.5 26.5z" />
    <glyph glyph-name="Wacute.sc" horiz-adv-x="940" 
d="M471 421l-150 -424h-79l-191 565h101l136 -419l146 422h80l147 -425l137 422h91l-186 -565h-83zM534 780h110l-120 -150h-102z" />
    <glyph glyph-name="Wcircumflex.sc" horiz-adv-x="940" 
d="M471 421l-150 -424h-79l-191 565h101l136 -419l146 422h80l147 -425l137 422h91l-186 -565h-83zM472 716l-81 -89h-98l139 156h78l136 -156h-94z" />
    <glyph glyph-name="Wdieresis.sc" horiz-adv-x="940" 
d="M471 421l-150 -424h-79l-191 565h101l136 -419l146 422h80l147 -425l137 422h91l-186 -565h-83zM323 769h92v-139h-92v139zM527 769h92v-139h-92v139z" />
    <glyph glyph-name="Wgrave.sc" horiz-adv-x="940" 
d="M471 421l-150 -424h-79l-191 565h101l136 -419l146 422h80l147 -425l137 422h91l-186 -565h-83zM420 630l-120 150h110l112 -150h-102z" />
    <glyph glyph-name="Yacute.sc" horiz-adv-x="647" 
d="M374 0h-95v237l-253 325h118l185 -240l185 240h107l-247 -324v-238zM382 780h110l-120 -150h-102z" />
    <glyph glyph-name="Ycircumflex.sc" horiz-adv-x="647" 
d="M374 0h-95v237l-253 325h118l185 -240l185 240h107l-247 -324v-238zM330 716l-81 -89h-98l139 156h78l136 -156h-94z" />
    <glyph glyph-name="Ydieresis.sc" horiz-adv-x="647" 
d="M374 0h-95v237l-253 325h118l185 -240l185 240h107l-247 -324v-238zM181 769h92v-139h-92v139zM385 769h92v-139h-92v139z" />
    <glyph glyph-name="Ygrave.sc" horiz-adv-x="647" 
d="M374 0h-95v237l-253 325h118l185 -240l185 240h107l-247 -324v-238zM286 630l-120 150h110l112 -150h-102z" />
    <glyph glyph-name="Zacute.sc" horiz-adv-x="671" 
d="M614 0h-547v54l363 424h-355v84h500v-54l-366 -423h405v-85zM377 780h110l-120 -150h-102z" />
    <glyph glyph-name="Zcaron.sc" horiz-adv-x="671" 
d="M614 0h-547v54l363 424h-355v84h500v-54l-366 -423h405v-85zM363 627h-78l-136 156h94l81 -89l80 89h98z" />
    <glyph glyph-name="Zdotaccent.sc" horiz-adv-x="671" 
d="M614 0h-547v54l363 424h-355v84h500v-54l-366 -423h405v-85zM276 773h94v-143h-94v143z" />
    <glyph glyph-name="germandbls.sc" horiz-adv-x="1278" 
d="M297 490q-63 0 -94.5 -20t-31.5 -54q0 -31 25.5 -49t73.5 -24l104 -11q39 -4 74 -14.5t61 -30.5t41.5 -50.5t15.5 -75.5q0 -36 -14.5 -67t-43.5 -54.5t-73 -36.5t-103 -13q-68 0 -115.5 15.5t-80 40t-51 55.5t-27.5 61h99q6 -15 18.5 -31t33.5 -29.5t51 -22t72 -8.5
q69 0 104.5 24t35.5 61q0 44 -29.5 62t-75.5 23q-29 4 -52 6t-53 5q-40 4 -74 16t-58.5 32t-38.5 48t-14 66q0 36 16 65.5t44.5 50t69 31.5t90.5 11q64 0 110 -14t76 -36.5t46.5 -50t23.5 -54.5h-96q-6 12 -18 25t-31.5 23.5t-46.5 17.5t-64 7zM936 490q-63 0 -94.5 -20
t-31.5 -54q0 -31 25.5 -49t73.5 -24l104 -11q39 -4 74 -14.5t61 -30.5t41.5 -50.5t15.5 -75.5q0 -36 -14.5 -67t-43.5 -54.5t-73 -36.5t-103 -13q-68 0 -115.5 15.5t-80 40t-51 55.5t-27.5 61h99q6 -15 18.5 -31t33.5 -29.5t51 -22t72 -8.5q69 0 104.5 24t35.5 61
q0 44 -29.5 62t-75.5 23q-29 4 -52 6t-53 5q-40 4 -74 16t-58.5 32t-38.5 48t-14 66q0 36 16 65.5t44.5 50t69 31.5t90.5 11q64 0 110 -14t76 -36.5t46.5 -50t23.5 -54.5h-96q-6 12 -18 25t-31.5 23.5t-46.5 17.5t-64 7z" />
    <glyph glyph-name="napostrophe.sc" horiz-adv-x="964" 
d="M851 -3h-70l-359 451v-448h-89v562h110l320 -408v408h88v-565zM65 404q25 47 43 97t18 105h-55v130h116v-120q0 -66 -15.5 -119.5t-35.5 -92.5h-71z" />
    <glyph glyph-name="f.short" horiz-adv-x="489" 
d="M267 412v-412h-91v412h-146v82h146v78q0 79 42.5 121.5t133.5 42.5h139v-82h-129q-50 0 -72.5 -24t-22.5 -71v-65h192v-82h-192z" />
    <glyph glyph-name="f_f.short" horiz-adv-x="843" 
d="M530 412h-263v-412h-91v412h-146v82h146v78q0 79 42.5 121.5t133.5 42.5h110v-82h-100q-50 0 -72.5 -24t-22.5 -71v-65h263v78q0 79 42.5 121.5t133.5 42.5h139v-82h-129q-50 0 -72.5 -24t-22.5 -71v-65h192v-82h-192v-412h-91v412z" />
    <glyph glyph-name="four.denalt" horiz-adv-x="488" 
d="M365 122v-122h-84v122h-201v304h84v-231h117v174h84v-174h84v-73h-84z" />
    <glyph glyph-name="four.numalt" horiz-adv-x="488" 
d="M365 406v-122h-84v122h-201v304h84v-231h117v174h84v-174h84v-73h-84z" />
    <glyph glyph-name="four.oldalt" horiz-adv-x="722" 
d="M520 82v-230h-97v230h-308v480h96v-393h212v298h97v-298h164v-87h-164z" />
    <glyph glyph-name="four.subalt" horiz-adv-x="543" 
d="M393 20v-144h-84v144h-223v350h83v-273h140v208h84v-208h106v-77h-106z" />
    <glyph glyph-name="four.supalt" horiz-adv-x="543" 
d="M393 386v-144h-84v144h-223v350h83v-273h140v208h84v-208h106v-77h-106z" />
    <glyph glyph-name="four.tabalt" horiz-adv-x="650" 
d="M480 223v-223h-96v223h-292v487h96v-400h196v295h96v-295h130v-87h-130z" />
    <glyph glyph-name="uni200A" unicode="&#x200a;" horiz-adv-x="83" 
 />
    <glyph glyph-name="j.short" horiz-adv-x="281" 
d="M93 732h95v-143h-95v143zM186 -53q0 -85 -41.5 -128t-126.5 -43h-74v85h59q92 0 92 96v537h91v-547z" />
    <glyph glyph-name="ringacute" 
d="M354 1010h98l-104 -150h-91zM300 567q-28 0 -52 10t-41.5 27t-27.5 40.5t-10 49.5q0 27 10 50t27.5 40t41.5 27t52 10t52 -10t41.5 -27t27.5 -40t10 -50q0 -26 -10 -49.5t-27.5 -40.5t-41.5 -27t-52 -10zM300 629q29 0 46.5 19t17.5 46q0 28 -17.5 46.5t-46.5 18.5
t-46.5 -18.5t-17.5 -46.5q0 -27 17.5 -46t46.5 -19z" />
    <glyph glyph-name="ringacute.uc" 
d="M357 1201h106l-112 -140h-98zM300 768q-28 0 -52 10t-41.5 27t-27.5 40.5t-10 49.5q0 27 10 50t27.5 40t41.5 27t52 10t52 -10t41.5 -27t27.5 -40t10 -50q0 -26 -10 -49.5t-27.5 -40.5t-41.5 -27t-52 -10zM300 830q29 0 46.5 19t17.5 46q0 28 -17.5 46.5t-46.5 18.5
t-46.5 -18.5t-17.5 -46.5q0 -27 17.5 -46t46.5 -19z" />
    <glyph glyph-name="uni01FA.sc" horiz-adv-x="672" 
d="M479 124h-292l-56 -124h-92l256 565h82l256 -565h-98zM442 206l-109 239l-108 -239h217zM393 1053h106l-112 -140h-98zM336 620q-28 0 -52 10t-41.5 27t-27.5 40.5t-10 49.5q0 27 10 50t27.5 40t41.5 27t52 10t52 -10t41.5 -27t27.5 -40t10 -50q0 -26 -10 -49.5
t-27.5 -40.5t-41.5 -27t-52 -10zM336 682q29 0 46.5 19t17.5 46q0 28 -17.5 46.5t-46.5 18.5t-46.5 -18.5t-17.5 -46.5q0 -27 17.5 -46t46.5 -19z" />
    <glyph glyph-name="uni0237" unicode="&#x237;" horiz-adv-x="281" 
d="M186 -53q0 -85 -41.5 -128t-126.5 -43h-133v85h118q92 0 92 96v537h91v-547v0z" />
    <glyph glyph-name="uni2009" unicode="&#x2009;" horiz-adv-x="166" 
 />
    <glyph glyph-name="won" unicode="&#x20a9;" horiz-adv-x="1016" 
d="M575 318h-128l-86 -322h-84l-87 322h-140v78h119l-85 314h96l81 -314h123l83 318h91l83 -318h125l79 314h87l-80 -314h114v-78h-134l-82 -322h-89zM554 396l-43 161l-43 -161h86zM322 159l42 159h-83zM705 153l42 165h-85z" />
    </font>
</defs>
</svg>
