<?xml version="1.0" standalone="no"?>
<!DOCTYPE svg PUBLIC "-//W3C//DTD SVG 1.1//EN" "http://www.w3.org/Graphics/SVG/1.1/DTD/svg11.dtd" >
<svg xmlns="http://www.w3.org/2000/svg" xmlns:xlink="http://www.w3.org/1999/xlink" version="1.1">
<metadata>
Created by FontForge 20170924 at Fri Jun  9 16:19:24 2017
 By www-data
Copyright (C)2016 Commercial Type.
</metadata>
<defs>
<font id="." horiz-adv-x="600" >
  <font-face 
    font-family="."
    font-weight="500"
    font-stretch="normal"
    units-per-em="1000"
    panose-1="0 0 0 0 0 0 0 0 0 0"
    ascent="800"
    descent="-200"
    x-height="506"
    cap-height="710"
    bbox="-111 -322 1382 1208"
    underline-thickness="76"
    underline-position="-76"
    unicode-range="U+000D-FB02"
  />
<missing-glyph horiz-adv-x="258" 
 />
    <glyph glyph-name=".notdef" horiz-adv-x="258" 
 />
    <glyph glyph-name=".null" horiz-adv-x="0" 
 />
    <glyph glyph-name=".null" horiz-adv-x="0" 
 />
    <glyph glyph-name="nonmarkingreturn" unicode="&#xd;" horiz-adv-x="258" 
 />
    <glyph glyph-name="space" unicode=" " horiz-adv-x="258" 
 />
    <glyph glyph-name="percent" unicode="%" horiz-adv-x="1003" 
d="M245 348q-40 0 -74 14.5t-59.5 39.5t-40 59t-14.5 74t14.5 74t40 59t59.5 39.5t74 14.5t74 -14.5t59.5 -39.5t40 -59t14.5 -74t-14.5 -74t-40 -59t-59.5 -39.5t-74 -14.5zM698 710h119l-512 -710h-119zM245 443q39 0 63.5 26.5t24.5 65.5q0 38 -24.5 64.5t-63.5 26.5
t-63 -26.5t-24 -64.5q0 -39 24 -65.5t63 -26.5zM758 -14q-40 0 -74 14.5t-59.5 39.5t-40 59t-14.5 74t14.5 74t40 59t59.5 39.5t74 14.5t74 -14.5t59.5 -39.5t40 -59t14.5 -74t-14.5 -74t-40 -59t-59.5 -39.5t-74 -14.5zM758 82q39 0 63.5 26.5t24.5 64.5q0 39 -24.5 65.5
t-63.5 26.5q-38 0 -62.5 -26.5t-24.5 -65.5q0 -38 24.5 -64.5t62.5 -26.5z" />
    <glyph glyph-name="ampersand" unicode="&#x26;" horiz-adv-x="791" 
d="M509 103q-24 -25 -48.5 -46t-52 -36.5t-59.5 -24t-71 -8.5q-51 0 -93 13.5t-72 38t-46.5 59.5t-16.5 79q0 39 13.5 71t36 57.5t51 46.5t59.5 39q-36 38 -59.5 76t-23.5 86q0 35 14 66t40 53.5t62.5 35.5t80.5 13q48 0 86 -12.5t63.5 -34.5t39 -53t13.5 -68
q0 -33 -12.5 -59.5t-32 -48.5t-43.5 -39.5t-48 -31.5l114 -113l122 132h147l-190 -210l186 -184h-153zM250 553q0 -31 22 -57.5t50 -53.5q35 23 59.5 48.5t24.5 60.5t-22.5 54t-56.5 19q-33 0 -55 -19.5t-22 -51.5zM180 191q0 -38 27 -64t74 -26q42 0 76 20.5t72 58.5
l-146 141q-21 -14 -39.5 -28t-32.5 -29t-22.5 -33t-8.5 -40z" />
    <glyph glyph-name="quotesingle" unicode="'" horiz-adv-x="296" 
d="M91 403v307h114v-307h-114z" />
    <glyph glyph-name="parenleft" unicode="(" horiz-adv-x="364" 
d="M317 822q-18 -35 -40 -80t-40.5 -103.5t-31 -130t-12.5 -158.5t12.5 -159t31 -130.5t40.5 -104.5t40 -80h-116q-18 34 -39 81t-39.5 106t-30.5 130.5t-12 156.5t12 156.5t30.5 130t39.5 104.5t39 81h116v0z" />
    <glyph glyph-name="parenright" unicode=")" horiz-adv-x="364" 
d="M47 -124q18 34 40 80t40.5 104.5t31 130.5t12.5 159t-12.5 158.5t-31 130t-40.5 103.5t-40 80h116q18 -35 39.5 -81t39.5 -104.5t30.5 -130t12.5 -156.5t-12.5 -156.5t-30.5 -130.5t-39.5 -106t-39.5 -81h-116v0z" />
    <glyph glyph-name="asterisk" unicode="*" horiz-adv-x="484" 
d="M335 342l-92 117l-93 -117l-72 54l96 118l-138 47l30 82l130 -45v139h92l-1 -139l131 45l30 -82l-137 -47l96 -118z" />
    <glyph glyph-name="plus" unicode="+" horiz-adv-x="696" 
d="M407 266v-217h-118v217h-209v112h209v216h118v-216h209v-112h-209z" />
    <glyph glyph-name="comma" unicode="," horiz-adv-x="313" 
d="M75 -207q28 45 51.5 98t25.5 109h-72v170h153v-154q0 -67 -20 -125t-43 -98h-95z" />
    <glyph glyph-name="hyphen" unicode="-" horiz-adv-x="493" 
d="M80 357h333v-118h-333v118z" />
    <glyph glyph-name="period" unicode="." horiz-adv-x="313" 
d="M80 170h153v-170h-153v170z" />
    <glyph glyph-name="slash" unicode="/" horiz-adv-x="422" 
d="M276 760h113l-249 -830h-113z" />
    <glyph glyph-name="zero" unicode="0" horiz-adv-x="695" 
d="M348 723q60 0 108.5 -18t82 -52t52 -83t18.5 -110v-210q0 -63 -18.5 -112t-52.5 -82.5t-82.5 -51t-107.5 -17.5t-107.5 17.5t-82.5 51t-52.5 82.5t-18.5 112v210q0 61 18.5 110t52 83t82 52t108.5 18zM348 107q64 0 96.5 41t32.5 104v206q0 63 -32.5 104t-96.5 41
q-65 0 -97 -41t-32 -104v-206q0 -63 32 -104t97 -41z" />
    <glyph glyph-name="one" unicode="1" horiz-adv-x="459" 
d="M351 0h-132v563l-175 -100v124l208 126h99v-713z" />
    <glyph glyph-name="two" unicode="2" horiz-adv-x="630" 
d="M592 0h-525v86l252 238q49 47 75 84.5t26 85.5t-28.5 78.5t-81.5 30.5q-52 0 -81.5 -33t-29.5 -85v-42h-130v45q0 49 16 92t47 74.5t76 49.5t102 18q58 0 103 -16.5t76.5 -46.5t48 -71.5t16.5 -90.5q0 -42 -11.5 -76.5t-32.5 -65t-49 -59.5t-61 -60l-126 -119h318v-117z
" />
    <glyph glyph-name="three" unicode="3" horiz-adv-x="649" 
d="M586 200q0 -48 -18 -87t-52 -66.5t-84 -43t-113 -15.5q-68 0 -117.5 19.5t-81.5 49.5t-48.5 67.5t-19.5 73.5h133q3 -15 12.5 -31.5t25.5 -30t40 -22t56 -8.5q63 0 98 27t35 75t-30 73.5t-85 25.5h-134v116h130q46 0 72 23t26 67t-31.5 68.5t-84.5 24.5q-29 0 -49.5 -7.5
t-34.5 -20t-22 -28t-11 -31.5h-131q1 36 16.5 72t46 65t76.5 47.5t108 18.5q120 0 185 -54.5t65 -145.5q0 -32 -9.5 -56t-23.5 -42t-31 -30t-33 -18q20 -6 41 -19t38.5 -34t28.5 -51.5t11 -71.5z" />
    <glyph glyph-name="four" unicode="4" horiz-adv-x="704" 
d="M525 205v-205h-129v205h-356v81l335 424h150v-392h144v-113h-144zM396 318v262l-203 -262h203z" />
    <glyph glyph-name="five" unicode="5" horiz-adv-x="656" 
d="M99 710h466v-113h-341v-170q20 20 54.5 36t85.5 16q47 0 88.5 -16t72.5 -46.5t49 -74.5t18 -100v-8q0 -54 -18.5 -99t-52.5 -77.5t-83 -51t-110 -18.5q-67 0 -116 19t-81.5 50.5t-48.5 70.5t-18 80h132q2 -15 10 -32.5t23.5 -33t39.5 -26t59 -10.5q59 0 95 36t36 91v7
q0 58 -35.5 92.5t-95.5 34.5q-29 0 -49 -7t-33.5 -17t-21 -19.5t-10.5 -15.5h-115v402z" />
    <glyph glyph-name="six" unicode="6" horiz-adv-x="660" 
d="M599 238q0 -53 -18.5 -99t-53.5 -79.5t-84.5 -52.5t-112.5 -19t-113 18.5t-84.5 52t-52.5 79.5t-18 100q0 41 8.5 76t24 67t36.5 62.5t47 63.5l157 203h151l-204 -259q17 11 40 17t54 6q49 0 90 -17t70.5 -48t46 -74.5t16.5 -96.5zM466 238q0 58 -35.5 96t-101.5 38
q-61 0 -98 -38t-37 -96q0 -27 9.5 -51t26.5 -42t42 -28.5t57 -10.5q33 0 58.5 10.5t43 28.5t26.5 42t9 51z" />
    <glyph glyph-name="seven" unicode="7" horiz-adv-x="621" 
d="M241 0h-147l324 592h-364v118h520v-90z" />
    <glyph glyph-name="eight" unicode="8" horiz-adv-x="672" 
d="M604 192q0 -45 -17.5 -82.5t-50.5 -64.5t-80.5 -42t-107.5 -15h-28q-59 0 -105.5 15t-79 42t-50 64.5t-17.5 82.5q0 39 11.5 68.5t29.5 51t39.5 35t41.5 19.5q-18 6 -37.5 18t-35 31.5t-26 46.5t-10.5 63q0 43 15.5 79t46.5 62t75.5 41t103.5 15h27q59 0 104 -15t76 -41
t46.5 -62t15.5 -79q0 -36 -10.5 -63t-26.5 -46.5t-35 -31.5t-37 -18q19 -6 40.5 -19.5t39.5 -35t30 -51t12 -68.5zM326 613q-51 0 -82.5 -26.5t-31.5 -71.5t31.5 -71.5t82.5 -26.5h20q51 0 82.5 26.5t31.5 71.5t-31.5 71.5t-82.5 26.5h-20zM324 310q-54 0 -88 -29t-34 -78
t34 -77.5t88 -28.5h24q54 0 88 28.5t34 77.5q0 50 -34 78.5t-88 28.5h-24z" />
    <glyph glyph-name="nine" unicode="9" horiz-adv-x="660" 
d="M325 0h-150l204 260q-17 -11 -40 -17.5t-55 -6.5q-49 0 -90 17t-70 48t-45.5 74.5t-16.5 96.5t18.5 99t53 79.5t84 52.5t112.5 19t113 -18.5t84.5 -52t53 -79.5t18.5 -100q0 -41 -8.5 -76t-24.5 -67t-37.5 -62.5t-46.5 -63.5zM194 472q0 -58 35.5 -96t101.5 -38
q62 0 98.5 38t36.5 96q0 27 -9 51t-26.5 42t-42.5 28.5t-57 10.5q-33 0 -58.5 -10.5t-43 -28.5t-26.5 -42t-9 -51z" />
    <glyph glyph-name="colon" unicode=":" horiz-adv-x="323" 
d="M85 170h153v-170h-153v170zM85 501h153v-170h-153v170z" />
    <glyph glyph-name="semicolon" unicode=";" horiz-adv-x="323" 
d="M85 501h153v-170h-153v170zM80 -207q28 45 51.5 98t25.5 109h-72v170h153v-154q0 -67 -20 -125t-43 -98h-95z" />
    <glyph glyph-name="less" unicode="&#x3c;" horiz-adv-x="638" 
d="M548 55l-468 203v103l468 204v-124l-318 -132l318 -132v-122z" />
    <glyph glyph-name="equal" unicode="=" horiz-adv-x="701" 
d="M85 371v111h532v-111h-532zM85 151v111h532v-111h-532z" />
    <glyph glyph-name="greater" unicode="&#x3e;" horiz-adv-x="638" 
d="M90 55v123l318 133l-318 132v122l468 -204v-103z" />
    <glyph glyph-name="question" unicode="?" horiz-adv-x="547" 
d="M282 235h-128v22q0 23 3 40t12 31.5t24.5 28t40.5 29.5l70 45q29 19 48.5 42t19.5 56q0 39 -24.5 62t-68.5 23q-45 0 -69.5 -27.5t-24.5 -70.5v-29h-124v36q0 45 15 81.5t43 63t68.5 40.5t91.5 14q106 0 163.5 -51t57.5 -142q0 -35 -8.5 -62.5t-24.5 -50t-40 -42.5
t-55 -39l-61 -39q-17 -12 -23 -24.5t-6 -32.5v-4zM142 159h152v-159h-152v159z" />
    <glyph glyph-name="at" unicode="@" horiz-adv-x="1054" 
d="M954 -5q-16 -25 -47.5 -55t-80 -56.5t-116 -44.5t-154.5 -18q-119 0 -211 35.5t-155 97.5t-96 146t-33 180q0 101 36 187t100.5 148.5t154 97.5t195.5 35q111 0 194.5 -31.5t139.5 -85t84.5 -124t28.5 -148.5q0 -64 -16.5 -118.5t-46.5 -94t-72 -62t-93 -22.5
q-54 0 -85.5 18.5t-42.5 47.5q-18 -26 -55 -46t-91 -20q-44 0 -81.5 14.5t-65 42t-43 67.5t-15.5 91q0 49 15.5 91t45 73.5t70.5 49.5t92 18q59 0 93.5 -24t48.5 -51l12 68h114l-50 -287q-5 -30 5 -48t40 -18q22 0 44.5 13t40 39t28.5 66t11 93q0 67 -23 122.5t-68 95
t-110 61.5t-149 22q-83 0 -153.5 -27.5t-122 -77.5t-80.5 -120.5t-29 -157.5q0 -81 28 -149t79.5 -116.5t124 -75.5t162.5 -27q55 0 99 9t78 22t57.5 27.5t38.5 26.5h125zM525 403q-54 0 -86 -36t-32 -92q0 -48 26.5 -77.5t76.5 -29.5q54 0 86 36t32 92q0 48 -26 77.5
t-77 29.5z" />
    <glyph glyph-name="A" unicode="A" horiz-adv-x="816" 
d="M583 146h-358l-65 -146h-135l319 713h127l320 -713h-143zM532 262l-128 287l-128 -287h256z" />
    <glyph glyph-name="B" unicode="B" horiz-adv-x="794" 
d="M98 710h380q116 0 177 -51t61 -141q0 -29 -9 -52.5t-24 -41.5t-34.5 -30.5t-39.5 -19.5q25 -8 47 -22.5t39 -36t27 -49.5t10 -63q0 -93 -62.5 -148t-185.5 -55h-386v710zM230 596v-174h233q115 0 115 87q0 45 -29 66t-86 21h-233zM230 309v-195h238q65 0 96 25t31 73
q0 97 -127 97h-238z" />
    <glyph glyph-name="C" unicode="C" horiz-adv-x="803" 
d="M418 -12q-78 0 -143.5 28t-113.5 77.5t-74.5 116.5t-26.5 145t26.5 145t74.5 116.5t113.5 77.5t143.5 28q82 0 141.5 -24.5t99 -59.5t61.5 -75t29 -71h-138q-8 14 -23 32.5t-38.5 35t-56.5 28t-75 11.5q-50 0 -90.5 -19.5t-69 -52.5t-44 -77.5t-15.5 -94.5t15.5 -94.5
t44 -77.5t69 -52.5t90.5 -19.5q46 0 80 12t57 28.5t37 35t21 32.5h136q-6 -28 -26.5 -67.5t-59.5 -76t-99.5 -62t-145.5 -25.5z" />
    <glyph glyph-name="D" unicode="D" horiz-adv-x="826" 
d="M98 710h287q85 0 155 -24t120 -69.5t77.5 -111.5t27.5 -150q0 -83 -27.5 -149t-77 -111.5t-120 -70t-155.5 -24.5h-287v710zM232 592v-474h151q56 0 101 16.5t77 47t49.5 74.5t17.5 99q0 57 -17.5 101t-49.5 74t-77 46t-101 16h-151z" />
    <glyph glyph-name="E" unicode="E" horiz-adv-x="752" 
d="M98 710h575v-116h-441v-162h263v-117h-263v-196h481v-119h-615v710z" />
    <glyph glyph-name="F" unicode="F" horiz-adv-x="735" 
d="M98 710h601v-117h-467v-167h269v-117h-269v-309h-134v710z" />
    <glyph glyph-name="G" unicode="G" horiz-adv-x="842" 
d="M762 92q-18 -16 -46 -34.5t-67 -34t-89 -26t-111 -10.5q-88 0 -160 27t-123 76t-78.5 117t-27.5 150q0 79 27 146.5t75.5 116t115.5 76t147 27.5q78 0 134.5 -20t95 -49t60 -63.5t30.5 -62.5h-142q-8 10 -22 23t-35.5 25t-51.5 20t-69 8q-53 0 -95 -19t-71.5 -52
t-45.5 -78.5t-16 -97.5q0 -56 17.5 -102t50.5 -79t80 -51.5t105 -18.5q69 0 115 14.5t68 29.5v145h-250v114h379v-317v0z" />
    <glyph glyph-name="H" unicode="H" horiz-adv-x="854" 
d="M622 297h-390v-297h-134v710h134v-293h390v293h135v-710h-135v297z" />
    <glyph glyph-name="I" unicode="I" horiz-adv-x="333" 
d="M99 710h135v-710h-135v710z" />
    <glyph glyph-name="J" unicode="J" horiz-adv-x="675" 
d="M580 230q0 -115 -68 -179t-186 -64t-183 63.5t-65 179.5v190h130v-182q0 -57 30.5 -92t87.5 -35q59 0 89.5 35t30.5 92v472h134v-480v0z" />
    <glyph glyph-name="K" unicode="K" horiz-adv-x="798" 
d="M232 325v-325h-134v710h134v-319l366 319h180l-397 -345l414 -365h-187z" />
    <glyph glyph-name="L" unicode="L" horiz-adv-x="707" 
d="M671 0h-573v710h134v-589h439v-121z" />
    <glyph glyph-name="M" unicode="M" horiz-adv-x="1015" 
d="M511 193l213 517h193v-710h-130v582l-238 -585h-91l-236 580v-577h-124v710h201z" />
    <glyph glyph-name="N" unicode="N" horiz-adv-x="862" 
d="M764 -3h-105l-431 544v-541h-130v710h156l381 -487v487h129v-713z" />
    <glyph glyph-name="O" unicode="O" horiz-adv-x="864" 
d="M432 -12q-80 0 -148 27.5t-118 76t-78 116t-28 147.5t28.5 147.5t78.5 116t118 76t147 27.5t147 -27.5t118 -76t78.5 -116t28.5 -147.5t-28.5 -147t-78.5 -116t-118 -76.5t-147 -27.5zM432 110q53 0 96.5 19t74 52.5t47.5 78t17 95.5t-17 95.5t-47.5 77.5t-74 52.5
t-96.5 19.5t-96 -19.5t-74 -52.5t-47.5 -77.5t-16.5 -95.5t16.5 -96t47 -78t74 -52t96.5 -19z" />
    <glyph glyph-name="P" unicode="P" horiz-adv-x="790" 
d="M98 710h392q120 0 184 -55.5t64 -161.5q0 -103 -64 -162t-184 -59h-258v-272h-134v710zM232 590v-198h251q59 0 88 27t29 72q0 48 -28.5 73.5t-88.5 25.5h-251z" />
    <glyph glyph-name="Q" unicode="Q" horiz-adv-x="864" 
d="M804 355q0 -57 -15 -107.5t-42.5 -92.5t-66 -75t-85.5 -54l180 -178h-172l-151 144h-20q-80 0 -148 27t-117.5 75.5t-78 115t-28.5 145.5q0 80 28.5 147.5t78.5 116t118 76t147 27.5t147 -27.5t118 -76t78.5 -116t28.5 -147.5zM432 110q53 0 96.5 19t74 52.5t47.5 78
t17 95.5t-17 95.5t-47.5 77.5t-74 52.5t-96.5 19.5t-96 -19.5t-74 -52.5t-47.5 -77.5t-16.5 -95.5t16.5 -96t47 -78t74 -52t96.5 -19z" />
    <glyph glyph-name="R" unicode="R" horiz-adv-x="809" 
d="M98 710h397q117 0 180 -53.5t63 -158.5q0 -72 -36 -121.5t-104 -70.5l167 -306h-142l-161 292h-230v-292h-134v710zM232 591v-182h252q116 0 116 89q0 49 -29 71t-87 22h-252z" />
    <glyph glyph-name="S" unicode="S" horiz-adv-x="755" 
d="M350 609q-73 0 -110.5 -23t-37.5 -62q0 -36 30 -57t86 -28q33 -3 61 -6t64 -7q53 -5 99 -19t79.5 -39.5t53 -64.5t19.5 -95q0 -48 -19 -88.5t-56.5 -70t-94.5 -46t-132 -16.5q-87 0 -148.5 20t-102.5 51.5t-64.5 70.5t-33.5 77h143q7 -17 22 -35.5t39.5 -34t60 -25.5
t84.5 -10q81 0 123 27.5t42 70.5q0 51 -34 71.5t-89 27.5l-126 13q-53 5 -97.5 20.5t-76.5 41.5t-50 62.5t-18 84.5t20.5 85.5t58 63.5t90 40t115.5 14q84 0 142.5 -18t96.5 -46.5t59 -63.5t29 -69h-137q-8 13 -22 28t-37 27t-55.5 20t-75.5 8z" />
    <glyph glyph-name="T" unicode="T" horiz-adv-x="772" 
d="M37 710h698v-120h-282v-590h-134v590h-282v120z" />
    <glyph glyph-name="U" unicode="U" horiz-adv-x="842" 
d="M422 111q46 0 82 14.5t60.5 41.5t37.5 64.5t13 83.5v395h133v-404q0 -67 -21 -125t-62 -101.5t-102 -68.5t-141 -25q-83 0 -144.5 24.5t-102 68t-61 101.5t-20.5 126v404h135v-395q0 -46 12.5 -83.5t37 -64.5t60.5 -41.5t83 -14.5z" />
    <glyph glyph-name="V" unicode="V" horiz-adv-x="809" 
d="M476 -2h-134l-313 712h154l229 -544l230 544h138z" />
    <glyph glyph-name="W" unicode="W" horiz-adv-x="1138" 
d="M571 513l-181 -516h-116l-241 713h146l163 -509l174 512h119l175 -513l163 510h132l-234 -713h-120z" />
    <glyph glyph-name="X" unicode="X" horiz-adv-x="828" 
d="M410 266l-230 -266h-158l308 359l-300 351h176l211 -250l214 250h162l-297 -344l310 -366h-169z" />
    <glyph glyph-name="Y" unicode="Y" horiz-adv-x="782" 
d="M465 0h-138v299l-319 411h171l221 -289l220 289h154l-309 -410v-300z" />
    <glyph glyph-name="Z" unicode="Z" horiz-adv-x="791" 
d="M751 0h-700v77l442 514h-432v119h643v-77l-446 -513h493v-120z" />
    <glyph glyph-name="bracketleft" unicode="[" horiz-adv-x="385" 
d="M94 822h269v-97h-158v-752h158v-97h-269v946z" />
    <glyph glyph-name="backslash" unicode="\" horiz-adv-x="422" 
d="M283 -70l-250 830h113l249 -830h-112z" />
    <glyph glyph-name="bracketright" unicode="]" horiz-adv-x="385" 
d="M23 822h268v-946h-268v97h157v752h-157v97z" />
    <glyph glyph-name="asciicircum" unicode="^" horiz-adv-x="585" 
d="M291 561l-132 -298h-125l201 453h113l202 -453h-128z" />
    <glyph glyph-name="underscore" unicode="_" horiz-adv-x="617" 
d="M34 -60h549v-93h-549v93z" />
    <glyph glyph-name="grave" unicode="`" 
d="M295 580l-116 187h133l109 -187h-126z" />
    <glyph glyph-name="a" unicode="a" horiz-adv-x="668" 
d="M459 80q-4 -8 -15.5 -23t-32 -30t-51 -26.5t-72.5 -11.5q-49 0 -92 18t-75.5 52t-51.5 83t-19 111q0 61 19 110t51.5 83.5t76 52.5t92.5 18q40 0 70 -10.5t50.5 -25t32.5 -29t16 -22.5v76h128v-506h-127v80zM460 253q0 32 -10 60t-28 48.5t-43.5 32t-56.5 11.5
q-32 0 -58.5 -11.5t-45 -32t-28.5 -48.5t-10 -60t10 -60t28.5 -48.5t45 -32t58.5 -11.5q31 0 56.5 11.5t43.5 32t28 48.5t10 60z" />
    <glyph glyph-name="b" unicode="b" horiz-adv-x="674" 
d="M208 0h-125v736h126v-310q4 7 16 22.5t33.5 30.5t52.5 26.5t72 11.5q50 0 94 -18t76.5 -52t51.5 -83t19 -111t-19 -111t-51.5 -83t-76.5 -52t-94 -18q-41 0 -72 11t-52.5 25.5t-34 29t-16.5 22.5v-77zM207 253q0 -32 10.5 -60t29 -48.5t45 -32t59.5 -11.5t59 11.5t45 32
t29 48.5t10 60q0 33 -10 60.5t-29 48t-45 32t-59 11.5t-59.5 -11.5t-45 -32t-29 -48t-10.5 -60.5z" />
    <glyph glyph-name="c" unicode="c" horiz-adv-x="601" 
d="M431 339q-3 5 -10.5 16t-22 22.5t-36 20t-51.5 8.5q-29 0 -53.5 -12t-42 -32.5t-27 -48.5t-9.5 -60t9.5 -60t27 -48.5t42 -32.5t54.5 -12q31 0 53 8.5t36 19.5t21.5 22.5t10.5 16.5h125q-2 -20 -15.5 -50.5t-42.5 -59.5t-75.5 -49.5t-114.5 -20.5q-55 0 -102.5 19.5
t-83 55t-55.5 84t-20 107.5q0 58 20 107t55 84.5t82.5 55t102.5 19.5q67 0 113.5 -20.5t75.5 -49t43 -59t17 -51.5h-127v0z" />
    <glyph glyph-name="d" unicode="d" horiz-adv-x="676" 
d="M466 80q-4 -8 -16 -23t-33.5 -30t-52.5 -26.5t-73 -11.5q-50 0 -93.5 18t-76.5 52t-52 83t-19 111t19 111t52 83t77 52t93 18q41 0 72 -11t52.5 -25t33.5 -29t16 -22v306h128v-736h-127v80zM467 253q0 33 -10 60.5t-28.5 48t-45 32t-58.5 11.5q-33 0 -60 -11.5t-45.5 -32
t-29 -48t-10.5 -60.5t10.5 -60.5t29 -48t45.5 -32t60 -11.5q32 0 58.5 11.5t45 32t28.5 48t10 60.5z" />
    <glyph glyph-name="e" unicode="e" horiz-adv-x="624" 
d="M314 519q58 0 107 -19.5t84 -55t54.5 -86t19.5 -112.5v-14h-402q2 -30 13.5 -55t30.5 -44t45 -29.5t58 -10.5q30 0 52 6.5t36.5 15.5t23 18.5t11.5 14.5h126q-3 -20 -18 -47.5t-45 -52.5t-76 -43t-110 -18q-62 0 -112.5 20t-86.5 56t-56 84.5t-20 105.5q0 59 19.5 108
t55 84t84 54.5t106.5 19.5zM314 420q-52 0 -86.5 -26.5t-46.5 -73.5h264q-14 48 -48 74t-83 26z" />
    <glyph glyph-name="f" unicode="f" horiz-adv-x="504" 
d="M295 398v-398h-128v398h-139v108h139v74q0 74 41 115t128 41h218v-102h-179q-42 0 -61 -20.5t-19 -58.5v-49h181v-108h-181z" />
    <glyph glyph-name="g" unicode="g" horiz-adv-x="674" 
d="M465 83q-4 -8 -16.5 -23.5t-33.5 -30.5t-52 -26.5t-72 -11.5q-50 0 -93.5 18t-76.5 52t-52 82.5t-19 110.5t19 111t52 82.5t76.5 51.5t93.5 18q41 0 71.5 -11t52 -25.5t33.5 -29.5t16 -22v77h128v-495q0 -52 -17 -95.5t-50.5 -74.5t-84.5 -48.5t-120 -17.5
q-73 0 -122.5 19.5t-80.5 45.5t-45.5 52.5t-17.5 40.5h147q3 -4 10 -12.5t21 -17.5t35.5 -15.5t52.5 -6.5q69 0 107 34.5t38 97.5v70zM466 254q0 32 -10 59.5t-28.5 48t-45 32t-58.5 11.5q-33 0 -59.5 -11.5t-45.5 -32t-29 -48t-10 -59.5t10 -59.5t29 -47.5t45.5 -32
t59.5 -12q32 0 58.5 12t45 32t28.5 47.5t10 59.5z" />
    <glyph glyph-name="h" unicode="h" horiz-adv-x="665" 
d="M210 0h-127v736h127v-315q7 13 21.5 30t35.5 31.5t48.5 24.5t62.5 10q48 0 86.5 -16.5t66.5 -46t43 -70.5t15 -89v-295h-129v270q0 60 -33 96.5t-90 36.5q-58 0 -92.5 -37t-34.5 -96v-270z" />
    <glyph glyph-name="i" unicode="i" horiz-adv-x="295" 
d="M81 739h133v-152h-133v152zM84 506h128v-506h-128v506z" />
    <glyph glyph-name="j" unicode="j" horiz-adv-x="296" 
d="M81 739h134v-152h-134v152zM212 -42q0 -88 -41 -129.5t-125 -41.5h-157v105h114q43 0 62 20t19 62v532h128v-548z" />
    <glyph glyph-name="k" unicode="k" horiz-adv-x="622" 
d="M209 230v-230h-126v736h126v-436l232 206h167l-269 -236l283 -270h-171z" />
    <glyph glyph-name="l" unicode="l" horiz-adv-x="297" 
d="M85 736h128v-736h-128v736z" />
    <glyph glyph-name="m" unicode="m" horiz-adv-x="1033" 
d="M210 0h-127v506h127v-85q7 14 21 30.5t35 31t48.5 24.5t61.5 10q65 0 112.5 -30.5t71.5 -82.5q9 17 24 37t37.5 37t53.5 28t71 11q48 0 87 -16.5t66 -46t42 -70.5t15 -89v-295h-128v270q0 60 -32 96.5t-88 36.5q-57 0 -91 -37t-34 -96v-270h-128v270q0 60 -32 96.5
t-88 36.5q-57 0 -91 -37t-34 -96v-270z" />
    <glyph glyph-name="n" unicode="n" horiz-adv-x="665" 
d="M210 0h-127v506h127v-85q7 13 21.5 30t35.5 31.5t48.5 24.5t62.5 10q48 0 86.5 -16.5t66.5 -46t43 -70.5t15 -89v-295h-129v270q0 60 -33 96.5t-90 36.5q-58 0 -92.5 -37t-34.5 -96v-270z" />
    <glyph glyph-name="o" unicode="o" horiz-adv-x="643" 
d="M322 519q58 0 107.5 -20t86 -55.5t57.5 -84t21 -106.5t-21 -106.5t-57.5 -84t-86 -55.5t-107.5 -20q-59 0 -108.5 20t-86.5 55.5t-57.5 84t-20.5 106.5t20.5 106.5t57.5 84t86.5 55.5t108.5 20zM322 101q32 0 58.5 11.5t45 32t29 48.5t10.5 60t-10.5 60t-29 48.5t-45 32
t-58.5 11.5t-58.5 -12t-45.5 -32.5t-29.5 -48t-10.5 -59.5t10.5 -59.5t29.5 -48t45.5 -32.5t58.5 -12z" />
    <glyph glyph-name="p" unicode="p" horiz-adv-x="674" 
d="M209 -212h-126v718h127v-80q3 7 15.5 22t34 30.5t52.5 27t72 11.5q49 0 93 -18t76.5 -52t51.5 -83t19 -111t-19 -111t-51.5 -83t-76.5 -52t-93 -18q-41 0 -72 11t-53 25.5t-34 29t-16 22.5v-289zM208 253q0 -32 10 -60t29 -48.5t45 -32t59 -11.5t59.5 11.5t45.5 32
t29 48.5t10 60q0 33 -10 60.5t-29 48t-45.5 32t-59.5 11.5t-59 -11.5t-45 -32t-29 -48t-10 -60.5z" />
    <glyph glyph-name="q" unicode="q" horiz-adv-x="676" 
d="M466 80q-4 -8 -16 -23t-33.5 -30t-52.5 -26.5t-73 -11.5q-49 0 -93 18t-77 52t-52 83t-19 111t19 111t52 83t77 52t94 18q41 0 71.5 -11t52 -25.5t33.5 -29t16 -21.5v76h128v-719h-127v293zM467 253q0 33 -10 60.5t-29 48t-45 32t-58 11.5q-33 0 -60 -11.5t-45.5 -32
t-29 -48t-10.5 -60.5q0 -32 10.5 -60t29 -48.5t45.5 -32t60 -11.5q32 0 58 11.5t45 32t29 48.5t10 60z" />
    <glyph glyph-name="r" unicode="r" horiz-adv-x="523" 
d="M210 0h-127v506h127v-85q5 11 15.5 26t29.5 29t48 23.5t71 9.5h118v-127h-135q-81 0 -114 -28t-33 -88v-266z" />
    <glyph glyph-name="s" unicode="s" horiz-adv-x="578" 
d="M327 198q-27 2 -45 4t-44 5q-42 3 -76 14.5t-58.5 31t-38 47.5t-13.5 65q0 36 15.5 64.5t45 48.5t70.5 31t92 11q68 0 113.5 -15.5t74 -37.5t42 -47t18.5 -43h-135q-3 4 -10.5 12t-21 15.5t-34 13t-48.5 5.5q-46 0 -69.5 -14t-23.5 -37q0 -21 17 -34.5t55 -18.5l86 -9
q103 -9 148 -49t45 -115q0 -71 -59 -115.5t-175 -44.5q-71 0 -118.5 18t-77.5 42.5t-44.5 51t-18.5 44.5h137q2 -5 9 -14t21.5 -19t37 -17t54.5 -7q53 0 78.5 16t25.5 40q0 23 -16 37.5t-59 19.5z" />
    <glyph glyph-name="t" unicode="t" horiz-adv-x="529" 
d="M482 0h-140q-90 0 -132.5 42t-42.5 123v232h-139v109h139v204h128v-204h187v-109h-187v-193q0 -48 19 -69t71 -21h97v-114z" />
    <glyph glyph-name="u" unicode="u" horiz-adv-x="652" 
d="M328 -11q-60 0 -106.5 17.5t-79 48.5t-49 74t-16.5 94v283h128v-269q0 -59 31 -95t90 -36t90 36t31 95v269h129v-283q0 -51 -16.5 -94t-48.5 -74t-78 -48.5t-105 -17.5z" />
    <glyph glyph-name="v" unicode="v" 
d="M363 -7h-120l-230 513h144l149 -354l149 354h131z" />
    <glyph glyph-name="w" unicode="w" horiz-adv-x="894" 
d="M447 348l-128 -352h-112l-189 510h139l117 -340l125 344h113l124 -341l116 337h124l-185 -510h-115z" />
    <glyph glyph-name="x" unicode="x" horiz-adv-x="629" 
d="M311 167l-150 -167h-147l224 250l-225 256h164l143 -165l148 165h148l-223 -248l223 -258h-157z" />
    <glyph glyph-name="y" unicode="y" horiz-adv-x="599" 
d="M273 -213h-128l96 222l-228 497h144l149 -344l149 344h130z" />
    <glyph glyph-name="z" unicode="z" horiz-adv-x="621" 
d="M585 0h-536v71l305 329h-297v106h491v-69l-309 -330h346v-107z" />
    <glyph glyph-name="braceleft" unicode="{" horiz-adv-x="399" 
d="M376 -124h-120q-83 0 -122 42t-25 129l27 184q5 35 -11.5 52t-50.5 17h-37v98h37q32 0 49.5 16t12.5 53l-27 184q-14 86 25 128.5t122 42.5h120v-97h-89q-38 0 -57 -18t-13 -54l26 -176q5 -30 0 -52.5t-16.5 -38t-28.5 -24.5t-36 -13q19 -4 36.5 -13t29 -24.5t16 -38
t-0.5 -52.5l-26 -172q-6 -38 13 -57t57 -19h89v-97z" />
    <glyph glyph-name="bar" unicode="|" horiz-adv-x="326" 
d="M106 822h114v-938h-114v938z" />
    <glyph glyph-name="braceright" unicode="}" horiz-adv-x="400" 
d="M290 47q14 -87 -25 -129t-122 -42h-120v97h89q38 0 57 19t13 57l-26 172q-5 30 -0.5 52.5t16 38t28.5 24.5t37 13q-20 4 -37 13t-28.5 24.5t-16 38t0.5 52.5l26 176q6 36 -13 54t-57 18h-89v97h120q83 0 122 -42.5t25 -128.5l-27 -184q-5 -37 12 -53t50 -16h38v-98h-38
q-34 0 -50.5 -17t-11.5 -52l27 -184v0z" />
    <glyph glyph-name="asciitilde" unicode="~" horiz-adv-x="718" 
d="M432 392q12 -17 24 -30t29 -13q18 0 26.5 13.5t8.5 35.5v181h122v-197q1 -77 -35.5 -122.5t-107.5 -45.5q-52 0 -85.5 26t-65.5 70l-62 85q-14 19 -25 31t-28 12q-19 0 -27 -13.5t-8 -35.5v-178h-123v194q0 76 36.5 122t107.5 46q52 0 85 -26t66 -71l62 -84v0z" />
    <glyph glyph-name="uni00A0" unicode="&#xa0;" horiz-adv-x="258" 
 />
    <glyph glyph-name="exclamdown" unicode="&#xa1;" horiz-adv-x="342" 
d="M94 506h153v-159h-153v159zM108 271h125v-475h-125v475z" />
    <glyph glyph-name="cent" unicode="&#xa2;" horiz-adv-x="583" 
d="M531 162q-2 -18 -11.5 -43t-29.5 -50.5t-52 -46.5t-79 -30v-113h-109v113q-42 9 -77 31.5t-60.5 56.5t-39.5 78t-14 95t14 95t39.5 78t60.5 56.5t77 31.5v113h109v-113q45 -9 76.5 -30t51.5 -45.5t29.5 -49.5t11.5 -43h-123q-3 6 -9.5 16.5t-18.5 20t-30 17t-43 7.5
q-26 0 -47.5 -11.5t-36.5 -32.5t-23 -49t-8 -61t8 -61t23 -49t36.5 -32.5t47.5 -11.5q27 0 45.5 7.5t30.5 18t18.5 21t9.5 16.5h123v0z" />
    <glyph glyph-name="sterling" unicode="&#xa3;" horiz-adv-x="704" 
d="M664 0h-608v115h113v150h-113v116h113v127q0 101 56 157.5t162 56.5q107 0 162.5 -56t55.5 -158v-33h-124v30q0 50 -24.5 76.5t-69.5 26.5t-68.5 -26.5t-23.5 -76.5v-124h202v-116h-202v-150h369v-115z" />
    <glyph glyph-name="yen" unicode="&#xa5;" horiz-adv-x="704" 
d="M425 136v-136h-137v136h-188v94h188v75h-188v93h181l-242 312h165l156 -208l156 208h149l-234 -312h183v-93h-189v-75h189v-94h-189z" />
    <glyph glyph-name="section" unicode="&#xa7;" horiz-adv-x="684" 
d="M553 -44q0 -91 -56 -141.5t-153 -50.5q-104 0 -156 50.5t-52 142.5v41h124v-38q0 -43 22.5 -65.5t61.5 -22.5t61 22.5t22 64.5v13q0 35 -15 56t-52 29l-152 33q-157 34 -157 174q0 56 34.5 92.5t91.5 46.5q-26 26 -35 60.5t-9 72.5v20q0 45 15 81t42 61t65.5 38t86.5 13
q100 0 154 -50.5t54 -143.5v-39h-124v37q0 44 -22.5 66.5t-61.5 22.5q-38 0 -60.5 -22.5t-22.5 -64.5v-14q0 -35 15 -56t52 -29l150 -33q79 -17 118 -58.5t39 -114.5q0 -54 -31 -91t-90 -50q23 -24 32 -57.5t9 -72.5v-23zM284 342q-48 10 -77 -8t-29 -57q0 -29 18 -47.5
t49 -24.5l155 -33q48 -11 77 7.5t29 56.5q0 29 -18 48t-49 25z" />
    <glyph glyph-name="dieresis" unicode="&#xa8;" 
d="M132 736h127v-149h-127v149zM341 736h127v-149h-127v149z" />
    <glyph glyph-name="copyright" unicode="&#xa9;" horiz-adv-x="867" 
d="M433 -12q-80 0 -147 28t-116.5 77t-77 116.5t-27.5 145.5t28 145t77.5 116.5t116.5 77.5t146 28t146.5 -28t117 -77.5t77.5 -116.5t28 -145t-28 -145t-77.5 -116.5t-117 -77.5t-146.5 -28zM433 68q64 0 115.5 22t88.5 61t57 91.5t20 112.5t-20 112t-57 91t-88.5 61.5
t-115.5 22.5t-116 -22.5t-88.5 -61t-56.5 -91t-20 -112.5q0 -61 20 -113.5t57 -91t89 -60.5t115 -22zM349 357q0 -43 23 -73.5t65 -30.5q17 0 30 4.5t22.5 11.5t15.5 14t9 13h100q-2 -19 -12.5 -43t-31.5 -45t-54 -35.5t-79 -14.5q-42 0 -77.5 15.5t-61.5 42t-40.5 63
t-14.5 78.5t14.5 78t40.5 63t61.5 42.5t77.5 15.5q43 0 75 -14t53 -34.5t32.5 -43.5t14.5 -42h-102q-3 4 -9 10.5t-15 13t-21 11t-28 4.5q-42 0 -65 -30t-23 -74z" />
    <glyph glyph-name="ordfeminine" unicode="&#xaa;" horiz-adv-x="561" 
d="M362 336q-3 -7 -11.5 -18.5t-23 -23t-36 -20t-51.5 -8.5q-39 0 -72.5 15.5t-57.5 44.5t-38 71.5t-14 95.5q0 54 14 96t38 71t57.5 44.5t72.5 15.5q30 0 51.5 -8.5t36 -19.5t22.5 -22.5t11 -17.5v58h120v-434h-119v60zM362 493q0 56 -23.5 89.5t-66.5 33.5
q-44 0 -67.5 -33.5t-23.5 -89.5q0 -55 23.5 -89t67.5 -34q43 0 66.5 34t23.5 89z" />
    <glyph glyph-name="guillemotleft" unicode="&#xab;" horiz-adv-x="578" 
d="M178 290l107 -185h-121l-104 184l105 184h120zM406 290l109 -185h-121l-105 184l106 184h120z" />
    <glyph glyph-name="registered" unicode="&#xae;" horiz-adv-x="596" 
d="M298 225q-54 0 -100 19t-79.5 52.5t-52.5 79t-19 98.5t19 98.5t53 79t79.5 52.5t99.5 19q53 0 99 -19t79.5 -52.5t53 -79t19.5 -98.5t-19.5 -98t-53 -79t-79.5 -53t-99 -19zM298 286q42 0 76 15t58 40t37 59t13 74t-13 74t-37 59.5t-58 40t-76 14.5t-76 -14.5t-58 -40
t-37 -59.5t-13 -74t13 -74t37 -59t58 -40t76 -15zM191 600h131q48 0 72.5 -21.5t24.5 -61.5q0 -49 -40 -69l44 -93h-74l-38 82h-48v-82h-72v245zM263 539v-44h55q29 0 29 22t-29 22h-55z" />
    <glyph glyph-name="macron" unicode="&#xaf;" horiz-adv-x="500" 
d="M88 613v101h324v-101h-324z" />
    <glyph glyph-name="degree" unicode="&#xb0;" horiz-adv-x="540" 
d="M270 340q-41 0 -76 14.5t-60.5 40t-40 60.5t-14.5 76t14.5 76t40 60.5t60.5 40t76 14.5t76 -14.5t60.5 -40t40 -60.5t14.5 -76t-14.5 -76t-40 -60.5t-60.5 -40t-76 -14.5zM270 430q44 0 70.5 29t26.5 72t-26.5 72t-70.5 29t-70.5 -29t-26.5 -72t26.5 -72t70.5 -29z" />
    <glyph glyph-name="acute" unicode="&#xb4;" 
d="M288 767h133l-116 -187h-126z" />
    <glyph glyph-name="paragraph" unicode="&#xb6;" horiz-adv-x="689" 
d="M40 516q0 45 15.5 80.5t43.5 61t67 39t86 13.5h339v-710h-101v614h-105v-614h-102v321h-31q-47 0 -86 14t-67 39.5t-43.5 61.5t-15.5 80z" />
    <glyph glyph-name="periodcentered" unicode="&#xb7;" horiz-adv-x="313" 
d="M80 447h153v-170h-153v170z" />
    <glyph glyph-name="cedilla" unicode="&#xb8;" 
d="M330 -156q0 14 -8.5 22t-27.5 8h-91v126h100v-49h9q64 0 94 -29.5t30 -80.5t-30 -84t-94 -33h-146v88h128q36 0 36 32z" />
    <glyph glyph-name="ordmasculine" unicode="&#xba;" horiz-adv-x="560" 
d="M280 723q48 0 88 -16.5t68.5 -47t44.5 -73t16 -93.5t-16 -93t-44.5 -72t-68.5 -46.5t-88 -16.5t-88 16.5t-68.5 46.5t-44.5 72t-16 93t16 93.5t44.5 73t68.5 47t88 16.5zM280 368q47 0 71.5 36t24.5 89t-24.5 89.5t-71.5 36.5t-71 -36.5t-24 -89.5t24 -89t71 -36z" />
    <glyph glyph-name="guillemotright" unicode="&#xbb;" horiz-adv-x="578" 
d="M413 105h-120l108 183l-108 185h121l105 -184zM184 105h-121l109 183l-109 185h121l106 -184z" />
    <glyph glyph-name="questiondown" unicode="&#xbf;" horiz-adv-x="547" 
d="M265.018 271.015h127.992v-21.999q0 -22.998 -3 -39.9971t-11.999 -31.498q-9 -14.5 -24.499 -27.999t-40.4971 -29.498l-69.9961 -44.9971q-28.998 -18.999 -48.4971 -41.9971q-19.499 -22.999 -19.499 -55.9971q0 -38.9971 24.499 -61.9961
q24.498 -22.999 68.4951 -22.999q44.998 0 69.4961 27.499q24.499 27.498 24.499 70.4951v28.998h123.992v-35.9971q0 -44.9971 -14.999 -81.4951t-42.998 -62.9961q-27.998 -26.499 -68.4951 -40.498q-40.498 -13.999 -91.4951 -13.999q-105.993 0 -163.489 50.9971
q-57.4971 50.9971 -57.4971 141.991q0 34.998 8.5 62.4961q8.49902 27.498 24.498 49.9971t39.998 42.4971q23.998 19.999 54.9961 38.998l60.9961 38.9971q16.999 12 22.999 24.499t6 32.498v4zM405.009 347.01h-151.991v158.99h151.991v-158.99z" />
    <glyph glyph-name="Agrave" unicode="&#xc0;" horiz-adv-x="816" 
d="M583 146h-358l-65 -146h-135l319 713h127l320 -713h-143zM532 262l-128 287l-128 -287h256zM339 773l-120 156h144l112 -156h-136z" />
    <glyph glyph-name="Aacute" unicode="&#xc1;" horiz-adv-x="816" 
d="M583 146h-358l-65 -146h-135l319 713h127l320 -713h-143zM532 262l-128 287l-128 -287h256zM452 929h144l-120 -156h-136z" />
    <glyph glyph-name="Acircumflex" unicode="&#xc2;" horiz-adv-x="816" 
d="M583 146h-358l-65 -146h-135l319 713h127l320 -713h-143zM532 262l-128 287l-128 -287h256zM407 854l-73 -83h-125l139 161h118l136 -161h-122z" />
    <glyph glyph-name="Atilde" unicode="&#xc3;" horiz-adv-x="816" 
d="M583 146h-358l-65 -146h-135l319 713h127l320 -713h-143zM532 262l-128 287l-128 -287h256zM371 827q-11 5 -19.5 8.5t-15.5 3.5q-16 0 -16 -22v-48h-93v77q0 44 20.5 70t63.5 26q26 0 47 -10t47 -24l38 -19q11 -5 19 -9t15 -4q17 0 17 23v48h93v-77q0 -44 -21 -70
t-63 -26q-27 0 -47.5 9.5t-46.5 23.5z" />
    <glyph glyph-name="Adieresis" unicode="&#xc4;" horiz-adv-x="816" 
d="M583 146h-358l-65 -146h-135l319 713h127l320 -713h-143zM532 262l-128 287l-128 -287h256zM233 922h127v-149h-127v149zM454 922h127v-149h-127v149z" />
    <glyph glyph-name="Aring" unicode="&#xc5;" horiz-adv-x="816" 
d="M583 146h-358l-65 -146h-135l319 713h127l320 -713h-143zM532 262l-128 287l-128 -287h256zM407 763q-30 0 -55 10.5t-43 28.5t-28 42t-10 52t10.5 52t28.5 42t43 28t54 10t54 -10t43.5 -28t29 -42t10.5 -52t-10.5 -52t-28.5 -42t-43 -28.5t-55 -10.5zM407 835
q26 0 43 17.5t17 43.5t-16.5 43t-43.5 17t-43.5 -17t-16.5 -43t17 -43.5t43 -17.5z" />
    <glyph glyph-name="AE" unicode="&#xc6;" horiz-adv-x="1170" 
d="M1131 0h-596v165h-281l-108 -165h-149l468 710h626v-116h-422v-162h244v-117h-244v-196h462v-119zM535 280v316l-206 -316h206z" />
    <glyph glyph-name="Ccedilla" unicode="&#xc7;" horiz-adv-x="803" 
d="M418 -12q-78 0 -143.5 28t-113.5 77.5t-74.5 116.5t-26.5 145t26.5 145t74.5 116.5t113.5 77.5t143.5 28q82 0 141.5 -24.5t99 -59.5t61.5 -75t29 -71h-138q-8 14 -23 32.5t-38.5 35t-56.5 28t-75 11.5q-50 0 -90.5 -19.5t-69 -52.5t-44 -77.5t-15.5 -94.5t15.5 -94.5
t44 -77.5t69 -52.5t90.5 -19.5q46 0 80 12t57 28.5t37 35t21 32.5h136q-6 -28 -26.5 -67.5t-59.5 -76t-99.5 -62t-145.5 -25.5zM467 -156q0 14 -8.5 22t-27.5 8h-91v126h100v-49h9q64 0 94 -29.5t30 -80.5t-30 -84t-94 -33h-146v88h128q36 0 36 32z" />
    <glyph glyph-name="Egrave" unicode="&#xc8;" horiz-adv-x="752" 
d="M98 710h575v-116h-441v-162h263v-117h-263v-196h481v-119h-615v710zM328 773l-120 156h144l112 -156h-136z" />
    <glyph glyph-name="Eacute" unicode="&#xc9;" horiz-adv-x="752" 
d="M98 710h575v-116h-441v-162h263v-117h-263v-196h481v-119h-615v710zM433 929h144l-120 -156h-136z" />
    <glyph glyph-name="Ecircumflex" unicode="&#xca;" horiz-adv-x="752" 
d="M98 710h575v-116h-441v-162h263v-117h-263v-196h481v-119h-615v710zM396 854l-73 -83h-125l139 161h118l136 -161h-122z" />
    <glyph glyph-name="Edieresis" unicode="&#xcb;" horiz-adv-x="752" 
d="M98 710h575v-116h-441v-162h263v-117h-263v-196h481v-119h-615v710zM222 922h127v-149h-127v149zM443 922h127v-149h-127v149z" />
    <glyph glyph-name="Igrave" unicode="&#xcc;" horiz-adv-x="333" 
d="M99 710h135v-710h-135v710zM98 773l-120 156h144l112 -156h-136z" />
    <glyph glyph-name="Iacute" unicode="&#xcd;" horiz-adv-x="333" 
d="M99 710h135v-710h-135v710zM211 929h144l-120 -156h-136z" />
    <glyph glyph-name="Icircumflex" unicode="&#xce;" horiz-adv-x="333" 
d="M99 710h135v-710h-135v710zM166 854l-73 -83h-125l139 161h118l136 -161h-122z" />
    <glyph glyph-name="Idieresis" unicode="&#xcf;" horiz-adv-x="333" 
d="M99 710h135v-710h-135v710zM-8 922h127v-149h-127v149zM213 922h127v-149h-127v149z" />
    <glyph glyph-name="Ntilde" unicode="&#xd1;" horiz-adv-x="862" 
d="M764 -3h-105l-431 544v-541h-130v710h156l381 -487v487h129v-713zM405 827q-11 5 -19.5 8.5t-15.5 3.5q-16 0 -16 -22v-48h-93v77q0 44 20.5 70t63.5 26q26 0 47 -10t47 -24l38 -19q11 -5 19 -9t15 -4q17 0 17 23v48h93v-77q0 -44 -21 -70t-63 -26q-27 0 -47.5 9.5
t-46.5 23.5z" />
    <glyph glyph-name="Ograve" unicode="&#xd2;" horiz-adv-x="864" 
d="M432 -12q-80 0 -148 27.5t-118 76t-78 116t-28 147.5t28.5 147.5t78.5 116t118 76t147 27.5t147 -27.5t118 -76t78.5 -116t28.5 -147.5t-28.5 -147t-78.5 -116t-118 -76.5t-147 -27.5zM432 110q53 0 96.5 19t74 52.5t47.5 78t17 95.5t-17 95.5t-47.5 77.5t-74 52.5
t-96.5 19.5t-96 -19.5t-74 -52.5t-47.5 -77.5t-16.5 -95.5t16.5 -96t47 -78t74 -52t96.5 -19zM364 773l-120 156h144l112 -156h-136z" />
    <glyph glyph-name="Oacute" unicode="&#xd3;" horiz-adv-x="864" 
d="M432 -12q-80 0 -148 27.5t-118 76t-78 116t-28 147.5t28.5 147.5t78.5 116t118 76t147 27.5t147 -27.5t118 -76t78.5 -116t28.5 -147.5t-28.5 -147t-78.5 -116t-118 -76.5t-147 -27.5zM432 110q53 0 96.5 19t74 52.5t47.5 78t17 95.5t-17 95.5t-47.5 77.5t-74 52.5
t-96.5 19.5t-96 -19.5t-74 -52.5t-47.5 -77.5t-16.5 -95.5t16.5 -96t47 -78t74 -52t96.5 -19zM477 929h144l-120 -156h-136z" />
    <glyph glyph-name="Ocircumflex" unicode="&#xd4;" horiz-adv-x="864" 
d="M432 -12q-80 0 -148 27.5t-118 76t-78 116t-28 147.5t28.5 147.5t78.5 116t118 76t147 27.5t147 -27.5t118 -76t78.5 -116t28.5 -147.5t-28.5 -147t-78.5 -116t-118 -76.5t-147 -27.5zM432 110q53 0 96.5 19t74 52.5t47.5 78t17 95.5t-17 95.5t-47.5 77.5t-74 52.5
t-96.5 19.5t-96 -19.5t-74 -52.5t-47.5 -77.5t-16.5 -95.5t16.5 -96t47 -78t74 -52t96.5 -19zM432 854l-73 -83h-125l139 161h118l136 -161h-122z" />
    <glyph glyph-name="Otilde" unicode="&#xd5;" horiz-adv-x="864" 
d="M432 -12q-80 0 -148 27.5t-118 76t-78 116t-28 147.5t28.5 147.5t78.5 116t118 76t147 27.5t147 -27.5t118 -76t78.5 -116t28.5 -147.5t-28.5 -147t-78.5 -116t-118 -76.5t-147 -27.5zM432 110q53 0 96.5 19t74 52.5t47.5 78t17 95.5t-17 95.5t-47.5 77.5t-74 52.5
t-96.5 19.5t-96 -19.5t-74 -52.5t-47.5 -77.5t-16.5 -95.5t16.5 -96t47 -78t74 -52t96.5 -19zM396 827q-11 5 -19.5 8.5t-15.5 3.5q-16 0 -16 -22v-48h-93v77q0 44 20.5 70t63.5 26q26 0 47 -10t47 -24l38 -19q11 -5 19 -9t15 -4q17 0 17 23v48h93v-77q0 -44 -21 -70
t-63 -26q-27 0 -47.5 9.5t-46.5 23.5z" />
    <glyph glyph-name="Odieresis" unicode="&#xd6;" horiz-adv-x="864" 
d="M432 -12q-80 0 -148 27.5t-118 76t-78 116t-28 147.5t28.5 147.5t78.5 116t118 76t147 27.5t147 -27.5t118 -76t78.5 -116t28.5 -147.5t-28.5 -147t-78.5 -116t-118 -76.5t-147 -27.5zM432 110q53 0 96.5 19t74 52.5t47.5 78t17 95.5t-17 95.5t-47.5 77.5t-74 52.5
t-96.5 19.5t-96 -19.5t-74 -52.5t-47.5 -77.5t-16.5 -95.5t16.5 -96t47 -78t74 -52t96.5 -19zM258 922h127v-149h-127v149zM479 922h127v-149h-127v149z" />
    <glyph glyph-name="Oslash" unicode="&#xd8;" horiz-adv-x="864" 
d="M804 355q0 -80 -28.5 -147t-78.5 -116t-118 -76.5t-147 -27.5q-58 0 -110 15t-97 44l-42 -47h-142l105 116q-41 48 -63.5 108.5t-22.5 130.5q0 80 28.5 147.5t78.5 116t118 76t147 27.5q57 0 108.5 -15t96.5 -44l42 47h145l-106 -118q41 -47 63.5 -107t22.5 -130z
M197 355q0 -41 9.5 -76.5t26.5 -65.5l322 358q-53 31 -123 31q-53 0 -96.5 -19.5t-74 -53t-47.5 -78.5t-17 -96zM667 355q0 40 -9.5 76t-26.5 65l-323 -357q54 -31 124 -31q53 0 96.5 19t74 52.5t47.5 78.5t17 97z" />
    <glyph glyph-name="Ugrave" unicode="&#xd9;" horiz-adv-x="842" 
d="M422 111q46 0 82 14.5t60.5 41.5t37.5 64.5t13 83.5v395h133v-404q0 -67 -21 -125t-62 -101.5t-102 -68.5t-141 -25q-83 0 -144.5 24.5t-102 68t-61 101.5t-20.5 126v404h135v-395q0 -46 12.5 -83.5t37 -64.5t60.5 -41.5t83 -14.5zM362 773l-120 156h144l112 -156h-136z
" />
    <glyph glyph-name="Uacute" unicode="&#xda;" horiz-adv-x="842" 
d="M422 111q46 0 82 14.5t60.5 41.5t37.5 64.5t13 83.5v395h133v-404q0 -67 -21 -125t-62 -101.5t-102 -68.5t-141 -25q-83 0 -144.5 24.5t-102 68t-61 101.5t-20.5 126v404h135v-395q0 -46 12.5 -83.5t37 -64.5t60.5 -41.5t83 -14.5zM456 929h144l-120 -156h-136z" />
    <glyph glyph-name="Ucircumflex" unicode="&#xdb;" horiz-adv-x="842" 
d="M422 111q46 0 82 14.5t60.5 41.5t37.5 64.5t13 83.5v395h133v-404q0 -67 -21 -125t-62 -101.5t-102 -68.5t-141 -25q-83 0 -144.5 24.5t-102 68t-61 101.5t-20.5 126v404h135v-395q0 -46 12.5 -83.5t37 -64.5t60.5 -41.5t83 -14.5zM421 854l-73 -83h-125l139 161h118
l136 -161h-122z" />
    <glyph glyph-name="Udieresis" unicode="&#xdc;" horiz-adv-x="842" 
d="M422 111q46 0 82 14.5t60.5 41.5t37.5 64.5t13 83.5v395h133v-404q0 -67 -21 -125t-62 -101.5t-102 -68.5t-141 -25q-83 0 -144.5 24.5t-102 68t-61 101.5t-20.5 126v404h135v-395q0 -46 12.5 -83.5t37 -64.5t60.5 -41.5t83 -14.5zM247 922h127v-149h-127v149zM468 922
h127v-149h-127v149z" />
    <glyph glyph-name="germandbls" unicode="&#xdf;" horiz-adv-x="658" 
d="M212 0h-129v524q0 107 62.5 165.5t177.5 58.5q55 0 100 -13.5t76 -39t48 -62t17 -82.5q0 -32 -8 -56t-21.5 -42t-30 -29.5t-33.5 -17.5q26 -7 50.5 -22t44 -38.5t31.5 -56t12 -72.5q0 -50 -15.5 -90t-45.5 -68t-74 -43.5t-101 -15.5h-84v114h64q63 0 94.5 29t31.5 80
t-31.5 80t-94.5 29h-64v112h40q49 0 77.5 23.5t28.5 71.5q0 47 -31 71.5t-81 24.5q-51 0 -81 -29t-30 -87v-519z" />
    <glyph glyph-name="agrave" unicode="&#xe0;" horiz-adv-x="668" 
d="M459 80q-4 -8 -15.5 -23t-32 -30t-51 -26.5t-72.5 -11.5q-49 0 -92 18t-75.5 52t-51.5 83t-19 111q0 61 19 110t51.5 83.5t76 52.5t92.5 18q40 0 70 -10.5t50.5 -25t32.5 -29t16 -22.5v76h128v-506h-127v80zM460 253q0 32 -10 60t-28 48.5t-43.5 32t-56.5 11.5
q-32 0 -58.5 -11.5t-45 -32t-28.5 -48.5t-10 -60t10 -60t28.5 -48.5t45 -32t58.5 -11.5q31 0 56.5 11.5t43.5 32t28 48.5t10 60zM258 580l-116 187h133l109 -187h-126z" />
    <glyph glyph-name="aacute" unicode="&#xe1;" horiz-adv-x="668" 
d="M459 80q-4 -8 -15.5 -23t-32 -30t-51 -26.5t-72.5 -11.5q-49 0 -92 18t-75.5 52t-51.5 83t-19 111q0 61 19 110t51.5 83.5t76 52.5t92.5 18q40 0 70 -10.5t50.5 -25t32.5 -29t16 -22.5v76h128v-506h-127v80zM460 253q0 32 -10 60t-28 48.5t-43.5 32t-56.5 11.5
q-32 0 -58.5 -11.5t-45 -32t-28.5 -48.5t-10 -60t10 -60t28.5 -48.5t45 -32t58.5 -11.5q31 0 56.5 11.5t43.5 32t28 48.5t10 60zM360 767h133l-116 -187h-126z" />
    <glyph glyph-name="acircumflex" unicode="&#xe2;" horiz-adv-x="668" 
d="M459 80q-4 -8 -15.5 -23t-32 -30t-51 -26.5t-72.5 -11.5q-49 0 -92 18t-75.5 52t-51.5 83t-19 111q0 61 19 110t51.5 83.5t76 52.5t92.5 18q40 0 70 -10.5t50.5 -25t32.5 -29t16 -22.5v76h128v-506h-127v80zM460 253q0 32 -10 60t-28 48.5t-43.5 32t-56.5 11.5
q-32 0 -58.5 -11.5t-45 -32t-28.5 -48.5t-10 -60t10 -60t28.5 -48.5t45 -32t58.5 -11.5q31 0 56.5 11.5t43.5 32t28 48.5t10 60zM322 682l-67 -104h-118l129 196h112l126 -196h-115z" />
    <glyph glyph-name="atilde" unicode="&#xe3;" horiz-adv-x="668" 
d="M459 80q-4 -8 -15.5 -23t-32 -30t-51 -26.5t-72.5 -11.5q-49 0 -92 18t-75.5 52t-51.5 83t-19 111q0 61 19 110t51.5 83.5t76 52.5t92.5 18q40 0 70 -10.5t50.5 -25t32.5 -29t16 -22.5v76h128v-506h-127v80zM460 253q0 32 -10 60t-28 48.5t-43.5 32t-56.5 11.5
q-32 0 -58.5 -11.5t-45 -32t-28.5 -48.5t-10 -60t10 -60t28.5 -48.5t45 -32t58.5 -11.5q31 0 56.5 11.5t43.5 32t28 48.5t10 60zM152 576v84q0 44 20.5 69.5t63.5 25.5q26 0 45.5 -9.5t42.5 -26.5l29 -21q9 -6 16 -10t15 -4q9 0 13 6t4 15v55h91v-83q0 -44 -20.5 -70
t-63.5 -26q-27 0 -46 9.5t-42 26.5l-29 21q-10 7 -16.5 11t-14.5 4q-17 0 -17 -22v-55h-91z" />
    <glyph glyph-name="adieresis" unicode="&#xe4;" horiz-adv-x="668" 
d="M459 80q-4 -8 -15.5 -23t-32 -30t-51 -26.5t-72.5 -11.5q-49 0 -92 18t-75.5 52t-51.5 83t-19 111q0 61 19 110t51.5 83.5t76 52.5t92.5 18q40 0 70 -10.5t50.5 -25t32.5 -29t16 -22.5v76h128v-506h-127v80zM460 253q0 32 -10 60t-28 48.5t-43.5 32t-56.5 11.5
q-32 0 -58.5 -11.5t-45 -32t-28.5 -48.5t-10 -60t10 -60t28.5 -48.5t45 -32t58.5 -11.5q31 0 56.5 11.5t43.5 32t28 48.5t10 60zM154 736h127v-149h-127v149zM363 736h127v-149h-127v149z" />
    <glyph glyph-name="aring" unicode="&#xe5;" horiz-adv-x="668" 
d="M459 80q-4 -8 -15.5 -23t-32 -30t-51 -26.5t-72.5 -11.5q-49 0 -92 18t-75.5 52t-51.5 83t-19 111q0 61 19 110t51.5 83.5t76 52.5t92.5 18q40 0 70 -10.5t50.5 -25t32.5 -29t16 -22.5v76h128v-506h-127v80zM460 253q0 32 -10 60t-28 48.5t-43.5 32t-56.5 11.5
q-32 0 -58.5 -11.5t-45 -32t-28.5 -48.5t-10 -60t10 -60t28.5 -48.5t45 -32t58.5 -11.5q31 0 56.5 11.5t43.5 32t28 48.5t10 60zM322 569q-30 0 -55 10.5t-43 28.5t-28 42t-10 52t10.5 52t28.5 42t43 28t54 10t54 -10t43.5 -28t29 -42t10.5 -52t-10.5 -52t-28.5 -42
t-43 -28.5t-55 -10.5zM322 641q26 0 43 17.5t17 43.5t-16.5 43t-43.5 17t-43.5 -17t-16.5 -43t17 -43.5t43 -17.5z" />
    <glyph glyph-name="ae" unicode="&#xe6;" horiz-adv-x="973" 
d="M48 160q0 77 54 117.5t148 40.5h159q0 46 -31.5 72.5t-85.5 26.5q-25 0 -43 -6t-30 -14.5t-19 -17t-9 -13.5h-130q4 20 18.5 46.5t42 50t69.5 40t100 16.5q70 0 118 -23t71 -59q26 35 75 58.5t113 23.5q58 0 106 -19t82.5 -54.5t53.5 -86t19 -113.5v-15l-16 1h-381
q2 -30 13 -55t30 -44t44.5 -29.5t56.5 -10.5q30 0 51 6.5t35.5 15.5t23 18.5t11.5 14.5h126q-3 -20 -18 -47.5t-44.5 -52.5t-75 -43t-109.5 -18q-80 0 -136 31.5t-87 75.5q-10 -17 -25 -35.5t-37.5 -34t-53 -25.5t-70.5 -10q-48 0 -88 12t-69.5 34t-45.5 54t-16 71zM666 420
q-51 0 -85.5 -27t-45.5 -75h261q-13 49 -47 75.5t-83 26.5zM175 162q0 -37 29.5 -57.5t76.5 -20.5q56 0 92 28.5t36 74.5v43h-138q-44 0 -70 -16.5t-26 -51.5z" />
    <glyph glyph-name="ccedilla" unicode="&#xe7;" horiz-adv-x="601" 
d="M431 339q-3 5 -10.5 16t-22 22.5t-36 20t-51.5 8.5q-29 0 -53.5 -12t-42 -32.5t-27 -48.5t-9.5 -60t9.5 -60t27 -48.5t42 -32.5t54.5 -12q31 0 53 8.5t36 19.5t21.5 22.5t10.5 16.5h125q-2 -20 -15.5 -50.5t-42.5 -59.5t-76 -50q-38 -16 -91 -19v-37h9q64 0 94 -29.5
t30 -80.5t-30 -84t-94 -33h-147v88h129q36 0 36 32q0 14 -9 22t-27 8h-91v124q-13 3 -26 8q-47 20 -82.5 55.5t-55.5 84t-20 107.5q0 58 20 107t55 84.5t82.5 55t102.5 19.5q67 0 113.5 -20.5t75.5 -49t43 -59t17 -51.5h-127z" />
    <glyph glyph-name="egrave" unicode="&#xe8;" horiz-adv-x="624" 
d="M314 519q58 0 107 -19.5t84 -55t54.5 -86t19.5 -112.5v-14h-402q2 -30 13.5 -55t30.5 -44t45 -29.5t58 -10.5q30 0 52 6.5t36.5 15.5t23 18.5t11.5 14.5h126q-3 -20 -18 -47.5t-45 -52.5t-76 -43t-110 -18q-62 0 -112.5 20t-86.5 56t-56 84.5t-20 105.5q0 59 19.5 108
t55 84t84 54.5t106.5 19.5zM314 420q-52 0 -86.5 -26.5t-46.5 -73.5h264q-14 48 -48 74t-83 26zM250 580l-116 187h133l109 -187h-126z" />
    <glyph glyph-name="eacute" unicode="&#xe9;" horiz-adv-x="624" 
d="M314 519q58 0 107 -19.5t84 -55t54.5 -86t19.5 -112.5v-14h-402q2 -30 13.5 -55t30.5 -44t45 -29.5t58 -10.5q30 0 52 6.5t36.5 15.5t23 18.5t11.5 14.5h126q-3 -20 -18 -47.5t-45 -52.5t-76 -43t-110 -18q-62 0 -112.5 20t-86.5 56t-56 84.5t-20 105.5q0 59 19.5 108
t55 84t84 54.5t106.5 19.5zM314 420q-52 0 -86.5 -26.5t-46.5 -73.5h264q-14 48 -48 74t-83 26zM353 767h133l-116 -187h-126z" />
    <glyph glyph-name="ecircumflex" unicode="&#xea;" horiz-adv-x="624" 
d="M314 519q58 0 107 -19.5t84 -55t54.5 -86t19.5 -112.5v-14h-402q2 -30 13.5 -55t30.5 -44t45 -29.5t58 -10.5q30 0 52 6.5t36.5 15.5t23 18.5t11.5 14.5h126q-3 -20 -18 -47.5t-45 -52.5t-76 -43t-110 -18q-62 0 -112.5 20t-86.5 56t-56 84.5t-20 105.5q0 59 19.5 108
t55 84t84 54.5t106.5 19.5zM314 420q-52 0 -86.5 -26.5t-46.5 -73.5h264q-14 48 -48 74t-83 26zM314 682l-67 -104h-118l129 196h112l126 -196h-115z" />
    <glyph glyph-name="edieresis" unicode="&#xeb;" horiz-adv-x="624" 
d="M314 519q58 0 107 -19.5t84 -55t54.5 -86t19.5 -112.5v-14h-402q2 -30 13.5 -55t30.5 -44t45 -29.5t58 -10.5q30 0 52 6.5t36.5 15.5t23 18.5t11.5 14.5h126q-3 -20 -18 -47.5t-45 -52.5t-76 -43t-110 -18q-62 0 -112.5 20t-86.5 56t-56 84.5t-20 105.5q0 59 19.5 108
t55 84t84 54.5t106.5 19.5zM314 420q-52 0 -86.5 -26.5t-46.5 -73.5h264q-14 48 -48 74t-83 26zM146 736h127v-149h-127v149zM355 736h127v-149h-127v149z" />
    <glyph glyph-name="igrave" unicode="&#xec;" horiz-adv-x="295" 
d="M84 506h128v-506h-128v506zM83 580l-116 187h133l109 -187h-126z" />
    <glyph glyph-name="iacute" unicode="&#xed;" horiz-adv-x="295" 
d="M84 506h128v-506h-128v506zM193 767h133l-116 -187h-126z" />
    <glyph glyph-name="icircumflex" unicode="&#xee;" horiz-adv-x="295" 
d="M147 684l-63 -106h-116l123 196h113l120 -196h-113zM84 506h128v-506h-128v506z" />
    <glyph glyph-name="idieresis" unicode="&#xef;" horiz-adv-x="295" 
d="M-17 736h124v-149h-124v149zM188 736h124v-149h-124v149zM84 506h128v-506h-128v506z" />
    <glyph glyph-name="ntilde" unicode="&#xf1;" horiz-adv-x="665" 
d="M210 0h-127v506h127v-85q7 13 21.5 30t35.5 31.5t48.5 24.5t62.5 10q48 0 86.5 -16.5t66.5 -46t43 -70.5t15 -89v-295h-129v270q0 60 -33 96.5t-90 36.5q-58 0 -92.5 -37t-34.5 -96v-270zM166 576v84q0 44 20.5 69.5t63.5 25.5q26 0 45.5 -9.5t42.5 -26.5l29 -21
q9 -6 16 -10t15 -4q9 0 13 6t4 15v55h91v-83q0 -44 -20.5 -70t-63.5 -26q-27 0 -46 9.5t-42 26.5l-29 21q-10 7 -16.5 11t-14.5 4q-17 0 -17 -22v-55h-91z" />
    <glyph glyph-name="ograve" unicode="&#xf2;" horiz-adv-x="643" 
d="M322 519q58 0 107.5 -20t86 -55.5t57.5 -84t21 -106.5t-21 -106.5t-57.5 -84t-86 -55.5t-107.5 -20q-59 0 -108.5 20t-86.5 55.5t-57.5 84t-20.5 106.5t20.5 106.5t57.5 84t86.5 55.5t108.5 20zM322 101q32 0 58.5 11.5t45 32t29 48.5t10.5 60t-10.5 60t-29 48.5t-45 32
t-58.5 11.5t-58.5 -12t-45.5 -32.5t-29.5 -48t-10.5 -59.5t10.5 -59.5t29.5 -48t45.5 -32.5t58.5 -12zM257 580l-116 187h133l109 -187h-126z" />
    <glyph glyph-name="oacute" unicode="&#xf3;" horiz-adv-x="643" 
d="M322 519q58 0 107.5 -20t86 -55.5t57.5 -84t21 -106.5t-21 -106.5t-57.5 -84t-86 -55.5t-107.5 -20q-59 0 -108.5 20t-86.5 55.5t-57.5 84t-20.5 106.5t20.5 106.5t57.5 84t86.5 55.5t108.5 20zM322 101q32 0 58.5 11.5t45 32t29 48.5t10.5 60t-10.5 60t-29 48.5t-45 32
t-58.5 11.5t-58.5 -12t-45.5 -32.5t-29.5 -48t-10.5 -59.5t10.5 -59.5t29.5 -48t45.5 -32.5t58.5 -12zM360 767h133l-116 -187h-126z" />
    <glyph glyph-name="ocircumflex" unicode="&#xf4;" horiz-adv-x="643" 
d="M322 519q58 0 107.5 -20t86 -55.5t57.5 -84t21 -106.5t-21 -106.5t-57.5 -84t-86 -55.5t-107.5 -20q-59 0 -108.5 20t-86.5 55.5t-57.5 84t-20.5 106.5t20.5 106.5t57.5 84t86.5 55.5t108.5 20zM322 101q32 0 58.5 11.5t45 32t29 48.5t10.5 60t-10.5 60t-29 48.5t-45 32
t-58.5 11.5t-58.5 -12t-45.5 -32.5t-29.5 -48t-10.5 -59.5t10.5 -59.5t29.5 -48t45.5 -32.5t58.5 -12zM321 682l-67 -104h-118l129 196h112l126 -196h-115z" />
    <glyph glyph-name="otilde" unicode="&#xf5;" horiz-adv-x="643" 
d="M322 519q58 0 107.5 -20t86 -55.5t57.5 -84t21 -106.5t-21 -106.5t-57.5 -84t-86 -55.5t-107.5 -20q-59 0 -108.5 20t-86.5 55.5t-57.5 84t-20.5 106.5t20.5 106.5t57.5 84t86.5 55.5t108.5 20zM322 101q32 0 58.5 11.5t45 32t29 48.5t10.5 60t-10.5 60t-29 48.5t-45 32
t-58.5 11.5t-58.5 -12t-45.5 -32.5t-29.5 -48t-10.5 -59.5t10.5 -59.5t29.5 -48t45.5 -32.5t58.5 -12zM151 576v84q0 44 20.5 69.5t63.5 25.5q26 0 45.5 -9.5t42.5 -26.5l29 -21q9 -6 16 -10t15 -4q9 0 13 6t4 15v55h91v-83q0 -44 -20.5 -70t-63.5 -26q-27 0 -46 9.5
t-42 26.5l-29 21q-10 7 -16.5 11t-14.5 4q-17 0 -17 -22v-55h-91z" />
    <glyph glyph-name="odieresis" unicode="&#xf6;" horiz-adv-x="643" 
d="M322 519q58 0 107.5 -20t86 -55.5t57.5 -84t21 -106.5t-21 -106.5t-57.5 -84t-86 -55.5t-107.5 -20q-59 0 -108.5 20t-86.5 55.5t-57.5 84t-20.5 106.5t20.5 106.5t57.5 84t86.5 55.5t108.5 20zM322 101q32 0 58.5 11.5t45 32t29 48.5t10.5 60t-10.5 60t-29 48.5t-45 32
t-58.5 11.5t-58.5 -12t-45.5 -32.5t-29.5 -48t-10.5 -59.5t10.5 -59.5t29.5 -48t45.5 -32.5t58.5 -12zM153 736h127v-149h-127v149zM362 736h127v-149h-127v149z" />
    <glyph glyph-name="divide" unicode="&#xf7;" horiz-adv-x="704" 
d="M278 617h148v-159h-148v159zM80 266v113h542v-113h-542zM278 179h148v-159h-148v159z" />
    <glyph glyph-name="oslash" unicode="&#xf8;" horiz-adv-x="644" 
d="M595 253q0 -58 -21 -106.5t-57.5 -84t-86.5 -55.5t-108 -20q-41 0 -79.5 11.5t-71.5 32.5l-29 -31h-120l84 90q-26 33 -41.5 74t-15.5 89q0 58 20.5 107t57.5 84t86.5 55t108.5 20q41 0 78.5 -11.5t70.5 -31.5l28 30h122l-84 -89q27 -33 42.5 -74.5t15.5 -89.5zM172 253
q0 -46 15 -79l209 221q-32 15 -74 15q-33 0 -61 -12t-47.5 -33.5t-30.5 -50t-11 -61.5zM472 253q0 47 -15 80l-210 -222q31 -15 75 -15q34 0 61.5 12t47 33.5t30.5 50t11 61.5z" />
    <glyph glyph-name="ugrave" unicode="&#xf9;" horiz-adv-x="651" 
d="M328 -11q-60 0 -106.5 17.5t-79 48.5t-49 74t-16.5 94v283h128v-269q0 -59 31 -95t90 -36t90 36t31 95v269h129v-283q0 -51 -16.5 -94t-48.5 -74t-78 -48.5t-105 -17.5zM261 580l-116 187h133l109 -187h-126z" />
    <glyph glyph-name="uacute" unicode="&#xfa;" horiz-adv-x="651" 
d="M328 -11q-60 0 -106.5 17.5t-79 48.5t-49 74t-16.5 94v283h128v-269q0 -59 31 -95t90 -36t90 36t31 95v269h129v-283q0 -51 -16.5 -94t-48.5 -74t-78 -48.5t-105 -17.5zM364 767h133l-116 -187h-126z" />
    <glyph glyph-name="ucircumflex" unicode="&#xfb;" horiz-adv-x="651" 
d="M328 -11q-60 0 -106.5 17.5t-79 48.5t-49 74t-16.5 94v283h128v-269q0 -59 31 -95t90 -36t90 36t31 95v269h129v-283q0 -51 -16.5 -94t-48.5 -74t-78 -48.5t-105 -17.5zM325 682l-67 -104h-118l129 196h112l126 -196h-115z" />
    <glyph glyph-name="udieresis" unicode="&#xfc;" horiz-adv-x="651" 
d="M328 -11q-60 0 -106.5 17.5t-79 48.5t-49 74t-16.5 94v283h128v-269q0 -59 31 -95t90 -36t90 36t31 95v269h129v-283q0 -51 -16.5 -94t-48.5 -74t-78 -48.5t-105 -17.5zM157 736h127v-149h-127v149zM366 736h127v-149h-127v149z" />
    <glyph glyph-name="ydieresis" unicode="&#xff;" horiz-adv-x="599" 
d="M273 -213h-128l96 222l-228 497h144l149 -344l149 344h130zM138 736h127v-149h-127v149zM347 736h127v-149h-127v149z" />
    <glyph glyph-name="dotlessi" unicode="&#x131;" horiz-adv-x="295" 
d="M84 506h128v-506h-128v506z" />
    <glyph glyph-name="OE" unicode="&#x152;" horiz-adv-x="1185" 
d="M61 355q0 84 28.5 149.5t79.5 111.5t121.5 70t155.5 24h661v-116h-422v-162h244v-117h-244v-196h461v-119h-700q-85 0 -155.5 24t-121.5 70t-79.5 111.5t-28.5 149.5zM551 119v472h-104q-57 0 -103 -16.5t-78.5 -47t-50 -74t-17.5 -98.5t17.5 -98.5t50 -74t78.5 -47
t103 -16.5h104z" />
    <glyph glyph-name="oe" unicode="&#x153;" horiz-adv-x="1031" 
d="M980 148q-3 -20 -17.5 -47.5t-44 -52.5t-75 -43t-108.5 -18q-77 0 -131 29.5t-83 69.5q-32 -46 -84.5 -72.5t-119.5 -26.5q-57 0 -106 20t-85 55.5t-56.5 84t-20.5 106.5t20.5 107t56.5 84t85 55t106 20q69 0 122 -27.5t84 -74.5q27 43 77.5 72.5t125.5 29.5
q58 0 106 -19t82.5 -54.5t53 -86t18.5 -113.5v-15l-16 1h-381q2 -30 13.5 -55t30 -44t44 -29.5t56.5 -10.5q30 0 51.5 6.5t36 15.5t22.5 18.5t11 14.5h126zM724 420q-52 0 -86.5 -27t-45.5 -75h261q-13 49 -47 75.5t-82 26.5zM319 101q32 0 58 12t45 32.5t29 48t10 59.5
t-10 59.5t-29 48t-45 32.5t-58 12t-57.5 -12t-44.5 -32.5t-29 -48t-10 -59.5t10 -59.5t29 -48t44.5 -32.5t57.5 -12z" />
    <glyph glyph-name="Ydieresis" unicode="&#x178;" horiz-adv-x="782" 
d="M465 0h-138v299l-319 411h171l221 -289l220 289h154l-309 -410v-300zM226 922h127v-149h-127v149zM447 922h127v-149h-127v149z" />
    <glyph glyph-name="circumflex" unicode="&#x2c6;" 
d="M260 682l-67 -104h-118l129 196h112l126 -196h-115z" />
    <glyph glyph-name="caron" unicode="&#x2c7;" 
d="M315 580h-112l-126 196h116l67 -105l67 105h117z" />
    <glyph glyph-name="breve" unicode="&#x2d8;" 
d="M300 668q29 0 42 19t13 42v17h101v-19q0 -32 -9.5 -60t-28.5 -48.5t-48.5 -32.5t-69.5 -12t-69.5 12t-48.5 32.5t-28.5 48.5t-9.5 60v19h101v-17q0 -23 13 -42t42 -19z" />
    <glyph glyph-name="dotaccent" unicode="&#x2d9;" 
d="M234 739h132v-152h-132v152z" />
    <glyph glyph-name="ring" unicode="&#x2da;" 
d="M300 569q-30 0 -55 10.5t-43 28.5t-28 42t-10 52t10.5 52t28.5 42t43 28t54 10t54 -10t43.5 -28t29 -42t10.5 -52t-10.5 -52t-28.5 -42t-43 -28.5t-55 -10.5zM300 641q26 0 43 17.5t17 43.5t-16.5 43t-43.5 17t-43.5 -17t-16.5 -43t17 -43.5t43 -17.5z" />
    <glyph glyph-name="ogonek" unicode="&#x2db;" 
d="M457 -213h-126q-58 0 -91.5 23t-33.5 69q0 20 8 36t21.5 30.5t31 27.5t37.5 27h128q-42 -32 -65.5 -52t-23.5 -40q0 -25 32 -25h82v-96z" />
    <glyph glyph-name="tilde" unicode="&#x2dc;" 
d="M130 576v84q0 44 20.5 69.5t63.5 25.5q26 0 45.5 -9.5t42.5 -26.5l29 -21q9 -6 16 -10t15 -4q9 0 13 6t4 15v55h91v-83q0 -44 -20.5 -70t-63.5 -26q-27 0 -46 9.5t-42 26.5l-29 21q-10 7 -16.5 11t-14.5 4q-17 0 -17 -22v-55h-91z" />
    <glyph glyph-name="hungarumlaut" unicode="&#x2dd;" 
d="M377 767h113l-87 -187h-107zM190 767h112l-87 -187h-107z" />
    <glyph glyph-name="endash" unicode="&#x2013;" horiz-adv-x="708" 
d="M80 344h548v-93h-548v93z" />
    <glyph glyph-name="emdash" unicode="&#x2014;" horiz-adv-x="1013" 
d="M80 344h853v-93h-853v93z" />
    <glyph glyph-name="quoteleft" unicode="&#x2018;" horiz-adv-x="311" 
d="M225 736q-25 -45 -44 -94.5t-21 -100.5h72v-155h-151v138q0 66 15.5 119t36.5 93h92z" />
    <glyph glyph-name="quoteright" unicode="&#x2019;" horiz-adv-x="311" 
d="M85 386q26 45 44.5 94.5t20.5 100.5h-71v155h151v-138q0 -66 -15.5 -119t-37.5 -93h-92z" />
    <glyph glyph-name="quotesinglbase" unicode="&#x201a;" horiz-adv-x="310" 
d="M85 -195q26 45 44.5 94.5t20.5 100.5h-71v155h151v-138q0 -66 -15.5 -119t-37.5 -93h-92z" />
    <glyph glyph-name="quotedblleft" unicode="&#x201c;" horiz-adv-x="540" 
d="M225 736q-25 -45 -44 -94.5t-21 -100.5h70v-155h-149v138q0 66 15.5 119t36.5 93h92zM456 736q-25 -45 -44 -94.5t-21 -100.5h70v-155h-150v138q0 66 15.5 119t37.5 93h92z" />
    <glyph glyph-name="quotedblright" unicode="&#x201d;" horiz-adv-x="540" 
d="M315 386q25 45 44 94.5t21 100.5h-70v155h149v-138q0 -66 -15.5 -119t-36.5 -93h-92zM84 386q25 45 44 94.5t21 100.5h-70v155h150v-138q0 -66 -15.5 -119t-37.5 -93h-92z" />
    <glyph glyph-name="quotedblbase" unicode="&#x201e;" horiz-adv-x="539" 
d="M315 -195q25 45 44 94.5t21 100.5h-70v155h149v-138q0 -66 -15.5 -119t-36.5 -93h-92zM84 -195q25 45 44 94.5t21 100.5h-70v155h150v-138q0 -66 -15.5 -119t-37.5 -93h-92z" />
    <glyph glyph-name="dagger" unicode="&#x2020;" horiz-adv-x="522" 
d="M323 422v-422h-123v422h-154v115h154v173h123v-173h153v-115h-153z" />
    <glyph glyph-name="daggerdbl" unicode="&#x2021;" horiz-adv-x="519" 
d="M321 169v-169h-123v169h-150v111h150v151h-150v111h150v168h123v-168h150v-111h-150v-151h150v-111h-150z" />
    <glyph glyph-name="bullet" unicode="&#x2022;" 
d="M300 526q44 0 82 -16.5t66.5 -45t45 -67t16.5 -81.5q0 -44 -16.5 -82t-45 -66.5t-66.5 -45t-82 -16.5t-82 16.5t-66.5 45t-45 66.5t-16.5 82q0 43 16.5 81.5t45 67t66.5 45t82 16.5z" />
    <glyph glyph-name="ellipsis" unicode="&#x2026;" horiz-adv-x="849" 
d="M80 170h153v-170h-153v170zM348 170h153v-170h-153v170zM616 170h153v-170h-153v170z" />
    <glyph glyph-name="perthousand" unicode="&#x2030;" horiz-adv-x="1440" 
d="M245 348q-40 0 -74 14.5t-59.5 39.5t-40 59t-14.5 74t14.5 74t40 59t59.5 39.5t74 14.5t74 -14.5t59.5 -39.5t40 -59t14.5 -74t-14.5 -74t-40 -59t-59.5 -39.5t-74 -14.5zM698 710h119l-512 -710h-119zM245 443q39 0 63.5 26.5t24.5 65.5q0 38 -24.5 64.5t-63.5 26.5
t-63 -26.5t-24 -64.5q0 -39 24 -65.5t63 -26.5zM758 -14q-40 0 -74 14.5t-59.5 39.5t-40 59t-14.5 74t14.5 74t40 59t59.5 39.5t74 14.5t74 -14.5t59.5 -39.5t40 -59t14.5 -74t-14.5 -74t-40 -59t-59.5 -39.5t-74 -14.5zM1194 -14q-40 0 -74 14.5t-59.5 39.5t-40 59
t-14.5 74t14.5 74t40 59t59.5 39.5t74 14.5t74 -14.5t59.5 -39.5t40 -59t14.5 -74t-14.5 -74t-40 -59t-59.5 -39.5t-74 -14.5zM758 82q39 0 63.5 26.5t24.5 64.5q0 39 -24.5 65.5t-63.5 26.5q-38 0 -62.5 -26.5t-24.5 -65.5q0 -38 24.5 -64.5t62.5 -26.5zM1194 82
q39 0 63.5 26.5t24.5 64.5q0 39 -24.5 65.5t-63.5 26.5q-38 0 -62.5 -26.5t-24.5 -65.5q0 -38 24.5 -64.5t62.5 -26.5z" />
    <glyph glyph-name="guilsinglleft" unicode="&#x2039;" horiz-adv-x="353" 
d="M179 290l111 -185h-122l-108 184l109 184h121z" />
    <glyph glyph-name="guilsinglright" unicode="&#x203a;" horiz-adv-x="353" 
d="M184 105h-121l111 183l-111 185h122l108 -184z" />
    <glyph glyph-name="fraction" unicode="&#x2044;" horiz-adv-x="562" 
d="M0 0l448 710h114l-449 -710h-113z" />
    <glyph glyph-name="Euro" unicode="&#x20ac;" horiz-adv-x="701" 
d="M639 222q-1 -56 -19 -99.5t-50 -73t-76.5 -45t-99.5 -15.5q-112 0 -176.5 62.5t-64.5 175.5h-110v94h110v75h-110v94h110q1 54 18 97t48 73t75 46t100 16t100.5 -16t76 -46t49 -72t19.5 -94h-127q-2 22 -9.5 42t-21.5 36t-35.5 25.5t-51.5 9.5q-57 0 -87 -34t-30 -83h158
v-94h-158v-75h158v-94h-158q1 -57 31.5 -90t86.5 -33q58 0 86.5 33.5t30.5 84.5h127v0z" />
    <glyph glyph-name="trademark" unicode="&#x2122;" horiz-adv-x="1026" 
d="M29 710h373v-93h-133v-306h-108v306h-132v93zM715 461l92 249h147v-399h-97v304l-110 -306h-73l-109 308v-306h-94v399h153z" />
    <glyph glyph-name="f_i" unicode="&#xfb01;" horiz-adv-x="799" 
d="M295 398v-398h-128v398h-139v108h139v74q0 74 41 115t128 41h171v-102h-132q-42 0 -61 -20.5t-19 -58.5v-49h181v-108h-181zM585 739h133v-152h-133v152zM588 506h128v-506h-128v506z" />
    <glyph glyph-name="f_l" unicode="&#xfb02;" horiz-adv-x="801" 
d="M295 398v-398h-128v398h-139v108h139v74q0 74 41 115t128 41h171v-102h-132q-42 0 -61 -20.5t-19 -58.5v-49h181v-108h-181zM589 736h128v-736h-128v736z" />
    <glyph glyph-name="uni0192" unicode="&#x192;" horiz-adv-x="581" 
d="M302 328l-81 -535h-128l80 535h-138v108h155l17 116q6 39 18 69t34 49.5t54 29.5t79 10h172v-107h-140q-47 0 -66 -18t-26 -61l-13 -88h164v-108h-181z" />
    <glyph glyph-name="exclam" unicode="!" horiz-adv-x="342" 
d="M107 710h127v-475h-127v475zM94 159h153v-159h-153v159z" />
    <glyph glyph-name="dollar" unicode="$" horiz-adv-x="607" 
d="M541 198q0 -76 -46.5 -129t-134.5 -67v-125h-110v125q-88 14 -136 70.5t-48 139.5v4h126v-2q0 -51 31 -79t80 -28q54 0 81 25t27 64q0 38 -22 60t-63 34l-81 23q-84 25 -127 73.5t-43 134.5q0 78 48.5 127.5t126.5 62.5v118h110v-119q81 -14 122.5 -66t42.5 -131v-2h-124
v2q-1 41 -26.5 67t-72.5 26q-45 0 -72 -22t-27 -61q0 -37 22 -58.5t64 -33.5q4 -2 15.5 -5t24 -6.5t24.5 -7t17 -5.5q83 -25 127 -73.5t44 -135.5z" />
    <glyph glyph-name="quotedbl" unicode="&#x22;" horiz-adv-x="498" 
d="M91 403v307h111v-307h-111zM296 403v307h111v-307h-111z" />
    <glyph glyph-name="numbersign" unicode="#" horiz-adv-x="748" 
d="M395 179h-142l-50 -179h-108l49 179h-117v96h144l47 171h-118v96h145l46 168h109l-47 -168h143l46 168h109l-47 -168h117v-96h-143l-48 -171h118v-96h-144l-50 -179h-108zM422 275l47 171h-142l-48 -171h143z" />
    <glyph glyph-name="brokenbar" unicode="&#xa6;" horiz-adv-x="326" 
d="M106 822h114v-411h-114v411zM106 308h114v-424h-114v424z" />
    <glyph glyph-name="onequarter" unicode="&#xbc;" horiz-adv-x="981" 
d="M863 109v-109h-107v109h-223v75l197 251h133v-239h84v-87h-84zM756 196v151l-116 -151h116zM259 275h-111v319l-109 -59v98l137 79h83v-437zM166 0l448 710h114l-449 -710h-113z" />
    <glyph glyph-name="onehalf" unicode="&#xbd;" horiz-adv-x="975" 
d="M259 275h-111v319l-109 -59v98l137 79h83v-437zM165 0l448 710h114l-449 -710h-113zM939 0h-349v70l163 146q25 23 37.5 40.5t12.5 39.5q0 23 -14.5 37.5t-40.5 14.5q-28 0 -43 -16.5t-15 -43.5v-20h-104v21q0 66 42 109.5t120 43.5q79 0 122.5 -39t43.5 -102
q0 -50 -26.5 -84.5t-69.5 -70.5l-62 -54h183v-92z" />
    <glyph glyph-name="threequarters" unicode="&#xbe;" horiz-adv-x="1079" 
d="M399 401q0 -60 -47 -96.5t-132 -36.5q-47 0 -80 13t-54.5 33t-32.5 44t-12 46h111q1 -7 5.5 -15t12.5 -14.5t20.5 -11t29.5 -4.5q32 0 49.5 13t17.5 36q0 45 -54 45h-86v90h80q47 0 47 40q0 22 -15.5 34t-42.5 12q-31 0 -44 -14.5t-15 -28.5h-109q1 24 11.5 47t31 42
t52 30.5t73.5 11.5q81 0 124.5 -32.5t43.5 -92.5q0 -36 -18.5 -56.5t-38.5 -28.5q12 -4 25 -12t23.5 -21t17 -31t6.5 -42zM960 109v-109h-107v109h-223v75l197 251h133v-239h84v-87h-84zM853 196v151l-116 -151h116zM264 0l448 710h114l-449 -710h-113z" />
    <glyph glyph-name="Eth" unicode="&#xd0;" horiz-adv-x="852" 
d="M12 416h111v294h287q85 0 155 -24t120 -69.5t77.5 -111.5t27.5 -150q0 -83 -27.5 -149t-77 -111.5t-120 -70t-155.5 -24.5h-287v300h-111v116zM257 592v-176h212v-116h-212v-182h151q56 0 101 16.5t77 47t49.5 74.5t17.5 99q0 57 -17.5 101t-49.5 74t-77 46t-101 16h-151
z" />
    <glyph glyph-name="multiply" unicode="&#xd7;" horiz-adv-x="660" 
d="M499 56l-171 171l-170 -171l-80 78l171 172l-171 171l84 83l169 -171l170 171l80 -78l-172 -173l172 -174z" />
    <glyph glyph-name="Yacute" unicode="&#xdd;" horiz-adv-x="782" 
d="M465 0h-138v299l-319 411h171l221 -289l220 289h154l-309 -410v-300zM435 929h144l-120 -156h-136z" />
    <glyph glyph-name="Thorn" unicode="&#xde;" horiz-adv-x="790" 
d="M232 152v-152h-134v710h134v-135h265q117 0 179 -53.5t62 -156.5q0 -100 -62 -156.5t-179 -56.5h-265zM232 455v-184h258q55 0 82.5 25.5t27.5 66.5q0 92 -110 92h-258z" />
    <glyph glyph-name="eth" unicode="&#xf0;" horiz-adv-x="643" 
d="M594 253q0 -58 -21 -106.5t-57.5 -84t-86.5 -55.5t-108 -20t-108 20t-86.5 55.5t-57 84t-20.5 106.5q0 53 17.5 98t47.5 77.5t71 51t88 18.5q34 0 58.5 -10t44.5 -25l-95 112l-160 -60l-30 75l134 50l-82 96h142l48 -55l141 53l31 -75l-116 -43l88 -102q27 -32 48.5 -62
t37 -61t23.5 -65t8 -73zM321 101q33 0 59.5 12t45 32.5t29 48t10.5 59.5q0 31 -10.5 59t-29 48.5t-45 32.5t-59.5 12q-32 0 -58.5 -12t-45 -32.5t-29 -48.5t-10.5 -59q0 -32 10.5 -59.5t29 -48t45 -32.5t58.5 -12z" />
    <glyph glyph-name="yacute" unicode="&#xfd;" horiz-adv-x="599" 
d="M273 -213h-128l96 222l-228 497h144l149 -344l149 344h130zM345 767h133l-116 -187h-126z" />
    <glyph glyph-name="thorn" unicode="&#xfe;" horiz-adv-x="675" 
d="M208 -213h-125v949h126v-310q4 7 16 22.5t33.5 30.5t52.5 26.5t72 11.5q50 0 94 -18t76.5 -52t51.5 -83t19 -111t-19 -111t-51.5 -83t-76.5 -52t-94 -18q-41 0 -72 11t-52.5 25.5t-34 29t-16.5 22.5v-290zM207 253q0 -32 10.5 -60t29 -48.5t45 -32t59.5 -11.5t59.5 11.5
t45 32t29 48.5t10.5 60q0 33 -10.5 60.5t-29 48t-45 32t-59.5 11.5t-59.5 -11.5t-45 -32t-29 -48t-10.5 -60.5z" />
    <glyph glyph-name="Lslash" unicode="&#x141;" horiz-adv-x="723" 
d="M686 0h-573v213l-97 -46v114l97 47v382h134v-317l266 130v-118l-266 -128v-156h439v-121z" />
    <glyph glyph-name="lslash" unicode="&#x142;" horiz-adv-x="385" 
d="M21 366l108 50v320h128v-261l106 49v-114l-106 -48v-362h-128v304l-108 -49v111z" />
    <glyph glyph-name="Scaron" unicode="&#x160;" horiz-adv-x="755" 
d="M350 609q-73 0 -110.5 -23t-37.5 -62q0 -36 30 -57t86 -28q33 -3 61 -6t64 -7q53 -5 99 -19t79.5 -39.5t53 -64.5t19.5 -95q0 -48 -19 -88.5t-56.5 -70t-94.5 -46t-132 -16.5q-87 0 -148.5 20t-102.5 51.5t-64.5 70.5t-33.5 77h143q7 -17 22 -35.5t39.5 -34t60 -25.5
t84.5 -10q81 0 123 27.5t42 70.5q0 51 -34 71.5t-89 27.5l-126 13q-53 5 -97.5 20.5t-76.5 41.5t-50 62.5t-18 84.5t20.5 85.5t58 63.5t90 40t115.5 14q84 0 142.5 -18t96.5 -46.5t59 -63.5t29 -69h-137q-8 13 -22 28t-37 27t-55.5 20t-75.5 8zM427 771h-118l-136 161h122
l73 -83l73 83h125z" />
    <glyph glyph-name="scaron" unicode="&#x161;" horiz-adv-x="578" 
d="M327 198q-27 2 -45 4t-44 5q-42 3 -76 14.5t-58.5 31t-38 47.5t-13.5 65q0 36 15.5 64.5t45 48.5t70.5 31t92 11q68 0 113.5 -15.5t74 -37.5t42 -47t18.5 -43h-135q-3 4 -10.5 12t-21 15.5t-34 13t-48.5 5.5q-46 0 -69.5 -14t-23.5 -37q0 -21 17 -34.5t55 -18.5l86 -9
q103 -9 148 -49t45 -115q0 -71 -59 -115.5t-175 -44.5q-71 0 -118.5 18t-77.5 42.5t-44.5 51t-18.5 44.5h137q2 -5 9 -14t21.5 -19t37 -17t54.5 -7q53 0 78.5 16t25.5 40q0 23 -16 37.5t-59 19.5zM340 580h-112l-126 196h116l67 -105l67 105h117z" />
    <glyph glyph-name="Zcaron" unicode="&#x17d;" horiz-adv-x="791" 
d="M751 0h-700v77l442 514h-432v119h643v-77l-446 -513h493v-120zM441 771h-118l-136 161h122l73 -83l73 83h125z" />
    <glyph glyph-name="zcaron" unicode="&#x17e;" horiz-adv-x="621" 
d="M585 0h-536v71l305 329h-297v106h491v-69l-309 -330h346v-107zM357 580h-112l-126 196h116l67 -105l67 105h117z" />
    <glyph glyph-name="minus" unicode="&#x2212;" horiz-adv-x="692" 
d="M80 265v115h532v-115h-532z" />
    <glyph glyph-name="Dcroat" unicode="&#x110;" horiz-adv-x="846" 
d="M11 414h107v296h287q85 0 155 -24t120 -69.5t77.5 -111.5t27.5 -150q0 -83 -27.5 -149t-77 -111.5t-120 -70t-155.5 -24.5h-287v302h-107v112zM252 592v-178h216v-112h-216v-184h151q56 0 101 16.5t77 47t49.5 74.5t17.5 99q0 57 -17.5 101t-49.5 74t-77 46t-101 16h-151
z" />
    <glyph glyph-name="Eng" unicode="&#x14a;" horiz-adv-x="862" 
d="M764 -41q0 -89 -42.5 -130.5t-128.5 -41.5h-151v107h106q89 0 89 71q0 22 -11 44t-37 57l-361 472v-538h-130v710h156l381 -504v504h129v-751v0z" />
    <glyph glyph-name="IJ" unicode="&#x132;" horiz-adv-x="1008" 
d="M99 710h135v-710h-135v710zM913 230q0 -115 -68 -179t-186 -64t-183 63.5t-65 179.5v190h130v-182q0 -57 30.5 -92t87.5 -35q59 0 89.5 35t30.5 92v472h134v-480v0z" />
    <glyph glyph-name="dcroat" unicode="&#x111;" horiz-adv-x="676" 
d="M466 80q-4 -8 -16 -23t-33.5 -30t-52.5 -26.5t-73 -11.5q-50 0 -93.5 18t-76.5 52t-52 83t-19 111t19 111t52 83t77 52t93 18q41 0 72 -11t52.5 -25t33.5 -29t16 -22v142h-199v91h199v73h128v-73h89v-91h-89v-572h-127v80zM467 253q0 33 -10 60.5t-28.5 48t-45 32
t-58.5 11.5q-33 0 -60 -11.5t-45.5 -32t-29 -48t-10.5 -60.5t10.5 -60.5t29 -48t45.5 -32t60 -11.5q32 0 58.5 11.5t45 32t28.5 48t10 60.5z" />
    <glyph glyph-name="eng" unicode="&#x14b;" horiz-adv-x="665" 
d="M589 -35q0 -92 -43 -135t-131 -43h-149v105h107q46 0 66.5 22t20.5 66v290q0 60 -33 96.5t-90 36.5q-58 0 -92.5 -37t-34.5 -96v-270h-127v506h127v-85q7 13 21.5 30t35.5 31.5t48.5 24.5t62.5 10q48 0 86.5 -16.5t66.5 -46t43 -70.5t15 -89v-330v0z" />
    <glyph glyph-name="ij" unicode="&#x133;" horiz-adv-x="591" 
d="M81 739h133v-152h-133v152zM84 506h128v-506h-128v506zM376 739h134v-152h-134v152zM507 -42q0 -88 -41 -129.5t-125 -41.5h-157v105h114q43 0 62 20t19 62v532h128v-548z" />
    <glyph glyph-name="Abreve" unicode="&#x102;" horiz-adv-x="816" 
d="M583 146h-358l-65 -146h-135l319 713h127l320 -713h-143zM532 262l-128 287l-128 -287h256zM407 860q32 0 46 19t14 44v11h101v-13q0 -32 -10 -60.5t-30 -49.5t-50 -33t-71 -12t-71 12t-50 33t-30 49.5t-10 60.5v13h101v-11q0 -24 14 -43.5t46 -19.5z" />
    <glyph glyph-name="Amacron" unicode="&#x100;" horiz-adv-x="816" 
d="M583 146h-358l-65 -146h-135l319 713h127l320 -713h-143zM532 262l-128 287l-128 -287h256zM232 801v100h350v-100h-350z" />
    <glyph glyph-name="Aogonek" unicode="&#x104;" horiz-adv-x="816" 
d="M583 146h-358l-65 -146h-135l319 713h127l320 -713h-1q-42 -32 -65.5 -52t-23.5 -40q0 -25 32 -25h82v-96h-126q-58 0 -91.5 23t-33.5 69q0 40 25 67.5t58 53.5h1zM532 262l-128 287l-128 -287h256z" />
    <glyph glyph-name="Aringacute" unicode="&#x1fa;" horiz-adv-x="816" 
d="M583 146h-358l-65 -146h-135l319 713h127l320 -713h-143zM532 262l-128 287l-128 -287h256zM446 1208h141l-111 -144h-133zM407 763q-30 0 -55 10.5t-43 28.5t-28 42t-10 52t10.5 52t28.5 42t43 28t54 10t54 -10t43.5 -28t29 -42t10.5 -52t-10.5 -52t-28.5 -42t-43 -28.5
t-55 -10.5zM407 835q26 0 43 17.5t17 43.5t-16.5 43t-43.5 17t-43.5 -17t-16.5 -43t17 -43.5t43 -17.5z" />
    <glyph glyph-name="AEacute" unicode="&#x1fc;" horiz-adv-x="1170" 
d="M1131 0h-596v165h-281l-108 -165h-149l468 710h626v-116h-422v-162h244v-117h-244v-196h462v-119zM535 280v316l-206 -316h206zM824 929h144l-120 -156h-136z" />
    <glyph glyph-name="Cacute" unicode="&#x106;" horiz-adv-x="803" 
d="M418 -12q-78 0 -143.5 28t-113.5 77.5t-74.5 116.5t-26.5 145t26.5 145t74.5 116.5t113.5 77.5t143.5 28q82 0 141.5 -24.5t99 -59.5t61.5 -75t29 -71h-138q-8 14 -23 32.5t-38.5 35t-56.5 28t-75 11.5q-50 0 -90.5 -19.5t-69 -52.5t-44 -77.5t-15.5 -94.5t15.5 -94.5
t44 -77.5t69 -52.5t90.5 -19.5q46 0 80 12t57 28.5t37 35t21 32.5h136q-6 -28 -26.5 -67.5t-59.5 -76t-99.5 -62t-145.5 -25.5zM463 929h144l-120 -156h-136z" />
    <glyph glyph-name="Ccaron" unicode="&#x10c;" horiz-adv-x="803" 
d="M418 -12q-78 0 -143.5 28t-113.5 77.5t-74.5 116.5t-26.5 145t26.5 145t74.5 116.5t113.5 77.5t143.5 28q82 0 141.5 -24.5t99 -59.5t61.5 -75t29 -71h-138q-8 14 -23 32.5t-38.5 35t-56.5 28t-75 11.5q-50 0 -90.5 -19.5t-69 -52.5t-44 -77.5t-15.5 -94.5t15.5 -94.5
t44 -77.5t69 -52.5t90.5 -19.5q46 0 80 12t57 28.5t37 35t21 32.5h136q-6 -28 -26.5 -67.5t-59.5 -76t-99.5 -62t-145.5 -25.5zM477 771h-118l-136 161h122l73 -83l73 83h125z" />
    <glyph glyph-name="Ccircumflex" unicode="&#x108;" horiz-adv-x="803" 
d="M418 -12q-78 0 -143.5 28t-113.5 77.5t-74.5 116.5t-26.5 145t26.5 145t74.5 116.5t113.5 77.5t143.5 28q82 0 141.5 -24.5t99 -59.5t61.5 -75t29 -71h-138q-8 14 -23 32.5t-38.5 35t-56.5 28t-75 11.5q-50 0 -90.5 -19.5t-69 -52.5t-44 -77.5t-15.5 -94.5t15.5 -94.5
t44 -77.5t69 -52.5t90.5 -19.5q46 0 80 12t57 28.5t37 35t21 32.5h136q-6 -28 -26.5 -67.5t-59.5 -76t-99.5 -62t-145.5 -25.5zM418 854l-73 -83h-125l139 161h118l136 -161h-122z" />
    <glyph glyph-name="Cdotaccent" unicode="&#x10a;" horiz-adv-x="803" 
d="M418 -12q-78 0 -143.5 28t-113.5 77.5t-74.5 116.5t-26.5 145t26.5 145t74.5 116.5t113.5 77.5t143.5 28q82 0 141.5 -24.5t99 -59.5t61.5 -75t29 -71h-138q-8 14 -23 32.5t-38.5 35t-56.5 28t-75 11.5q-50 0 -90.5 -19.5t-69 -52.5t-44 -77.5t-15.5 -94.5t15.5 -94.5
t44 -77.5t69 -52.5t90.5 -19.5q46 0 80 12t57 28.5t37 35t21 32.5h136q-6 -28 -26.5 -67.5t-59.5 -76t-99.5 -62t-145.5 -25.5zM352 925h132v-152h-132v152z" />
    <glyph glyph-name="Dcaron" unicode="&#x10e;" horiz-adv-x="826" 
d="M98 710h287q85 0 155 -24t120 -69.5t77.5 -111.5t27.5 -150q0 -83 -27.5 -149t-77 -111.5t-120 -70t-155.5 -24.5h-287v710zM232 592v-474h151q56 0 101 16.5t77 47t49.5 74.5t17.5 99q0 57 -17.5 101t-49.5 74t-77 46t-101 16h-151zM440 771h-118l-136 161h122l73 -83
l73 83h125z" />
    <glyph glyph-name="Ebreve" unicode="&#x114;" horiz-adv-x="752" 
d="M98 710h575v-116h-441v-162h263v-117h-263v-196h481v-119h-615v710zM396 860q32 0 46 19t14 44v11h101v-13q0 -32 -10 -60.5t-30 -49.5t-50 -33t-71 -12t-71 12t-50 33t-30 49.5t-10 60.5v13h101v-11q0 -24 14 -43.5t46 -19.5z" />
    <glyph glyph-name="Ecaron" unicode="&#x11a;" horiz-adv-x="752" 
d="M98 710h575v-116h-441v-162h263v-117h-263v-196h481v-119h-615v710zM455 771h-118l-136 161h122l73 -83l73 83h125z" />
    <glyph glyph-name="Edotaccent" unicode="&#x116;" horiz-adv-x="752" 
d="M98 710h575v-116h-441v-162h263v-117h-263v-196h481v-119h-615v710zM330 925h132v-152h-132v152z" />
    <glyph glyph-name="Emacron" unicode="&#x112;" horiz-adv-x="752" 
d="M98 710h575v-116h-441v-162h263v-117h-263v-196h481v-119h-615v710zM221 801v100h350v-100h-350z" />
    <glyph glyph-name="Eogonek" unicode="&#x118;" horiz-adv-x="752" 
d="M98 710h575v-116h-441v-162h263v-117h-263v-196h481v-119h-615v710zM632 -213h-126q-58 0 -91.5 23t-33.5 69q0 20 8 36t21.5 30.5t31 27.5t37.5 27h128q-42 -32 -65.5 -52t-23.5 -40q0 -25 32 -25h82v-96z" />
    <glyph glyph-name="Gbreve" unicode="&#x11e;" horiz-adv-x="842" 
d="M762 92q-18 -16 -46 -34.5t-67 -34t-89 -26t-111 -10.5q-88 0 -160 27t-123 76t-78.5 117t-27.5 150q0 79 27 146.5t75.5 116t115.5 76t147 27.5q78 0 134.5 -20t95 -49t60 -63.5t30.5 -62.5h-142q-8 10 -22 23t-35.5 25t-51.5 20t-69 8q-53 0 -95 -19t-71.5 -52
t-45.5 -78.5t-16 -97.5q0 -56 17.5 -102t50.5 -79t80 -51.5t105 -18.5q69 0 115 14.5t68 29.5v145h-250v114h379v-317v0zM425 860q32 0 46 19t14 44v11h101v-13q0 -32 -10 -60.5t-30 -49.5t-50 -33t-71 -12t-71 12t-50 33t-30 49.5t-10 60.5v13h101v-11q0 -24 14 -43.5
t46 -19.5z" />
    <glyph glyph-name="Gcircumflex" unicode="&#x11c;" horiz-adv-x="842" 
d="M762 92q-18 -16 -46 -34.5t-67 -34t-89 -26t-111 -10.5q-88 0 -160 27t-123 76t-78.5 117t-27.5 150q0 79 27 146.5t75.5 116t115.5 76t147 27.5q78 0 134.5 -20t95 -49t60 -63.5t30.5 -62.5h-142q-8 10 -22 23t-35.5 25t-51.5 20t-69 8q-53 0 -95 -19t-71.5 -52
t-45.5 -78.5t-16 -97.5q0 -56 17.5 -102t50.5 -79t80 -51.5t105 -18.5q69 0 115 14.5t68 29.5v145h-250v114h379v-317v0zM425 854l-73 -83h-125l139 161h118l136 -161h-122z" />
    <glyph glyph-name="uni0122" unicode="&#x122;" horiz-adv-x="842" 
d="M762 92q-18 -16 -46 -34.5t-67 -34t-89 -26t-111 -10.5q-88 0 -160 27t-123 76t-78.5 117t-27.5 150q0 79 27 146.5t75.5 116t115.5 76t147 27.5q78 0 134.5 -20t95 -49t60 -63.5t30.5 -62.5h-142q-8 10 -22 23t-35.5 25t-51.5 20t-69 8q-53 0 -95 -19t-71.5 -52
t-45.5 -78.5t-16 -97.5q0 -56 17.5 -102t50.5 -79t80 -51.5t105 -18.5q69 0 115 14.5t68 29.5v145h-250v114h379v-317v0zM405 -322q16 29 27 61t13 53h-66v127h145v-101q0 -46 -10 -79.5t-22 -60.5h-87z" />
    <glyph glyph-name="Gdotaccent" unicode="&#x120;" horiz-adv-x="842" 
d="M762 92q-18 -16 -46 -34.5t-67 -34t-89 -26t-111 -10.5q-88 0 -160 27t-123 76t-78.5 117t-27.5 150q0 79 27 146.5t75.5 116t115.5 76t147 27.5q78 0 134.5 -20t95 -49t60 -63.5t30.5 -62.5h-142q-8 10 -22 23t-35.5 25t-51.5 20t-69 8q-53 0 -95 -19t-71.5 -52
t-45.5 -78.5t-16 -97.5q0 -56 17.5 -102t50.5 -79t80 -51.5t105 -18.5q69 0 115 14.5t68 29.5v145h-250v114h379v-317v0zM359 925h132v-152h-132v152z" />
    <glyph glyph-name="Hbar" unicode="&#x126;" horiz-adv-x="854" 
d="M622 297h-390v-297h-134v515h-91v93h91v102h134v-102h390v102h135v-102h90v-93h-90v-515h-135v297zM622 417v98h-390v-98h390z" />
    <glyph glyph-name="Hcircumflex" unicode="&#x124;" horiz-adv-x="854" 
d="M622 297h-390v-297h-134v710h134v-293h390v293h135v-710h-135v297zM427 854l-73 -83h-125l139 161h118l136 -161h-122z" />
    <glyph glyph-name="Ibreve" unicode="&#x12c;" horiz-adv-x="333" 
d="M99 710h135v-710h-135v710zM166 860q32 0 46 19t14 44v11h101v-13q0 -32 -10 -60.5t-30 -49.5t-50 -33t-71 -12t-71 12t-50 33t-30 49.5t-10 60.5v13h101v-11q0 -24 14 -43.5t46 -19.5z" />
    <glyph glyph-name="Idotaccent" unicode="&#x130;" horiz-adv-x="333" 
d="M99 710h135v-710h-135v710zM100 925h132v-152h-132v152z" />
    <glyph glyph-name="Imacron" unicode="&#x12a;" horiz-adv-x="333" 
d="M99 710h135v-710h-135v710zM-9 801v100h350v-100h-350z" />
    <glyph glyph-name="Iogonek" unicode="&#x12e;" horiz-adv-x="333" 
d="M99 710h135v-710q-42 -32 -65.5 -52t-23.5 -40q0 -25 32 -25h82v-96h-127q-58 0 -91.5 22.5t-33.5 67.5q0 20 7.5 36.5t20 31.5t29 28.5t35.5 26.5v710z" />
    <glyph glyph-name="Itilde" unicode="&#x128;" horiz-adv-x="333" 
d="M99 710h135v-710h-135v710zM130 827q-11 5 -19.5 8.5t-15.5 3.5q-16 0 -16 -22v-48h-93v77q0 44 20.5 70t63.5 26q26 0 47 -10t47 -24l38 -19q11 -5 19 -9t15 -4q17 0 17 23v48h93v-77q0 -44 -21 -70t-63 -26q-27 0 -47.5 9.5t-46.5 23.5z" />
    <glyph glyph-name="Jcircumflex" unicode="&#x134;" horiz-adv-x="675" 
d="M580 230q0 -115 -68 -179t-186 -64t-183 63.5t-65 179.5v190h130v-182q0 -57 30.5 -92t87.5 -35q59 0 89.5 35t30.5 92v472h134v-480v0zM511 854l-73 -83h-125l139 161h118l136 -161h-122z" />
    <glyph glyph-name="uni0136" unicode="&#x136;" horiz-adv-x="798" 
d="M232 325v-325h-134v710h134v-319l366 319h180l-397 -345l414 -365h-187zM364 -322q16 29 27 61t13 53h-66v127h145v-101q0 -46 -10 -79.5t-22 -60.5h-87z" />
    <glyph glyph-name="Lacute" unicode="&#x139;" horiz-adv-x="707" 
d="M671 0h-573v710h134v-589h439v-121zM211 929h144l-120 -156h-136z" />
    <glyph glyph-name="Lcaron" unicode="&#x13d;" horiz-adv-x="708" 
d="M671 0h-573v710h134v-589h439v-121zM342 774h115l-61 -194h-107z" />
    <glyph glyph-name="uni013B" unicode="&#x13b;" horiz-adv-x="707" 
d="M671 0h-573v710h134v-589h439v-121zM347 -322q16 29 27 61t13 53h-66v127h145v-101q0 -46 -10 -79.5t-22 -60.5h-87z" />
    <glyph glyph-name="Ldot" unicode="&#x13f;" horiz-adv-x="708" 
d="M671 0h-573v710h134v-589h439v-121zM442 488h153v-170h-153v170z" />
    <glyph glyph-name="Nacute" unicode="&#x143;" horiz-adv-x="862" 
d="M764 -3h-105l-431 544v-541h-130v710h156l381 -487v487h129v-713zM485 929h144l-120 -156h-136z" />
    <glyph glyph-name="Ncaron" unicode="&#x147;" horiz-adv-x="862" 
d="M764 -3h-105l-431 544v-541h-130v710h156l381 -487v487h129v-713zM501 771h-118l-136 161h122l73 -83l73 83h125z" />
    <glyph glyph-name="uni0145" unicode="&#x145;" horiz-adv-x="862" 
d="M764 -3h-105l-431 544v-541h-130v710h156l381 -487v487h129v-713zM390 -322q16 29 27 61t13 53h-66v127h145v-101q0 -46 -10 -79.5t-22 -60.5h-87z" />
    <glyph glyph-name="Obreve" unicode="&#x14e;" horiz-adv-x="864" 
d="M432 -12q-80 0 -148 27.5t-118 76t-78 116t-28 147.5t28.5 147.5t78.5 116t118 76t147 27.5t147 -27.5t118 -76t78.5 -116t28.5 -147.5t-28.5 -147t-78.5 -116t-118 -76.5t-147 -27.5zM432 110q53 0 96.5 19t74 52.5t47.5 78t17 95.5t-17 95.5t-47.5 77.5t-74 52.5
t-96.5 19.5t-96 -19.5t-74 -52.5t-47.5 -77.5t-16.5 -95.5t16.5 -96t47 -78t74 -52t96.5 -19zM432 860q32 0 46 19t14 44v11h101v-13q0 -32 -10 -60.5t-30 -49.5t-50 -33t-71 -12t-71 12t-50 33t-30 49.5t-10 60.5v13h101v-11q0 -24 14 -43.5t46 -19.5z" />
    <glyph glyph-name="Ohungarumlaut" unicode="&#x150;" horiz-adv-x="864" 
d="M432 -12q-80 0 -148 27.5t-118 76t-78 116t-28 147.5t28.5 147.5t78.5 116t118 76t147 27.5t147 -27.5t118 -76t78.5 -116t28.5 -147.5t-28.5 -147t-78.5 -116t-118 -76.5t-147 -27.5zM432 110q53 0 96.5 19t74 52.5t47.5 78t17 95.5t-17 95.5t-47.5 77.5t-74 52.5
t-96.5 19.5t-96 -19.5t-74 -52.5t-47.5 -77.5t-16.5 -95.5t16.5 -96t47 -78t74 -52t96.5 -19zM550 929h124l-86 -156h-118zM349 929h125l-85 -156h-117z" />
    <glyph glyph-name="Omacron" unicode="&#x14c;" horiz-adv-x="864" 
d="M432 -12q-80 0 -148 27.5t-118 76t-78 116t-28 147.5t28.5 147.5t78.5 116t118 76t147 27.5t147 -27.5t118 -76t78.5 -116t28.5 -147.5t-28.5 -147t-78.5 -116t-118 -76.5t-147 -27.5zM432 110q53 0 96.5 19t74 52.5t47.5 78t17 95.5t-17 95.5t-47.5 77.5t-74 52.5
t-96.5 19.5t-96 -19.5t-74 -52.5t-47.5 -77.5t-16.5 -95.5t16.5 -96t47 -78t74 -52t96.5 -19zM257 801v100h350v-100h-350z" />
    <glyph glyph-name="Oslashacute" unicode="&#x1fe;" horiz-adv-x="864" 
d="M804 355q0 -80 -28.5 -147t-78.5 -116t-118 -76.5t-147 -27.5q-58 0 -110 15t-97 44l-42 -47h-142l105 116q-41 48 -63.5 108.5t-22.5 130.5q0 80 28.5 147.5t78.5 116t118 76t147 27.5q57 0 108.5 -15t96.5 -44l42 47h145l-106 -118q41 -47 63.5 -107t22.5 -130z
M197 355q0 -41 9.5 -76.5t26.5 -65.5l322 358q-53 31 -123 31q-53 0 -96.5 -19.5t-74 -53t-47.5 -78.5t-17 -96zM667 355q0 40 -9.5 76t-26.5 65l-323 -357q54 -31 124 -31q53 0 96.5 19t74 52.5t47.5 78.5t17 97zM478 929h144l-120 -156h-136z" />
    <glyph glyph-name="Racute" unicode="&#x154;" horiz-adv-x="809" 
d="M98 710h397q117 0 180 -53.5t63 -158.5q0 -72 -36 -121.5t-104 -70.5l167 -306h-142l-161 292h-230v-292h-134v710zM232 591v-182h252q116 0 116 89q0 49 -29 71t-87 22h-252zM443 929h144l-120 -156h-136z" />
    <glyph glyph-name="Rcaron" unicode="&#x158;" horiz-adv-x="809" 
d="M98 710h397q117 0 180 -53.5t63 -158.5q0 -72 -36 -121.5t-104 -70.5l167 -306h-142l-161 292h-230v-292h-134v710zM232 591v-182h252q116 0 116 89q0 49 -29 71t-87 22h-252zM457 771h-118l-136 161h122l73 -83l73 83h125z" />
    <glyph glyph-name="uni0156" unicode="&#x156;" horiz-adv-x="809" 
d="M98 710h397q117 0 180 -53.5t63 -158.5q0 -72 -36 -121.5t-104 -70.5l167 -306h-142l-161 292h-230v-292h-134v710zM232 591v-182h252q116 0 116 89q0 49 -29 71t-87 22h-252zM359 -322q16 29 27 61t13 53h-66v127h145v-101q0 -46 -10 -79.5t-22 -60.5h-87z" />
    <glyph glyph-name="Sacute" unicode="&#x15a;" horiz-adv-x="755" 
d="M350 609q-73 0 -110.5 -23t-37.5 -62q0 -36 30 -57t86 -28q33 -3 61 -6t64 -7q53 -5 99 -19t79.5 -39.5t53 -64.5t19.5 -95q0 -48 -19 -88.5t-56.5 -70t-94.5 -46t-132 -16.5q-87 0 -148.5 20t-102.5 51.5t-64.5 70.5t-33.5 77h143q7 -17 22 -35.5t39.5 -34t60 -25.5
t84.5 -10q81 0 123 27.5t42 70.5q0 51 -34 71.5t-89 27.5l-126 13q-53 5 -97.5 20.5t-76.5 41.5t-50 62.5t-18 84.5t20.5 85.5t58 63.5t90 40t115.5 14q84 0 142.5 -18t96.5 -46.5t59 -63.5t29 -69h-137q-8 13 -22 28t-37 27t-55.5 20t-75.5 8zM413 929h144l-120 -156h-136z
" />
    <glyph glyph-name="uni015E" unicode="&#x15e;" horiz-adv-x="755" 
d="M350 609q-73 0 -110.5 -23t-37.5 -62q0 -36 30 -57t86 -28q33 -3 61 -6t64 -7q53 -5 99 -19t79.5 -39.5t53 -64.5t19.5 -95q0 -48 -19 -88.5t-56.5 -70t-94.5 -46t-132 -16.5q-87 0 -148.5 20t-102.5 51.5t-64.5 70.5t-33.5 77h143q7 -17 22 -35.5t39.5 -34t60 -25.5
t84.5 -10q81 0 123 27.5t42 70.5q0 51 -34 71.5t-89 27.5l-126 13q-53 5 -97.5 20.5t-76.5 41.5t-50 62.5t-18 84.5t20.5 85.5t58 63.5t90 40t115.5 14q84 0 142.5 -18t96.5 -46.5t59 -63.5t29 -69h-137q-8 13 -22 28t-37 27t-55.5 20t-75.5 8zM421 -156q0 14 -8.5 22
t-27.5 8h-91v126h100v-49h9q64 0 94 -29.5t30 -80.5t-30 -84t-94 -33h-146v88h128q36 0 36 32z" />
    <glyph glyph-name="Scircumflex" unicode="&#x15c;" horiz-adv-x="755" 
d="M350 609q-73 0 -110.5 -23t-37.5 -62q0 -36 30 -57t86 -28q33 -3 61 -6t64 -7q53 -5 99 -19t79.5 -39.5t53 -64.5t19.5 -95q0 -48 -19 -88.5t-56.5 -70t-94.5 -46t-132 -16.5q-87 0 -148.5 20t-102.5 51.5t-64.5 70.5t-33.5 77h143q7 -17 22 -35.5t39.5 -34t60 -25.5
t84.5 -10q81 0 123 27.5t42 70.5q0 51 -34 71.5t-89 27.5l-126 13q-53 5 -97.5 20.5t-76.5 41.5t-50 62.5t-18 84.5t20.5 85.5t58 63.5t90 40t115.5 14q84 0 142.5 -18t96.5 -46.5t59 -63.5t29 -69h-137q-8 13 -22 28t-37 27t-55.5 20t-75.5 8zM368 854l-73 -83h-125
l139 161h118l136 -161h-122z" />
    <glyph glyph-name="uni0218" unicode="&#x218;" horiz-adv-x="755" 
d="M350 609q-73 0 -110.5 -23t-37.5 -62q0 -36 30 -57t86 -28q33 -3 61 -6t64 -7q53 -5 99 -19t79.5 -39.5t53 -64.5t19.5 -95q0 -48 -19 -88.5t-56.5 -70t-94.5 -46t-132 -16.5q-87 0 -148.5 20t-102.5 51.5t-64.5 70.5t-33.5 77h143q7 -17 22 -35.5t39.5 -34t60 -25.5
t84.5 -10q81 0 123 27.5t42 70.5q0 51 -34 71.5t-89 27.5l-126 13q-53 5 -97.5 20.5t-76.5 41.5t-50 62.5t-18 84.5t20.5 85.5t58 63.5t90 40t115.5 14q84 0 142.5 -18t96.5 -46.5t59 -63.5t29 -69h-137q-8 13 -22 28t-37 27t-55.5 20t-75.5 8zM346 -322q16 29 27 61t13 53
h-66v127h145v-101q0 -46 -10 -79.5t-22 -60.5h-87z" />
    <glyph glyph-name="Tcaron" unicode="&#x164;" horiz-adv-x="772" 
d="M37 710h698v-120h-282v-590h-134v590h-282v120zM445 771h-118l-136 161h122l73 -83l73 83h125z" />
    <glyph glyph-name="Tcommaaccent" unicode="&#x162;" horiz-adv-x="772" 
d="M37 710h698v-120h-282v-590h-134v590h-282v120zM341 -322q16 29 27 61t13 53h-66v127h145v-101q0 -46 -10 -79.5t-22 -60.5h-87z" />
    <glyph glyph-name="uni021A" unicode="&#x21a;" horiz-adv-x="772" 
d="M37 710h698v-120h-282v-590h-134v590h-282v120zM341 -322q16 29 27 61t13 53h-66v127h145v-101q0 -46 -10 -79.5t-22 -60.5h-87z" />
    <glyph glyph-name="Tbar" unicode="&#x166;" horiz-adv-x="772" 
d="M131 419h188v171h-282v120h698v-120h-282v-171h188v-108h-188v-311h-134v311h-188v108z" />
    <glyph glyph-name="Ubreve" unicode="&#x16c;" horiz-adv-x="842" 
d="M422 111q46 0 82 14.5t60.5 41.5t37.5 64.5t13 83.5v395h133v-404q0 -67 -21 -125t-62 -101.5t-102 -68.5t-141 -25q-83 0 -144.5 24.5t-102 68t-61 101.5t-20.5 126v404h135v-395q0 -46 12.5 -83.5t37 -64.5t60.5 -41.5t83 -14.5zM421 860q32 0 46 19t14 44v11h101v-13
q0 -32 -10 -60.5t-30 -49.5t-50 -33t-71 -12t-71 12t-50 33t-30 49.5t-10 60.5v13h101v-11q0 -24 14 -43.5t46 -19.5z" />
    <glyph glyph-name="Uhungarumlaut" unicode="&#x170;" horiz-adv-x="842" 
d="M422 111q46 0 82 14.5t60.5 41.5t37.5 64.5t13 83.5v395h133v-404q0 -67 -21 -125t-62 -101.5t-102 -68.5t-141 -25q-83 0 -144.5 24.5t-102 68t-61 101.5t-20.5 126v404h135v-395q0 -46 12.5 -83.5t37 -64.5t60.5 -41.5t83 -14.5zM538 929h124l-86 -156h-118zM337 929
h125l-85 -156h-117z" />
    <glyph glyph-name="Umacron" unicode="&#x16a;" horiz-adv-x="842" 
d="M422 111q46 0 82 14.5t60.5 41.5t37.5 64.5t13 83.5v395h133v-404q0 -67 -21 -125t-62 -101.5t-102 -68.5t-141 -25q-83 0 -144.5 24.5t-102 68t-61 101.5t-20.5 126v404h135v-395q0 -46 12.5 -83.5t37 -64.5t60.5 -41.5t83 -14.5zM246 801v100h350v-100h-350z" />
    <glyph glyph-name="Uogonek" unicode="&#x172;" horiz-adv-x="842" 
d="M620 -213h-126q-58 0 -91.5 22.5t-33.5 66.5q0 37 28.5 64t64.5 48q-11 -1 -21.5 -1.5t-18.5 -0.5q-83 0 -144.5 24.5t-102 68t-61 101.5t-20.5 126v404h135v-395q0 -46 12.5 -83.5t37 -64.5t60.5 -41.5t83 -14.5q46 0 82 14.5t60.5 41.5t37.5 64.5t13 83.5v395h133v-404
q0 -48 -10 -88.5t-28.5 -74.5t-44 -63.5t-55.5 -56.5q-29 -26 -49 -43t-32 -29.5t-17.5 -22t-5.5 -19.5q0 -26 34 -26h80v-96z" />
    <glyph glyph-name="Uring" unicode="&#x16e;" horiz-adv-x="842" 
d="M422 111q46 0 82 14.5t60.5 41.5t37.5 64.5t13 83.5v395h133v-404q0 -67 -21 -125t-62 -101.5t-102 -68.5t-141 -25q-83 0 -144.5 24.5t-102 68t-61 101.5t-20.5 126v404h135v-395q0 -46 12.5 -83.5t37 -64.5t60.5 -41.5t83 -14.5zM421 763q-30 0 -55 10.5t-43 28.5
t-28 42t-10 52t10.5 52t28.5 42t43 28t54 10t54 -10t43.5 -28t29 -42t10.5 -52t-10.5 -52t-28.5 -42t-43 -28.5t-55 -10.5zM421 835q26 0 43 17.5t17 43.5t-16.5 43t-43.5 17t-43.5 -17t-16.5 -43t17 -43.5t43 -17.5z" />
    <glyph glyph-name="Utilde" unicode="&#x168;" horiz-adv-x="842" 
d="M422 111q46 0 82 14.5t60.5 41.5t37.5 64.5t13 83.5v395h133v-404q0 -67 -21 -125t-62 -101.5t-102 -68.5t-141 -25q-83 0 -144.5 24.5t-102 68t-61 101.5t-20.5 126v404h135v-395q0 -46 12.5 -83.5t37 -64.5t60.5 -41.5t83 -14.5zM385 827q-11 5 -19.5 8.5t-15.5 3.5
q-16 0 -16 -22v-48h-93v77q0 44 20.5 70t63.5 26q26 0 47 -10t47 -24l38 -19q11 -5 19 -9t15 -4q17 0 17 23v48h93v-77q0 -44 -21 -70t-63 -26q-27 0 -47.5 9.5t-46.5 23.5z" />
    <glyph glyph-name="Wacute" unicode="&#x1e82;" horiz-adv-x="1138" 
d="M571 513l-181 -516h-116l-241 713h146l163 -509l174 512h119l175 -513l163 510h132l-234 -713h-120zM619 929h144l-120 -156h-136z" />
    <glyph glyph-name="Wcircumflex" unicode="&#x174;" horiz-adv-x="1138" 
d="M571 513l-181 -516h-116l-241 713h146l163 -509l174 512h119l175 -513l163 510h132l-234 -713h-120zM573 854l-73 -83h-125l139 161h118l136 -161h-122z" />
    <glyph glyph-name="Wdieresis" unicode="&#x1e84;" horiz-adv-x="1138" 
d="M571 513l-181 -516h-116l-241 713h146l163 -509l174 512h119l175 -513l163 510h132l-234 -713h-120zM399 922h127v-149h-127v149zM620 922h127v-149h-127v149z" />
    <glyph glyph-name="Wgrave" unicode="&#x1e80;" horiz-adv-x="1138" 
d="M571 513l-181 -516h-116l-241 713h146l163 -509l174 512h119l175 -513l163 510h132l-234 -713h-120zM505 773l-120 156h144l112 -156h-136z" />
    <glyph glyph-name="Ycircumflex" unicode="&#x176;" horiz-adv-x="782" 
d="M465 0h-138v299l-319 411h171l221 -289l220 289h154l-309 -410v-300zM400 854l-73 -83h-125l139 161h118l136 -161h-122z" />
    <glyph glyph-name="Ygrave" unicode="&#x1ef2;" horiz-adv-x="782" 
d="M465 0h-138v299l-319 411h171l221 -289l220 289h154l-309 -410v-300zM340 773l-120 156h144l112 -156h-136z" />
    <glyph glyph-name="Zacute" unicode="&#x179;" horiz-adv-x="791" 
d="M751 0h-700v77l442 514h-432v119h643v-77l-446 -513h493v-120zM422 929h144l-120 -156h-136z" />
    <glyph glyph-name="Zdotaccent" unicode="&#x17b;" horiz-adv-x="791" 
d="M751 0h-700v77l442 514h-432v119h643v-77l-446 -513h493v-120zM315 925h132v-152h-132v152z" />
    <glyph glyph-name="abreve" unicode="&#x103;" horiz-adv-x="668" 
d="M459 80q-4 -8 -15.5 -23t-32 -30t-51 -26.5t-72.5 -11.5q-49 0 -92 18t-75.5 52t-51.5 83t-19 111q0 61 19 110t51.5 83.5t76 52.5t92.5 18q40 0 70 -10.5t50.5 -25t32.5 -29t16 -22.5v76h128v-506h-127v80zM460 253q0 32 -10 60t-28 48.5t-43.5 32t-56.5 11.5
q-32 0 -58.5 -11.5t-45 -32t-28.5 -48.5t-10 -60t10 -60t28.5 -48.5t45 -32t58.5 -11.5q31 0 56.5 11.5t43.5 32t28 48.5t10 60zM322 668q29 0 42 19t13 42v17h101v-19q0 -32 -9.5 -60t-28.5 -48.5t-48.5 -32.5t-69.5 -12t-69.5 12t-48.5 32.5t-28.5 48.5t-9.5 60v19h101
v-17q0 -23 13 -42t42 -19z" />
    <glyph glyph-name="amacron" unicode="&#x101;" horiz-adv-x="668" 
d="M459 80q-4 -8 -15.5 -23t-32 -30t-51 -26.5t-72.5 -11.5q-49 0 -92 18t-75.5 52t-51.5 83t-19 111q0 61 19 110t51.5 83.5t76 52.5t92.5 18q40 0 70 -10.5t50.5 -25t32.5 -29t16 -22.5v76h128v-506h-127v80zM460 253q0 32 -10 60t-28 48.5t-43.5 32t-56.5 11.5
q-32 0 -58.5 -11.5t-45 -32t-28.5 -48.5t-10 -60t10 -60t28.5 -48.5t45 -32t58.5 -11.5q31 0 56.5 11.5t43.5 32t28 48.5t10 60zM160 613v101h324v-101h-324z" />
    <glyph glyph-name="aogonek" unicode="&#x105;" horiz-adv-x="668" 
d="M459 80q-4 -8 -15.5 -23t-32 -30t-51 -26.5t-72.5 -11.5q-49 0 -92 18t-75.5 52t-51.5 83t-19 111q0 61 19 110t51.5 83.5t76 52.5t92.5 18q40 0 70 -10.5t50.5 -25t32.5 -29t16 -22.5v76h128v-506q-42 -32 -65.5 -52t-23.5 -40q0 -25 32 -25h82v-96h-126q-58 0 -92 22.5
t-34 67.5q0 20 8 36.5t22 31t32 28t38 27.5v80zM460 253q0 32 -10 60t-28 48.5t-43.5 32t-56.5 11.5q-32 0 -58.5 -11.5t-45 -32t-28.5 -48.5t-10 -60t10 -60t28.5 -48.5t45 -32t58.5 -11.5q31 0 56.5 11.5t43.5 32t28 48.5t10 60z" />
    <glyph glyph-name="aringacute" unicode="&#x1fb;" horiz-adv-x="668" 
d="M459 80q-4 -8 -15.5 -23t-32 -30t-51 -26.5t-72.5 -11.5q-49 0 -92 18t-75.5 52t-51.5 83t-19 111q0 61 19 110t51.5 83.5t76 52.5t92.5 18q40 0 70 -10.5t50.5 -25t32.5 -29t16 -22.5v76h128v-506h-127v80zM460 253q0 32 -10 60t-28 48.5t-43.5 32t-56.5 11.5
q-32 0 -58.5 -11.5t-45 -32t-28.5 -48.5t-10 -60t10 -60t28.5 -48.5t45 -32t58.5 -11.5q31 0 56.5 11.5t43.5 32t28 48.5t10 60zM352 1025h131l-102 -154h-124zM316 569q-30 0 -55 10.5t-43 28.5t-28 42t-10 52t10.5 52t28.5 42t43 28t54 10t54 -10t43.5 -28t29 -42
t10.5 -52t-10.5 -52t-28.5 -42t-43 -28.5t-55 -10.5zM316 641q26 0 43 17.5t17 43.5t-16.5 43t-43.5 17t-43.5 -17t-16.5 -43t17 -43.5t43 -17.5z" />
    <glyph glyph-name="aeacute" unicode="&#x1fd;" horiz-adv-x="973" 
d="M48 160q0 77 54 117.5t148 40.5h159q0 46 -31.5 72.5t-85.5 26.5q-25 0 -43 -6t-30 -14.5t-19 -17t-9 -13.5h-130q4 20 18.5 46.5t42 50t69.5 40t100 16.5q70 0 118 -23t71 -59q26 35 75 58.5t113 23.5q58 0 106 -19t82.5 -54.5t53.5 -86t19 -113.5v-15l-16 1h-381
q2 -30 13 -55t30 -44t44.5 -29.5t56.5 -10.5q30 0 51 6.5t35.5 15.5t23 18.5t11.5 14.5h126q-3 -20 -18 -47.5t-44.5 -52.5t-75 -43t-109.5 -18q-80 0 -136 31.5t-87 75.5q-10 -17 -25 -35.5t-37.5 -34t-53 -25.5t-70.5 -10q-48 0 -88 12t-69.5 34t-45.5 54t-16 71zM666 420
q-51 0 -85.5 -27t-45.5 -75h261q-13 49 -47 75.5t-83 26.5zM175 162q0 -37 29.5 -57.5t76.5 -20.5q56 0 92 28.5t36 74.5v43h-138q-44 0 -70 -16.5t-26 -51.5zM520 767h133l-116 -187h-126z" />
    <glyph glyph-name="cacute" unicode="&#x107;" horiz-adv-x="601" 
d="M431 339q-3 5 -10.5 16t-22 22.5t-36 20t-51.5 8.5q-29 0 -53.5 -12t-42 -32.5t-27 -48.5t-9.5 -60t9.5 -60t27 -48.5t42 -32.5t54.5 -12q31 0 53 8.5t36 19.5t21.5 22.5t10.5 16.5h125q-2 -20 -15.5 -50.5t-42.5 -59.5t-75.5 -49.5t-114.5 -20.5q-55 0 -102.5 19.5
t-83 55t-55.5 84t-20 107.5q0 58 20 107t55 84.5t82.5 55t102.5 19.5q67 0 113.5 -20.5t75.5 -49t43 -59t17 -51.5h-127v0zM348 767h133l-116 -187h-126z" />
    <glyph glyph-name="ccaron" unicode="&#x10d;" horiz-adv-x="601" 
d="M431 339q-3 5 -10.5 16t-22 22.5t-36 20t-51.5 8.5q-29 0 -53.5 -12t-42 -32.5t-27 -48.5t-9.5 -60t9.5 -60t27 -48.5t42 -32.5t54.5 -12q31 0 53 8.5t36 19.5t21.5 22.5t10.5 16.5h125q-2 -20 -15.5 -50.5t-42.5 -59.5t-75.5 -49.5t-114.5 -20.5q-55 0 -102.5 19.5
t-83 55t-55.5 84t-20 107.5q0 58 20 107t55 84.5t82.5 55t102.5 19.5q67 0 113.5 -20.5t75.5 -49t43 -59t17 -51.5h-127v0zM363 580h-112l-126 196h116l67 -105l67 105h117z" />
    <glyph glyph-name="ccircumflex" unicode="&#x109;" horiz-adv-x="601" 
d="M431 339q-3 5 -10.5 16t-22 22.5t-36 20t-51.5 8.5q-29 0 -53.5 -12t-42 -32.5t-27 -48.5t-9.5 -60t9.5 -60t27 -48.5t42 -32.5t54.5 -12q31 0 53 8.5t36 19.5t21.5 22.5t10.5 16.5h125q-2 -20 -15.5 -50.5t-42.5 -59.5t-75.5 -49.5t-114.5 -20.5q-55 0 -102.5 19.5
t-83 55t-55.5 84t-20 107.5q0 58 20 107t55 84.5t82.5 55t102.5 19.5q67 0 113.5 -20.5t75.5 -49t43 -59t17 -51.5h-127v0zM309 682l-67 -104h-118l129 196h112l126 -196h-115z" />
    <glyph glyph-name="cdotaccent" unicode="&#x10b;" horiz-adv-x="601" 
d="M431 339q-3 5 -10.5 16t-22 22.5t-36 20t-51.5 8.5q-29 0 -53.5 -12t-42 -32.5t-27 -48.5t-9.5 -60t9.5 -60t27 -48.5t42 -32.5t54.5 -12q31 0 53 8.5t36 19.5t21.5 22.5t10.5 16.5h125q-2 -20 -15.5 -50.5t-42.5 -59.5t-75.5 -49.5t-114.5 -20.5q-55 0 -102.5 19.5
t-83 55t-55.5 84t-20 107.5q0 58 20 107t55 84.5t82.5 55t102.5 19.5q67 0 113.5 -20.5t75.5 -49t43 -59t17 -51.5h-127v0zM243 739h132v-152h-132v152z" />
    <glyph glyph-name="dcaron" unicode="&#x10f;" horiz-adv-x="676" 
d="M466 80q-4 -8 -16 -23t-33.5 -30t-52.5 -26.5t-73 -11.5q-50 0 -93.5 18t-76.5 52t-52 83t-19 111t19 111t52 83t77 52t93 18q41 0 72 -11t52.5 -25t33.5 -29t16 -22v306h128v-736h-127v80zM467 253q0 33 -10 60.5t-28.5 48t-45 32t-58.5 11.5q-33 0 -60 -11.5t-45.5 -32
t-29 -48t-10.5 -60.5t10.5 -60.5t29 -48t45.5 -32t60 -11.5q32 0 58.5 11.5t45 32t28.5 48t10 60.5zM695 774h115l-61 -194h-107z" />
    <glyph glyph-name="ebreve" unicode="&#x115;" horiz-adv-x="624" 
d="M314 519q58 0 107 -19.5t84 -55t54.5 -86t19.5 -112.5v-14h-402q2 -30 13.5 -55t30.5 -44t45 -29.5t58 -10.5q30 0 52 6.5t36.5 15.5t23 18.5t11.5 14.5h126q-3 -20 -18 -47.5t-45 -52.5t-76 -43t-110 -18q-62 0 -112.5 20t-86.5 56t-56 84.5t-20 105.5q0 59 19.5 108
t55 84t84 54.5t106.5 19.5zM314 420q-52 0 -86.5 -26.5t-46.5 -73.5h264q-14 48 -48 74t-83 26zM314 668q29 0 42 19t13 42v17h101v-19q0 -32 -9.5 -60t-28.5 -48.5t-48.5 -32.5t-69.5 -12t-69.5 12t-48.5 32.5t-28.5 48.5t-9.5 60v19h101v-17q0 -23 13 -42t42 -19z" />
    <glyph glyph-name="ecaron" unicode="&#x11b;" horiz-adv-x="624" 
d="M314 519q58 0 107 -19.5t84 -55t54.5 -86t19.5 -112.5v-14h-402q2 -30 13.5 -55t30.5 -44t45 -29.5t58 -10.5q30 0 52 6.5t36.5 15.5t23 18.5t11.5 14.5h126q-3 -20 -18 -47.5t-45 -52.5t-76 -43t-110 -18q-62 0 -112.5 20t-86.5 56t-56 84.5t-20 105.5q0 59 19.5 108
t55 84t84 54.5t106.5 19.5zM314 420q-52 0 -86.5 -26.5t-46.5 -73.5h264q-14 48 -48 74t-83 26zM368 580h-112l-126 196h116l67 -105l67 105h117z" />
    <glyph glyph-name="edotaccent" unicode="&#x117;" horiz-adv-x="624" 
d="M314 519q58 0 107 -19.5t84 -55t54.5 -86t19.5 -112.5v-14h-402q2 -30 13.5 -55t30.5 -44t45 -29.5t58 -10.5q30 0 52 6.5t36.5 15.5t23 18.5t11.5 14.5h126q-3 -20 -18 -47.5t-45 -52.5t-76 -43t-110 -18q-62 0 -112.5 20t-86.5 56t-56 84.5t-20 105.5q0 59 19.5 108
t55 84t84 54.5t106.5 19.5zM314 420q-52 0 -86.5 -26.5t-46.5 -73.5h264q-14 48 -48 74t-83 26zM248 739h132v-152h-132v152z" />
    <glyph glyph-name="emacron" unicode="&#x113;" horiz-adv-x="624" 
d="M314 519q58 0 107 -19.5t84 -55t54.5 -86t19.5 -112.5v-14h-402q2 -30 13.5 -55t30.5 -44t45 -29.5t58 -10.5q30 0 52 6.5t36.5 15.5t23 18.5t11.5 14.5h126q-3 -20 -18 -47.5t-45 -52.5t-76 -43t-110 -18q-62 0 -112.5 20t-86.5 56t-56 84.5t-20 105.5q0 59 19.5 108
t55 84t84 54.5t106.5 19.5zM314 420q-52 0 -86.5 -26.5t-46.5 -73.5h264q-14 48 -48 74t-83 26zM152 613v101h324v-101h-324z" />
    <glyph glyph-name="eogonek" unicode="&#x119;" horiz-adv-x="624" 
d="M314 519q58 0 107 -19.5t84 -55t54.5 -86t19.5 -112.5v-14h-402q2 -30 13.5 -55t30.5 -44t45 -29.5t58 -10.5q30 0 52 6.5t36.5 15.5t23 18.5t11.5 14.5h126q-5 -26 -27.5 -59.5t-64.5 -71.5q-46 -41 -68.5 -64t-22.5 -43q0 -27 37 -27h80v-96h-127q-58 0 -92 22t-34 67
q0 35 27 62.5t66 49.5q-6 -1 -11.5 -1h-11.5q-62 0 -112.5 20t-86.5 56t-56 84.5t-20 105.5q0 59 19.5 108t55 84t84 54.5t106.5 19.5zM314 420q-52 0 -86.5 -26.5t-46.5 -73.5h264q-14 48 -48 74t-83 26z" />
    <glyph glyph-name="gbreve" unicode="&#x11f;" horiz-adv-x="674" 
d="M465 83q-4 -8 -16.5 -23.5t-33.5 -30.5t-52 -26.5t-72 -11.5q-50 0 -93.5 18t-76.5 52t-52 82.5t-19 110.5t19 111t52 82.5t76.5 51.5t93.5 18q41 0 71.5 -11t52 -25.5t33.5 -29.5t16 -22v77h128v-495q0 -52 -17 -95.5t-50.5 -74.5t-84.5 -48.5t-120 -17.5
q-73 0 -122.5 19.5t-80.5 45.5t-45.5 52.5t-17.5 40.5h147q3 -4 10 -12.5t21 -17.5t35.5 -15.5t52.5 -6.5q69 0 107 34.5t38 97.5v70zM466 254q0 32 -10 59.5t-28.5 48t-45 32t-58.5 11.5q-33 0 -59.5 -11.5t-45.5 -32t-29 -48t-10 -59.5t10 -59.5t29 -47.5t45.5 -32
t59.5 -12q32 0 58.5 12t45 32t28.5 47.5t10 59.5zM321 668q29 0 42 19t13 42v17h101v-19q0 -32 -9.5 -60t-28.5 -48.5t-48.5 -32.5t-69.5 -12t-69.5 12t-48.5 32.5t-28.5 48.5t-9.5 60v19h101v-17q0 -23 13 -42t42 -19z" />
    <glyph glyph-name="gcircumflex" unicode="&#x11d;" horiz-adv-x="674" 
d="M465 83q-4 -8 -16.5 -23.5t-33.5 -30.5t-52 -26.5t-72 -11.5q-50 0 -93.5 18t-76.5 52t-52 82.5t-19 110.5t19 111t52 82.5t76.5 51.5t93.5 18q41 0 71.5 -11t52 -25.5t33.5 -29.5t16 -22v77h128v-495q0 -52 -17 -95.5t-50.5 -74.5t-84.5 -48.5t-120 -17.5
q-73 0 -122.5 19.5t-80.5 45.5t-45.5 52.5t-17.5 40.5h147q3 -4 10 -12.5t21 -17.5t35.5 -15.5t52.5 -6.5q69 0 107 34.5t38 97.5v70zM466 254q0 32 -10 59.5t-28.5 48t-45 32t-58.5 11.5q-33 0 -59.5 -11.5t-45.5 -32t-29 -48t-10 -59.5t10 -59.5t29 -47.5t45.5 -32
t59.5 -12q32 0 58.5 12t45 32t28.5 47.5t10 59.5zM321 682l-67 -104h-118l129 196h112l126 -196h-115z" />
    <glyph glyph-name="uni0123" unicode="&#x123;" horiz-adv-x="674" 
d="M465 83q-4 -8 -16.5 -23.5t-33.5 -30.5t-52 -26.5t-72 -11.5q-50 0 -93.5 18t-76.5 52t-52 82.5t-19 110.5t19 111t52 82.5t76.5 51.5t93.5 18q41 0 71.5 -11t52 -25.5t33.5 -29.5t16 -22v77h128v-495q0 -52 -17 -95.5t-50.5 -74.5t-84.5 -48.5t-120 -17.5
q-73 0 -122.5 19.5t-80.5 45.5t-45.5 52.5t-17.5 40.5h147q3 -4 10 -12.5t21 -17.5t35.5 -15.5t52.5 -6.5q69 0 107 34.5t38 97.5v70zM466 254q0 32 -10 59.5t-28.5 48t-45 32t-58.5 11.5q-33 0 -59.5 -11.5t-45.5 -32t-29 -48t-10 -59.5t10 -59.5t29 -47.5t45.5 -32
t59.5 -12q32 0 58.5 12t45 32t28.5 47.5t10 59.5zM360 828q-16 -29 -27 -61t-13 -53h66v-127h-145v101q0 46 10 79.5t22 60.5h87z" />
    <glyph glyph-name="gdotaccent" unicode="&#x121;" horiz-adv-x="674" 
d="M465 83q-4 -8 -16.5 -23.5t-33.5 -30.5t-52 -26.5t-72 -11.5q-50 0 -93.5 18t-76.5 52t-52 82.5t-19 110.5t19 111t52 82.5t76.5 51.5t93.5 18q41 0 71.5 -11t52 -25.5t33.5 -29.5t16 -22v77h128v-495q0 -52 -17 -95.5t-50.5 -74.5t-84.5 -48.5t-120 -17.5
q-73 0 -122.5 19.5t-80.5 45.5t-45.5 52.5t-17.5 40.5h147q3 -4 10 -12.5t21 -17.5t35.5 -15.5t52.5 -6.5q69 0 107 34.5t38 97.5v70zM466 254q0 32 -10 59.5t-28.5 48t-45 32t-58.5 11.5q-33 0 -59.5 -11.5t-45.5 -32t-29 -48t-10 -59.5t10 -59.5t29 -47.5t45.5 -32
t59.5 -12q32 0 58.5 12t45 32t28.5 47.5t10 59.5zM255 739h132v-152h-132v152z" />
    <glyph glyph-name="hbar" unicode="&#x127;" horiz-adv-x="665" 
d="M210 0h-127v572h-90v91h90v73h127v-73h193v-91h-193v-151q7 13 21.5 30t35.5 31.5t48.5 24.5t62.5 10q48 0 86.5 -16.5t66.5 -46t43 -70.5t15 -89v-295h-129v270q0 60 -33 96.5t-90 36.5q-58 0 -92.5 -37t-34.5 -96v-270z" />
    <glyph glyph-name="hcircumflex" unicode="&#x125;" horiz-adv-x="665" 
d="M210 0h-127v736h127v-315q7 13 21.5 30t35.5 31.5t48.5 24.5t62.5 10q48 0 86.5 -16.5t66.5 -46t43 -70.5t15 -89v-295h-129v270q0 60 -33 96.5t-90 36.5q-58 0 -92.5 -37t-34.5 -96v-270zM336 880l-73 -83h-125l139 161h118l136 -161h-122z" />
    <glyph glyph-name="ibreve" unicode="&#x12d;" horiz-adv-x="295" 
d="M147 668q28 0 40.5 17.5t12.5 40.5v20h101v-22q0 -31 -9.5 -58.5t-28.5 -47.5t-48 -32t-68 -12t-68 12t-48 32t-28 47.5t-9 58.5v22h101v-20q0 -22 12 -40t40 -18zM84 506h128v-506h-128v506z" />
    <glyph glyph-name="idotaccent" horiz-adv-x="295" 
d="M81 739h133v-152h-133v152zM84 506h128v-506h-128v506z" />
    <glyph glyph-name="imacron" unicode="&#x12b;" horiz-adv-x="295" 
d="M-1 613v101h297v-101h-297zM84 506h128v-506h-128v506z" />
    <glyph glyph-name="iogonek" unicode="&#x12f;" horiz-adv-x="295" 
d="M81 739h133v-152h-133v152zM84 506h128v-506h-128v506zM236 -213h-126q-58 0 -91.5 23t-33.5 69q0 20 8 36t21.5 30.5t31 27.5t37.5 27h128q-42 -32 -65.5 -52t-23.5 -40q0 -25 32 -25h82v-96z" />
    <glyph glyph-name="itilde" unicode="&#x129;" horiz-adv-x="295" 
d="M-16 576v84q0 44 20 69.5t62 25.5q27 0 45 -10.5t41 -27.5l22 -17q10 -8 16.5 -12t13.5 -4q9 0 12.5 6t3.5 15v55h91v-83q0 -44 -20.5 -70t-62.5 -26q-26 0 -44 10.5t-41 27.5l-23 17q-11 8 -16.5 12.5t-13.5 4.5q-16 0 -16 -22v-55h-90zM84 506h128v-506h-128v506z" />
    <glyph glyph-name="jcircumflex" unicode="&#x135;" horiz-adv-x="295" 
d="M147 684l-63 -106h-116l123 196h113l120 -196h-113zM212 -42q0 -88 -41 -129.5t-125 -41.5h-157v105h114q43 0 62 20t19 62v532h128v-548v0z" />
    <glyph glyph-name="uni0137" unicode="&#x137;" horiz-adv-x="622" 
d="M209 230v-230h-126v736h126v-436l232 206h167l-269 -236l283 -270h-171zM278 -322q16 29 27 61t13 53h-66v127h145v-101q0 -46 -10 -79.5t-22 -60.5h-87z" />
    <glyph glyph-name="lacute" unicode="&#x13a;" horiz-adv-x="297" 
d="M85 736h128v-736h-128v736zM193 955h144l-120 -156h-136z" />
    <glyph glyph-name="lcaron" unicode="&#x13e;" horiz-adv-x="297" 
d="M85 736h128v-736h-128v736zM315 774h115l-61 -194h-107z" />
    <glyph glyph-name="uni013C" unicode="&#x13c;" horiz-adv-x="297" 
d="M85 736h128v-736h-128v736zM103 -322q16 29 27 61t13 53h-66v127h145v-101q0 -46 -10 -79.5t-22 -60.5h-87z" />
    <glyph glyph-name="ldot" unicode="&#x140;" horiz-adv-x="500" 
d="M85 736h128v-736h-128v736zM322 455h153v-170h-153v170z" />
    <glyph glyph-name="nacute" unicode="&#x144;" horiz-adv-x="665" 
d="M210 0h-127v506h127v-85q7 13 21.5 30t35.5 31.5t48.5 24.5t62.5 10q48 0 86.5 -16.5t66.5 -46t43 -70.5t15 -89v-295h-129v270q0 60 -33 96.5t-90 36.5q-58 0 -92.5 -37t-34.5 -96v-270zM374 767h133l-116 -187h-126z" />
    <glyph glyph-name="napostrophe" unicode="&#x149;" horiz-adv-x="912" 
d="M457 0h-127v506h127v-85q7 13 21.5 30t35.5 31.5t48.5 24.5t62.5 10q48 0 86.5 -16.5t66.5 -46t43 -70.5t15 -89v-295h-129v270q0 60 -33 96.5t-90 36.5q-58 0 -92.5 -37t-34.5 -96v-270zM66 386q26 45 44.5 94.5t20.5 100.5h-71v155h151v-138q0 -66 -15.5 -119
t-37.5 -93h-92z" />
    <glyph glyph-name="ncaron" unicode="&#x148;" horiz-adv-x="665" 
d="M210 0h-127v506h127v-85q7 13 21.5 30t35.5 31.5t48.5 24.5t62.5 10q48 0 86.5 -16.5t66.5 -46t43 -70.5t15 -89v-295h-129v270q0 60 -33 96.5t-90 36.5q-58 0 -92.5 -37t-34.5 -96v-270zM390 580h-112l-126 196h116l67 -105l67 105h117z" />
    <glyph glyph-name="uni0146" unicode="&#x146;" horiz-adv-x="665" 
d="M210 0h-127v506h127v-85q7 13 21.5 30t35.5 31.5t48.5 24.5t62.5 10q48 0 86.5 -16.5t66.5 -46t43 -70.5t15 -89v-295h-129v270q0 60 -33 96.5t-90 36.5q-58 0 -92.5 -37t-34.5 -96v-270zM291 -322q16 29 27 61t13 53h-66v127h145v-101q0 -46 -10 -79.5t-22 -60.5h-87z
" />
    <glyph glyph-name="obreve" unicode="&#x14f;" horiz-adv-x="643" 
d="M322 519q58 0 107.5 -20t86 -55.5t57.5 -84t21 -106.5t-21 -106.5t-57.5 -84t-86 -55.5t-107.5 -20q-59 0 -108.5 20t-86.5 55.5t-57.5 84t-20.5 106.5t20.5 106.5t57.5 84t86.5 55.5t108.5 20zM322 101q32 0 58.5 11.5t45 32t29 48.5t10.5 60t-10.5 60t-29 48.5t-45 32
t-58.5 11.5t-58.5 -12t-45.5 -32.5t-29.5 -48t-10.5 -59.5t10.5 -59.5t29.5 -48t45.5 -32.5t58.5 -12zM321 668q29 0 42 19t13 42v17h101v-19q0 -32 -9.5 -60t-28.5 -48.5t-48.5 -32.5t-69.5 -12t-69.5 12t-48.5 32.5t-28.5 48.5t-9.5 60v19h101v-17q0 -23 13 -42t42 -19z
" />
    <glyph glyph-name="ohungarumlaut" unicode="&#x151;" horiz-adv-x="643" 
d="M322 519q58 0 107.5 -20t86 -55.5t57.5 -84t21 -106.5t-21 -106.5t-57.5 -84t-86 -55.5t-107.5 -20q-59 0 -108.5 20t-86.5 55.5t-57.5 84t-20.5 106.5t20.5 106.5t57.5 84t86.5 55.5t108.5 20zM322 101q32 0 58.5 11.5t45 32t29 48.5t10.5 60t-10.5 60t-29 48.5t-45 32
t-58.5 11.5t-58.5 -12t-45.5 -32.5t-29.5 -48t-10.5 -59.5t10.5 -59.5t29.5 -48t45.5 -32.5t58.5 -12zM441 767h113l-87 -187h-107zM254 767h112l-87 -187h-107z" />
    <glyph glyph-name="omacron" unicode="&#x14d;" horiz-adv-x="643" 
d="M322 519q58 0 107.5 -20t86 -55.5t57.5 -84t21 -106.5t-21 -106.5t-57.5 -84t-86 -55.5t-107.5 -20q-59 0 -108.5 20t-86.5 55.5t-57.5 84t-20.5 106.5t20.5 106.5t57.5 84t86.5 55.5t108.5 20zM322 101q32 0 58.5 11.5t45 32t29 48.5t10.5 60t-10.5 60t-29 48.5t-45 32
t-58.5 11.5t-58.5 -12t-45.5 -32.5t-29.5 -48t-10.5 -59.5t10.5 -59.5t29.5 -48t45.5 -32.5t58.5 -12zM159 613v101h324v-101h-324z" />
    <glyph glyph-name="oslashacute" unicode="&#x1ff;" horiz-adv-x="644" 
d="M595 253q0 -58 -21 -106.5t-57.5 -84t-86.5 -55.5t-108 -20q-41 0 -79.5 11.5t-71.5 32.5l-29 -31h-120l84 90q-26 33 -41.5 74t-15.5 89q0 58 20.5 107t57.5 84t86.5 55t108.5 20q41 0 78.5 -11.5t70.5 -31.5l28 30h122l-84 -89q27 -33 42.5 -74.5t15.5 -89.5zM172 253
q0 -46 15 -79l209 221q-32 15 -74 15q-33 0 -61 -12t-47.5 -33.5t-30.5 -50t-11 -61.5zM472 253q0 47 -15 80l-210 -222q31 -15 75 -15q34 0 61.5 12t47 33.5t30.5 50t11 61.5zM360 767h133l-116 -187h-126z" />
    <glyph glyph-name="racute" unicode="&#x155;" horiz-adv-x="520" 
d="M210 0h-127v506h127v-85q5 11 15.5 26t29.5 29t48 23.5t71 9.5h118v-127h-135q-81 0 -114 -28t-33 -88v-266zM341 767h133l-116 -187h-126z" />
    <glyph glyph-name="rcaron" unicode="&#x159;" horiz-adv-x="520" 
d="M210 0h-127v506h127v-85q5 11 15.5 26t29.5 29t48 23.5t71 9.5h118v-127h-135q-81 0 -114 -28t-33 -88v-266zM356 580h-112l-126 196h116l67 -105l67 105h117z" />
    <glyph glyph-name="uni0157" unicode="&#x157;" horiz-adv-x="520" 
d="M210 0h-127v506h127v-85q5 11 15.5 26t29.5 29t48 23.5t71 9.5h118v-127h-135q-81 0 -114 -28t-33 -88v-266zM102 -322q16 29 27 61t13 53h-66v127h145v-101q0 -46 -10 -79.5t-22 -60.5h-87z" />
    <glyph glyph-name="sacute" unicode="&#x15b;" horiz-adv-x="578" 
d="M327 198q-27 2 -45 4t-44 5q-42 3 -76 14.5t-58.5 31t-38 47.5t-13.5 65q0 36 15.5 64.5t45 48.5t70.5 31t92 11q68 0 113.5 -15.5t74 -37.5t42 -47t18.5 -43h-135q-3 4 -10.5 12t-21 15.5t-34 13t-48.5 5.5q-46 0 -69.5 -14t-23.5 -37q0 -21 17 -34.5t55 -18.5l86 -9
q103 -9 148 -49t45 -115q0 -71 -59 -115.5t-175 -44.5q-71 0 -118.5 18t-77.5 42.5t-44.5 51t-18.5 44.5h137q2 -5 9 -14t21.5 -19t37 -17t54.5 -7q53 0 78.5 16t25.5 40q0 23 -16 37.5t-59 19.5zM324 767h133l-116 -187h-126z" />
    <glyph glyph-name="uni015F" unicode="&#x15f;" horiz-adv-x="578" 
d="M327 198q-27 2 -45 4t-44 5q-42 3 -76 14.5t-58.5 31t-38 47.5t-13.5 65q0 36 15.5 64.5t45 48.5t70.5 31t92 11q68 0 113.5 -15.5t74 -37.5t42 -47t18.5 -43h-135q-3 4 -10.5 12t-21 15.5t-34 13t-48.5 5.5q-46 0 -69.5 -14t-23.5 -37q0 -21 17 -34.5t55 -18.5l86 -9
q103 -9 148 -49t45 -115q0 -71 -59 -116q-56 -41 -161 -44v-35h9q64 0 94 -29.5t30 -80.5t-30 -84t-94 -33h-147v88h129q36 0 36 32q0 14 -9 22t-27 8h-91v120q-18 4 -33 10q-47 18 -77 42.5t-44.5 51t-18.5 44.5h137q2 -5 9 -14t21.5 -19t37 -17t54.5 -7q53 0 78.5 16
t25.5 40q0 23 -16 37.5t-59 19.5z" />
    <glyph glyph-name="scircumflex" unicode="&#x15d;" horiz-adv-x="578" 
d="M327 198q-27 2 -45 4t-44 5q-42 3 -76 14.5t-58.5 31t-38 47.5t-13.5 65q0 36 15.5 64.5t45 48.5t70.5 31t92 11q68 0 113.5 -15.5t74 -37.5t42 -47t18.5 -43h-135q-3 4 -10.5 12t-21 15.5t-34 13t-48.5 5.5q-46 0 -69.5 -14t-23.5 -37q0 -21 17 -34.5t55 -18.5l86 -9
q103 -9 148 -49t45 -115q0 -71 -59 -115.5t-175 -44.5q-71 0 -118.5 18t-77.5 42.5t-44.5 51t-18.5 44.5h137q2 -5 9 -14t21.5 -19t37 -17t54.5 -7q53 0 78.5 16t25.5 40q0 23 -16 37.5t-59 19.5zM286 682l-67 -104h-118l129 196h112l126 -196h-115z" />
    <glyph glyph-name="uni0219" unicode="&#x219;" horiz-adv-x="578" 
d="M327 198q-27 2 -45 4t-44 5q-42 3 -76 14.5t-58.5 31t-38 47.5t-13.5 65q0 36 15.5 64.5t45 48.5t70.5 31t92 11q68 0 113.5 -15.5t74 -37.5t42 -47t18.5 -43h-135q-3 4 -10.5 12t-21 15.5t-34 13t-48.5 5.5q-46 0 -69.5 -14t-23.5 -37q0 -21 17 -34.5t55 -18.5l86 -9
q103 -9 148 -49t45 -115q0 -71 -59 -115.5t-175 -44.5q-71 0 -118.5 18t-77.5 42.5t-44.5 51t-18.5 44.5h137q2 -5 9 -14t21.5 -19t37 -17t54.5 -7q53 0 78.5 16t25.5 40q0 23 -16 37.5t-59 19.5zM256 -322q16 29 27 61t13 53h-66v127h145v-101q0 -46 -10 -79.5t-22 -60.5
h-87z" />
    <glyph glyph-name="tbar" unicode="&#x167;" horiz-adv-x="547" 
d="M491 0h-140q-90 0 -132.5 42t-42.5 123v71h-140v86h140v79h-140v105h140v204h128v-204h187v-105h-187v-79h188v-86h-188v-36q0 -45 18 -65.5t68 -20.5h101v-114z" />
    <glyph glyph-name="tcaron" unicode="&#x165;" horiz-adv-x="529" 
d="M482 0h-140q-90 0 -132.5 42t-42.5 123v232h-139v109h139v204h128v-204h187v-109h-187v-193q0 -48 19 -69t71 -21h97v-114zM398 774h115l-61 -194h-107z" />
    <glyph glyph-name="tcommaaccent" unicode="&#x163;" horiz-adv-x="529" 
d="M482 0h-140q-90 0 -132.5 42t-42.5 123v232h-139v109h139v204h128v-204h187v-109h-187v-193q0 -48 19 -69t71 -21h97v-114zM245 -322q16 29 27 61t13 53h-66v127h145v-101q0 -46 -10 -79.5t-22 -60.5h-87z" />
    <glyph glyph-name="uni021B" unicode="&#x21b;" horiz-adv-x="529" 
d="M482 0h-140q-90 0 -132.5 42t-42.5 123v232h-139v109h139v204h128v-204h187v-109h-187v-193q0 -48 19 -69t71 -21h97v-114zM245 -322q16 29 27 61t13 53h-66v127h145v-101q0 -46 -10 -79.5t-22 -60.5h-87z" />
    <glyph glyph-name="ubreve" unicode="&#x16d;" horiz-adv-x="651" 
d="M328 -11q-60 0 -106.5 17.5t-79 48.5t-49 74t-16.5 94v283h128v-269q0 -59 31 -95t90 -36t90 36t31 95v269h129v-283q0 -51 -16.5 -94t-48.5 -74t-78 -48.5t-105 -17.5zM325 668q29 0 42 19t13 42v17h101v-19q0 -32 -9.5 -60t-28.5 -48.5t-48.5 -32.5t-69.5 -12t-69.5 12
t-48.5 32.5t-28.5 48.5t-9.5 60v19h101v-17q0 -23 13 -42t42 -19z" />
    <glyph glyph-name="uhungarumlaut" unicode="&#x171;" horiz-adv-x="651" 
d="M328 -11q-60 0 -106.5 17.5t-79 48.5t-49 74t-16.5 94v283h128v-269q0 -59 31 -95t90 -36t90 36t31 95v269h129v-283q0 -51 -16.5 -94t-48.5 -74t-78 -48.5t-105 -17.5zM445 767h113l-87 -187h-107zM258 767h112l-87 -187h-107z" />
    <glyph glyph-name="umacron" unicode="&#x16b;" horiz-adv-x="651" 
d="M328 -11q-60 0 -106.5 17.5t-79 48.5t-49 74t-16.5 94v283h128v-269q0 -59 31 -95t90 -36t90 36t31 95v269h129v-283q0 -51 -16.5 -94t-48.5 -74t-78 -48.5t-105 -17.5zM163 613v101h324v-101h-324z" />
    <glyph glyph-name="uogonek" unicode="&#x173;" horiz-adv-x="651" 
d="M508 -213h-126q-57 0 -90.5 22t-33.5 67q0 36 26.5 62t65.5 52q-6 -1 -11.5 -1h-10.5q-60 0 -106.5 17.5t-79 48.5t-49 74t-16.5 94v283h128v-269q0 -59 31 -95t90 -36t90 36t31 95v269h129v-283q0 -33 -6.5 -60t-18.5 -51t-29 -46t-39 -43l-40 -40t-28 -29.5t-16 -23
t-5 -21.5q0 -26 34 -26h80v-96z" />
    <glyph glyph-name="uring" unicode="&#x16f;" horiz-adv-x="651" 
d="M328 -11q-60 0 -106.5 17.5t-79 48.5t-49 74t-16.5 94v283h128v-269q0 -59 31 -95t90 -36t90 36t31 95v269h129v-283q0 -51 -16.5 -94t-48.5 -74t-78 -48.5t-105 -17.5zM325 569q-30 0 -55 10.5t-43 28.5t-28 42t-10 52t10.5 52t28.5 42t43 28t54 10t54 -10t43.5 -28
t29 -42t10.5 -52t-10.5 -52t-28.5 -42t-43 -28.5t-55 -10.5zM325 641q26 0 43 17.5t17 43.5t-16.5 43t-43.5 17t-43.5 -17t-16.5 -43t17 -43.5t43 -17.5z" />
    <glyph glyph-name="utilde" unicode="&#x169;" horiz-adv-x="651" 
d="M328 -11q-60 0 -106.5 17.5t-79 48.5t-49 74t-16.5 94v283h128v-269q0 -59 31 -95t90 -36t90 36t31 95v269h129v-283q0 -51 -16.5 -94t-48.5 -74t-78 -48.5t-105 -17.5zM155 576v84q0 44 20.5 69.5t63.5 25.5q26 0 45.5 -9.5t42.5 -26.5l29 -21q9 -6 16 -10t15 -4
q9 0 13 6t4 15v55h91v-83q0 -44 -20.5 -70t-63.5 -26q-27 0 -46 9.5t-42 26.5l-29 21q-10 7 -16.5 11t-14.5 4q-17 0 -17 -22v-55h-91z" />
    <glyph glyph-name="wacute" unicode="&#x1e83;" horiz-adv-x="894" 
d="M447 348l-128 -352h-112l-189 510h139l117 -340l125 344h113l124 -341l116 337h124l-185 -510h-115zM497 767h133l-116 -187h-126z" />
    <glyph glyph-name="wcircumflex" unicode="&#x175;" horiz-adv-x="894" 
d="M447 348l-128 -352h-112l-189 510h139l117 -340l125 344h113l124 -341l116 337h124l-185 -510h-115zM453 682l-67 -104h-118l129 196h112l126 -196h-115z" />
    <glyph glyph-name="wdieresis" unicode="&#x1e85;" horiz-adv-x="894" 
d="M447 348l-128 -352h-112l-189 510h139l117 -340l125 344h113l124 -341l116 337h124l-185 -510h-115zM285 736h127v-149h-127v149zM494 736h127v-149h-127v149z" />
    <glyph glyph-name="wgrave" unicode="&#x1e81;" horiz-adv-x="894" 
d="M447 348l-128 -352h-112l-189 510h139l117 -340l125 344h113l124 -341l116 337h124l-185 -510h-115zM389 580l-116 187h133l109 -187h-126z" />
    <glyph glyph-name="ycircumflex" unicode="&#x177;" horiz-adv-x="599" 
d="M273 -213h-128l96 222l-228 497h144l149 -344l149 344h130zM306 682l-67 -104h-118l129 196h112l126 -196h-115z" />
    <glyph glyph-name="ygrave" unicode="&#x1ef3;" horiz-adv-x="599" 
d="M273 -213h-128l96 222l-228 497h144l149 -344l149 344h130zM244 580l-116 187h133l109 -187h-126z" />
    <glyph glyph-name="zacute" unicode="&#x17a;" horiz-adv-x="621" 
d="M585 0h-536v71l305 329h-297v106h491v-69l-309 -330h346v-107zM341 767h133l-116 -187h-126z" />
    <glyph glyph-name="zdotaccent" unicode="&#x17c;" horiz-adv-x="621" 
d="M585 0h-536v71l305 329h-297v106h491v-69l-309 -330h346v-107zM237 739h132v-152h-132v152z" />
    <glyph glyph-name="f_b" horiz-adv-x="1178" 
d="M295 398v-398h-128v398h-139v108h139v74q0 74 41 115t128 41h171v-102h-132q-42 0 -61 -20.5t-19 -58.5v-49h181v-108h-181zM712 0h-125v736h126v-310q4 7 16 22.5t33.5 30.5t52.5 26.5t72 11.5q50 0 94 -18t76.5 -52t51.5 -83t19 -111t-19 -111t-51.5 -83t-76.5 -52
t-94 -18q-41 0 -72 11t-52.5 25.5t-34 29t-16.5 22.5v-77zM711 253q0 -32 10.5 -60t29 -48.5t45 -32t59.5 -11.5t59 11.5t45 32t29 48.5t10 60q0 33 -10 60.5t-29 48t-45 32t-59 11.5t-59.5 -11.5t-45 -32t-29 -48t-10.5 -60.5z" />
    <glyph glyph-name="f_h" horiz-adv-x="1169" 
d="M295 398v-398h-128v398h-139v108h139v74q0 74 41 115t128 41h171v-102h-132q-42 0 -61 -20.5t-19 -58.5v-49h181v-108h-181zM714 0h-127v736h127v-315q7 13 21.5 30t35.5 31.5t48.5 24.5t62.5 10q48 0 86.5 -16.5t66.5 -46t43 -70.5t15 -89v-295h-129v270q0 60 -33 96.5
t-90 36.5q-58 0 -92.5 -37t-34.5 -96v-270z" />
    <glyph glyph-name="f_j" horiz-adv-x="799" 
d="M295 398v-398h-128v398h-139v108h139v74q0 74 41 115t128 41h171v-102h-132q-42 0 -61 -20.5t-19 -58.5v-49h181v-108h-181zM585 739h134v-152h-134v152zM716 -42q0 -88 -41 -129.5t-125 -41.5h-157v105h114q43 0 62 20t19 62v532h128v-548z" />
    <glyph glyph-name="f_k" horiz-adv-x="1126" 
d="M295 398v-398h-128v398h-139v108h139v74q0 74 41 115t128 41h171v-102h-132q-42 0 -61 -20.5t-19 -58.5v-49h181v-108h-181zM713 230v-230h-126v736h126v-436l232 206h167l-269 -236l283 -270h-171z" />
    <glyph glyph-name="space_uni0326" horiz-adv-x="500" 
d="M204 -322q16 29 27 61t13 53h-66v127h145v-101q0 -46 -10 -79.5t-22 -60.5h-87z" />
    <glyph glyph-name="oneeighth" unicode="&#x215b;" horiz-adv-x="1002" 
d="M951 118q0 -57 -44.5 -91t-125.5 -34h-19q-80 0 -124.5 34t-44.5 91q0 24 7 42t18 30.5t24 20.5t25 12q-11 4 -22.5 11.5t-21.5 19.5t-16.5 28.5t-6.5 38.5q0 54 42 87.5t121 33.5h18q79 0 121 -33.5t42 -87.5q0 -22 -6.5 -38.5t-16.5 -28.5t-22 -19.5t-22 -11.5
q12 -4 25 -12t24 -20.5t18 -30.5t7 -42zM768 361q-26 0 -42 -13t-16 -37q0 -23 16 -36.5t42 -13.5h8q26 0 42 13.5t16 36.5q0 24 -16 37t-42 13h-8zM766 182q-26 0 -43.5 -14t-17.5 -40t17.5 -40t43.5 -14h12q26 0 43.5 14t17.5 40t-17.5 40t-43.5 14h-12zM259 275h-111v319
l-109 -59v98l137 79h83v-437zM166 0l448 710h114l-449 -710h-113z" />
    <glyph glyph-name="onethird" unicode="&#x2153;" horiz-adv-x="985" 
d="M936 126q0 -60 -47 -96.5t-132 -36.5q-47 0 -80 13t-54.5 33t-32.5 44t-12 46h111q1 -7 5.5 -15t12.5 -14.5t20.5 -11t29.5 -4.5q32 0 49.5 13t17.5 36q0 45 -54 45h-86v90h80q47 0 47 40q0 22 -15.5 34t-42.5 12q-31 0 -44 -14.5t-15 -28.5h-109q1 24 11.5 47t31 42
t52 30.5t73.5 11.5q81 0 124.5 -32.5t43.5 -92.5q0 -36 -18.5 -56.5t-38.5 -28.5q12 -4 25 -12t23.5 -21t17 -31t6.5 -42zM259 275h-111v319l-109 -59v98l137 79h83v-437zM166 0l448 710h114l-449 -710h-113z" />
    <glyph glyph-name="threeeighths" unicode="&#x215c;" horiz-adv-x="1100" 
d="M399 401q0 -60 -47 -96.5t-132 -36.5q-47 0 -80 13t-54.5 33t-32.5 44t-12 46h111q1 -7 5.5 -15t12.5 -14.5t20.5 -11t29.5 -4.5q32 0 49.5 13t17.5 36q0 45 -54 45h-86v90h80q47 0 47 40q0 22 -15.5 34t-42.5 12q-31 0 -44 -14.5t-15 -28.5h-109q1 24 11.5 47t31 42
t52 30.5t73.5 11.5q81 0 124.5 -32.5t43.5 -92.5q0 -36 -18.5 -56.5t-38.5 -28.5q12 -4 25 -12t23.5 -21t17 -31t6.5 -42zM1049 118q0 -57 -44.5 -91t-125.5 -34h-19q-80 0 -124.5 34t-44.5 91q0 24 7 42t18 30.5t24 20.5t25 12q-11 4 -22.5 11.5t-21.5 19.5t-16.5 28.5
t-6.5 38.5q0 54 42 87.5t121 33.5h18q79 0 121 -33.5t42 -87.5q0 -22 -6.5 -38.5t-16.5 -28.5t-22 -19.5t-22 -11.5q12 -4 25 -12t24 -20.5t18 -30.5t7 -42zM866 361q-26 0 -42 -13t-16 -37q0 -23 16 -36.5t42 -13.5h8q26 0 42 13.5t16 36.5q0 24 -16 37t-42 13h-8zM864 182
q-26 0 -43.5 -14t-17.5 -40t17.5 -40t43.5 -14h12q26 0 43.5 14t17.5 40t-17.5 40t-43.5 14h-12zM264 0l448 710h114l-449 -710h-113z" />
    <glyph glyph-name="fiveeighths" unicode="&#x215d;" horiz-adv-x="1096" 
d="M69 710h316v-86h-213v-84q11 12 32 22t53 10q31 0 57.5 -10t46 -28.5t30.5 -46t11 -61.5v-2q0 -34 -12 -62.5t-34.5 -49.5t-55.5 -32.5t-75 -11.5q-47 0 -80.5 12.5t-54.5 32.5t-31.5 45t-10.5 50h110q1 -7 5.5 -15.5t12.5 -16t20 -12.5t29 -5q29 0 47.5 18t18.5 46v2
q0 29 -18 46.5t-48 17.5q-29 0 -41.5 -12.5t-16.5 -19.5h-98v253zM1045 118q0 -57 -44.5 -91t-125.5 -34h-19q-80 0 -124.5 34t-44.5 91q0 24 7 42t18 30.5t24 20.5t25 12q-11 4 -22.5 11.5t-21.5 19.5t-16.5 28.5t-6.5 38.5q0 54 42 87.5t121 33.5h18q79 0 121 -33.5
t42 -87.5q0 -22 -6.5 -38.5t-16.5 -28.5t-22 -19.5t-22 -11.5q12 -4 25 -12t24 -20.5t18 -30.5t7 -42zM862 361q-26 0 -42 -13t-16 -37q0 -23 16 -36.5t42 -13.5h8q26 0 42 13.5t16 36.5q0 24 -16 37t-42 13h-8zM860 182q-26 0 -43.5 -14t-17.5 -40t17.5 -40t43.5 -14h12
q26 0 43.5 14t17.5 40t-17.5 40t-43.5 14h-12zM260 0l448 710h114l-449 -710h-113z" />
    <glyph glyph-name="twothirds" unicode="&#x2154;" horiz-adv-x="1106" 
d="M403 275h-349v70l163 146q25 23 37.5 40.5t12.5 39.5q0 23 -14.5 37.5t-40.5 14.5q-28 0 -43 -16.5t-15 -43.5v-20h-104v21q0 66 42 109.5t120 43.5q79 0 122.5 -39t43.5 -102q0 -50 -26.5 -84.5t-69.5 -70.5l-62 -54h183v-92zM1056 126q0 -60 -47 -96.5t-132 -36.5
q-47 0 -80 13t-54.5 33t-32.5 44t-12 46h111q1 -7 5.5 -15t12.5 -14.5t20.5 -11t29.5 -4.5q32 0 49.5 13t17.5 36q0 45 -54 45h-86v90h80q47 0 47 40q0 22 -15.5 34t-42.5 12q-31 0 -44 -14.5t-15 -28.5h-109q1 24 11.5 47t31 42t52 30.5t73.5 11.5q81 0 124.5 -32.5
t43.5 -92.5q0 -36 -18.5 -56.5t-38.5 -28.5q12 -4 25 -12t23.5 -21t17 -31t6.5 -42zM287 0l448 710h114l-449 -710h-113z" />
    <glyph glyph-name="seveneighths" unicode="&#x215e;" horiz-adv-x="1011" 
d="M190 275h-123l187 342h-212v93h344v-67zM960 118q0 -57 -44.5 -91t-125.5 -34h-19q-80 0 -124.5 34t-44.5 91q0 24 7 42t18 30.5t24 20.5t25 12q-11 4 -22.5 11.5t-21.5 19.5t-16.5 28.5t-6.5 38.5q0 54 42 87.5t121 33.5h18q79 0 121 -33.5t42 -87.5q0 -22 -6.5 -38.5
t-16.5 -28.5t-22 -19.5t-22 -11.5q12 -4 25 -12t24 -20.5t18 -30.5t7 -42zM777 361q-26 0 -42 -13t-16 -37q0 -23 16 -36.5t42 -13.5h8q26 0 42 13.5t16 36.5q0 24 -16 37t-42 13h-8zM775 182q-26 0 -43.5 -14t-17.5 -40t17.5 -40t43.5 -14h12q26 0 43.5 14t17.5 40
t-17.5 40t-43.5 14h-12zM176 0l448 710h114l-449 -710h-113z" />
    <glyph glyph-name="uni2032" unicode="&#x2032;" horiz-adv-x="301" 
d="M43 403l97 307h117l-97 -307h-117z" />
    <glyph glyph-name="uni2033" unicode="&#x2033;" horiz-adv-x="505" 
d="M43 403l97 307h114l-97 -307h-114zM249 403l98 307h115l-100 -307h-113z" />
    <glyph glyph-name="uni24C5" unicode="&#x24c5;" horiz-adv-x="867" 
d="M433 -12q-80 0 -147 28t-116.5 77t-77 116.5t-27.5 145.5t28 145t77.5 116.5t116.5 77.5t146 28t146.5 -28t117 -77.5t77.5 -116.5t28 -145t-28 -145t-77.5 -116.5t-117 -77.5t-146.5 -28zM433 68q64 0 115.5 22t88.5 61t57 91.5t20 112.5t-20 112t-57 91t-88.5 61.5
t-115.5 22.5t-116 -22.5t-88.5 -61t-56.5 -91t-20 -112.5q0 -61 20 -113.5t57 -91t89 -60.5t115 -22zM276 545h202q72 0 110 -32.5t38 -94.5q0 -61 -38 -94.5t-110 -33.5h-101v-121h-101v376zM377 458v-80h97q50 0 50 40t-50 40h-97z" />
    <glyph glyph-name="zero.old" horiz-adv-x="725" 
d="M363 586q65 0 121 -22t97 -61.5t64.5 -94.5t23.5 -120t-23.5 -120t-64.5 -95.5t-97 -63t-121 -22.5q-66 0 -122 22.5t-97 63t-64.5 95.5t-23.5 120t23.5 120t64.5 94.5t97 61.5t122 22zM363 104q39 0 71 14.5t55 39t35.5 58t12.5 72.5q0 38 -12.5 71.5t-35.5 58t-55 38.5
t-71 14t-71 -14t-55 -38.5t-36 -58t-13 -71.5t13 -71.5t36 -58.5t55 -39.5t71 -14.5z" />
    <glyph glyph-name="one.old" horiz-adv-x="459" 
d="M351 0h-130v431l-176 -101v123l207 126h99v-579z" />
    <glyph glyph-name="two.old" horiz-adv-x="628" 
d="M577 0h-510v86l222 143q61 39 89 71.5t28 76.5q0 42 -26 68t-76 26q-26 0 -45.5 -9t-33.5 -25t-21 -36.5t-7 -44.5v-6h-128v8q0 47 16 88.5t46 72.5t73.5 49t99.5 18t99.5 -15.5t73.5 -43t45.5 -65t15.5 -81.5q0 -40 -13.5 -73.5t-37.5 -62t-56.5 -52.5t-69.5 -45
l-65 -38h281v-110z" />
    <glyph glyph-name="three.old" horiz-adv-x="636" 
d="M573 64q0 -47 -17.5 -86t-51 -67t-82 -43.5t-109.5 -15.5q-66 0 -114 19.5t-79.5 50t-48 68t-19.5 73.5h134q3 -16 11.5 -33t24 -30.5t38 -22t53.5 -8.5q60 0 93.5 27.5t33.5 75.5q0 49 -30 74.5t-86 25.5h-120v115h119q46 0 72 23t26 67q0 45 -30.5 69.5t-81.5 24.5
q-28 0 -48 -7.5t-33.5 -20t-21 -28.5t-10.5 -32h-131q1 36 16.5 72t45.5 65.5t75 47.5t106 18q118 0 182 -54t64 -145q0 -32 -9.5 -56.5t-23.5 -42.5t-31 -30t-33 -18q20 -6 40.5 -19.5t37.5 -34.5t27.5 -51.5t10.5 -70.5z" />
    <glyph glyph-name="four.old" horiz-adv-x="700" 
d="M524 69v-205h-129v205h-357v82l336 423h150v-392h144v-113h-144zM395 182v262l-205 -262h205z" />
    <glyph glyph-name="five.old" horiz-adv-x="653" 
d="M99 574h461v-112h-336v-176q20 20 54 36t85 16q46 0 87 -16t72 -46.5t48.5 -74.5t17.5 -100v-1q0 -53 -18 -98t-52 -78t-82.5 -51.5t-108.5 -18.5q-67 0 -115.5 19t-80.5 50.5t-48 70.5t-18 80h132q2 -15 10 -33t23 -33.5t39 -26t58 -10.5q28 0 52 9.5t41 26.5t26.5 40.5
t9.5 51.5q0 59 -35.5 93.5t-93.5 34.5q-29 0 -48.5 -7.5t-33 -17.5t-21 -20t-10.5 -15h-115v407z" />
    <glyph glyph-name="six.old" horiz-adv-x="659" 
d="M598 238q0 -53 -18.5 -99t-53 -79.5t-84.5 -52.5t-113 -19t-113 18.5t-84.5 52t-52.5 79.5t-18 100q0 41 8.5 76t24 67t36.5 62.5t47 63.5l157 203h151l-204 -259q17 11 40 17.5t54 6.5q49 0 90.5 -17t70.5 -48t45.5 -74.5t16.5 -97.5zM466 238q0 59 -35.5 97t-101.5 38
q-63 0 -99.5 -38t-36.5 -97q0 -28 9 -52.5t26.5 -42.5t43 -28.5t57.5 -10.5q33 0 58.5 10.5t43 28.5t26.5 42.5t9 52.5z" />
    <glyph glyph-name="seven.old" horiz-adv-x="619" 
d="M240 -136h-147l324 592h-364v118h519v-90z" />
    <glyph glyph-name="eight.old" horiz-adv-x="668" 
d="M600 192q0 -45 -18 -82.5t-51 -64.5t-80 -42t-106 -15h-25q-58 0 -104.5 15t-79.5 42t-50.5 64.5t-17.5 82.5q0 38 11.5 67.5t29.5 51t39.5 35t41.5 19.5q-18 6 -37 18t-35 31.5t-26.5 47t-10.5 63.5q0 43 16 79t47 62t76 41t102 15h24q58 0 103 -15t76 -41t47 -62
t16 -79q0 -36 -10.5 -63.5t-26.5 -47t-35.5 -31.5t-37.5 -18q19 -6 40.5 -19.5t39.5 -34.5t30 -50.5t12 -68.5zM326 613q-50 0 -82 -26.5t-32 -71.5t32 -71.5t82 -26.5h17q49 0 81 26.5t32 71.5t-32 71.5t-81 26.5h-17zM324 310q-52 0 -87 -29t-35 -78t35 -77.5t87 -28.5h21
q52 0 86.5 28.5t34.5 77.5q0 50 -34.5 78.5t-86.5 28.5h-21z" />
    <glyph glyph-name="nine.old" horiz-adv-x="659" 
d="M325 -136h-151l205 260q-17 -11 -40.5 -17.5t-55.5 -6.5q-49 0 -90 17t-70 48t-45.5 74.5t-16.5 96.5t18.5 99t53 79.5t84.5 52.5t113 19t112.5 -18.5t84 -52t53 -79.5t18.5 -100q0 -41 -8.5 -76t-24 -67t-37 -62.5t-46.5 -63.5zM193 336q0 -58 35.5 -96.5t101.5 -38.5
q63 0 99.5 38.5t36.5 96.5q0 28 -9 52.5t-26.5 42.5t-43 28.5t-57.5 10.5q-33 0 -58.5 -10.5t-43 -28.5t-26.5 -42.5t-9 -52.5z" />
    <glyph glyph-name="space.tab" horiz-adv-x="325" 
 />
    <glyph glyph-name="dollar.tab" horiz-adv-x="642" 
d="M557 198q0 -76 -46.5 -129t-134.5 -67v-125h-110v125q-88 14 -136 70.5t-48 139.5v4h126v-2q0 -51 31 -79t80 -28q54 0 81.5 25t27.5 64q0 38 -22.5 60t-63.5 34l-81 23q-84 25 -127 73.5t-43 134.5q0 78 48.5 127.5t126.5 62.5v118h110v-119q81 -14 122.5 -66t42.5 -131
v-2h-124v2q-1 41 -26.5 67t-72.5 26q-45 0 -72 -22t-27 -61q0 -37 22 -58.5t64 -33.5q4 -2 15.5 -5t24 -6.5t24.5 -7t17 -5.5q83 -25 127 -73.5t44 -135.5z" />
    <glyph glyph-name="cent.tab" horiz-adv-x="650" 
d="M568 162q-2 -18 -11 -43.5t-29.5 -50.5t-52.5 -46t-79 -30v-115h-109v115q-42 9 -77 32t-60.5 56.5t-39.5 77.5t-14 95t14 95t39.5 78t60.5 56.5t77 31.5v111h109v-111q45 -9 76.5 -30t51.5 -45.5t30 -49.5t12 -43h-123q-3 6 -10 16.5t-19 20t-30 17t-43 7.5
q-26 0 -47.5 -11.5t-36.5 -32.5t-23 -49t-8 -61t8.5 -61t23.5 -49t36.5 -32.5t47.5 -11.5q27 0 45.5 7.5t30.5 18t18.5 21t9.5 16.5h122v0z" />
    <glyph glyph-name="Euro.tab" horiz-adv-x="659" 
d="M618 222q-1 -56 -19 -99.5t-50 -73t-76.5 -45t-99.5 -15.5q-56 0 -100 16t-75.5 46.5t-48 75t-16.5 100.5h-110v94h110v75h-110v94h110q1 53 18 96t48 73t75 46.5t99 16.5q56 0 100.5 -16t76 -46t49 -72t19.5 -94h-127q-1 22 -8.5 42t-21.5 36t-36 25.5t-52 9.5
q-57 0 -87 -34.5t-30 -82.5h159v-94h-159v-75h159v-94h-159q1 -57 32 -90t87 -33q58 0 86.5 33.5t29.5 84.5h127v0z" />
    <glyph glyph-name="sterling.tab" horiz-adv-x="668" 
d="M646 0h-608v115h112v150h-112v116h112v127q0 101 56.5 157.5t161.5 56.5q108 0 163.5 -56t55.5 -158v-33h-124v30q0 50 -25 76.5t-70 26.5q-44 0 -67.5 -26.5t-23.5 -76.5v-124h202v-116h-202v-150h369v-115z" />
    <glyph glyph-name="yen.tab" horiz-adv-x="653" 
d="M400 136v-136h-137v136h-189v94h189v75h-189v93h182l-240 312h164l154 -208l155 208h147l-230 -312h183v-93h-189v-75h189v-94h-189z" />
    <glyph glyph-name="florin.tab" horiz-adv-x="650" 
d="M342 328l-81 -535h-128l80 535h-138v108h154l17 116q6 39 18.5 69t34 49.5t54 29.5t78.5 10h173v-107h-140q-47 0 -66 -18t-26 -61l-13 -88h164v-108h-181z" />
    <glyph glyph-name="zero.tab" horiz-adv-x="650" 
d="M325 723q59 0 106.5 -17.5t80.5 -51t51 -81.5t18 -108v-220q0 -62 -18 -110t-51.5 -81t-81 -50t-105.5 -17t-105.5 17t-81 50t-51.5 81t-18 110v220q0 60 18 108t51 81.5t80.5 51t106.5 17.5zM325 107q63 0 94 39.5t31 100.5v216q0 61 -31 100.5t-94 39.5t-94 -39.5
t-31 -100.5v-216q0 -61 31 -100.5t94 -39.5z" />
    <glyph glyph-name="one.tab" horiz-adv-x="650" 
d="M469 0h-133v562l-221 -124v124l255 151h99v-713z" />
    <glyph glyph-name="two.tab" horiz-adv-x="650" 
d="M602 0h-525v86l252 238q49 47 75 84.5t26 85.5t-29 78.5t-82 30.5q-52 0 -81.5 -33t-29.5 -85v-42h-129v45q0 49 16 92t47 74.5t75.5 49.5t101.5 18q58 0 103.5 -16.5t77 -46.5t48 -71.5t16.5 -90.5q0 -42 -11.5 -76.5t-32.5 -65t-49 -59.5t-61 -60l-126 -119h318v-117z
" />
    <glyph glyph-name="three.tab" horiz-adv-x="650" 
d="M587 200q0 -48 -18 -87t-52.5 -66.5t-84 -43t-112.5 -15.5q-69 0 -118 19.5t-81.5 49.5t-48.5 67.5t-19 73.5h133q3 -15 12.5 -31.5t25.5 -30t39.5 -22t56.5 -8.5q62 0 97 27t35 75t-29.5 73.5t-84.5 25.5h-134v116h130q46 0 72 23t26 67t-31.5 68.5t-84.5 24.5
q-29 0 -49.5 -7.5t-34.5 -20t-22 -28t-11 -31.5h-131q1 36 16.5 72t46 65.5t76.5 47.5t108 18q120 0 184.5 -54.5t64.5 -145.5q0 -32 -9 -56t-23 -42t-31 -30t-33 -18q20 -6 41 -19t38.5 -34t28.5 -51.5t11 -71.5z" />
    <glyph glyph-name="four.tab" horiz-adv-x="650" 
d="M496 202v-202h-127v202h-327v81l305 427h149v-397h118v-111h-118zM369 313v267l-188 -267h188z" />
    <glyph glyph-name="five.tab" horiz-adv-x="650" 
d="M96 710h466v-113h-341v-170q20 20 54.5 36t85.5 16q47 0 88.5 -16t72.5 -46.5t49 -74.5t18 -100v-8q0 -53 -18.5 -98t-53 -78t-83 -51.5t-109.5 -18.5q-67 0 -116 19t-81 50.5t-48.5 70.5t-18.5 80h133q2 -15 10 -32.5t23.5 -33t39 -26t58.5 -10.5q58 0 94.5 36t36.5 91
v7q0 58 -35.5 92.5t-95.5 34.5q-29 0 -49 -7t-33.5 -17t-21 -19.5t-10.5 -15.5h-115v402z" />
    <glyph glyph-name="six.tab" horiz-adv-x="650" 
d="M593 238q0 -53 -18.5 -99t-53 -79.5t-84 -52.5t-112.5 -19t-113 18.5t-84.5 52t-52.5 79.5t-18 100q0 41 8.5 76t24 67t36.5 62.5t47 63.5l157 203h151l-205 -260q17 11 40 17.5t55 6.5q49 0 90 -17t70 -48t45.5 -74.5t16.5 -96.5zM461 238q0 58 -35.5 96t-101.5 38
q-61 0 -98 -38t-37 -96q0 -27 9.5 -51t26.5 -42t42 -28.5t57 -10.5q33 0 58.5 10.5t43 28.5t26.5 42t9 51z" />
    <glyph glyph-name="seven.tab" horiz-adv-x="650" 
d="M255 0h-146l324 592h-364v118h519v-90z" />
    <glyph glyph-name="eight.tab" horiz-adv-x="650" 
d="M593 192q0 -45 -17.5 -82.5t-50 -64.5t-80 -42t-107.5 -15h-29q-59 0 -105.5 15t-79 42t-50 64.5t-17.5 82.5q0 39 11.5 68.5t29.5 51t39.5 35t41.5 19.5q-18 6 -37 18t-35 31.5t-26.5 46.5t-10.5 63q0 43 16 79t46.5 62t75.5 41t104 15h27q58 0 103.5 -15t76 -41
t46.5 -62t16 -79q0 -36 -10.5 -63t-26.5 -46.5t-35.5 -31.5t-37.5 -18q20 -6 41.5 -19.5t39.5 -35t29.5 -51t11.5 -68.5zM315 613q-51 0 -82.5 -26.5t-31.5 -71.5t31.5 -71.5t82.5 -26.5h20q51 0 82.5 26.5t31.5 71.5t-31.5 71.5t-82.5 26.5h-20zM313 310q-54 0 -87.5 -29
t-33.5 -78t33.5 -77.5t87.5 -28.5h24q54 0 88 28.5t34 77.5q0 50 -34 78.5t-88 28.5h-24z" />
    <glyph glyph-name="nine.tab" horiz-adv-x="650" 
d="M320 0h-151l205 260q-17 -11 -40 -17.5t-55 -6.5q-49 0 -90 17t-70 48t-45.5 74.5t-16.5 96.5t18.5 99t53 79.5t84 52.5t112.5 19t112.5 -18.5t84 -52t53 -79.5t18.5 -100q0 -41 -8.5 -76t-24 -67t-37 -62.5t-46.5 -63.5zM189 472q0 -58 35.5 -96t101.5 -38q61 0 98 38
t37 96q0 27 -9.5 51t-26.5 42t-42.5 28.5t-56.5 10.5q-33 0 -58.5 -10.5t-43 -28.5t-26.5 -42t-9 -51z" />
    <glyph glyph-name="percent.tab" horiz-adv-x="975" 
d="M231 348q-40 0 -74.5 14.5t-60 39.5t-40 59t-14.5 74t14.5 74t40 59t60 39.5t74.5 14.5t74 -14.5t59.5 -39.5t40 -59t14.5 -74t-14.5 -74t-40 -59t-59.5 -39.5t-74 -14.5zM684 710h119l-512 -710h-119zM231 443q38 0 62.5 26.5t24.5 65.5q0 38 -24.5 64.5t-62.5 26.5
q-39 0 -63.5 -26.5t-24.5 -64.5q0 -39 24.5 -65.5t63.5 -26.5zM744 -14q-40 0 -74 14.5t-59.5 39.5t-40 59t-14.5 74t14.5 74t40 59t59.5 39.5t74 14.5t74.5 -14.5t60 -39.5t40 -59t14.5 -74t-14.5 -74t-40 -59t-60 -39.5t-74.5 -14.5zM744 82q39 0 63.5 26.5t24.5 64.5
q0 39 -24.5 65.5t-63.5 26.5q-38 0 -62.5 -26.5t-24.5 -65.5q0 -38 24.5 -64.5t62.5 -26.5z" />
    <glyph glyph-name="perthousand.tab" horiz-adv-x="1300" 
d="M218 366q-38 0 -71 13.5t-57 37.5t-38 56.5t-14 70.5t14 70.5t38 56.5t57 37.5t71 13.5t70.5 -13.5t56.5 -37.5t38 -56.5t14 -70.5t-14 -70.5t-38 -56.5t-56.5 -37.5t-70.5 -13.5zM129 0l513 710h117l-513 -710h-117zM218 461q36 0 58.5 24t22.5 59t-22.5 59.5
t-58.5 24.5t-58.5 -24.5t-22.5 -59.5t22.5 -59t58.5 -24zM669 -14q-38 0 -71 13.5t-57 37.5t-38 56.5t-14 70.5q0 37 14 69.5t38 56.5t57 38t71 14t70.5 -14t56.5 -38t38 -56.5t14 -69.5q0 -38 -14 -70.5t-38 -56.5t-56.5 -37.5t-70.5 -13.5zM1082 -14q-38 0 -70.5 13.5
t-56.5 37.5t-38 56.5t-14 70.5q0 37 14 69.5t38 56.5t56.5 38t70.5 14t71 -14t57 -38t38 -56.5t14 -69.5q0 -38 -14 -70.5t-38 -56.5t-57 -37.5t-71 -13.5zM669 80q36 0 58.5 24t22.5 60q0 35 -22.5 59t-58.5 24t-58.5 -24t-22.5 -59q0 -36 22.5 -60t58.5 -24zM1082 80
q36 0 58.5 24t22.5 60q0 35 -22.5 59t-58.5 24t-58.5 -24t-22.5 -59q0 -36 22.5 -60t58.5 -24z" />
    <glyph glyph-name="plus.tab" horiz-adv-x="650" 
d="M384 266v-217h-118v217h-209v112h209v216h118v-216h209v-112h-209z" />
    <glyph glyph-name="minus.tab" horiz-adv-x="650" 
d="M59 265v115h532v-115h-532z" />
    <glyph glyph-name="multiply.tab" horiz-adv-x="650" 
d="M59 371v111h532v-111h-532zM59 151v111h532v-111h-532z" />
    <glyph glyph-name="divide.tab" horiz-adv-x="650" 
d="M251 617h148v-159h-148v159zM53 266v113h543v-113h-543zM251 179h148v-159h-148v159z" />
    <glyph glyph-name="equal.tab" horiz-adv-x="650" 
d="M495 56l-171 171l-170 -171l-80 78l171 172l-171 171l83 83l169 -171l170 171l80 -78l-171 -173l172 -174z" />
    <glyph glyph-name="less.tab" horiz-adv-x="650" 
d="M554 55l-467 203v103l467 204v-124l-318 -132l318 -132v-122z" />
    <glyph glyph-name="greater.tab" horiz-adv-x="650" 
d="M97 55v123l317 133l-317 132v122l467 -204v-103z" />
    <glyph glyph-name="period.tab" horiz-adv-x="325" 
d="M87 170h152v-170h-152v170z" />
    <glyph glyph-name="comma.tab" horiz-adv-x="334" 
d="M94 -207q27 45 50.5 98t26.5 109h-73v170h153v-154q0 -67 -20 -125t-43 -98h-94z" />
    <glyph glyph-name="colon.tab" horiz-adv-x="338" 
d="M93 170h153v-170h-153v170zM93 501h153v-170h-153v170z" />
    <glyph glyph-name="semicolon.tab" horiz-adv-x="338" 
d="M93 501h153v-170h-153v170zM88 -207q28 45 51.5 98t25.5 109h-72v170h153v-154q0 -67 -20 -125t-43 -98h-95z" />
    <glyph glyph-name="zero.num" unicode="&#xe416;" horiz-adv-x="475" 
d="M238 718q82 0 129 -44t47 -122v-119q0 -78 -47 -122t-129 -44t-129.5 44t-47.5 122v119q0 78 47.5 122t129.5 44zM238 362q33 0 49.5 20.5t16.5 52.5v115q0 32 -16.5 52.5t-49.5 20.5t-49.5 -20.5t-16.5 -52.5v-115q0 -32 16.5 -52.5t49.5 -20.5z" />
    <glyph glyph-name="one.num" unicode="&#xe417;" horiz-adv-x="334" 
d="M259 275h-111v319l-109 -59v98l137 79h83v-437z" />
    <glyph glyph-name="two.num" unicode="&#xe418;" horiz-adv-x="439" 
d="M403 275h-349v70l163 146q25 23 37.5 40.5t12.5 39.5q0 23 -14.5 37.5t-40.5 14.5q-28 0 -43 -16.5t-15 -43.5v-20h-104v21q0 66 42 109.5t120 43.5q79 0 122.5 -39t43.5 -102q0 -50 -26.5 -84.5t-69.5 -70.5l-62 -54h183v-92z" />
    <glyph glyph-name="three.num" unicode="&#xe419;" horiz-adv-x="449" 
d="M399 401q0 -60 -47 -96.5t-132 -36.5q-47 0 -80 13t-54.5 33t-32.5 44t-12 46h111q1 -7 5.5 -15t12.5 -14.5t20.5 -11t29.5 -4.5q32 0 49.5 13t17.5 36q0 45 -54 45h-86v90h80q47 0 47 40q0 22 -15.5 34t-42.5 12q-31 0 -44 -14.5t-15 -28.5h-109q1 24 11.5 47t31 42
t52 30.5t73.5 11.5q81 0 124.5 -32.5t43.5 -92.5q0 -36 -18.5 -56.5t-38.5 -28.5q12 -4 25 -12t23.5 -21t17 -31t6.5 -42z" />
    <glyph glyph-name="four.num" unicode="&#xe41a;" horiz-adv-x="485" 
d="M366 384v-109h-107v109h-223v75l197 251h133v-239h84v-87h-84zM259 471v151l-116 -151h116z" />
    <glyph glyph-name="five.num" unicode="&#xe41b;" horiz-adv-x="454" 
d="M69 710h316v-86h-213v-84q11 12 32 22t53 10q31 0 57.5 -10t46 -28.5t30.5 -46t11 -61.5v-2q0 -34 -12 -62.5t-34.5 -49.5t-55.5 -32.5t-75 -11.5q-47 0 -80.5 12.5t-54.5 32.5t-31.5 45t-10.5 50h110q1 -7 5.5 -15.5t12.5 -16t20 -12.5t29 -5q29 0 47.5 18t18.5 46v2
q0 29 -18 46.5t-48 17.5q-29 0 -41.5 -12.5t-16.5 -19.5h-98v253z" />
    <glyph glyph-name="six.num" unicode="&#xe41c;" horiz-adv-x="454" 
d="M407 427q0 -35 -12.5 -64t-36 -50t-56.5 -33t-74 -12q-42 0 -75 11.5t-56.5 32.5t-36 50t-12.5 64q0 26 5 47.5t15 41.5t23.5 39.5t31.5 40.5l92 115h121l-127 -157q11 7 25.5 11.5t34.5 4.5q31 0 56.5 -10.5t43.5 -29t28 -45t10 -57.5zM296 427q0 29 -18.5 48t-50.5 19
q-31 0 -50 -19.5t-19 -48.5q0 -28 18.5 -47t50.5 -19t50.5 19t18.5 48z" />
    <glyph glyph-name="seven.num" unicode="&#xe41d;" horiz-adv-x="426" 
d="M190 275h-123l187 342h-212v93h344v-67z" />
    <glyph glyph-name="eight.num" unicode="&#xe41e;" horiz-adv-x="460" 
d="M409 393q0 -57 -44.5 -91t-125.5 -34h-19q-80 0 -124.5 34t-44.5 91q0 24 7 42t18 31t24 21t25 12q-11 3 -22.5 10.5t-21.5 19.5t-16.5 28.5t-6.5 38.5q0 54 42 87.5t121 33.5h18q79 0 121 -33.5t42 -87.5q0 -23 -6.5 -39.5t-16.5 -28t-22 -19t-22 -10.5q12 -4 25 -12
t24 -21t18 -31t7 -42zM226 636q-26 0 -42 -13t-16 -37q0 -23 16 -36.5t42 -13.5h8q26 0 42 13.5t16 36.5q0 24 -16 37t-42 13h-8zM224 457q-26 0 -43.5 -14t-17.5 -40t17.5 -40t43.5 -14h12q26 0 43.5 14t17.5 40t-17.5 40t-43.5 14h-12z" />
    <glyph glyph-name="nine.num" unicode="&#xe41f;" horiz-adv-x="454" 
d="M239 275h-121l128 158q-10 -7 -24.5 -12t-36.5 -5q-63 0 -100 39.5t-37 102.5q0 34 12.5 63.5t35.5 50.5t56 33t74 12q42 0 75 -12t56.5 -33t36 -50t12.5 -63q0 -26 -5 -47.5t-14.5 -41.5t-23.5 -39.5t-31 -40.5zM158 558q0 -29 18.5 -48t50.5 -19q31 0 50.5 19.5
t19.5 48.5t-19 47.5t-51 18.5t-50.5 -19t-18.5 -48z" />
    <glyph glyph-name="zero.den" unicode="&#xe402;" horiz-adv-x="475" 
d="M238 443q82 0 129 -44t47 -122v-119q0 -78 -47 -122t-129 -44t-129.5 44t-47.5 122v119q0 78 47.5 122t129.5 44zM238 87q33 0 49.5 20.5t16.5 52.5v115q0 32 -16.5 52.5t-49.5 20.5t-49.5 -20.5t-16.5 -52.5v-115q0 -32 16.5 -52.5t49.5 -20.5z" />
    <glyph glyph-name="one.den" unicode="&#xe403;" horiz-adv-x="334" 
d="M259 0h-111v319l-109 -59v98l137 79h83v-437z" />
    <glyph glyph-name="two.den" unicode="&#xe404;" horiz-adv-x="439" 
d="M403 0h-349v70l163 146q25 23 37.5 40.5t12.5 39.5q0 23 -14.5 37.5t-40.5 14.5q-28 0 -43 -16.5t-15 -43.5v-20h-104v21q0 66 42 109.5t120 43.5q79 0 122.5 -39t43.5 -102q0 -50 -26.5 -84.5t-69.5 -70.5l-62 -54h183v-92z" />
    <glyph glyph-name="three.den" unicode="&#xe405;" horiz-adv-x="449" 
d="M399 126q0 -60 -47 -96.5t-132 -36.5q-47 0 -80 13t-54.5 33t-32.5 44t-12 46h111q1 -7 5.5 -15t12.5 -14.5t20.5 -11t29.5 -4.5q32 0 49.5 13t17.5 36q0 45 -54 45h-86v90h80q47 0 47 40q0 22 -15.5 34t-42.5 12q-31 0 -44 -14.5t-15 -28.5h-109q1 24 11.5 47t31 42
t52 30.5t73.5 11.5q81 0 124.5 -32.5t43.5 -92.5q0 -36 -18.5 -56.5t-38.5 -28.5q12 -4 25 -12t23.5 -21t17 -31t6.5 -42z" />
    <glyph glyph-name="four.den" unicode="&#xe406;" horiz-adv-x="485" 
d="M366 109v-109h-107v109h-223v75l197 251h133v-239h84v-87h-84zM259 196v151l-116 -151h116z" />
    <glyph glyph-name="five.den" unicode="&#xe407;" horiz-adv-x="454" 
d="M69 435h316v-86h-213v-84q11 12 32 22t53 10q31 0 57.5 -10t46 -28.5t30.5 -46t11 -61.5v-2q0 -34 -12 -62.5t-34.5 -49.5t-55.5 -32.5t-75 -11.5q-47 0 -80.5 12.5t-54.5 33t-31.5 45.5t-10.5 49h110q1 -7 5.5 -15.5t12.5 -16t20 -12.5t29 -5q29 0 47.5 18t18.5 46v1
q0 29 -18 47t-48 18q-29 0 -41.5 -12.5t-16.5 -19.5h-98v253z" />
    <glyph glyph-name="six.den" unicode="&#xe408;" horiz-adv-x="454" 
d="M407 152q0 -35 -12.5 -64t-36 -50t-56.5 -33t-74 -12q-42 0 -75 11.5t-56.5 32.5t-36 50t-12.5 64q0 26 5 47.5t15 41.5t23.5 39.5t31.5 40.5l92 115h121l-127 -157q11 7 25.5 11.5t34.5 4.5q31 0 56.5 -10.5t43.5 -29t28 -45t10 -57.5zM296 152q0 29 -18.5 48t-50.5 19
q-31 0 -50 -19.5t-19 -48.5q0 -28 18.5 -47t50.5 -19t50.5 19t18.5 48z" />
    <glyph glyph-name="seven.den" unicode="&#xe409;" horiz-adv-x="426" 
d="M190 0h-123l187 342h-212v93h344v-67z" />
    <glyph glyph-name="eight.den" unicode="&#xe40a;" horiz-adv-x="460" 
d="M409 118q0 -57 -44.5 -91t-125.5 -34h-19q-80 0 -124.5 34t-44.5 91q0 24 7 42t18 30.5t24 20.5t25 12q-11 4 -22.5 11.5t-21.5 19.5t-16.5 28.5t-6.5 38.5q0 54 42 87.5t121 33.5h18q79 0 121 -33.5t42 -87.5q0 -22 -6.5 -38.5t-16.5 -28.5t-22 -19.5t-22 -11.5
q12 -4 25 -12t24 -20.5t18 -30.5t7 -42zM226 361q-26 0 -42 -13t-16 -37q0 -23 16 -36.5t42 -13.5h8q26 0 42 13.5t16 36.5q0 24 -16 37t-42 13h-8zM224 182q-26 0 -43.5 -14t-17.5 -40t17.5 -40t43.5 -14h12q26 0 43.5 14t17.5 40t-17.5 40t-43.5 14h-12z" />
    <glyph glyph-name="nine.den" unicode="&#xe40b;" horiz-adv-x="454" 
d="M239 0h-121l128 158q-10 -7 -24.5 -12t-36.5 -5q-63 0 -100 39.5t-37 102.5q0 34 12.5 63.5t35.5 50.5t56 33t74 12q42 0 75 -12t56.5 -33t36 -50t12.5 -63q0 -26 -5 -47.5t-14.5 -41.5t-23.5 -39.5t-31 -40.5zM158 283q0 -29 18.5 -48t50.5 -19q31 0 50.5 19.5
t19.5 48.5t-19 47.5t-51 18.5t-50.5 -19t-18.5 -48z" />
    <glyph glyph-name="zero.sub" unicode="&#x2080;" horiz-adv-x="535" 
d="M267 379q91 0 143.5 -50t52.5 -138v-142q0 -90 -52.5 -139.5t-143.5 -49.5t-143 49.5t-52 139.5v142q0 88 52 138t143 50zM267 -39q42 0 62.5 26t20.5 66v133q0 41 -20.5 67t-62.5 26t-62 -26t-20 -67v-133q0 -40 20 -66t62 -26z" />
    <glyph glyph-name="one.sub" unicode="&#x2081;" horiz-adv-x="370" 
d="M282 -130h-113v378l-125 -69v103l153 90h85v-502z" />
    <glyph glyph-name="two.sub" unicode="&#x2082;" horiz-adv-x="491" 
d="M452 -130h-391v72l184 168q30 29 46 52t16 52t-18 47.5t-52 18.5t-52.5 -20.5t-18.5 -55.5v-24h-109v26q0 37 12 69t35.5 54.5t57 35.5t76.5 13q88 0 136 -44t48 -115q0 -29 -8 -53t-22 -45t-34.5 -41t-44.5 -42l-80 -72h219v-96z" />
    <glyph glyph-name="three.sub" unicode="&#x2083;" horiz-adv-x="503" 
d="M445 12q0 -68 -51.5 -109.5t-145.5 -41.5q-52 0 -89 14.5t-61 36.5t-36 49t-14 53h115q2 -9 7.5 -19t16 -18.5t25.5 -14t36 -5.5q38 0 60 17t22 46t-18.5 44t-52.5 15h-95v94h88q30 0 47 14t17 40t-20 41.5t-53 15.5q-36 0 -52.5 -17.5t-20.5 -36.5h-112q1 27 12.5 53.5
t34 47.5t57 34t81.5 13q89 0 137.5 -38t48.5 -105q0 -21 -6.5 -38t-16.5 -29t-22 -20.5t-23 -12.5q14 -4 29 -13t27 -24t20 -36t8 -50z" />
    <glyph glyph-name="four.sub" unicode="&#x2084;" horiz-adv-x="542" 
d="M405 4v-134h-111v134h-253v77l228 289h136v-274h99v-92h-99zM294 96v179l-138 -179h138z" />
    <glyph glyph-name="five.sub" unicode="&#x2085;" horiz-adv-x="509" 
d="M81 370h349v-91h-242v-106q13 14 38 25t61 11q34 0 63.5 -11.5t51.5 -32.5t34.5 -52t12.5 -70v-4q0 -38 -13.5 -70.5t-38.5 -56.5t-61.5 -37.5t-82.5 -13.5q-51 0 -88 14.5t-61 37t-35.5 51t-11.5 57.5h114q1 -9 6 -20t15 -20.5t25 -16t36 -6.5q37 0 59.5 23t22.5 58v3
q0 36 -22 58t-60 22q-18 0 -30.5 -4.5t-21 -11t-13.5 -13t-7 -10.5h-100v287z" />
    <glyph glyph-name="six.sub" unicode="&#x2086;" horiz-adv-x="510" 
d="M455 41q0 -39 -14 -72t-39.5 -57t-63 -37.5t-83.5 -13.5t-83 13.5t-62.5 37.5t-39.5 57t-14 72q0 29 6 54t17 48t26.5 45t34.5 46l108 136h126l-144 -181q11 8 28 13t40 5q35 0 64 -12t49.5 -34t32 -52.5t11.5 -67.5zM341 41q0 37 -22 60.5t-64 23.5q-38 0 -62 -23.5
t-24 -60.5q0 -35 23.5 -59t62.5 -24q42 0 64 24t22 59z" />
    <glyph glyph-name="seven.sub" unicode="&#x2087;" horiz-adv-x="480" 
d="M205 -130h-127l220 401h-248v99h383v-72z" />
    <glyph glyph-name="eight.sub" unicode="&#x2088;" horiz-adv-x="517" 
d="M457 6q0 -66 -49.5 -105.5t-139.5 -39.5h-21q-89 0 -138 39.5t-49 105.5q0 27 8.5 48t21 35.5t27.5 23.5t29 14q-12 4 -26 12t-25.5 22t-19 33.5t-7.5 45.5q0 62 46.5 100t134.5 38h20q88 0 134 -38t46 -100q0 -26 -7.5 -45.5t-19 -33.5t-25.5 -22t-26 -12
q13 -5 28.5 -14t28 -23.5t21 -35.5t8.5 -48zM252 292q-32 0 -51 -16.5t-19 -45.5q0 -30 19 -46t51 -16h13q32 0 51 16t19 46q0 29 -19 45.5t-51 16.5h-13zM251 83q-33 0 -54.5 -18t-21.5 -50t21.5 -49.5t54.5 -17.5h15q33 0 54.5 17.5t21.5 49.5t-21.5 50t-54.5 18h-15z" />
    <glyph glyph-name="nine.sub" unicode="&#x2089;" horiz-adv-x="510" 
d="M262 -130h-126l147 183q-12 -8 -29 -14t-42 -6q-71 0 -114 45.5t-43 119.5q0 39 14 72t39.5 57t62.5 37.5t84 13.5q46 0 83 -13.5t62.5 -37t39.5 -56.5t14 -72q0 -29 -6 -54t-16.5 -48t-26.5 -45t-35 -46zM169 198q0 -36 22 -59.5t64 -23.5q39 0 62.5 23.5t23.5 60.5
q0 35 -23 59t-63 24q-42 0 -64 -24t-22 -60z" />
    <glyph glyph-name="zero.sup" unicode="&#x2070;" horiz-adv-x="535" 
d="M267 745q91 0 143.5 -50t52.5 -138v-142q0 -90 -52.5 -139.5t-143.5 -49.5t-143 49.5t-52 139.5v142q0 88 52 138t143 50zM267 327q42 0 62.5 26t20.5 66v133q0 41 -20.5 67t-62.5 26t-62 -26t-20 -67v-133q0 -40 20 -66t62 -26z" />
    <glyph glyph-name="one.sup" unicode="&#xb9;" horiz-adv-x="370" 
d="M282 236h-113v378l-125 -69v103l153 90h85v-502z" />
    <glyph glyph-name="two.sup" unicode="&#xb2;" horiz-adv-x="491" 
d="M452 236h-391v72l184 168q30 29 46 52t16 52t-18 47.5t-52 18.5t-52.5 -20.5t-18.5 -55.5v-24h-109v26q0 37 12 69t35.5 54.5t57 35.5t76.5 13q88 0 136 -44t48 -115q0 -29 -8 -53t-22 -45t-34.5 -41t-44.5 -42l-80 -72h219v-96z" />
    <glyph glyph-name="three.sup" unicode="&#xb3;" horiz-adv-x="503" 
d="M445 378q0 -68 -51.5 -109.5t-145.5 -41.5q-52 0 -89 14.5t-61 36.5t-36 49t-14 53h115q2 -9 7.5 -19t16 -18.5t25.5 -14t36 -5.5q38 0 60 17t22 46t-18.5 44t-52.5 15h-95v94h88q30 0 47 14t17 40t-20 41.5t-53 15.5q-36 0 -52.5 -17.5t-20.5 -36.5h-112q1 27 12.5 53.5
t34 47.5t57 34t81.5 13q89 0 137.5 -38t48.5 -105q0 -21 -6.5 -38t-16.5 -29t-22 -20.5t-23 -12.5q14 -4 29 -13t27 -24t20 -36t8 -50z" />
    <glyph glyph-name="four.sup" unicode="&#x2074;" horiz-adv-x="542" 
d="M405 370v-134h-111v134h-253v77l228 289h136v-274h99v-92h-99zM294 462v179l-138 -179h138z" />
    <glyph glyph-name="five.sup" unicode="&#x2075;" horiz-adv-x="509" 
d="M81 736h349v-91h-242v-106q13 14 38 25t61 11q34 0 63.5 -11.5t51.5 -32.5t34.5 -52t12.5 -70v-4q0 -38 -13.5 -70.5t-38.5 -56.5t-61.5 -37.5t-82.5 -13.5q-51 0 -88 14.5t-61 37t-35.5 51t-11.5 57.5h114q1 -9 6 -20t15 -20.5t25 -16t36 -6.5q37 0 59.5 23t22.5 58v3
q0 36 -22 58t-60 22q-18 0 -30.5 -4.5t-21 -11t-13.5 -13t-7 -10.5h-100v287z" />
    <glyph glyph-name="six.sup" unicode="&#x2076;" horiz-adv-x="510" 
d="M455 407q0 -39 -14 -72t-39.5 -57t-63 -37.5t-83.5 -13.5t-83 13.5t-62.5 37.5t-39.5 57t-14 72q0 29 6 54t17 48t26.5 45t34.5 46l108 136h126l-144 -181q11 8 28 13t40 5q35 0 64 -12t49.5 -34t32 -52.5t11.5 -67.5zM341 407q0 37 -22 60.5t-64 23.5q-38 0 -62 -23.5
t-24 -60.5q0 -35 23.5 -59t62.5 -24q42 0 64 24t22 59z" />
    <glyph glyph-name="seven.sup" unicode="&#x2077;" horiz-adv-x="480" 
d="M205 236h-127l220 401h-248v99h383v-72z" />
    <glyph glyph-name="eight.sup" unicode="&#x2078;" horiz-adv-x="517" 
d="M457 372q0 -66 -49.5 -105.5t-139.5 -39.5h-21q-89 0 -138 39.5t-49 105.5q0 27 8.5 48t21 35.5t27.5 23.5t29 14q-12 4 -26 12t-25.5 22t-19 33.5t-7.5 45.5q0 62 46.5 100t134.5 38h20q88 0 134 -38t46 -100q0 -26 -7.5 -45.5t-19 -33.5t-25.5 -22t-26 -12
q13 -5 28.5 -14t28 -23.5t21 -35.5t8.5 -48zM252 658q-32 0 -51 -16.5t-19 -45.5q0 -30 19 -46t51 -16h13q32 0 51 16t19 46q0 29 -19 45.5t-51 16.5h-13zM251 449q-33 0 -54.5 -18t-21.5 -50t21.5 -49.5t54.5 -17.5h15q33 0 54.5 17.5t21.5 49.5t-21.5 50t-54.5 18h-15z
" />
    <glyph glyph-name="nine.sup" unicode="&#x2079;" horiz-adv-x="510" 
d="M262 236h-126l147 183q-12 -8 -29 -14t-42 -6q-71 0 -114 45.5t-43 119.5q0 39 14 72t39.5 57t62.5 37.5t84 13.5q46 0 83 -13.5t62.5 -37t39.5 -56.5t14 -72q0 -29 -6 -54t-16.5 -48t-26.5 -45t-35 -46zM169 564q0 -36 22 -59.5t64 -23.5q39 0 62.5 23.5t23.5 60.5
q0 35 -23 59t-63 24q-42 0 -64 -24t-22 -60z" />
    <glyph glyph-name="a.alt" horiz-adv-x="616" 
d="M48 160q0 77 54 117t148 40h166q0 46 -32.5 73t-88.5 27q-26 0 -45 -6t-31.5 -14.5t-19 -17t-9.5 -13.5h-129q4 20 18.5 46.5t42.5 50t70.5 40t102.5 16.5q59 0 104.5 -14.5t76.5 -41.5t47 -64t16 -82v-171q0 -23 9 -33.5t31 -12.5v-103h-40q-97 2 -118 70
q-9 -14 -24 -27.5t-35 -25t-46 -18.5t-59 -7q-45 0 -83 12t-66 34.5t-44 54t-16 70.5zM284 84q27 0 51 6.5t42 19.5t28.5 32.5t10.5 44.5v43h-145q-45 0 -71 -16.5t-26 -51.5q0 -37 31 -57.5t79 -20.5z" />
    <glyph glyph-name="u.alt" horiz-adv-x="658" 
d="M448 83q-8 -14 -22 -30t-34.5 -30.5t-47.5 -24t-60 -9.5q-47 0 -85 16.5t-65 46t-42 70t-15 88.5v296h128v-271q0 -60 32.5 -96t87.5 -36q56 0 89.5 36.5t33.5 95.5v271h128v-506h-128v83z" />
    <glyph glyph-name="aacute.alt" horiz-adv-x="616" 
d="M48 160q0 77 54 117t148 40h166q0 46 -32.5 73t-88.5 27q-26 0 -45 -6t-31.5 -14.5t-19 -17t-9.5 -13.5h-129q4 20 18.5 46.5t42.5 50t70.5 40t102.5 16.5q59 0 104.5 -14.5t76.5 -41.5t47 -64t16 -82v-171q0 -23 9 -33.5t31 -12.5v-103h-40q-97 2 -118 70
q-9 -14 -24 -27.5t-35 -25t-46 -18.5t-59 -7q-45 0 -83 12t-66 34.5t-44 54t-16 70.5zM284 84q27 0 51 6.5t42 19.5t28.5 32.5t10.5 44.5v43h-145q-45 0 -71 -16.5t-26 -51.5q0 -37 31 -57.5t79 -20.5zM334 767h133l-116 -187h-126z" />
    <glyph glyph-name="abreve.alt" horiz-adv-x="616" 
d="M48 160q0 77 54 117t148 40h166q0 46 -32.5 73t-88.5 27q-26 0 -45 -6t-31.5 -14.5t-19 -17t-9.5 -13.5h-129q4 20 18.5 46.5t42.5 50t70.5 40t102.5 16.5q59 0 104.5 -14.5t76.5 -41.5t47 -64t16 -82v-171q0 -23 9 -33.5t31 -12.5v-103h-40q-97 2 -118 70
q-9 -14 -24 -27.5t-35 -25t-46 -18.5t-59 -7q-45 0 -83 12t-66 34.5t-44 54t-16 70.5zM284 84q27 0 51 6.5t42 19.5t28.5 32.5t10.5 44.5v43h-145q-45 0 -71 -16.5t-26 -51.5q0 -37 31 -57.5t79 -20.5zM295 668q29 0 42 19t13 42v17h101v-19q0 -32 -9.5 -60t-28.5 -48.5
t-48.5 -32.5t-69.5 -12t-69.5 12t-48.5 32.5t-28.5 48.5t-9.5 60v19h101v-17q0 -23 13 -42t42 -19z" />
    <glyph glyph-name="acircumflex.alt" horiz-adv-x="616" 
d="M48 160q0 77 54 117t148 40h166q0 46 -32.5 73t-88.5 27q-26 0 -45 -6t-31.5 -14.5t-19 -17t-9.5 -13.5h-129q4 20 18.5 46.5t42.5 50t70.5 40t102.5 16.5q59 0 104.5 -14.5t76.5 -41.5t47 -64t16 -82v-171q0 -23 9 -33.5t31 -12.5v-103h-40q-97 2 -118 70
q-9 -14 -24 -27.5t-35 -25t-46 -18.5t-59 -7q-45 0 -83 12t-66 34.5t-44 54t-16 70.5zM284 84q27 0 51 6.5t42 19.5t28.5 32.5t10.5 44.5v43h-145q-45 0 -71 -16.5t-26 -51.5q0 -37 31 -57.5t79 -20.5zM295 682l-67 -104h-118l129 196h112l126 -196h-115z" />
    <glyph glyph-name="adieresis.alt" horiz-adv-x="616" 
d="M48 160q0 77 54 117t148 40h166q0 46 -32.5 73t-88.5 27q-26 0 -45 -6t-31.5 -14.5t-19 -17t-9.5 -13.5h-129q4 20 18.5 46.5t42.5 50t70.5 40t102.5 16.5q59 0 104.5 -14.5t76.5 -41.5t47 -64t16 -82v-171q0 -23 9 -33.5t31 -12.5v-103h-40q-97 2 -118 70
q-9 -14 -24 -27.5t-35 -25t-46 -18.5t-59 -7q-45 0 -83 12t-66 34.5t-44 54t-16 70.5zM284 84q27 0 51 6.5t42 19.5t28.5 32.5t10.5 44.5v43h-145q-45 0 -71 -16.5t-26 -51.5q0 -37 31 -57.5t79 -20.5zM127 736h127v-149h-127v149zM336 736h127v-149h-127v149z" />
    <glyph glyph-name="agrave.alt" horiz-adv-x="616" 
d="M48 160q0 77 54 117t148 40h166q0 46 -32.5 73t-88.5 27q-26 0 -45 -6t-31.5 -14.5t-19 -17t-9.5 -13.5h-129q4 20 18.5 46.5t42.5 50t70.5 40t102.5 16.5q59 0 104.5 -14.5t76.5 -41.5t47 -64t16 -82v-171q0 -23 9 -33.5t31 -12.5v-103h-40q-97 2 -118 70
q-9 -14 -24 -27.5t-35 -25t-46 -18.5t-59 -7q-45 0 -83 12t-66 34.5t-44 54t-16 70.5zM284 84q27 0 51 6.5t42 19.5t28.5 32.5t10.5 44.5v43h-145q-45 0 -71 -16.5t-26 -51.5q0 -37 31 -57.5t79 -20.5zM231 580l-116 187h133l109 -187h-126z" />
    <glyph glyph-name="amacron.alt" horiz-adv-x="616" 
d="M48 160q0 77 54 117t148 40h166q0 46 -32.5 73t-88.5 27q-26 0 -45 -6t-31.5 -14.5t-19 -17t-9.5 -13.5h-129q4 20 18.5 46.5t42.5 50t70.5 40t102.5 16.5q59 0 104.5 -14.5t76.5 -41.5t47 -64t16 -82v-171q0 -23 9 -33.5t31 -12.5v-103h-40q-97 2 -118 70
q-9 -14 -24 -27.5t-35 -25t-46 -18.5t-59 -7q-45 0 -83 12t-66 34.5t-44 54t-16 70.5zM284 84q27 0 51 6.5t42 19.5t28.5 32.5t10.5 44.5v43h-145q-45 0 -71 -16.5t-26 -51.5q0 -37 31 -57.5t79 -20.5zM135 613v101h324v-101h-324z" />
    <glyph glyph-name="aogonek.alt" horiz-adv-x="615" 
d="M47 160q0 77 54 117t148 40h166q0 46 -32.5 73t-87.5 27q-26 0 -45 -6t-31.5 -14.5t-19 -17t-9.5 -13.5h-130q4 20 18.5 46.5t42.5 50t71 40t103 16.5q58 0 103.5 -14.5t76.5 -41.5t47 -64t16 -82v-171q0 -23 9 -33.5t31 -12.5v-100q-42 -32 -65.5 -52t-23.5 -40
q0 -25 32 -25h82v-96h-126q-58 0 -91.5 22.5t-33.5 67.5q0 23 11 42t28.5 35t39 29.5t43.5 25.5q-41 16 -54 57q-9 -13 -24 -26.5t-35 -25t-46 -18.5t-59 -7q-45 0 -83 12t-66 34.5t-44 54t-16 70.5zM284 84q27 0 50.5 6.5t41.5 19.5t28.5 32.5t10.5 44.5v43h-145
q-44 0 -70 -16.5t-26 -51.5q0 -37 31 -57.5t79 -20.5z" />
    <glyph glyph-name="aring.alt" horiz-adv-x="616" 
d="M48 160q0 77 54 117t148 40h166q0 46 -32.5 73t-88.5 27q-26 0 -45 -6t-31.5 -14.5t-19 -17t-9.5 -13.5h-129q4 20 18.5 46.5t42.5 50t70.5 40t102.5 16.5q59 0 104.5 -14.5t76.5 -41.5t47 -64t16 -82v-171q0 -23 9 -33.5t31 -12.5v-103h-40q-97 2 -118 70
q-9 -14 -24 -27.5t-35 -25t-46 -18.5t-59 -7q-45 0 -83 12t-66 34.5t-44 54t-16 70.5zM284 84q27 0 51 6.5t42 19.5t28.5 32.5t10.5 44.5v43h-145q-45 0 -71 -16.5t-26 -51.5q0 -37 31 -57.5t79 -20.5zM295 569q-30 0 -55 10.5t-43 28.5t-28 42t-10 52t10.5 52t28.5 42
t43 28t54 10t54 -10t43.5 -28t29 -42t10.5 -52t-10.5 -52t-28.5 -42t-43 -28.5t-55 -10.5zM295 641q26 0 43 17.5t17 43.5t-16.5 43t-43.5 17t-43.5 -17t-16.5 -43t17 -43.5t43 -17.5z" />
    <glyph glyph-name="aringacute.alt" horiz-adv-x="616" 
d="M48 160q0 77 54 117t148 40h166q0 46 -32.5 73t-88.5 27q-26 0 -45 -6t-31.5 -14.5t-19 -17t-9.5 -13.5h-129q4 20 18.5 46.5t42.5 50t70.5 40t102.5 16.5q59 0 104.5 -14.5t76.5 -41.5t47 -64t16 -82v-171q0 -23 9 -33.5t31 -12.5v-103h-40q-97 2 -118 70
q-9 -14 -24 -27.5t-35 -25t-46 -18.5t-59 -7q-45 0 -83 12t-66 34.5t-44 54t-16 70.5zM284 84q27 0 51 6.5t42 19.5t28.5 32.5t10.5 44.5v43h-145q-45 0 -71 -16.5t-26 -51.5q0 -37 31 -57.5t79 -20.5zM331 1025h131l-102 -154h-124zM295 569q-30 0 -55 10.5t-43 28.5
t-28 42t-10 52t10.5 52t28.5 42t43 28t54 10t54 -10t43.5 -28t29 -42t10.5 -52t-10.5 -52t-28.5 -42t-43 -28.5t-55 -10.5zM295 641q26 0 43 17.5t17 43.5t-16.5 43t-43.5 17t-43.5 -17t-16.5 -43t17 -43.5t43 -17.5z" />
    <glyph glyph-name="atilde.alt" horiz-adv-x="616" 
d="M48 160q0 77 54 117t148 40h166q0 46 -32.5 73t-88.5 27q-26 0 -45 -6t-31.5 -14.5t-19 -17t-9.5 -13.5h-129q4 20 18.5 46.5t42.5 50t70.5 40t102.5 16.5q59 0 104.5 -14.5t76.5 -41.5t47 -64t16 -82v-171q0 -23 9 -33.5t31 -12.5v-103h-40q-97 2 -118 70
q-9 -14 -24 -27.5t-35 -25t-46 -18.5t-59 -7q-45 0 -83 12t-66 34.5t-44 54t-16 70.5zM284 84q27 0 51 6.5t42 19.5t28.5 32.5t10.5 44.5v43h-145q-45 0 -71 -16.5t-26 -51.5q0 -37 31 -57.5t79 -20.5zM125 576v84q0 44 20.5 69.5t63.5 25.5q26 0 45.5 -9.5t42.5 -26.5
l29 -21q9 -6 16 -10t15 -4q9 0 13 6t4 15v55h91v-83q0 -44 -20.5 -70t-63.5 -26q-27 0 -46 9.5t-42 26.5l-29 21q-10 7 -16.5 11t-14.5 4q-17 0 -17 -22v-55h-91z" />
    <glyph glyph-name="uacute.alt" horiz-adv-x="658" 
d="M448 83q-8 -14 -22 -30t-34.5 -30.5t-47.5 -24t-60 -9.5q-47 0 -85 16.5t-65 46t-42 70t-15 88.5v296h128v-271q0 -60 32.5 -96t87.5 -36q56 0 89.5 36.5t33.5 95.5v271h128v-506h-128v83zM363 767h133l-116 -187h-126z" />
    <glyph glyph-name="ubreve.alt" horiz-adv-x="658" 
d="M448 83q-8 -14 -22 -30t-34.5 -30.5t-47.5 -24t-60 -9.5q-47 0 -85 16.5t-65 46t-42 70t-15 88.5v296h128v-271q0 -60 32.5 -96t87.5 -36q56 0 89.5 36.5t33.5 95.5v271h128v-506h-128v83zM324 668q29 0 42 19t13 42v17h101v-19q0 -32 -9.5 -60t-28.5 -48.5t-48.5 -32.5
t-69.5 -12t-69.5 12t-48.5 32.5t-28.5 48.5t-9.5 60v19h101v-17q0 -23 13 -42t42 -19z" />
    <glyph glyph-name="ucircumflex.alt" horiz-adv-x="658" 
d="M448 83q-8 -14 -22 -30t-34.5 -30.5t-47.5 -24t-60 -9.5q-47 0 -85 16.5t-65 46t-42 70t-15 88.5v296h128v-271q0 -60 32.5 -96t87.5 -36q56 0 89.5 36.5t33.5 95.5v271h128v-506h-128v83zM324 682l-67 -104h-118l129 196h112l126 -196h-115z" />
    <glyph glyph-name="udieresis.alt" horiz-adv-x="658" 
d="M448 83q-8 -14 -22 -30t-34.5 -30.5t-47.5 -24t-60 -9.5q-47 0 -85 16.5t-65 46t-42 70t-15 88.5v296h128v-271q0 -60 32.5 -96t87.5 -36q56 0 89.5 36.5t33.5 95.5v271h128v-506h-128v83zM156 736h127v-149h-127v149zM365 736h127v-149h-127v149z" />
    <glyph glyph-name="ugrave.alt" horiz-adv-x="658" 
d="M448 83q-8 -14 -22 -30t-34.5 -30.5t-47.5 -24t-60 -9.5q-47 0 -85 16.5t-65 46t-42 70t-15 88.5v296h128v-271q0 -60 32.5 -96t87.5 -36q56 0 89.5 36.5t33.5 95.5v271h128v-506h-128v83zM260 580l-116 187h133l109 -187h-126z" />
    <glyph glyph-name="uhungarumlaut.alt" horiz-adv-x="658" 
d="M448 83q-8 -14 -22 -30t-34.5 -30.5t-47.5 -24t-60 -9.5q-47 0 -85 16.5t-65 46t-42 70t-15 88.5v296h128v-271q0 -60 32.5 -96t87.5 -36q56 0 89.5 36.5t33.5 95.5v271h128v-506h-128v83zM444 767h113l-87 -187h-107zM257 767h112l-87 -187h-107z" />
    <glyph glyph-name="umacron.alt" horiz-adv-x="658" 
d="M448 83q-8 -14 -22 -30t-34.5 -30.5t-47.5 -24t-60 -9.5q-47 0 -85 16.5t-65 46t-42 70t-15 88.5v296h128v-271q0 -60 32.5 -96t87.5 -36q56 0 89.5 36.5t33.5 95.5v271h128v-506h-128v83zM162 613v101h324v-101h-324z" />
    <glyph glyph-name="uogonek.alt" horiz-adv-x="658" 
d="M448 83q-8 -14 -22 -30t-34.5 -30.5t-47.5 -24t-60 -9.5q-47 0 -85 16.5t-65 46t-42 70t-15 88.5v296h128v-271q0 -60 32.5 -96t87.5 -36q56 0 89.5 36.5t33.5 95.5v271h128v-506q-42 -32 -65.5 -52t-23.5 -40q0 -25 31 -25h83v-96h-127q-58 0 -91.5 23t-33.5 68
q0 20 8 36.5t22 31t31.5 28t37.5 26.5v83z" />
    <glyph glyph-name="uring.alt" horiz-adv-x="658" 
d="M448 83q-8 -14 -22 -30t-34.5 -30.5t-47.5 -24t-60 -9.5q-47 0 -85 16.5t-65 46t-42 70t-15 88.5v296h128v-271q0 -60 32.5 -96t87.5 -36q56 0 89.5 36.5t33.5 95.5v271h128v-506h-128v83zM324 569q-30 0 -55 10.5t-43 28.5t-28 42t-10 52t10.5 52t28.5 42t43 28t54 10
t54 -10t43.5 -28t29 -42t10.5 -52t-10.5 -52t-28.5 -42t-43 -28.5t-55 -10.5zM324 641q26 0 43 17.5t17 43.5t-16.5 43t-43.5 17t-43.5 -17t-16.5 -43t17 -43.5t43 -17.5z" />
    <glyph glyph-name="utilde.alt" horiz-adv-x="658" 
d="M448 83q-8 -14 -22 -30t-34.5 -30.5t-47.5 -24t-60 -9.5q-47 0 -85 16.5t-65 46t-42 70t-15 88.5v296h128v-271q0 -60 32.5 -96t87.5 -36q56 0 89.5 36.5t33.5 95.5v271h128v-506h-128v83zM154 576v84q0 44 20.5 69.5t63.5 25.5q26 0 45.5 -9.5t42.5 -26.5l29 -21
q9 -6 16 -10t15 -4q9 0 13 6t4 15v55h91v-83q0 -44 -20.5 -70t-63.5 -26q-27 0 -46 9.5t-42 26.5l-29 21q-10 7 -16.5 11t-14.5 4q-17 0 -17 -22v-55h-91z" />
    <glyph glyph-name="space_uni0326.alt" horiz-adv-x="500" 
d="M297 826q-16 -29 -27 -61t-13 -53h66v-127h-145v101q0 46 10 79.5t22 60.5h87z" />
    <glyph glyph-name="four.alt" horiz-adv-x="721" 
d="M535 215v-215h-133v215h-310v495h131v-376h179v285h133v-285h152v-119h-152z" />
    <glyph glyph-name="onequarter.alt" horiz-adv-x="1068" 
d="M259 275h-111v319l-109 -59v98l137 79h83v-437zM166 0l448 710h114l-449 -710h-113zM950 119v-119h-108v119h-208v316h108v-224h100v169h108v-169h83v-92h-83z" />
    <glyph glyph-name="threequarters.alt" horiz-adv-x="1165" 
d="M399 401q0 -60 -47 -96.5t-132 -36.5q-47 0 -80 13t-54.5 33t-32.5 44t-12 46h111q1 -7 5.5 -15t12.5 -14.5t20.5 -11t29.5 -4.5q32 0 49.5 13t17.5 36q0 45 -54 45h-86v90h80q47 0 47 40q0 22 -15.5 34t-42.5 12q-31 0 -44 -14.5t-15 -28.5h-109q1 24 11.5 47t31 42
t52 30.5t73.5 11.5q81 0 124.5 -32.5t43.5 -92.5q0 -36 -18.5 -56.5t-38.5 -28.5q12 -4 25 -12t23.5 -21t17 -31t6.5 -42zM264 0l448 710h114l-449 -710h-113zM1047 119v-119h-108v119h-208v316h108v-224h100v169h108v-169h83v-92h-83z" />
    <glyph glyph-name="caron.alt" 
d="M268 774h115l-61 -194h-107z" />
    <glyph glyph-name="questiondown.uc" horiz-adv-x="547" 
d="M265.018 475.015h127.992v-21.999q0 -22.998 -3 -39.9971t-11.999 -31.498q-9 -14.5 -24.499 -27.999t-40.4971 -29.498l-69.9961 -44.9971q-28.998 -18.999 -48.4971 -41.9971q-19.499 -22.999 -19.499 -55.9971q0 -38.9971 24.499 -61.9961
q24.498 -22.999 68.4951 -22.999q44.998 0 69.4961 27.499q24.499 27.498 24.499 70.4951v28.998h123.992v-35.9971q0 -44.9971 -14.999 -81.4951t-42.998 -62.9961q-27.998 -26.499 -68.4951 -40.498q-40.498 -13.999 -91.4951 -13.999q-105.993 0 -163.489 50.9971
q-57.4971 50.9971 -57.4971 141.991q0 34.998 8.5 62.4961q8.49902 27.498 24.498 49.9971t39.998 42.4971q23.998 19.999 54.9961 38.998l60.9961 38.9971q16.999 12 22.999 24.499t6 32.498v4zM405.009 551.01h-151.991v158.99h151.991v-158.99z" />
    <glyph glyph-name="exclamdown.uc" horiz-adv-x="342" 
d="M94 710h153v-159h-153v159zM108 475h125v-475h-125v475z" />
    <glyph glyph-name="hyphen.uc" horiz-adv-x="493" 
d="M80 398h333v-119h-333v119z" />
    <glyph glyph-name="endash.uc" horiz-adv-x="708" 
d="M80 385h548v-93h-548v93z" />
    <glyph glyph-name="emdash.uc" horiz-adv-x="1013" 
d="M80 385h853v-93h-853v93z" />
    <glyph glyph-name="quoteleft.uc" horiz-adv-x="311" 
d="M225 710q-25 -45 -44 -94.5t-21 -100.5h72v-155h-151v138q0 66 15.5 119t36.5 93h92z" />
    <glyph glyph-name="quoteright.uc" horiz-adv-x="311" 
d="M85 360q26 45 44.5 94.5t20.5 100.5h-71v155h151v-138q0 -66 -15.5 -119t-37.5 -93h-92z" />
    <glyph glyph-name="quotedblleft.uc" horiz-adv-x="540" 
d="M225 710q-25 -45 -44 -94.5t-21 -100.5h70v-155h-149v138q0 66 15.5 119t36.5 93h92zM456 710q-25 -45 -44 -94.5t-21 -100.5h70v-155h-150v138q0 66 15.5 119t37.5 93h92z" />
    <glyph glyph-name="quotedblright.uc" horiz-adv-x="540" 
d="M315 360q25 45 44 94.5t21 100.5h-70v155h149v-138q0 -66 -15.5 -119t-36.5 -93h-92zM84 360q25 45 44 94.5t21 100.5h-70v155h150v-138q0 -66 -15.5 -119t-37.5 -93h-92z" />
    <glyph glyph-name="guilsinglleft.uc" horiz-adv-x="353" 
d="M179 317l111 -185h-122l-108 184l109 184h121z" />
    <glyph glyph-name="guilsinglright.uc" horiz-adv-x="353" 
d="M184 132h-121l111 183l-111 185h122l108 -184z" />
    <glyph glyph-name="guillemotleft.uc" horiz-adv-x="578" 
d="M178 317l107 -185h-121l-104 184l105 184h120zM406 317l109 -185h-121l-105 184l106 184h120z" />
    <glyph glyph-name="guillemotright.uc" horiz-adv-x="578" 
d="M413 132h-120l108 183l-108 185h121l105 -184zM184 132h-121l109 183l-109 185h121l106 -184z" />
    <glyph glyph-name="at.uc" horiz-adv-x="1053" 
d="M953 56q-16 -25 -47.5 -55t-80 -56.5t-116 -44.5t-154.5 -18q-119 0 -211 35.5t-155 97.5t-96 146t-33 180q0 101 36 187t100.5 148.5t154 97.5t195.5 35q111 0 194.5 -31.5t139.5 -85t84.5 -124t28.5 -148.5q0 -64 -16.5 -118.5t-46.5 -94t-72 -62t-93 -22.5
q-54 0 -85.5 18.5t-42.5 47.5q-18 -26 -55 -46t-91 -20q-44 0 -81.5 14.5t-65 42t-43 67.5t-15.5 91q0 49 15.5 91t45 73.5t70.5 49.5t92 18q59 0 93.5 -24t48.5 -51l12 68h114l-50 -287q-5 -30 5 -48t40 -18q22 0 44.5 13t40 39t28.5 66t11 93q0 67 -23 122.5t-68 95
t-110 61.5t-149 22q-83 0 -153.5 -27.5t-122 -77.5t-80.5 -120.5t-29 -157.5q0 -81 28 -149t79.5 -116.5t124 -75.5t162.5 -27q55 0 99 9t78 22t57.5 27.5t38.5 26.5h125zM524 464q-54 0 -86 -36t-32 -92q0 -48 26.5 -77.5t76.5 -29.5q54 0 86 36t32 92q0 48 -26 77.5
t-77 29.5z" />
    <glyph glyph-name="grave.uc" 
d="M292 773l-120 156h144l112 -156h-136z" />
    <glyph glyph-name="dieresis.uc" 
d="M126 922h127v-149h-127v149zM347 922h127v-149h-127v149z" />
    <glyph glyph-name="macron.uc" horiz-adv-x="500" 
d="M75 801v100h350v-100h-350z" />
    <glyph glyph-name="acute.uc" 
d="M284 929h144l-120 -156h-136z" />
    <glyph glyph-name="circumflex.uc" 
d="M260 854l-73 -83h-125l139 161h118l136 -161h-122z" />
    <glyph glyph-name="caron.uc" 
d="M316 771h-118l-136 161h122l73 -83l73 83h125z" />
    <glyph glyph-name="breve.uc" 
d="M300 860q32 0 46 19t14 44v11h101v-13q0 -32 -10 -60.5t-30 -49.5t-50 -33t-71 -12t-71 12t-50 33t-30 49.5t-10 60.5v13h101v-11q0 -24 14 -43.5t46 -19.5z" />
    <glyph glyph-name="dotaccent.uc" 
d="M234 925h132v-152h-132v152z" />
    <glyph glyph-name="ring.uc" 
d="M300 763q-30 0 -55 10.5t-43 28.5t-28 42t-10 52t10.5 52t28.5 42t43 28t54 10t54 -10t43.5 -28t29 -42t10.5 -52t-10.5 -52t-28.5 -42t-43 -28.5t-55 -10.5zM300 835q26 0 43 17.5t17 43.5t-16.5 43t-43.5 17t-43.5 -17t-16.5 -43t17 -43.5t43 -17.5z" />
    <glyph glyph-name="tilde.uc" 
d="M264 827q-11 5 -19.5 8.5t-15.5 3.5q-16 0 -16 -22v-48h-93v77q0 44 20.5 70t63.5 26q26 0 47 -10t47 -24l38 -19q11 -5 19 -9t15 -4q17 0 17 23v48h93v-77q0 -44 -21 -70t-63 -26q-27 0 -47.5 9.5t-46.5 23.5z" />
    <glyph glyph-name="hungarumlaut.uc" 
d="M377 929h124l-86 -156h-118zM176 929h125l-85 -156h-117z" />
    <glyph glyph-name="A.sc" horiz-adv-x="697" 
d="M486 105h-283l-45 -105h-128l251 576h134l252 -576h-136zM439 212l-94 219l-95 -219h189z" />
    <glyph glyph-name="B.sc" horiz-adv-x="699" 
d="M101 574h325q94 0 143.5 -41t49.5 -113q0 -23 -7 -42t-19 -33.5t-27 -25t-31 -15.5q39 -13 68.5 -47.5t29.5 -92.5q0 -75 -51 -119.5t-151 -44.5h-330v574zM229 471v-125h175q39 0 60.5 15.5t21.5 47.5q0 33 -21.5 47.5t-60.5 14.5h-175zM229 245v-142h181q46 0 68 18.5
t22 52.5q0 71 -90 71h-181z" />
    <glyph glyph-name="C.sc" horiz-adv-x="684" 
d="M357 -10q-64 0 -118 22.5t-93 62t-61 94t-22 118.5t22 118.5t61 94t93 62t118 22.5q69 0 118.5 -20.5t81.5 -50.5t49 -63t22 -58h-132q-5 10 -16 23t-28 25t-40.5 20t-54.5 8q-37 0 -67 -14.5t-51 -39t-32 -57.5t-11 -70t11 -70t32 -57.5t51 -38.5t67 -14q33 0 57.5 8.5
t41 20.5t26.5 25t15 22h131q-5 -22 -21 -55t-47.5 -63.5t-81 -52.5t-121.5 -22z" />
    <glyph glyph-name="D.sc" horiz-adv-x="714" 
d="M101 574h236q69 0 126.5 -18.5t99 -55t64.5 -90t23 -123.5q0 -69 -23 -122.5t-64.5 -90t-99 -55.5t-126.5 -19h-236v574zM231 462v-349h104q82 0 132 46t50 128q0 86 -50 130.5t-132 44.5h-104z" />
    <glyph glyph-name="E.sc" horiz-adv-x="656" 
d="M101 574h476v-106h-346v-113h206v-110h-206v-135h379v-110h-509v574z" />
    <glyph glyph-name="F.sc" horiz-adv-x="644" 
d="M101 574h501v-107h-371v-120h213v-110h-213v-237h-130v574z" />
    <glyph glyph-name="G.sc" horiz-adv-x="721" 
d="M639 71q-13 -11 -35.5 -25.5t-55 -27t-73.5 -21t-92 -8.5q-73 0 -132 21.5t-101 61t-64.5 95t-22.5 122.5q0 65 22 119.5t61.5 93.5t94.5 61t120 22q66 0 113 -17t78.5 -42t49 -53.5t23.5 -51.5h-135q-6 7 -16 16t-25.5 17t-37.5 13.5t-50 5.5q-39 0 -69.5 -14
t-52.5 -38.5t-33.5 -58t-11.5 -73.5q0 -41 13 -75.5t38 -59.5t60 -39t80 -14q50 0 82.5 9.5t47.5 19.5v102h-187v105h311v-266v0z" />
    <glyph glyph-name="H.sc" horiz-adv-x="751" 
d="M520 230h-289v-230h-130v574h130v-229h289v229h130v-574h-130v230z" />
    <glyph glyph-name="I.sc" horiz-adv-x="334" 
d="M102 574h130v-574h-130v574z" />
    <glyph glyph-name="J.sc" horiz-adv-x="606" 
d="M508 192q0 -94 -56.5 -148t-160.5 -54q-103 0 -156 54t-53 148v152h123v-143q0 -41 21.5 -67t64.5 -26t64.5 26t21.5 67v373h131v-382v0z" />
    <glyph glyph-name="K.sc" horiz-adv-x="697" 
d="M231 259v-259h-130v574h130v-251l272 251h170l-303 -278l316 -296h-175z" />
    <glyph glyph-name="L.sc" horiz-adv-x="617" 
d="M574 0h-473v574h130v-458h343v-116z" />
    <glyph glyph-name="M.sc" horiz-adv-x="881" 
d="M444 190l152 384h184v-574h-125v454l-175 -456h-87l-173 453v-451h-119v574h191z" />
    <glyph glyph-name="N.sc" horiz-adv-x="756" 
d="M655 -2h-105l-323 409v-407h-126v574h148l282 -363v363h124v-576z" />
    <glyph glyph-name="O.sc" horiz-adv-x="735" 
d="M367 -10q-65 0 -120.5 22t-96.5 61.5t-64 94t-23 119.5q0 66 23.5 121t64.5 94t96.5 60.5t119.5 21.5q65 0 120.5 -21.5t96.5 -60.5t64.5 -94t23.5 -121q0 -65 -23.5 -119.5t-64.5 -94t-96.5 -61.5t-120.5 -22zM367 106q39 0 71 14t54.5 39t35 57.5t12.5 70.5t-12.5 71
t-35 57.5t-54.5 38.5t-71 14t-70.5 -14t-54 -38.5t-35 -57.5t-12.5 -71t12.5 -71t35 -57.5t54 -38.5t70.5 -14z" />
    <glyph glyph-name="P.sc" horiz-adv-x="692" 
d="M101 574h330q98 0 152 -46t54 -137q0 -88 -54 -136t-152 -48h-200v-207h-130v574zM231 463v-145h186q43 0 64.5 19.5t21.5 53.5q0 72 -86 72h-186z" />
    <glyph glyph-name="Q.sc" horiz-adv-x="735" 
d="M672 287q0 -91 -43.5 -159t-115.5 -104l139 -147h-160l-113 114h-12q-65 0 -120.5 22t-96 61t-64 93.5t-23.5 119.5q0 66 23.5 121t64.5 94t96.5 60.5t119.5 21.5q65 0 120.5 -21.5t96.5 -60.5t64.5 -94t23.5 -121zM367 106q39 0 71 14t54.5 39t35 57.5t12.5 70.5
t-12.5 71t-35 57.5t-54.5 38.5t-71 14t-70.5 -14t-54 -38.5t-35 -57.5t-12.5 -71t12.5 -71t35 -57.5t54 -38.5t70.5 -14z" />
    <glyph glyph-name="R.sc" horiz-adv-x="704" 
d="M101 574h332q96 0 149.5 -44.5t53.5 -133.5q0 -60 -28.5 -100t-81.5 -59l131 -237h-137l-123 222h-166v-222h-130v574zM231 466v-137h185q87 0 87 67q0 70 -87 70h-185z" />
    <glyph glyph-name="S.sc" horiz-adv-x="651" 
d="M304 480q-51 0 -78.5 -15t-27.5 -44q0 -25 21.5 -39t60.5 -19q25 -3 45.5 -5t47.5 -4q48 -4 87 -15.5t67.5 -33t44 -54.5t15.5 -79q0 -82 -63 -132.5t-189 -50.5q-73 0 -124 16.5t-85 42.5t-52.5 58t-25.5 63h138q5 -12 16 -25.5t28.5 -24.5t43.5 -18t61 -7
q59 0 88.5 19.5t29.5 49.5q0 35 -24 49t-64 19q-26 3 -47 5t-47 4q-93 9 -149.5 52.5t-56.5 123.5q0 41 17.5 72.5t49 53t75.5 32.5t97 11q70 0 118 -15t79.5 -38.5t48.5 -52.5t23 -56h-131q-11 19 -43.5 38t-94.5 19z" />
    <glyph glyph-name="T.sc" horiz-adv-x="657" 
d="M43 574h571v-114h-221v-460h-129v460h-221v114z" />
    <glyph glyph-name="U.sc" horiz-adv-x="739" 
d="M371 109q68 0 105 41.5t37 109.5v314h129v-322q0 -55 -17.5 -103t-51.5 -83.5t-85 -56t-117 -20.5q-69 0 -120.5 20.5t-85.5 55.5t-51 83t-17 104v322h131v-314q0 -68 36.5 -109.5t106.5 -41.5z" />
    <glyph glyph-name="V.sc" horiz-adv-x="689" 
d="M415 -1h-132l-251 575h149l171 -414l170 414h135z" />
    <glyph glyph-name="W.sc" horiz-adv-x="963" 
d="M483 389l-135 -391h-116l-193 576h142l120 -383l128 385h118l128 -386l120 384h129l-188 -576h-118z" />
    <glyph glyph-name="X.sc" horiz-adv-x="711" 
d="M352 200l-172 -200h-152l248 290l-241 284h169l155 -186l159 186h156l-239 -277l248 -297h-162z" />
    <glyph glyph-name="Y.sc" horiz-adv-x="669" 
d="M408 0h-136v241l-256 333h166l162 -214l162 214h147l-245 -333v-241z" />
    <glyph glyph-name="Z.sc" horiz-adv-x="686" 
d="M636 0h-576v74l335 387h-327v113h531v-73l-339 -387h376v-114z" />
    <glyph glyph-name="Oslash.sc" horiz-adv-x="735" 
d="M672 287q0 -65 -23.5 -119.5t-64.5 -94t-97 -61.5t-120 -22q-90 0 -164 45l-32 -35h-129l88 97q-32 38 -49.5 85.5t-17.5 104.5q0 66 23 121t64 94t96.5 60.5t120.5 21.5q44 0 85.5 -11.5t77.5 -32.5l31 34h131l-88 -97q32 -38 50 -85.5t18 -104.5zM192 287q0 -59 21 -99
l239 265q-36 18 -85 18q-40 0 -72.5 -14t-55 -39t-35 -58.5t-12.5 -72.5zM542 287q0 57 -21 99l-241 -266q36 -18 87 -18q40 0 72.5 14.5t55 39t35 58.5t12.5 73z" />
    <glyph glyph-name="AE.sc" horiz-adv-x="979" 
d="M933 0h-492v123h-218l-77 -123h-141l362 574h534v-106h-332v-112h192v-110h-192v-134h364v-112zM441 228v245l-153 -245h153z" />
    <glyph glyph-name="OE.sc" horiz-adv-x="997" 
d="M64 287q0 69 23.5 122.5t65.5 90t99.5 55.5t126.5 19h540v-106h-332v-112h192v-110h-192v-134h364v-112h-572q-69 0 -126.5 19t-99.5 55.5t-65.5 90t-23.5 122.5zM458 112v350h-78q-83 0 -133.5 -46t-50.5 -129t50.5 -129t133.5 -46h78z" />
    <glyph glyph-name="Eth.sc" horiz-adv-x="731" 
d="M118 342v232h236q69 0 126.5 -18.5t99 -55t64.5 -90t23 -123.5q0 -69 -23 -122.5t-64.5 -90t-99 -55.5t-126.5 -19h-236v236h-89v106h89zM248 236v-125h105q40 0 73.5 12t57.5 34.5t37 55.5t13 74q0 87 -50 131.5t-131 44.5h-105v-121h152v-106h-152z" />
    <glyph glyph-name="Dcroat.sc" horiz-adv-x="731" 
d="M118 342v232h236q69 0 126.5 -18.5t99 -55t64.5 -90t23 -123.5q0 -69 -23 -122.5t-64.5 -90t-99 -55.5t-126.5 -19h-236v236h-89v106h89zM248 236v-125h105q40 0 73.5 12t57.5 34.5t37 55.5t13 74q0 87 -50 131.5t-131 44.5h-105v-121h152v-106h-152z" />
    <glyph glyph-name="Eng.sc" horiz-adv-x="756" 
d="M655 -27q0 -74 -34 -106.5t-102 -32.5h-137v98h86q64 0 64 50q0 16 -8.5 32t-26.5 40l-269 349v-403h-127v574h148l281 -371v371h125v-601v0z" />
    <glyph glyph-name="IJ.sc" horiz-adv-x="940" 
d="M102 574h130v-574h-130v574zM842 192q0 -94 -56.5 -148t-160.5 -54q-103 0 -156 54t-53 148v152h123v-143q0 -41 21.5 -67t64.5 -26t64.5 26t21.5 67v373h131v-382v0z" />
    <glyph glyph-name="dotlessj.sc" horiz-adv-x="606" 
d="M508 192q0 -94 -56.5 -148t-160.5 -54q-103 0 -156 54t-53 148v152h123v-143q0 -41 21.5 -67t64.5 -26t64.5 26t21.5 67v373h131v-382v0z" />
    <glyph glyph-name="Aacute.sc" horiz-adv-x="697" 
d="M486 105h-283l-45 -105h-128l251 576h134l252 -576h-136zM439 212l-94 219l-95 -219h189zM393 793h144l-120 -156h-136z" />
    <glyph glyph-name="Abreve.sc" horiz-adv-x="697" 
d="M486 105h-283l-45 -105h-128l251 576h134l252 -576h-136zM439 212l-94 219l-95 -219h189zM348 724q32 0 46 19t14 44v11h101v-13q0 -32 -10 -60.5t-30 -49.5t-50 -33t-71 -12t-71 12t-50 33t-30 49.5t-10 60.5v13h101v-11q0 -24 14 -43.5t46 -19.5z" />
    <glyph glyph-name="Acircumflex.sc" horiz-adv-x="697" 
d="M486 105h-283l-45 -105h-128l251 576h134l252 -576h-136zM439 212l-94 219l-95 -219h189zM348 718l-73 -83h-125l139 161h118l136 -161h-122z" />
    <glyph glyph-name="Adieresis.sc" horiz-adv-x="697" 
d="M486 105h-283l-45 -105h-128l251 576h134l252 -576h-136zM439 212l-94 219l-95 -219h189zM174 786h127v-149h-127v149zM395 786h127v-149h-127v149z" />
    <glyph glyph-name="Agrave.sc" horiz-adv-x="697" 
d="M486 105h-283l-45 -105h-128l251 576h134l252 -576h-136zM439 212l-94 219l-95 -219h189zM280 637l-120 156h144l112 -156h-136z" />
    <glyph glyph-name="Amacron.sc" horiz-adv-x="697" 
d="M486 105h-283l-45 -105h-128l251 576h134l252 -576h-136zM439 212l-94 219l-95 -219h189zM173 665v100h350v-100h-350z" />
    <glyph glyph-name="Aogonek.sc" horiz-adv-x="697" 
d="M486 105h-283l-45 -105h-128l251 576h134l252 -576q-42 -32 -65.5 -52t-23.5 -40q0 -25 31 -25h83v-96h-127q-58 0 -91.5 23t-33.5 70q0 39 26 66.5t63 53.5h2zM439 212l-94 219l-95 -219h189z" />
    <glyph glyph-name="Aring.sc" horiz-adv-x="697" 
d="M486 105h-283l-45 -105h-128l251 576h134l252 -576h-136zM439 212l-94 219l-95 -219h189zM348 627q-30 0 -55 10.5t-43 28.5t-28 42t-10 52t10.5 52t28.5 42t43 28t54 10t54 -10t43.5 -28t29 -42t10.5 -52t-10.5 -52t-28.5 -42t-43 -28.5t-55 -10.5zM348 699
q26 0 43 17.5t17 43.5t-16.5 43t-43.5 17t-43.5 -17t-16.5 -43t17 -43.5t43 -17.5z" />
    <glyph glyph-name="Atilde.sc" horiz-adv-x="699" 
d="M486 105h-283l-45 -105h-128l251 576h134l252 -576h-136zM439 212l-94 219l-95 -219h189zM313 691q-11 5 -19.5 8.5t-15.5 3.5q-16 0 -16 -22v-48h-93v77q0 44 20.5 70t63.5 26q26 0 47 -10t47 -24l38 -19q11 -5 19 -9t15 -4q17 0 17 23v48h93v-77q0 -44 -21 -70t-63 -26
q-27 0 -47.5 9.5t-46.5 23.5z" />
    <glyph glyph-name="AEacute.sc" horiz-adv-x="979" 
d="M933 0h-492v123h-218l-77 -123h-141l362 574h534v-106h-332v-112h192v-110h-192v-134h364v-112zM441 228v245l-153 -245h153zM673 793h144l-120 -156h-136z" />
    <glyph glyph-name="Cacute.sc" horiz-adv-x="684" 
d="M357 -10q-64 0 -118 22.5t-93 62t-61 94t-22 118.5t22 118.5t61 94t93 62t118 22.5q69 0 118.5 -20.5t81.5 -50.5t49 -63t22 -58h-132q-5 10 -16 23t-28 25t-40.5 20t-54.5 8q-37 0 -67 -14.5t-51 -39t-32 -57.5t-11 -70t11 -70t32 -57.5t51 -38.5t67 -14q33 0 57.5 8.5
t41 20.5t26.5 25t15 22h131q-5 -22 -21 -55t-47.5 -63.5t-81 -52.5t-121.5 -22zM402 793h144l-120 -156h-136z" />
    <glyph glyph-name="Ccaron.sc" horiz-adv-x="684" 
d="M357 -10q-64 0 -118 22.5t-93 62t-61 94t-22 118.5t22 118.5t61 94t93 62t118 22.5q69 0 118.5 -20.5t81.5 -50.5t49 -63t22 -58h-132q-5 10 -16 23t-28 25t-40.5 20t-54.5 8q-37 0 -67 -14.5t-51 -39t-32 -57.5t-11 -70t11 -70t32 -57.5t51 -38.5t67 -14q33 0 57.5 8.5
t41 20.5t26.5 25t15 22h131q-5 -22 -21 -55t-47.5 -63.5t-81 -52.5t-121.5 -22zM416 635h-118l-136 161h122l73 -83l73 83h125z" />
    <glyph glyph-name="Ccedilla.sc" horiz-adv-x="684" 
d="M357 -10q-64 0 -118 22.5t-93 62t-61 94t-22 118.5t22 118.5t61 94t93 62t118 22.5q69 0 118.5 -20.5t81.5 -50.5t49 -63t22 -58h-132q-5 10 -16 23t-28 25t-40.5 20t-54.5 8q-37 0 -67 -14.5t-51 -39t-32 -57.5t-11 -70t11 -70t32 -57.5t51 -38.5t67 -14q33 0 57.5 8.5
t41 20.5t26.5 25t15 22h131q-5 -22 -21 -55t-47.5 -63.5t-81 -52.5t-121.5 -22zM404 -156q0 14 -8.5 22t-27.5 8h-91v126h100v-49h9q64 0 94 -29.5t30 -80.5t-30 -84t-94 -33h-146v88h128q36 0 36 32z" />
    <glyph glyph-name="Ccircumflex.sc" horiz-adv-x="684" 
d="M357 -10q-64 0 -118 22.5t-93 62t-61 94t-22 118.5t22 118.5t61 94t93 62t118 22.5q69 0 118.5 -20.5t81.5 -50.5t49 -63t22 -58h-132q-5 10 -16 23t-28 25t-40.5 20t-54.5 8q-37 0 -67 -14.5t-51 -39t-32 -57.5t-11 -70t11 -70t32 -57.5t51 -38.5t67 -14q33 0 57.5 8.5
t41 20.5t26.5 25t15 22h131q-5 -22 -21 -55t-47.5 -63.5t-81 -52.5t-121.5 -22zM357 718l-73 -83h-125l139 161h118l136 -161h-122z" />
    <glyph glyph-name="Cdotaccent.sc" horiz-adv-x="684" 
d="M357 -10q-64 0 -118 22.5t-93 62t-61 94t-22 118.5t22 118.5t61 94t93 62t118 22.5q69 0 118.5 -20.5t81.5 -50.5t49 -63t22 -58h-132q-5 10 -16 23t-28 25t-40.5 20t-54.5 8q-37 0 -67 -14.5t-51 -39t-32 -57.5t-11 -70t11 -70t32 -57.5t51 -38.5t67 -14q33 0 57.5 8.5
t41 20.5t26.5 25t15 22h131q-5 -22 -21 -55t-47.5 -63.5t-81 -52.5t-121.5 -22zM291 789h132v-152h-132v152z" />
    <glyph glyph-name="Dcaron.sc" horiz-adv-x="714" 
d="M101 574h236q69 0 126.5 -18.5t99 -55t64.5 -90t23 -123.5q0 -69 -23 -122.5t-64.5 -90t-99 -55.5t-126.5 -19h-236v574zM231 462v-349h104q82 0 132 46t50 128q0 86 -50 130.5t-132 44.5h-104zM391 635h-118l-136 161h122l73 -83l73 83h125z" />
    <glyph glyph-name="Eacute.sc" horiz-adv-x="656" 
d="M101 574h476v-106h-346v-113h206v-110h-206v-135h379v-110h-509v574zM384 793h144l-120 -156h-136z" />
    <glyph glyph-name="Ebreve.sc" horiz-adv-x="656" 
d="M101 574h476v-106h-346v-113h206v-110h-206v-135h379v-110h-509v574zM339 724q32 0 46 19t14 44v11h101v-13q0 -32 -10 -60.5t-30 -49.5t-50 -33t-71 -12t-71 12t-50 33t-30 49.5t-10 60.5v13h101v-11q0 -24 14 -43.5t46 -19.5z" />
    <glyph glyph-name="Ecaron.sc" horiz-adv-x="656" 
d="M101 574h476v-106h-346v-113h206v-110h-206v-135h379v-110h-509v574zM398 635h-118l-136 161h122l73 -83l73 83h125z" />
    <glyph glyph-name="Ecircumflex.sc" horiz-adv-x="656" 
d="M101 574h476v-106h-346v-113h206v-110h-206v-135h379v-110h-509v574zM339 718l-73 -83h-125l139 161h118l136 -161h-122z" />
    <glyph glyph-name="Edieresis.sc" horiz-adv-x="656" 
d="M101 574h476v-106h-346v-113h206v-110h-206v-135h379v-110h-509v574zM165 786h127v-149h-127v149zM386 786h127v-149h-127v149z" />
    <glyph glyph-name="Edotaccent.sc" horiz-adv-x="656" 
d="M101 574h476v-106h-346v-113h206v-110h-206v-135h379v-110h-509v574zM274 789h132v-152h-132v152z" />
    <glyph glyph-name="Egrave.sc" horiz-adv-x="656" 
d="M101 574h476v-106h-346v-113h206v-110h-206v-135h379v-110h-509v574zM283 637l-120 156h144l112 -156h-136z" />
    <glyph glyph-name="Emacron.sc" horiz-adv-x="656" 
d="M101 574h476v-106h-346v-113h206v-110h-206v-135h379v-110h-509v574zM164 665v100h350v-100h-350z" />
    <glyph glyph-name="Eogonek.sc" horiz-adv-x="656" 
d="M101 574h476v-106h-346v-113h206v-110h-206v-135h379v-110h-509v574zM557 -213h-126q-58 0 -91.5 23t-33.5 69q0 20 8 36t21.5 30.5t31 27.5t37.5 27h128q-42 -32 -65.5 -52t-23.5 -40q0 -25 32 -25h82v-96z" />
    <glyph glyph-name="Gbreve.sc" horiz-adv-x="721" 
d="M639 71q-13 -11 -35.5 -25.5t-55 -27t-73.5 -21t-92 -8.5q-73 0 -132 21.5t-101 61t-64.5 95t-22.5 122.5q0 65 22 119.5t61.5 93.5t94.5 61t120 22q66 0 113 -17t78.5 -42t49 -53.5t23.5 -51.5h-135q-6 7 -16 16t-25.5 17t-37.5 13.5t-50 5.5q-39 0 -69.5 -14
t-52.5 -38.5t-33.5 -58t-11.5 -73.5q0 -41 13 -75.5t38 -59.5t60 -39t80 -14q50 0 82.5 9.5t47.5 19.5v102h-187v105h311v-266v0zM361 724q32 0 46 19t14 44v11h101v-13q0 -32 -10 -60.5t-30 -49.5t-50 -33t-71 -12t-71 12t-50 33t-30 49.5t-10 60.5v13h101v-11
q0 -24 14 -43.5t46 -19.5z" />
    <glyph glyph-name="Gcircumflex.sc" horiz-adv-x="721" 
d="M639 71q-13 -11 -35.5 -25.5t-55 -27t-73.5 -21t-92 -8.5q-73 0 -132 21.5t-101 61t-64.5 95t-22.5 122.5q0 65 22 119.5t61.5 93.5t94.5 61t120 22q66 0 113 -17t78.5 -42t49 -53.5t23.5 -51.5h-135q-6 7 -16 16t-25.5 17t-37.5 13.5t-50 5.5q-39 0 -69.5 -14
t-52.5 -38.5t-33.5 -58t-11.5 -73.5q0 -41 13 -75.5t38 -59.5t60 -39t80 -14q50 0 82.5 9.5t47.5 19.5v102h-187v105h311v-266v0zM361 718l-73 -83h-125l139 161h118l136 -161h-122z" />
    <glyph glyph-name="Gcommaaccent.sc" horiz-adv-x="721" 
d="M639 71q-13 -11 -35.5 -25.5t-55 -27t-73.5 -21t-92 -8.5q-73 0 -132 21.5t-101 61t-64.5 95t-22.5 122.5q0 65 22 119.5t61.5 93.5t94.5 61t120 22q66 0 113 -17t78.5 -42t49 -53.5t23.5 -51.5h-135q-6 7 -16 16t-25.5 17t-37.5 13.5t-50 5.5q-39 0 -69.5 -14
t-52.5 -38.5t-33.5 -58t-11.5 -73.5q0 -41 13 -75.5t38 -59.5t60 -39t80 -14q50 0 82.5 9.5t47.5 19.5v102h-187v105h311v-266v0zM340 -322q16 29 27 61t13 53h-66v127h145v-101q0 -46 -10 -79.5t-22 -60.5h-87z" />
    <glyph glyph-name="Gdotaccent.sc" horiz-adv-x="721" 
d="M639 71q-13 -11 -35.5 -25.5t-55 -27t-73.5 -21t-92 -8.5q-73 0 -132 21.5t-101 61t-64.5 95t-22.5 122.5q0 65 22 119.5t61.5 93.5t94.5 61t120 22q66 0 113 -17t78.5 -42t49 -53.5t23.5 -51.5h-135q-6 7 -16 16t-25.5 17t-37.5 13.5t-50 5.5q-39 0 -69.5 -14
t-52.5 -38.5t-33.5 -58t-11.5 -73.5q0 -41 13 -75.5t38 -59.5t60 -39t80 -14q50 0 82.5 9.5t47.5 19.5v102h-187v105h311v-266v0zM295 789h132v-152h-132v152z" />
    <glyph glyph-name="Hbar.sc" horiz-adv-x="751" 
d="M520 230h-289v-230h-130v417h-69v84h69v73h130v-73h289v73h130v-73h69v-84h-69v-417h-130v230zM520 345v72h-289v-72h289z" />
    <glyph glyph-name="Hcircumflex.sc" horiz-adv-x="751" 
d="M520 230h-289v-230h-130v574h130v-229h289v229h130v-574h-130v230zM375 718l-73 -83h-125l139 161h118l136 -161h-122z" />
    <glyph glyph-name="Iacute.sc" horiz-adv-x="334" 
d="M102 574h130v-574h-130v574zM212 793h144l-120 -156h-136z" />
    <glyph glyph-name="Ibreve.sc" horiz-adv-x="334" 
d="M102 574h130v-574h-130v574zM167 724q32 0 46 19t14 44v11h101v-13q0 -32 -10 -60.5t-30 -49.5t-50 -33t-71 -12t-71 12t-50 33t-30 49.5t-10 60.5v13h101v-11q0 -24 14 -43.5t46 -19.5z" />
    <glyph glyph-name="Icircumflex.sc" horiz-adv-x="334" 
d="M102 574h130v-574h-130v574zM167 718l-73 -83h-125l139 161h118l136 -161h-122z" />
    <glyph glyph-name="Idieresis.sc" horiz-adv-x="334" 
d="M102 574h130v-574h-130v574zM-7 786h127v-149h-127v149zM214 786h127v-149h-127v149z" />
    <glyph glyph-name="Idotaccent.sc" horiz-adv-x="334" 
d="M102 574h130v-574h-130v574zM101 789h132v-152h-132v152z" />
    <glyph glyph-name="Igrave.sc" horiz-adv-x="334" 
d="M102 574h130v-574h-130v574zM99 637l-120 156h144l112 -156h-136z" />
    <glyph glyph-name="Imacron.sc" horiz-adv-x="334" 
d="M102 574h130v-574h-130v574zM-8 665v100h350v-100h-350z" />
    <glyph glyph-name="Iogonek.sc" horiz-adv-x="334" 
d="M102 574h130v-574q-42 -32 -65.5 -52t-23.5 -40q0 -25 32 -25h82v-96h-126q-58 0 -91.5 23t-33.5 69q0 20 7.5 36t21 30.5t30.5 27.5t37 27v574z" />
    <glyph glyph-name="Itilde.sc" horiz-adv-x="334" 
d="M102 574h130v-574h-130v574zM131 691q-11 5 -19.5 8.5t-15.5 3.5q-16 0 -16 -22v-48h-93v77q0 44 20.5 70t63.5 26q26 0 47 -10t47 -24l38 -19q11 -5 19 -9t15 -4q17 0 17 23v48h93v-77q0 -44 -21 -70t-63 -26q-27 0 -47.5 9.5t-46.5 23.5z" />
    <glyph glyph-name="Jcircumflex.sc" horiz-adv-x="606" 
d="M508 192q0 -94 -56.5 -148t-160.5 -54q-103 0 -156 54t-53 148v152h123v-143q0 -41 21.5 -67t64.5 -26t64.5 26t21.5 67v373h131v-382v0zM440 718l-73 -83h-125l139 161h118l136 -161h-122z" />
    <glyph glyph-name="Kcommaaccent.sc" horiz-adv-x="691" 
d="M231 259v-259h-130v574h130v-251l272 251h170l-303 -278l316 -296h-175zM312 -322q16 29 27 61t13 53h-66v127h145v-101q0 -46 -10 -79.5t-22 -60.5h-87z" />
    <glyph glyph-name="Lacute.sc" horiz-adv-x="617" 
d="M574 0h-473v574h130v-458h343v-116zM212 793h144l-120 -156h-136z" />
    <glyph glyph-name="Lcaron.sc" horiz-adv-x="617" 
d="M574 0h-473v574h130v-458h343v-116zM350 622h115l-61 -194h-107z" />
    <glyph glyph-name="Lcommaaccent.sc" horiz-adv-x="617" 
d="M574 0h-473v574h130v-458h343v-116zM295 -322q16 29 27 61t13 53h-66v127h145v-101q0 -46 -10 -79.5t-22 -60.5h-87z" />
    <glyph glyph-name="Ldot.sc" horiz-adv-x="617" 
d="M574 0h-473v574h130v-458h343v-116zM399 429h153v-170h-153v170z" />
    <glyph glyph-name="Lslash.sc" horiz-adv-x="623" 
d="M580 0h-473v171l-81 -37v105l81 37v298h130v-238l204 95v-108l-204 -93v-114h343v-116z" />
    <glyph glyph-name="Nacute.sc" horiz-adv-x="756" 
d="M655 -2h-105l-323 409v-407h-126v574h148l282 -363v363h124v-576zM425 793h144l-120 -156h-136z" />
    <glyph glyph-name="Ncaron.sc" horiz-adv-x="756" 
d="M655 -2h-105l-323 409v-407h-126v574h148l282 -363v363h124v-576zM438 635h-118l-136 161h122l73 -83l73 83h125z" />
    <glyph glyph-name="Ncommaaccent.sc" horiz-adv-x="756" 
d="M655 -2h-105l-323 409v-407h-126v574h148l282 -363v363h124v-576zM338 -322q16 29 27 61t13 53h-66v127h145v-101q0 -46 -10 -79.5t-22 -60.5h-87z" />
    <glyph glyph-name="Ntilde.sc" horiz-adv-x="756" 
d="M655 -2h-105l-323 409v-407h-126v574h148l282 -363v363h124v-576zM344 691q-11 5 -19.5 8.5t-15.5 3.5q-16 0 -16 -22v-48h-93v77q0 44 20.5 70t63.5 26q26 0 47 -10t47 -24l38 -19q11 -5 19 -9t15 -4q17 0 17 23v48h93v-77q0 -44 -21 -70t-63 -26q-27 0 -47.5 9.5
t-46.5 23.5z" />
    <glyph glyph-name="Oacute.sc" horiz-adv-x="735" 
d="M367 -10q-65 0 -120.5 22t-96.5 61.5t-64 94t-23 119.5q0 66 23.5 121t64.5 94t96.5 60.5t119.5 21.5q65 0 120.5 -21.5t96.5 -60.5t64.5 -94t23.5 -121q0 -65 -23.5 -119.5t-64.5 -94t-96.5 -61.5t-120.5 -22zM367 106q39 0 71 14t54.5 39t35 57.5t12.5 70.5t-12.5 71
t-35 57.5t-54.5 38.5t-71 14t-70.5 -14t-54 -38.5t-35 -57.5t-12.5 -71t12.5 -71t35 -57.5t54 -38.5t70.5 -14zM412 793h144l-120 -156h-136z" />
    <glyph glyph-name="Obreve.sc" horiz-adv-x="735" 
d="M367 -10q-65 0 -120.5 22t-96.5 61.5t-64 94t-23 119.5q0 66 23.5 121t64.5 94t96.5 60.5t119.5 21.5q65 0 120.5 -21.5t96.5 -60.5t64.5 -94t23.5 -121q0 -65 -23.5 -119.5t-64.5 -94t-96.5 -61.5t-120.5 -22zM367 106q39 0 71 14t54.5 39t35 57.5t12.5 70.5t-12.5 71
t-35 57.5t-54.5 38.5t-71 14t-70.5 -14t-54 -38.5t-35 -57.5t-12.5 -71t12.5 -71t35 -57.5t54 -38.5t70.5 -14zM367 724q32 0 46 19t14 44v11h101v-13q0 -32 -10 -60.5t-30 -49.5t-50 -33t-71 -12t-71 12t-50 33t-30 49.5t-10 60.5v13h101v-11q0 -24 14 -43.5t46 -19.5z" />
    <glyph glyph-name="Ocircumflex.sc" horiz-adv-x="735" 
d="M367 -10q-65 0 -120.5 22t-96.5 61.5t-64 94t-23 119.5q0 66 23.5 121t64.5 94t96.5 60.5t119.5 21.5q65 0 120.5 -21.5t96.5 -60.5t64.5 -94t23.5 -121q0 -65 -23.5 -119.5t-64.5 -94t-96.5 -61.5t-120.5 -22zM367 106q39 0 71 14t54.5 39t35 57.5t12.5 70.5t-12.5 71
t-35 57.5t-54.5 38.5t-71 14t-70.5 -14t-54 -38.5t-35 -57.5t-12.5 -71t12.5 -71t35 -57.5t54 -38.5t70.5 -14zM367 718l-73 -83h-125l139 161h118l136 -161h-122z" />
    <glyph glyph-name="Odieresis.sc" horiz-adv-x="735" 
d="M367 -10q-65 0 -120.5 22t-96.5 61.5t-64 94t-23 119.5q0 66 23.5 121t64.5 94t96.5 60.5t119.5 21.5q65 0 120.5 -21.5t96.5 -60.5t64.5 -94t23.5 -121q0 -65 -23.5 -119.5t-64.5 -94t-96.5 -61.5t-120.5 -22zM367 106q39 0 71 14t54.5 39t35 57.5t12.5 70.5t-12.5 71
t-35 57.5t-54.5 38.5t-71 14t-70.5 -14t-54 -38.5t-35 -57.5t-12.5 -71t12.5 -71t35 -57.5t54 -38.5t70.5 -14zM193 786h127v-149h-127v149zM414 786h127v-149h-127v149z" />
    <glyph glyph-name="Ograve.sc" horiz-adv-x="735" 
d="M367 -10q-65 0 -120.5 22t-96.5 61.5t-64 94t-23 119.5q0 66 23.5 121t64.5 94t96.5 60.5t119.5 21.5q65 0 120.5 -21.5t96.5 -60.5t64.5 -94t23.5 -121q0 -65 -23.5 -119.5t-64.5 -94t-96.5 -61.5t-120.5 -22zM367 106q39 0 71 14t54.5 39t35 57.5t12.5 70.5t-12.5 71
t-35 57.5t-54.5 38.5t-71 14t-70.5 -14t-54 -38.5t-35 -57.5t-12.5 -71t12.5 -71t35 -57.5t54 -38.5t70.5 -14zM299 637l-120 156h144l112 -156h-136z" />
    <glyph glyph-name="Ohungarumlaut.sc" horiz-adv-x="735" 
d="M367 -10q-65 0 -120.5 22t-96.5 61.5t-64 94t-23 119.5q0 66 23.5 121t64.5 94t96.5 60.5t119.5 21.5q65 0 120.5 -21.5t96.5 -60.5t64.5 -94t23.5 -121q0 -65 -23.5 -119.5t-64.5 -94t-96.5 -61.5t-120.5 -22zM367 106q39 0 71 14t54.5 39t35 57.5t12.5 70.5t-12.5 71
t-35 57.5t-54.5 38.5t-71 14t-70.5 -14t-54 -38.5t-35 -57.5t-12.5 -71t12.5 -71t35 -57.5t54 -38.5t70.5 -14zM484 793h124l-86 -156h-118zM283 793h125l-85 -156h-117z" />
    <glyph glyph-name="Omacron.sc" horiz-adv-x="735" 
d="M367 -10q-65 0 -120.5 22t-96.5 61.5t-64 94t-23 119.5q0 66 23.5 121t64.5 94t96.5 60.5t119.5 21.5q65 0 120.5 -21.5t96.5 -60.5t64.5 -94t23.5 -121q0 -65 -23.5 -119.5t-64.5 -94t-96.5 -61.5t-120.5 -22zM367 106q39 0 71 14t54.5 39t35 57.5t12.5 70.5t-12.5 71
t-35 57.5t-54.5 38.5t-71 14t-70.5 -14t-54 -38.5t-35 -57.5t-12.5 -71t12.5 -71t35 -57.5t54 -38.5t70.5 -14zM192 665v100h350v-100h-350z" />
    <glyph glyph-name="Otilde.sc" horiz-adv-x="735" 
d="M367 -10q-65 0 -120.5 22t-96.5 61.5t-64 94t-23 119.5q0 66 23.5 121t64.5 94t96.5 60.5t119.5 21.5q65 0 120.5 -21.5t96.5 -60.5t64.5 -94t23.5 -121q0 -65 -23.5 -119.5t-64.5 -94t-96.5 -61.5t-120.5 -22zM367 106q39 0 71 14t54.5 39t35 57.5t12.5 70.5t-12.5 71
t-35 57.5t-54.5 38.5t-71 14t-70.5 -14t-54 -38.5t-35 -57.5t-12.5 -71t12.5 -71t35 -57.5t54 -38.5t70.5 -14zM331 691q-11 5 -19.5 8.5t-15.5 3.5q-16 0 -16 -22v-48h-93v77q0 44 20.5 70t63.5 26q26 0 47 -10t47 -24l38 -19q11 -5 19 -9t15 -4q17 0 17 23v48h93v-77
q0 -44 -21 -70t-63 -26q-27 0 -47.5 9.5t-46.5 23.5z" />
    <glyph glyph-name="Oslashacute.sc" horiz-adv-x="735" 
d="M672 287q0 -65 -23.5 -119.5t-64.5 -94t-97 -61.5t-120 -22q-90 0 -164 45l-32 -35h-129l88 97q-32 38 -49.5 85.5t-17.5 104.5q0 66 23 121t64 94t96.5 60.5t120.5 21.5q44 0 85.5 -11.5t77.5 -32.5l31 34h131l-88 -97q32 -38 50 -85.5t18 -104.5zM192 287q0 -59 21 -99
l239 265q-36 18 -85 18q-40 0 -72.5 -14t-55 -39t-35 -58.5t-12.5 -72.5zM542 287q0 57 -21 99l-241 -266q36 -18 87 -18q40 0 72.5 14.5t55 39t35 58.5t12.5 73zM412 793h144l-120 -156h-136z" />
    <glyph glyph-name="Racute.sc" horiz-adv-x="704" 
d="M101 574h332q96 0 149.5 -44.5t53.5 -133.5q0 -60 -28.5 -100t-81.5 -59l131 -237h-137l-123 222h-166v-222h-130v574zM231 466v-137h185q87 0 87 67q0 70 -87 70h-185zM387 793h144l-120 -156h-136z" />
    <glyph glyph-name="Rcaron.sc" horiz-adv-x="704" 
d="M101 574h332q96 0 149.5 -44.5t53.5 -133.5q0 -60 -28.5 -100t-81.5 -59l131 -237h-137l-123 222h-166v-222h-130v574zM231 466v-137h185q87 0 87 67q0 70 -87 70h-185zM401 635h-118l-136 161h122l73 -83l73 83h125z" />
    <glyph glyph-name="Rcommaaccent.sc" horiz-adv-x="704" 
d="M101 574h332q96 0 149.5 -44.5t53.5 -133.5q0 -60 -28.5 -100t-81.5 -59l131 -237h-137l-123 222h-166v-222h-130v574zM231 466v-137h185q87 0 87 67q0 70 -87 70h-185zM320 -322q16 29 27 61t13 53h-66v127h145v-101q0 -46 -10 -79.5t-22 -60.5h-87z" />
    <glyph glyph-name="Sacute.sc" horiz-adv-x="651" 
d="M304 480q-51 0 -78.5 -15t-27.5 -44q0 -25 21.5 -39t60.5 -19q25 -3 45.5 -5t47.5 -4q48 -4 87 -15.5t67.5 -33t44 -54.5t15.5 -79q0 -82 -63 -132.5t-189 -50.5q-73 0 -124 16.5t-85 42.5t-52.5 58t-25.5 63h138q5 -12 16 -25.5t28.5 -24.5t43.5 -18t61 -7
q59 0 88.5 19.5t29.5 49.5q0 35 -24 49t-64 19q-26 3 -47 5t-47 4q-93 9 -149.5 52.5t-56.5 123.5q0 41 17.5 72.5t49 53t75.5 32.5t97 11q70 0 118 -15t79.5 -38.5t48.5 -52.5t23 -56h-131q-11 19 -43.5 38t-94.5 19zM363 793h144l-120 -156h-136z" />
    <glyph glyph-name="Scaron.sc" horiz-adv-x="651" 
d="M304 480q-51 0 -78.5 -15t-27.5 -44q0 -25 21.5 -39t60.5 -19q25 -3 45.5 -5t47.5 -4q48 -4 87 -15.5t67.5 -33t44 -54.5t15.5 -79q0 -82 -63 -132.5t-189 -50.5q-73 0 -124 16.5t-85 42.5t-52.5 58t-25.5 63h138q5 -12 16 -25.5t28.5 -24.5t43.5 -18t61 -7
q59 0 88.5 19.5t29.5 49.5q0 35 -24 49t-64 19q-26 3 -47 5t-47 4q-93 9 -149.5 52.5t-56.5 123.5q0 41 17.5 72.5t49 53t75.5 32.5t97 11q70 0 118 -15t79.5 -38.5t48.5 -52.5t23 -56h-131q-11 19 -43.5 38t-94.5 19zM377 635h-118l-136 161h122l73 -83l73 83h125z" />
    <glyph glyph-name="Scedilla.sc" horiz-adv-x="651" 
d="M304 480q-51 0 -78.5 -15t-27.5 -44q0 -25 21.5 -39t60.5 -19q25 -3 45.5 -5t47.5 -4q48 -4 87 -15.5t67.5 -33t44 -54.5t15.5 -79q0 -82 -63 -133q-62 -49 -184 -50v-38h10q64 0 94 -29.5t30 -80.5t-30 -84t-95 -33h-146v88h129q36 0 36 32q0 14 -9 22t-27 8h-91v124
q-16 3 -30 7q-51 17 -85 43t-52.5 58t-25.5 63h138q5 -12 16 -25.5t28.5 -24.5t43.5 -18t61 -7q59 0 88.5 19.5t29.5 49.5q0 35 -24 49t-64 19q-26 3 -47 5t-47 4q-93 9 -149.5 52.5t-56.5 123.5q0 41 17.5 72.5t49 53t75.5 32.5t97 11q70 0 118 -15t79.5 -38.5t48.5 -52.5
t23 -56h-131q-11 19 -43.5 38t-94.5 19z" />
    <glyph glyph-name="Scircumflex.sc" horiz-adv-x="651" 
d="M304 480q-51 0 -78.5 -15t-27.5 -44q0 -25 21.5 -39t60.5 -19q25 -3 45.5 -5t47.5 -4q48 -4 87 -15.5t67.5 -33t44 -54.5t15.5 -79q0 -82 -63 -132.5t-189 -50.5q-73 0 -124 16.5t-85 42.5t-52.5 58t-25.5 63h138q5 -12 16 -25.5t28.5 -24.5t43.5 -18t61 -7
q59 0 88.5 19.5t29.5 49.5q0 35 -24 49t-64 19q-26 3 -47 5t-47 4q-93 9 -149.5 52.5t-56.5 123.5q0 41 17.5 72.5t49 53t75.5 32.5t97 11q70 0 118 -15t79.5 -38.5t48.5 -52.5t23 -56h-131q-11 19 -43.5 38t-94.5 19zM318 718l-73 -83h-125l139 161h118l136 -161h-122z" />
    <glyph glyph-name="Scommaaccent.sc" horiz-adv-x="651" 
d="M304 480q-51 0 -78.5 -15t-27.5 -44q0 -25 21.5 -39t60.5 -19q25 -3 45.5 -5t47.5 -4q48 -4 87 -15.5t67.5 -33t44 -54.5t15.5 -79q0 -82 -63 -132.5t-189 -50.5q-73 0 -124 16.5t-85 42.5t-52.5 58t-25.5 63h138q5 -12 16 -25.5t28.5 -24.5t43.5 -18t61 -7
q59 0 88.5 19.5t29.5 49.5q0 35 -24 49t-64 19q-26 3 -47 5t-47 4q-93 9 -149.5 52.5t-56.5 123.5q0 41 17.5 72.5t49 53t75.5 32.5t97 11q70 0 118 -15t79.5 -38.5t48.5 -52.5t23 -56h-131q-11 19 -43.5 38t-94.5 19zM291 -322q16 29 27 61t13 53h-66v127h145v-101
q0 -46 -10 -79.5t-22 -60.5h-87z" />
    <glyph glyph-name="Tcaron.sc" horiz-adv-x="657" 
d="M43 574h571v-114h-221v-460h-129v460h-221v114zM388 635h-118l-136 161h122l73 -83l73 83h125z" />
    <glyph glyph-name="Tcommaaccent.sc" horiz-adv-x="657" 
d="M43 574h571v-114h-221v-460h-129v460h-221v114zM282 -322q16 29 27 61t13 53h-66v127h145v-101q0 -46 -10 -79.5t-22 -60.5h-87z" />
    <glyph glyph-name="uni021A.sc" horiz-adv-x="657" 
d="M43 574h571v-114h-221v-460h-129v460h-221v114zM282 -322q16 29 27 61t13 53h-66v127h145v-101q0 -46 -10 -79.5t-22 -60.5h-87z" />
    <glyph glyph-name="Tbar.sc" horiz-adv-x="657" 
d="M116 336h148v124h-221v114h571v-114h-221v-124h148v-100h-148v-236h-129v236h-148v100z" />
    <glyph glyph-name="Thorn.sc" horiz-adv-x="692" 
d="M231 115v-115h-130v574h130v-103h207q95 0 147 -44.5t52 -132.5q0 -85 -52 -132t-148 -47h-206zM231 360v-133h192q41 0 60.5 18t19.5 49q0 66 -80 66h-192z" />
    <glyph glyph-name="Uacute.sc" horiz-adv-x="739" 
d="M371 109q68 0 105 41.5t37 109.5v314h129v-322q0 -55 -17.5 -103t-51.5 -83.5t-85 -56t-117 -20.5q-69 0 -120.5 20.5t-85.5 55.5t-51 83t-17 104v322h131v-314q0 -68 36.5 -109.5t106.5 -41.5zM405 793h144l-120 -156h-136z" />
    <glyph glyph-name="Ubreve.sc" horiz-adv-x="739" 
d="M371 109q68 0 105 41.5t37 109.5v314h129v-322q0 -55 -17.5 -103t-51.5 -83.5t-85 -56t-117 -20.5q-69 0 -120.5 20.5t-85.5 55.5t-51 83t-17 104v322h131v-314q0 -68 36.5 -109.5t106.5 -41.5zM370 724q32 0 46 19t14 44v11h101v-13q0 -32 -10 -60.5t-30 -49.5t-50 -33
t-71 -12t-71 12t-50 33t-30 49.5t-10 60.5v13h101v-11q0 -24 14 -43.5t46 -19.5z" />
    <glyph glyph-name="Ucircumflex.sc" horiz-adv-x="739" 
d="M371 109q68 0 105 41.5t37 109.5v314h129v-322q0 -55 -17.5 -103t-51.5 -83.5t-85 -56t-117 -20.5q-69 0 -120.5 20.5t-85.5 55.5t-51 83t-17 104v322h131v-314q0 -68 36.5 -109.5t106.5 -41.5zM370 718l-73 -83h-125l139 161h118l136 -161h-122z" />
    <glyph glyph-name="Udieresis.sc" horiz-adv-x="739" 
d="M371 109q68 0 105 41.5t37 109.5v314h129v-322q0 -55 -17.5 -103t-51.5 -83.5t-85 -56t-117 -20.5q-69 0 -120.5 20.5t-85.5 55.5t-51 83t-17 104v322h131v-314q0 -68 36.5 -109.5t106.5 -41.5zM196 786h127v-149h-127v149zM417 786h127v-149h-127v149z" />
    <glyph glyph-name="Ugrave.sc" horiz-adv-x="739" 
d="M371 109q68 0 105 41.5t37 109.5v314h129v-322q0 -55 -17.5 -103t-51.5 -83.5t-85 -56t-117 -20.5q-69 0 -120.5 20.5t-85.5 55.5t-51 83t-17 104v322h131v-314q0 -68 36.5 -109.5t106.5 -41.5zM311 637l-120 156h144l112 -156h-136z" />
    <glyph glyph-name="Uhungarumlaut.sc" horiz-adv-x="739" 
d="M371 109q68 0 105 41.5t37 109.5v314h129v-322q0 -55 -17.5 -103t-51.5 -83.5t-85 -56t-117 -20.5q-69 0 -120.5 20.5t-85.5 55.5t-51 83t-17 104v322h131v-314q0 -68 36.5 -109.5t106.5 -41.5zM487 793h124l-86 -156h-118zM286 793h125l-85 -156h-117z" />
    <glyph glyph-name="Umacron.sc" horiz-adv-x="739" 
d="M371 109q68 0 105 41.5t37 109.5v314h129v-322q0 -55 -17.5 -103t-51.5 -83.5t-85 -56t-117 -20.5q-69 0 -120.5 20.5t-85.5 55.5t-51 83t-17 104v322h131v-314q0 -68 36.5 -109.5t106.5 -41.5zM195 665v100h350v-100h-350z" />
    <glyph glyph-name="Uogonek.sc" horiz-adv-x="739" 
d="M548 -213h-126q-58 0 -92 22t-34 67q0 36 26.5 62.5t67.5 50.5h-19q-69 0 -120.5 20.5t-85.5 55.5t-51 83t-17 104v322h131v-314q0 -68 36.5 -109.5t106.5 -41.5q68 0 105 41.5t37 109.5v314h129v-322q0 -80 -31.5 -135.5t-84.5 -100.5q-25 -21 -42.5 -36.5t-28.5 -27.5
t-16 -22t-5 -20q0 -27 34 -27h80v-96z" />
    <glyph glyph-name="Uring.sc" horiz-adv-x="739" 
d="M371 109q68 0 105 41.5t37 109.5v314h129v-322q0 -55 -17.5 -103t-51.5 -83.5t-85 -56t-117 -20.5q-69 0 -120.5 20.5t-85.5 55.5t-51 83t-17 104v322h131v-314q0 -68 36.5 -109.5t106.5 -41.5zM370 627q-30 0 -55 10.5t-43 28.5t-28 42t-10 52t10.5 52t28.5 42t43 28
t54 10t54 -10t43.5 -28t29 -42t10.5 -52t-10.5 -52t-28.5 -42t-43 -28.5t-55 -10.5zM370 699q26 0 43 17.5t17 43.5t-16.5 43t-43.5 17t-43.5 -17t-16.5 -43t17 -43.5t43 -17.5z" />
    <glyph glyph-name="Utilde.sc" horiz-adv-x="739" 
d="M371 109q68 0 105 41.5t37 109.5v314h129v-322q0 -55 -17.5 -103t-51.5 -83.5t-85 -56t-117 -20.5q-69 0 -120.5 20.5t-85.5 55.5t-51 83t-17 104v322h131v-314q0 -68 36.5 -109.5t106.5 -41.5zM334 691q-11 5 -19.5 8.5t-15.5 3.5q-16 0 -16 -22v-48h-93v77
q0 44 20.5 70t63.5 26q26 0 47 -10t47 -24l38 -19q11 -5 19 -9t15 -4q17 0 17 23v48h93v-77q0 -44 -21 -70t-63 -26q-27 0 -47.5 9.5t-46.5 23.5z" />
    <glyph glyph-name="Wacute.sc" horiz-adv-x="963" 
d="M483 389l-135 -391h-116l-193 576h142l120 -383l128 385h118l128 -386l120 384h129l-188 -576h-118zM530 793h144l-120 -156h-136z" />
    <glyph glyph-name="Wcircumflex.sc" horiz-adv-x="963" 
d="M483 389l-135 -391h-116l-193 576h142l120 -383l128 385h118l128 -386l120 384h129l-188 -576h-118zM485 718l-73 -83h-125l139 161h118l136 -161h-122z" />
    <glyph glyph-name="Wdieresis.sc" horiz-adv-x="963" 
d="M483 389l-135 -391h-116l-193 576h142l120 -383l128 385h118l128 -386l120 384h129l-188 -576h-118zM311 786h127v-149h-127v149zM532 786h127v-149h-127v149z" />
    <glyph glyph-name="Wgrave.sc" horiz-adv-x="963" 
d="M483 389l-135 -391h-116l-193 576h142l120 -383l128 385h118l128 -386l120 384h129l-188 -576h-118zM417 637l-120 156h144l112 -156h-136z" />
    <glyph glyph-name="Yacute.sc" horiz-adv-x="669" 
d="M408 0h-136v241l-256 333h166l162 -214l162 214h147l-245 -333v-241zM383 793h144l-120 -156h-136z" />
    <glyph glyph-name="Ycircumflex.sc" horiz-adv-x="669" 
d="M408 0h-136v241l-256 333h166l162 -214l162 214h147l-245 -333v-241zM344 718l-73 -83h-125l139 161h118l136 -161h-122z" />
    <glyph glyph-name="Ydieresis.sc" horiz-adv-x="669" 
d="M408 0h-136v241l-256 333h166l162 -214l162 214h147l-245 -333v-241zM170 786h127v-149h-127v149zM391 786h127v-149h-127v149z" />
    <glyph glyph-name="Ygrave.sc" horiz-adv-x="669" 
d="M408 0h-136v241l-256 333h166l162 -214l162 214h147l-245 -333v-241zM281 637l-120 156h144l112 -156h-136z" />
    <glyph glyph-name="Zacute.sc" horiz-adv-x="686" 
d="M636 0h-576v74l335 387h-327v113h531v-73l-339 -387h376v-114zM373 793h144l-120 -156h-136z" />
    <glyph glyph-name="Zcaron.sc" horiz-adv-x="686" 
d="M636 0h-576v74l335 387h-327v113h531v-73l-339 -387h376v-114zM393 635h-118l-136 161h122l73 -83l73 83h125z" />
    <glyph glyph-name="Zdotaccent.sc" horiz-adv-x="686" 
d="M636 0h-576v74l335 387h-327v113h531v-73l-339 -387h376v-114zM267 789h132v-152h-132v152z" />
    <glyph glyph-name="germandbls.sc" horiz-adv-x="1302" 
d="M304 480q-51 0 -78.5 -15t-27.5 -44q0 -25 21.5 -39t60.5 -19q25 -3 45.5 -5t47.5 -4q48 -4 87 -15.5t67.5 -33t44 -54.5t15.5 -79q0 -82 -63 -132.5t-189 -50.5q-73 0 -124 16.5t-85 42.5t-52.5 58t-25.5 63h138q5 -12 16 -25.5t28.5 -24.5t43.5 -18t61 -7
q59 0 88.5 19.5t29.5 49.5q0 35 -24 49t-64 19q-26 3 -47 5t-47 4q-93 9 -149.5 52.5t-56.5 123.5q0 41 17.5 72.5t49 53t75.5 32.5t97 11q70 0 118 -15t79.5 -38.5t48.5 -52.5t23 -56h-131q-11 19 -43.5 38t-94.5 19zM955 480q-51 0 -78.5 -15t-27.5 -44q0 -25 21.5 -39
t60.5 -19q25 -3 45.5 -5t47.5 -4q48 -4 87 -15.5t67.5 -33t44 -54.5t15.5 -79q0 -82 -63 -132.5t-189 -50.5q-73 0 -124 16.5t-85 42.5t-52.5 58t-25.5 63h138q5 -12 16 -25.5t28.5 -24.5t43.5 -18t61 -7q59 0 88.5 19.5t29.5 49.5q0 35 -24 49t-64 19q-26 3 -47 5t-47 4
q-93 9 -149.5 52.5t-56.5 123.5q0 41 17.5 72.5t49 53t75.5 32.5t97 11q70 0 118 -15t79.5 -38.5t48.5 -52.5t23 -56h-131q-11 19 -43.5 38t-94.5 19z" />
    <glyph glyph-name="napostrophe.sc" horiz-adv-x="996" 
d="M895 -2h-105l-323 409v-407h-126v574h148l282 -363v363h124v-576zM64 386q26 45 44.5 94.5t20.5 100.5h-71v155h151v-138q0 -66 -15.5 -119t-37.5 -93h-92z" />
    <glyph glyph-name="f.short" horiz-adv-x="504" 
d="M295 398v-398h-128v398h-139v108h139v74q0 74 41 115t128 41h171v-102h-132q-42 0 -61 -20.5t-19 -58.5v-49h181v-108h-181z" />
    <glyph glyph-name="f_f.short" horiz-adv-x="868" 
d="M532 398h-237v-398h-128v398h-139v108h139v74q0 74 41 115t128 41h136v-102h-97q-42 0 -61 -20.5t-19 -58.5v-49h237v74q0 74 41 115t127 41h172v-102h-132q-43 0 -62 -20.5t-19 -58.5v-49h182v-108h-182v-398h-127v398z" />
    <glyph glyph-name="four.denalt" horiz-adv-x="505" 
d="M387 119v-119h-108v119h-208v316h108v-224h100v169h108v-169h83v-92h-83z" />
    <glyph glyph-name="four.numalt" horiz-adv-x="505" 
d="M387 394v-119h-108v119h-208v316h108v-224h100v169h108v-169h83v-92h-83z" />
    <glyph glyph-name="four.oldalt" horiz-adv-x="729" 
d="M541 80v-216h-132v216h-311v494h132v-376h179v286h132v-286h153v-118h-153z" />
    <glyph glyph-name="four.subalt" horiz-adv-x="560" 
d="M420 9v-139h-111v139h-233v361h110v-263h123v200h111v-200h102v-98h-102z" />
    <glyph glyph-name="four.supalt" horiz-adv-x="560" 
d="M420 375v-139h-111v139h-233v361h110v-263h123v200h111v-200h102v-98h-102z" />
    <glyph glyph-name="four.tabalt" horiz-adv-x="650" 
d="M500 210v-210h-129v210h-292v500h129v-384h163v285h129v-285h114v-116h-114z" />
    <glyph glyph-name="uni200A" unicode="&#x200a;" horiz-adv-x="83" 
 />
    <glyph glyph-name="j.short" horiz-adv-x="296" 
d="M81 739h134v-152h-134v152zM212 -42q0 -88 -41 -129.5t-125 -41.5h-101v105h58q43 0 62 20t19 62v532h128v-548z" />
    <glyph glyph-name="ringacute" 
d="M336 1025h131l-102 -154h-124zM300 569q-30 0 -55 10.5t-43 28.5t-28 42t-10 52t10.5 52t28.5 42t43 28t54 10t54 -10t43.5 -28t29 -42t10.5 -52t-10.5 -52t-28.5 -42t-43 -28.5t-55 -10.5zM300 641q26 0 43 17.5t17 43.5t-16.5 43t-43.5 17t-43.5 -17t-16.5 -43
t17 -43.5t43 -17.5z" />
    <glyph glyph-name="ringacute.uc" 
d="M339 1208h141l-111 -144h-133zM300 763q-30 0 -55 10.5t-43 28.5t-28 42t-10 52t10.5 52t28.5 42t43 28t54 10t54 -10t43.5 -28t29 -42t10.5 -52t-10.5 -52t-28.5 -42t-43 -28.5t-55 -10.5zM300 835q26 0 43 17.5t17 43.5t-16.5 43t-43.5 17t-43.5 -17t-16.5 -43
t17 -43.5t43 -17.5z" />
    <glyph glyph-name="uni01FA.sc" horiz-adv-x="697" 
d="M486 105h-283l-45 -105h-128l251 576h134l252 -576h-136zM439 212l-94 219l-95 -219h189zM387 1072h141l-111 -144h-133zM348 627q-30 0 -55 10.5t-43 28.5t-28 42t-10 52t10.5 52t28.5 42t43 28t54 10t54 -10t43.5 -28t29 -42t10.5 -52t-10.5 -52t-28.5 -42t-43 -28.5
t-55 -10.5zM348 699q26 0 43 17.5t17 43.5t-16.5 43t-43.5 17t-43.5 -17t-16.5 -43t17 -43.5t43 -17.5z" />
    <glyph glyph-name="uni0237" unicode="&#x237;" horiz-adv-x="295" 
d="M212 -42q0 -88 -41 -129.5t-125 -41.5h-157v105h114q43 0 62 20t19 62v532h128v-548v0z" />
    <glyph glyph-name="uni2009" unicode="&#x2009;" horiz-adv-x="166" 
 />
    <glyph glyph-name="won" unicode="&#x20a9;" horiz-adv-x="1054" 
d="M580 308h-95l-69 -311h-136l-81 307h-144v102h117l-81 304h136l71 -309h98l68 312h136l69 -312h98l70 309h125l-75 -304h111v-102h-136l-77 -307h-135zM562 401l-31 149l-30 -149h61zM349 160l28 148h-59zM717 155l31 153h-60z" />
    </font>
</defs>
</svg>
